<svg width="24" height="24" viewBox="-3 -3 24 24" fill="none" xmlns="http://www.w3.org/2000/svg">
<path fill-rule="evenodd" clip-rule="evenodd" d="M9.65956 17.2508C10.9577 17.0574 12.1405 16.3966 12.9857 15.3925C13.8309 14.3885 14.2803 13.1103 14.2496 11.7983V5.37077C14.2496 5.17185 14.1705 4.98109 14.0299 4.84044C13.8892 4.69978 13.6985 4.62077 13.4996 4.62077C13.3007 4.62077 13.1099 4.69978 12.9692 4.84044C12.8286 4.98109 12.7496 5.17185 12.7496 5.37077V12.0008C12.7497 12.5569 12.6261 13.1061 12.3878 13.6086C12.1494 14.1111 11.8023 14.5543 11.3716 14.906C10.9408 15.2578 10.4372 15.5094 9.89725 15.6425C9.35729 15.7756 8.79447 15.787 8.24956 15.6758C7.38697 15.4811 6.61776 14.9953 6.07137 14.3C5.52498 13.6047 5.23477 12.7424 5.24956 11.8583V4.50077C5.24926 4.16953 5.3221 3.84231 5.46287 3.54247C5.60365 3.24264 5.80889 2.97759 6.06394 2.76624C6.31899 2.55489 6.61756 2.40246 6.93833 2.31984C7.25909 2.23722 7.59415 2.22643 7.91956 2.28827C8.44709 2.40307 8.91822 2.69787 9.25213 3.1221C9.58604 3.54633 9.76191 4.07353 9.74956 4.61327V10.5008C9.74956 10.6997 9.67055 10.8904 9.52989 11.0311C9.38924 11.1717 9.19848 11.2508 8.99956 11.2508C8.80065 11.2508 8.60989 11.1717 8.46923 11.0311C8.32858 10.8904 8.24956 10.6997 8.24956 10.5008V6.00077C8.24956 5.80185 8.17055 5.61109 8.02989 5.47044C7.88924 5.32978 7.69848 5.25077 7.49956 5.25077C7.30065 5.25077 7.10988 5.32978 6.96923 5.47044C6.82858 5.61109 6.74956 5.80185 6.74956 6.00077V10.5008C6.74367 10.8352 6.8124 11.1666 6.95075 11.4711C7.08909 11.7756 7.29357 12.0454 7.54931 12.2609C7.80505 12.4764 8.10562 12.6322 8.42914 12.717C8.75267 12.8017 9.09101 12.8132 9.41956 12.7508C9.95431 12.6362 10.4313 12.3362 10.7662 11.9039C11.1011 11.4715 11.2723 10.9347 11.2496 10.3883V4.50077C11.2497 3.94463 11.1261 3.39543 10.8878 2.89294C10.6494 2.39046 10.3023 1.94728 9.87157 1.5955C9.44082 1.24373 8.93722 0.992162 8.39725 0.859032C7.85729 0.725901 7.29447 0.714538 6.74956 0.825765C5.88697 1.02043 5.11776 1.50627 4.57137 2.20156C4.02498 2.89684 3.73477 3.75911 3.74956 4.64327V12.0008C3.74362 12.7494 3.89787 13.4907 4.20197 14.1749C4.50608 14.859 4.95299 15.4702 5.51272 15.9674C6.07246 16.4647 6.73207 16.8364 7.4473 17.0578C8.16252 17.2791 8.91681 17.3449 9.65956 17.2508Z" fill="#000"/>
</svg>
