<svg width="32" height="32" viewBox="-2 -2 32 32" fill="none" xmlns="http://www.w3.org/2000/svg">
<path fill-rule="evenodd" clip-rule="evenodd" d="M23.3327 4.66634H22.166V3.49967C22.166 3.19026 22.0431 2.89351 21.8243 2.67472C21.6055 2.45592 21.3088 2.33301 20.9993 2.33301C20.6899 2.33301 20.3932 2.45592 20.1744 2.67472C19.9556 2.89351 19.8327 3.19026 19.8327 3.49967V4.66634H8.16602V3.49967C8.16602 3.19026 8.0431 2.89351 7.82431 2.67472C7.60551 2.45592 7.30877 2.33301 6.99935 2.33301C6.68993 2.33301 6.39318 2.45592 6.17439 2.67472C5.9556 2.89351 5.83268 3.19026 5.83268 3.49967V4.66634H4.66602C3.73776 4.66634 2.84752 5.03509 2.19114 5.69147C1.53476 6.34785 1.16602 7.23808 1.16602 8.16634V22.1663C1.16602 23.0946 1.53476 23.9848 2.19114 24.6412C2.84752 25.2976 3.73776 25.6663 4.66602 25.6663H23.3327C24.2609 25.6663 25.1512 25.2976 25.8076 24.6412C26.4639 23.9848 26.8327 23.0946 26.8327 22.1663V8.16634C26.8327 7.23808 26.4639 6.34785 25.8076 5.69147C25.1512 5.03509 24.2609 4.66634 23.3327 4.66634ZM3.49935 8.16634C3.49935 7.85692 3.62227 7.56018 3.84106 7.34138C4.05985 7.12259 4.3566 6.99967 4.66602 6.99967H23.3327C23.6421 6.99967 23.9388 7.12259 24.1576 7.34138C24.3764 7.56018 24.4993 7.85692 24.4993 8.16634V9.33301H3.49935V8.16634ZM24.4993 22.1663C24.4993 22.4758 24.3764 22.7725 24.1576 22.9913C23.9388 23.2101 23.6421 23.333 23.3327 23.333H4.66602C4.3566 23.333 4.05985 23.2101 3.84106 22.9913C3.62227 22.7725 3.49935 22.4758 3.49935 22.1663V11.6663H24.4993V22.1663Z" fill="#000"/>
<path d="M8.3987 14H6.76536C6.2499 14 5.83203 14.4179 5.83203 14.9333V16.5667C5.83203 17.0821 6.2499 17.5 6.76536 17.5H8.3987C8.91416 17.5 9.33203 17.0821 9.33203 16.5667V14.9333C9.33203 14.4179 8.91416 14 8.3987 14Z" fill="#000"/>
<path d="M14.2327 14H12.5993C12.0839 14 11.666 14.4179 11.666 14.9333V16.5667C11.666 17.0821 12.0839 17.5 12.5993 17.5H14.2327C14.7481 17.5 15.166 17.0821 15.166 16.5667V14.9333C15.166 14.4179 14.7481 14 14.2327 14Z" fill="#000"/>
</svg>
