<svg width="48" height="36" viewBox="-7 0 48 36" fill="none" xmlns="http://www.w3.org/2000/svg">
<path d="M27.6476 29.5878H12.668C9.90654 29.5878 7.66797 27.3492 7.66797 24.5878V6C7.66797 3.23857 9.90654 1 12.668 1H26.6108L32.6476 7.2449V24.5877C32.6476 27.3492 30.409 29.5878 27.6476 29.5878Z" fill=""/>
<path d="M26.6108 1H12.668C9.90654 1 7.66797 3.23857 7.66797 6V24.5878C7.66797 27.3492 9.90654 29.5878 12.668 29.5878H27.6476C30.409 29.5878 32.6476 27.3492 32.6476 24.5877V7.2449M26.6108 1L32.6476 7.2449M26.6108 1V5.2449C26.6108 6.34947 27.5063 7.2449 28.6108 7.2449H32.6476" stroke="#0095D4" stroke-width="2" stroke-linecap="round" stroke-linejoin="round"/>
<path d="M21.3331 34.9999H6.35351C3.59209 34.9999 1.35352 32.7613 1.35352 29.9999V11.4121C1.35352 8.65068 3.59209 6.41211 6.35352 6.41211H20.2964L26.3331 12.657V29.9999C26.3331 32.7613 24.0945 34.9999 21.3331 34.9999Z" fill=""/>
<path d="M20.2964 6.41211H6.35352C3.59209 6.41211 1.35352 8.65068 1.35352 11.4121V29.9999C1.35352 32.7613 3.59209 34.9999 6.35351 34.9999H21.3331C24.0945 34.9999 26.3331 32.7613 26.3331 29.9999V12.657M20.2964 6.41211L26.3331 12.657M20.2964 6.41211V10.657C20.2964 11.7616 21.1918 12.657 22.2964 12.657H26.3331" stroke="#0095D4" stroke-width="2" stroke-linecap="round" stroke-linejoin="round"/>
</svg>
