<svg width="38" height="53" viewBox="0 0 38 53" fill="none" xmlns="http://www.w3.org/2000/svg">
<path d="M10.9189 33.8268C10.2704 33.8268 9.687 33.5676 9.16838 32.9839C8.32546 32.0116 8.2608 30.7798 9.10371 29.8071C9.75218 28.9642 11.0487 28.2511 12.8638 27.6031C13.5122 27.4086 14.2254 27.1491 14.9385 27.0197C15.3925 26.1768 15.8461 25.2692 16.235 24.2969C16.6239 23.3893 16.9481 22.5464 17.2072 21.704C16.1699 19.9535 15.1976 17.8792 15.2622 16.2585C15.2622 14.8323 16.1052 13.9247 17.4663 13.7302C18.6982 13.6004 19.6056 14.1842 19.9946 15.3509C20.5133 16.9069 19.9946 19.3055 19.4113 21.3798C19.93 22.2227 20.5133 23.0652 21.2265 23.9081C21.8098 24.6212 22.3285 25.2697 22.9119 25.9176C25.1811 25.9176 27.32 26.1121 28.6169 26.8252C29.7836 27.4737 30.2376 28.4459 29.9134 29.6126C29.5245 30.9091 28.4872 31.5576 27.1906 31.3631C25.5052 31.1687 23.5603 29.5479 22.0694 27.9924C21.032 28.057 19.8653 28.1221 18.6981 28.3166C17.8552 28.4464 17.0127 28.5757 16.2345 28.7706C15.9754 29.2893 15.6512 29.7429 15.3916 30.1322C14.2896 31.753 13.2523 32.8551 12.28 33.4384C11.8264 33.6971 11.3729 33.8268 10.9188 33.8268L10.9189 33.8268ZM13.4472 29.548C12.0855 30.002 11.0486 30.5853 10.5946 31.104C10.4002 31.2984 10.4002 31.4282 10.6593 31.7524C10.7891 31.8822 10.8537 32.0116 11.3724 31.7524C11.9562 31.3631 12.734 30.5853 13.4472 29.5479L13.4472 29.548ZM24.9867 28.057C25.9589 28.8999 26.8019 29.4187 27.4503 29.4832C27.7094 29.5479 27.8392 29.5479 28.0336 29.0943C28.0983 28.9646 28.0983 28.8999 27.7094 28.6403C27.126 28.3812 26.1537 28.1216 24.9866 28.057L24.9867 28.057ZM18.6336 23.8434C18.4391 24.3621 18.2447 24.8156 18.1149 25.1398C17.9204 25.6585 17.6609 26.1121 17.4664 26.5661C17.7907 26.5014 18.1149 26.4363 18.4387 26.4363C19.0871 26.3716 19.7351 26.2418 20.3836 26.2418C20.0594 25.8529 19.8003 25.5287 19.6705 25.3343C19.4114 24.9454 19.0225 24.4267 18.6336 23.8433L18.6336 23.8434ZM17.726 15.7398C17.4669 15.8045 17.272 15.8045 17.272 16.3232C17.272 16.9716 17.5311 17.8792 18.0498 18.9813C18.3089 17.6848 18.374 16.6474 18.1796 16.0641C18.0502 15.7398 17.9851 15.7398 17.726 15.7398V15.7398Z" fill="black" stroke="white" stroke-width="0.5"/>
<path d="M10.2056 38.2999C10.2056 37.7166 10.5945 37.457 11.0485 37.457H13.1878C14.5495 37.457 15.8459 38.2999 15.8459 40.0499C15.8459 41.5409 14.9383 42.6429 13.253 42.6429H11.9565V44.2636C11.9565 44.8469 11.5676 45.1712 11.1136 45.1712C10.5949 45.1712 10.2707 44.8469 10.2707 44.2636L10.2703 38.2998L10.2056 38.2999ZM11.9561 41.0873H12.8636C13.5768 41.0873 14.0303 40.5687 14.0303 40.05C14.0303 39.3368 13.5763 39.0126 12.8636 39.0126H11.9561V41.0873Z" fill="black" stroke="white" stroke-width="0.5"/>
<path d="M16.7534 38.2999C16.7534 37.7166 17.1423 37.457 17.5963 37.457H19.6711C21.9403 37.457 23.2368 39.2722 23.2368 41.2171C23.2368 43.7454 21.5513 45.107 19.6711 45.107H17.5963C17.1423 45.107 16.7534 44.7828 16.7534 44.2641V38.2999ZM18.5039 43.4864H19.4115C20.7731 43.4864 21.4211 42.5788 21.4211 41.2171C21.4211 39.9207 20.7726 39.0778 19.4761 39.0778H18.5038L18.5039 43.4864Z" fill="black" stroke="white" stroke-width="0.5"/>
<path d="M24.2735 38.2999C24.2735 37.7166 24.6624 37.457 25.1164 37.457H27.7745C28.2931 37.457 28.6174 37.7813 28.6174 38.2348C28.6174 38.7535 28.2931 39.0126 27.7745 39.0126H25.9593V40.3743H27.5153C28.0339 40.3743 28.3582 40.6985 28.3582 41.1521C28.3582 41.6708 28.0339 41.9299 27.5153 41.9299H25.9593V44.1339C25.9593 44.7173 25.5704 45.0415 25.1163 45.0415C24.5977 45.0415 24.2734 44.7173 24.2734 44.1339L24.2735 38.2999Z" fill="black" stroke="white" stroke-width="0.5"/>
<path d="M36.0722 14.508C35.5535 14.508 35.1 14.9621 35.1 15.4803V48.2836C35.1 49.3856 34.1924 50.2931 33.0904 50.2931H4.95479C3.85276 50.2931 2.94522 49.3856 2.94522 48.2836V4.97804C2.94522 3.87601 3.8528 2.96847 4.95479 2.96847H25.4406V8.9973C25.4406 10.9423 27.0614 12.563 29.0063 12.563H36.0078C36.3967 12.563 36.7856 12.3039 36.9154 11.9796C37.0452 11.6554 36.9801 11.2018 36.7209 10.8776L27.126 1.28262C26.8668 1.0235 26.5426 0.958387 26.2831 1.0235H5.01926C2.8152 1.0235 1 2.83871 1 5.04276V48.3483C1 50.5523 2.8152 52.3675 5.01926 52.3675H33.0901C35.2941 52.3675 37.1093 50.5523 37.1093 48.3483V15.4802C37.0446 14.9615 36.6557 14.5079 36.0724 14.5079L36.0722 14.508ZM29.0056 10.5535C28.098 10.5535 27.3848 9.84035 27.3848 8.93277V4.26511L33.6732 10.5535H29.0056Z" fill="black" stroke="white" stroke-width="0.5"/>
</svg>
