<svg width="48" height="48" viewBox="-2 -6 48 48" fill="none" xmlns="http://www.w3.org/2000/svg">
<path d="M0.0518736 7.24751L1.18983 2.80063C1.34636 2.18611 1.70033 1.66468 2.17501 1.29706C2.64834 0.929789 3.23762 0.718018 3.86985 0.718018H16.049C16.5374 0.718018 17.0029 0.84283 17.4158 1.07711C17.8233 1.30865 18.1681 1.64456 18.4205 2.06744L20.9041 6.2271C20.9375 6.28269 20.9784 6.32463 21.0214 6.34884C21.0596 6.37067 21.1155 6.38226 21.1847 6.38226H39.1388V6.28575C39.1388 5.94985 39.0014 5.64362 38.7801 5.42264C38.5587 5.20132 38.2528 5.06389 37.9169 5.06389H21.9996C21.3247 5.06389 20.777 4.51657 20.777 3.84135C20.777 3.16647 21.3243 2.6188 21.9996 2.6188H37.9169C38.9267 2.6188 39.8437 3.0304 40.508 3.69468C41.172 4.35864 41.5839 5.2756 41.5839 6.28574V6.64313C42.076 6.83648 42.5183 7.12942 42.8855 7.49669C43.5727 8.18383 44 9.13426 44 10.1798V31.4844C44 32.53 43.5727 33.4807 42.8855 34.1675C42.1984 34.8546 41.248 35.282 40.2025 35.282H3.79754C2.75195 35.282 1.80126 34.8547 1.11447 34.1675C0.427325 33.4803 0 32.5299 0 31.4844V7.60441C0 7.48028 0.0184153 7.36025 0.053199 7.24703L0.0518736 7.24751ZM3.55749 3.40256L2.44372 7.75463V31.4845C2.44372 31.8562 2.59615 32.1952 2.841 32.44C3.08585 32.6848 3.42482 32.8373 3.7965 32.8373H40.2014C40.5731 32.8373 40.9121 32.6848 41.1569 32.44C41.4018 32.1951 41.5542 31.8562 41.5542 31.4845V10.1798C41.5542 9.80812 41.4018 9.46915 41.1569 9.22432C40.9121 8.97947 40.5731 8.82704 40.2014 8.82704H21.1849C20.6959 8.82704 20.2303 8.70189 19.8181 8.46795C19.4106 8.23709 19.0662 7.90152 18.8128 7.47762L16.3292 3.31796C16.2961 3.26237 16.2552 3.22042 16.2126 3.19622C16.1744 3.17473 16.1184 3.1628 16.0492 3.1628H3.87C3.78816 3.1628 3.71655 3.18599 3.66505 3.22589C3.61662 3.2634 3.57741 3.3258 3.55763 3.40253L3.55749 3.40256Z" fill="#0095D4"/>
</svg>
