<svg width="24" height="10" viewBox="-1 0 24 10" fill="none" xmlns="http://www.w3.org/2000/svg">
<path opacity="1" d="M21.8335 4.127L20.9935 2.677C21.0863 2.56848 21.1731 2.45498 21.2535 2.337L21.3835 2.157V2.107L21.0435 1.88699L20.6035 1.547L21.0735 1.857L21.4135 2.077C21.5594 1.85421 21.6108 1.58261 21.5564 1.32193C21.502 1.06126 21.3463 0.832864 21.1235 0.686995C20.9008 0.541126 20.6292 0.489731 20.3685 0.544117C20.1078 0.598502 19.8794 0.754213 19.7335 0.976995L19.6335 1.107C19.5435 1.237 19.4135 1.407 19.2335 1.627C18.7395 2.21752 18.1941 2.763 17.6035 3.257C15.926 4.6843 13.8058 5.48643 11.6035 5.527C9.40132 5.48643 7.28113 4.6843 5.60355 3.257C5.01128 2.77614 4.4625 2.24409 3.96355 1.667C3.78355 1.407 3.65354 1.277 3.60354 1.147L3.50355 1.01699C3.43132 0.906685 3.33807 0.811681 3.22913 0.737407C3.12018 0.663134 2.99768 0.611045 2.86861 0.584116C2.60793 0.529731 2.33633 0.581126 2.11355 0.726995C1.89076 0.872864 1.73505 1.10126 1.68067 1.36193C1.62628 1.62261 1.67768 1.89421 1.82355 2.117L2.60355 1.607L1.82355 2.117V2.167L1.95354 2.34699L2.05355 2.487L1.05355 4.13699C0.981191 4.25081 0.932608 4.37809 0.910719 4.51117C0.88883 4.64425 0.894087 4.78039 0.926174 4.91138C0.958261 5.04238 1.01651 5.16553 1.09743 5.27343C1.17835 5.38133 1.28025 5.47175 1.39702 5.53924C1.51378 5.60673 1.64299 5.64991 1.77688 5.66617C1.91076 5.68244 2.04655 5.67145 2.17608 5.63387C2.30561 5.59629 2.4262 5.5329 2.53059 5.44752C2.63499 5.36213 2.72103 5.2565 2.78355 5.13699L3.41354 4.047C3.67354 4.297 3.95355 4.557 4.27355 4.817C4.75174 5.20485 5.25628 5.55904 5.78355 5.877L5.10355 7.127C5.03119 7.24081 4.98261 7.36809 4.96072 7.50117C4.93883 7.63425 4.94409 7.77039 4.97617 7.90138C5.00826 8.03238 5.06651 8.15553 5.14743 8.26343C5.22835 8.37133 5.33025 8.46175 5.44702 8.52924C5.56378 8.59673 5.69299 8.63991 5.82688 8.65617C5.96076 8.67244 6.09655 8.66145 6.22608 8.62387C6.35561 8.5863 6.4762 8.5229 6.58059 8.43751C6.68499 8.35213 6.77103 8.2465 6.83355 8.127L7.60355 6.757C8.5633 7.14134 9.5739 7.38388 10.6035 7.47699V8.47699C10.6035 8.74221 10.7089 8.99657 10.8964 9.1841C11.084 9.37164 11.3383 9.477 11.6035 9.477C11.8688 9.477 12.1231 9.37164 12.3107 9.1841C12.4982 8.99657 12.6035 8.74221 12.6035 8.47699V7.47699C13.5509 7.38551 14.4821 7.17034 15.3735 6.837L16.1135 8.127C16.1761 8.2465 16.2621 8.35213 16.3665 8.43751C16.4709 8.5229 16.5915 8.5863 16.721 8.62387C16.8505 8.66145 16.9863 8.67244 17.1202 8.65617C17.2541 8.63991 17.3833 8.59673 17.5001 8.52924C17.6168 8.46175 17.7187 8.37133 17.7997 8.26343C17.8806 8.15553 17.9388 8.03238 17.9709 7.90138C18.003 7.77039 18.0083 7.63425 17.9864 7.50117C17.9645 7.36809 17.9159 7.24081 17.8435 7.127L17.1835 5.97699C17.7836 5.63286 18.3554 5.24163 18.8935 4.80699C19.1435 4.607 19.3635 4.397 19.5835 4.207L20.1135 5.127C20.1761 5.2465 20.2621 5.35213 20.3665 5.43751C20.4709 5.5229 20.5915 5.5863 20.721 5.62387C20.8505 5.66145 20.9863 5.67244 21.1202 5.65617C21.2541 5.63991 21.3833 5.59673 21.5001 5.52924C21.6168 5.46174 21.7187 5.37133 21.7997 5.26343C21.8806 5.15553 21.9388 5.03238 21.9709 4.90138C22.003 4.77039 22.0083 4.63425 21.9864 4.50117C21.9645 4.36809 21.9159 4.24081 21.8435 4.127H21.8335Z" fill="#000"/>
</svg>
