<svg width="92" height="102" viewBox="0 0 92 102" fill="none" xmlns="http://www.w3.org/2000/svg">
<path d="M0.564962 74.4334C0.513178 74.43 0.464107 74.409 0.425853 74.374C0.387598 74.3389 0.362459 74.2918 0.354586 74.2405C0.349613 74.2115 0.350788 74.1818 0.35801 74.1533C0.365232 74.1248 0.37836 74.0981 0.396533 74.075C0.414706 74.0519 0.437523 74.0328 0.463519 74.019C0.489515 74.0053 0.518175 73.9971 0.54752 73.9951L91.0481 63.1252L81.0899 57.5851C81.0403 57.5557 81.0036 57.5086 80.9874 57.4533C80.9711 57.398 80.9763 57.3386 81.0021 57.287C81.0282 57.2387 81.0721 57.2025 81.1246 57.1861C81.177 57.1697 81.2338 57.1745 81.2827 57.1994L91.802 63.0726C91.8413 63.099 91.8722 63.1362 91.8909 63.1798C91.9095 63.2233 91.9152 63.2714 91.9071 63.3181C91.8968 63.3635 91.8727 63.4046 91.8382 63.436C91.8037 63.4673 91.7605 63.4874 91.7143 63.4934L0.54752 74.4334" fill="#13110C"/>
<path d="M32.5808 63.6861C32.5808 63.6861 46.7993 63.9491 53.0583 61.4069C59.3172 58.8648 33.773 57.1642 33.773 57.1642L31.3711 60.32L32.5808 63.6861Z" fill="#0095D4"/>
<path d="M31.0195 57.4101L47.447 90.3879L44.0808 94.7709C44.0808 94.7709 16.9938 67.1404 18.5191 59.9172C20.0444 52.694 28.2144 53.255 31.0195 57.4101Z" fill="#CA5098"/>
<path d="M14.3118 61.0039C13.7597 60.9817 13.2176 60.8506 12.7164 60.6182C12.4689 60.4989 12.2556 60.3191 12.0962 60.0953C11.9368 59.8716 11.8365 59.6112 11.8047 59.3383C11.8047 58.4793 12.5411 57.8306 13.2599 57.3747C16.0227 55.618 19.0551 54.3269 22.2363 53.5527C22.9726 55.7968 24.7959 58.8123 22.1485 59.8993C19.6585 60.8749 16.9745 61.2532 14.3118 61.0039Z" fill="#142B2A"/>
<path d="M29.9491 53.3076H30.0896L29.8789 53.3954" fill="#0095D4"/>
<path d="M24.1113 54.8157V59.2688C24.1113 59.2688 70.0103 73.2945 70.957 60.1805C72.2894 41.7718 24.1113 54.8157 24.1113 54.8157Z" fill="#142B2A"/>
<path d="M56.1442 53.3075L55.8633 53.2021L56.1442 53.3075Z" fill="#0095D4"/>
<path d="M66.0658 32.0581C62.1736 22.2226 54.7926 19.9083 49.831 19.5752C49.5681 21.4511 46.3246 22.9414 42.3799 22.9414C38.4352 22.9414 35.3671 21.5213 34.9463 19.6979C30.0549 20.3116 23.4979 22.9764 19.9213 31.9704C13.6974 47.7493 12.7332 59.6711 29.7743 53.2719V49.4499L26.2679 47.6967L31.6327 39.404L30.2302 50.5544L55.2134 50.1161L53.7933 39.404L55.6867 35.0034V41.4728L59.7192 47.6967L56.2127 49.4499V53.3595C73.2539 59.7587 72.2897 47.7668 66.0833 32.0581" fill="#0095D4"/>
<path d="M52.7049 36.126L42.7291 39.6149L30.3164 36.4766V51.4841L43.0096 55.236L55.6853 50.2919V41.5609L54.3529 39.4921L52.7049 36.126Z" fill="#9BCEA4"/>
<path d="M52.707 36.1262L54.3551 39.4923L55.6874 41.5611V35.0918L52.707 36.1262Z" fill="#9BCEA4"/>
<path d="M30.0911 47.6098C30.2309 47.266 30.4331 46.951 30.6872 46.6806C30.9863 46.4169 31.3488 46.2357 31.7391 46.1546C32.7917 45.8207 33.8807 45.6147 34.9825 45.541C35.263 45.541 35.6137 45.541 35.7715 45.804C35.8335 45.9436 35.8482 46.0996 35.8134 46.2484C35.7786 46.3971 35.6962 46.5304 35.5787 46.628C35.3563 46.8036 35.0889 46.9129 34.8072 46.9436L32.9313 47.3117C32.8086 47.3117 32.6508 47.5046 32.7736 47.5747L35.6138 47.7325C35.7498 47.7294 35.8838 47.766 35.9994 47.8377C36.0585 47.9027 36.1034 47.9793 36.1312 48.0626C36.159 48.146 36.1691 48.2342 36.1609 48.3217C36.1526 48.4091 36.1262 48.4939 36.0833 48.5706C36.0404 48.6472 35.982 48.7141 35.9118 48.7669C35.6318 48.9481 35.2914 49.0112 34.9651 48.9422L33.0189 48.837L34.5618 48.9598C34.8949 48.9598 35.3507 49.1702 35.2981 49.5383C35.2455 49.9065 34.8949 49.9415 34.6144 49.9591H32.6858H33.9482C34.141 49.9591 34.3864 49.9591 34.439 50.2221C34.4644 50.2959 34.4644 50.3761 34.439 50.45C34.3879 50.6459 34.2813 50.8229 34.132 50.9598C33.9827 51.0966 33.7972 51.1875 33.5975 51.2214C33.2294 51.3091 32.8436 51.2214 32.4754 51.3266C31.395 51.6308 30.4534 52.2999 29.8106 53.22C29.3723 52.1858 29.1228 51.0813 29.0742 49.9591C29.2332 49.0695 29.5733 48.2221 30.0736 47.4695" fill="#CA5098"/>
<path d="M31.3164 36.7221L33.5605 35.0916L42.5544 38.563L53.0737 33.8994L54.862 35.3721L42.7298 39.6149L31.3164 36.7221Z" fill="white"/>
<path d="M47.0972 8.51231C46.9192 7.26132 46.2969 6.11621 45.344 5.28642C44.6288 4.85542 43.7833 4.69379 42.9596 4.83059H42.6265V8.59998H37.9805L41.0486 16.8926C40.9584 17.5218 40.7244 18.1217 40.3648 18.6459C40.7428 19.0028 41.2026 19.2615 41.704 19.399C42.2054 19.5366 42.7329 19.5489 43.2401 19.4348C43.7402 19.3015 44.1946 19.0349 44.555 18.6634C45.8538 17.3899 46.7186 15.7399 47.027 13.9473C47.4917 12.1535 47.4917 10.271 47.027 8.47724" fill="#E3E3E3"/>
<path d="M37.7327 12.598C37.7979 14.585 38.4915 16.5002 39.7139 18.068C39.9125 18.2958 40.1294 18.5069 40.3625 18.6992C40.7188 18.1733 40.9525 17.5742 41.0463 16.946L37.9782 8.65332C37.7975 9.97196 37.7154 11.3023 37.7327 12.6331" fill="#E3E3E3"/>
<path d="M48.4793 5.97054C48.4925 4.93691 48.277 3.91314 47.8482 2.97254C47.4301 2.20559 46.8276 1.55488 46.095 1.0791C45.5498 0.718814 44.9606 0.430082 44.3418 0.220019C44.2037 0.176717 44.0632 0.141596 43.921 0.114831C42.7405 -0.123565 41.5151 0.0112356 40.4146 0.500539C39.3981 0.913885 38.5246 1.61536 37.9017 2.5187C37.2787 3.42203 36.9333 4.48779 36.9082 5.58483C36.9082 5.88288 36.9082 6.18092 36.9082 6.46143C37.066 11.7211 37.8549 12.8256 37.9952 12.51C38.1354 12.1944 38.4685 8.8458 39.7484 8.74061C41.0282 8.63542 41.712 9.3367 42.6762 8.8458C43.6405 8.3549 44.3067 6.77701 45.4112 7.09259C45.8123 7.16539 46.1715 7.38578 46.4182 7.71029C46.6648 8.0348 46.7809 8.43991 46.7437 8.8458C46.7523 8.93324 46.7523 9.02132 46.7437 9.10877V9.47695V14.8242C47.925 12.0572 48.4874 9.06538 48.3917 6.0582" fill="#142B2A"/>
<path d="M44.396 96.4015C44.396 96.4015 42.6428 101.24 47.2713 101.24C51.8998 101.24 49.5505 92.001 49.5505 92.001L44.396 96.4015Z" fill="#142B2A"/>
<path d="M40.8203 12.5451C40.2184 12.5297 39.6243 12.405 39.0671 12.1769C39.0144 12.1504 38.974 12.1046 38.9544 12.0491C38.9348 11.9935 38.9375 11.9325 38.9619 11.8788C38.9851 11.8272 39.0266 11.7861 39.0784 11.7634C39.1303 11.7407 39.1887 11.7381 39.2423 11.7561C39.8818 12.0347 40.5824 12.1434 41.2761 12.0717C41.3052 12.0693 41.3345 12.0729 41.3621 12.0824C41.3896 12.0919 41.4149 12.107 41.4363 12.1268C41.4577 12.1466 41.4748 12.1706 41.4865 12.1973C41.4982 12.2241 41.5042 12.2529 41.504 12.2821C41.5091 12.3088 41.5083 12.3362 41.502 12.3626C41.4957 12.389 41.4839 12.4137 41.4673 12.4352C41.4508 12.4568 41.4299 12.4745 41.406 12.4874C41.3821 12.5003 41.3557 12.508 41.3287 12.51H40.8729" fill="#13110C"/>
<path d="M43.8006 12.4048H43.6252C43.596 12.4049 43.5672 12.3989 43.5404 12.3873C43.5137 12.3756 43.4897 12.3585 43.4699 12.3371C43.4501 12.3157 43.435 12.2904 43.4255 12.2628C43.416 12.2352 43.4124 12.2059 43.4148 12.1769C43.4147 12.1477 43.4207 12.1188 43.4323 12.0921C43.444 12.0653 43.4611 12.0413 43.4825 12.0215C43.504 12.0018 43.5293 11.9867 43.5569 11.9772C43.5845 11.9677 43.6137 11.964 43.6427 11.9665C44.2354 11.9813 44.8268 11.9044 45.3959 11.7386C45.4236 11.7307 45.4526 11.7286 45.4811 11.7324C45.5096 11.7362 45.5369 11.7458 45.5616 11.7606C45.5862 11.7754 45.6075 11.795 45.6243 11.8184C45.641 11.8417 45.6529 11.8683 45.659 11.8964C45.6671 11.9228 45.6699 11.9506 45.6672 11.9782C45.6645 12.0058 45.6565 12.0325 45.6434 12.057C45.6304 12.0814 45.6126 12.103 45.5912 12.1206C45.5698 12.1381 45.5452 12.1513 45.5187 12.1593C44.9494 12.3262 44.3587 12.4089 43.7655 12.4048" fill="#13110C"/>
<path d="M40.187 14.1229C40.1068 14.1463 40.0216 14.1463 39.9415 14.1229C39.9127 14.1303 39.8826 14.1303 39.8538 14.1229C39.799 14.0239 39.7831 13.908 39.809 13.7978C39.8349 13.6876 39.9009 13.591 39.9941 13.5268C40.1067 13.4819 40.2321 13.4819 40.3447 13.5268C40.4348 13.5704 40.5088 13.6413 40.556 13.7295C40.6033 13.8177 40.6214 13.9186 40.6077 14.0177C40.6239 14.0691 40.6239 14.1241 40.6077 14.1755C40.5721 14.2072 40.5305 14.2314 40.4853 14.2465C40.4401 14.2615 40.3922 14.2672 40.3447 14.2632" fill="#13110C"/>
<path d="M44.3418 14.0704H44.2366C44.1766 14.0512 44.1225 14.017 44.0795 13.9709C44.0366 13.9249 44.0061 13.8686 43.9911 13.8074C43.9573 13.7488 43.9395 13.6823 43.9395 13.6146C43.9395 13.5468 43.9573 13.4803 43.9911 13.4217C44.0188 13.4004 44.0527 13.3888 44.0876 13.3888C44.1224 13.3888 44.1563 13.4004 44.184 13.4217H44.2892C44.3635 13.422 44.4359 13.4459 44.4958 13.49C44.5557 13.5342 44.6 13.5962 44.6223 13.6671C44.6564 13.7225 44.6745 13.7862 44.6745 13.8512C44.6745 13.9162 44.6564 13.98 44.6223 14.0353C44.5871 14.0747 44.5439 14.106 44.4955 14.1272C44.4471 14.1484 44.3946 14.1589 44.3418 14.158" fill="#13110C"/>
<path d="M42.6419 16.1744C42.4405 16.1762 42.2461 16.1009 42.0984 15.964C41.9761 15.8329 41.882 15.6781 41.8217 15.5093C41.7614 15.3405 41.7363 15.1611 41.7478 14.9822C41.7012 14.3987 41.7012 13.8124 41.7478 13.229C41.7478 13.1732 41.7699 13.1196 41.8094 13.0802C41.8488 13.0407 41.9024 13.0186 41.9582 13.0186C41.9868 13.0181 42.015 13.024 42.041 13.0358C42.0671 13.0476 42.0902 13.065 42.1087 13.0868C42.1271 13.1086 42.1405 13.1343 42.1478 13.1619C42.1552 13.1895 42.1562 13.2184 42.151 13.2465C42.151 13.79 42.151 14.351 42.151 14.912C42.1376 15.1577 42.2122 15.4002 42.3614 15.5958C42.4248 15.6345 42.4976 15.655 42.5718 15.655C42.646 15.655 42.7188 15.6345 42.7822 15.5958C42.8316 15.5887 42.8821 15.598 42.9258 15.6223C42.9694 15.6467 43.0039 15.6847 43.0238 15.7305C43.0437 15.7763 43.048 15.8274 43.036 15.8759C43.024 15.9245 42.9965 15.9677 42.9576 15.999C42.8481 16.0251 42.734 16.0251 42.6244 15.999" fill="#13110C"/>
<path d="M42.3613 17.9274C42.0183 17.9347 41.6777 17.869 41.362 17.7346C41.3093 17.7081 41.2689 17.6623 41.2493 17.6067C41.2297 17.5512 41.2324 17.4902 41.2568 17.4365C41.2659 17.4093 41.281 17.3844 41.3009 17.3638C41.3208 17.3431 41.3452 17.3272 41.372 17.3171C41.3989 17.307 41.4277 17.3031 41.4563 17.3055C41.4849 17.308 41.5126 17.3168 41.5374 17.3313C42.0544 17.5418 42.6332 17.5418 43.1503 17.3313C43.204 17.317 43.261 17.3213 43.312 17.3436C43.3629 17.3659 43.4048 17.4049 43.4308 17.4541C43.442 17.4805 43.4477 17.5088 43.4476 17.5375C43.4474 17.5662 43.4415 17.5945 43.43 17.6208C43.4185 17.6471 43.4017 17.6707 43.3808 17.6903C43.3598 17.7099 43.335 17.7249 43.308 17.7346C43.0104 17.8674 42.6872 17.9332 42.3613 17.9274Z" fill="#13110C"/>
<path d="M42.7285 39.6151L43.009 55.2362L55.6846 50.2921V35.0918L42.7285 39.6151Z" fill="#142B2A"/>
<path d="M55.9506 47.6093C55.7977 47.2724 55.5969 46.9595 55.3544 46.6801C55.0508 46.4233 54.6902 46.2429 54.3025 46.1541C53.244 45.8201 52.1492 45.6141 51.0416 45.5405C50.9013 45.51 50.7552 45.5183 50.6193 45.5647C50.4833 45.611 50.3627 45.6936 50.2702 45.8035C50.2062 45.9413 50.1887 46.0961 50.2203 46.2447C50.2519 46.3933 50.3309 46.5277 50.4455 46.6275C50.6697 46.7999 50.9361 46.9089 51.2169 46.943L53.0928 47.3112C53.2156 47.3112 53.3733 47.5041 53.2681 47.5742L50.4105 47.732C50.2744 47.7289 50.1404 47.7655 50.0247 47.8372C49.7442 48.0476 49.8494 48.556 50.0247 48.7664C50.3054 48.9458 50.645 49.0087 50.9714 48.9417C51.6201 48.9417 52.2689 48.9417 52.9176 48.8365L51.3747 48.9592C51.0416 48.9592 50.5857 49.1696 50.6383 49.5378C50.6909 49.906 51.0416 49.941 51.3221 49.9586H53.2507H51.9883C51.7955 49.9586 51.5676 49.9586 51.4975 50.2216C51.4707 50.2952 51.4707 50.3758 51.4975 50.4495C51.5453 50.644 51.6487 50.8205 51.7949 50.9575C51.9412 51.0944 52.1241 51.1859 52.3214 51.2209C52.6896 51.3085 53.0753 51.2209 53.461 51.3261C54.5344 51.6352 55.469 52.3037 56.1084 53.2195C56.5603 52.1889 56.816 51.083 56.8623 49.9586C56.6875 49.0736 56.3486 48.2292 55.8629 47.469" fill="#CA5098"/>
</svg>
