<svg width="64" height="101" viewBox="0 0 64 101" fill="none" xmlns="http://www.w3.org/2000/svg">
<path d="M34.8951 26.7331C35.9264 26.015 36.7975 25.0906 37.4532 24.0185C38.1639 22.5973 38.4481 21.3182 38.0502 21.0624C37.6522 20.8066 35.2077 23.4358 35.2077 23.4358C35.2077 23.4358 35.6483 21.7872 35.2077 21.7019C34.4829 21.5598 33.2891 25.1697 33.2891 25.1697L34.8951 26.7331Z" fill="#9BCEA4"/>
<path d="M39.9834 17.1401C40.1025 16.596 40.2937 16.0702 40.5519 15.5768C42.0442 13.0754 45.6826 13.3881 47.4023 12.8338C47.8286 12.7059 48.3403 12.5638 48.8946 12.4359L49.3636 12.3506C52.0401 11.8459 54.7911 11.8895 57.4503 12.4785C57.6067 12.5156 57.759 12.568 57.9051 12.6348C59.0362 13.0491 59.9765 13.8631 60.5486 14.923C60.8047 15.6297 61.0183 16.3511 61.1882 17.0833C61.7709 18.9735 63.2347 20.5084 63.6327 22.4413C63.7811 23.2996 63.7477 24.1795 63.5348 25.0241C63.3218 25.8687 62.9339 26.6592 62.3962 27.3445C61.2906 28.645 59.9033 29.6767 58.3397 30.3613C56.776 31.0459 55.077 31.3653 53.3714 31.2955C52.5214 31.2261 51.6946 30.9835 50.9418 30.5826C50.189 30.1818 49.5262 29.6312 48.994 28.9647C48.3846 27.8921 47.7107 26.8574 46.9759 25.8664C45.8105 24.6726 44.034 24.4452 42.627 23.493C41.5979 22.8234 40.795 21.8586 40.3234 20.7251C39.8517 19.5916 39.7332 18.3421 39.9834 17.1401Z" fill="#0095D4"/>
<path d="M30.5761 28.8934C31.614 28.1771 32.4863 27.2466 33.1343 26.1647C33.8449 24.7435 34.1292 23.4643 33.7455 23.2227C33.3618 22.9811 30.903 25.5962 30.903 25.5962C30.903 25.5962 31.3436 23.9475 30.903 23.8623C30.1924 23.7201 28.9844 27.3301 28.9844 27.3301L30.5761 28.8934Z" fill="#CA5098"/>
<path d="M1.58203 23.3505C2.10789 21.2898 4.4245 19.4279 9.14297 19.0869C10.5966 20.0097 12.2817 20.5025 14.0035 20.5081C14.6715 20.3944 14.9842 20.1243 15.0979 19.8259C19.0205 21.7303 20.7828 26.463 21.3229 28.0832L22.7441 33.1144L33.2328 26.0082L34.8956 27.9695C34.8956 27.9695 29.6228 43.9441 20.8823 42.7787C17.0023 42.2671 14.4015 38.1455 13.1224 33.5692L12.1844 33.8676L4.59503 29.5471C4.59503 29.5471 1.05616 25.7098 1.65308 23.3505" fill="#0095D4"/>
<path d="M9.38428 91.0718L13.1079 90.7734V90.7023C22.488 73.0649 20.7541 50.9932 20.7257 50.7658C20.7239 50.7453 20.7181 50.7253 20.7085 50.707C20.699 50.6887 20.6859 50.6724 20.67 50.6592C20.6541 50.646 20.6359 50.6361 20.6161 50.63C20.5964 50.6239 20.5757 50.6217 20.5552 50.6237C20.5332 50.6253 20.5118 50.6315 20.4925 50.642C20.4731 50.6524 20.4561 50.6668 20.4427 50.6843C20.4293 50.7017 20.4198 50.7218 20.4146 50.7432C20.4095 50.7646 20.409 50.7868 20.413 50.8085C20.413 51.0216 22.1469 72.9227 12.8663 90.4607L9.31324 90.745C9.27804 90.7554 9.24714 90.777 9.22519 90.8065C9.20324 90.8359 9.19141 90.8717 9.19141 90.9084C9.19141 90.9451 9.20324 90.9809 9.22519 91.0103C9.24714 91.0398 9.27804 91.0613 9.31324 91.0718" fill="#142C2A"/>
<path d="M11.5163 6.65131C12.2882 8.01312 12.9397 9.43977 13.4633 10.915C14.0013 12.3868 14.1625 13.9697 13.9324 15.5198C13.8657 15.9628 13.7006 16.3853 13.4492 16.7562C13.1643 17.0775 12.7937 17.311 12.3809 17.4293C11.9681 17.5476 11.5302 17.5458 11.1183 17.4242C10.3001 17.1362 9.56709 16.6475 8.98649 16.003C7.65675 14.73 6.56007 13.2341 5.74609 11.583" fill="#DEDEDE"/>
<path d="M13.2348 100.296C13.2348 98.9883 7.25147 97.1691 7.25147 97.1691C5.902 97.478 4.52724 97.6635 3.14415 97.7233C3.01624 98.5618 2.8599 99.9831 3.14415 100.353C3.42839 100.722 13.1922 101.603 13.178 100.353" fill="#0095D4"/>
<path d="M17.3853 94.6823C17.3853 93.3606 11.4019 91.5556 11.4019 91.5556C10.0508 91.8552 8.67678 92.0407 7.29454 92.1099C7.16663 92.9342 7.01029 94.3555 7.29454 94.7392C7.57878 95.1229 17.3426 95.9899 17.3284 94.7392" fill="#0095D4"/>
<path d="M15.6368 45.4503C15.6368 45.4503 18.2802 71.5298 7.20888 96.2307L3.0731 96.9271L2.8457 39.1542L10.8188 42.3094L15.6368 45.4503Z" fill="#9BCEA4"/>
<path d="M11.4027 26.4204L14.4441 36.8806L28.0736 27.7137L30.2339 30.2719C30.2339 30.2719 23.3836 51.0076 12.028 49.5011C0.672394 47.9946 -2.29798 22.5973 3.94121 20.636C9.83931 18.7884 11.4027 26.4204 11.4027 26.4204Z" fill="#CA5098"/>
<path d="M12.5252 12.9182H12.6105L13.2217 12.5345C13.2217 12.5345 13.3211 12.5345 13.3496 12.4066C13.379 12.3287 13.379 12.2428 13.3496 12.165C13.049 11.1609 12.6089 10.2041 12.042 9.32252C12.0135 9.29925 11.9782 9.28582 11.9414 9.28427C11.9046 9.28272 11.8683 9.29314 11.8379 9.31394C11.8075 9.33473 11.7847 9.36479 11.7728 9.39964C11.7609 9.43449 11.7606 9.47226 11.772 9.50729C12.3256 10.3465 12.7563 11.2606 13.0511 12.2218L12.4542 12.5913C12.4288 12.6238 12.4151 12.6639 12.4151 12.7051C12.4151 12.7463 12.4288 12.7863 12.4542 12.8187C12.4671 12.8411 12.4858 12.8595 12.5083 12.872C12.5308 12.8845 12.5563 12.8907 12.5821 12.8898" fill="#142C2A"/>
<path d="M12.5116 14.7946C12.8061 14.7117 13.1051 14.6453 13.407 14.5956C13.4271 14.594 13.4466 14.5881 13.4643 14.5784C13.4819 14.5687 13.4973 14.5553 13.5094 14.5392C13.5215 14.5231 13.53 14.5045 13.5344 14.4848C13.5388 14.4652 13.539 14.4448 13.5349 14.425C13.5333 14.4031 13.527 14.3817 13.5166 14.3624C13.5061 14.343 13.4917 14.3261 13.4743 14.3127C13.4569 14.2992 13.4368 14.2896 13.4154 14.2845C13.394 14.2794 13.3717 14.2788 13.3501 14.2829C13.0379 14.3273 12.7292 14.3938 12.4263 14.4819C12.3861 14.495 12.3521 14.5227 12.3311 14.5594C12.3101 14.5962 12.3035 14.6395 12.3126 14.6808C12.3241 14.7134 12.3452 14.7417 12.3731 14.762C12.401 14.7823 12.4345 14.7937 12.469 14.7946" fill="#142C2A"/>
<path d="M11.2047 10.6732C11.2486 10.6721 11.2918 10.6614 11.3311 10.6418C11.3704 10.6221 11.4049 10.594 11.4321 10.5595C11.4566 10.5369 11.4763 10.5094 11.4897 10.4788C11.5031 10.4482 11.51 10.4152 11.51 10.3818C11.51 10.3485 11.5031 10.3154 11.4897 10.2849C11.4763 10.2543 11.4566 10.2268 11.4321 10.2042C11.4138 10.1751 11.3888 10.1508 11.3591 10.1335C11.3294 10.1162 11.2959 10.1063 11.2616 10.1047C11.2207 10.0984 11.179 10.1015 11.1396 10.1138C11.1002 10.1261 11.0641 10.1473 11.0342 10.1758C11.0029 10.2072 10.979 10.2452 10.9643 10.2869C10.9495 10.3287 10.9443 10.3733 10.9489 10.4174C10.9572 10.4913 10.9895 10.5605 11.0408 10.6144C11.0922 10.6683 11.1597 10.7039 11.2332 10.7158" fill="#142C2A"/>
<path d="M9.38365 10.1619C9.42021 10.1762 9.46082 10.1762 9.49737 10.1619C10.2154 9.77524 11.0292 9.6026 11.8424 9.66446C11.8641 9.66645 11.8859 9.66388 11.9066 9.65692C11.9272 9.64995 11.9462 9.63876 11.9622 9.62404C11.9783 9.60932 11.9911 9.59139 11.9998 9.57143C12.0086 9.55147 12.013 9.52993 12.0129 9.50815C12.0149 9.4876 12.0127 9.46684 12.0066 9.44713C12.0005 9.42741 11.9906 9.40911 11.9774 9.39326C11.9642 9.3774 11.948 9.36434 11.9297 9.35479C11.9114 9.34523 11.8914 9.33939 11.8708 9.33761C10.9669 9.26859 10.0626 9.46624 9.26997 9.90609C9.23603 9.92726 9.20784 9.9565 9.188 9.99123C9.16815 10.026 9.15725 10.0651 9.15625 10.105C9.17224 10.17 9.21309 10.2262 9.26997 10.2614H9.34102" fill="#142C2A"/>
<path d="M8.95923 11.7816C9.07979 11.5154 9.243 11.2706 9.44244 11.0568C10.493 9.96044 11.3059 8.65889 11.8301 7.23374L13.3935 7.51796L14.033 2.60052C12.168 3.31747 10.2196 3.79502 8.23439 4.02175C6.21529 4.25257 4.37019 5.2748 3.10378 6.86421C2.62714 7.63509 2.3468 8.51112 2.28734 9.4155C2.22787 10.3199 2.39106 11.225 2.76265 12.0517C3.14617 12.9795 3.73781 13.8069 4.49187 14.4698C5.24593 15.1327 6.14224 15.6133 7.11161 15.8748C9.59876 16.2727 8.40495 13.2313 8.95923 11.8385" fill="#142C2A"/>
<path d="M9.79679 13.3593C9.38086 13.0117 8.89672 12.7551 8.37556 12.606C8.13395 12.5349 7.82128 12.5207 7.70758 12.805C7.68601 12.9033 7.68601 13.0051 7.70758 13.1034C7.74558 13.6409 7.97797 14.1461 8.36134 14.5247C8.83232 15.0513 9.3899 15.4935 10.01 15.8322C10.01 15.8322 10.1237 15.8322 10.1379 15.8322" fill="#DEDEDE"/>
<path d="M12.9818 10.1474C13.027 10.1502 13.0722 10.1427 13.1141 10.1255C13.1559 10.1083 13.1933 10.0818 13.2234 10.0479C13.2675 9.99645 13.2917 9.93092 13.2917 9.86317C13.2917 9.79542 13.2675 9.72989 13.2234 9.67841C13.1827 9.62062 13.1219 9.58005 13.0529 9.56468C13.0143 9.55837 12.9747 9.56154 12.9375 9.57392C12.9004 9.5863 12.8668 9.60754 12.8397 9.63577C12.7955 9.67692 12.7642 9.72995 12.7496 9.78849C12.7349 9.84702 12.7376 9.90856 12.7571 9.96566C12.7766 10.0228 12.8122 10.073 12.8597 10.1103C12.9071 10.1476 12.9643 10.1704 13.0244 10.1758" fill="#142C2A"/>
<path d="M9.38276 53.2673C9.40043 53.2761 9.4199 53.2807 9.43963 53.2807C9.45935 53.2807 9.47882 53.2761 9.49649 53.2673C9.51414 53.2541 9.52843 53.2369 9.5383 53.2172C9.54817 53.1975 9.55331 53.1757 9.55331 53.1537C9.55331 53.1316 9.54817 53.1099 9.5383 53.0901C9.52843 53.0704 9.51414 53.0532 9.49649 53.04L5.61652 48.9895C5.60328 48.9718 5.58612 48.9575 5.56638 48.9476C5.54665 48.9378 5.52491 48.9326 5.50284 48.9326C5.48078 48.9326 5.45899 48.9378 5.43926 48.9476C5.41952 48.9575 5.40236 48.9718 5.38912 48.9895C5.36115 49.0207 5.3457 49.0612 5.3457 49.1032C5.3457 49.1451 5.36115 49.1856 5.38912 49.2169L9.26909 53.2673C9.28675 53.2761 9.30618 53.2807 9.3259 53.2807C9.34563 53.2807 9.3651 53.2761 9.38276 53.2673Z" fill="#142C2A"/>
<path d="M9.38276 56.2381C9.40043 56.2469 9.4199 56.2514 9.43963 56.2514C9.45935 56.2514 9.47882 56.2469 9.49649 56.2381C9.51414 56.2249 9.52843 56.2077 9.5383 56.188C9.54817 56.1682 9.55331 56.1464 9.55331 56.1244C9.55331 56.1023 9.54817 56.0806 9.5383 56.0608C9.52843 56.0411 9.51414 56.0239 9.49649 56.0107L5.61652 51.9602C5.60328 51.9425 5.58612 51.9282 5.56638 51.9183C5.54665 51.9085 5.52491 51.9033 5.50284 51.9033C5.48078 51.9033 5.45899 51.9085 5.43926 51.9183C5.41952 51.9282 5.40236 51.9425 5.38912 51.9602C5.36115 51.9914 5.3457 52.0319 5.3457 52.0739C5.3457 52.1158 5.36115 52.1563 5.38912 52.1876L9.26909 56.2381C9.28675 56.2469 9.30618 56.2514 9.3259 56.2514C9.34563 56.2514 9.3651 56.2469 9.38276 56.2381Z" fill="#142C2A"/>
<path d="M9.38276 59.2366C9.41932 59.2509 9.45993 59.2509 9.49649 59.2366C9.51239 59.2208 9.52501 59.202 9.53361 59.1813C9.54222 59.1605 9.54663 59.1383 9.54663 59.1159C9.54663 59.0934 9.54222 59.0712 9.53361 59.0505C9.52501 59.0297 9.51239 59.0109 9.49649 58.995L5.61652 54.9446C5.60328 54.9269 5.58612 54.9126 5.56638 54.9027C5.54665 54.8928 5.52491 54.8877 5.50284 54.8877C5.48078 54.8877 5.45899 54.8928 5.43926 54.9027C5.41952 54.9126 5.40236 54.9269 5.38912 54.9446C5.36115 54.9758 5.3457 55.0163 5.3457 55.0582C5.3457 55.1002 5.36115 55.1407 5.38912 55.172L9.26909 59.2224C9.28675 59.2312 9.30618 59.2358 9.3259 59.2358C9.34563 59.2358 9.3651 59.2312 9.38276 59.2224" fill="#142C2A"/>
<path d="M9.38276 62.1788C9.41932 62.1931 9.45993 62.1931 9.49649 62.1788C9.51239 62.163 9.52501 62.1441 9.53361 62.1234C9.54222 62.1027 9.54663 62.0804 9.54663 62.058C9.54663 62.0355 9.54222 62.0134 9.53361 61.9926C9.52501 61.9719 9.51239 61.953 9.49649 61.9372L5.61652 57.8157C5.60328 57.798 5.58612 57.7837 5.56638 57.7738C5.54665 57.7639 5.52491 57.7588 5.50284 57.7588C5.48078 57.7588 5.45899 57.7639 5.43926 57.7738C5.41952 57.7837 5.40236 57.798 5.38912 57.8157C5.36115 57.8469 5.3457 57.8874 5.3457 57.9293C5.3457 57.9713 5.36115 58.0118 5.38912 58.0431L9.26909 62.0936C9.28675 62.1023 9.30618 62.1069 9.3259 62.1069C9.34563 62.1069 9.3651 62.1023 9.38276 62.0936" fill="#142C2A"/>
<path d="M9.38411 65.1488C9.42067 65.163 9.46128 65.163 9.49783 65.1488C9.51373 65.1329 9.52635 65.1141 9.53496 65.0934C9.54357 65.0726 9.54797 65.0504 9.54797 65.028C9.54797 65.0055 9.54357 64.9833 9.53496 64.9626C9.52635 64.9418 9.51373 64.923 9.49783 64.9071L5.61787 60.8567C5.60463 60.839 5.58746 60.8247 5.56773 60.8148C5.54799 60.8049 5.52625 60.7998 5.50419 60.7998C5.48212 60.7998 5.46034 60.8049 5.4406 60.8148C5.42087 60.8247 5.4037 60.839 5.39047 60.8567C5.36396 60.8914 5.34961 60.9338 5.34961 60.9775C5.34961 61.0211 5.36396 61.0636 5.39047 61.0983L9.27043 65.1345C9.2881 65.1433 9.30753 65.1478 9.32725 65.1478C9.34697 65.1478 9.36644 65.1433 9.38411 65.1345" fill="#142C2A"/>
<path d="M9.38411 68.1193C9.42067 68.1335 9.46128 68.1335 9.49783 68.1193C9.51373 68.1034 9.52635 68.0846 9.53496 68.0639C9.54357 68.0432 9.54797 68.0209 9.54797 67.9985C9.54797 67.976 9.54357 67.9538 9.53496 67.9331C9.52635 67.9123 9.51373 67.8935 9.49783 67.8776L5.61787 63.8272C5.60463 63.8095 5.58746 63.7952 5.56773 63.7853C5.54799 63.7755 5.52625 63.7703 5.50419 63.7703C5.48212 63.7703 5.46034 63.7755 5.4406 63.7853C5.42087 63.7952 5.4037 63.8095 5.39047 63.8272C5.36396 63.8619 5.34961 63.9043 5.34961 63.948C5.34961 63.9916 5.36396 64.0341 5.39047 64.0688L9.27043 68.1193C9.30699 68.1335 9.34756 68.1335 9.38411 68.1193Z" fill="#142C2A"/>
<path d="M9.38411 71.0904C9.42067 71.1047 9.46128 71.1047 9.49783 71.0904C9.51373 71.0746 9.52635 71.0558 9.53496 71.035C9.54357 71.0143 9.54797 70.9921 9.54797 70.9696C9.54797 70.9472 9.54357 70.925 9.53496 70.9042C9.52635 70.8835 9.51373 70.8647 9.49783 70.8488L5.61787 66.7983C5.5866 66.7704 5.54614 66.7549 5.50419 66.7549C5.46224 66.7549 5.42173 66.7704 5.39047 66.7983C5.36396 66.833 5.34961 66.8755 5.34961 66.9191C5.34961 66.9628 5.36396 67.0052 5.39047 67.0399L9.27043 71.0904C9.30699 71.1047 9.34756 71.1047 9.38411 71.0904Z" fill="#142C2A"/>
<path d="M9.38411 74.0599C9.42067 74.0742 9.46128 74.0742 9.49783 74.0599C9.51373 74.0441 9.52635 74.0253 9.53496 74.0045C9.54357 73.9838 9.54797 73.9616 9.54797 73.9391C9.54797 73.9167 9.54357 73.8945 9.53496 73.8737C9.52635 73.853 9.51373 73.8342 9.49783 73.8183L5.61787 69.7678C5.5866 69.7399 5.54614 69.7244 5.50419 69.7244C5.46224 69.7244 5.42173 69.7399 5.39047 69.7678C5.36396 69.8025 5.34961 69.845 5.34961 69.8886C5.34961 69.9323 5.36396 69.9747 5.39047 70.0094L9.27043 74.0599C9.30699 74.0742 9.34756 74.0742 9.38411 74.0599Z" fill="#142C2A"/>
<path d="M9.38411 77.031C9.42067 77.0453 9.46128 77.0453 9.49784 77.031C9.51569 77.0164 9.53003 76.9979 9.53991 76.977C9.54978 76.9561 9.55491 76.9333 9.55491 76.9102C9.55491 76.8871 9.54978 76.8643 9.53991 76.8434C9.53003 76.8225 9.51569 76.8041 9.49784 76.7894L5.61787 72.7532C5.60325 72.7377 5.58563 72.7253 5.56608 72.7169C5.54653 72.7085 5.52548 72.7041 5.50419 72.7041C5.4829 72.7041 5.4618 72.7085 5.44225 72.7169C5.4227 72.7253 5.40508 72.7377 5.39047 72.7532C5.36396 72.7878 5.34961 72.8303 5.34961 72.8739C5.34961 72.9176 5.36396 72.96 5.39047 72.9947L9.27043 77.0452C9.30699 77.0595 9.34756 77.0595 9.38411 77.0452" fill="#142C2A"/>
<path d="M9.38411 80.0007C9.42067 80.015 9.46128 80.015 9.49783 80.0007C9.51549 79.9874 9.52978 79.9703 9.53965 79.9505C9.54951 79.9308 9.55465 79.9091 9.55465 79.887C9.55465 79.8649 9.54951 79.8432 9.53965 79.8235C9.52978 79.8037 9.51549 79.7866 9.49783 79.7733L5.61787 75.7228C5.60325 75.7073 5.58563 75.695 5.56608 75.6866C5.54653 75.6781 5.52548 75.6738 5.50419 75.6738C5.4829 75.6738 5.4618 75.6781 5.44225 75.6866C5.4227 75.695 5.40508 75.7073 5.39047 75.7228C5.36396 75.7575 5.34961 75.8 5.34961 75.8436C5.34961 75.8873 5.36396 75.9297 5.39047 75.9644L9.27043 80.0149C9.30699 80.0292 9.34756 80.0292 9.38411 80.0149" fill="#142C2A"/>
<path d="M9.38411 82.9851C9.40178 82.9939 9.42125 82.9985 9.44097 82.9985C9.4607 82.9985 9.48017 82.9939 9.49783 82.9851C9.51549 82.9719 9.52978 82.9547 9.53965 82.935C9.54951 82.9152 9.55465 82.8935 9.55465 82.8714C9.55465 82.8494 9.54951 82.8276 9.53965 82.8079C9.52978 82.7881 9.51549 82.771 9.49783 82.7577L5.61787 78.7073C5.60325 78.6918 5.58563 78.6794 5.56608 78.671C5.54653 78.6626 5.52548 78.6582 5.50419 78.6582C5.4829 78.6582 5.4618 78.6626 5.44225 78.671C5.4227 78.6794 5.40508 78.6918 5.39047 78.7073C5.36396 78.742 5.34961 78.7844 5.34961 78.828C5.34961 78.8717 5.36396 78.9141 5.39047 78.9488L9.27043 82.9993C9.30722 83.0124 9.34733 83.0124 9.38411 82.9993" fill="#142C2A"/>
<path d="M31.8672 0V17.1115H57.0087V16.8842H32.1088V0H31.8672Z" fill="#142C2A"/>
<path d="M35.064 15.6053L39.5693 11.029L45.4532 11.7112L51.3229 5.27303L52.7867 6.06891L53.6679 0.995117L48.7931 2.94224L49.8164 3.9797L44.9273 9.96306L38.9582 9.5083L34.2539 15.3353H34.8935L35.064 15.6053Z" fill="#CA5098"/>
<path d="M40.337 5.38644C40.3489 5.53129 40.3254 5.67687 40.2684 5.81058C40.2115 5.94429 40.1228 6.06213 40.0102 6.15392C39.7067 6.34993 39.3469 6.43988 38.9869 6.40973C38.6319 6.43365 38.2785 6.34407 37.9778 6.15392C37.8669 6.06059 37.7796 5.94251 37.7228 5.80919C37.666 5.67587 37.6414 5.53104 37.6509 5.38644V5.3154C37.6419 5.16948 37.6682 5.02355 37.7276 4.88996C37.7869 4.75636 37.8777 4.63902 37.992 4.54792C38.2875 4.35794 38.6364 4.26825 38.9869 4.29211C39.8965 4.29211 40.337 4.63321 40.337 5.3154V5.38644ZM41.7582 5.38644C41.7677 4.95428 41.6491 4.529 41.4172 4.16421C41.1972 3.80247 40.8691 3.51906 40.4792 3.3541L40.3086 3.28305V2.25977H39.3137V3.06988H38.7026V2.25977H37.7077V3.28305L37.5514 3.3541C37.1602 3.5229 36.8285 3.80508 36.5992 4.16421C36.3696 4.53003 36.2511 4.9546 36.2581 5.38644C36.2511 5.81828 36.3696 6.2429 36.5992 6.60872C36.8285 6.96785 37.1602 7.25003 37.5514 7.41883L37.7077 7.48987V8.51316H38.7026V7.70305H39.2569V8.51316H40.2518V7.48987L40.4223 7.41883C40.8122 7.25387 41.1403 6.97045 41.3603 6.60872C41.5938 6.24463 41.7126 5.81882 41.7014 5.38644" fill="#142C2A"/>
</svg>
