<svg width="72" height="101" viewBox="0 0 72 101" fill="none" xmlns="http://www.w3.org/2000/svg">
<path d="M71.1965 101H43.278C43.2534 101 43.2292 100.995 43.2067 100.985C43.1842 100.975 43.1639 100.961 43.1473 100.943C43.1307 100.925 43.1181 100.903 43.1103 100.88C43.1024 100.857 43.0995 100.832 43.1017 100.808V90.0217L0.358632 88.9479C0.333344 88.9458 0.308718 88.9388 0.286148 88.9273C0.263578 88.9157 0.243501 88.8998 0.227114 88.8804C0.210728 88.861 0.198363 88.8386 0.190677 88.8144C0.182991 88.7903 0.180168 88.7648 0.182362 88.7396C0.18226 88.715 0.187288 88.6906 0.197133 88.6681C0.206977 88.6456 0.221381 88.6255 0.239488 88.6089C0.257596 88.5923 0.279014 88.5796 0.302288 88.5717C0.325563 88.5639 0.350212 88.561 0.374674 88.5632L43.2941 89.637C43.3186 89.6369 43.3429 89.642 43.3654 89.6518C43.3879 89.6617 43.4081 89.6761 43.4247 89.6942C43.4413 89.7123 43.454 89.7337 43.4618 89.757C43.4697 89.7802 43.4726 89.8049 43.4703 89.8294V100.615H71.1965C71.2475 100.615 71.2964 100.636 71.3324 100.672C71.3685 100.708 71.3888 100.757 71.3888 100.808C71.3888 100.859 71.3685 100.908 71.3324 100.944C71.2964 100.98 71.2475 101 71.1965 101Z" fill="#13110C"/>
<path d="M55.8581 85.6304C54.942 85.8539 53.9856 85.8539 53.0695 85.6304L52.2842 87.8902H50.6815C50.4946 88.2809 50.3651 88.6965 50.2969 89.1242C50.2969 90.0698 61.1309 94.7015 62.381 94.2687C63.6311 93.836 55.9703 85.5663 55.9703 85.5663" fill="#C74593"/>
<path d="M55.522 84.124C55.4724 84.1091 55.4301 84.0761 55.4034 84.0317C55.3767 83.9872 55.3676 83.9345 55.3778 83.8836C55.3778 83.6593 61.4839 61.2219 59.5767 57.2473C58.9939 55.8881 57.9591 54.7722 56.6477 54.0887C55.3362 53.4052 53.8287 53.1962 52.3807 53.4971C52.3324 53.503 52.2835 53.4919 52.2425 53.4656C52.2015 53.4392 52.171 53.3993 52.1564 53.3528C52.1462 53.302 52.1554 53.2492 52.182 53.2047C52.2087 53.1603 52.251 53.1274 52.3006 53.1124C53.83 52.8173 55.4142 53.0478 56.7961 53.7663C58.1781 54.4849 59.2766 55.6495 59.9133 57.071C61.8846 61.1899 56.0028 83.0662 55.7464 83.9958C55.7362 84.0355 55.7136 84.0709 55.6819 84.0968C55.6502 84.1228 55.611 84.1379 55.5701 84.14" fill="#13110C"/>
<path d="M52.4606 88.1464H48.1014L46.3705 71.3024C44.4953 73.6423 33.7255 86.4636 23.4203 86.9123C22.0844 87.0609 20.7323 86.898 19.4699 86.4364C18.2075 85.9749 17.0692 85.2271 16.1442 84.2519C12.9389 80.5177 13.6921 74.3314 13.7242 74.075V73.9948C13.8043 73.9948 21.5452 68.5778 30.2957 63.6256C42.0913 56.9585 50.0085 54.2019 53.8549 55.4039C54.4752 55.6088 55.0447 55.9435 55.5255 56.3856C56.0063 56.8278 56.3875 57.3673 56.6436 57.9682C58.2462 61.1735 58.0058 67.3277 55.9705 75.9982C55.0033 80.0805 53.821 84.1088 52.4285 88.0662L52.4606 88.1464ZM48.4379 87.7617H52.2042C52.8453 85.9507 59.929 65.4366 56.4032 58.0964C56.1666 57.5402 55.8141 57.0409 55.3691 56.6318C54.9241 56.2228 54.397 55.9135 53.8229 55.7245C45.0884 52.9839 15.7435 73.0653 14.0928 74.2032C14.0127 74.9725 13.4678 80.6138 16.4167 83.9955C17.3061 84.9294 18.4001 85.6442 19.6126 86.0836C20.8251 86.523 22.123 86.6751 23.4043 86.5277C34.5108 86.0469 46.2423 70.8536 46.3545 70.7094L46.6429 70.3247L48.4379 87.7617Z" fill="#13110C"/>
<path d="M26.7067 78.5781C26.6604 78.5968 26.6087 78.5968 26.5624 78.5781C26.5445 78.5603 26.5303 78.539 26.5206 78.5157C26.5109 78.4923 26.5059 78.4672 26.5059 78.4419C26.5059 78.4166 26.5109 78.3915 26.5206 78.3682C26.5303 78.3448 26.5445 78.3236 26.5624 78.3057L27.3958 77.5845C27.4134 77.5617 27.4359 77.5432 27.4616 77.5302C27.4874 77.5173 27.5157 77.5103 27.5445 77.5098C27.5732 77.5093 27.6018 77.5152 27.628 77.5272C27.6542 77.5391 27.6773 77.5568 27.6958 77.579C27.7142 77.6011 27.7274 77.627 27.7345 77.655C27.7415 77.6829 27.7422 77.712 27.7365 77.7403C27.7308 77.7685 27.7188 77.7951 27.7015 77.818C27.6841 77.841 27.6618 77.8598 27.6363 77.873L26.8028 78.5942C26.7616 78.6103 26.7159 78.6103 26.6746 78.5942" fill="#13110C"/>
<path d="M51.6568 80.2939C51.6084 80.2824 51.5664 80.2527 51.5395 80.2108C51.5126 80.169 51.503 80.1184 51.5126 80.0696C51.6248 79.3964 51.769 78.6592 51.8972 77.8739C51.8991 77.8492 51.9061 77.8251 51.9179 77.8032C51.9296 77.7814 51.9459 77.7623 51.9656 77.7472C51.9852 77.732 52.0078 77.7212 52.032 77.7155C52.0561 77.7097 52.0812 77.7091 52.1056 77.7136C52.131 77.7175 52.1554 77.7265 52.1773 77.7399C52.1992 77.7534 52.2181 77.7711 52.2331 77.792C52.248 77.8129 52.2586 77.8366 52.2642 77.8617C52.2699 77.8868 52.2704 77.9127 52.2659 77.938C52.1376 78.7233 51.9934 79.5407 51.8812 80.1336C51.8735 80.1789 51.8499 80.22 51.8147 80.2494C51.7794 80.2788 51.7348 80.2946 51.6889 80.2939M29.2516 76.4315C29.2289 76.4417 29.2043 76.4469 29.1795 76.4469C29.1546 76.4469 29.13 76.4417 29.1073 76.4315C29.0894 76.4136 29.0752 76.3924 29.0655 76.369C29.0557 76.3457 29.0508 76.3206 29.0508 76.2953C29.0508 76.27 29.0557 76.2449 29.0655 76.2215C29.0752 76.1981 29.0894 76.1769 29.1073 76.1591C29.6041 75.7263 30.1811 75.2616 30.7901 74.7487C30.808 74.7308 30.8292 74.7165 30.8526 74.7068C30.876 74.6971 30.901 74.6921 30.9264 74.6921C30.9517 74.6921 30.9767 74.6971 31.0001 74.7068C31.0235 74.7165 31.0447 74.7308 31.0626 74.7487C31.0805 74.7666 31.0947 74.7878 31.1044 74.8112C31.1141 74.8345 31.1192 74.8596 31.1192 74.8849C31.1192 74.9102 31.1141 74.9353 31.1044 74.9587C31.0947 74.9821 31.0805 75.0033 31.0626 75.0212L29.3798 76.4315C29.3381 76.445 29.2932 76.445 29.2516 76.4315ZM52.4261 75.8866C52.4007 75.8827 52.3763 75.8738 52.3544 75.8603C52.3325 75.8469 52.3135 75.8292 52.2986 75.8082C52.2836 75.7873 52.273 75.7636 52.2674 75.7385C52.2618 75.7135 52.2613 75.6875 52.2659 75.6622C52.378 74.941 52.4742 74.2038 52.5704 73.4506C52.5783 73.4024 52.6042 73.359 52.6429 73.3293C52.6815 73.2995 52.7301 73.2856 52.7787 73.2903C52.8034 73.2921 52.8275 73.2991 52.8493 73.3109C52.8712 73.3227 52.8903 73.3389 52.9054 73.3586C52.9206 73.3783 52.9314 73.4009 52.9371 73.425C52.9429 73.4491 52.9435 73.4742 52.9389 73.4986C52.8588 74.2519 52.7466 75.0051 52.6344 75.7263C52.6346 75.7488 52.63 75.771 52.6209 75.7916C52.6119 75.8122 52.5986 75.8306 52.582 75.8457C52.5654 75.8609 52.5458 75.8723 52.5244 75.8793C52.5031 75.8864 52.4805 75.8888 52.4582 75.8866M32.6652 73.6108C32.619 73.6295 32.5673 73.6295 32.521 73.6108C32.5031 73.593 32.4888 73.5717 32.4791 73.5483C32.4694 73.5249 32.4644 73.4999 32.4644 73.4746C32.4644 73.4493 32.4694 73.4242 32.4791 73.4008C32.4888 73.3774 32.5031 73.3562 32.521 73.3384L34.2359 71.9601C34.2523 71.9426 34.2722 71.9287 34.2943 71.9192C34.3163 71.9097 34.3401 71.9048 34.3641 71.9048C34.3881 71.9048 34.4119 71.9097 34.4339 71.9192C34.456 71.9287 34.4758 71.9426 34.4923 71.9601C34.5098 71.9766 34.5236 71.9964 34.5331 72.0185C34.5426 72.0405 34.5476 72.0643 34.5476 72.0883C34.5476 72.1123 34.5426 72.136 34.5331 72.1581C34.5236 72.1801 34.5098 72.2 34.4923 72.2165L32.7934 73.6108C32.7522 73.6269 32.7065 73.6269 32.6652 73.6108ZM53.0031 71.4472C52.9783 71.4454 52.9542 71.4384 52.9324 71.4266C52.9106 71.4148 52.8915 71.3986 52.8763 71.3789C52.8612 71.3592 52.8504 71.3366 52.8446 71.3125C52.8388 71.2883 52.8382 71.2633 52.8428 71.2389C52.8428 70.4536 52.971 69.7164 53.0031 69.0112C53.0031 68.9602 53.0233 68.9112 53.0594 68.8752C53.0955 68.8391 53.1444 68.8188 53.1954 68.8188C53.2464 68.8188 53.2953 68.8391 53.3314 68.8752C53.3675 68.9112 53.3877 68.9602 53.3877 69.0112C53.3877 69.7003 53.2916 70.4536 53.2114 71.2389C53.2074 71.287 53.1853 71.3319 53.1497 71.3646C53.1141 71.3973 53.0675 71.4154 53.0191 71.4152M36.111 70.8382C36.0825 70.8364 36.0548 70.8282 36.0298 70.8144C36.0049 70.8005 35.9833 70.7813 35.9667 70.7581C35.9488 70.7402 35.9346 70.719 35.9249 70.6956C35.9152 70.6722 35.9102 70.6471 35.9102 70.6218C35.9102 70.5965 35.9152 70.5714 35.9249 70.5481C35.9346 70.5247 35.9488 70.5035 35.9667 70.4856L37.7136 69.1394C37.7301 69.1219 37.75 69.108 37.772 69.0985C37.7941 69.089 37.8179 69.0841 37.8419 69.0841C37.8659 69.0841 37.8896 69.089 37.9117 69.0985C37.9337 69.108 37.9536 69.1219 37.9701 69.1394C37.988 69.1572 38.0022 69.1785 38.0119 69.2018C38.0216 69.2252 38.0266 69.2503 38.0266 69.2756C38.0266 69.3009 38.0216 69.326 38.0119 69.3493C38.0022 69.3727 37.988 69.394 37.9701 69.4119L36.2392 70.7581C36.1975 70.7716 36.1526 70.7716 36.111 70.7581M39.6048 68.0816C39.574 68.08 39.5439 68.072 39.5163 68.0582C39.4887 68.0444 39.4643 68.0251 39.4445 68.0015C39.4146 67.9624 39.3984 67.9145 39.3984 67.8652C39.3984 67.816 39.4146 67.7681 39.4445 67.729L41.2235 66.4148C41.2587 66.3833 41.3044 66.3659 41.3517 66.3659C41.399 66.3659 41.4446 66.3833 41.4799 66.4148C41.5098 66.4539 41.526 66.5019 41.526 66.5511C41.526 66.6003 41.5098 66.6482 41.4799 66.6873L39.717 67.9855C39.6806 67.9977 39.6412 67.9977 39.6048 67.9855M53.2595 66.7835C53.2097 66.7798 53.1629 66.7583 53.1276 66.723C53.0923 66.6877 53.0709 66.6409 53.0672 66.5911C53.0748 65.8523 53.0373 65.1137 52.955 64.3795C52.9504 64.3551 52.951 64.33 52.9568 64.3059C52.9626 64.2817 52.9734 64.2591 52.9885 64.2394C53.0036 64.2198 53.0228 64.2035 53.0446 64.1917C53.0664 64.18 53.0905 64.1729 53.1153 64.1711C53.1397 64.1665 53.1647 64.1671 53.1888 64.1729C53.213 64.1787 53.2356 64.1895 53.2553 64.2047C53.275 64.2198 53.2912 64.2389 53.303 64.2607C53.3148 64.2825 53.3218 64.3066 53.3236 64.3314C53.4119 65.0814 53.4547 65.836 53.4518 66.5911C53.4481 66.6409 53.4267 66.6877 53.3914 66.723C53.3561 66.7583 53.3093 66.7798 53.2595 66.7835ZM43.1627 65.4052C43.1111 65.4249 43.0541 65.4249 43.0025 65.4052C42.9697 65.3673 42.9517 65.319 42.9517 65.2689C42.9517 65.2189 42.9697 65.1706 43.0025 65.1327C43.6275 64.7 44.2525 64.2833 44.8295 63.9147C44.8459 63.8972 44.8658 63.8833 44.8879 63.8738C44.9099 63.8643 44.9337 63.8594 44.9577 63.8594C44.9817 63.8594 45.0055 63.8643 45.0275 63.8738C45.0495 63.8833 45.0694 63.8972 45.0859 63.9147C45.1174 63.9499 45.1349 63.9956 45.1349 64.0429C45.1349 64.0902 45.1174 64.1358 45.0859 64.1711C44.5089 64.5397 43.8999 64.9564 43.2749 65.3891C43.2387 65.4027 43.1989 65.4027 43.1627 65.3891M46.8649 63.0332C46.8289 63.029 46.7944 63.0167 46.7639 62.9973C46.7334 62.9779 46.7076 62.9518 46.6886 62.921C46.657 62.8858 46.6396 62.8401 46.6396 62.7928C46.6396 62.7455 46.657 62.6999 46.6886 62.6646C47.4098 62.2479 48.0669 61.9114 48.6438 61.6389C48.6658 61.6285 48.6896 61.6227 48.714 61.6219C48.7383 61.6211 48.7625 61.6254 48.7851 61.6344C48.8076 61.6434 48.8281 61.6571 48.8452 61.6744C48.8622 61.6917 48.8755 61.7124 48.8842 61.7351C48.8949 61.7582 48.9009 61.7832 48.9019 61.8087C48.9028 61.8341 48.8987 61.8595 48.8898 61.8834C48.8808 61.9072 48.8672 61.9291 48.8498 61.9476C48.8323 61.9662 48.8113 61.9811 48.7881 61.9915C48.2271 62.2479 47.5861 62.6005 46.8649 63.0012H46.7847M52.5062 62.3441C52.4709 62.3457 52.436 62.3356 52.407 62.3153C52.378 62.295 52.3566 62.2657 52.346 62.2319C52.2635 62.0097 52.1286 61.8106 51.9529 61.6516C51.7771 61.4926 51.5656 61.3783 51.3363 61.3184C51.1608 61.2938 50.9829 61.2938 50.8074 61.3184C50.783 61.3229 50.7579 61.3223 50.7338 61.3166C50.7097 61.3108 50.6871 61.3 50.6674 61.2849C50.6477 61.2697 50.6315 61.2506 50.6197 61.2288C50.6079 61.2069 50.6009 61.1828 50.5991 61.1581C50.5945 61.1328 50.595 61.1069 50.6006 61.0818C50.6063 61.0567 50.6169 61.033 50.6318 61.0121C50.6468 60.9912 50.6657 60.9735 50.6876 60.96C50.7095 60.9465 50.7339 60.9376 50.7593 60.9337C50.9723 60.9088 51.1874 60.9088 51.4004 60.9337C51.6903 61.0053 51.9585 61.1463 52.1818 61.3445C52.4052 61.5427 52.577 61.7923 52.6825 62.0716C52.7111 62.1082 52.7266 62.1534 52.7266 62.1999C52.7266 62.2463 52.7111 62.2914 52.6825 62.328H52.5864" fill="#13110C"/>
<path d="M51.0506 83.6112C51.001 83.5962 50.9587 83.5633 50.932 83.5189C50.9054 83.4744 50.8962 83.4216 50.9064 83.3708C50.9064 83.3708 51.0025 82.9701 51.1307 82.2649C51.1422 82.2166 51.1721 82.1745 51.2139 82.1476C51.2557 82.1207 51.3064 82.1111 51.3551 82.1207C51.3802 82.1243 51.4042 82.1332 51.4255 82.1469C51.4468 82.1605 51.4649 82.1786 51.4786 82.1999C51.4923 82.2212 51.5012 82.2452 51.5048 82.2702C51.5084 82.2953 51.5065 82.3208 51.4994 82.3451L51.275 83.4509C51.2679 83.4935 51.2467 83.5326 51.2147 83.5616C51.1827 83.5907 51.1418 83.6082 51.0987 83.6112" fill="#13110C"/>
<path d="M35.8578 29.5209C35.8578 29.5209 25.5847 28.6074 20.5684 41.557C15.552 54.5065 11.4492 74.7481 11.4492 74.7481C18.6293 73.4449 25.5616 71.0278 31.9954 67.5842C42.4928 61.8787 43.9032 60.0517 43.9032 60.0517C43.9032 60.0517 47.1085 38.2074 43.9032 34.1686C43.9032 34.1686 44.4641 37.1656 42.0281 37.0374C39.592 36.9092 35.8578 29.585 35.8578 29.585" fill="#0095D4"/>
<path d="M35.1523 57.9682L48.4544 51.7499L49.7205 54.7789C49.7205 54.7789 34.4471 72.4083 30.2481 69.2029C26.0491 65.9976 23.8375 35.5469 33.8701 34.8257C43.9028 34.1045 35.1523 57.9522 35.1523 57.9522" fill="#C74593"/>
<path d="M48.069 90.4384C48.6416 90.7908 49.2868 91.0085 49.9559 91.0752C50.625 91.1418 51.3005 91.0556 51.9314 90.823C51.9314 90.823 59.6402 99.0767 58.342 99.5254C57.0439 99.9742 46.2099 95.3265 46.258 94.3809C46.6873 93.0015 47.279 91.678 48.0209 90.4384" fill="#C74593"/>
<path d="M49.0474 16.1385C48.913 18.9378 48.6079 21.7263 48.1339 24.4884C47.8306 26.5847 47.022 28.5759 45.778 30.2901C45.4448 30.7538 44.9977 31.1236 44.4798 31.3639C43.9367 31.5113 43.3615 31.4889 42.8315 31.2999C42.3015 31.1108 41.842 30.764 41.5149 30.3061C40.7884 29.3323 40.2851 28.2107 40.0404 27.0207C39.3799 24.4747 39.1151 21.8422 39.2551 19.2157" fill="#E3E3E3"/>
<path d="M49.0477 16.1388C48.5349 12.9335 46.6117 9.16724 40.2331 10.3372C29.5433 12.3085 33.5499 22.5175 33.5499 22.5175C33.9346 25.4664 37.5887 27.2293 37.5887 27.2293C44.6404 26.0754 48.2464 18.1101 49.0477 16.1388Z" fill="#142B2A"/>
<path d="M33.7736 15.0003C30.5682 14.2791 26.9462 16.2183 24.1576 18.5422C19.8144 22.1802 16.5449 26.892 12.6505 31.0109C9.44513 34.3925 5.63078 37.7581 4.63713 42.0693C4.21916 44.2341 4.48809 46.4754 5.40638 48.4799C6.11237 50.3542 7.40102 51.9526 9.08285 53.0402C10.7647 54.1278 12.751 54.6471 14.7499 54.522C16.4649 54.2254 18.0924 53.5509 19.5144 52.5474C20.9364 51.544 22.1174 50.2367 22.9716 48.7204C24.6064 45.7908 25.3631 42.4525 25.1512 39.1044C24.9591 37.4271 24.9591 35.7333 25.1512 34.0559C25.9457 31.1124 27.7068 28.5215 30.1515 26.6997C33.2287 24.1675 37.0911 22.1802 38.838 18.6864C39.1596 18.1752 39.3302 17.5835 39.3302 16.9795C39.3302 16.3756 39.1596 15.7839 38.838 15.2727C38.6617 15.0804 38.4053 14.8721 38.4213 14.5996" fill="#142B2A"/>
<path d="M46.8359 49.8748L61.1798 35.0662L66.3084 41.9897L55.1377 54.5225L46.8359 49.8748Z" fill="#9BCEA4"/>
<path d="M48.4395 51.8137C48.4395 51.8137 50.7473 48.0635 51.3884 48.0635C52.0294 48.0635 51.148 50.211 51.148 50.211C52.583 49.4167 54.0596 48.6999 55.5713 48.0635C55.972 48.0635 53.1673 50.5957 53.1673 50.5957C53.1673 50.5957 55.972 48.6564 56.1483 48.993C56.3246 49.3296 53.5359 51.397 53.5359 51.397C53.5359 51.397 55.7476 50.163 55.7476 50.6278C55.7476 51.0925 53.1673 52.3426 53.1673 52.3426C53.1673 52.3426 54.77 52.0541 54.77 52.3426C53.1563 53.3171 51.4745 54.1741 49.7376 54.9068L48.4395 51.8137Z" fill="#0095D4"/>
<path d="M66.3085 41.9898L65.0584 34.4092L62.4941 36.8453L66.3085 41.9898Z" fill="#C74593"/>
<path d="M46.2417 26.732C46.0287 26.7565 45.8136 26.7565 45.6007 26.732C45.5756 26.7284 45.5516 26.7195 45.5303 26.7058C45.509 26.6922 45.4909 26.674 45.4772 26.6528C45.4635 26.6315 45.4546 26.6075 45.451 26.5825C45.4474 26.5574 45.4493 26.5319 45.4564 26.5076C45.4583 26.4828 45.4653 26.4588 45.4771 26.4369C45.4888 26.4151 45.5051 26.396 45.5248 26.3809C45.5444 26.3657 45.567 26.355 45.5912 26.3492C45.6153 26.3434 45.6404 26.3427 45.6648 26.3473C46.0803 26.4518 46.5153 26.4518 46.9309 26.3473C47.1789 24.9376 47.3395 23.5138 47.4117 22.0842C47.4137 22.0589 47.4207 22.0343 47.4323 22.0117C47.4439 21.9892 47.4598 21.9691 47.4791 21.9527C47.4985 21.9364 47.5209 21.9239 47.5451 21.9163C47.5693 21.9086 47.5947 21.9058 47.62 21.9079C47.6445 21.9078 47.6689 21.9129 47.6914 21.9227C47.7139 21.9326 47.7341 21.947 47.7507 21.9651C47.7673 21.9832 47.7799 22.0046 47.7878 22.0279C47.7956 22.0511 47.7985 22.0758 47.7963 22.1003C47.7223 23.5419 47.5509 24.9769 47.2834 26.3954C47.3004 26.4638 47.3004 26.5353 47.2834 26.6037C47.2158 26.6783 47.1258 26.7289 47.027 26.748C46.7701 26.8115 46.5064 26.8438 46.2417 26.8441" fill="#142B2A"/>
<path d="M45.985 23.8796H45.7927C45.76 23.8667 45.7304 23.8473 45.7056 23.8225C45.6808 23.7977 45.6613 23.768 45.6484 23.7354C45.6484 23.7354 45.6484 23.6552 45.6484 23.6072V23.479C45.6649 23.4268 45.6919 23.3785 45.7277 23.3372C45.7636 23.2958 45.8075 23.2623 45.8568 23.2385C45.904 23.2146 45.9561 23.2021 46.009 23.2021C46.062 23.2021 46.1141 23.2146 46.1613 23.2385C46.2093 23.2657 46.2511 23.3026 46.2842 23.3467C46.3173 23.3908 46.3409 23.4413 46.3536 23.495C46.3607 23.5534 46.3542 23.6127 46.3348 23.6683C46.3153 23.7239 46.2834 23.7742 46.2414 23.8155C46.1748 23.8725 46.0885 23.9013 46.001 23.8956" fill="#142B2A"/>
<path d="M45.6665 29.1202C45.1393 29.025 44.6625 28.747 44.3202 28.3349C44.3034 28.316 44.2904 28.2939 44.2821 28.2699C44.2738 28.246 44.2703 28.2207 44.2718 28.1954C44.2748 28.1443 44.298 28.0964 44.3362 28.0624C44.3745 28.0284 44.4247 28.011 44.4758 28.014C44.5269 28.017 44.5747 28.0402 44.6087 28.0785C44.8933 28.4232 45.2907 28.656 45.7305 28.7356C45.7789 28.7471 45.821 28.7768 45.8479 28.8187C45.8748 28.8605 45.8844 28.9111 45.8748 28.9599C45.8677 29.0026 45.8465 29.0416 45.8145 29.0706C45.7825 29.0997 45.7416 29.1172 45.6985 29.1202" fill="#142B2A"/>
<path d="M47.605 22.1488H47.4928C46.9683 21.7633 46.3756 21.4806 45.7459 21.3154C45.6963 21.3005 45.654 21.2676 45.6273 21.2231C45.6007 21.1786 45.5915 21.1259 45.6017 21.075C45.6167 21.0254 45.6495 20.9831 45.694 20.9564C45.7385 20.9298 45.7913 20.9206 45.8421 20.9308C46.51 21.1177 47.1394 21.4216 47.7012 21.8283C47.735 21.8506 47.7609 21.883 47.7752 21.9209C47.7895 21.9588 47.7915 22.0003 47.7808 22.0394C47.7702 22.0785 47.7474 22.1132 47.7158 22.1386C47.6843 22.164 47.6455 22.1788 47.605 22.1809" fill="#142B2A"/>
<path d="M36.7071 11.6834C37.6212 12.3784 38.7617 12.7076 39.9056 12.6069C41.0495 12.5061 42.1148 11.9826 42.8934 11.1385L44.2076 1.52246L41.435 5.24066L39.7201 1.71477L37.7649 5.88171L34.9121 2.1956L36.7071 11.6834Z" fill="#C74593"/>
<path d="M34.1263 0.737118C34.0296 0.809121 33.9587 0.910363 33.924 1.02583C33.8894 1.1413 33.8929 1.26484 33.934 1.37817C33.997 1.53262 34.1026 1.66598 34.2385 1.7628C34.3095 1.81648 34.3845 1.86469 34.4628 1.90703C34.5314 1.92226 34.6026 1.92226 34.6712 1.90703C34.8279 1.8927 34.9746 1.82397 35.0858 1.71272C35.1971 1.60146 35.2659 1.45475 35.2802 1.29806C35.2832 1.16277 35.2481 1.02934 35.1789 0.913046C35.1097 0.796755 35.0092 0.702279 34.8888 0.640424C34.7685 0.57857 34.6331 0.551816 34.4983 0.563245C34.3634 0.574675 34.2345 0.623803 34.1263 0.705034" fill="#C74593"/>
<path d="M45.1056 0.272731C45.1972 0.345218 45.2645 0.443779 45.2989 0.555379C45.3332 0.666978 45.3329 0.786386 45.2979 0.897794C45.2234 1.04981 45.1135 1.1817 44.9774 1.28242C44.9157 1.34834 44.8386 1.3979 44.753 1.42665C44.6899 1.44227 44.6239 1.44227 44.5607 1.42665C44.4012 1.41592 44.2507 1.34877 44.1361 1.23718C44.0216 1.12559 43.9505 0.976842 43.9357 0.817631C43.9333 0.680925 43.9699 0.546361 44.0411 0.429632C44.1122 0.312904 44.2152 0.218805 44.3378 0.158332C44.4604 0.0978583 44.5977 0.0735219 44.7336 0.0880976C44.8696 0.102673 44.9986 0.1556 45.1056 0.240695" fill="#C74593"/>
<path d="M40.3442 0.432751C40.3154 0.318536 40.2524 0.215865 40.1636 0.138512C40.0748 0.061158 39.9644 0.0127957 39.8474 0C39.6829 0.00881328 39.5231 0.0584227 39.3826 0.144283C39.3016 0.188412 39.2262 0.242191 39.1582 0.30451C39.1116 0.356914 39.0738 0.416457 39.046 0.480829C38.9961 0.633087 39.0008 0.797958 39.0593 0.947132C39.1178 1.09631 39.2264 1.22047 39.3665 1.2982C39.8794 1.57066 40.4724 0.977657 40.3442 0.432751Z" fill="#C74593"/>
</svg>
