<svg width="85" height="101" viewBox="0 0 85 101" fill="none" xmlns="http://www.w3.org/2000/svg">
<path d="M22.5491 31.1796H6.14976C4.48203 35.16 2.42194 38.9642 0 42.5361H6.47781C6.47781 40.4376 7.31144 38.4249 8.79536 36.941C10.2793 35.4571 12.2919 34.6235 14.3905 34.6235C16.489 34.6235 18.5017 35.4571 19.9856 36.941C21.4695 38.4249 22.3031 40.4376 22.3031 42.5361H28.7809C26.359 38.9642 24.2989 35.16 22.6312 31.1796" fill="#0095D4"/>
<path d="M16.6668 8.13818H17.3638C17.4176 8.13818 17.471 8.12757 17.5207 8.10696C17.5704 8.08636 17.6156 8.0562 17.6537 8.01813C17.6918 7.98006 17.7219 7.93487 17.7425 7.88513C17.7631 7.83539 17.7738 7.78207 17.7738 7.72823V5.26831C17.7739 5.1576 17.7314 5.05107 17.6551 4.9709C17.5787 4.89074 17.4744 4.84311 17.3638 4.83784H16.4824C16.4824 4.26386 16.4824 3.6489 16.4824 3.05442H15.1089L14.6989 0.348514C14.7047 0.306507 14.7016 0.263741 14.6901 0.222959C14.6785 0.182177 14.6586 0.144268 14.6316 0.111542C14.6047 0.0788158 14.5712 0.0519699 14.5334 0.0327807C14.4956 0.0135915 14.4542 0.00243831 14.4119 0C14.3688 0.0026093 14.3266 0.013713 14.2878 0.0326556C14.249 0.0515981 14.2144 0.0780381 14.1858 0.110416C14.1573 0.142794 14.1354 0.180473 14.1214 0.221332C14.1074 0.262192 14.1016 0.305423 14.1044 0.348514L13.7149 3.05442H12.3415C12.3415 3.6489 12.3415 4.26386 12.3415 4.83784H11.46C11.3494 4.84311 11.2451 4.89074 11.1688 4.9709C11.0924 5.05107 11.0499 5.1576 11.05 5.26831V7.72823C11.05 7.83697 11.0932 7.94124 11.1701 8.01813C11.247 8.09502 11.3513 8.13818 11.46 8.13818H12.1571C11.5341 15.4821 9.78479 22.6865 6.9707 29.4984H11.0705L13.1205 22.7951H15.9083L17.9582 29.4984H22.0581C19.244 22.6865 17.4948 15.4821 16.8718 8.13818" fill="#0095D4"/>
<path d="M84.1502 100.939H58.4442C58.3898 100.939 58.3377 100.917 58.2993 100.879C58.2608 100.84 58.2392 100.788 58.2392 100.734V89.0902L22.6321 87.9217C22.6044 87.925 22.5763 87.922 22.5499 87.9128C22.5236 87.9037 22.4996 87.8887 22.4799 87.869C22.4601 87.8493 22.4451 87.8253 22.436 87.7989C22.4268 87.7726 22.4238 87.7444 22.4271 87.7167C22.4271 87.5937 22.4271 87.5322 22.6321 87.5117L58.4647 88.6802C58.5154 88.6853 58.5624 88.7091 58.5966 88.747C58.6307 88.7849 58.6495 88.8342 58.6492 88.8852V100.59H84.1502C84.203 100.595 84.2525 100.618 84.29 100.655C84.3275 100.693 84.3505 100.742 84.3552 100.795C84.3552 100.85 84.3336 100.902 84.2951 100.94C84.2567 100.979 84.2046 101 84.1502 101" fill="#13110C"/>
<path d="M72.0541 84.334C71.0575 84.5773 70.0169 84.5773 69.0203 84.334L68.1798 86.7734H66.3963C66.1971 87.1958 66.059 87.6445 65.9863 88.1058C65.9863 89.1308 77.6915 94.1326 79.0239 93.6611C80.3564 93.1896 72.0541 84.252 72.0541 84.252" fill="#C74593"/>
<path d="M71.6673 82.7146C71.6146 82.6959 71.5707 82.6583 71.5442 82.609C71.5177 82.5598 71.5104 82.5024 71.5238 82.4481C71.5238 82.2021 78.1246 57.9721 76.0542 53.7492C75.4357 52.2708 74.3224 51.0533 72.9051 50.3054C71.4877 49.5574 69.8545 49.3255 68.285 49.6494C68.2311 49.6563 68.1766 49.6435 68.1314 49.6134C68.0862 49.5832 68.0533 49.5378 68.0389 49.4854C68.032 49.4316 68.0449 49.377 68.0751 49.3318C68.1052 49.2866 68.1506 49.2538 68.2029 49.2395C69.8526 48.9233 71.5607 49.1746 73.0495 49.9524C74.5382 50.7303 75.72 51.989 76.4026 53.5238C78.4525 57.9516 72.1798 81.5872 71.8928 82.5916C71.8803 82.6315 71.8561 82.6666 71.8231 82.6922C71.7901 82.7179 71.7501 82.7329 71.7083 82.7351" fill="#13110C"/>
<path d="M68.3663 87.0606H63.6516L61.7861 68.8778C59.7361 71.3992 48.1337 85.2772 36.9821 85.7282C35.5409 85.8855 34.0828 85.7085 32.7211 85.2107C31.3594 84.713 30.1309 83.908 29.1309 82.8583C25.605 78.7584 26.4864 72.1577 26.5274 71.8707V71.7682C26.5274 71.7682 34.9527 65.9055 44.4233 60.5757C57.1533 53.3805 65.7014 50.3261 69.8422 51.6995C70.5162 51.9174 71.1357 52.2772 71.6591 52.7545C72.1824 53.2319 72.5974 53.8158 72.8762 54.4669C74.5776 58.0133 74.3316 64.573 72.1177 73.9411C71.0879 78.3539 69.8149 82.7063 68.3048 86.9786L68.3663 87.0606ZM64.0205 86.6506H68.1204C68.8173 84.7032 76.4635 62.5436 72.6506 54.6104C72.3904 54.0124 72.0079 53.4756 71.5278 53.0342C71.0477 52.5929 70.4805 52.257 69.8628 52.048C60.4331 49.0961 28.7414 70.7842 26.958 72.0142C26.958 72.8342 26.2815 78.9634 29.4793 82.5918C30.4403 83.5986 31.6217 84.3689 32.9307 84.842C34.2396 85.315 35.6405 85.478 37.0231 85.3181C49.0152 84.8057 61.6221 68.3858 61.8066 68.2218L62.1141 67.8323L64.0205 86.6506Z" fill="#13110C"/>
<path d="M40.548 76.7493C40.5257 76.7602 40.5012 76.7658 40.4763 76.7658C40.4515 76.7658 40.4269 76.7602 40.4045 76.7493C40.3831 76.732 40.3658 76.7102 40.354 76.6853C40.3421 76.6605 40.3359 76.6333 40.3359 76.6058C40.3359 76.5783 40.3421 76.5511 40.354 76.5263C40.3658 76.5015 40.3831 76.4797 40.4045 76.4624L41.3065 75.6629C41.3448 75.6253 41.3963 75.6042 41.45 75.6042C41.5036 75.6042 41.5552 75.6253 41.5935 75.6629C41.6268 75.7033 41.645 75.754 41.645 75.8064C41.645 75.8587 41.6268 75.9095 41.5935 75.9499L40.671 76.7288C40.6312 76.7429 40.5878 76.7429 40.548 76.7288" fill="#13110C"/>
<path d="M67.5055 78.5942C67.4783 78.5893 67.4524 78.579 67.4293 78.5639C67.4062 78.5488 67.3863 78.5291 67.371 78.5062C67.3557 78.4832 67.3452 78.4573 67.3401 78.4302C67.335 78.4031 67.3355 78.3752 67.3414 78.3482C67.4644 77.6307 67.608 76.8312 67.7515 75.9703C67.7563 75.9431 67.7666 75.9172 67.7817 75.8941C67.7969 75.8711 67.8166 75.8512 67.8395 75.8359C67.8625 75.8206 67.8883 75.8101 67.9155 75.805C67.9426 75.7999 67.9705 75.8004 67.9974 75.8063C68.0238 75.8086 68.0493 75.8165 68.0724 75.8295C68.0954 75.8425 68.1154 75.8603 68.1309 75.8816C68.1465 75.903 68.1572 75.9275 68.1625 75.9534C68.1677 75.9793 68.1673 76.006 68.1613 76.0318C68.0178 76.8927 67.8744 77.6922 67.7309 78.4097C67.7231 78.4558 67.701 78.4983 67.668 78.5314C67.6349 78.5644 67.5925 78.5863 67.5464 78.5942M43.2959 74.4943C43.2732 74.5039 43.2488 74.5089 43.2241 74.5089C43.1995 74.5089 43.1751 74.5039 43.1524 74.4943C43.1149 74.456 43.0938 74.4045 43.0938 74.3509C43.0938 74.2972 43.1149 74.2457 43.1524 74.2074L44.9768 72.6905C44.9962 72.6689 45.0201 72.6517 45.0467 72.64C45.0733 72.6284 45.102 72.6225 45.131 72.6228C45.1601 72.6231 45.1888 72.6295 45.2151 72.6417C45.2415 72.6539 45.2649 72.6715 45.2839 72.6935C45.3029 72.7154 45.3171 72.7411 45.3255 72.769C45.3338 72.7968 45.3361 72.8261 45.3322 72.8549C45.3284 72.8836 45.3185 72.9113 45.3032 72.9359C45.2879 72.9606 45.2674 72.9817 45.2433 72.9979C44.5668 73.5514 43.9519 74.0639 43.4189 74.5354H43.2754M68.3048 73.9614C68.2524 73.9517 68.2051 73.9237 68.1713 73.8825C68.1376 73.8412 68.1195 73.7892 68.1204 73.7359C68.2434 72.9569 68.3664 72.1575 68.4689 71.3375C68.4824 71.2965 68.5085 71.2608 68.5434 71.2355C68.5784 71.2102 68.6205 71.1965 68.6637 71.1965C68.7069 71.1965 68.7488 71.2102 68.7838 71.2355C68.8188 71.2608 68.8449 71.2965 68.8584 71.3375C68.8584 72.1575 68.6534 72.9569 68.5304 73.7359C68.5215 73.785 68.4965 73.8297 68.4594 73.8631C68.4223 73.8965 68.3751 73.9166 68.3254 73.9204M46.9652 71.4605C46.9398 71.4731 46.9117 71.4797 46.8833 71.4797C46.8548 71.4797 46.8267 71.4731 46.8012 71.4605C46.7637 71.4222 46.7427 71.3706 46.7427 71.317C46.7427 71.2633 46.7637 71.2118 46.8012 71.1735L48.6462 69.6771C48.6635 69.6557 48.6853 69.6384 48.7101 69.6265C48.735 69.6147 48.7622 69.6085 48.7897 69.6085C48.8172 69.6085 48.8443 69.6147 48.8692 69.6265C48.894 69.6384 48.9159 69.6557 48.9332 69.6771C48.9665 69.7175 48.9848 69.7682 48.9848 69.8205C48.9848 69.8729 48.9665 69.9236 48.9332 69.964L47.0882 71.4605H46.9652ZM68.9199 69.1236C68.8927 69.1187 68.8668 69.1084 68.8437 69.0933C68.8206 69.0781 68.8007 69.0585 68.7854 69.0355C68.7701 69.0125 68.7596 68.9867 68.7545 68.9596C68.7494 68.9325 68.7499 68.9045 68.7559 68.8776C68.7559 68.0576 68.8788 67.2376 68.9403 66.4997C68.9403 66.4453 68.9619 66.3932 69.0004 66.3547C69.0388 66.3163 69.091 66.2947 69.1454 66.2947C69.1724 66.2972 69.1985 66.3051 69.2225 66.3179C69.2464 66.3306 69.2675 66.348 69.2846 66.3689C69.3018 66.3899 69.3147 66.4141 69.3224 66.44C69.3302 66.466 69.3326 66.4932 69.3298 66.5202C69.3298 67.2582 69.3299 68.0781 69.1454 68.9186C69.1454 68.9455 69.14 68.9721 69.1297 68.997C69.1194 69.0219 69.1044 69.0445 69.0853 69.0635C69.0663 69.0825 69.0436 69.0977 69.0188 69.108C68.9939 69.1183 68.9672 69.1236 68.9403 69.1236M50.6961 68.4881C50.6431 68.5068 50.5851 68.5068 50.5321 68.4881C50.5107 68.4708 50.4934 68.4489 50.4815 68.4241C50.4697 68.3993 50.4635 68.3721 50.4635 68.3446C50.4635 68.3171 50.4697 68.2899 50.4815 68.2651C50.4934 68.2402 50.5107 68.2184 50.5321 68.2011L52.3976 66.7252C52.438 66.6919 52.4886 66.6736 52.541 66.6736C52.5933 66.6736 52.6441 66.6919 52.6845 66.7252C52.7194 66.7688 52.7385 66.823 52.7385 66.8789C52.7385 66.9348 52.7194 66.989 52.6845 67.0327C52.049 67.5041 51.4341 67.9961 50.8191 68.4881H50.6961ZM54.4475 65.5977C54.4138 65.5954 54.3811 65.5849 54.3525 65.567C54.3239 65.5492 54.3003 65.5245 54.2835 65.4952C54.2501 65.4548 54.2319 65.4041 54.2319 65.3517C54.2319 65.2994 54.2501 65.2486 54.2835 65.2082L56.2104 63.8143C56.2311 63.791 56.2567 63.7728 56.2855 63.7609C56.3142 63.7491 56.3453 63.7439 56.3763 63.7458C56.4073 63.7478 56.4376 63.7567 56.4646 63.7721C56.4917 63.7874 56.515 63.8087 56.5326 63.8343C56.5502 63.8599 56.5617 63.8892 56.5664 63.92C56.571 63.9508 56.5685 63.9822 56.5592 64.0118C56.5499 64.0415 56.5339 64.0687 56.5126 64.0913C56.4912 64.1139 56.465 64.1313 56.4359 64.1423L54.5295 65.5567H54.4065M69.1659 64.2653C69.1372 64.2654 69.1086 64.2595 69.0823 64.2479C69.056 64.2364 69.0325 64.2194 69.0131 64.1981C68.9938 64.1769 68.9792 64.1518 68.9702 64.1245C68.9612 64.0972 68.958 64.0684 68.9608 64.0398C68.9657 63.2455 68.9246 62.4515 68.8378 61.6619C68.8277 61.6311 68.8251 61.5983 68.8301 61.5663C68.8351 61.5343 68.8476 61.5039 68.8666 61.4777C68.8856 61.4514 68.9106 61.43 68.9394 61.4153C68.9683 61.4005 69.0002 61.3929 69.0326 61.3929C69.0651 61.3929 69.097 61.4005 69.1259 61.4153C69.1547 61.43 69.1797 61.4514 69.1987 61.4777C69.2177 61.5039 69.2302 61.5343 69.2352 61.5663C69.2402 61.5983 69.2375 61.6311 69.2273 61.6619C69.3222 62.4647 69.3701 63.2724 69.3708 64.0808C69.367 64.1359 69.3447 64.1882 69.3075 64.2291C69.2703 64.27 69.2204 64.2972 69.1659 64.3062M58.2603 62.8098C58.2348 62.8225 58.2067 62.829 58.1782 62.829C58.1498 62.829 58.1218 62.8225 58.0963 62.8098C58.063 62.7694 58.0447 62.7187 58.0447 62.6663C58.0447 62.614 58.063 62.5632 58.0963 62.5228L60.1462 61.1904C60.1634 61.1724 60.1841 61.1581 60.207 61.1483C60.2299 61.1386 60.2546 61.1335 60.2795 61.1335C60.3044 61.1335 60.329 61.1386 60.3519 61.1483C60.3748 61.1581 60.3955 61.1724 60.4127 61.1904C60.4307 61.2076 60.445 61.2283 60.4547 61.2512C60.4645 61.2741 60.4696 61.2987 60.4696 61.3236C60.4696 61.3485 60.4645 61.3732 60.4547 61.3961C60.445 61.419 60.4307 61.4397 60.4127 61.4569L58.3628 62.7893M62.3396 60.2474C62.306 60.2452 62.2734 60.2346 62.2448 60.2167C62.2162 60.1988 62.1924 60.1742 62.1756 60.1449C62.138 60.1066 62.1171 60.0551 62.1171 60.0015C62.1171 59.9478 62.138 59.8963 62.1756 59.858C62.9546 59.407 63.6379 59.038 64.2255 58.751C64.2508 58.7373 64.2787 58.7291 64.3074 58.727C64.336 58.7248 64.3649 58.7287 64.3919 58.7383C64.419 58.748 64.4437 58.7632 64.4645 58.7831C64.4853 58.8029 64.5016 58.8269 64.5125 58.8535C64.5335 58.9025 64.5344 58.9578 64.5153 59.0075C64.4962 59.0573 64.4585 59.0976 64.4101 59.1199C63.7951 59.4069 63.0981 59.7759 62.3602 60.2064M68.5099 59.5094C68.4706 59.5088 68.4323 59.4968 68.3996 59.475C68.3668 59.4532 68.3411 59.4225 68.3254 59.3864C68.2401 59.143 68.0965 58.9241 67.9071 58.749C67.7177 58.5739 67.4884 58.4479 67.239 58.382H66.6649C66.638 58.3848 66.6108 58.3823 66.5849 58.3745C66.5589 58.3667 66.5346 58.3539 66.5137 58.3368C66.4927 58.3196 66.4754 58.2985 66.4626 58.2746C66.4499 58.2507 66.442 58.2245 66.4395 58.1975C66.4335 58.1706 66.433 58.1426 66.4381 58.1155C66.4432 58.0884 66.4538 58.0625 66.4691 58.0396C66.4844 58.0166 66.5042 57.997 66.5273 57.9818C66.5504 57.9667 66.5763 57.9564 66.6035 57.9515C66.8347 57.9198 67.0692 57.9198 67.3004 57.9515C67.6132 58.0322 67.9026 58.1857 68.1448 58.3994C68.3871 58.6131 68.5753 58.8811 68.6943 59.1814C68.7152 59.2305 68.7163 59.2857 68.6972 59.3355C68.6781 59.3852 68.6402 59.4256 68.5919 59.4479" fill="#13110C"/>
<path d="M66.7877 82.1405C66.7608 82.1361 66.7353 82.1259 66.7128 82.1105C66.6904 82.0951 66.6716 82.0749 66.6579 82.0513C66.6442 82.0278 66.6359 82.0016 66.6335 81.9745C66.6312 81.9473 66.6347 81.92 66.6442 81.8945C66.6442 81.8945 66.6441 81.464 66.8901 80.7055C66.88 80.6747 66.8774 80.642 66.8824 80.61C66.8874 80.578 66.8999 80.5476 66.9189 80.5214C66.9379 80.4951 66.9629 80.4737 66.9917 80.459C67.0206 80.4442 67.0525 80.4365 67.0849 80.4365C67.1174 80.4365 67.1493 80.4442 67.1782 80.459C67.207 80.4737 67.232 80.4951 67.251 80.5214C67.27 80.5476 67.2825 80.578 67.2875 80.61C67.2925 80.642 67.2897 80.6747 67.2796 80.7055C67.1361 81.464 67.0336 81.915 67.0336 81.915C67.0209 81.9603 66.9942 82.0005 66.9575 82.0299C66.9207 82.0593 66.8757 82.0765 66.8287 82.079" fill="#13110C"/>
<path d="M50.4283 23.7587C50.4283 23.7587 39.3383 22.7543 33.906 36.7347C28.4737 50.7152 24.0664 72.5878 24.0664 72.5878C31.8296 71.1619 39.3209 68.5264 46.2669 64.7776C57.603 58.6278 59.12 56.5779 59.12 56.5779C59.12 56.5779 62.5228 32.9834 59.12 28.6171C59.12 28.6171 59.7349 31.8559 57.07 31.7124C54.4051 31.5689 50.4078 23.6768 50.4078 23.6768" fill="#0095D4"/>
<path d="M49.6725 54.5281L64.0219 47.8249L65.3953 51.0843C65.3953 51.0843 48.996 70.0665 44.3837 66.6841C39.7714 63.3018 37.455 30.3801 48.2786 29.5396C59.1021 28.6991 49.6725 54.5281 49.6725 54.5281Z" fill="#C74593"/>
<path d="M63.6108 89.5408C64.2191 89.9136 64.9039 90.1441 65.6138 90.2151C66.3237 90.2861 67.0405 90.1957 67.7106 89.9508C67.7106 89.9508 76.0333 98.8679 74.6804 99.3599C73.3274 99.8519 61.5813 94.8296 61.6428 93.8046C62.0973 92.3125 62.7306 90.8808 63.5288 89.5408" fill="#C74593"/>
<path d="M64.6752 9.30664C64.523 12.323 64.1944 15.3278 63.6912 18.3058C63.3635 20.5749 62.4836 22.729 61.1288 24.5786C60.7757 25.0846 60.2947 25.4877 59.7348 25.747C59.1483 25.9024 58.5284 25.8758 57.9573 25.6708C57.3862 25.4658 56.8908 25.092 56.537 24.599C55.7563 23.545 55.2111 22.3356 54.9381 21.0527C54.2402 18.3018 53.9569 15.4621 54.0976 12.6275" fill="#E3E3E3"/>
<path d="M64.6766 9.3071C64.1231 5.82224 62.0321 1.76341 55.1444 3.03436C43.6034 5.08428 47.9287 16.1948 47.9287 16.1948C48.3386 19.3722 52.295 21.2786 52.295 21.2786C59.9207 20.0282 63.8155 11.439 64.5945 9.3071" fill="#142B2A"/>
<path d="M48.1762 8.05646C44.6913 7.29799 40.817 9.38896 37.8241 11.8899C33.1298 15.8257 29.6245 20.9095 25.4016 25.3578C21.9578 29.0271 17.8169 32.6555 16.8125 37.3088C16.3598 39.6494 16.6538 42.0731 17.653 44.2376C18.4133 46.2617 19.8039 47.9879 21.6198 49.1616C23.4358 50.3353 25.5808 50.8944 27.7386 50.7563C29.5914 50.4441 31.3506 49.7203 32.8868 48.6382C34.4229 47.5562 35.6968 46.1435 36.6147 44.5041C38.3757 41.3503 39.1938 37.7572 38.9721 34.1519C38.7674 32.3401 38.7674 30.511 38.9721 28.6992C39.8412 25.5254 41.7461 22.7332 44.3839 20.766C47.7048 18.0191 51.8866 15.8872 53.7726 12.1358C54.1232 11.5882 54.3094 10.9514 54.3094 10.3011C54.3094 9.65082 54.1232 9.01416 53.7726 8.46647C53.5676 8.24098 53.301 8.03599 53.3215 7.70801" fill="#142B2A"/>
<path d="M62.2793 45.7336L77.7767 29.7238L83.3115 37.2059L71.258 50.7559L62.2793 45.7336Z" fill="#9BCEA4"/>
<path d="M64.0195 47.8244C64.0195 47.8244 66.4999 43.7246 67.1969 43.7246C67.8939 43.7246 66.9509 46.041 66.9509 46.041C68.4936 45.1844 70.0812 44.4112 71.7067 43.7246C72.1577 43.7246 69.1238 46.451 69.1238 46.451C69.1238 46.451 72.1577 44.4011 72.3422 44.6266C72.5267 44.8521 69.5133 47.23 69.5133 47.23C69.5133 47.23 71.9117 45.8975 71.9117 46.3895C71.9117 46.8815 69.1238 48.2549 69.1238 48.2549C69.1238 48.2549 70.8458 47.9269 70.8458 48.2549C69.0923 49.2986 67.2706 50.2232 65.3929 51.0223L64.0195 47.8244Z" fill="#0095D4"/>
<path d="M83.3118 37.2065L81.9589 29.0273L79.1914 31.6512L83.3118 37.2065Z" fill="#C74593"/>
<path d="M61.5808 20.7452C61.3493 20.7742 61.1152 20.7742 60.8837 20.7452C60.8326 20.7308 60.7891 20.6971 60.7624 20.6513C60.7356 20.6054 60.7276 20.5508 60.7402 20.4992C60.7451 20.4721 60.7555 20.4461 60.7706 20.423C60.7858 20.4 60.8053 20.3802 60.8283 20.3649C60.8513 20.3495 60.8771 20.339 60.9043 20.334C60.9314 20.3289 60.9592 20.3293 60.9862 20.3353C61.4314 20.4378 61.8941 20.4378 62.3392 20.3353C62.6066 18.8095 62.7846 17.2695 62.8722 15.723C62.8689 15.6952 62.872 15.6671 62.8811 15.6408C62.8902 15.6144 62.9052 15.5904 62.9249 15.5707C62.9446 15.551 62.9686 15.536 62.995 15.5268C63.0213 15.5177 63.0494 15.5147 63.0772 15.518C63.1059 15.5178 63.1343 15.5237 63.1606 15.5353C63.1869 15.5468 63.2106 15.5638 63.2299 15.5851C63.2493 15.6063 63.2638 15.6314 63.2728 15.6587C63.2818 15.686 63.2851 15.7148 63.2822 15.7434C63.199 17.2981 63.0141 18.8457 62.7287 20.3762C62.7539 20.4423 62.7539 20.5153 62.7287 20.5813C62.6636 20.6674 62.5685 20.7259 62.4622 20.7452C62.1827 20.8276 61.8927 20.8691 61.6013 20.8682" fill="#142B2A"/>
<path d="M61.3544 17.67H61.1494C61.1151 17.6606 61.0838 17.6424 61.0587 17.6173C61.0335 17.5921 61.0153 17.5609 61.0059 17.5266C61.0059 17.5266 61.0059 17.5265 61.0059 17.383V17.2395C61.0229 17.1844 61.0519 17.1337 61.0909 17.0911C61.1299 17.0486 61.178 17.0153 61.2314 16.9936C61.2824 16.9683 61.3385 16.9551 61.3953 16.9551C61.4522 16.9551 61.5084 16.9683 61.5594 16.9936C61.6142 17.0264 61.661 17.071 61.6965 17.1242C61.732 17.1774 61.7551 17.2378 61.7643 17.301C61.7751 17.3599 61.7715 17.4206 61.7537 17.4777C61.7358 17.5348 61.7043 17.5868 61.6618 17.629C61.6234 17.6645 61.5782 17.6919 61.5288 17.7095C61.4795 17.7271 61.4271 17.7346 61.3748 17.7315" fill="#142B2A"/>
<path d="M61.0473 23.2874C60.482 23.1773 59.9697 22.8815 59.5918 22.4469C59.5529 22.4052 59.5312 22.3502 59.5313 22.2931C59.5312 22.2361 59.5529 22.1812 59.5918 22.1394C59.6322 22.1061 59.6829 22.0879 59.7353 22.0879C59.7877 22.0879 59.8384 22.1061 59.8788 22.1394C60.1848 22.5137 60.6132 22.7678 61.0883 22.8569C61.1147 22.8591 61.1402 22.867 61.1633 22.88C61.1863 22.893 61.2062 22.9108 61.2217 22.9322C61.2373 22.9536 61.2481 22.9781 61.2534 23.004C61.2586 23.0299 61.2582 23.0566 61.2522 23.0824C61.2444 23.1285 61.2225 23.1709 61.1894 23.204C61.1564 23.237 61.1139 23.259 61.0678 23.2669" fill="#142B2A"/>
<path d="M63.0963 15.7843H62.9733C62.4031 15.3742 61.7646 15.0688 61.0874 14.8824C61.0444 14.8618 61.0098 14.8269 60.9897 14.7836C60.9696 14.7403 60.9653 14.6913 60.9775 14.6452C60.9896 14.599 61.0175 14.5586 61.0563 14.5308C61.095 14.503 61.1423 14.4896 61.1899 14.4929C61.9293 14.6777 62.6256 15.005 63.2398 15.4563C63.2774 15.4946 63.2984 15.5462 63.2984 15.5998C63.2984 15.6535 63.2774 15.705 63.2398 15.7433C63.1868 15.762 63.1288 15.762 63.0758 15.7433" fill="#142B2A"/>
<path d="M63.4234 4.53049C63.5464 6.9289 60.5126 9.06076 56.6382 9.28625C52.7639 9.51175 49.5251 7.74885 49.4021 5.35045C49.2791 2.95204 52.2924 0.84063 56.1668 0.615139C60.0411 0.389648 63.28 2.15259 63.4234 4.53049Z" fill="#CA5098"/>
<path d="M57.0486 3.71093C57.0236 3.71431 56.9981 3.71187 56.9741 3.7038C56.9502 3.69572 56.9286 3.68224 56.9107 3.66439C56.8928 3.64653 56.8794 3.62482 56.8713 3.60089C56.8632 3.57696 56.8608 3.55147 56.8642 3.52644C56.8311 3.13432 56.6646 2.7654 56.3926 2.48103C56.3084 2.40944 56.2103 2.35607 56.1044 2.32432C55.9986 2.29256 55.8873 2.28306 55.7776 2.29648C55.6619 2.30033 55.5485 2.32993 55.4457 2.38312C55.3429 2.43631 55.2532 2.51181 55.1832 2.60402C55.0187 2.86686 54.9465 3.17703 54.9781 3.48547C54.9842 3.50973 54.9853 3.53493 54.9813 3.5596C54.9772 3.58427 54.9682 3.60789 54.9547 3.62898C54.9413 3.65006 54.9238 3.66818 54.9032 3.68228C54.8826 3.69637 54.8592 3.70611 54.8346 3.71093C54.8089 3.7169 54.7822 3.71726 54.7563 3.71199C54.7304 3.70673 54.7059 3.69595 54.6845 3.6804C54.6631 3.66485 54.6453 3.64494 54.6323 3.62191C54.6193 3.59888 54.6114 3.57331 54.6092 3.54696C54.5539 3.13157 54.6484 2.71002 54.8757 2.35798C54.9816 2.22388 55.1152 2.11419 55.2673 2.03636C55.4194 1.95854 55.5864 1.91441 55.7571 1.90699C55.9146 1.88269 56.0756 1.89403 56.2282 1.94015C56.3807 1.98627 56.5209 2.066 56.6386 2.17349C56.9933 2.53189 57.2111 3.00351 57.2536 3.50599C57.2539 3.55698 57.2351 3.60621 57.201 3.64412C57.1669 3.68202 57.1198 3.70583 57.0691 3.71093" fill="#1D1D1B"/>
</svg>
