<svg width="121" height="72" viewBox="0 0 121 72" fill="none" xmlns="http://www.w3.org/2000/svg">
<path d="M36.7966 26.7026C36.8329 26.6726 36.8785 26.6562 36.9255 26.6562C36.9726 26.6562 37.0182 26.6726 37.0545 26.7026C37.0844 26.7388 37.1008 26.7844 37.1008 26.8315C37.1008 26.8785 37.0844 26.9241 37.0545 26.9604C36.2877 27.5173 35.4882 28.0278 34.6603 28.4889C34.6272 28.4883 34.5949 28.4795 34.566 28.4635C34.5371 28.4474 34.5126 28.4245 34.4946 28.3968C34.4676 28.3593 34.4531 28.3142 34.4531 28.2679C34.4531 28.2217 34.4676 28.1766 34.4946 28.139" fill="#CA5098"/>
<path d="M92.3573 39.3544C92.3573 39.3544 73.9413 36.0579 65.212 38.6914C57.4957 41.0302 56.4459 46.0579 56.2986 48.9492C56.1513 51.8405 60.2765 62.4666 98.4715 47.5311L111.86 15.3766L108.416 13.7744C108.416 13.7744 90.8288 30.7172 92.3573 39.3544Z" fill="#0095D4"/>
<path d="M84.181 32.7804C84.181 32.7804 55.1941 31.7859 52.4317 41.4912C49.6693 51.1965 68.3063 52.191 68.3063 52.191L90.4057 37.6423L99.3743 9.24464L96.0041 8.02917C96.0041 8.02917 84.1074 21.9149 84.1074 32.7804" fill="#0095D4"/>
<path d="M55.0293 53.83L53.5193 32.4489C48.3863 29.6856 42.4242 28.8806 36.7422 30.1837C27.35 31.8412 39.6704 51.2885 39.6704 51.2885L24.9375 58.8207L25.5268 61.5279C25.5268 61.5279 40.7569 61.3806 45.3057 53.9957C45.3057 53.9957 45.3057 53.2775 45.3057 52.1541C48.4643 53.0215 51.6936 53.607 54.9557 53.9037" fill="#9BCEA4"/>
<path d="M61.1253 60.6987C61.1253 60.6987 61.9909 30.2569 50.7939 32.2274C39.5969 34.198 54.293 57.4575 54.293 57.4575L36.7793 66.463L37.4791 69.7042C37.4791 69.7042 55.6926 69.5384 61.1253 60.6987Z" fill="#CA5098"/>
<path d="M37.2402 30.073C37.2402 30.073 37.8664 36.316 41.1813 36.2239C44.4962 36.1319 46.0616 28.6549 46.1352 28.0103C46.2089 27.3658 37.2402 30.073 37.2402 30.073Z" fill="white"/>
<path d="M42.7241 15.0272C45.2471 14.6588 47.8254 14.7693 50.3668 14.4931C51.4443 14.4239 52.4996 14.1554 53.4791 13.7012C55.088 12.5558 56.5 11.1563 57.6596 9.55757C60.0515 6.98318 63.3574 5.44921 66.8677 5.28502C69.0752 5.45534 71.2953 5.35639 73.479 4.99036C75.6444 4.02228 77.6501 2.7307 79.4273 1.15983C80.0713 0.57222 80.8741 0.187249 81.7354 0.0529709C82.5968 -0.0813075 83.4785 0.0410458 84.2708 0.404764C84.829 0.823226 85.257 1.39162 85.5047 2.0438C86.9044 5.19295 85.6889 9.00508 83.6631 11.7675C82.7306 13.0758 81.5397 14.1789 80.164 15.0087C76.978 16.8503 72.9634 16.3715 69.8326 18.2131C69.1844 18.5552 68.6333 19.0557 68.2304 19.668C67.3649 21.086 67.7148 23.075 66.7203 24.4193C66.2227 24.932 65.6273 25.3395 64.9693 25.6179C64.3113 25.8962 63.6041 26.0398 62.8897 26.04L54.1421 27.2002C53.2799 27.2551 52.4362 27.4738 51.6559 27.8447C50.4589 28.4893 49.667 29.8153 48.4147 30.3677C47.7043 30.6129 46.9443 30.6791 46.2023 30.5602C45.4602 30.4413 44.7589 30.1412 44.1606 29.6864C42.1901 28.4156 40.6615 26.6845 38.6357 25.5427C37.2914 24.8245 35.284 24.051 34.6947 22.4304C33.1109 18.029 39.8512 15.4691 42.853 15.064" fill="#142B2A"/>
<path d="M40.4997 25.948C38.806 25.6338 37.1987 24.962 35.7852 23.9775C35.8516 25.3009 36.0115 26.6178 36.2639 27.9186C36.2639 28.2869 36.4112 28.6552 36.5217 29.0235C36.9604 30.6832 37.907 32.1641 39.229 33.2592C39.6213 33.6041 40.0978 33.8391 40.6102 33.9406C41.1776 33.9911 41.749 33.9093 42.2795 33.7016C42.8099 33.4939 43.2849 33.1659 43.6672 32.7436C44.3384 32.032 44.8087 31.155 45.03 30.2022C44.8609 29.0879 44.3224 28.0628 43.5008 27.2913C42.6793 26.5198 41.6224 26.0468 40.4997 25.948Z" fill="#E3E3E3"/>
<path d="M88.6949 38.9497C74.5514 36.8503 66.9271 38.4709 66.8535 38.4893C66.8056 38.492 66.7582 38.4791 66.7184 38.4525C66.6785 38.426 66.6484 38.3872 66.6325 38.342C66.6263 38.2936 66.6378 38.2446 66.6649 38.204C66.6919 38.1634 66.7327 38.1339 66.7797 38.121C66.7797 38.121 74.5329 36.4635 88.7501 38.5814C88.8606 38.5814 88.9159 38.6735 88.9159 38.784C88.9079 38.8281 88.8855 38.8683 88.8522 38.8983C88.8189 38.9283 88.7765 38.9464 88.7318 38.9497" fill="#13110C"/>
<path d="M108.895 10.9939C108.728 11.7085 108.728 12.4523 108.895 13.167L112.321 14.4561C114.988 14.3966 117.629 13.9181 120.148 13.0381L112.026 10.9939H108.895Z" fill="#0095D4"/>
<path d="M114.954 10.6995C114.954 10.6995 109.429 9.41042 108.895 10.8285C108.361 12.2465 119.706 13.6645 120.148 13.0384C120.59 12.4122 115.838 10.9389 114.954 10.6995Z" fill="#CA5098"/>
<path d="M96.1148 5.67134C96.0614 6.29678 96.1495 6.92622 96.3726 7.51295L99.5402 8.23118C101.884 7.83606 104.152 7.07803 106.262 5.98441L98.8956 5.21094L96.1148 5.67134Z" fill="#0095D4"/>
<path d="M101.42 4.71404C101.42 4.71404 96.3369 4.29046 96.0791 5.598C95.8212 6.90554 105.95 6.73982 106.263 6.13208C106.576 5.52435 102.212 4.82453 101.42 4.71404Z" fill="#CA5098"/>
<path d="M16.8155 53.0932C16.8155 53.0932 23.0401 48.3234 33.2795 54.6033L0.738281 52.9827C0.738281 52.9827 7.44171 47.2001 16.8155 53.0932Z" fill="#0095D4"/>
<path d="M0.738281 52.9824L4.03472 70.7355L19.9095 71.4722L16.9997 53.7191L0.738281 52.9824Z" fill="#142B2A"/>
<path d="M17 53.7196L19.9098 71.4727L35.5818 71.97L33.2798 54.6036L17 53.7196Z" fill="#CA5098"/>
<path d="M36.3013 66.4264C35.8031 66 35.2596 65.6295 34.6807 65.3214L34.8281 66.8315C33.2517 66.6898 31.7185 66.2393 30.3161 65.5056C30.2789 65.4824 30.2356 65.4709 30.1918 65.4724C30.148 65.4739 30.1056 65.4885 30.0701 65.5141C30.0345 65.5398 30.0075 65.5754 29.9923 65.6166C29.9771 65.6577 29.9744 65.7024 29.9846 65.745C30.0324 65.9613 30.141 66.1594 30.2977 66.3159C30.9855 67.0334 31.9057 67.4837 32.8944 67.5866C32.0914 67.7124 31.269 67.5903 30.5371 67.2367C30.2609 67.1262 30.2241 67.2367 30.2241 67.2367C30.2474 67.4042 30.325 67.5595 30.445 67.6787C31.0956 68.328 31.959 68.7204 32.876 68.7836C32.2607 68.8642 31.6356 68.8267 31.0344 68.6731H30.9239C30.795 68.6731 30.6293 68.6731 30.6108 68.6731C30.5924 68.6731 30.7949 69.1151 31.1264 69.3914L31.2738 69.4834C31.6849 69.7524 32.1638 69.8993 32.655 69.907C32.3524 69.905 32.0522 69.9613 31.7709 70.0728C31.7709 70.0728 31.6605 70.0728 31.6605 70.1833C31.6605 70.2938 31.8446 70.3674 32.0104 70.4227H32.1209C32.9178 70.6611 33.7572 70.7237 34.5807 70.6061C35.4042 70.4884 36.1924 70.1934 36.8907 69.7413L36.3013 66.4264Z" fill="#9BCEA4"/>
<path d="M38.5822 31.3258H38.4166C38.3467 31.2794 38.2896 31.216 38.2508 31.1417C37.7295 30.2977 37.4789 29.3145 37.5325 28.324C37.5412 28.2769 37.5663 28.2344 37.6034 28.204C37.6405 28.1737 37.6873 28.1574 37.7352 28.1582C37.7594 28.1605 37.7829 28.1676 37.8044 28.1791C37.8259 28.1905 37.8449 28.2061 37.8603 28.225C37.8757 28.2438 37.8872 28.2655 37.8942 28.2888C37.9012 28.3121 37.9034 28.3366 37.9008 28.3608C37.8508 29.2656 38.0756 30.1643 38.5455 30.9391L39.2453 30.8286C39.2914 30.823 39.3379 30.8352 39.3755 30.8625C39.413 30.8898 39.4389 30.9303 39.4479 30.9759C39.4532 31.0001 39.4535 31.0252 39.449 31.0495C39.4444 31.0739 39.435 31.0971 39.4212 31.1178C39.4075 31.1384 39.3897 31.1561 39.3689 31.1696C39.3482 31.1832 39.3249 31.1925 39.3005 31.1969L38.6191 31.3074H38.4902" fill="#13110C"/>
<path d="M39.6881 32.4485C39.4236 32.4461 39.1615 32.3962 38.9146 32.3012C38.8041 32.3012 38.7674 32.1723 38.7858 32.0618C38.794 32.0387 38.8067 32.0174 38.8232 31.9992C38.8398 31.9811 38.8598 31.9664 38.8821 31.9561C38.9044 31.9458 38.9286 31.9401 38.9531 31.9392C38.9777 31.9384 39.0021 31.9425 39.0251 31.9513C39.2982 32.0507 39.5899 32.089 39.8795 32.0636C40.169 32.0381 40.4494 31.9495 40.701 31.804C40.7344 31.7755 40.7768 31.7598 40.8207 31.7598C40.8646 31.7598 40.9071 31.7755 40.9404 31.804C40.9742 31.8384 40.993 31.8847 40.993 31.9329C40.993 31.9811 40.9742 32.0274 40.9404 32.0618C40.5818 32.2678 40.1753 32.3757 39.7618 32.3749" fill="#13110C"/>
<path d="M38.1788 26.813C38.1592 26.8244 38.1369 26.8303 38.1143 26.8303C38.0917 26.8303 38.0695 26.8244 38.0499 26.813C38.0307 26.7975 38.0151 26.7778 38.0045 26.7555C37.9938 26.7332 37.9883 26.7088 37.9883 26.6841C37.9883 26.6594 37.9938 26.635 38.0045 26.6127C38.0151 26.5904 38.0307 26.5707 38.0499 26.5552C38.3168 26.3101 38.639 26.1332 38.9891 26.0396C39.0121 26.0311 39.0366 26.0278 39.0609 26.0299C39.0853 26.0321 39.1088 26.0396 39.13 26.0519C39.1511 26.0642 39.1693 26.0811 39.1831 26.1012C39.197 26.1214 39.2062 26.1443 39.2101 26.1685C39.2186 26.1914 39.2218 26.216 39.2197 26.2403C39.2175 26.2647 39.2101 26.2883 39.1977 26.3094C39.1854 26.3305 39.1685 26.3487 39.1484 26.3625C39.1282 26.3763 39.1053 26.3856 39.0812 26.3895C38.7833 26.4879 38.5079 26.6444 38.2709 26.8499H38.1604" fill="#13110C"/>
<path d="M36.6869 26.5008C36.6451 26.5149 36.5998 26.5149 36.558 26.5008C36.3933 26.3512 36.2071 26.227 36.0055 26.1325C35.9824 26.1243 35.9611 26.1115 35.9429 26.095C35.9248 26.0784 35.9101 26.0584 35.8998 26.0361C35.8895 26.0138 35.8837 25.9896 35.8829 25.9651C35.8821 25.9405 35.8863 25.916 35.8951 25.8931C35.9027 25.8698 35.9154 25.8485 35.9324 25.8307C35.9493 25.8129 35.97 25.7992 35.993 25.7904C36.0159 25.7815 36.0404 25.7779 36.0649 25.7798C36.0894 25.7816 36.1131 25.7889 36.1345 25.801C36.3876 25.8954 36.6192 26.0394 36.8159 26.2246C36.8496 26.259 36.8685 26.3053 36.8685 26.3535C36.8685 26.4017 36.8496 26.448 36.8159 26.4824C36.7963 26.4937 36.774 26.4997 36.7513 26.4997C36.7287 26.4997 36.7065 26.4937 36.6869 26.4824" fill="#13110C"/>
<path d="M39.5407 28.0658C39.4118 28.0658 39.2644 28.1763 39.2828 28.3237C39.2918 28.3953 39.3269 28.461 39.3812 28.5086C39.4355 28.5561 39.5054 28.5821 39.5775 28.5815C39.6562 28.5776 39.7309 28.5458 39.7883 28.4918C39.8457 28.4378 39.8819 28.3651 39.8906 28.2868C39.9085 28.2112 39.8978 28.1317 39.8603 28.0636C39.8229 27.9955 39.7615 27.9438 39.688 27.9185C39.6517 27.9105 39.6141 27.9099 39.5775 27.9167C39.541 27.9236 39.5061 27.9377 39.4751 27.9584C39.4442 27.979 39.4177 28.0057 39.3974 28.0368C39.377 28.068 39.3631 28.1029 39.3566 28.1395" fill="#13110C"/>
<path d="M36.5948 28.0296C36.4659 28.0296 36.3185 28.1401 36.3554 28.2874C36.3678 28.3575 36.4039 28.4212 36.4574 28.468C36.511 28.5149 36.5789 28.5421 36.65 28.5452C36.7275 28.5379 36.8004 28.505 36.8571 28.4516C36.9138 28.3983 36.9511 28.3275 36.963 28.2505C36.981 28.175 36.9702 28.0954 36.9328 28.0273C36.8953 27.9593 36.8339 27.9075 36.7605 27.8822C36.724 27.8712 36.6855 27.8683 36.6478 27.8739C36.6101 27.8794 36.5742 27.8933 36.5425 27.9144C36.5108 27.9355 36.4842 27.9634 36.4646 27.9961C36.445 28.0287 36.4328 28.0653 36.429 28.1032" fill="#13110C"/>
<path d="M40.2222 29.5938H39.6513C39.4586 29.5621 39.2721 29.5 39.0989 29.4097C38.9038 29.2847 38.7427 29.1133 38.6302 28.9108C38.5177 28.7083 38.4573 28.4811 38.4542 28.2495C38.4458 28.0286 38.486 27.8085 38.5719 27.6049C38.6578 27.4012 38.7874 27.2189 38.9515 27.0708C39.1368 26.901 39.355 26.7708 39.5925 26.6885C39.8301 26.6061 40.082 26.5733 40.3327 26.592C40.5477 26.6002 40.7571 26.6636 40.9405 26.7762C41.1873 26.9714 41.3726 27.2335 41.4745 27.5312C41.6554 27.8695 41.7262 28.2558 41.677 28.6362C41.6225 28.8476 41.5167 29.0422 41.3689 29.2028C41.2212 29.3634 41.0361 29.4851 40.83 29.557C40.6292 29.5953 40.423 29.5953 40.2222 29.557M38.8041 28.139C38.8067 28.3115 38.8517 28.4807 38.9352 28.6317C39.0187 28.7826 39.1382 28.9107 39.283 29.0045C39.7325 29.2145 40.2431 29.2537 40.7195 29.115C40.8668 29.0673 40.9997 28.9833 41.1059 28.8706C41.2121 28.758 41.2882 28.6203 41.3271 28.4704C41.3544 28.1661 41.2971 27.8602 41.1614 27.5865C41.0703 27.3533 40.9252 27.145 40.7379 26.9787C40.6063 26.909 40.4624 26.8652 40.3143 26.8498C40.1104 26.8328 39.9053 26.8584 39.7119 26.925C39.5185 26.9915 39.3411 27.0976 39.1909 27.2366C39.0663 27.3511 38.9675 27.4908 38.9008 27.6463C38.8341 27.8018 38.8011 27.9698 38.8041 28.139Z" fill="#CA5098"/>
<path d="M35.8568 29.4097H35.3227C35.1429 29.3831 34.9687 29.3271 34.807 29.244C34.6196 29.1273 34.4653 28.9644 34.3589 28.7709C34.2525 28.5774 34.1974 28.3598 34.1993 28.139C34.1988 27.9335 34.2392 27.7299 34.3183 27.5402C34.3973 27.3505 34.5134 27.1784 34.6597 27.034C34.8356 26.8746 35.0426 26.7531 35.2675 26.6771C35.4925 26.6011 35.7306 26.5721 35.9672 26.5921C36.1673 26.6052 36.3621 26.6618 36.5381 26.7578C36.7679 26.9459 36.9403 27.1947 37.0354 27.476C37.2042 27.7917 37.2686 28.1527 37.2195 28.5073C37.1746 28.7082 37.0779 28.8938 36.939 29.0456C36.8 29.1975 36.6237 29.3103 36.4277 29.3729C36.2393 29.4111 36.0451 29.4111 35.8568 29.3729M35.8568 26.8499C35.5169 26.8476 35.1885 26.9724 34.936 27.1998C34.824 27.3105 34.7354 27.4424 34.6753 27.5879C34.6152 27.7334 34.5848 27.8895 34.586 28.0469C34.5924 28.2023 34.6337 28.3542 34.7071 28.4914C34.7804 28.6285 34.8838 28.7473 35.0096 28.8388C35.1429 28.9043 35.286 28.9478 35.4332 28.9677C35.7343 29.0527 36.053 29.0527 36.354 28.9677C36.4918 28.9212 36.616 28.8414 36.7156 28.7354C36.8152 28.6294 36.8871 28.5004 36.9249 28.36C36.9415 28.08 36.8843 27.8006 36.7591 27.5497C36.6858 27.3323 36.5515 27.1405 36.3723 26.9972C36.2524 26.9163 36.1119 26.8716 35.9672 26.8683H35.8568" fill="#CA5098"/>
<path d="M41.4184 27.7532C41.398 27.7618 41.376 27.7663 41.3538 27.7663C41.3317 27.7663 41.3098 27.7618 41.2894 27.7532C41.2733 27.7377 41.2604 27.7192 41.2517 27.6986C41.2429 27.678 41.2383 27.6559 41.2383 27.6335C41.2383 27.6112 41.2429 27.589 41.2517 27.5684C41.2604 27.5479 41.2733 27.5293 41.2894 27.5138C42.468 26.6649 43.6981 25.8899 44.9726 25.1934C45.0264 25.1751 45.0846 25.1751 45.1383 25.1934C45.1481 25.2135 45.1532 25.2355 45.1532 25.2578C45.1532 25.2802 45.1481 25.3022 45.1383 25.3223C45.182 25.5107 45.2777 25.683 45.4146 25.8195C45.4308 25.835 45.4436 25.8536 45.4524 25.8741C45.4612 25.8947 45.4658 25.9169 45.4658 25.9392C45.4658 25.9616 45.4612 25.9837 45.4524 26.0043C45.4436 26.0249 45.4308 26.0435 45.4146 26.0589C45.3802 26.0927 45.3339 26.1116 45.2857 26.1116C45.2375 26.1116 45.1912 26.0927 45.1568 26.0589C45.0218 25.9286 44.9153 25.7719 44.8437 25.5985C43.6808 26.2663 42.5557 26.998 41.4735 27.79H41.363" fill="#CA5098"/>
<path d="M37.6254 28.2316H37.0545C37.0089 28.227 36.9666 28.2056 36.936 28.1715C36.9053 28.1375 36.8884 28.0932 36.8887 28.0474C36.8887 27.9986 36.9081 27.9517 36.9426 27.9172C36.9772 27.8827 37.0239 27.8633 37.0728 27.8633C37.6253 27.8633 37.92 27.8633 38.4357 27.8633C38.4815 27.8631 38.5257 27.8799 38.5598 27.9105C38.5938 27.9412 38.6152 27.9834 38.6198 28.029C38.6206 28.0769 38.6044 28.1236 38.574 28.1607C38.5437 28.1978 38.5011 28.2229 38.454 28.2316H37.6254Z" fill="#CA5098"/>
</svg>
