<svg width="51" height="102" viewBox="0 0 51 102" fill="none" xmlns="http://www.w3.org/2000/svg">
<path d="M6.58749 0.615234H4.00195V10.8004H6.58749V0.615234Z" fill="#CA5098"/>
<path d="M0.583985 10.7889C0.605397 11.7188 0.900891 12.6217 1.43335 13.3844C1.96582 14.1471 2.71156 14.7356 3.57713 15.0762C4.4427 15.4167 5.38956 15.4942 6.29898 15.2988C7.20839 15.1035 8.03989 14.644 8.68924 13.978C9.33859 13.312 9.7769 12.4691 9.94917 11.5551C10.1214 10.641 10.02 9.6964 9.65767 8.83972C9.2953 7.98305 8.68809 7.25242 7.91217 6.73944C7.13626 6.22645 6.22616 5.95393 5.296 5.95607C4.03532 5.98759 2.83688 6.51064 1.95652 7.41357C1.07616 8.31651 0.58359 9.5278 0.583985 10.7889Z" fill="#CA5098"/>
<path d="M7.71389 0.277344H2.80859V1.24391H7.71389V0.277344Z" fill="#0095D4"/>
<path d="M3.02476 10.4137C3.9203 10.4839 4.8211 10.3897 5.68278 10.1359C6.54462 9.88551 7.43249 9.73549 8.32875 9.68881C8.89079 9.67935 9.44791 9.7949 9.95983 10.0271C9.99843 10.279 10.0186 10.5334 10.0203 10.7883C10.0526 11.4279 9.95459 12.0675 9.73211 12.6681C9.50962 13.2687 9.16733 13.8178 8.72604 14.282C8.28474 14.7462 7.75367 15.1158 7.16508 15.3684C6.5765 15.6209 5.94271 15.7512 5.30223 15.7512C4.66175 15.7512 4.02792 15.6209 3.43934 15.3684C2.85076 15.1158 2.31968 14.7462 1.87839 14.282C1.43709 13.8178 1.0948 13.2687 0.872316 12.6681C0.64983 12.0675 0.551785 11.4279 0.584166 10.7883C0.581589 10.3803 0.634433 9.97385 0.741238 9.58008C0.982878 9.71298 1.22454 9.84588 1.47826 9.95462C1.96951 10.1824 2.48996 10.341 3.02476 10.4258" fill="#9BCEA4"/>
<path d="M4.20816 8.69831C4.3713 8.84995 4.49207 9.0415 4.55855 9.25407C4.62766 9.43917 4.6565 9.6369 4.64313 9.83402C4.61348 9.98992 4.5534 10.1384 4.46634 10.2711C4.37927 10.4038 4.26689 10.518 4.13567 10.6073C3.67021 10.9651 3.09044 11.1411 2.50463 11.1026C2.359 11.0962 2.21572 11.0634 2.08175 11.006C1.95162 10.9302 1.84337 10.822 1.76761 10.6918C1.66127 10.5108 1.59734 10.3081 1.5806 10.0988C1.56386 9.88958 1.59476 9.67924 1.67097 9.48364C1.82426 9.10079 2.11212 8.78714 2.48044 8.60165C2.74407 8.44198 3.0494 8.36471 3.35724 8.37978C3.66509 8.39485 3.96139 8.50156 4.20816 8.68622" fill="white"/>
<path d="M17.8269 49.3902C18.9834 51.2515 20.5335 52.8369 22.3682 54.035C24.2029 55.2331 26.2779 56.0149 28.447 56.3253C32.755 56.8991 37.1302 56.7151 41.3748 55.7816C44.2745 55.2742 47.4158 54.5734 49.2039 52.157C50.9921 49.7406 50.835 46.6838 50.3396 43.8566C50.0386 41.9448 49.4776 40.083 48.6723 38.3231C46.6909 34.2152 43.03 31.2913 39.3692 28.6575C35.9016 26.2411 31.5158 23.438 27.1301 24.8879C24.2545 25.8424 24.0975 27.9084 23.5659 30.6148C23.3965 32.2628 22.8239 33.8438 21.8986 35.218C20.7508 36.6437 18.9989 37.284 17.9478 38.8426C17.0032 40.4287 16.4946 42.2362 16.4733 44.082C16.4521 45.9279 16.9191 47.7466 17.8269 49.354" fill="#CA5098"/>
<path d="M23.5273 24.8877L26.0041 19.2695L28.481 20.0186V28.3069L23.5273 24.8877Z" fill="#DEDEDE"/>
<path d="M23.2007 95.9422H20.7118V95.8456C18.4061 84.54 16.7482 73.1119 15.7461 61.6172H15.9757C16.9864 73.0662 18.6403 84.4493 20.9293 95.7127H22.9832L22.8986 82.507H23.1282L23.2007 95.9422Z" fill="#13110C"/>
<path d="M30.6077 97.7793H27.7806V97.7068C27.7081 97.5255 19.9393 79.1367 20.7851 63.6476V63.5146L31.3931 65.2786L30.6077 97.7793ZM27.9376 97.5376H30.354L31.1031 65.484L20.9542 63.7925C20.1931 78.7017 27.3819 96.2569 27.9135 97.5376" fill="#13110C"/>
<path d="M7.76953 20.1877L10.2584 18.0371C10.2584 18.0371 27.5478 23.3774 29.2755 27.594C31.0032 31.8106 30.8341 48.4596 30.8341 48.4596C31.3174 57.0983 31.2449 65.3745 31.2449 65.3745C25.2133 66.3168 19.045 65.0282 13.8951 61.7498C13.8951 61.7498 15.2483 39.1927 17.2298 29.9258C12.9049 28.0388 9.50347 24.5157 7.76953 20.1273" fill="#0095D4"/>
<path d="M24.6371 31.799C22.0443 31.7752 19.4834 31.2244 17.11 30.1801C17.0864 30.1642 17.0692 30.1405 17.0613 30.1132C17.0535 30.0859 17.0555 30.0567 17.0671 30.0307C17.0786 30.0048 17.0989 29.9837 17.1244 29.9712C17.15 29.9588 17.1791 29.9557 17.2067 29.9626C19.7241 31.0836 22.4626 31.6206 25.217 31.5332C25.2491 31.5332 25.2798 31.546 25.3025 31.5686C25.3251 31.5913 25.3379 31.622 25.3379 31.6541C25.3416 31.6686 25.3419 31.6838 25.3388 31.6985C25.3356 31.7132 25.3291 31.7269 25.3198 31.7386C25.3104 31.7504 25.2984 31.7598 25.2848 31.766C25.2711 31.7723 25.2562 31.7754 25.2412 31.7749C25.2412 31.7749 25.0116 31.7749 24.6371 31.7749" fill="white"/>
<path d="M22.8017 9.33827C23.5992 7.05476 27.8399 7.28432 30.0509 7.82801C30.9516 8.1036 31.7889 8.55465 32.5145 9.1552C33.2401 9.75575 33.8397 10.4939 34.2788 11.3272C34.7179 12.1605 34.9879 13.0724 35.073 14.0105C35.1582 14.9485 35.0569 15.8941 34.775 16.7929C33.301 22.0969 28.1299 19.8617 28.1299 19.8617C29.1703 18.9271 30.0125 17.7931 30.6067 16.5271L25.3269 12.6729C24.901 13.4552 24.5217 14.2621 24.1912 15.0893C23.2971 14.461 21.5814 12.7696 22.7896 9.30202" fill="#CA5098"/>
<path d="M27.1033 15.5488C26.2201 14.5676 25.5386 13.4222 25.0977 12.1779L30.9695 16.455C30.3091 17.8634 29.3723 19.1248 28.2148 20.1641C28.5336 19.3749 28.5979 18.5059 28.3986 17.6784C28.1993 16.8509 27.7464 16.1063 27.1033 15.5488Z" fill="#CA5098"/>
<path d="M24.9165 10.994C25.4126 12.4012 26.1848 13.6951 27.1879 14.7998C27.9028 15.4391 28.4026 16.2838 28.6189 17.2181C28.8352 18.1525 28.7574 19.1308 28.3961 20.0192C27.796 20.6268 27.0456 21.0645 26.2213 21.2878C25.7708 21.3945 25.3008 21.3874 24.8536 21.2672C24.4065 21.147 23.9963 20.9174 23.66 20.5992C23.3609 20.2497 23.146 19.8364 23.0317 19.391C22.6519 17.9407 22.6853 16.4132 23.1283 14.981C23.225 14.6669 23.3337 14.3528 23.4425 14.0507C23.6329 14.1854 23.8351 14.3026 24.0466 14.4011L24.9165 10.994Z" fill="#DEDEDE"/>
<path d="M24.1314 14.4137C23.92 14.3153 23.7178 14.198 23.5273 14.0633C23.9432 13.0099 24.4192 11.9813 24.953 10.9824L24.1314 14.4137Z" fill="#DEDEDE"/>
<path d="M34.7011 11.9484C34.9443 11.912 35.1706 11.8023 35.3498 11.6339C35.529 11.4655 35.6525 11.2464 35.7039 11.006C35.8025 10.5101 35.7477 9.99597 35.5468 9.53199C35.3114 8.82323 34.905 8.18343 34.3634 7.66923C33.8218 7.15502 33.1618 6.78227 32.4418 6.58397C32.2133 6.50743 31.969 6.49054 31.7322 6.53495C31.4953 6.57936 31.2738 6.68357 31.0885 6.83768C30.9586 7.00772 30.8657 7.20305 30.8158 7.41113C30.7659 7.6192 30.76 7.83541 30.7986 8.04589C31.0098 9.32005 31.6238 10.493 32.5505 11.3926C32.5565 11.3001 32.5565 11.2073 32.5505 11.1147" fill="#CA5098"/>
<path d="M30.4508 98.1895C29.895 99.3252 28.1673 99.0352 28.1673 99.0352C28.1673 99.0352 22.6821 100.533 22.827 101.548C22.972 102.563 29.5688 101.548 29.5688 101.548V101.995H31.3086C31.3086 101.995 32.0819 98.9627 30.4387 98.1895" fill="#142B2A"/>
<path d="M23.0212 96.1357C22.4775 97.2835 20.7498 96.9936 20.7498 96.9936C20.7498 96.9936 15.2525 98.4917 15.4096 99.4945C15.5666 100.497 22.1392 99.4945 22.1392 99.4945V99.9537H23.8911C23.8911 99.9537 24.6523 96.9211 23.0092 96.1357" fill="#142B2A"/>
<path d="M24.1795 60.3125C23.9282 60.3084 23.6793 60.2636 23.4425 60.1796C22.0047 59.6843 21.2556 57.9203 21.2677 55.081C21.2929 53.6891 21.4425 52.3022 21.7148 50.9369C21.7173 50.9153 21.727 50.8953 21.7424 50.8799C21.7577 50.8646 21.7778 50.8549 21.7993 50.8523C21.8172 50.8404 21.8382 50.834 21.8597 50.834C21.8812 50.834 21.9022 50.8404 21.9201 50.8523C22.935 52.1934 27.7316 53.7278 27.7799 53.7399C27.8076 53.7483 27.8313 53.7663 27.8468 53.7907C27.8624 53.8151 27.8686 53.8442 27.8645 53.8728C27.8645 54.0661 27.2604 58.6452 25.2669 59.9138C24.945 60.1299 24.5671 60.2475 24.1795 60.2521M21.896 51.1664C21.6543 52.4834 20.6032 58.8868 23.515 59.8897C23.7823 59.988 24.0688 60.0228 24.3519 59.9914C24.6349 59.9599 24.9068 59.8631 25.146 59.7084C26.8859 58.5848 27.5624 54.6098 27.6228 53.9211C26.9462 53.7037 23.1163 52.423 21.896 51.1664Z" fill="white"/>
<path d="M27.5616 55.1176C25.3431 54.7388 23.2613 53.7895 21.5206 52.3629C21.501 52.3391 21.4902 52.3092 21.4902 52.2783C21.4902 52.2474 21.501 52.2175 21.5206 52.1937C21.5432 52.1716 21.5736 52.1592 21.6052 52.1592C21.6368 52.1592 21.6672 52.1716 21.6897 52.1937C23.387 53.5921 25.4189 54.5248 27.5858 54.9001C27.6017 54.9016 27.6171 54.9063 27.6312 54.9138C27.6453 54.9213 27.6578 54.9315 27.6679 54.9439C27.678 54.9562 27.6855 54.9705 27.6901 54.9858C27.6947 55.0011 27.6962 55.0171 27.6945 55.033C27.6892 55.0619 27.6745 55.0883 27.6527 55.108C27.6308 55.1277 27.6031 55.1395 27.5737 55.1417" fill="white"/>
<path d="M8.19407 16.395C8.19407 16.395 9.20896 13.4711 8.72568 13.3503C8.2424 13.2295 7.40874 14.8243 7.40874 14.8243C7.40874 14.8243 4.79902 15.1022 3.59082 13.9786C2.38262 12.855 2.14096 13.1449 2.14096 13.1449C2.42981 13.7332 2.84187 14.2524 3.34917 14.6673C3.34917 14.6673 2.23762 13.4591 2.14096 13.7007C2.04431 13.9424 2.57594 14.7156 3.18004 15.1385C3.18004 15.1385 2.16515 14.2807 2.12891 14.5344C2.21596 14.8659 2.38647 15.1695 2.62424 15.4164C2.81608 15.6133 3.0265 15.7914 3.25253 15.948C3.25253 15.948 2.46718 15.5009 2.33428 15.6701C2.20138 15.8392 4.06203 17.3495 6.05556 17.3495L8.00075 20.0196L10.0547 18.2556L8.19407 16.395Z" fill="#CA5098"/>
<path d="M15.8669 62.3669C15.8376 62.3647 15.8098 62.3528 15.7879 62.3331C15.766 62.3135 15.7513 62.2871 15.7461 62.2582C14.3808 50.3574 18.1624 30.7362 18.2591 30.5429C18.262 30.5268 18.2681 30.5116 18.277 30.498C18.2859 30.4843 18.2975 30.4727 18.311 30.4636C18.3246 30.4546 18.3398 30.4484 18.3558 30.4454C18.3718 30.4424 18.3882 30.4427 18.4041 30.4462C18.4201 30.4491 18.4354 30.4551 18.449 30.4641C18.4626 30.473 18.4743 30.4846 18.4833 30.4981C18.4923 30.5116 18.4985 30.5269 18.5015 30.5429C18.5045 30.5589 18.5043 30.5753 18.5008 30.5912C18.5008 30.7845 14.6224 50.3694 15.9877 62.234C15.9861 62.2648 15.9747 62.2944 15.9551 62.3183C15.9356 62.3422 15.9089 62.3592 15.8789 62.3669" fill="white"/>
<path d="M24.456 17.0105H24.3714L24.0089 16.6722C23.998 16.6561 23.9922 16.6372 23.9922 16.6178C23.9922 16.5984 23.998 16.5795 24.0089 16.5634L24.1177 16.0318C24.2793 15.3511 24.5355 14.6963 24.8788 14.0866C24.9007 14.0679 24.9286 14.0576 24.9574 14.0576C24.9862 14.0576 25.014 14.0679 25.0359 14.0866C25.0555 14.1104 25.0663 14.1403 25.0663 14.1712C25.0663 14.2021 25.0555 14.232 25.0359 14.2558C24.7006 14.8452 24.4524 15.48 24.2989 16.1406C24.2989 16.2855 24.2385 16.4426 24.2022 16.5876L24.5164 16.8655C24.5385 16.8881 24.5509 16.9184 24.5509 16.9501C24.5509 16.9817 24.5385 17.012 24.5164 17.0346C24.5032 17.041 24.4887 17.0444 24.4741 17.0444C24.4594 17.0444 24.445 17.041 24.4318 17.0346" fill="#13110C"/>
<path d="M24.5159 18.6415H24.4434C24.3291 18.5513 24.1975 18.4855 24.0568 18.4482C24.0267 18.4397 24.001 18.4198 23.9852 18.3928C23.9694 18.3657 23.9648 18.3336 23.9722 18.3032C23.9748 18.2874 23.9808 18.2723 23.9899 18.2591C23.999 18.2459 24.0109 18.2348 24.0247 18.2267C24.0386 18.2186 24.0541 18.2137 24.0701 18.2123C24.086 18.2109 24.1021 18.2131 24.1172 18.2186C24.2865 18.2609 24.4464 18.3347 24.5884 18.4361C24.608 18.4599 24.6188 18.4898 24.6188 18.5207C24.6188 18.5515 24.608 18.5815 24.5884 18.6053C24.5734 18.6127 24.5568 18.6166 24.5401 18.6166C24.5233 18.6166 24.5067 18.6127 24.4917 18.6053" fill="#13110C"/>
<path d="M26.7658 15.2954C26.7396 15.2948 26.7141 15.2864 26.6926 15.2714C26.6711 15.2563 26.6545 15.2352 26.645 15.2108C26.5815 15.0109 26.4751 14.8272 26.3332 14.6728C26.1913 14.5183 26.0173 14.3968 25.8234 14.3167C25.8097 14.3114 25.7972 14.3034 25.7867 14.2932C25.7762 14.2829 25.7679 14.2707 25.7622 14.2571C25.7566 14.2436 25.7538 14.229 25.7539 14.2143C25.754 14.1997 25.7571 14.1852 25.763 14.1717C25.7648 14.1557 25.7706 14.1404 25.7798 14.1272C25.7891 14.114 25.8014 14.1033 25.8158 14.0961C25.8302 14.0889 25.8462 14.0855 25.8623 14.086C25.8784 14.0865 25.8941 14.0911 25.908 14.0992C26.1361 14.1899 26.3411 14.3302 26.5083 14.5099C26.6754 14.6896 26.8005 14.9043 26.8745 15.1383C26.8826 15.1672 26.8796 15.198 26.8662 15.2247C26.8528 15.2515 26.83 15.2724 26.8021 15.2833" fill="#13110C"/>
<path d="M23.9501 13.8447C23.9242 13.8427 23.8994 13.8338 23.8781 13.8189C23.8569 13.8041 23.84 13.7838 23.8293 13.7601C23.8206 13.7296 23.8232 13.697 23.8364 13.6682C23.8497 13.6394 23.8729 13.6163 23.9017 13.6031C24.1112 13.531 24.334 13.5062 24.5542 13.5306C24.5841 13.5365 24.6107 13.5534 24.6286 13.5781C24.6465 13.6027 24.6544 13.6332 24.6508 13.6635C24.6493 13.6794 24.6447 13.6948 24.6371 13.7089C24.6296 13.723 24.6194 13.7354 24.6071 13.7456C24.5947 13.7557 24.5805 13.7632 24.5652 13.7678C24.5499 13.7724 24.5338 13.7739 24.5179 13.7722C24.3432 13.7302 24.161 13.7302 23.9863 13.7722" fill="#13110C"/>
<path d="M25.6047 15.83C25.6465 15.8509 25.6925 15.8622 25.7392 15.8631C25.7793 15.8649 25.8194 15.8582 25.8568 15.8437C25.8942 15.8291 25.9282 15.807 25.9567 15.7786C25.9888 15.7428 26.013 15.7006 26.0276 15.6548C26.0422 15.609 26.0468 15.5605 26.0412 15.5128V15.4403C26.0502 15.4193 26.0548 15.3967 26.0548 15.3738C26.0548 15.351 26.0502 15.3284 26.0412 15.3074C26.0144 15.2704 25.9801 15.2394 25.9406 15.2165C25.901 15.1936 25.8571 15.1793 25.8117 15.1745C25.7667 15.1666 25.7205 15.169 25.6765 15.1815C25.6326 15.1941 25.592 15.2165 25.558 15.247C25.5206 15.2762 25.4896 15.3126 25.4667 15.3541C25.4439 15.3957 25.4297 15.4414 25.4251 15.4886C25.4177 15.5792 25.4434 15.6694 25.4976 15.7423C25.5263 15.7792 25.5629 15.8091 25.6047 15.83Z" fill="#13110C"/>
<path d="M23.9256 15.1014C23.874 15.1137 23.8202 15.1137 23.7685 15.1014C23.7025 15.0631 23.6498 15.0055 23.6174 14.9364C23.5851 14.8674 23.5745 14.79 23.5873 14.7148C23.6016 14.6391 23.6421 14.5709 23.7018 14.5223C23.7615 14.4736 23.8366 14.4476 23.9136 14.449C23.9893 14.4337 24.0673 14.4337 24.1431 14.449C24.1716 14.4622 24.1939 14.4859 24.2051 14.5153C24.2164 14.5446 24.2158 14.5771 24.2035 14.606C24.2088 14.6299 24.2088 14.6547 24.2035 14.6785C24.2215 14.7205 24.2307 14.7658 24.2307 14.8114C24.2307 14.8571 24.2215 14.9023 24.2035 14.9443C24.1729 14.986 24.1328 15.0197 24.0866 15.0428C24.0404 15.0659 23.9894 15.0777 23.9377 15.0772M23.9377 14.6302C23.9166 14.6327 23.8966 14.6408 23.8797 14.6535C23.8627 14.6662 23.8494 14.6832 23.841 14.7027C23.8405 14.7262 23.8458 14.7495 23.8563 14.7706C23.8669 14.7916 23.8823 14.8098 23.9015 14.8235C23.9186 14.8372 23.9399 14.8447 23.9619 14.8447C23.9838 14.8447 24.0051 14.8372 24.0223 14.8235C24.0048 14.8155 23.9893 14.8038 23.9768 14.7892C23.9642 14.7746 23.955 14.7574 23.9498 14.7389" fill="#13110C"/>
</svg>
