<svg width="67" height="100" viewBox="0 0 67 100" fill="none" xmlns="http://www.w3.org/2000/svg">
<path d="M27.8372 42.3445H3.21484L6.33319 35.2588L6.68822 35.4132L3.81692 41.9431H27.2351L24.3638 35.4132L24.7189 35.2588L27.8372 42.3445Z" fill="#13110C"/>
<path d="M27.8384 18.3395C27.7717 20.6779 27.0173 22.9448 25.6695 24.8569C24.3218 26.769 22.4405 28.2415 20.2607 29.0905C18.0808 29.9395 15.6991 30.1273 13.4131 29.6304C11.1272 29.1335 9.03831 27.974 7.40757 26.2967C5.77684 24.6195 4.67653 22.4988 4.24414 20.1998C3.81175 17.9007 4.06646 15.5253 4.97643 13.3702C5.88639 11.215 7.41129 9.37592 9.36054 8.0825C11.3098 6.78909 13.597 6.09873 15.9363 6.09778C17.5217 6.11992 19.0871 6.45418 20.5433 7.0814C21.9995 7.70862 23.3178 8.61655 24.4231 9.75333C25.5283 10.8901 26.3988 12.2334 26.9848 13.7067C27.5708 15.1799 27.8609 16.7542 27.8384 18.3395Z" fill="#0095D4"/>
<path d="M27.8222 13.0751C27.698 12.8949 27.6482 12.6737 27.6832 12.4577C27.6656 11.6948 27.4241 10.9539 26.9886 10.3273C26.5718 9.67895 26.0778 9.10777 25.661 8.49029C25.348 7.95863 25.0079 7.44338 24.6421 6.94656C24.2678 6.44304 23.7158 6.10085 23.0984 5.98946C22.8166 5.94785 22.5289 5.97525 22.26 6.06936C21.9911 6.16348 21.749 6.32145 21.5547 6.52973C21.3237 6.87474 21.0711 7.20476 20.7983 7.51773C20.5844 7.6969 20.318 7.8014 20.0394 7.81533C19.7607 7.82926 19.4852 7.75184 19.2545 7.5949C19.131 7.51771 19.0075 7.40967 18.8686 7.47142C18.7297 7.53317 18.7606 7.6258 18.7297 7.71842C18.6071 8.04877 18.5752 8.40584 18.6371 8.75269C18.6673 8.92078 18.7612 9.07073 18.8992 9.17136C19.0372 9.27199 19.2087 9.31557 19.378 9.293C19.5787 9.293 19.8103 9.09232 19.9338 9.293C19.9172 9.45568 19.8659 9.61292 19.7834 9.75408C19.7008 9.89523 19.5889 10.017 19.4552 10.1112C19.0909 10.4522 18.7456 10.8129 18.4209 11.1918C18.2305 11.4029 18.0836 11.6494 17.9887 11.9173C17.9431 12.0506 17.9334 12.1934 17.9605 12.3316C17.9876 12.4698 18.0505 12.5985 18.1431 12.7046C18.1781 12.7426 18.2213 12.7721 18.2695 12.7908C18.3177 12.8095 18.3694 12.817 18.4209 12.8127C18.4963 12.8051 18.5669 12.7725 18.6216 12.7201C18.9303 12.5194 19.2082 12.2415 19.5324 12.0717C19.6927 11.9735 19.877 11.9214 20.065 11.9214C20.253 11.9214 20.4373 11.9735 20.5976 12.0717C20.7111 12.1681 20.8354 12.2509 20.968 12.3187C21.073 12.3339 21.18 12.3204 21.2779 12.2797C21.3757 12.2389 21.4607 12.1723 21.5238 12.0871C21.6627 11.9173 21.7554 11.7166 21.8943 11.5468C21.936 11.502 21.9895 11.4699 22.0487 11.4542C22.2185 11.4542 22.3729 11.5932 22.4037 11.763C22.4037 12.257 21.9869 12.7355 22.1413 13.1986C22.2957 13.6617 22.45 13.708 22.4655 13.9705C21.9115 14.1519 21.309 14.1132 20.7828 13.8624C20.3969 13.6772 20.0264 13.353 19.5942 13.3685C19.3294 13.3837 19.0759 13.4808 18.8686 13.6463C18.3646 14.0599 17.963 14.5845 17.6952 15.179C17.4274 15.7735 17.3006 16.4218 17.3249 17.0734C17.2912 17.3438 17.3396 17.6181 17.4638 17.8607C17.579 18.0123 17.7332 18.1297 17.9099 18.2004C18.0867 18.2711 18.2793 18.2924 18.4672 18.262C18.8377 18.262 19.1928 18.1077 19.5787 18.0768C19.7647 18.046 19.9554 18.0624 20.1334 18.1245C20.3114 18.1865 20.471 18.2922 20.5976 18.4319C20.78 18.8054 20.8549 19.2223 20.8137 19.636C20.9955 20.2569 21.1246 20.892 21.1996 21.5347C21.0986 22.0781 20.9054 22.6002 20.6284 23.0784C20.5014 23.3159 20.4349 23.581 20.4349 23.8503C20.4349 24.1196 20.5014 24.3847 20.6284 24.6221C20.6868 24.7043 20.7671 24.7685 20.86 24.8074C20.9954 24.8211 21.1315 24.7884 21.246 24.7148C21.7646 24.4703 22.2392 24.1416 22.6507 23.7423C23.3762 22.799 23.8204 21.6698 23.932 20.485C24.0401 19.8212 24.1636 19.1419 24.2871 18.4936C24.417 17.9897 24.4484 17.4656 24.3797 16.9498C24.32 16.7806 24.2836 16.604 24.2716 16.425C24.309 16.1456 24.3924 15.8743 24.5186 15.6223C24.5876 15.4997 24.6238 15.3615 24.6238 15.2209C24.6238 15.0803 24.5876 14.9421 24.5186 14.8196C24.4632 14.7626 24.421 14.694 24.3951 14.6189C24.3951 14.4491 24.5649 14.3101 24.7347 14.3719C24.9045 14.4336 24.9972 14.588 25.0743 14.7423C25.5066 15.6994 25.4912 16.919 26.263 17.6137C26.3305 17.6771 26.4177 17.7152 26.51 17.7217C26.6952 17.7217 26.7879 17.5056 26.8342 17.3204C27.2047 15.931 27.5597 14.5417 27.9148 13.1678" fill="#9BCEA4"/>
<path d="M7.42886 8.5984C7.57931 9.24972 7.51431 9.93224 7.24362 10.5435C7.01206 11.1764 6.68788 11.763 6.51807 12.3959C6.23927 13.4677 6.32062 14.6014 6.74962 15.6223C7.174 16.6258 7.82995 17.5145 8.66382 18.2157C8.77946 18.3168 8.90953 18.4001 9.04975 18.4628C9.08193 18.4727 9.11623 18.4736 9.14892 18.4655C9.1816 18.4574 9.21146 18.4405 9.23527 18.4167C9.25908 18.3929 9.27596 18.3631 9.28408 18.3304C9.29219 18.2977 9.29125 18.2634 9.28134 18.2312C9.17862 17.8693 9.05488 17.5136 8.91082 17.166C8.47222 16.4314 8.26761 15.5807 8.3242 14.727C8.32852 14.6686 8.34785 14.6124 8.38031 14.5637C8.41276 14.515 8.45729 14.4755 8.50948 14.4491C8.75648 14.3256 8.9726 14.6343 9.23503 14.6807C9.32967 14.6866 9.42411 14.6667 9.50837 14.6232C9.59263 14.5797 9.66357 14.5142 9.71358 14.4337C9.81762 14.2643 9.90058 14.0828 9.96059 13.8933C10.2802 12.9892 10.9237 12.2356 11.7667 11.7785C12.0864 11.6565 12.376 11.4669 12.6157 11.2227C12.8147 10.9454 12.9371 10.6206 12.9708 10.281C13.0555 10.0044 13.0555 9.70866 12.9708 9.43197C12.9364 9.34907 12.8771 9.27892 12.801 9.23128C12.5386 9.01516 12.2916 9.15409 12.0446 9.23128L11.319 9.61721C11.319 9.61721 11.1801 9.6944 11.1184 9.61721C11.0534 9.61111 10.9923 9.58351 10.9447 9.53877C10.8972 9.49403 10.8659 9.43476 10.8559 9.37026C10.8222 9.16884 10.8571 8.96191 10.9551 8.78274C11.0531 8.60356 11.2085 8.46252 11.3962 8.38225C11.7667 8.18157 12.1835 8.11982 12.5231 7.9037C12.6155 7.85712 12.6958 7.78959 12.7574 7.7065C12.819 7.62341 12.8604 7.52707 12.8782 7.42515C12.8802 7.3762 12.8715 7.32742 12.8529 7.28212C12.8342 7.23683 12.806 7.19606 12.7701 7.1627C12.7039 7.11823 12.626 7.09448 12.5463 7.09448C12.4666 7.09448 12.3887 7.11823 12.3225 7.1627C10.8893 7.73498 9.30252 7.79498 7.83024 7.33253" fill="#9BCEA4"/>
<path d="M13.8671 7.74979C13.9967 7.90493 14.0962 8.08294 14.1603 8.27465C14.1835 8.58296 14.1835 8.89259 14.1603 9.2009C14.1578 9.23942 14.165 9.27797 14.1812 9.31302C14.1973 9.34807 14.2221 9.37851 14.253 9.40159C14.2816 9.41647 14.3134 9.42425 14.3456 9.42425C14.3779 9.42425 14.4096 9.41647 14.4382 9.40159C14.6852 9.26265 14.7624 8.93847 14.9013 8.67604C15.2101 8.07399 15.982 7.78068 16.1209 7.13232C16.1438 7.04634 16.1438 6.95584 16.1209 6.86986C16.0926 6.80042 16.0506 6.73741 15.9974 6.68462C15.7361 6.43177 15.4006 6.26946 15.0403 6.22153C14.7353 6.16013 14.4251 6.12911 14.114 6.12891C13.9288 6.12891 13.5737 6.12892 13.4502 6.23698C13.3267 6.34504 13.6355 7.51827 13.8208 7.7807" fill="#9BCEA4"/>
<path d="M9.69827 18.1541C9.70166 18.6765 9.62883 19.1965 9.48213 19.6978C9.35686 20.0266 9.26886 20.3683 9.21972 20.7167C9.19555 20.8881 9.21232 21.0628 9.26867 21.2264C9.32502 21.3901 9.41933 21.5381 9.54389 21.6583L9.89896 21.8744C10.1254 22.0411 10.3141 22.2538 10.4524 22.4986C10.5908 22.7434 10.6757 23.0147 10.7017 23.2947C10.8097 23.8504 10.7789 24.4216 10.8406 24.9773C10.9024 25.5331 10.9641 25.6412 11.0413 25.9653L11.4118 27.5091C11.4433 27.6765 11.5119 27.8347 11.6125 27.9722C11.6702 28.0287 11.7478 28.0604 11.8286 28.0604C11.9094 28.0604 11.987 28.0287 12.0447 27.9722C12.1836 27.8641 12.1682 27.648 12.1219 27.4628C12.0119 27.1449 11.9545 26.8111 11.9521 26.4748C11.9849 26.158 12.0738 25.8496 12.2145 25.564L12.8012 24.1437C12.8905 23.9051 13.0154 23.6813 13.1716 23.4799C13.4649 23.1712 13.9435 23.0014 14.067 22.5846C14.1905 22.1678 13.9281 21.7046 14.1442 21.3496C14.1442 21.2261 14.3603 21.1335 14.4529 21.01C14.539 20.8708 14.5847 20.7105 14.5847 20.5469C14.5847 20.3832 14.539 20.2229 14.4529 20.0838C14.2659 19.8151 14.0099 19.6018 13.712 19.4662C13.3527 19.3651 13.0477 19.1267 12.8629 18.8025C12.8268 18.6293 12.7643 18.4627 12.6776 18.3085C12.6075 18.2252 12.5172 18.1614 12.4152 18.1232L11.2883 17.5829C11.0104 17.444 10.4238 17.0889 10.1151 17.2124C9.80631 17.3359 9.72916 17.8454 9.71372 18.1541" fill="#9BCEA4"/>
<path d="M64.7635 29.9014L64.9181 30.056C64.856 30.0292 64.7986 29.9927 64.748 29.9478" fill="#0095D4"/>
<path d="M30.8946 33.1279C30.8946 33.1279 23.3612 30.1948 23.0216 31.1519C22.682 32.109 25.8466 32.4178 25.8466 32.4178C25.8466 32.4178 24.0868 32.0782 23.9941 32.5722C23.9015 33.0662 25.5379 33.3131 25.5379 33.3131C25.5379 33.3131 23.9941 32.7728 23.8243 33.3131C23.6545 33.8534 25.2137 34.1313 25.2137 34.1313C25.2137 34.1313 23.7626 33.8998 23.778 34.3629C23.7934 34.826 26.356 35.4898 28.5018 35.073L29.9374 35.3509L30.8946 33.1279Z" fill="#9BCEA4"/>
<path d="M41.7775 38.7779C37.9807 38.7494 34.2374 37.8795 30.8171 36.2308H30.709L31.4808 33.0507H31.6198C36.6524 33.5756 45.3126 33.2205 46.81 24.9153V24.7764H48.9095V24.8844C50.376 28.0645 51.858 32.495 50.5304 35.428C50.2123 36.1091 49.7396 36.7065 49.15 37.1728C48.5604 37.6391 47.8702 37.9614 47.1342 38.1141C45.3626 38.5915 43.5351 38.8303 41.7003 38.8242M31.0177 36.0456C36.0029 38.4406 41.6579 39.0561 47.0416 37.7899C47.7291 37.643 48.3741 37.3415 48.9278 36.9082C49.4815 36.4749 49.9292 35.9212 50.2371 35.2891C51.5029 32.495 50.0827 28.2343 48.6934 25.116H47.1033C46.6919 27.4907 45.4093 29.6265 43.5064 31.1056C40.8358 33.1433 36.8839 33.9152 31.7278 33.3904L31.0177 36.0456Z" fill="#13110C"/>
<path d="M46.6093 93.5795H43.6299V93.456C39.4001 77.1697 43.6299 45.8167 43.6299 45.4926V45.3536H45.8683L53.4171 70.6707L46.6093 93.5795ZM43.8923 93.2553H46.3777L53.062 70.6707L45.6059 45.6933H43.9078C43.599 48.0088 39.8787 77.5557 43.9078 93.2553" fill="#13110C"/>
<path d="M45.3574 45.8783C45.3574 45.8783 48.7227 80.1643 57.5528 94.7679H60.3778V45.8783L48.7227 43.501L45.3574 45.8783Z" fill="#CA5098"/>
<path d="M48.7243 18.8944C48.7243 18.8944 43.8616 26.613 43.3984 45.8787H60.3794L59.3914 24.174L48.7243 18.8944Z" fill="#9BCEA4"/>
<path d="M48.7266 18.8945C50.359 19.0188 52 18.8248 53.5584 18.3234C53.5584 18.3234 66.6492 19.8671 66.3713 31.3678C66.0934 42.8686 57.5566 50.4945 57.5566 50.4945L54.886 48.7192C54.886 48.7192 60.3817 39.6576 59.7951 33.0968C59.2856 27.3387 48.7266 18.8945 48.7266 18.8945Z" fill="#9BCEA4"/>
<path d="M54.885 48.8892C54.8682 48.8973 54.8497 48.9016 54.831 48.9016C54.8123 48.9016 54.7938 48.8973 54.777 48.8892C54.7507 48.8563 54.7363 48.8155 54.7363 48.7734C54.7363 48.7313 54.7507 48.6905 54.777 48.6576C54.8542 48.5495 61.909 38.4536 57.463 32.0781C57.4466 32.0636 57.4335 32.0457 57.4245 32.0258C57.4154 32.0058 57.4108 31.9842 57.4108 31.9623C57.4108 31.9404 57.4154 31.9187 57.4245 31.8988C57.4335 31.8788 57.4466 31.861 57.463 31.8465C57.4945 31.8172 57.5358 31.8009 57.5788 31.8009C57.6218 31.8009 57.6632 31.8172 57.6946 31.8465C62.3258 38.4073 55.0857 48.7039 55.0085 48.8274C54.9893 48.837 54.9682 48.8419 54.9468 48.8419C54.9253 48.8419 54.9042 48.837 54.885 48.8274" fill="#13110C"/>
<path d="M55.2845 48.9969C54.5208 49.6008 53.899 50.3649 53.4629 51.2354L56.9671 51.3743L57.5537 50.4944L55.2845 48.9969Z" fill="white"/>
<path d="M57.5552 56.0977C56.6742 56.0292 55.8228 55.7493 55.073 55.2817C54.3232 54.8141 53.6973 54.1727 53.2482 53.4117C52.9033 52.783 52.7278 52.0754 52.7388 51.3585V51.2041L58.219 51.4666C58.2613 51.4704 58.3006 51.49 58.3292 51.5214C58.3578 51.5529 58.3735 51.5939 58.3733 51.6363C58.3733 51.729 58.2962 51.8062 58.2036 51.7907L53.0475 51.5437C53.0475 52.2693 53.3871 55.0634 57.6015 55.7736C57.6219 55.7772 57.6415 55.785 57.6589 55.7964C57.6763 55.8077 57.6911 55.8225 57.7027 55.8398C57.7142 55.8571 57.7221 55.8766 57.7259 55.897C57.7298 55.9175 57.7294 55.9385 57.725 55.9588C57.7251 55.9784 57.7211 55.9978 57.7131 56.0158C57.7052 56.0337 57.6936 56.0498 57.679 56.0629C57.6644 56.076 57.6472 56.0859 57.6285 56.0919C57.6098 56.0979 57.5901 56.0999 57.5706 56.0977" fill="#13110C"/>
<path d="M58.1864 88.1767C58.151 88.1748 58.1171 88.1618 58.0894 88.1397C58.0618 88.1175 58.0417 88.0873 58.0321 88.0532C58.0362 87.9812 58.0362 87.909 58.0321 87.8371C58.0241 87.7942 58.0304 87.7499 58.0499 87.7109C58.0694 87.6719 58.1011 87.6404 58.1401 87.621C58.1601 87.6109 58.1822 87.6057 58.2046 87.606C58.227 87.6063 58.2489 87.612 58.2686 87.6226C58.2884 87.6332 58.3052 87.6484 58.3178 87.6669C58.3303 87.6855 58.3383 87.7068 58.3408 87.729C58.3408 87.8062 58.3408 87.8833 58.418 87.9605C58.4252 87.9818 58.4282 88.0043 58.4267 88.0268C58.4251 88.0492 58.4192 88.0711 58.4091 88.0912C58.3991 88.1113 58.3851 88.1292 58.3681 88.1439C58.3511 88.1586 58.3313 88.1697 58.3099 88.1767M57.8777 86.633C57.8402 86.6301 57.8047 86.615 57.7768 86.5898C57.7488 86.5647 57.73 86.531 57.7233 86.494C57.6152 86.0927 57.5072 85.645 57.4146 85.1973C57.4076 85.176 57.4054 85.1534 57.408 85.1311C57.4106 85.1088 57.418 85.0874 57.4298 85.0683C57.4415 85.0492 57.4573 85.0329 57.476 85.0205C57.4947 85.0082 57.5159 85 57.5381 84.9966C57.5584 84.9921 57.5794 84.9918 57.5998 84.9956C57.6203 84.9995 57.6397 85.0074 57.657 85.0189C57.6743 85.0304 57.6891 85.0454 57.7005 85.0628C57.7119 85.0801 57.7196 85.0996 57.7233 85.1201C57.8314 85.5678 57.924 86.0154 58.0321 86.4168C58.0391 86.4371 58.0419 86.4586 58.0403 86.4799C58.0386 86.5013 58.0324 86.5221 58.0223 86.541C58.0121 86.5599 57.9981 86.5764 57.9812 86.5896C57.9643 86.6028 57.9448 86.6123 57.924 86.6175M57.3528 83.9932C57.3126 83.9939 57.2736 83.9802 57.2425 83.9548C57.2114 83.9294 57.1903 83.8938 57.183 83.8543C57.1058 83.4375 57.0286 82.9898 56.9514 82.5421C56.942 82.4992 56.9497 82.4543 56.9727 82.4168C56.9958 82.3794 57.0324 82.3524 57.075 82.3414C57.0973 82.337 57.1203 82.3371 57.1426 82.3417C57.1649 82.3463 57.186 82.3554 57.2047 82.3684C57.2235 82.3813 57.2394 82.3979 57.2516 82.4171C57.2638 82.4364 57.2719 82.4579 57.2756 82.4803L57.5072 83.7925C57.5166 83.8354 57.5089 83.8803 57.4859 83.9177C57.4629 83.9552 57.4262 83.9822 57.3837 83.9932M56.9206 81.3534C56.8831 81.3506 56.8476 81.3354 56.8197 81.3103C56.7917 81.2852 56.7729 81.2515 56.7662 81.2145C56.7662 80.7668 56.6427 80.3346 56.5655 79.8869C56.5634 79.8428 56.5759 79.7993 56.601 79.763C56.6261 79.7267 56.6625 79.6997 56.7045 79.6862C56.7268 79.6841 56.7493 79.6864 56.7707 79.693C56.7921 79.6997 56.812 79.7104 56.8292 79.7248C56.8464 79.7391 56.8607 79.7568 56.8711 79.7767C56.8814 79.7965 56.8878 79.8183 56.8897 79.8406C56.8897 80.2883 57.0132 80.7205 57.0904 81.1528C57.0949 81.1751 57.0948 81.1981 57.0901 81.2204C57.0855 81.2427 57.0764 81.2638 57.0635 81.2826C57.0505 81.3013 57.0339 81.3172 57.0147 81.3294C56.9954 81.3416 56.9739 81.3497 56.9514 81.3534M56.581 78.6982C56.5412 78.6947 56.5039 78.6773 56.4757 78.6491C56.4474 78.6209 56.43 78.5836 56.4266 78.5439C56.4266 78.1116 56.3185 77.6639 56.2568 77.2162C56.2562 77.172 56.2714 77.1291 56.2997 77.0951C56.328 77.0611 56.3676 77.0384 56.4112 77.031C56.4318 77.0263 56.4532 77.0264 56.4738 77.0312C56.4944 77.036 56.5136 77.0455 56.53 77.0589C56.5464 77.0723 56.5596 77.0893 56.5684 77.1086C56.5772 77.1278 56.5815 77.1488 56.581 77.1699C56.581 77.6176 56.689 78.0653 56.7508 78.513C56.7552 78.5344 56.755 78.5566 56.7503 78.5779C56.7455 78.5993 56.7363 78.6194 56.7231 78.637C56.71 78.6545 56.6932 78.669 56.674 78.6796C56.6549 78.6901 56.6336 78.6965 56.6118 78.6982M56.3031 76.0276C56.2828 76.0276 56.2627 76.0236 56.244 76.0158C56.2253 76.0081 56.2083 75.9967 56.1939 75.9824C56.1796 75.968 56.1682 75.951 56.1605 75.9323C56.1527 75.9136 56.1487 75.8935 56.1487 75.8732C56.1487 75.441 56.0407 74.9933 56.0098 74.5456C56.0053 74.5242 56.0055 74.5021 56.0103 74.4807C56.015 74.4593 56.0243 74.4392 56.0374 74.4216C56.0506 74.4041 56.0673 74.3896 56.0865 74.379C56.1057 74.3684 56.1269 74.3621 56.1487 74.3604C56.1929 74.3597 56.2359 74.375 56.2699 74.4033C56.3039 74.4316 56.3266 74.4711 56.334 74.5147L56.4729 75.8424C56.475 75.8647 56.4727 75.8872 56.4661 75.9086C56.4595 75.93 56.4486 75.9499 56.4343 75.9671C56.4199 75.9843 56.4023 75.9986 56.3825 76.0089C56.3626 76.0193 56.3409 76.0257 56.3185 76.0276M56.0561 73.3569C56.0167 73.3549 55.9789 73.3403 55.9484 73.3153C55.9179 73.2904 55.8961 73.2562 55.8863 73.218C55.8863 72.7703 55.8863 72.3227 55.7782 71.875C55.7737 71.8323 55.7854 71.7894 55.8112 71.755C55.837 71.7206 55.8749 71.6973 55.9172 71.6897C55.9614 71.6891 56.0044 71.7044 56.0383 71.7327C56.0723 71.761 56.095 71.8005 56.1024 71.8441C56.1024 72.2918 56.1024 72.7395 56.2105 73.1872C56.2152 73.2078 56.2151 73.2292 56.2103 73.2498C56.2054 73.2704 56.1959 73.2897 56.1825 73.3061C56.1691 73.3224 56.1522 73.3355 56.1329 73.3444C56.1137 73.3532 56.0927 73.3575 56.0715 73.3569M55.8399 70.6863C55.799 70.6863 55.7597 70.6701 55.7308 70.6411C55.7018 70.6122 55.6856 70.5729 55.6856 70.532C55.6856 70.0843 55.6084 69.6366 55.5775 69.1889C55.5774 69.1464 55.5931 69.1054 55.6217 69.074C55.6503 69.0425 55.6896 69.023 55.7319 69.0191C55.7535 69.0169 55.7752 69.0193 55.7958 69.0261C55.8163 69.0329 55.8352 69.0439 55.8512 69.0585C55.8672 69.073 55.88 69.0908 55.8887 69.1106C55.8974 69.1304 55.9018 69.1518 55.9017 69.1735C55.9017 69.6057 55.9017 70.0534 56.0098 70.501C56.0119 70.5234 56.0096 70.5459 56.003 70.5673C55.9963 70.5888 55.9856 70.6086 55.9712 70.6258C55.9568 70.6431 55.9392 70.6573 55.9193 70.6677C55.8995 70.6781 55.8777 70.6844 55.8554 70.6863M55.2842 68.1083C55.2433 68.1083 55.204 68.092 55.1751 68.0631C55.1461 68.0341 55.1299 67.9949 55.1299 67.9539C55.1299 67.4908 55.099 67.0431 55.0372 66.6109C55.0366 66.5667 55.0518 66.5237 55.0801 66.4897C55.1085 66.4557 55.148 66.433 55.1916 66.4256C55.2139 66.4256 55.236 66.43 55.2566 66.4386C55.2772 66.4471 55.2959 66.4596 55.3117 66.4754C55.3275 66.4912 55.34 66.5099 55.3485 66.5305C55.357 66.5511 55.3614 66.5731 55.3614 66.5954L55.454 67.9231C55.4546 67.9673 55.4394 68.0103 55.4111 68.0442C55.3828 68.0782 55.3433 68.1009 55.2997 68.1083M55.1299 65.4222C55.0889 65.4222 55.0496 65.406 55.0207 65.377C54.9917 65.3481 54.9755 65.3088 54.9755 65.2679C54.9755 64.8047 54.9755 64.3571 54.8983 63.9248C54.8961 63.9033 54.8985 63.8815 54.9053 63.861C54.9121 63.8404 54.9231 63.8216 54.9377 63.8055C54.9522 63.7895 54.97 63.7767 54.9898 63.768C55.0096 63.7593 55.031 63.7549 55.0527 63.755C55.0742 63.7528 55.096 63.7552 55.1165 63.762C55.1371 63.7688 55.156 63.7798 55.172 63.7944C55.188 63.8089 55.2008 63.8267 55.2095 63.8465C55.2182 63.8663 55.2226 63.8877 55.2225 63.9094C55.2225 64.3416 55.2225 64.7893 55.2997 65.2524C55.3018 65.2739 55.2994 65.2957 55.2927 65.3162C55.2859 65.3368 55.2749 65.3557 55.2603 65.3717C55.2457 65.3877 55.228 65.4005 55.2081 65.4092C55.1883 65.4179 55.1669 65.4223 55.1453 65.4222M55.0064 62.7516C54.9641 62.7477 54.9247 62.7281 54.8961 62.6967C54.8676 62.6653 54.8518 62.6243 54.852 62.5818C54.852 62.1032 54.852 61.6555 54.852 61.2387C54.8498 61.2172 54.8522 61.1955 54.859 61.1749C54.8658 61.1544 54.8768 61.1354 54.8914 61.1194C54.9059 61.1034 54.9237 61.0907 54.9435 61.082C54.9633 61.0733 54.9847 61.0688 55.0064 61.0689C55.0279 61.0668 55.0497 61.0692 55.0702 61.076C55.0908 61.0827 55.1096 61.0938 55.1257 61.1083C55.1417 61.1229 55.1544 61.1406 55.1631 61.1604C55.1718 61.1802 55.1763 61.2017 55.1762 61.2233C55.1762 61.6401 55.1762 62.0878 55.1762 62.5663C55.1768 62.6106 55.1616 62.6535 55.1332 62.6875C55.1049 62.7215 55.0654 62.7442 55.0218 62.7516H55.0064ZM54.8983 60.0655C54.8533 60.0655 54.8101 60.0476 54.7782 60.0158C54.7464 59.9839 54.7285 59.9407 54.7285 59.8957C54.7285 59.0312 54.7285 58.5527 54.7285 58.5527C54.7393 58.5181 54.7608 58.4879 54.79 58.4665C54.8192 58.4451 54.8544 58.4335 54.8906 58.4335C54.9268 58.4335 54.962 58.4451 54.9912 58.4665C55.0204 58.4879 55.0419 58.5181 55.0527 58.5527C55.0527 58.5527 55.0527 59.0466 55.0527 59.8957C55.0527 60.0038 55.0527 60.0809 54.8983 60.0809V60.0655Z" fill="#13110C"/>
<path d="M46.4709 94.7686C45.8842 95.9881 44.0318 95.6948 44.0318 95.6948C44.0318 95.6948 38.1502 97.2385 38.32 98.3655C38.4898 99.4924 45.5292 98.3655 45.5292 98.3655V98.844H47.3971C47.3971 98.844 48.2153 95.6176 46.4709 94.7686Z" fill="#0095D4"/>
<path d="M60.3168 95.8954C59.7302 97.1149 57.8777 96.8062 57.8777 96.8062C57.8777 96.8062 52.0115 98.3499 52.1814 99.4922C52.3512 100.635 59.3751 99.4922 59.3751 99.4922V99.9708H61.243C61.243 99.9708 62.0612 96.729 60.3013 95.8954" fill="#0095D4"/>
<path d="M50.9795 27.3535C52.185 27.9723 53.579 28.1155 54.8851 27.7549C54.8851 27.7549 54.3757 31.4598 52.1373 31.2591C49.8989 31.0584 50.9795 27.3535 50.9795 27.3535Z" fill="white"/>
<path d="M46.2855 6.69884C46.2855 6.69884 45.8378 17.4122 50.4072 15.5598C54.9766 13.7073 53.7725 5.63367 53.7725 5.63367L46.2855 6.69884Z" fill="#E3E3E3"/>
<path d="M44.2936 5.60295C44.5686 6.08282 44.9518 6.49181 45.4128 6.79735C45.8738 7.10289 46.3998 7.29649 46.9488 7.36277C48.0363 7.48618 49.1341 7.48618 50.2215 7.36277C51.1282 7.23989 52.0506 7.40175 52.8613 7.82592C53.262 8.05963 53.5613 8.43406 53.7012 8.87634C53.841 9.31863 53.8113 9.7971 53.6177 10.2187C53.4325 10.512 53.1391 10.7435 53.0928 11.0986C53.0821 11.28 53.1194 11.461 53.2009 11.6235C53.4044 12.0277 53.751 12.3418 54.1734 12.5045C54.5958 12.6671 55.0635 12.6668 55.4856 12.5034C55.9443 12.2315 56.3221 11.842 56.5799 11.3752C56.8377 10.9084 56.9662 10.3813 56.9521 9.84819C56.9182 8.77908 56.9854 7.70914 57.1528 6.65267C57.4924 5.38682 58.4959 4.13642 58.0328 2.90144C57.7831 2.44113 57.4051 2.0633 56.9446 1.81389C56.4842 1.56449 55.9612 1.45426 55.4393 1.49665C54.4125 1.59498 53.3787 1.59498 52.3519 1.49665C50.6847 1.17247 49.1872 -0.355837 47.5509 0.0764052C46.2078 0.431461 45.8682 1.62012 45.1118 2.66985C44.3554 3.71958 43.707 4.29079 44.3245 5.55664" fill="#142B2A"/>
<path d="M48.739 12.6268H47.7665C47.7066 12.6479 47.6412 12.6479 47.5812 12.6268C47.5563 12.5622 47.5563 12.4906 47.5812 12.4261C47.5667 11.9078 47.6133 11.3897 47.7202 10.8823C47.7202 10.8455 47.7348 10.8102 47.7609 10.7841C47.7869 10.7581 47.8223 10.7434 47.8591 10.7434C47.896 10.7434 47.9313 10.7581 47.9573 10.7841C47.9834 10.8102 47.998 10.8455 47.998 10.8823C47.8847 11.3887 47.838 11.9076 47.8591 12.4261H48.8008C48.8377 12.4328 48.8714 12.4516 48.8966 12.4795C48.9217 12.5075 48.9369 12.543 48.9397 12.5804C48.9397 12.6173 48.9251 12.6526 48.899 12.6787C48.873 12.7047 48.8376 12.7194 48.8008 12.7194" fill="#142B2A"/>
<path d="M48.3371 14.0785C48.3174 14.0786 48.298 14.0746 48.2801 14.0667C48.2621 14.0587 48.2461 14.0471 48.2329 14.0325C48.2198 14.0179 48.2099 14.0007 48.2039 13.982C48.1979 13.9634 48.1959 13.9436 48.1981 13.9241C48.198 13.9065 48.2016 13.8891 48.2088 13.873C48.2159 13.8569 48.2264 13.8425 48.2396 13.8308C48.2527 13.8191 48.2682 13.8104 48.285 13.8052C48.3019 13.8 48.3196 13.7984 48.3371 13.8006C48.5011 13.8014 48.6637 13.77 48.8156 13.708C48.8327 13.7008 48.8513 13.6975 48.8698 13.6984C48.8884 13.6993 48.9066 13.7044 48.9229 13.7133C48.9392 13.7222 48.9533 13.7347 48.9641 13.7498C48.975 13.7649 48.9823 13.7823 48.9854 13.8006C49.0082 13.8261 49.0208 13.8591 49.0208 13.8932C49.0208 13.9274 49.0082 13.9604 48.9854 13.9859C48.8123 14.0487 48.6293 14.0801 48.4451 14.0785" fill="#142B2A"/>
<path d="M21.9548 35.6289H9.4043V38.5774H21.9548V35.6289Z" fill="#0095D4"/>
<path d="M19.9335 31.522C18.0337 32.1019 16.0292 32.2547 14.0635 31.9694C12.0978 31.6841 10.2195 30.9678 8.56295 29.8718C6.9064 28.7758 5.51263 27.3272 4.48133 25.6296C3.45004 23.932 2.80673 22.0275 2.59747 20.0522C2.27316 17.613 2.60252 15.1314 3.55184 12.8611C4.50115 10.5909 6.03635 8.61357 8.0005 7.13127L6.95078 4.98547C4.5428 6.71033 2.65082 9.05924 1.47845 11.7793C0.306085 14.4995 -0.102269 17.4878 0.297341 20.4227C0.758756 24.2906 2.61331 27.858 5.51418 30.4577C8.41506 33.0574 12.1636 34.5114 16.0587 34.5478C16.7506 34.5471 17.4416 34.5007 18.1273 34.4088C19.1023 34.2737 20.0633 34.0515 20.9986 33.745L19.9335 31.522Z" fill="#CA5098"/>
<path d="M29.3817 43.2845H1.67188L5.1607 35.3652L5.51577 35.5196L2.27395 42.8831H28.7796L25.5378 35.5196L25.8929 35.3652L29.3817 43.2845Z" fill="#13110C"/>
<path d="M2.05781 43.1925H1.67188V96.8214H2.05781V43.1925Z" fill="#13110C"/>
<path d="M29.3664 43.2539H28.9805V96.8056H29.3664V43.2539Z" fill="#13110C"/>
<path d="M49.5741 10.0641C49.5392 10.0737 49.5071 10.0913 49.4803 10.1154C49.4535 10.1396 49.4326 10.1697 49.4195 10.2033C49.4044 10.2747 49.4044 10.3484 49.4195 10.4198C49.4195 10.4198 49.4195 10.4971 49.4195 10.5281C49.4393 10.5657 49.4726 10.5945 49.5127 10.6088C49.5527 10.6231 49.5967 10.6219 49.6359 10.6054C49.6806 10.5916 49.7219 10.5687 49.7573 10.5383C49.7927 10.5078 49.8215 10.4703 49.8418 10.4283C49.8621 10.3862 49.8735 10.3404 49.8753 10.2937C49.8772 10.247 49.8694 10.2004 49.8525 10.1569C49.8296 10.1057 49.7919 10.0626 49.7442 10.0332C49.7213 10.0179 49.6944 10.0098 49.6668 10.0098C49.6393 10.0098 49.6124 10.0179 49.5895 10.0332" fill="#142B2A"/>
<path d="M49.6211 9.44691C49.8247 9.40051 50.0361 9.40051 50.2397 9.44691" stroke="#142B2A" stroke-width="0.65" stroke-linecap="round" stroke-linejoin="round"/>
<path d="M46.4707 9.70992C46.6905 9.56698 46.9497 9.49677 47.2117 9.50922" stroke="#142B2A" stroke-width="0.65" stroke-linecap="round" stroke-linejoin="round"/>
<path d="M46.8262 10.5896C46.8414 10.5339 46.8414 10.4752 46.8262 10.4195C46.8033 10.3773 46.7717 10.3404 46.7335 10.3113C46.7335 10.3113 46.6407 10.3113 46.6098 10.3113C46.5851 10.3206 46.5626 10.335 46.5439 10.3537C46.5253 10.3724 46.5108 10.3948 46.5015 10.4195C46.4943 10.4915 46.4943 10.564 46.5015 10.636C46.4949 10.677 46.4949 10.7188 46.5015 10.7597C46.532 10.7849 46.5703 10.7986 46.6098 10.7986C46.6493 10.7986 46.6876 10.7849 46.718 10.7597C46.7529 10.7728 46.7913 10.7728 46.8262 10.7597C46.8346 10.7085 46.8346 10.6563 46.8262 10.6051" fill="#142B2A"/>
<path d="M49.9747 11.454C49.8257 11.4546 49.6782 11.423 49.5425 11.3614C49.3133 11.2036 49.1355 10.9819 49.0313 10.7239C48.927 10.466 48.9008 10.183 48.9559 9.91028C48.9614 9.73099 49.0037 9.55477 49.08 9.39244C49.1563 9.23011 49.2651 9.08514 49.3996 8.96651C49.5342 8.84788 49.6916 8.75809 49.8622 8.70269C50.0328 8.6473 50.213 8.6275 50.3915 8.64446C50.4985 8.62242 50.6088 8.62242 50.7157 8.64446C50.8528 8.71763 50.9696 8.82356 51.0558 8.95285C51.142 9.08214 51.1949 9.23074 51.2097 9.38542C51.2793 9.6465 51.2918 9.91952 51.2465 10.1859C51.2013 10.4522 51.0992 10.7057 50.9473 10.9291C50.8398 11.0888 50.6951 11.2201 50.5257 11.3115C50.3563 11.4029 50.1672 11.4518 49.9747 11.454ZM50.3144 8.93778C50.1752 8.93157 50.0363 8.9531 49.9055 9.00114C49.7748 9.04918 49.6549 9.12279 49.5529 9.21761C49.4509 9.31244 49.3688 9.42659 49.3113 9.55346C49.2539 9.68034 49.2223 9.81737 49.2183 9.95659C49.1726 10.1699 49.1906 10.392 49.2703 10.5952C49.3499 10.7983 49.4875 10.9735 49.666 11.099C49.8533 11.1791 50.0629 11.1905 50.2577 11.1312C50.4526 11.0719 50.6203 10.9456 50.7312 10.7748C50.8477 10.5851 50.9255 10.3742 50.9599 10.1543C50.9944 9.93433 50.9848 9.70972 50.9318 9.49349C50.9236 9.3883 50.8915 9.28637 50.838 9.19542C50.7846 9.10448 50.7111 9.02693 50.6231 8.96863C50.5467 8.95365 50.468 8.95365 50.3915 8.96863H50.3144" fill="#CA5098"/>
<path d="M51.1176 9.73997C51.0776 9.7541 51.0341 9.7541 50.9941 9.73997C50.9702 9.71201 50.957 9.67642 50.957 9.63963C50.957 9.60283 50.9702 9.56724 50.9941 9.53928C52.6459 8.5513 54.344 7.57876 56.0267 6.65253C56.0438 6.64531 56.0621 6.6416 56.0807 6.6416C56.0992 6.6416 56.1176 6.64531 56.1347 6.65253C56.1676 6.66992 56.1945 6.6968 56.2119 6.7297C56.3163 6.96498 56.384 7.2149 56.4126 7.4707C56.4199 7.49164 56.422 7.514 56.4189 7.53595C56.4158 7.5579 56.4074 7.57879 56.3946 7.59686C56.3817 7.61493 56.3648 7.62966 56.3451 7.63983C56.3254 7.65 56.3035 7.65528 56.2813 7.65528C56.2592 7.65528 56.2373 7.65 56.2176 7.63983C56.1979 7.62966 56.181 7.61493 56.1681 7.59686C56.1553 7.57879 56.1469 7.5579 56.1438 7.53595C56.1407 7.514 56.1428 7.49164 56.1501 7.4707C56.1235 7.2977 56.0822 7.1273 56.0267 6.96129C54.3903 7.85665 52.7385 8.81372 51.133 9.77083" fill="#CA5098"/>
<path d="M46.0222 11.7626C45.8905 11.7675 45.7595 11.7422 45.6391 11.6887C45.5187 11.6352 45.4121 11.5548 45.3275 11.4538C45.1217 11.145 45.034 10.7723 45.0805 10.4041C45.0866 10.2143 45.1231 10.0267 45.1886 9.84839C45.2777 9.66941 45.4041 9.51149 45.5591 9.38525C45.6659 9.2716 45.7951 9.18137 45.9386 9.12025C46.0821 9.05913 46.2367 9.0285 46.3927 9.03022C46.5172 9.037 46.639 9.06924 46.7505 9.12501C46.8621 9.18077 46.9609 9.25885 47.0411 9.35439C47.247 9.60071 47.3566 9.91333 47.3498 10.2343C47.3587 10.4896 47.3042 10.7431 47.191 10.9721C47.0779 11.2011 46.9096 11.3984 46.7014 11.5464C46.5016 11.6845 46.2651 11.7598 46.0222 11.7626ZM45.7443 9.58594C45.6245 9.69426 45.5205 9.81898 45.4356 9.95642C45.3864 10.1059 45.3604 10.2622 45.3584 10.4196C45.3173 10.7136 45.3772 11.0129 45.5282 11.2686C45.6718 11.3865 45.8519 11.451 46.0376 11.451C46.2234 11.451 46.4035 11.3865 46.5471 11.2686C46.7143 11.1433 46.8491 10.9798 46.9404 10.7919C47.0317 10.6039 47.0768 10.3969 47.0719 10.188C47.0806 9.93617 46.9984 9.68958 46.8404 9.49332C46.7226 9.35801 46.5562 9.27478 46.3773 9.26177C46.138 9.26763 45.9106 9.36743 45.7443 9.53963" fill="#CA5098"/>
<path d="M47.211 10.3735C47.1857 10.3718 47.1611 10.3639 47.1396 10.3504C47.118 10.337 47.1002 10.3184 47.0875 10.2963C47.0662 10.2672 47.0547 10.2321 47.0547 10.196C47.0547 10.1599 47.0662 10.1248 47.0875 10.0957C47.6705 9.79828 48.3472 9.7428 48.9709 9.94131C49.0001 9.95587 49.0232 9.98019 49.0362 10.0101C49.0492 10.04 49.0513 10.0735 49.0421 10.1048C49.0329 10.1361 49.013 10.1632 48.9859 10.1812C48.9588 10.1993 48.9261 10.2073 48.8937 10.2037C48.6169 10.1168 48.3257 10.0858 48.0369 10.1123C47.7481 10.1388 47.4673 10.2223 47.211 10.3581" fill="#CA5098"/>
</svg>
