<svg width="79" height="102" viewBox="0 0 79 102" fill="none" xmlns="http://www.w3.org/2000/svg">
<path d="M55.0686 59.3913C62.1409 58.0708 68.6792 54.7297 73.8929 49.7719C74.7361 49.1116 75.4403 48.291 75.965 47.3573C76.4896 46.4236 76.8242 45.3954 76.9497 44.3318C76.9497 40.6878 72.9085 38.3736 72.0278 34.8506C71.2852 31.7938 73.0985 28.7542 73.7548 25.6802C75.3091 18.9276 70.9052 11.6396 64.688 8.9455C58.4708 6.25138 51.0619 7.63298 45.3456 11.346C43.4465 12.8811 41.2801 14.052 38.9556 14.8C37.0769 15.0071 35.1774 14.9197 33.3256 14.541C27.0621 13.6609 20.6946 15.1313 15.4511 18.6685C12.8486 20.4924 10.7282 22.9213 9.27213 25.7461C7.81609 28.5709 7.06802 31.7072 7.0924 34.8851C7.30858 36.4203 7.30858 37.9782 7.0924 39.5135C6.33251 42.4148 3.27571 44.5908 3.51749 47.5786C3.69019 49.7028 5.48635 51.2398 7.16154 52.4833C11.1221 55.4307 15.1978 58.1939 19.3886 60.7729C23.0672 63.0352 27.5401 65.194 31.4777 63.3806" fill="#9BCEA4"/>
<path d="M67.0538 7.14941H63.5825H60.1285L57.6934 10.3962V19.0312H63.5825H69.4888V10.3962L67.0538 7.14941Z" fill="#CA5098"/>
<path d="M66.8322 13.8155C66.8152 14.4537 66.6104 15.0728 66.2435 15.5952C65.8766 16.1177 65.3638 16.5203 64.7693 16.7529C64.1747 16.9854 63.5247 17.0376 62.9007 16.9027C62.2767 16.7678 61.7064 16.452 61.2609 15.9947C60.8154 15.5374 60.5147 14.9589 60.3962 14.3315C60.2778 13.7042 60.3468 13.0558 60.5949 12.4676C60.843 11.8793 61.259 11.3773 61.7909 11.0242C62.3228 10.6711 62.947 10.4826 63.5854 10.4824C64.0178 10.4869 64.445 10.5768 64.8425 10.747C65.2401 10.9172 65.6001 11.1642 65.9018 11.474C66.2035 11.7837 66.4411 12.15 66.6007 12.5519C66.7604 12.9537 66.8391 13.3832 66.8322 13.8155Z" fill="white"/>
<path d="M63.9444 0H62.77L60.7148 5.69911H66.3104L63.9444 0Z" fill="#CA5098"/>
<path d="M60.7502 20.2227H57.6934V64.4857H60.7502V20.2227Z" fill="#CA5098"/>
<path d="M65.1213 20.2227H62.0645V64.4857H65.1213V20.2227Z" fill="#CA5098"/>
<path d="M69.4903 20.2227H66.4336V64.4857H69.4903V20.2227Z" fill="#CA5098"/>
<path d="M65.6389 14.3517H63.1348V11.7958H63.8774V13.5919H65.6389V14.3517Z" fill="#CA5098"/>
<path d="M33.293 38.3399C33.3966 40.6399 34.2866 42.8347 35.8143 44.5571C36.4127 45.3163 37.2408 45.8613 38.1748 46.1103C39.1088 46.3594 40.0984 46.2992 40.9953 45.9387C41.8308 45.4138 42.5293 44.6975 43.0332 43.8491C43.8744 42.7637 44.5711 41.5736 45.1056 40.3087C45.8415 38.1807 45.9078 35.8784 45.2956 33.7115C45.0281 32.2326 44.1989 30.9144 42.9814 30.033C42.0533 29.5477 40.9942 29.3722 39.9592 29.5322C38.3185 29.7049 34.191 28.8069 33.9147 31.9673C33.5971 34.0775 33.4182 36.2063 33.3793 38.3399" fill="#FAFAFA"/>
<path d="M45.5538 37.6834C45.5538 37.6834 44.8285 45.8003 39.4057 46.1284C33.9829 46.4566 40.77 37.2344 40.77 37.2344L45.5538 37.6834Z" fill="#FAFAFA"/>
<path d="M41.9937 45.2474C41.5038 45.6818 40.9082 45.9796 40.2667 46.1109C39.1096 46.439 40.7158 45.0056 40.7158 45.0056L41.6483 44.6084L41.9937 45.2474Z" fill="#FAFAFA"/>
<path d="M36.9003 38.0284C36.8732 38.0409 36.8438 38.0473 36.814 38.0473C36.7842 38.0473 36.7548 38.0409 36.7277 38.0284C36.6148 37.9068 36.4787 37.809 36.3274 37.7408C36.1762 37.6726 36.0128 37.6353 35.8469 37.6312C35.68 37.6206 35.5127 37.6443 35.3553 37.7007C35.1979 37.7571 35.0537 37.8451 34.9315 37.9594C34.8897 37.9995 34.8341 38.0219 34.7761 38.0219C34.7182 38.0219 34.6625 37.9995 34.6207 37.9594C34.5782 37.9119 34.5547 37.8504 34.5547 37.7867C34.5547 37.7229 34.5782 37.6615 34.6207 37.614C34.7883 37.4611 34.9844 37.3428 35.1978 37.2658C35.4111 37.1887 35.6376 37.1544 35.8642 37.1649C36.3212 37.1895 36.7498 37.3945 37.0558 37.7348C37.0779 37.7543 37.0955 37.7782 37.1076 37.805C37.1197 37.8318 37.1259 37.8609 37.1259 37.8903C37.1259 37.9197 37.1197 37.9487 37.1076 37.9755C37.0955 38.0023 37.0779 38.0263 37.0558 38.0457C37.0343 38.0564 37.0106 38.0619 36.9867 38.0619C36.9627 38.0619 36.9391 38.0564 36.9176 38.0457" fill="#13110C"/>
<path d="M41.426 37.7866C41.3888 37.7841 41.3526 37.7735 41.3198 37.7556C41.287 37.7377 41.2584 37.713 41.2361 37.683C41.1948 37.6383 41.1719 37.5798 41.1719 37.5189C41.1719 37.4581 41.1948 37.3995 41.2361 37.3549C41.53 37.152 41.867 37.0199 42.2206 36.969C42.5741 36.918 42.9346 36.9496 43.2739 37.0613C43.3324 37.0811 43.3811 37.1226 43.41 37.1772C43.4389 37.2317 43.4459 37.2953 43.4294 37.3549C43.4198 37.3836 43.4043 37.4101 43.3842 37.4328C43.364 37.4554 43.3395 37.4738 43.3121 37.4867C43.2846 37.4996 43.2549 37.5068 43.2246 37.5079C43.1943 37.509 43.164 37.5039 43.1357 37.493C42.8488 37.3967 42.5435 37.3683 42.2438 37.4103C41.944 37.4523 41.6581 37.5634 41.4087 37.7348C41.3695 37.748 41.327 37.748 41.2878 37.7348" fill="#13110C"/>
<path d="M39.5623 40.6537H39.1652C38.9682 40.6068 38.7886 40.505 38.6471 40.3601C38.5343 40.2053 38.4571 40.0275 38.4213 39.8393C38.3855 39.6512 38.3918 39.4575 38.4399 39.2721C38.5069 38.7669 38.599 38.2655 38.7161 37.7696C38.7228 37.7398 38.7354 37.7117 38.7532 37.6869C38.7711 37.6622 38.7938 37.6413 38.82 37.6257C38.8461 37.61 38.8752 37.5998 38.9054 37.5957C38.9357 37.5917 38.9665 37.5938 38.9959 37.6021C39.0253 37.6103 39.0527 37.6244 39.0764 37.6436C39.1002 37.6628 39.1197 37.6866 39.134 37.7136C39.1482 37.7406 39.1568 37.7702 39.1592 37.8006C39.1616 37.831 39.1577 37.8616 39.1479 37.8905C39.035 38.3689 38.9486 38.8532 38.8889 39.3412C38.7994 39.5687 38.7994 39.8217 38.8889 40.0492C38.967 40.1318 39.0702 40.1865 39.1825 40.2047C39.3534 40.2391 39.5296 40.2391 39.7005 40.2047C39.7595 40.1991 39.8185 40.2154 39.8662 40.2504C39.914 40.2854 39.9472 40.3367 39.9596 40.3946C39.9659 40.4557 39.9502 40.5171 39.9154 40.5677C39.8806 40.6183 39.829 40.6549 39.7697 40.6709H39.476" fill="#13110C"/>
<path d="M39.1652 43.0197C38.9756 43.0367 38.7849 43.0367 38.5953 43.0197C38.3156 42.9776 38.0463 42.8839 37.8009 42.7434C37.7508 42.7113 37.7142 42.6618 37.6982 42.6044C37.6823 42.5471 37.6882 42.4859 37.7146 42.4325C37.7564 42.3924 37.812 42.37 37.87 42.37C37.9279 42.37 37.9836 42.3924 38.0254 42.4325C38.2252 42.5408 38.4409 42.6165 38.6644 42.657C39.1745 42.7402 39.6974 42.6926 40.1842 42.5188C40.2113 42.5081 40.2403 42.5032 40.2695 42.5045C40.2986 42.5057 40.3272 42.5131 40.3533 42.5261C40.3793 42.5392 40.4023 42.5576 40.4208 42.5801C40.4393 42.6027 40.4528 42.6289 40.4605 42.657C40.4714 42.6853 40.4764 42.7155 40.4753 42.7458C40.4742 42.7761 40.467 42.8059 40.4541 42.8333C40.4412 42.8608 40.4229 42.8853 40.4003 42.9055C40.3776 42.9256 40.351 42.941 40.3223 42.9506C39.9513 43.0853 39.5599 43.1554 39.1652 43.1578" fill="#13110C"/>
<path d="M34.5356 36.0081C34.4961 36.0065 34.4578 35.9945 34.4244 35.9732C34.391 35.952 34.3639 35.9223 34.3457 35.8873C34.3091 35.8437 34.2891 35.7887 34.2891 35.7318C34.2891 35.675 34.3091 35.6199 34.3457 35.5764C35.206 35.0595 36.2236 34.8694 37.2124 35.041C37.2737 35.0536 37.3278 35.0894 37.3632 35.1409C37.3986 35.1924 37.4126 35.2557 37.4024 35.3173C37.3982 35.347 37.3881 35.3755 37.3728 35.4012C37.3574 35.4268 37.337 35.4492 37.3129 35.4669C37.2888 35.4846 37.2614 35.4973 37.2323 35.5042C37.2031 35.5112 37.1729 35.5122 37.1434 35.5073C36.2575 35.3373 35.3401 35.5036 34.5702 35.9736H34.4493" fill="#13110C"/>
<path d="M42.7742 35.8009C42.2103 35.6549 41.6295 35.5852 41.0472 35.5936C40.9859 35.5938 40.9269 35.5707 40.882 35.529C40.8371 35.4874 40.8097 35.4302 40.8053 35.3691C40.803 35.3382 40.807 35.3072 40.8173 35.2779C40.8275 35.2486 40.8436 35.2218 40.8647 35.1991C40.8858 35.1764 40.9113 35.1583 40.9397 35.1459C40.9682 35.1336 40.9989 35.1272 41.0299 35.1273C41.6818 35.1147 42.3324 35.1902 42.9641 35.3518C43.0235 35.3716 43.0737 35.4123 43.1055 35.4663C43.1372 35.5202 43.1483 35.5839 43.1368 35.6454C43.1223 35.6942 43.0927 35.7371 43.0524 35.7681C43.0121 35.7991 42.9631 35.8166 42.9122 35.8181" fill="#13110C"/>
<path d="M21.8426 98.7843C22.0572 99.3104 22.3851 99.7828 22.803 100.168C23.2208 100.553 23.7184 100.841 24.2603 101.012C25.8734 101.358 27.5565 101.139 29.0269 100.39C30.5294 99.7342 31.9456 98.8534 33.4999 98.3353C38.8018 96.6083 44.829 99.2161 50.0963 97.3336C51.6312 96.7524 53.0127 95.8277 54.1352 94.6304C55.2578 93.433 56.0915 91.9948 56.5726 90.4256C56.961 88.8467 57.1867 87.2322 57.2461 85.6073C56.7971 78.4057 55.9509 71.964 55.9509 71.964C63.567 71.0847 70.8836 68.4864 77.3484 64.3651C76.1125 64.8723 74.7386 64.9333 73.4626 64.5378C68.4716 63.4153 61.5809 56.3864 58.1096 52.4488C53.6277 51.143 48.9262 50.7669 44.2936 51.3435L44.0345 51.5162V51.9307C43.8921 54.879 43.31 57.7895 42.3075 60.5657C41.9967 61.4292 41.5131 62.3964 40.5805 62.5173C40.2529 62.5377 39.9252 62.4794 39.6247 62.3472C39.3242 62.215 39.0598 62.0127 38.8535 61.7574C38.1449 60.9774 37.5623 60.0918 37.1265 59.1323C36.2976 57.4053 35.5031 55.8165 34.7087 54.1413C34.4882 53.7328 34.342 53.2884 34.2769 52.8288C34.2655 52.3188 34.3415 51.8106 34.5014 51.3263C29.8688 50.7521 25.1678 51.1282 20.6854 52.4316C17.2314 56.2828 10.3234 63.3117 5.34962 64.5206C4.05503 64.9284 2.65674 64.8548 1.41211 64.3133C8.00138 68.4864 15.455 71.1028 23.2069 71.964C23.2069 71.964 20.9445 89.234 21.9116 98.767" fill="#0095D4"/>
<path d="M30.2548 50.3594L30.2363 50.3778L30.2548 50.3594Z" fill="#0095D4"/>
<path d="M40.3039 45.9896C38.3178 47.0258 36.8499 44.9879 35.3128 43.3818V46.7322C35.4081 48.3072 35.2507 49.8872 34.8465 51.4124C34.6878 51.8971 34.6119 52.405 34.622 52.9149C34.6951 53.3726 34.8408 53.8157 35.0537 54.2274C35.8481 55.9544 36.6426 57.5605 37.4716 59.2185C37.9073 60.1779 38.49 61.0636 39.1986 61.8435C39.4067 62.0967 39.6714 62.2974 39.9714 62.4295C40.2714 62.5615 40.5983 62.621 40.9256 62.6034C41.8064 62.4825 42.3072 61.5154 42.6526 60.6519C43.6472 57.8734 44.2291 54.9641 44.3796 52.0169L42.8598 44.159C42.1272 44.91 41.2751 45.5344 40.3384 46.0069" fill="#0095D4"/>
<path d="M35.2965 51.5171L34.0013 51.3271L33.7422 53.1578L35.2965 57.0608L37.179 61.3092L38.716 64.556L41.4792 63.5543L41.8418 59.8413" fill="#0095D4"/>
<path d="M39.2347 50.2907C38.6825 50.2879 38.1322 50.2242 37.594 50.1007C36.5421 49.8752 35.5483 49.4342 34.6754 48.8055C34.6415 48.7916 34.6112 48.7701 34.5868 48.7428C34.5624 48.7155 34.5445 48.683 34.5345 48.6477C34.5245 48.6125 34.5227 48.5755 34.5292 48.5394C34.5356 48.5034 34.5501 48.4692 34.5716 48.4396C34.5932 48.41 34.6212 48.3856 34.6535 48.3684C34.6859 48.3512 34.7216 48.3416 34.7582 48.3402C34.7948 48.3388 34.8313 48.3458 34.8648 48.3606C34.8983 48.3754 34.928 48.3976 34.9516 48.4255C36.2828 49.4004 37.9064 49.8923 39.5548 49.8201C41.2031 49.7479 42.7776 49.1159 44.0184 48.0283C44.0602 47.9882 44.1159 47.9658 44.1739 47.9658C44.2318 47.9658 44.2874 47.9882 44.3292 48.0283C44.3517 48.0493 44.3697 48.0747 44.3819 48.103C44.3942 48.1312 44.4005 48.1616 44.4005 48.1924C44.4005 48.2232 44.3942 48.2536 44.3819 48.2818C44.3697 48.31 44.3517 48.3355 44.3292 48.3565C42.9082 49.5454 41.1217 50.21 39.2691 50.2389" fill="#13110C"/>
<path d="M33.293 38.3399C33.3966 40.6399 34.2866 42.8347 35.8143 44.5571C36.4127 45.3163 37.2408 45.8613 38.1748 46.1103C39.1088 46.3594 40.0984 46.2992 40.9953 45.9387C41.8308 45.4138 42.5293 44.6975 43.0332 43.8491C43.8744 42.7637 44.5711 41.5736 45.1056 40.3087C45.8415 38.1807 45.9078 35.8784 45.2956 33.7115C45.0281 32.2326 44.1989 30.9144 42.9814 30.033C42.0533 29.5477 40.9942 29.3722 39.9592 29.5322C38.3185 29.7049 34.191 28.8069 33.9147 31.9673C33.5971 34.0775 33.4182 36.2063 33.3793 38.3399" fill="#E3E3E3"/>
<path d="M45.5538 37.6834C45.5538 37.6834 44.8285 45.8003 39.4057 46.1284C33.9829 46.4566 40.77 37.2344 40.77 37.2344L45.5538 37.6834Z" fill="#E3E3E3"/>
<path d="M41.9976 45.2474C41.5077 45.6818 40.9121 45.9796 40.2706 46.1109C39.1135 46.439 40.7197 45.0056 40.7197 45.0056L41.6522 44.6084L41.9976 45.2474Z" fill="#E3E3E3"/>
<path d="M36.9023 38.0284C36.8752 38.0409 36.8458 38.0473 36.816 38.0473C36.7861 38.0473 36.7567 38.0409 36.7296 38.0284C36.6167 37.9068 36.4807 37.809 36.3294 37.7408C36.1781 37.6726 36.0147 37.6353 35.8488 37.6312C35.682 37.6206 35.5146 37.6443 35.3572 37.7007C35.1998 37.7571 35.0556 37.8451 34.9335 37.9594C34.8917 37.9995 34.836 38.0219 34.7781 38.0219C34.7202 38.0219 34.6644 37.9995 34.6226 37.9594C34.5801 37.9119 34.5566 37.8504 34.5566 37.7867C34.5566 37.7229 34.5801 37.6615 34.6226 37.614C34.7902 37.4611 34.9864 37.3428 35.1997 37.2658C35.4131 37.1887 35.6395 37.1544 35.8661 37.1649C36.3232 37.1895 36.7518 37.3945 37.0578 37.7348C37.0798 37.7543 37.0974 37.7782 37.1095 37.805C37.1216 37.8318 37.1279 37.8609 37.1279 37.8903C37.1279 37.9197 37.1216 37.9487 37.1095 37.9755C37.0974 38.0023 37.0798 38.0263 37.0578 38.0457C37.0363 38.0564 37.0126 38.0619 36.9886 38.0619C36.9646 38.0619 36.941 38.0564 36.9196 38.0457" fill="#13110C"/>
<path d="M41.426 37.7866C41.3888 37.7841 41.3526 37.7735 41.3198 37.7556C41.287 37.7377 41.2584 37.713 41.2361 37.683C41.1948 37.6383 41.1719 37.5798 41.1719 37.5189C41.1719 37.4581 41.1948 37.3995 41.2361 37.3549C41.53 37.152 41.867 37.0199 42.2206 36.969C42.5741 36.918 42.9346 36.9496 43.2739 37.0613C43.3324 37.0811 43.3811 37.1226 43.41 37.1772C43.4389 37.2317 43.4459 37.2953 43.4294 37.3549C43.4198 37.3836 43.4043 37.4101 43.3842 37.4328C43.364 37.4554 43.3395 37.4738 43.3121 37.4867C43.2846 37.4996 43.2549 37.5068 43.2246 37.5079C43.1943 37.509 43.164 37.5039 43.1357 37.493C42.8488 37.3967 42.5435 37.3683 42.2438 37.4103C41.944 37.4523 41.6581 37.5634 41.4087 37.7348C41.3695 37.748 41.327 37.748 41.2878 37.7348" fill="#13110C"/>
<path d="M39.5623 40.6537H39.1652C38.9682 40.6068 38.7886 40.505 38.6471 40.3601C38.5343 40.2053 38.4571 40.0275 38.4213 39.8393C38.3855 39.6512 38.3918 39.4575 38.4399 39.2721C38.5069 38.7669 38.599 38.2655 38.7161 37.7696C38.7228 37.7398 38.7354 37.7117 38.7532 37.6869C38.7711 37.6622 38.7938 37.6413 38.82 37.6257C38.8461 37.61 38.8752 37.5998 38.9054 37.5957C38.9357 37.5917 38.9665 37.5938 38.9959 37.6021C39.0253 37.6103 39.0527 37.6244 39.0764 37.6436C39.1002 37.6628 39.1197 37.6866 39.134 37.7136C39.1482 37.7406 39.1568 37.7702 39.1592 37.8006C39.1616 37.831 39.1577 37.8616 39.1479 37.8905C39.035 38.3689 38.9486 38.8532 38.8889 39.3412C38.7994 39.5687 38.7994 39.8217 38.8889 40.0492C38.967 40.1318 39.0702 40.1865 39.1825 40.2047C39.3534 40.2391 39.5296 40.2391 39.7005 40.2047C39.7595 40.1991 39.8185 40.2154 39.8662 40.2504C39.914 40.2854 39.9472 40.3367 39.9596 40.3946C39.9659 40.4557 39.9502 40.5171 39.9154 40.5677C39.8806 40.6183 39.829 40.6549 39.7697 40.6709H39.476" fill="#13110C"/>
<path d="M39.1652 43.0197C38.9756 43.0367 38.7849 43.0367 38.5953 43.0197C38.3156 42.9776 38.0463 42.8839 37.8009 42.7434C37.7508 42.7113 37.7142 42.6618 37.6982 42.6044C37.6823 42.5471 37.6882 42.4859 37.7146 42.4325C37.7564 42.3924 37.812 42.37 37.87 42.37C37.9279 42.37 37.9836 42.3924 38.0254 42.4325C38.2252 42.5408 38.4409 42.6165 38.6644 42.657C39.1745 42.7402 39.6974 42.6926 40.1842 42.5188C40.2113 42.5081 40.2403 42.5032 40.2695 42.5045C40.2986 42.5057 40.3272 42.5131 40.3533 42.5261C40.3793 42.5392 40.4023 42.5576 40.4208 42.5801C40.4393 42.6027 40.4528 42.6289 40.4605 42.657C40.4714 42.6853 40.4764 42.7155 40.4753 42.7458C40.4742 42.7761 40.467 42.8059 40.4541 42.8333C40.4412 42.8608 40.4229 42.8853 40.4003 42.9055C40.3776 42.9256 40.351 42.941 40.3223 42.9506C39.9513 43.0853 39.5599 43.1554 39.1652 43.1578" fill="#13110C"/>
<path d="M34.5356 36.0081C34.4961 36.0065 34.4578 35.9945 34.4244 35.9732C34.391 35.952 34.3639 35.9223 34.3457 35.8873C34.3091 35.8437 34.2891 35.7887 34.2891 35.7318C34.2891 35.675 34.3091 35.6199 34.3457 35.5764C35.206 35.0595 36.2236 34.8694 37.2124 35.041C37.2737 35.0536 37.3278 35.0894 37.3632 35.1409C37.3986 35.1924 37.4126 35.2557 37.4024 35.3173C37.3982 35.347 37.3881 35.3755 37.3728 35.4012C37.3574 35.4268 37.337 35.4492 37.3129 35.4669C37.2888 35.4846 37.2614 35.4973 37.2323 35.5042C37.2031 35.5112 37.1729 35.5122 37.1434 35.5073C36.2575 35.3373 35.3401 35.5036 34.5702 35.9736H34.4493" fill="#13110C"/>
<path d="M42.7742 35.8009C42.2103 35.6549 41.6295 35.5852 41.0472 35.5936C40.9859 35.5938 40.9269 35.5707 40.882 35.529C40.8371 35.4874 40.8097 35.4302 40.8053 35.3691C40.803 35.3382 40.807 35.3072 40.8173 35.2779C40.8275 35.2486 40.8436 35.2218 40.8647 35.1991C40.8858 35.1764 40.9113 35.1583 40.9397 35.1459C40.9682 35.1336 40.9989 35.1272 41.0299 35.1273C41.6818 35.1147 42.3324 35.1902 42.9641 35.3518C43.0235 35.3716 43.0737 35.4123 43.1055 35.4663C43.1372 35.5202 43.1483 35.5839 43.1368 35.6454C43.1223 35.6942 43.0927 35.7371 43.0524 35.7681C43.0121 35.7991 42.9631 35.8166 42.9122 35.8181" fill="#13110C"/>
<path d="M35.1914 29.8259C35.1914 29.8259 28.2834 50.8608 37.9719 65.6094C37.9719 65.6094 38.5936 70.1342 28.3352 70.7904C28.3352 70.7904 18.1804 25.6466 37.9719 23.7123C57.7633 21.7781 51.4425 63.0707 50.0609 68.6144C48.4693 68.6047 46.9199 68.101 45.6268 67.1729C44.3337 66.2449 43.3606 64.9382 42.842 63.4334C42.842 63.4334 45.8988 42.4676 44.8626 35.8013C44.8626 35.8013 37.9547 34.0743 35.1224 30.0331" fill="#CA5098"/>
<path d="M61.1986 97.8864C61.1508 97.8915 61.1029 97.8783 61.0644 97.8495C61.0259 97.8206 60.9998 97.7783 60.9914 97.731C60.007 94.5705 56.6738 92.9126 54.256 91.9455L53.2198 91.531C50.5407 90.7471 48.116 89.2696 46.1909 87.2481C43.6177 83.9668 44.084 79.4765 44.5848 77.076C44.6712 76.6788 44.7575 76.2989 44.8611 75.9016C45.315 74.4155 45.4734 72.8549 45.3274 71.3078C45.0436 70.1304 44.5217 69.0235 43.7941 68.0552C43.0664 67.087 42.1483 66.2779 41.0962 65.6778C39.4788 64.6299 37.7943 63.6895 36.0534 62.8628C34.6027 62.1374 33.1002 61.3948 31.7013 60.514C30.5276 59.8366 29.5003 58.9325 28.6791 57.8545C27.6364 56.1137 27.1039 54.115 27.1421 52.0863C27.04 49.2704 27.3483 46.4546 28.0574 43.7276C28.064 43.6978 28.0766 43.6697 28.0945 43.6449C28.1123 43.6202 28.135 43.5993 28.1612 43.5837C28.1874 43.568 28.2165 43.5578 28.2467 43.5537C28.2769 43.5497 28.3078 43.5518 28.3371 43.5601C28.3665 43.5683 28.3938 43.5824 28.4176 43.6016C28.4413 43.6208 28.4609 43.6446 28.4751 43.6716C28.4894 43.6986 28.498 43.7282 28.5004 43.7586C28.5028 43.789 28.499 43.8196 28.4891 43.8485C27.7934 46.5307 27.4908 49.2998 27.5911 52.069C27.5504 54.0049 28.053 55.9134 29.0418 57.5781C29.8321 58.6073 30.8182 59.4701 31.9432 60.1168C33.3248 60.9803 34.81 61.723 36.2434 62.4483C38.0016 63.2866 39.7034 64.2385 41.3381 65.2979C42.4455 65.9311 43.4109 66.7853 44.1744 67.8072C44.9379 68.8292 45.4832 69.9972 45.7765 71.2387C45.9263 72.8496 45.762 74.4742 45.2929 76.0225C45.2065 76.4025 45.1029 76.7824 45.0339 77.1796C44.533 79.4938 44.084 83.8286 46.5536 86.9545C48.4431 88.9303 50.8291 90.3619 53.4616 91.0993L54.5151 91.5138C57.0192 92.5154 60.4733 94.2424 61.4231 97.5928C61.4406 97.6502 61.4361 97.712 61.4106 97.7662C61.385 97.8205 61.3402 97.8633 61.2849 97.8864" fill="#13110C"/>
<path d="M43.205 67.2666C43.1494 67.2631 43.0967 67.2406 43.0558 67.2029C43.0149 67.1651 42.9883 67.1144 42.9805 67.0593C42.9835 66.2573 43.1875 65.4689 43.5736 64.766C43.9597 64.0631 44.5157 63.4681 45.191 63.0354C45.6227 62.6727 46.1064 62.3446 46.5554 62.0165C47.3876 61.4754 48.1528 60.8378 48.835 60.1168C49.5374 59.2729 50.0098 58.2618 50.2065 57.1816C50.4032 56.1014 50.3174 54.9887 49.9575 53.9514C49.7512 53.4007 49.5089 52.8642 49.2322 52.3452C48.7232 51.5003 48.372 50.5699 48.1959 49.5993C48.1163 48.7256 48.2751 47.8467 48.6552 47.056C49.0353 46.2654 49.6226 45.5925 50.3547 45.1091C50.3741 45.0871 50.3981 45.0694 50.4249 45.0573C50.4517 45.0452 50.4808 45.0389 50.5102 45.0389C50.5396 45.0389 50.5687 45.0452 50.5955 45.0573C50.6223 45.0694 50.6462 45.0871 50.6657 45.1091C50.7058 45.1509 50.7282 45.2066 50.7282 45.2645C50.7282 45.3225 50.7058 45.3782 50.6657 45.42C50.008 45.8568 49.4798 46.4624 49.1365 47.1733C48.7932 47.8843 48.6473 48.6745 48.7141 49.4612C48.8799 50.3779 49.2137 51.2561 49.6985 52.0517C49.9818 52.6137 50.2354 53.1901 50.4584 53.7787C50.8409 54.8991 50.9291 56.0991 50.7144 57.2634C50.4996 58.4277 49.9892 59.5173 49.2322 60.4276C48.536 61.1809 47.7468 61.8424 46.8835 62.3964C46.4345 62.7245 45.9682 63.0527 45.5364 63.3981C44.9231 63.7867 44.4159 64.3215 44.0603 64.9545C43.7046 65.5875 43.5116 66.2988 43.4985 67.0248C43.5034 67.0533 43.5023 67.0826 43.4952 67.1107C43.4881 67.1388 43.4751 67.1651 43.4572 67.1878C43.4393 67.2106 43.4169 67.2294 43.3912 67.243C43.3656 67.2565 43.3375 67.2646 43.3086 67.2666" fill="#13110C"/>
<path d="M48.3512 43.8488C48.5867 44.2346 48.9063 44.5623 49.286 44.8075C49.6658 45.0527 50.096 45.209 50.5445 45.2649C51.7016 45.2649 52.5478 44.1769 52.9795 43.0889C53.3944 41.9763 53.6671 40.8158 53.7913 39.6349C54.1112 37.9982 54.1112 36.3151 53.7913 34.6784C53.6129 33.8739 53.2414 33.1248 52.7089 32.496C52.1763 31.8671 51.4986 31.3774 50.7345 31.069C47.8676 30.1709 46.7105 33.504 46.3997 35.7664C45.9855 38.6242 46.7044 41.5308 48.403 43.8661" fill="#0095D4"/>
<path d="M27.7849 32.1914C27.2996 32.5079 26.9016 32.9415 26.6278 33.4521C25.7042 35.2968 25.2195 37.33 25.2116 39.393C25.0092 40.8412 25.1331 42.3164 25.5743 43.7105C25.6616 44.0388 25.8362 44.3374 26.0794 44.5745C26.3227 44.8117 26.6255 44.9786 26.9559 45.0576C27.2393 45.0503 27.518 44.9835 27.7739 44.8616C28.0298 44.7396 28.2572 44.5651 28.4412 44.3495C30.4857 42.4475 31.7582 39.8593 32.016 37.0788C32.206 34.8682 30.7899 30.4989 27.7849 32.1914Z" fill="#0095D4"/>
<path d="M49.1113 34.5225C49.1113 34.4362 47.9197 25.5594 38.7493 25.7148C29.5789 25.8702 28.111 35.835 28.0938 35.9386V36.215L29.8208 35.3515C29.8208 35.3515 31.5477 27.0964 38.732 26.9582C45.9164 26.8201 47.8161 35.4551 47.8334 35.5933L49.0077 36.2668L49.1113 34.5225Z" fill="#0095D4"/>
<path d="M21.6705 47.596C21.8074 44.944 22.2597 42.3178 23.0176 39.7727C24.1402 36.4914 26.6271 33.8491 27.3179 34.1081C28.0087 34.3672 27.197 35.2825 27.197 35.2825C27.197 35.2825 25.1418 38.4429 25.0036 38.8401C25.0036 38.8401 27.5079 34.229 28.095 34.9889C28.6822 35.7488 26.6097 38.4429 26.178 39.5136L25.7462 40.5326C25.7462 40.5326 28.095 36.7332 28.5785 36.9577C29.5975 37.424 26.0745 41.4134 26.2644 42.0005C26.2644 42.0005 27.646 39.3582 28.095 39.7727C28.5441 40.1872 27.007 41.9142 26.8171 43.5548C26.6271 45.1955 27.0761 48.4768 23.3631 49.9965C23.3631 49.9965 12.7592 62.9491 5.83395 64.5206C-1.09134 66.0922 -0.832278 59.3396 3.89971 56.5764C8.6317 53.8132 21.6878 47.596 21.6878 47.596" fill="#FFE1E1"/>
<path d="M57.7477 47.5963C57.6107 44.9443 57.1585 42.318 56.4005 39.7729C55.278 36.4916 52.7911 33.8493 52.1003 34.1084C51.4095 34.3674 52.2212 35.2827 52.2212 35.2827C52.2212 35.2827 54.2764 38.4431 54.4146 38.8404C54.4146 38.8404 51.9104 34.2293 51.3233 34.9891C50.7361 35.749 52.8085 38.4431 53.2402 39.5139L53.672 40.5328C53.672 40.5328 51.3232 36.7334 50.8396 36.9579C49.8207 37.4242 53.3438 41.4136 53.1539 42.0008C53.1539 42.0008 51.7723 39.3585 51.3233 39.7729C50.8742 40.1874 52.4112 41.9144 52.6012 43.5551C52.7912 45.1957 52.3422 48.477 56.0552 49.9968C56.0552 49.9968 66.659 62.9493 73.5842 64.5209C80.5095 66.0925 80.2505 59.3399 75.5185 56.5767C70.7865 53.8135 57.7304 47.5963 57.7304 47.5963" fill="#FFE1E1"/>
</svg>
