<svg width="85" height="80" viewBox="0 0 85 80" fill="none" xmlns="http://www.w3.org/2000/svg">
<path d="M11.1593 48.3031H25.4685C24.7494 48.0807 24.1052 47.6651 23.606 47.1018C23.1068 46.5385 22.7717 45.849 22.6373 45.1084H9.59059C9.44861 45.8488 9.10856 46.5369 8.60665 47.0995C8.10473 47.662 7.45974 48.078 6.74023 48.3031H11.1593Z" fill="#0095D4"/>
<path d="M11.1593 43.0614H25.4685C24.7458 42.8393 24.0988 42.4215 23.599 41.8542C23.0993 41.287 22.7664 40.5924 22.6373 39.8475H9.59059C9.45375 40.5922 9.11583 41.2854 8.61342 41.8518C8.11101 42.4183 7.46327 42.8366 6.74023 43.0614H11.1593Z" fill="#0095D4"/>
<path d="M22.8659 37.6094H22.9998C22.3783 37.2529 21.8542 36.7487 21.4739 36.1415C21.0935 35.5342 20.8685 34.8426 20.819 34.1278H11.3879C11.3383 34.8426 11.1135 35.5342 10.7331 36.1415C10.3527 36.7487 9.82856 37.2529 9.20703 37.6094H22.8659Z" fill="#0095D4"/>
<path d="M21.3362 31.8899C20.837 31.4761 20.4333 30.9593 20.1526 30.3749C19.872 29.7904 19.7211 29.1522 19.7102 28.5039H12.919C12.9081 29.1522 12.7572 29.7904 12.4766 30.3749C12.1959 30.9593 11.7921 31.4761 11.293 31.8899H21.2979H21.3362Z" fill="#0095D4"/>
<path d="M20.7816 50.3311H18.4668V54.7309H20.7816V50.3311Z" fill="#0095D4"/>
<path d="M23.7265 50.3311H19.4414V54.7309H23.7265V50.3311Z" fill="#0095D4"/>
<path d="M13.1295 50.3301H8.5V54.73H13.1295V50.3301Z" fill="#0095D4"/>
<path d="M13.7596 50.3311H11.4258V54.7309H13.7596V50.3311Z" fill="#0095D4"/>
<path d="M17.9292 50.3311H14.2754V54.7309H17.9292V50.3311Z" fill="#0095D4"/>
<path d="M84.5585 71.508C83.449 62.9378 55.5575 59.5518 55.5575 59.5518H34.6484C34.6484 59.5518 6.77589 62.9378 5.64722 71.508C4.97767 76.654 15.614 78.7966 26.3842 79.6766H26.7477L28.4693 79.8104C34.2083 80.0974 44.3663 79.4087 48.0584 79.1409C41.9845 78.2869 36.0404 76.6804 30.3632 74.3584C30.3362 74.33 30.3214 74.2923 30.3214 74.2532C30.3214 74.214 30.3362 74.1764 30.3632 74.148C30.3756 74.1352 30.3905 74.1251 30.4069 74.1182C30.4234 74.1113 30.4411 74.1078 30.4589 74.1078C30.4767 74.1078 30.4943 74.1113 30.5107 74.1182C30.5272 74.1251 30.5421 74.1352 30.5545 74.148C36.6418 76.6295 43.0283 78.3017 49.5506 79.1218C50.6219 79.3896 56.7243 79.6956 59.3069 79.8104H59.6322C60.0913 79.8104 61.0286 79.8104 62.0999 79.8104C73.5779 78.9878 85.3429 76.8836 84.6351 71.5272" fill="#0095D4"/>
<path d="M62.2528 70.9525C52.3223 69.0234 42.1403 68.7584 32.123 70.1681C32.0851 70.174 32.0464 70.1655 32.0145 70.1443C31.9827 70.123 31.9599 70.0906 31.9508 70.0534C31.945 70.0105 31.9555 69.967 31.9803 69.9315C32.0051 69.8961 32.0424 69.8713 32.0847 69.8621C42.134 68.4515 52.3475 68.7166 62.3101 70.6464C62.3524 70.6556 62.3897 70.6804 62.4145 70.7159C62.4393 70.7513 62.4498 70.7948 62.444 70.8377C62.4327 70.8698 62.4122 70.8978 62.3849 70.9183C62.3577 70.9387 62.3249 70.9506 62.2909 70.9525" fill="white"/>
<path d="M29.983 73.9565C30.9119 72.8914 31.4515 71.5424 31.5134 70.1305C30.9563 69.397 30.4755 68.6086 30.0786 67.7775C29.8234 67.2615 29.3745 66.8672 28.8298 66.6809C28.285 66.4945 27.6887 66.5311 27.1708 66.7827C26.7608 67.1721 26.3834 67.5944 26.0422 68.0453C25.5167 68.4424 24.9015 68.7041 24.251 68.8076C23.6005 68.911 22.9346 68.8529 22.3118 68.6383C21.079 68.1726 19.7187 68.1726 18.4858 68.6383C18.4858 68.6383 16.5728 69.9774 16.8789 70.9913C17.185 72.0052 18.7919 70.8765 19.8631 70.9913H20.2841C22.7136 71.2018 24.9326 72.9043 27.3239 73.5547C28.1424 73.7674 28.9843 73.8767 29.8299 73.88H30.002" fill="white"/>
<path d="M55.5195 69.9006C58.3981 70.2106 61.2543 70.7027 64.0707 71.3737C65.241 70.7148 66.5156 70.2618 67.8393 70.0345H68.2792C69.2931 69.8815 71.1679 70.9719 71.4166 69.9006C71.6653 68.8293 69.6375 67.5094 69.6375 67.5094C68.3144 67.0587 66.8724 67.1063 65.5819 67.6433C64.9362 67.8994 64.2375 67.9932 63.5472 67.9165C62.8568 67.8398 62.1957 67.5949 61.622 67.2033C61.242 66.7439 60.8261 66.3154 60.3785 65.9216C59.3838 65.2712 58.0639 65.9216 57.3752 67.1077C56.6865 68.2937 56.4569 69.3841 55.596 69.958" fill="white"/>
<path d="M14.9641 62.1914C13.5757 63.1966 12.111 64.092 10.5834 64.8696C9.85146 65.3324 9.23373 65.9549 8.77654 66.6904C8.31935 67.4259 8.03456 68.2553 7.94345 69.1165C7.94234 69.1502 7.95114 69.1835 7.96879 69.2122C7.98644 69.2409 8.01213 69.2639 8.0427 69.2782C8.07326 69.2924 8.10741 69.2974 8.14078 69.2925C8.17414 69.2875 8.20533 69.2729 8.23045 69.2504C8.41949 69.0317 8.58602 68.7946 8.72773 68.5426C8.43939 69.1361 8.33296 69.8017 8.4217 70.4556C8.4244 70.509 8.44196 70.5605 8.47238 70.6045C8.5028 70.6484 8.54492 70.683 8.59392 70.7043C8.74696 70.7043 8.91906 70.7043 8.99558 70.4747C9.19612 70.1289 9.32008 69.744 9.35905 69.3461L9.22513 70.4938C9.19677 70.7033 9.19677 70.9157 9.22513 71.1251C9.25187 71.2108 9.30524 71.2856 9.3775 71.3388C9.44977 71.3919 9.5372 71.4205 9.6269 71.4205C9.71661 71.4205 9.80392 71.3919 9.87619 71.3388C9.94845 71.2856 10.0019 71.2108 10.0287 71.1251C10.1989 70.6738 10.3207 70.2057 10.392 69.7286C10.5917 68.8678 10.9345 68.0466 11.406 67.2991C11.5848 66.9335 11.8548 66.62 12.1898 66.3888C12.5248 66.1576 12.9137 66.0166 13.319 65.9792H13.5485C13.6153 66.0242 13.663 66.0923 13.6825 66.1705C13.8738 66.7826 13.319 67.4713 13.6825 68.0835C13.7221 68.1389 13.7735 68.1848 13.8331 68.2179C13.8926 68.251 13.9588 68.2704 14.0268 68.2747C14.199 68.2747 14.2755 68.1217 14.3329 67.9878C14.5021 67.525 14.6426 67.0522 14.7537 66.5722C15.2514 64.9784 16.2181 63.5717 17.5276 62.5357" fill="#9BCEA4"/>
<path d="M75.6455 62.1914C77.034 63.1966 78.4986 64.092 80.0262 64.8696C80.7582 65.3324 81.3759 65.9549 81.8331 66.6904C82.2903 67.4259 82.5751 68.2553 82.6662 69.1165C82.6673 69.1502 82.6585 69.1835 82.6408 69.2122C82.6232 69.2409 82.5975 69.2639 82.5669 69.2782C82.5364 69.2924 82.5022 69.2974 82.4689 69.2925C82.4355 69.2875 82.4043 69.2729 82.3792 69.2504C82.1901 69.0317 82.0236 68.7946 81.8819 68.5426C82.1702 69.1361 82.2767 69.8017 82.1879 70.4556C82.1852 70.509 82.1677 70.5605 82.1373 70.6045C82.1068 70.6484 82.0647 70.683 82.0157 70.7043C81.8435 70.7043 81.6906 70.7043 81.6141 70.4747C81.4135 70.1289 81.2896 69.744 81.2506 69.3461L81.3845 70.4938C81.4129 70.7033 81.4129 70.9157 81.3845 71.1251C81.3578 71.2108 81.3043 71.2856 81.232 71.3388C81.1597 71.3919 81.0724 71.4205 80.9827 71.4205C80.893 71.4205 80.8057 71.3919 80.7334 71.3388C80.6612 71.2856 80.6077 71.2108 80.581 71.1251C80.4107 70.6738 80.2888 70.2057 80.2175 69.7286C80.0093 68.8705 79.6672 68.0506 79.2037 67.2991C79.0248 66.9335 78.7549 66.62 78.4198 66.3888C78.0848 66.1576 77.696 66.0166 77.2907 65.9792H77.0611C76.9943 66.0242 76.9466 66.0923 76.9272 66.1705C76.7359 66.7826 77.2907 67.4713 76.9272 68.0835C76.8876 68.1389 76.8361 68.1848 76.7766 68.2179C76.717 68.251 76.6508 68.2704 76.5829 68.2747C76.5084 68.2644 76.4391 68.2313 76.3842 68.1799C76.3294 68.1285 76.2918 68.0614 76.2767 67.9878C76.1076 67.525 75.9671 67.0522 75.8559 66.5722C75.3582 64.9784 74.3915 63.5717 73.082 62.5357" fill="#9BCEA4"/>
<path d="M64.9699 45.013C62.1004 36.3471 60.1108 25.5004 47.2555 25.0986H43.4295C30.4211 25.4047 28.4124 36.3088 25.5238 45.013C22.6352 53.7171 12.1328 62.6699 12.1328 62.6699L17.5083 64.0281C32.5637 61.8091 36.887 50.9815 37.1166 50.3694L33.0419 61.2543C33.0419 61.2543 35.6436 65.3864 45.706 65.0803C55.7683 64.7743 57.471 61.2543 57.471 61.2543L53.3963 50.3694C53.6449 50.9815 57.9492 61.8473 73.0045 64.0281L78.38 62.6699C78.38 62.6699 67.9733 53.9658 64.989 45.013" fill="#CA5098"/>
<path d="M51.1008 24.945C51.1008 26.0737 48.4034 26.9537 45.0939 26.9537C41.7844 26.9537 39.1445 26.0354 39.1445 24.945C39.1445 23.8546 41.8419 22.9364 45.1514 22.9364C48.4609 22.9364 51.1582 23.8355 51.1582 24.945" fill="white"/>
<path d="M49.9716 13.4866C49.7547 12.2673 49.0678 11.1819 48.0586 10.464C47.2959 10.0616 46.4224 9.92052 45.5718 10.0623H45.2274V13.5822H40.4258L43.6206 21.349C43.527 21.9541 43.2836 22.5263 42.9127 23.0134C43.3271 23.3513 43.8121 23.592 44.3319 23.7178C44.8516 23.8436 45.393 23.8513 45.9161 23.7403C46.4266 23.6216 46.8998 23.3784 47.2935 23.0325C48.6349 21.8955 49.5518 20.338 49.8952 18.6134C50.3732 16.9314 50.3732 15.1495 49.8952 13.4675" fill="#E3E3E3"/>
<path d="M40.1589 17.3129C40.1779 15.5573 40.3249 13.8055 40.5988 12.0713C40.8093 9.68005 43.6979 10.1583 45.2283 10.1583V3.27148C30.5173 4.01755 29.3887 23.0137 29.3887 23.0137L39.4128 25.6536C40.8025 25.1741 42.0201 24.2959 42.9135 23.1284C42.6713 22.9459 42.4413 22.7478 42.2248 22.5354C40.9694 21.1059 40.2405 19.2902 40.1589 17.3894" fill="#142B2A"/>
<path d="M41.2484 13.6013H45.2274V10.0814C43.697 10.0814 40.8084 9.67963 40.598 11.9944C40.598 12.4726 40.4832 13.0082 40.4258 13.5247L41.2484 13.6013Z" fill="#142B2A"/>
<path d="M50.048 17.3129C50.0195 15.5578 49.8724 13.8066 49.6079 12.0713C49.3975 9.68005 46.4898 10.1583 44.9785 10.1583V3.27148C59.6895 4.01755 60.8182 23.0137 60.8182 23.0137L50.7941 25.6536C49.4044 25.1741 48.1867 24.2959 47.2933 23.1284C47.5334 22.9507 47.7574 22.7523 47.9628 22.5354C49.2238 21.1077 49.9595 19.2922 50.048 17.3894" fill="#142B2A"/>
<path d="M48.9576 13.6013H44.9785V10.0814C46.4898 10.0814 49.3975 9.67963 49.6079 11.9944C49.6079 12.4726 49.7228 13.0082 49.7802 13.5247L48.9576 13.6013Z" fill="#142B2A"/>
<path d="M40.1571 17.3128C40.2388 19.2135 40.9677 21.0293 42.2231 22.4588C42.4395 22.6712 42.6695 22.8693 42.9117 23.0518C43.2801 22.556 43.5231 21.9784 43.6197 21.3683L40.4249 13.6016C40.2194 14.8275 40.1298 16.0701 40.1571 17.3128Z" fill="#E3E3E3"/>
<path d="M46.4509 16.9101C46.4115 16.9108 46.3727 16.9004 46.3388 16.8801C46.305 16.8598 46.2775 16.8304 46.2596 16.7953C46.2219 16.7532 46.2012 16.6987 46.2012 16.6422C46.2012 16.5858 46.2219 16.5313 46.2596 16.4892C46.6401 16.3004 47.0591 16.2021 47.4839 16.2021C47.9087 16.2021 48.3277 16.3004 48.7082 16.4892C48.7597 16.5142 48.7999 16.5574 48.8212 16.6105C48.8424 16.6635 48.843 16.7226 48.823 16.7761C48.8126 16.8033 48.7968 16.8279 48.7764 16.8486C48.7561 16.8693 48.7316 16.8855 48.7046 16.8963C48.6777 16.9071 48.6489 16.9122 48.6199 16.9112C48.5908 16.9103 48.5622 16.9034 48.536 16.8909C48.2139 16.7351 47.8608 16.6542 47.503 16.6542C47.1453 16.6542 46.7922 16.7351 46.4701 16.8909" fill="#1D1D1B"/>
<path d="M43.6215 16.9111H43.5257C43.2036 16.7553 42.8505 16.6743 42.4927 16.6743C42.1349 16.6743 41.7818 16.7553 41.4598 16.9111C41.4335 16.9236 41.405 16.9305 41.376 16.9314C41.347 16.9324 41.3181 16.9273 41.2911 16.9165C41.2642 16.9057 41.2397 16.8895 41.2193 16.8688C41.199 16.8481 41.1831 16.8235 41.1728 16.7964C41.1527 16.7428 41.1534 16.6837 41.1746 16.6307C41.1958 16.5776 41.2361 16.5343 41.2875 16.5094C41.6647 16.3208 42.0806 16.2227 42.5023 16.2227C42.924 16.2227 43.3399 16.3208 43.7171 16.5094C43.7698 16.5378 43.8093 16.5857 43.8272 16.6429C43.8451 16.7001 43.8399 16.762 43.8127 16.8154C43.7948 16.8506 43.7674 16.88 43.7335 16.9003C43.6997 16.9206 43.6609 16.9309 43.6215 16.9302" fill="#1D1D1B"/>
<path d="M45.5725 19.2832C45.2643 19.2842 44.9611 19.2051 44.6926 19.0536C44.5584 18.9721 44.4517 18.8521 44.3865 18.7093C44.3581 18.5963 44.3581 18.4779 44.3865 18.3649C44.4418 17.958 44.5249 17.5553 44.6352 17.1597C44.6418 17.1315 44.6541 17.105 44.6714 17.0818C44.6887 17.0586 44.7106 17.0392 44.7357 17.0248C44.7609 17.0104 44.7887 17.0014 44.8175 16.9983C44.8462 16.9952 44.8754 16.998 44.903 17.0067C44.9579 17.0282 45.0025 17.07 45.0274 17.1234C45.0523 17.1768 45.0558 17.2378 45.037 17.2936C44.9375 17.6638 44.867 18.0412 44.8264 18.4223C44.8186 18.4666 44.8186 18.5119 44.8264 18.5562C44.8629 18.6031 44.9084 18.6422 44.9604 18.671C45.1646 18.786 45.3956 18.8454 45.63 18.8432C45.6858 18.8432 45.7393 18.8653 45.7787 18.9048C45.8182 18.9443 45.8404 18.9978 45.8404 19.0536C45.8467 19.0834 45.8458 19.1143 45.8378 19.1436C45.8298 19.173 45.8149 19.2001 45.7943 19.2226C45.7737 19.245 45.748 19.2622 45.7194 19.2728C45.6908 19.2833 45.6602 19.2869 45.63 19.2832" fill="#1D1D1B"/>
<path d="M45.2472 21.5979C44.7174 21.5989 44.192 21.5016 43.6977 21.311C43.6706 21.3006 43.6459 21.2847 43.6252 21.2643C43.6045 21.244 43.5883 21.2195 43.5776 21.1926C43.5668 21.1656 43.5617 21.1368 43.5626 21.1078C43.5635 21.0788 43.5704 21.0503 43.5829 21.0241C43.5916 20.9976 43.6054 20.9731 43.6236 20.952C43.6417 20.9309 43.6639 20.9136 43.6888 20.9012C43.7137 20.8887 43.7409 20.8813 43.7687 20.8794C43.7965 20.8775 43.8244 20.8812 43.8508 20.8901C44.6456 21.1961 45.5181 21.2364 46.3376 21.0049C46.3935 20.9897 46.453 20.9973 46.5032 21.026C46.5534 21.0547 46.5903 21.1022 46.6055 21.158C46.6207 21.2138 46.6131 21.2733 46.5844 21.3235C46.5557 21.3738 46.5082 21.4105 46.4524 21.4258C46.061 21.5405 45.6551 21.5985 45.2472 21.5979Z" fill="#1D1D1B"/>
<path d="M45.3617 58.7487C45.3242 58.749 45.288 58.7355 45.2598 58.7108C45.2316 58.6861 45.2133 58.652 45.2086 58.6148C45.0747 55.1522 45.0939 49.6619 45.2086 44.3629C45.3234 39.0639 45.2086 33.5545 45.2086 30.1111C45.2083 30.0736 45.2219 30.0373 45.2466 30.0091C45.2713 29.9809 45.3054 29.9627 45.3426 29.958C45.3831 29.958 45.4221 29.9741 45.4508 30.0028C45.4795 30.0315 45.4956 30.0705 45.4956 30.1111C45.6295 33.5545 45.6104 39.0448 45.4956 44.3629C45.3808 49.681 45.4956 55.1522 45.5913 58.5956C45.5945 58.6165 45.5929 58.6378 45.5864 58.6579C45.5798 58.6779 45.5686 58.6962 45.5537 58.7111C45.5387 58.726 45.5205 58.7372 45.5004 58.7437C45.4804 58.7503 45.459 58.752 45.4382 58.7487H45.3617Z" fill="white"/>
<path d="M9.37768 19.4551L8.74636 19.8186V15.3613H2.14648V17.9247H5.24565V21.4064L4.32733 21.8272L6.04908 23.9889L6.81421 23.702C8.20823 23.1578 9.56326 22.5187 10.8698 21.789L11.5777 21.4064L10.4107 18.8429L9.37768 19.4551Z" fill="#142B2A"/>
<path d="M6.62195 11.1909L6.1437 10.9805L3.3125 12.6065L4.86203 13.2952C5.89469 13.7372 6.8868 14.2686 7.82715 14.883L8.36273 15.2464L11.0027 13.6587L9.85493 12.9126C8.82452 12.2541 7.74347 11.6783 6.62195 11.1909Z" fill="#142B2A"/>
<path d="M26.3833 21.9417C25.2907 20.8453 24.1207 19.8288 22.8825 18.9L22.4425 18.5748L19.4008 19.6269L19.5921 19.3782L16.4548 18.5557L16.0722 19.0531C15.2005 20.1311 14.1605 21.0614 12.9923 21.8078L11.5957 22.6686L14.8478 23.9695L15.2879 23.6634C16.6219 22.7453 17.8142 21.6367 18.8269 20.373L19.3816 19.6461L20.5677 20.5643C21.7099 21.4451 22.7784 22.4176 23.7625 23.4721L24.2216 23.9695L27.225 22.8408L26.3833 21.9417Z" fill="#142B2A"/>
<path d="M24.6062 11.1904H14.4863V18.3833H24.6062V11.1904ZM21.3922 15.7817H17.7002V13.7538H21.3922V15.7817Z" fill="#142B2A"/>
<path d="M0.0996094 10.2728L2.96911 12.1858H3.12207C4.59104 11.558 5.98901 10.7756 7.29239 9.85194C8.37324 10.7683 9.54652 11.5697 10.7932 12.2432L10.9846 12.358L13.414 10.445L12.4384 9.79455C12.0175 9.52673 11.6349 9.23974 11.2523 8.97192C10.8697 8.7041 10.0089 8.11112 9.33932 7.70939H12.7827V4.9929H9.39676C9.39676 4.72508 9.39676 4.41898 9.39676 4.13203H12.5341V1.60691H7.10114C7.09285 1.5691 7.09285 1.52995 7.10114 1.49214L7.69417 0.401714L4.05942 0L3.75339 0.593026C3.084 1.66578 2.266 2.63827 1.32384 3.48162L0.61604 4.11294L3.29429 4.9929H1.26651V7.53717H5.09251C4.13339 8.53624 2.93494 9.27379 1.61084 9.67978L0.0996094 10.2728ZM4.38471 4.97375C4.71333 4.70491 5.02628 4.41753 5.32206 4.11294H5.81946C5.81946 4.39989 5.81946 4.72506 5.81946 4.97375H4.38471Z" fill="#142B2A"/>
<path d="M18.3686 9.79495H20.8555V10.5219H24.6815V1.32031H14.5234V10.541H18.3494L18.3686 9.79495ZM18.3686 3.8264H20.8555V7.28892H18.3686V3.8264Z" fill="#142B2A"/>
</svg>
