<svg width="90" height="88" viewBox="0 0 90 88" fill="none" xmlns="http://www.w3.org/2000/svg">
<path d="M62.7512 62.4607L61.8926 60.6484C58.2553 52.0514 57.576 42.4898 59.9612 33.4648C70.9777 39.8315 85.2372 52.9941 89.0524 79.3908C89.0524 79.3908 91.5561 93.6979 62.2026 79.3908L61.6304 72.8095L72.2654 71.3788C72.2654 71.3788 64.4442 64.4875 62.7273 62.4607" fill="#CA5098"/>
<path d="M26.9609 62.0544L27.8432 60.2184C31.484 51.6305 32.1635 42.0752 29.7746 33.0586C18.7343 39.4253 4.49863 52.5879 0.683386 78.9846C0.683386 78.9846 -1.84419 93.2917 27.5332 78.9846L28.0816 72.4033L17.4704 70.9726C17.4704 70.9726 25.2916 64.0574 27.0085 62.0544" fill="#CA5098"/>
<path d="M61.1084 37.3029C59.3677 36.1822 53.9547 32.9154 53.1201 32.367C52.0412 33.6071 50.7123 34.6051 49.2205 35.2955C47.7288 35.9859 46.1079 36.3531 44.4643 36.373C41.2943 36.1051 38.3369 34.6688 36.1662 32.3431C33.4511 33.495 30.8753 34.9509 28.4881 36.6829C28.4501 36.7209 28.3985 36.7422 28.3449 36.7422C28.2912 36.7422 28.2398 36.7209 28.2018 36.6829C28.1639 36.645 28.1426 36.5935 28.1426 36.5399C28.1426 36.4862 28.1639 36.4347 28.2018 36.3968C30.6825 34.6123 33.3537 33.1088 36.1662 31.9139C36.1978 31.8924 36.2352 31.8809 36.2735 31.8809C36.3117 31.8809 36.3492 31.8924 36.3809 31.9139C38.4445 34.2312 41.3048 35.6869 44.3928 35.9914C46.0097 35.963 47.6018 35.5886 49.0619 34.8935C50.522 34.1984 51.8163 33.1987 52.8579 31.9616C52.8941 31.9407 52.9352 31.9296 52.9771 31.9296C53.0189 31.9296 53.06 31.9407 53.0963 31.9616C53.0963 31.9616 59.3199 35.7768 61.2037 36.9929C61.2373 37.0284 61.256 37.0753 61.256 37.1241C61.256 37.1729 61.2373 37.2198 61.2037 37.2552C61.1777 37.2679 61.1492 37.2745 61.1203 37.2745C61.0914 37.2745 61.0628 37.2679 61.0368 37.2552" fill="#1D1D1B"/>
<path d="M35.2578 13.4346C35.2578 13.4346 36.307 30.1263 44.7959 30.4124C53.2848 30.6986 54.9779 10.4062 54.9779 10.4062L35.2578 13.4346Z" fill="#DEDEDE"/>
<path d="M48.516 0.415025L45.9884 0.0811834C42.6974 -0.279432 39.3876 0.569268 36.6761 2.46901C33.9647 4.36875 32.0368 7.18985 31.252 10.4062H26.793C26.793 10.4062 29.5829 18.9666 37.8333 16.6536C46.0838 14.3406 48.969 11.3361 48.969 11.3361L49.1121 11.8607C49.8624 14.8903 51.2168 17.7371 53.0942 20.2304C53.8156 19.2012 54.4688 18.1259 55.0495 17.0113C56.6233 13.7684 57.8395 2.53725 48.516 0.319641" fill="#142B2A"/>
<path d="M13.0352 87.3547C13.0352 87.3547 21.5241 80.2012 31.4438 80.2012C38.0172 80.5775 44.2882 83.0892 49.3038 87.3547H13.0352Z" fill="#0095D4"/>
<path d="M40.6218 75.1222L35.4474 65.918L32.5859 68.1356L38.4995 74.7169L40.6218 75.1222Z" fill="#0095D4"/>
<path d="M28.6527 76.8861C27.6705 76.9243 26.7017 76.6487 25.8867 76.0992L26.1251 75.7653C27.0527 76.357 28.1562 76.6097 29.2488 76.4807C30.5873 76.302 31.8999 75.9659 33.1595 75.4792L33.6603 75.3361C35.1095 74.7612 36.6556 74.4698 38.2147 74.4777C39.0234 74.4776 39.8199 74.6753 40.5347 75.0535C41.2496 75.4317 41.8612 75.979 42.3161 76.6476L41.9823 76.8622C41.5505 76.2555 40.9828 75.7584 40.3244 75.4106C39.666 75.0627 38.9353 74.8739 38.1908 74.8592C36.6719 74.8675 35.1679 75.1586 33.7556 75.7177L33.2787 75.8607C31.9872 76.3504 30.6427 76.6865 29.2727 76.8622H28.6527" fill="#1D1D1B"/>
<path d="M43.9391 82.371L43.5814 82.2041C43.667 81.9406 43.667 81.6568 43.5814 81.3933C43.4231 81.0078 43.1899 80.6574 42.8951 80.3627C42.6004 80.068 42.2502 79.8347 41.8646 79.6765L41.1254 79.3427C40.5514 79.1148 40.007 78.8186 39.5039 78.4604L39.7423 78.1504C40.2181 78.4985 40.7398 78.7793 41.2923 78.985L42.0315 79.3188C42.4686 79.4931 42.8642 79.7572 43.1928 80.094C43.5214 80.4308 43.7757 80.8328 43.9391 81.2741C44.0706 81.6279 44.0706 82.0172 43.9391 82.371Z" fill="#1D1D1B"/>
<path d="M42.6978 82.8001L42.3402 82.6332C42.369 82.5354 42.373 82.432 42.3522 82.3322C42.3314 82.2323 42.2863 82.1392 42.2209 82.0609C42.0496 81.8769 41.848 81.7236 41.6248 81.6079L39.2402 80.2249L39.4549 79.8672L41.8394 81.2502C42.1065 81.3918 42.3418 81.5866 42.5309 81.8225C42.6452 81.9547 42.723 82.1144 42.7565 82.2859C42.7899 82.4574 42.778 82.6347 42.7217 82.8001" fill="#1D1D1B"/>
<path d="M33.3504 83.8261C32.7535 83.8007 32.1757 83.6085 31.6825 83.2713C31.1894 82.9341 30.8008 82.4655 30.5605 81.9185L30.8943 81.7754C31.1547 82.3623 31.6112 82.8402 32.1855 83.1274C32.7598 83.4145 33.4161 83.4929 34.0419 83.3492C34.6857 83.2061 35.401 82.9677 36.0925 82.7531C38.0955 82.1092 40.1702 81.4416 41.1478 82.5861L40.8616 82.8484C40.0508 81.8946 38.0955 82.5146 36.0925 83.1346C35.3772 83.373 34.6619 83.5876 33.9943 83.7546H33.2312" fill="#1D1D1B"/>
<path d="M24.5521 83.6342L24.4805 83.2527L30.9426 81.7266L31.0379 82.1081L24.5521 83.6342Z" fill="#1D1D1B"/>
<path d="M45.2738 80.9163H44.8922C44.9254 80.7085 44.9173 80.4962 44.8682 80.2916C44.8191 80.087 44.7299 79.8941 44.6061 79.724C44.3435 79.3666 44.0109 79.0664 43.6285 78.8417C43.0832 78.5334 42.5175 78.2625 41.9354 78.031C40.968 77.7024 40.0762 77.1835 39.3125 76.5049L39.5748 76.2188C40.3149 76.8631 41.1734 77.3571 42.1024 77.6733C42.6949 77.9078 43.2689 78.1868 43.8193 78.5079C44.253 78.7576 44.6337 79.0897 44.9399 79.4855C45.2397 79.925 45.3592 80.4628 45.2738 80.9878" fill="#1D1D1B"/>
<path d="M45.9883 87.3546H78.8232C74.4448 83.2683 68.7997 80.8034 62.8264 80.3696C56.853 79.9358 50.9112 81.5592 45.9883 84.9701V87.3546Z" fill="#0095D4"/>
<path d="M81.4455 87.1396H10.5059V87.545H81.4455V87.1396Z" fill="#1D1D1B"/>
<path d="M49.3275 81.5843C49.2748 81.5784 49.2261 81.5532 49.1909 81.5136C49.1556 81.474 49.1364 81.4227 49.1367 81.3697C49.1881 80.4814 49.4271 79.6141 49.8381 78.8249C50.2491 78.0357 50.8228 77.3427 51.5212 76.7914C53.1274 75.6166 55.042 74.9369 57.0295 74.8361H57.7448C58.8214 74.8357 59.8858 74.6082 60.8685 74.1684C60.904 74.1349 60.9509 74.1162 60.9997 74.1162C61.0485 74.1162 61.0954 74.1349 61.1308 74.1684C61.1644 74.2039 61.1831 74.2508 61.1831 74.2996C61.1831 74.3484 61.1644 74.3953 61.1308 74.4307C60.0948 74.8929 58.9747 75.1364 57.8403 75.1461H57.1248C55.2175 75.241 53.3788 75.8871 51.8312 77.006C51.1681 77.5173 50.6226 78.1652 50.2318 78.9057C49.8409 79.6463 49.6139 80.4622 49.5659 81.2982C49.5659 81.2982 49.5659 81.4889 49.3751 81.4889" fill="#1D1D1B"/>
<path d="M48.684 85.5424C48.6587 85.557 48.6299 85.5647 48.6006 85.5647C48.5713 85.5647 48.5425 85.557 48.5171 85.5424C48.4836 85.5069 48.4648 85.46 48.4648 85.4112C48.4648 85.3624 48.4836 85.3155 48.5171 85.2801C54.1617 82.4457 60.5996 81.6052 66.7826 82.8955C66.8081 82.9011 66.8321 82.9118 66.8532 82.9269C66.8744 82.9421 66.8924 82.9615 66.9058 82.9838C66.9192 83.0062 66.9278 83.031 66.9312 83.0568C66.9347 83.0827 66.9328 83.1089 66.9257 83.134C66.9232 83.1585 66.9153 83.1822 66.9026 83.2034C66.8899 83.2245 66.8727 83.2426 66.8522 83.2562C66.8317 83.2699 66.8083 83.2789 66.7839 83.2825C66.7596 83.2861 66.7346 83.2842 66.711 83.2771C60.6128 82.0193 54.2685 82.8597 48.7079 85.6616" fill="white"/>
<path d="M45.5156 46.1504H56.4607C56.4607 46.1504 56.6037 54.7585 50.3324 54.7824C45.3726 54.7824 45.5634 46.1504 45.5634 46.1504" fill="#0095D4"/>
<path d="M51.3792 48.2958C48.9051 48.2927 46.4347 48.1094 43.9872 47.7473C43.9345 47.7358 43.8881 47.7049 43.8571 47.6607C43.8262 47.6165 43.8131 47.5623 43.8203 47.5089C43.8203 47.5089 43.8202 47.3181 44.0348 47.342C48.5941 48.045 53.2343 48.045 57.7936 47.342C57.8191 47.3343 57.846 47.3329 57.8722 47.3378C57.8983 47.3427 57.9229 47.3538 57.9439 47.3701C57.9649 47.3865 57.9816 47.4076 57.9928 47.4317C58.004 47.4558 58.0092 47.4823 58.0081 47.5089C58.0152 47.5339 58.0172 47.5602 58.0138 47.586C58.0104 47.6119 58.0016 47.6367 57.9882 47.6591C57.9748 47.6814 57.957 47.7007 57.9358 47.7159C57.9146 47.7311 57.8905 47.7418 57.865 47.7473C55.7241 48.1261 53.5533 48.3097 51.3792 48.2958Z" fill="#1D1D1B"/>
<path d="M40.7434 19.7054C40.162 19.7126 39.5856 19.5989 39.0505 19.3716C39.0158 19.3561 38.9846 19.334 38.9586 19.3064C38.9327 19.2787 38.9124 19.2462 38.8991 19.2107C38.8858 19.1752 38.8796 19.1375 38.8811 19.0996C38.8825 19.0617 38.8915 19.0245 38.9074 18.9901C38.9203 18.9563 38.9401 18.9255 38.9655 18.8997C38.9909 18.874 39.0212 18.8537 39.0548 18.8403C39.0884 18.8269 39.1245 18.8205 39.1606 18.8217C39.1968 18.8228 39.2323 18.8314 39.265 18.847C40.3284 19.1804 41.4684 19.1804 42.5318 18.847C42.5694 18.8402 42.6081 18.841 42.6454 18.8493C42.6828 18.8577 42.718 18.8735 42.7491 18.8957C42.7802 18.9179 42.8066 18.9462 42.8266 18.9788C42.8467 19.0114 42.8599 19.0476 42.8656 19.0854C42.8725 19.1217 42.8715 19.159 42.8629 19.1949C42.8543 19.2308 42.8382 19.2645 42.8157 19.2938C42.7932 19.323 42.7648 19.3472 42.7323 19.3647C42.6998 19.3822 42.6641 19.3927 42.6273 19.3954C42.0092 19.5393 41.3778 19.6192 40.7434 19.6339" fill="#142B2A"/>
<path d="M47.7288 19.6825C47.2028 19.7 46.6802 19.5939 46.2028 19.3725C46.1682 19.3571 46.137 19.3349 46.111 19.3073C46.085 19.2797 46.0648 19.2472 46.0514 19.2117C46.0381 19.1762 46.032 19.1384 46.0334 19.1005C46.0348 19.0626 46.0438 19.0254 46.0597 18.991C46.0727 18.9572 46.0924 18.9265 46.1178 18.9007C46.1432 18.8749 46.1736 18.8547 46.2072 18.8412C46.2408 18.8278 46.2768 18.8215 46.313 18.8226C46.3491 18.8238 46.3847 18.8324 46.4173 18.8479C47.4 19.1769 48.4631 19.1769 49.4457 18.8479C49.4965 18.8073 49.5596 18.7852 49.6246 18.7852C49.6896 18.7852 49.7526 18.8073 49.8033 18.8479C49.83 18.8745 49.8512 18.9061 49.8656 18.9409C49.8801 18.9757 49.8876 19.013 49.8876 19.0506C49.8876 19.0883 49.8801 19.1256 49.8656 19.1603C49.8512 19.1951 49.83 19.2267 49.8033 19.2533H49.6365C49.025 19.3888 48.4024 19.4686 47.7765 19.4918" fill="#142B2A"/>
<path d="M45.2517 24.952H44.7033C44.345 24.9137 44.0135 24.7438 43.7733 24.4751C43.5511 24.1201 43.4663 23.696 43.5349 23.2828C43.5799 22.631 43.6835 21.9845 43.8448 21.3514C43.9123 21.029 43.9123 20.6961 43.8448 20.3737C43.8336 20.3409 43.8292 20.3061 43.8315 20.2715C43.8339 20.2368 43.8431 20.203 43.8586 20.1719C43.8741 20.1409 43.8956 20.1132 43.9219 20.0905C43.9482 20.0679 43.9787 20.0507 44.0117 20.0399C44.0477 20.0289 44.0856 20.025 44.123 20.0287C44.1605 20.0323 44.1969 20.0433 44.2302 20.061C44.2634 20.0787 44.2929 20.1028 44.3168 20.132C44.3407 20.1611 44.3585 20.1946 44.3694 20.2306C44.4831 20.6442 44.4831 21.0808 44.3694 21.4944C44.2259 22.098 44.1302 22.7119 44.0833 23.3305C43.9903 23.5846 43.9903 23.8634 44.0833 24.1174C44.1564 24.1971 44.2447 24.2613 44.343 24.3064C44.4412 24.3514 44.5475 24.3764 44.6556 24.3797C44.9637 24.4276 45.2774 24.4276 45.5856 24.3797C45.6232 24.3729 45.6618 24.3737 45.6991 24.3821C45.7364 24.3904 45.7717 24.4062 45.8029 24.4284C45.834 24.4507 45.8603 24.4789 45.8803 24.5115C45.9003 24.5441 45.9137 24.5804 45.9194 24.6182C45.9225 24.6924 45.9006 24.7656 45.8574 24.826C45.8143 24.8865 45.7521 24.9308 45.6809 24.952H45.1325" fill="#142B2A"/>
<path d="M39.8381 17.1781C39.7834 17.1752 39.7311 17.1552 39.6883 17.121C39.6455 17.0868 39.6145 17.04 39.5997 16.9873C39.5841 16.9547 39.5755 16.9191 39.5744 16.883C39.5732 16.8468 39.5795 16.8108 39.593 16.7772C39.6064 16.7436 39.6266 16.7132 39.6524 16.6878C39.6781 16.6624 39.709 16.6426 39.7427 16.6297C40.4257 16.3205 41.1632 16.1503 41.9126 16.1289C41.9491 16.1288 41.9854 16.1362 42.0188 16.1509C42.0523 16.1655 42.0823 16.187 42.107 16.214C42.1317 16.2409 42.1507 16.2727 42.1623 16.3073C42.174 16.342 42.1783 16.3787 42.175 16.4151C42.1829 16.4522 42.1817 16.4907 42.1717 16.5273C42.1617 16.5639 42.1432 16.5977 42.1175 16.6256C42.0919 16.6536 42.0598 16.6751 42.0242 16.6882C41.9886 16.7014 41.9503 16.7058 41.9126 16.7012C41.2401 16.7242 40.5777 16.8696 39.9574 17.1304H39.8381" fill="#142B2A"/>
<path d="M48.8989 17.2015H48.7796C48.2264 16.9115 47.6154 16.7485 46.9912 16.7246C46.9153 16.7246 46.8426 16.6945 46.7889 16.6408C46.7352 16.5872 46.7051 16.5144 46.7051 16.4385C46.7051 16.3626 46.7352 16.2898 46.7889 16.2362C46.8426 16.1825 46.9153 16.1523 46.9912 16.1523C47.7003 16.1748 48.3945 16.3626 49.0181 16.7008C49.0839 16.7362 49.1331 16.796 49.1554 16.8673C49.1777 16.9386 49.1712 17.0157 49.1373 17.0823C49.1162 17.1289 49.0828 17.169 49.0408 17.1983C48.9989 17.2277 48.95 17.2453 48.8989 17.2492" fill="#142B2A"/>
<path d="M45.5363 27.408H44.5348C44.4972 27.405 44.4606 27.3946 44.427 27.3773C44.3934 27.3601 44.3635 27.3364 44.3391 27.3076C44.3147 27.2788 44.2964 27.2454 44.2849 27.2094C44.2735 27.1735 44.2693 27.1356 44.2726 27.098C44.2786 27.0263 44.3112 26.9595 44.3642 26.9109C44.4173 26.8623 44.4868 26.8354 44.5587 26.8357H45.5601C45.5978 26.8387 45.6344 26.8491 45.668 26.8663C45.7016 26.8836 45.7314 26.9073 45.7558 26.9361C45.7801 26.9649 45.7986 26.9983 45.81 27.0342C45.8215 27.0702 45.8257 27.1081 45.8224 27.1457C45.8224 27.2153 45.7948 27.282 45.7456 27.3312C45.6964 27.3803 45.6297 27.408 45.5601 27.408" fill="#142B2A"/>
</svg>
