<svg width="69" height="101" viewBox="0 0 69 101" fill="none" xmlns="http://www.w3.org/2000/svg">
<path d="M0.0030077 9.90899C0.363653 12.2522 1.00749 14.543 1.92045 16.7311C3.39088 21.1964 3.83671 25.9357 3.22486 30.5969C2.88535 32.3144 2.74093 34.0647 2.79439 35.8146C2.84897 36.7284 3.12285 37.6156 3.59285 38.4012C4.06284 39.1868 4.71513 39.8477 5.49453 40.3279C7.50332 41.4627 10.1122 41.0714 12.4732 40.7974C20.104 39.9104 27.8391 40.6148 35.5352 40.8888C43.2312 41.1627 51.1881 40.8888 58.271 38.3712C60.6239 37.6215 62.7775 36.3508 64.5714 34.6537C66.4645 32.4364 67.6742 29.7179 68.0541 26.8272C68.7655 23.5093 68.8935 20.0929 68.4324 16.7311C67.7181 12.4063 65.8015 8.36972 62.9017 5.08267C61.4242 3.26391 59.5197 1.8389 57.3579 0.934642C54.7953 0.156776 52.1107 -0.139551 49.4401 0.0606786L29.6653 0.269389C23.1231 0.189092 16.5837 0.58581 10.0991 1.4564C4.56843 2.3434 -0.427502 3.76521 0.0290418 9.79158" fill="#0095D4"/>
<path d="M45.5139 14.9441C45.4834 14.9448 45.4537 14.9347 45.4299 14.9156C45.406 14.8965 45.3896 14.8697 45.3835 14.8398L43.7269 10.2613C43.7141 10.2232 43.7164 10.1816 43.7334 10.1452C43.7504 10.1088 43.7808 10.0803 43.8182 10.0657C43.8369 10.0574 43.8572 10.0532 43.8776 10.0535C43.8981 10.0537 43.9183 10.0583 43.9368 10.0669C43.9553 10.0756 43.9718 10.0881 43.9851 10.1036C43.9984 10.1191 44.0082 10.1373 44.0139 10.157L45.5139 14.3311C45.9223 12.6768 46.0327 10.963 45.8401 9.26996C45.8401 8.46122 45.7487 7.61336 45.7618 6.79158C45.7496 6.47982 45.817 6.17009 45.9575 5.89153C46.3488 5.22628 47.2619 5.13498 48.1228 5.12193L52.923 5.03062C54.2274 5.03062 55.6102 4.9654 57.7233 4.93932C57.7432 4.9375 57.7633 4.93986 57.7822 4.94625C57.8012 4.95264 57.8185 4.96293 57.8332 4.97644C57.848 4.98995 57.8598 5.00639 57.8678 5.0247C57.8758 5.04302 57.8799 5.06281 57.8798 5.0828C57.8803 5.1236 57.8661 5.1632 57.8397 5.19435C57.8133 5.2255 57.7766 5.2461 57.7363 5.25237L52.9361 5.33063C51.6316 5.33063 50.249 5.39585 48.1358 5.42194C47.4054 5.42194 46.5314 5.5263 46.2184 6.06111C46.1044 6.29179 46.0505 6.54755 46.0619 6.80462C46.0619 7.61336 46.0619 8.44818 46.1401 9.24387C46.3793 11.1223 46.2147 13.0301 45.6575 14.8398C45.6469 14.8697 45.6275 14.8956 45.6019 14.9143C45.5763 14.9329 45.5456 14.9433 45.5139 14.9441Z" fill="white"/>
<path d="M49.1784 14.9182C48.9487 14.9137 48.7232 14.8559 48.5195 14.7496C48.3158 14.6432 48.1395 14.4911 48.0045 14.3051C47.7637 13.9533 47.6487 13.5304 47.6784 13.1051C47.6907 12.6468 47.8161 12.1987 48.0436 11.8006C48.1999 11.5164 48.4184 11.2711 48.6828 11.0832C48.7816 11.0111 48.8997 10.9702 49.0219 10.9658C49.2437 10.9658 49.4002 10.9658 49.4785 11.1876C49.5568 11.4093 49.3611 11.9702 49.1132 12.4007C49.0361 12.5157 48.9706 12.638 48.9176 12.7659C48.9176 12.9224 49.1915 13.0007 49.4263 13.092C49.6611 13.1833 50.3263 13.4181 50.2481 14.0573C50.2045 14.2967 50.0766 14.5125 49.8876 14.6657C49.6985 14.8188 49.4608 14.8992 49.2176 14.8921M49.0611 11.2789C49.0009 11.2662 48.9387 11.2662 48.8785 11.2789C48.6584 11.4373 48.4759 11.6422 48.3437 11.8789C48.1478 12.2312 48.0361 12.6241 48.0176 13.0268C47.9905 13.3831 48.0872 13.7379 48.2914 14.0312C48.3992 14.1827 48.5422 14.3059 48.7081 14.3899C48.8739 14.474 49.0578 14.5165 49.2437 14.5138C49.413 14.5204 49.5795 14.4699 49.7166 14.3706C49.8538 14.2713 49.9536 14.1288 50.0002 13.966C50.0002 13.5877 49.7785 13.4703 49.3611 13.3138C48.9437 13.1572 48.735 13.079 48.6567 12.7529C48.6567 12.6355 48.6567 12.492 48.8915 12.1789C49.1263 11.8659 49.335 11.4224 49.2567 11.2658C49.226 11.2518 49.1927 11.2445 49.1589 11.2445C49.1252 11.2445 49.0918 11.2518 49.0611 11.2658" fill="white"/>
<path d="M52.5321 14.657C52.2942 14.671 52.056 14.6367 51.8317 14.5559C51.6075 14.4752 51.402 14.3498 51.2277 14.1874C51.0426 14.0271 50.9225 13.8046 50.8898 13.5619C50.8572 13.3192 50.9144 13.073 51.0506 12.8694C51.1868 12.6659 51.3926 12.5192 51.6294 12.4568C51.8663 12.3945 52.1177 12.4208 52.3365 12.5308C52.3869 12.5496 52.4301 12.5835 52.4605 12.6279C52.4908 12.6722 52.5068 12.7249 52.5061 12.7786C52.5067 12.8172 52.4959 12.8552 52.475 12.8877C52.4541 12.9202 52.4241 12.9458 52.3886 12.9612C52.3521 12.9749 52.3119 12.9744 52.2757 12.96C52.2395 12.9455 52.21 12.918 52.193 12.883C52.1866 12.8529 52.1866 12.8218 52.193 12.7917C52.0339 12.738 51.8618 12.737 51.7021 12.7887C51.5424 12.8403 51.4035 12.942 51.306 13.0786C51.2276 13.2213 51.1992 13.3861 51.2252 13.5468C51.2512 13.7075 51.3302 13.8549 51.4495 13.9656C51.7402 14.2225 52.1184 14.3579 52.5061 14.3439C52.6633 14.3598 52.8208 14.3181 52.9495 14.2265C52.9629 14.2123 52.9791 14.201 52.9971 14.1932C53.015 14.1855 53.0344 14.1815 53.0539 14.1815C53.0735 14.1815 53.0928 14.1855 53.1108 14.1932C53.1287 14.201 53.1449 14.2123 53.1583 14.2265C53.1729 14.2411 53.1845 14.2583 53.1924 14.2774C53.2003 14.2964 53.2043 14.3168 53.2043 14.3374C53.2043 14.358 53.2003 14.3784 53.1924 14.3974C53.1845 14.4164 53.1729 14.4337 53.1583 14.4483C52.9724 14.5916 52.7402 14.6613 52.5061 14.6439L52.5321 14.657Z" fill="white"/>
<path d="M50.2498 16.8485C47.1061 16.8485 43.9756 16.7441 40.6493 16.5354C40.6101 16.5269 40.5748 16.5056 40.5489 16.475C40.5229 16.4443 40.5078 16.406 40.5059 16.3659C40.5059 16.2745 40.5841 16.2093 40.6624 16.2224C46.9993 16.6397 53.3568 16.6397 59.6937 16.2224C59.7143 16.2224 59.7347 16.2264 59.7536 16.2343C59.7726 16.2422 59.7899 16.2537 59.8044 16.2682C59.819 16.2827 59.8305 16.3 59.8384 16.319C59.8462 16.338 59.8503 16.3583 59.8503 16.3789C59.8521 16.3988 59.8497 16.4189 59.8433 16.4378C59.8369 16.4568 59.8266 16.4742 59.8131 16.4889C59.7996 16.5036 59.7832 16.5154 59.7649 16.5234C59.7466 16.5314 59.7267 16.5355 59.7068 16.5354C56.4457 16.7441 53.3412 16.8485 50.2498 16.8485Z" fill="white"/>
<path d="M45.1628 20.3833H44.9932C44.8616 20.3415 44.7449 20.2627 44.6569 20.1563C44.569 20.0499 44.5137 19.9203 44.4976 19.7832C44.4738 19.5876 44.5081 19.3893 44.5963 19.213C44.6844 19.0367 44.8225 18.8903 44.9932 18.7919C45.1753 18.7001 45.3764 18.6523 45.5802 18.6523C45.7841 18.6523 45.9851 18.7001 46.1672 18.7919C46.2009 18.8134 46.226 18.8461 46.2379 18.8843C46.2499 18.9225 46.2479 18.9637 46.2324 19.0006C46.2231 19.0251 46.2071 19.0465 46.1864 19.0626C46.1657 19.0787 46.1411 19.0889 46.115 19.0919C46.128 19.1565 46.128 19.223 46.115 19.2876C46.127 19.4176 46.1656 19.5437 46.2285 19.6581C46.2913 19.7726 46.3771 19.8729 46.4803 19.9528C46.6119 20.0576 46.7751 20.1146 46.9433 20.1146C47.1115 20.1146 47.2748 20.0576 47.4064 19.9528C47.4358 19.9234 47.4757 19.9069 47.5173 19.9069C47.5589 19.9069 47.5987 19.9234 47.6281 19.9528C47.6575 19.9822 47.674 20.0221 47.674 20.0637C47.674 20.1053 47.6575 20.1452 47.6281 20.1746C47.443 20.3227 47.213 20.4035 46.9759 20.4035C46.7388 20.4035 46.5088 20.3227 46.3237 20.1746C46.1926 20.0785 46.0855 19.9535 46.0106 19.8093V19.9267C45.9391 20.0696 45.8319 20.1915 45.6993 20.2806C45.5668 20.3698 45.4134 20.4231 45.2541 20.4354M45.7237 18.9615C45.5537 18.9585 45.3864 19.0037 45.2411 19.0919C45.1232 19.1556 45.0269 19.2528 44.9642 19.3712C44.9015 19.4896 44.8753 19.6239 44.8889 19.7572C44.8949 19.8363 44.9242 19.9118 44.9729 19.9744C45.0216 20.0371 45.0876 20.084 45.1628 20.1093C45.3846 20.1093 45.6323 19.9789 45.7497 19.7702C45.8406 19.615 45.8943 19.4409 45.9063 19.2615V19.0267H45.7106" fill="white"/>
<path d="M48.4768 19.4966C48.4383 19.4941 48.4018 19.4785 48.3733 19.4524C48.3449 19.4263 48.3262 19.3913 48.3203 19.3531C48.3203 19.3326 48.3244 19.3122 48.3323 19.2932C48.3401 19.2742 48.3516 19.257 48.3662 19.2424C48.3807 19.2279 48.398 19.2164 48.417 19.2085C48.436 19.2006 48.4563 19.1966 48.4768 19.1966C49.0116 19.1966 49.5726 19.1966 50.1204 19.1053C50.1581 19.0901 50.2001 19.0901 50.2378 19.1053H50.3682C50.3865 19.1052 50.4046 19.109 50.4214 19.1163C50.4381 19.1237 50.4531 19.1345 50.4654 19.148C50.4777 19.1615 50.487 19.1775 50.4928 19.1948C50.4985 19.2122 50.5005 19.2306 50.4987 19.2488C50.4992 19.2861 50.4864 19.3225 50.4624 19.3512C50.4385 19.3799 50.4051 19.3991 50.3682 19.4053C49.7421 19.4053 49.0638 19.4966 48.4768 19.5097V19.4966Z" fill="white"/>
<path d="M49.3885 20.1745C49.35 20.172 49.3135 20.1564 49.285 20.1303C49.2566 20.1042 49.2379 20.0692 49.232 20.031L49.1276 18.7266C49.1207 18.7033 49.1192 18.6786 49.1235 18.6546C49.1277 18.6306 49.1376 18.6079 49.1522 18.5884C49.1667 18.5688 49.1856 18.553 49.2074 18.542C49.2292 18.5311 49.2532 18.5254 49.2776 18.5254C49.302 18.5254 49.3261 18.5311 49.3478 18.542C49.3696 18.553 49.3886 18.5688 49.4032 18.5884C49.4177 18.6079 49.4275 18.6306 49.4318 18.6546C49.436 18.6786 49.4346 18.7033 49.4276 18.7266L49.532 20.031C49.5357 20.0509 49.5352 20.0713 49.5305 20.0909C49.5258 20.1106 49.517 20.129 49.5047 20.145C49.4924 20.161 49.4768 20.1742 49.4591 20.1838C49.4413 20.1934 49.4217 20.1991 49.4016 20.2006" fill="white"/>
<path d="M52.7269 20.7483C52.6186 20.7619 52.5091 20.7619 52.4008 20.7483C52.2148 20.6851 52.0454 20.5808 51.9054 20.443C51.7653 20.3052 51.6583 20.1376 51.5921 19.9526C51.4648 19.5923 51.4422 19.2034 51.5269 18.8308C51.5964 18.4655 51.7735 18.1294 52.0355 17.8655C52.1703 17.7378 52.3307 17.6403 52.5062 17.5796C52.6817 17.5188 52.8681 17.4963 53.053 17.5134C53.1402 17.5251 53.2234 17.5572 53.2959 17.607C53.3684 17.6569 53.4282 17.7231 53.4704 17.8003C53.653 18.1395 53.4704 18.3743 53.2486 18.5308C53.0269 18.6873 53.0269 18.7525 53.0399 18.8569C53.053 18.9612 53.1443 19.0265 53.3661 19.1047C53.4878 19.1339 53.6014 19.1901 53.6985 19.2691C53.7956 19.3481 53.8737 19.448 53.9269 19.5613C53.9654 19.6498 53.9852 19.7452 53.9852 19.8417C53.9852 19.9382 53.9654 20.0337 53.9269 20.1222C53.7956 20.3808 53.5723 20.5809 53.3008 20.6831C53.1208 20.7481 52.9314 20.7834 52.74 20.7874M52.9356 17.8134C52.6863 17.831 52.449 17.9268 52.2573 18.0873C52.046 18.313 51.9015 18.593 51.8399 18.896C51.7446 19.2018 51.7446 19.5294 51.8399 19.8352C51.8859 19.9767 51.964 20.1057 52.0681 20.2121C52.1722 20.3184 52.2994 20.3993 52.4399 20.4483C52.6687 20.523 52.9155 20.523 53.1443 20.4483C53.3395 20.3717 53.5012 20.2284 53.6008 20.0439C53.6232 19.9947 53.6348 19.9414 53.6348 19.8874C53.6348 19.8334 53.6232 19.78 53.6008 19.7308C53.6008 19.5874 53.4182 19.5352 53.2095 19.4569C53.0008 19.3787 52.7269 19.2743 52.6877 18.9482C52.6882 18.8337 52.7157 18.7209 52.7678 18.6189C52.8199 18.517 52.8953 18.4287 52.9878 18.3612C53.1835 18.1786 53.2226 18.1264 53.1574 18.009C53.1387 17.9685 53.1094 17.9339 53.0727 17.9086C53.0359 17.8834 52.9931 17.8685 52.9486 17.8655H52.8704" fill="white"/>
<path d="M9.69531 18.2047L14.0912 14.0306L14.952 14.0176L15.7608 15.5829L14.6651 20.8005L11.8475 20.931L9.69531 18.2047Z" fill="#142B2A"/>
<path d="M19.2182 23.8664C19.2182 23.8664 12.0178 21.0881 10.0873 27.3753C8.83372 31.6567 9.14822 36.2448 10.9743 40.3151L18.7355 40.4325L21.84 30.9624L19.2182 23.8664Z" fill="#9BCEA4"/>
<path d="M13.8853 32.1888C16.6246 33.6497 27.2556 38.2021 35.8516 26.045L34.9777 24.858L28.7556 28.3147C28.7556 28.3147 18.9725 22.4057 15.1897 23.3579C11.6417 24.271 9.69816 27.7538 12.5809 31.1844C12.9454 31.6017 13.3887 31.943 13.8853 32.1888Z" fill="#CA5098"/>
<path d="M19.4277 64.6428L19.7669 68.0081L19.3495 93.6398H17.3668C17.3668 93.6398 14.2493 82.6697 15.3319 61.0295L19.4277 64.6428Z" fill="#CA5098"/>
<path d="M9.33079 64.7076C9.33079 64.7076 11.9396 69.9252 13.6484 74.0472C11.6465 75.4374 10.2295 77.5188 9.66995 79.8909C8.52207 83.9477 6.38281 94.2395 6.38281 94.2395H8.13076L18.6704 74.5689C18.5513 70.1698 17.7594 65.8148 16.3224 61.6553L9.33079 64.7076Z" fill="#9BCEA4"/>
<path d="M11.0132 40.3153C9.10528 41.8506 7.64901 43.8743 6.7992 46.171C5.94938 48.4678 5.73777 50.952 6.18688 53.3594C6.90814 58.4046 8.47822 63.2912 10.8306 67.8123L19.7658 67.9558L18.7614 40.3805L11.0132 40.3153Z" fill="#142B2A"/>
<path d="M16.5965 11.3966C15.5921 9.57041 12.1876 10.4444 10.4657 11.2531C9.05262 12.067 8.01106 13.3981 7.56082 14.9654C7.11057 16.5328 7.28689 18.2137 8.0526 19.6535C10.0744 23.932 13.9224 21.2058 13.9224 21.2058C12.9236 20.5655 12.0632 19.7317 11.3919 18.7535L15.0703 14.6576C15.5269 15.2837 15.9834 15.962 16.3747 16.5621C17.0009 15.8968 18.1226 14.175 16.5965 11.4227" fill="#142B2A"/>
<path d="M15.109 13.1309C14.9312 14.4017 14.5152 15.6275 13.8828 16.7441C13.3904 17.4122 13.1078 18.2116 13.0706 19.0407C13.0334 19.8699 13.2435 20.6913 13.6742 21.4008C14.2519 21.8193 14.933 22.0719 15.6438 22.1313C16.0258 22.1514 16.4066 22.0746 16.751 21.9082C17.0953 21.7417 17.392 21.4909 17.6135 21.1791C17.7986 20.8325 17.9055 20.4496 17.9266 20.0573C18.0133 18.7628 17.7472 17.469 17.1569 16.3136C17.035 16.059 16.9001 15.8108 16.7526 15.5701C16.6181 15.7141 16.4742 15.8492 16.3221 15.9745L15.109 13.1309Z" fill="#DEDEDE"/>
<path d="M16.3225 15.9623C16.4746 15.8371 16.6184 15.702 16.7529 15.558C16.2563 14.7282 15.7073 13.9309 15.1094 13.1709L16.3225 15.9623Z" fill="#9BCEA4"/>
<path d="M7.36066 15.5058C7.15091 15.5166 6.94319 15.4606 6.76737 15.3457C6.59154 15.2308 6.45668 15.0631 6.38235 14.8666C6.22809 14.4498 6.19203 13.9984 6.27805 13.5622C6.35283 12.9326 6.57944 12.3306 6.93846 11.808C7.29748 11.2853 7.77808 10.8578 8.33897 10.5621C8.51302 10.46 8.71114 10.4062 8.91291 10.4062C9.11467 10.4062 9.31279 10.46 9.48685 10.5621C9.62091 10.6904 9.72806 10.8442 9.80197 11.0144C9.87588 11.1846 9.91509 11.3679 9.91733 11.5534C9.95526 12.6677 9.63525 13.7649 9.00423 14.684V14.4492" fill="#142B2A"/>
<path d="M17.3153 93.9136C17.0212 94.287 16.8088 94.7179 16.692 95.1786C16.5751 95.6393 16.5564 96.1193 16.637 96.5877C16.7496 97.6933 16.9502 98.7881 17.237 99.8618L18.0458 96.9008C18.2492 97.6882 18.6832 98.3969 19.2921 98.9361C19.901 99.4753 20.657 99.8203 21.4633 99.927C24.333 100.318 23.4591 98.9356 22.7677 98.4008L21.6329 97.4877C21.7372 97.7225 21.9329 98.2834 21.3198 98.1269C20.7068 97.9704 19.3241 97.2269 17.4066 93.8876" fill="#142B2A"/>
<path d="M6.22639 94.4745C5.91356 94.8688 5.6879 95.3249 5.56424 95.8128C5.44057 96.3007 5.42173 96.8093 5.50898 97.305C5.63074 98.4713 5.84001 99.6268 6.13508 100.762L6.99603 97.6181C7.2121 98.4533 7.67267 99.205 8.31876 99.7767C8.96484 100.348 9.76695 100.714 10.6223 100.827C13.6485 101.244 12.7224 99.7834 12.0049 99.2225L10.7918 98.2442C10.9092 98.492 11.1049 99.0921 10.4657 98.9355C9.82657 98.779 8.35262 97.9703 6.26557 94.4484" fill="#142B2A"/>
<path d="M16.7266 18.3885C16.6997 18.389 16.6732 18.3819 16.6502 18.3681C16.6271 18.3542 16.6084 18.3342 16.5962 18.3102C16.5729 18.2804 16.5603 18.2437 16.5603 18.2059C16.5603 18.168 16.5729 18.1313 16.5962 18.1015L17.0657 17.8406C16.8298 17.0482 16.3217 16.3644 15.6309 15.9101C15.6167 15.8967 15.6054 15.8805 15.5976 15.8626C15.5899 15.8446 15.5859 15.8253 15.5859 15.8057C15.5859 15.7862 15.5899 15.7669 15.5976 15.7489C15.6054 15.731 15.6167 15.7148 15.6309 15.7014C15.6432 15.6875 15.6582 15.6764 15.6751 15.6688C15.692 15.6612 15.7103 15.6572 15.7288 15.6572C15.7473 15.6572 15.7656 15.6612 15.7824 15.6688C15.7993 15.6764 15.8144 15.6875 15.8266 15.7014C16.6154 16.2218 17.1826 17.0168 17.418 17.9319C17.436 17.9565 17.4457 17.9862 17.4457 18.0167C17.4457 18.0472 17.436 18.0769 17.418 18.1015L16.8571 18.4276H16.7788" fill="#1D1D1B"/>
<path d="M14.314 17.5532C14.294 17.5533 14.2742 17.5492 14.2559 17.5411C14.2375 17.5331 14.2211 17.5214 14.2076 17.5067C14.1941 17.4919 14.1838 17.4745 14.1774 17.4556C14.1711 17.4366 14.1687 17.4166 14.1705 17.3966C14.1715 17.1336 14.2405 16.8752 14.3707 16.6467C14.501 16.4181 14.6882 16.2271 14.914 16.0922C14.9406 16.0675 14.9756 16.0537 15.0119 16.0537C15.0482 16.0537 15.0831 16.0675 15.1097 16.0922C15.1329 16.122 15.1456 16.1588 15.1456 16.1966C15.1456 16.2344 15.1329 16.2711 15.1097 16.3009C14.9252 16.4073 14.7732 16.5618 14.6698 16.7479C14.5664 16.934 14.5156 17.1447 14.5227 17.3575C14.5227 17.399 14.5062 17.4388 14.4769 17.4682C14.4475 17.4976 14.4076 17.514 14.3661 17.514" fill="#1D1D1B"/>
<path d="M16.2044 15.5318C16.1727 15.5309 16.142 15.5205 16.1164 15.5019C16.0908 15.4832 16.0714 15.4573 16.0609 15.4274C16.0481 15.3893 16.0504 15.3477 16.0674 15.3113C16.0844 15.2749 16.1148 15.2464 16.1522 15.2317C16.4095 15.1402 16.6906 15.1402 16.9479 15.2317C16.9853 15.2464 17.0157 15.2749 17.0327 15.3113C17.0497 15.3477 17.052 15.3893 17.0392 15.4274C17.0347 15.4466 17.0263 15.4647 17.0145 15.4806C17.0027 15.4964 16.9878 15.5096 16.9707 15.5194C16.9535 15.5292 16.9345 15.5353 16.9148 15.5375C16.8952 15.5396 16.8754 15.5377 16.8566 15.5318C16.663 15.4598 16.45 15.4598 16.2565 15.5318" fill="#1D1D1B"/>
<path d="M17.093 20.1489C16.5533 20.1224 16.0325 19.9413 15.5929 19.6271C15.5783 19.6126 15.5667 19.5953 15.5588 19.5763C15.5509 19.5572 15.5469 19.5368 15.5469 19.5162C15.5469 19.4956 15.5509 19.4752 15.5588 19.4562C15.5667 19.4372 15.5783 19.4199 15.5929 19.4054C15.6063 19.3911 15.6225 19.3798 15.6404 19.3721C15.6584 19.3643 15.6777 19.3604 15.6973 19.3604C15.7168 19.3604 15.7362 19.3643 15.7541 19.3721C15.7721 19.3798 15.7882 19.3911 15.8016 19.4054C16.1888 19.6674 16.6394 19.8206 17.1061 19.8489C17.1262 19.8503 17.1458 19.8561 17.1635 19.8656C17.1813 19.8752 17.1968 19.8885 17.2092 19.9045C17.2215 19.9205 17.2303 19.9389 17.235 19.9585C17.2397 19.9782 17.2402 19.9986 17.2365 20.0184C17.2365 20.0565 17.2213 20.093 17.1944 20.1199C17.1675 20.1468 17.1311 20.1619 17.093 20.1619" fill="#1D1D1B"/>
<path d="M16.923 16.5101C16.8891 16.5221 16.8522 16.5221 16.8184 16.5101C16.7966 16.4724 16.7852 16.4296 16.7852 16.386C16.7852 16.3424 16.7966 16.2996 16.8184 16.2619C16.8269 16.2429 16.8391 16.2258 16.8542 16.2115C16.8694 16.1973 16.8871 16.1862 16.9065 16.1789C16.926 16.1716 16.9467 16.1683 16.9675 16.1691C16.9882 16.1698 17.0087 16.1747 17.0275 16.1835C17.0427 16.2068 17.0508 16.234 17.0508 16.2619C17.0508 16.2897 17.0427 16.3169 17.0275 16.3403C17.0293 16.3776 17.0188 16.4144 16.9975 16.4451C16.9763 16.4758 16.9454 16.4987 16.9099 16.5101" fill="#1D1D1B"/>
<path d="M47.681 8.07031L36.75 22.2884L37.7805 23.2145L47.9419 8.07031H47.681Z" fill="#142B2A"/>
<path d="M35.498 24.2969C36.1242 23.2533 36.6981 22.0011 37.4156 21.0228C37.6705 20.6492 37.9882 20.3226 38.3547 20.0575C38.3716 20.049 38.3903 20.0447 38.4092 20.0449C38.4281 20.0452 38.4467 20.05 38.4633 20.059C38.48 20.0679 38.4943 20.0808 38.5049 20.0964C38.5155 20.1121 38.5221 20.1301 38.5243 20.1488C38.4782 20.4623 38.3525 20.7588 38.1591 21.0098L37.2199 22.4837C37.4748 22.178 37.8086 21.9479 38.1851 21.8185C38.2504 21.8185 38.3156 21.8185 38.3026 21.9489C38.2191 22.1443 38.1046 22.3249 37.9634 22.4837C38.1404 22.2807 38.3709 22.1315 38.6287 22.0533C38.6667 22.0404 38.708 22.0404 38.746 22.0533C38.8373 22.0533 38.746 22.2359 38.746 22.3272C38.746 22.4185 38.3938 22.7577 38.1982 22.9664C38.3506 22.7718 38.5607 22.6303 38.7982 22.562C38.8369 22.5362 38.8822 22.5224 38.9287 22.5224C38.9751 22.5224 39.0205 22.5362 39.0591 22.562C39.1505 22.6794 39.0591 22.8359 38.9287 22.9403L38.3156 23.4751C38.5179 23.3198 38.7553 23.2168 39.0069 23.1751C39.0353 23.1706 39.0644 23.1729 39.0918 23.1819C39.1191 23.1908 39.144 23.206 39.1644 23.2264C39.1847 23.2467 39.2 23.2716 39.2089 23.2989C39.2178 23.3263 39.2201 23.3554 39.2157 23.3838C39.1767 23.5093 39.1046 23.6219 39.0069 23.7099C38.2012 24.4165 37.3273 25.0413 36.3981 25.5752" fill="white"/>
</svg>
