<svg width="57" height="101" viewBox="0 0 57 101" fill="none" xmlns="http://www.w3.org/2000/svg">
<path d="M56.2602 12.262C56.1303 11.6761 55.9228 11.1101 55.6432 10.5791C54.0304 7.85843 50.0335 8.19499 48.2244 7.60598C47.7616 7.46574 47.2007 7.31148 46.5977 7.17124L46.0927 7.07308C43.1911 6.53262 40.2105 6.58029 37.3277 7.21331C37.1593 7.25457 36.9951 7.3109 36.8368 7.38161C35.6353 7.85456 34.6412 8.73937 34.032 9.8779C33.7459 10.6359 33.5163 11.414 33.3449 12.2059C32.7138 14.2534 31.129 15.9083 30.6943 18.0119C30.5409 18.9466 30.5866 19.9032 30.8282 20.8191C31.0699 21.735 31.5021 22.5896 32.0967 23.327C33.3015 24.7334 34.8133 25.8441 36.5153 26.5736C38.2174 27.303 40.0643 27.6317 41.9136 27.5343C42.8361 27.4591 43.7336 27.1965 44.5511 26.7624C45.3685 26.3283 46.0888 25.732 46.6678 25.0099C47.3299 23.8534 48.0556 22.7344 48.8415 21.6582C50.1177 20.3539 52.039 20.0454 53.5676 19.0777C54.4934 18.4644 55.2523 17.6307 55.7761 16.6516C56.2999 15.6725 56.5723 14.5785 56.5688 13.4681C56.5568 13.0489 56.5099 12.6314 56.4286 12.2199" fill="#0095D4"/>
<path d="M18.5089 9.69553C18.1434 11.3637 17.6463 13.0003 17.0223 14.59C16.3971 16.1555 15.3894 17.5393 14.0913 18.6149C13.7315 18.9188 13.3031 19.1306 12.8432 19.2319C12.3785 19.2588 11.9159 19.1514 11.5106 18.9227C11.1053 18.6939 10.7744 18.3534 10.5572 17.9417C10.1124 17.0738 9.8816 16.1121 9.8841 15.1369C9.76738 13.0911 9.98523 11.04 10.5292 9.06445" fill="#DEDEDE"/>
<path d="M18.2979 87.908H15.3809L21.1027 50.702H24.0197L18.2979 87.908ZM15.7595 87.5714H18.0174L23.627 51.1087H21.3692L15.7595 87.5714Z" fill="#13110C"/>
<path d="M42.3508 48.8796H18.1172L24.2877 9.73828H48.5074L42.3508 48.8796ZM18.5098 48.5571H42.0844L48.1428 10.0749H24.5823L18.5098 48.5571Z" fill="#13110C"/>
<path d="M7.24741 44.5176C7.24741 44.5176 3.69925 50.5199 4.73704 67.6854C5.77482 84.851 7.24741 100.221 7.24741 100.221H10.9918L17.0503 61.6831L7.24741 44.5176Z" fill="#0095D4"/>
<path d="M48.3239 51.0386H21.3695C21.3249 51.0386 21.282 51.0209 21.2505 50.9893C21.2189 50.9577 21.2012 50.9149 21.2012 50.8703C21.2012 50.8257 21.2189 50.7829 21.2505 50.7513C21.282 50.7197 21.3249 50.702 21.3695 50.702H48.3239C48.3685 50.702 48.4113 50.7197 48.4428 50.7513C48.4744 50.7829 48.4921 50.8257 48.4921 50.8703C48.4921 50.9149 48.4744 50.9577 48.4428 50.9893C48.4113 51.0209 48.3685 51.0386 48.3239 51.0386Z" fill="#13110C"/>
<path d="M24.4806 91.1057H21.6758L28.6878 48.7248C28.6894 48.7032 28.6956 48.6821 28.7059 48.663C28.7162 48.6439 28.7304 48.6272 28.7476 48.6139C28.7648 48.6007 28.7847 48.5912 28.8058 48.5862C28.8269 48.5811 28.8488 48.5805 28.8702 48.5846C28.8924 48.5879 28.9137 48.5958 28.9329 48.6075C28.9521 48.6193 28.9687 48.6348 28.9818 48.6531C28.9949 48.6714 29.0041 48.6922 29.009 48.7141C29.0139 48.7361 29.0144 48.7588 29.0104 48.7809L21.9983 90.8533H24.2702L31.2823 48.7809C31.2839 48.7592 31.29 48.7382 31.3003 48.7191C31.3106 48.7 31.3249 48.6832 31.3421 48.67C31.3593 48.6568 31.3791 48.6473 31.4002 48.6422C31.4213 48.6372 31.4433 48.6367 31.4646 48.6407C31.4868 48.6441 31.5082 48.6519 31.5273 48.6636C31.5465 48.6754 31.5631 48.6909 31.5762 48.7092C31.5893 48.7275 31.5985 48.7482 31.6034 48.7702C31.6083 48.7921 31.6089 48.8149 31.6049 48.837L24.4806 91.1057Z" fill="#13110C"/>
<path d="M35.2095 10.0741C35.1672 10.0641 35.1303 10.038 35.1068 10.0014C35.0833 9.9648 35.0748 9.92051 35.0833 9.87781L36.6259 0.551758H39.5429L38.0003 9.9339C37.9969 9.95614 37.9891 9.97748 37.9773 9.99664C37.9655 10.0158 37.95 10.0324 37.9317 10.0455C37.9134 10.0586 37.8927 10.0678 37.8707 10.0728C37.8488 10.0777 37.8261 10.0782 37.804 10.0741C37.7616 10.0641 37.7248 10.038 37.7012 10.0014C37.6777 9.9648 37.6693 9.92051 37.6777 9.87781L39.1642 0.888344H36.8923L35.3918 9.9339C35.3883 9.97233 35.3705 10.0081 35.3419 10.034C35.3134 10.06 35.2761 10.0743 35.2375 10.0741" fill="#13110C"/>
<path d="M43.6544 87.908H40.7235V87.7678L35.0156 50.702H37.9466V50.8423L43.6544 87.908ZM41.004 87.5714H43.2759L37.6662 51.1087H35.3943L41.004 87.5714Z" fill="#13110C"/>
<path d="M17.0512 48.7247C17.0512 48.7247 23.9511 53.4368 30.8229 68.9756L24.7084 96.5049H20.5011L22.2261 71.1633C22.2261 71.1633 11.9043 65.8482 6.92578 50.043L17.0512 48.7247Z" fill="#CA5098"/>
<path d="M16.4036 20.8867C16.4036 20.8867 7.84887 18.0818 4.5532 25.2341C1.25753 32.3864 0.0234375 53.5769 0.0234375 53.5769H21.8029L16.4036 20.8867Z" fill="#9BCEA4"/>
<path d="M14.1458 21.4338C13.5265 21.9561 13.0667 22.6421 12.8187 23.4133C12.5707 24.1845 12.5446 25.01 12.7434 25.7953C13.4165 29.5257 15.5482 37.3792 21.0596 37.6737C28.3802 38.0804 33.6814 27.38 33.6814 27.38L31.7741 26.0758L23.3596 30.858C23.3596 30.858 19.3066 17.9138 14.0476 21.4338" fill="#CA5098"/>
<path d="M18.2554 62.7488C16.6566 62.7488 15.0859 61.711 13.6835 59.6916C12.948 58.6038 12.3365 57.4372 11.8604 56.2136C11.8408 56.164 11.8408 56.1089 11.8604 56.0593C11.8741 56.0382 11.8928 56.0208 11.9148 56.0086C11.9368 55.9963 11.9614 55.9897 11.9866 55.9892H18.3816C18.4089 55.9886 18.4359 55.9947 18.4604 56.0069C18.4848 56.0191 18.5059 56.0371 18.5218 56.0593C18.62 56.2136 21.0041 59.9019 20.2047 61.6689C20.0755 61.9396 19.8784 62.1723 19.6327 62.3443C19.3869 62.5163 19.1009 62.6218 18.8023 62.6506H18.2413M12.239 56.2276C12.7299 57.4056 15.1279 62.833 18.7462 62.286C18.9945 62.2714 19.2346 62.1909 19.4416 62.0529C19.6486 61.9149 19.8152 61.7243 19.9242 61.5007C20.5834 59.958 18.648 56.7465 18.3114 56.2276H12.239Z" fill="white"/>
<path d="M4.72216 63.5059C4.68812 63.505 4.65521 63.4939 4.62767 63.4738C4.60012 63.4538 4.57926 63.4259 4.56792 63.3938C4.56143 63.3726 4.5592 63.3503 4.56133 63.3283C4.56346 63.3062 4.56991 63.2848 4.58033 63.2653C4.59075 63.2457 4.60498 63.2285 4.6221 63.2144C4.63922 63.2004 4.65894 63.1898 4.68014 63.1834C6.75571 62.5523 6.78374 57.3213 6.76972 56.3396H4.7362C4.69157 56.3396 4.64878 56.3219 4.61722 56.2903C4.58566 56.2588 4.56792 56.216 4.56792 56.1713C4.56792 56.1267 4.58566 56.0839 4.61722 56.0523C4.64878 56.0208 4.69157 56.0031 4.7362 56.0031H6.92396C6.96752 56.0063 7.00846 56.0251 7.03935 56.056C7.07023 56.0868 7.089 56.1278 7.09224 56.1713C7.09224 56.4378 7.28862 62.7346 4.76428 63.5059" fill="white"/>
<path d="M29.7415 95.0043C29.3051 94.7902 28.8252 94.6798 28.3391 94.6817C27.2283 94.628 26.1153 94.7224 25.0294 94.9622C23.9215 96.6311 20.8222 96.5049 20.4576 96.4768L20.3594 96.603C20.3594 96.6732 19.4899 98.1177 20.4856 99.0432C21.1443 99.4205 21.9241 99.5261 22.6594 99.3377C25.2636 98.9397 27.7243 97.8879 29.8116 96.2805C29.9821 96.1624 30.1139 95.9965 30.1903 95.8037C30.2096 95.6382 30.1767 95.4709 30.0962 95.3251C30.0158 95.1793 29.8917 95.0622 29.7415 94.9903" fill="#142B2A"/>
<path d="M16.351 96.5888C15.9195 96.3612 15.4361 96.25 14.9485 96.2663C13.8385 96.2143 12.7263 96.3039 11.6389 96.5327C10.531 98.2156 7.43162 98.0754 7.06699 98.0614L6.96882 98.1735C6.96882 98.1735 6.09927 99.7022 7.09498 100.614C7.75365 100.991 8.53349 101.097 9.26879 100.908C11.8729 100.525 14.3327 99.4714 16.407 97.851C16.5879 97.7409 16.7263 97.5728 16.7997 97.3742C16.8203 97.2105 16.7877 97.0445 16.707 96.9006C16.6262 96.7567 16.5014 96.6425 16.351 96.5748" fill="#142B2A"/>
<path d="M13.3458 11.5331C14.7483 11.0142 16.1507 10.9862 17.5531 10.4813C18.2658 10.2681 18.895 9.8396 19.3545 9.25456C19.814 8.66953 20.0813 7.95663 20.1195 7.21371C20.0224 6.57382 19.7414 5.97597 19.3106 5.49292C18.8799 5.00987 18.3179 4.66248 17.6933 4.49305C17.3584 4.35071 16.9984 4.27734 16.6345 4.27734C16.2707 4.27734 15.9106 4.35071 15.5757 4.49305C15.1267 4.79146 14.7248 5.15544 14.3836 5.57289C13.7433 6.23283 12.9876 6.76994 12.1538 7.15762C11.2287 7.48391 10.3287 7.87764 9.46113 8.33564C8.43523 9.02296 7.72016 10.0855 7.46973 11.2947C7.20956 12.5218 7.43045 13.802 8.08679 14.8709C8.31085 15.2686 8.62854 15.6055 9.01235 15.8526C9.39515 16.0692 9.83962 16.151 10.2745 16.0849C10.7093 16.0188 11.1094 15.8086 11.4105 15.488C12.1117 14.7166 11.8172 14.0855 11.8172 13.1459C11.8172 12.2063 12.6026 11.7435 13.3458 11.463" fill="#142B2A"/>
<path d="M10.165 15.3479L10.8943 17.1429L13.3345 15.3479L12.8156 13.8473L11.9321 12.5851C11.9321 12.5851 11.3571 10.9443 10.5998 11.6034C9.84246 12.2625 9.53396 13.707 10.2772 15.6564" fill="#DEDEDE"/>
<path d="M15.6893 15.4872H15.6192H15.3247C15.2823 15.4772 15.2456 15.4511 15.222 15.4145C15.1985 15.3779 15.1901 15.3336 15.1985 15.2909C15.2086 15.2485 15.2347 15.2117 15.2713 15.1882C15.3079 15.1647 15.3522 15.1562 15.3949 15.1647C15.4785 15.178 15.5637 15.178 15.6473 15.1647C15.7392 15.175 15.8318 15.1525 15.9088 15.1012C15.9858 15.0499 16.0421 14.973 16.068 14.8842C16.3204 14.0988 16.5588 13.2994 16.7832 12.5141C16.7896 12.4929 16.8002 12.4732 16.8142 12.4561C16.8283 12.4389 16.8456 12.4248 16.8651 12.4143C16.8847 12.4039 16.9061 12.3974 16.9281 12.3953C16.9502 12.3932 16.9724 12.3954 16.9935 12.4019C17.0147 12.408 17.0343 12.4186 17.051 12.4329C17.0677 12.4472 17.0811 12.4649 17.0904 12.4848C17.0996 12.5047 17.1046 12.5264 17.1048 12.5484C17.1051 12.5704 17.1006 12.5922 17.0917 12.6123C16.8673 13.3976 16.6289 14.211 16.3765 14.9964C16.3313 15.1431 16.2401 15.2715 16.1164 15.3624C15.9926 15.4533 15.8429 15.502 15.6893 15.5012" fill="#13110C"/>
<path d="M14.0897 12.9636C14.0583 12.9599 14.028 12.9492 14.0013 12.9322C13.9746 12.9152 13.952 12.8924 13.9354 12.8655C13.9199 12.8242 13.92 12.7788 13.9355 12.7375C13.9509 12.6963 13.9808 12.662 14.0195 12.6411C14.7156 12.3108 15.4791 12.1475 16.2494 12.1643C16.2709 12.1642 16.2922 12.1686 16.3119 12.1772C16.3316 12.1858 16.3492 12.1984 16.3638 12.2143C16.3783 12.2301 16.3893 12.2488 16.3962 12.2692C16.4031 12.2896 16.4056 12.3112 16.4036 12.3326C16.4036 12.3772 16.3859 12.42 16.3543 12.4516C16.3228 12.4831 16.28 12.5008 16.2354 12.5008C15.518 12.487 14.8074 12.6407 14.1598 12.9496" fill="#13110C"/>
<path d="M15.1838 13.8048C15.1538 13.8025 15.1249 13.7921 15.1002 13.7749C15.0756 13.7576 15.056 13.734 15.0436 13.7066C15.0269 13.667 15.0247 13.6227 15.0376 13.5816C15.0504 13.5406 15.0774 13.5054 15.1137 13.4822C15.2835 13.4007 15.4624 13.3396 15.6466 13.2999C15.6893 13.2915 15.7336 13.2999 15.7702 13.3235C15.8068 13.347 15.8329 13.3838 15.843 13.4262C15.8482 13.4685 15.8384 13.5113 15.8153 13.5472C15.7922 13.583 15.7574 13.6097 15.7167 13.6225C15.5574 13.6638 15.4025 13.7201 15.2539 13.7908" fill="#13110C"/>
<path d="M14.8054 17.2966C14.2668 17.2162 13.7718 16.9539 13.403 16.5533C13.3873 16.5376 13.3748 16.5191 13.3664 16.4986C13.3579 16.4782 13.3535 16.4562 13.3535 16.4341C13.3535 16.4119 13.3579 16.39 13.3664 16.3696C13.3748 16.3491 13.3873 16.3305 13.403 16.3149C13.4161 16.2975 13.433 16.2833 13.4525 16.2736C13.4719 16.2638 13.4934 16.2588 13.5152 16.2588C13.537 16.2588 13.5585 16.2638 13.5779 16.2736C13.5974 16.2833 13.6144 16.2975 13.6274 16.3149C13.9321 16.6518 14.3428 16.8745 14.7915 16.946C14.8347 16.956 14.8728 16.9815 14.8986 17.0176C14.9244 17.0538 14.9362 17.0981 14.9317 17.1423C14.925 17.1819 14.9043 17.2178 14.8735 17.2436C14.8426 17.2693 14.8035 17.2831 14.7634 17.2825" fill="#13110C"/>
<path d="M17.5959 12.8234C17.5784 12.832 17.5591 12.8366 17.5396 12.8366C17.5201 12.8366 17.5009 12.832 17.4835 12.8234L17.3289 12.6548C17.3132 12.6391 17.3008 12.6205 17.2922 12.6C17.2837 12.5795 17.2793 12.5576 17.2793 12.5354C17.2793 12.5132 17.2837 12.4912 17.2922 12.4708C17.3008 12.4503 17.3132 12.4316 17.3289 12.416C17.3599 12.3883 17.3998 12.373 17.4413 12.373C17.4827 12.373 17.5228 12.3883 17.5537 12.416L17.7082 12.5846C17.7239 12.6002 17.7364 12.6188 17.7449 12.6393C17.7534 12.6598 17.7578 12.6818 17.7578 12.704C17.7578 12.7262 17.7534 12.7481 17.7449 12.7686C17.7364 12.7891 17.7239 12.8077 17.7082 12.8234C17.6721 12.8375 17.632 12.8375 17.5959 12.8234Z" fill="#13110C"/>
<path d="M37.3144 16.0768C37.1097 16.2254 36.9371 16.4138 36.807 16.6306C36.6769 16.8475 36.5918 17.0884 36.557 17.339C36.5248 17.8417 36.6741 18.3394 36.9777 18.7414C37.3283 18.6675 37.6583 18.5175 37.9443 18.3017C38.2303 18.086 38.4654 17.81 38.6327 17.4932C38.9094 16.9771 38.9747 16.3737 38.8149 15.8103C38.6466 15.4177 38.6747 15.4597 38.254 15.5719C37.9106 15.6699 37.5909 15.8369 37.3144 16.0628" fill="white"/>
<path d="M36.7524 18.3486C36.8397 18.4488 36.9515 18.5246 37.0768 18.5689C37.2021 18.6131 37.3367 18.6242 37.4676 18.6011L34.8311 25.0101L33.625 24.4912L36.7524 18.3486Z" fill="#142B2A"/>
<path d="M35.7009 25.6976C36.0981 25.5381 36.4463 25.2769 36.7106 24.9403C36.7323 24.9126 36.7456 24.8794 36.7488 24.8444C36.752 24.8094 36.745 24.7743 36.7287 24.7432C36.7124 24.7121 36.6875 24.6863 36.6569 24.6691C36.6264 24.6518 36.5914 24.6437 36.5564 24.6458C36.2863 24.6723 36.0337 24.7911 35.8411 24.9824C36.1921 24.7107 36.4914 24.3782 36.7247 24.0007C36.7408 23.9734 36.749 23.9421 36.7481 23.9104C36.7473 23.8787 36.7375 23.8479 36.7199 23.8215C36.7024 23.7951 36.6777 23.7743 36.6487 23.7613C36.6198 23.7483 36.5878 23.7438 36.5564 23.7482C36.447 23.7855 36.3433 23.8374 36.2479 23.9025C36.5267 23.6557 36.7593 23.3613 36.9351 23.033C36.9523 22.9971 36.9583 22.9569 36.9522 22.9175C36.946 22.8782 36.9281 22.8416 36.9007 22.8127C36.8733 22.7838 36.8378 22.7639 36.7989 22.7557C36.7599 22.7474 36.7194 22.7512 36.6826 22.7666C35.6998 23.2706 34.7615 23.857 33.8778 24.5196C34.1581 23.8779 34.3059 23.1862 34.3125 22.4861C34.3137 22.4495 34.3029 22.4135 34.2817 22.3836C34.2606 22.3537 34.2303 22.3315 34.1954 22.3204C34.1605 22.3093 34.1229 22.3099 34.0884 22.3221C34.0538 22.3342 34.0242 22.3574 34.004 22.3879C33.3451 23.2404 32.8159 24.1855 32.4333 25.1927C32.3894 25.3247 32.3894 25.4674 32.4333 25.5994L34.2144 27.0018C34.4668 26.8476 36.6826 25.9781 36.6546 25.7256C36.6265 25.4732 35.715 25.7256 35.715 25.7256" fill="#9BCEA4"/>
<path d="M33.9637 18.7833C33.9337 18.7809 33.9048 18.7706 33.8802 18.7533C33.8555 18.7361 33.8359 18.7125 33.8234 18.6851C33.6072 18.1773 33.5532 17.6151 33.6687 17.0754C33.7841 16.5357 34.0635 16.0448 34.4686 15.6699C35.2679 14.9718 36.2963 14.5924 37.3575 14.6041C38.1716 14.6009 38.984 14.676 39.7837 14.8285L40.3728 14.9266C42.5855 15.3193 44.8584 15.2042 47.0202 14.5901C49.1894 13.9035 51.0023 12.3927 52.0688 10.3828C52.327 9.74114 52.5151 9.07346 52.6298 8.3914C52.6423 8.3495 52.6683 8.31295 52.7039 8.28755C52.7394 8.26214 52.7825 8.24933 52.8262 8.25115C52.8669 8.26394 52.9017 8.2906 52.9248 8.32647C52.9478 8.36234 52.9576 8.40516 52.9524 8.44748C52.8279 9.16387 52.6257 9.86455 52.3493 10.5371C51.2367 12.6048 49.3592 14.1551 47.1184 14.8565C44.9099 15.4776 42.5897 15.5926 40.3306 15.1931L39.7417 15.0949C38.9542 14.957 38.1569 14.882 37.3575 14.8705C36.3807 14.8695 35.4357 15.2176 34.693 15.8522C34.3396 16.1805 34.0941 16.6083 33.989 17.079C33.8838 17.5497 33.9239 18.0413 34.1039 18.4888C34.1238 18.5279 34.1276 18.5733 34.1145 18.6152C34.1014 18.6572 34.0725 18.6923 34.0338 18.7131" fill="white"/>
</svg>
