<svg width="110" height="85" viewBox="0 0 110 85" fill="none" xmlns="http://www.w3.org/2000/svg">
<path d="M92.2263 32.8345C92.2263 32.5347 92.2263 32.2349 92.1309 31.9214C91.4222 27.833 85.5485 18.2932 84.063 15.8947L82.2777 16.9576L85.0034 31.4989C81.6029 28.7795 77.9524 26.3885 74.1008 24.3578C72.1792 27.7648 67.5729 20.8281 67.5729 20.8281C67.5729 20.8281 41.0797 15.0497 38.9537 24.5894C37.3729 31.7579 45.1273 37.6452 49.0522 40.1119L42.647 50.7555L59.2733 47.9481L66.4418 38.9126H66.5372C67.7505 38.742 68.8755 38.182 69.7431 37.3169C70.6107 36.4518 71.1739 35.3283 71.3479 34.1155C71.3479 34.1155 86.3389 42.7558 90.8907 38.0132C91.0197 37.8578 91.138 37.6939 91.245 37.5226C92.0377 36.1593 92.381 34.581 92.2263 33.0116V32.9163M51.3417 36.555L44.8548 26.7154L56.1661 28.5144L51.3417 36.555Z" fill="#0095D4"/>
<path d="M109.767 66.4686C108.691 65.9508 104.779 70.4072 104.779 70.4072C104.489 71.7022 104.088 72.9698 103.58 74.1958C104.207 74.6319 105.311 75.3542 105.761 75.2179C106.21 75.0816 110.858 67.041 109.767 66.4686Z" fill="#0095D4"/>
<path d="M9.35217 84.1447C10.4697 84.2946 12.7456 79.1977 12.7456 79.1977C12.647 77.9504 12.647 76.6972 12.7456 75.4499C12.0642 75.2319 10.8922 74.9184 10.5242 75.1637C10.1563 75.4091 8.20741 83.9812 9.31129 84.1447" fill="#CA5098"/>
<path d="M50.7423 57.2976C47.0438 61.3281 43.5984 65.5837 40.4258 70.04C40.4258 70.04 20.6513 72.5748 13.6191 75.2323V78.8983H42.0339C42.0339 78.8983 53.6724 74.7008 63.6209 56.3164C63.6209 56.3164 55.7029 58.0744 52.7865 57.4067" fill="#0095D4"/>
<path d="M14.995 76.7173C14.9083 76.7173 14.8251 76.6828 14.7638 76.6215C14.7024 76.5601 14.668 76.4769 14.668 76.3902C14.668 76.3035 14.7024 76.2203 14.7638 76.1589C14.8251 76.0976 14.9083 76.0631 14.995 76.0631L41.9107 73.6509C46.4721 71.0731 50.4858 67.6288 53.7263 63.5116C54.9189 62.0351 55.8878 60.3912 56.6019 58.6327C56.6365 58.5594 56.6972 58.5016 56.772 58.4705C56.8469 58.4394 56.9307 58.4372 57.0071 58.4643C57.0835 58.4915 57.1471 58.5461 57.1855 58.6175C57.224 58.6889 57.2345 58.772 57.2151 58.8507C57.0924 59.1914 54.2442 67.1639 42.2241 74.2506C42.1841 74.2623 42.1415 74.2623 42.1015 74.2506L15.104 76.6764" fill="white"/>
<path d="M75.2174 47.8391C75.2174 47.8391 42.8505 42.6467 41.9783 52.8542C41.1061 63.0618 73.3913 55.0893 73.3913 55.0893C73.3913 55.0893 75.0402 61.7943 102.188 73.9643L103.55 70.2165C103.55 70.2165 87.1966 51.7776 75.1902 47.8391" fill="#CA5098"/>
<path d="M101.507 71.116C101.466 71.1177 101.425 71.1099 101.387 71.0934C101.349 71.0769 101.316 71.052 101.289 71.0206C91.0679 60.377 75.4909 51.9412 74.4143 51.3552C63.5933 50.6503 52.7268 51.2451 42.0474 53.1268C41.9625 53.1428 41.8747 53.1246 41.8032 53.0761C41.7317 53.0275 41.6823 52.9527 41.6658 52.8679C41.6533 52.7834 41.6729 52.6973 41.7209 52.6266C41.7688 52.556 41.8416 52.5059 41.9247 52.4863C52.6803 50.5887 63.6248 49.9893 74.5233 50.701C74.5634 50.6893 74.6059 50.6893 74.646 50.701C74.8095 50.7828 91.1224 59.4639 101.739 70.5164C101.797 70.5794 101.83 70.6621 101.83 70.7481C101.83 70.834 101.797 70.9167 101.739 70.9797C101.709 71.0107 101.673 71.0352 101.633 71.0516C101.593 71.068 101.55 71.076 101.507 71.0752" fill="white"/>
<path d="M74.2776 9.63965C74.858 11.1303 75.3139 12.6664 75.6405 14.2323C75.9557 15.8135 75.8714 17.4483 75.3952 18.9886C75.2643 19.4318 75.0308 19.838 74.7138 20.1742C74.3751 20.4563 73.9622 20.6347 73.5246 20.6879C73.0871 20.7411 72.6435 20.6668 72.2471 20.474C71.4589 20.0697 70.7843 19.4747 70.2846 18.7433C69.1345 17.2219 68.2499 15.5171 67.668 13.7008" fill="#E3E3E3"/>
<path d="M70.899 4.76053C65.9928 3.79293 60.9777 5.74176 57.0119 4.76053C55.1448 4.29718 50.1978 2.71632 45.2235 1.40801L43.4927 0.971902C42.7841 0.794736 42.1299 0.617576 41.394 0.467666C32.9445 -1.16772 30.4914 1.93951 29.6874 2.8526C28.7607 4.12002 28.5699 5.33293 29.8373 6.40955C32.0314 8.26299 38.9 9.73482 38.2459 11.9971C37.5917 14.2594 41.871 15.5404 46.014 14.8999C50.4847 14.4579 54.9868 15.3394 58.9607 17.4347C60.5944 18.246 62.3901 18.6783 64.214 18.6996C66.0379 18.7208 67.8431 18.3304 69.4953 17.5574C69.4953 17.5574 70.2993 9.58492 74.8648 11.3293C74.8648 11.3293 75.8188 5.74176 70.899 4.76053Z" fill="#142B2A"/>
<path d="M73.8816 16.7261C73.8477 16.7262 73.8149 16.7138 73.7897 16.6911C73.7645 16.6684 73.7487 16.6372 73.7453 16.6034C73.7411 16.5852 73.7412 16.5663 73.7454 16.5481C73.7497 16.5299 73.7581 16.5129 73.7699 16.4985C73.7818 16.484 73.7967 16.4724 73.8137 16.4646C73.8307 16.4569 73.8492 16.453 73.8679 16.4535C74.1538 16.417 74.4308 16.3293 74.6856 16.1946H74.7538C74.7538 16.1946 74.7538 16.1946 74.7538 16.0992C74.8014 15.2305 74.5135 14.3768 73.9497 13.7143C73.9276 13.6874 73.9154 13.6537 73.9154 13.6189C73.9154 13.584 73.9276 13.5503 73.9497 13.5235C73.9752 13.4985 74.0094 13.4845 74.0451 13.4845C74.0808 13.4845 74.115 13.4985 74.1405 13.5235C74.7566 14.2405 75.0694 15.1692 75.0127 16.1128C75.0072 16.1941 74.9839 16.2732 74.9446 16.3445C74.897 16.3939 74.8417 16.4353 74.781 16.4671C74.4991 16.6232 74.1885 16.7206 73.8679 16.7533" fill="#13110C"/>
<path d="M74.9463 14.1645H74.8507C74.81 14.1443 74.7757 14.1132 74.7516 14.0746C74.7275 14.0361 74.7146 13.9916 74.7143 13.9461C74.7104 13.9132 74.7146 13.8799 74.7265 13.849C74.7384 13.818 74.7576 13.7905 74.7825 13.7686C74.8065 13.7375 74.8376 13.7125 74.8732 13.6959C74.9089 13.6793 74.948 13.6714 74.9873 13.6731H75.0965C75.1334 13.691 75.1652 13.7179 75.1891 13.7512C75.2129 13.7846 75.228 13.8235 75.233 13.8642C75.2392 13.9055 75.2364 13.9477 75.2246 13.9878C75.2128 14.0279 75.1924 14.0649 75.1647 14.0963C75.1244 14.1061 75.0823 14.1061 75.0419 14.0963H74.9463" fill="#13110C"/>
<path d="M71.2665 15.1453C71.2317 15.1358 71.2015 15.114 71.1815 15.0839C71.1614 15.0539 71.1529 15.0176 71.1575 14.9818C71.2812 14.3667 71.6133 13.8132 72.0978 13.4146C72.1093 13.4004 72.1238 13.3889 72.1403 13.381C72.1569 13.3731 72.1749 13.369 72.1932 13.369C72.2115 13.369 72.2296 13.3731 72.2461 13.381C72.2626 13.3889 72.2771 13.4004 72.2886 13.4146C72.3136 13.4401 72.3275 13.4743 72.3275 13.51C72.3275 13.5456 72.3136 13.5799 72.2886 13.6054C71.8606 13.9484 71.5664 14.4306 71.4573 14.9682C71.4513 15.0008 71.4347 15.0306 71.4101 15.0528C71.3854 15.075 71.3541 15.0884 71.321 15.0908" fill="#13110C"/>
<path d="M75.1779 13.2915H75.0961C74.9118 13.1682 74.6894 13.115 74.4692 13.1416C74.451 13.1458 74.4321 13.1457 74.4139 13.1414C74.3957 13.1372 74.3787 13.1288 74.3643 13.117C74.3498 13.1051 74.3382 13.0902 74.3304 13.0732C74.3226 13.0562 74.3189 13.0376 74.3193 13.019C74.3152 12.9848 74.3242 12.9504 74.3444 12.9226C74.3646 12.8948 74.3946 12.8757 74.4283 12.8691C74.7142 12.845 75.0003 12.9118 75.246 13.0598C75.271 13.0853 75.285 13.1196 75.285 13.1553C75.285 13.1909 75.271 13.2252 75.246 13.2506C75.2288 13.2581 75.2103 13.262 75.1915 13.262C75.1727 13.262 75.1542 13.2581 75.137 13.2506" fill="#13110C"/>
<path d="M73.9911 18.3888C73.6694 18.3896 73.3519 18.3149 73.0643 18.1708C73.0393 18.1453 73.0254 18.1111 73.0254 18.0754C73.0254 18.0397 73.0393 18.0055 73.0643 17.98C73.089 17.9589 73.1204 17.9473 73.1529 17.9473C73.1854 17.9473 73.2168 17.9589 73.2415 17.98C73.4873 18.1014 73.7578 18.1645 74.0319 18.1645C74.3061 18.1645 74.5765 18.1014 74.8224 17.98C74.855 17.9661 74.8917 17.9654 74.9248 17.9781C74.9578 17.9909 74.9847 18.016 74.9995 18.0481C75.0141 18.0827 75.0152 18.1215 75.0026 18.1568C74.99 18.1921 74.9645 18.2214 74.9314 18.2389C74.6547 18.3698 74.3516 18.4351 74.0455 18.4297" fill="#13110C"/>
<path d="M80.1521 15.0635L80.2611 15.159L80.779 15.595C81.116 15.8768 81.4711 16.1363 81.842 16.3719L83.709 15.3498C83.5991 14.0775 83.2476 12.8379 82.6733 11.6974C82.4416 11.6974 82.428 12.9784 82.428 12.9784C82.428 12.9784 81.733 11.9291 81.5285 12.0381C81.3241 12.1471 81.7193 13.1829 81.7193 13.1829C81.7193 13.1829 80.9016 11.9972 80.6563 12.1744C80.411 12.3515 80.9425 13.6326 80.9425 13.6326C80.9425 13.6326 80.043 12.5696 79.8386 12.7195C79.6342 12.8694 80.2884 13.8098 80.4519 14.0823C80.1944 14.0094 79.9289 13.9682 79.6614 13.9597C79.5942 13.9753 79.5345 14.0137 79.4923 14.0683C79.45 14.123 79.428 14.1905 79.4298 14.2595C79.4482 14.3467 79.4907 14.4269 79.5524 14.4912C79.7217 14.6895 79.9087 14.872 80.1112 15.0363" fill="#0095D4"/>
<path d="M56.4097 39.2264H56.2598H55.5512C55.0976 39.1914 54.642 39.1914 54.1884 39.2264L53.2344 41.3388C54.1117 42.3639 55.1932 43.1947 56.4097 43.7782C56.5733 43.6011 55.8101 42.5244 55.8101 42.5244C55.8101 42.5244 57.0639 42.9605 57.1729 42.7289C57.2819 42.4972 56.2871 41.8703 56.2871 41.8703C56.2871 41.8703 57.718 42.3473 57.8271 42.0338C57.9361 41.7204 56.6823 40.9708 56.6823 40.9708C56.6823 40.9708 58.0451 41.2979 58.1814 40.9708C58.3177 40.6438 57.1184 40.3303 56.8186 40.2349H56.7232C56.993 40.124 57.2491 39.9823 57.4864 39.8124C57.5298 39.7505 57.553 39.6768 57.553 39.6012C57.553 39.5256 57.5298 39.4519 57.4864 39.39C57.4144 39.3347 57.3303 39.2973 57.2411 39.2809C56.9673 39.225 56.6891 39.1931 56.4097 39.1855" fill="white"/>
<path d="M24.3727 47.2125C23.9638 47.2125 23.5549 47.2125 23.1461 47.2125C21.1967 46.9789 19.2807 46.5217 17.4359 45.8496C16.3048 45.468 15.1191 45.0728 13.9335 44.7866C10.2402 43.9144 6.96945 44.6095 5.18416 46.6264C5.1573 46.6486 5.12356 46.6607 5.08875 46.6607C5.05394 46.6607 5.02024 46.6486 4.99338 46.6264C4.96752 46.5987 4.95312 46.5622 4.95312 46.5242C4.95312 46.4863 4.96752 46.4498 4.99338 46.422C6.84682 44.3233 10.213 43.6146 14.0152 44.5141C15.2009 44.7866 16.3865 45.1818 17.5313 45.5634C19.3578 46.2337 21.2556 46.691 23.187 46.9263C25.4519 47.0105 27.7184 46.809 29.9329 46.3266C33.0402 45.7679 36.27 45.1955 39.2682 46.3266C39.2854 46.3327 39.3011 46.3421 39.3146 46.3544C39.328 46.3666 39.3389 46.3814 39.3465 46.398C39.3541 46.4145 39.3583 46.4323 39.359 46.4505C39.3596 46.4687 39.3565 46.4868 39.35 46.5038C39.3439 46.5209 39.3345 46.5367 39.3222 46.5501C39.31 46.5635 39.2952 46.5744 39.2786 46.582C39.2621 46.5896 39.2443 46.5939 39.2261 46.5945C39.2079 46.5951 39.1898 46.592 39.1728 46.5855C36.2428 45.4817 33.2037 46.0268 29.9738 46.5855C28.1339 46.9661 26.2643 47.185 24.3863 47.2397" fill="#13110C"/>
<path d="M22.6535 43.1917C20.5546 43.2138 18.4614 42.9665 16.4255 42.4557C15.9348 42.3331 15.4306 42.1832 14.94 42.0333C12.7322 41.3927 10.4427 40.6704 8.38483 41.5972C8.35224 41.6111 8.31551 41.6117 8.28244 41.599C8.24936 41.5863 8.22254 41.5612 8.20766 41.529C8.1971 41.4927 8.19949 41.4538 8.2144 41.419C8.22931 41.3842 8.25582 41.3556 8.28943 41.3382C10.4154 40.4251 12.7595 41.1066 15.0081 41.7743L16.48 42.1832C21.8631 43.546 27.6687 42.6602 32.8338 41.8561C32.8517 41.8521 32.8702 41.8518 32.8883 41.8552C32.9063 41.8586 32.9235 41.8656 32.9388 41.8758C32.954 41.886 32.9671 41.8991 32.9771 41.9145C32.9872 41.9298 32.9941 41.9471 32.9973 41.9651C33.0012 41.9841 33.0011 42.0036 32.9969 42.0225C32.9927 42.0414 32.9845 42.0591 32.9729 42.0746C32.9613 42.09 32.9466 42.1029 32.9296 42.1122C32.9127 42.1215 32.8939 42.1271 32.8747 42.1287C29.5186 42.7467 26.1194 43.1021 22.7081 43.1917" fill="#13110C"/>
<path d="M24.6853 39.7713C21.7488 39.6518 18.8359 39.1946 16.0041 38.4085L14.8185 38.1359C10.3893 37.1274 4.78813 36.3233 0.686052 39.2398C0.674603 39.2517 0.660851 39.2612 0.645627 39.2677C0.630403 39.2742 0.614019 39.2776 0.597466 39.2776C0.580913 39.2776 0.564529 39.2742 0.549305 39.2677C0.534081 39.2612 0.520329 39.2517 0.508879 39.2398C0.486725 39.2129 0.474609 39.1792 0.474609 39.1444C0.474609 39.1096 0.486725 39.0758 0.508879 39.049C4.69273 36.078 10.3757 36.8821 14.8457 37.9042L16.0314 38.1904C20.4606 39.2261 25.0396 40.3028 29.2507 38.8037C29.2686 38.7974 29.2876 38.795 29.3064 38.7964C29.3253 38.7979 29.3437 38.8033 29.3603 38.8123C29.377 38.8213 29.3916 38.8336 29.4033 38.8486C29.4149 38.8635 29.4233 38.8807 29.4279 38.8991C29.4344 38.9161 29.4374 38.9342 29.4368 38.9523C29.4362 38.9705 29.432 38.9884 29.4243 39.0049C29.4167 39.0214 29.4059 39.0362 29.3924 39.0485C29.379 39.0607 29.3633 39.0702 29.3461 39.0762C27.8366 39.5877 26.2517 39.841 24.658 39.8258" fill="#13110C"/>
<path d="M51.7912 40.0572C51.722 40.0552 51.6552 40.0314 51.6004 39.989C51.0417 39.5665 37.9723 29.509 40.8887 24.4256C43.3554 20.2145 57.0653 21.7 57.6513 21.7818C57.7369 21.7953 57.8141 21.8408 57.8672 21.9091C57.9204 21.9775 57.9455 22.0635 57.9376 22.1497C57.9342 22.1922 57.9222 22.2336 57.9024 22.2713C57.8825 22.309 57.8552 22.3423 57.822 22.3691C57.7888 22.3959 57.7505 22.4157 57.7095 22.4271C57.6684 22.4386 57.6255 22.4416 57.5832 22.4359C55.161 22.1921 52.7261 22.0965 50.2921 22.1497C45.4132 22.2996 42.3469 23.1991 41.4338 24.7663C40.071 27.1104 42.9602 30.9535 45.6313 33.7609C47.607 35.8116 49.7295 37.7155 51.982 39.4575C52.0478 39.5132 52.091 39.591 52.1036 39.6763C52.1161 39.7616 52.0971 39.8486 52.0502 39.9209C52.0192 39.9607 51.9801 39.9935 51.9354 40.017C51.8908 40.0405 51.8416 40.0542 51.7912 40.0572Z" fill="white"/>
</svg>
