<svg width="111" height="85" viewBox="0 0 111 85" fill="none" xmlns="http://www.w3.org/2000/svg">
<path d="M92.6462 32.8345C92.6462 32.5347 92.6462 32.2349 92.5508 31.9214C91.8422 27.833 85.9684 18.2932 84.4829 15.8947L82.6976 16.9576L85.4233 31.4989C82.0228 28.7795 78.3723 26.3885 74.5207 24.3578C72.5992 27.7648 67.9928 20.8281 67.9928 20.8281C67.9928 20.8281 41.4996 15.0497 39.3737 24.5894C37.7928 31.7579 45.5472 37.6452 49.4721 40.1119L43.0669 50.7555L59.6933 47.9481L66.8617 38.9126H66.9571C68.1704 38.742 69.2954 38.182 70.163 37.3169C71.0306 36.4518 71.5938 35.3283 71.7679 34.1155C71.7679 34.1155 86.7589 42.7558 91.3107 38.0132C91.4396 37.8578 91.5579 37.6939 91.665 37.5226C92.4576 36.1593 92.8009 34.581 92.6462 33.0116V32.9163M51.7617 36.555L45.2747 26.7154L56.586 28.5144L51.7617 36.555Z" fill="#0095D4"/>
<path d="M110.187 66.4686C109.111 65.9508 105.199 70.4072 105.199 70.4072C104.909 71.7022 104.508 72.9698 104 74.1958C104.627 74.6319 105.731 75.3542 106.181 75.2179C106.63 75.0816 111.277 67.041 110.187 66.4686Z" fill="#0095D4"/>
<path d="M9.77405 84.1447C10.8916 84.2946 13.1675 79.1977 13.1675 79.1977C13.0689 77.9504 13.0689 76.6972 13.1675 75.4499C12.4861 75.2319 11.3141 74.9184 10.9461 75.1637C10.5781 75.4091 8.62928 83.9812 9.73317 84.1447" fill="#CA5098"/>
<path d="M51.1622 57.2976C47.4637 61.3281 44.0183 65.5837 40.8457 70.04C40.8457 70.04 21.0712 72.5748 14.0391 75.2323V78.8983H42.4538C42.4538 78.8983 54.0923 74.7008 64.0409 56.3164C64.0409 56.3164 56.1229 58.0744 53.2064 57.4067" fill="#0095D4"/>
<path d="M15.415 76.7173C15.3282 76.7173 15.245 76.6828 15.1837 76.6215C15.1223 76.5601 15.0879 76.4769 15.0879 76.3902C15.0879 76.3035 15.1223 76.2203 15.1837 76.1589C15.245 76.0976 15.3282 76.0631 15.415 76.0631L42.3306 73.6509C46.892 71.0731 50.9058 67.6288 54.1462 63.5116C55.3388 62.0351 56.3077 60.3912 57.0218 58.6327C57.0564 58.5594 57.1171 58.5016 57.192 58.4705C57.2668 58.4394 57.3506 58.4372 57.427 58.4643C57.5034 58.4915 57.567 58.5461 57.6055 58.6175C57.6439 58.6889 57.6544 58.772 57.635 58.8507C57.5124 59.1914 54.6641 67.1639 42.644 74.2506C42.604 74.2623 42.5614 74.2623 42.5214 74.2506L15.524 76.6764" fill="white"/>
<path d="M75.6393 47.8391C75.6393 47.8391 43.2724 42.6467 42.4002 52.8542C41.528 63.0618 73.8132 55.0893 73.8132 55.0893C73.8132 55.0893 75.4621 61.7943 102.609 73.9643L103.972 70.2165C103.972 70.2165 87.6185 51.7776 75.612 47.8391" fill="#CA5098"/>
<path d="M101.927 71.116C101.886 71.1177 101.845 71.1099 101.807 71.0934C101.769 71.0769 101.736 71.052 101.709 71.0206C91.4879 60.377 75.9109 51.9412 74.8342 51.3552C64.0132 50.6503 53.1467 51.2451 42.4673 53.1268C42.3824 53.1428 42.2946 53.1246 42.2231 53.0761C42.1516 53.0275 42.1022 52.9527 42.0857 52.8679C42.0732 52.7834 42.0928 52.6973 42.1408 52.6266C42.1887 52.556 42.2615 52.5059 42.3447 52.4863C53.1002 50.5887 64.0447 49.9893 74.9432 50.701C74.9833 50.6893 75.0258 50.6893 75.0659 50.701C75.2294 50.7828 91.5424 59.4639 102.159 70.5164C102.217 70.5794 102.25 70.6621 102.25 70.7481C102.25 70.834 102.217 70.9167 102.159 70.9797C102.129 71.0107 102.093 71.0352 102.053 71.0516C102.013 71.068 101.97 71.076 101.927 71.0752" fill="white"/>
<path d="M74.6976 9.63965C75.278 11.1303 75.7338 12.6664 76.0604 14.2323C76.3756 15.8135 76.2913 17.4483 75.8151 18.9886C75.6842 19.4318 75.4507 19.838 75.1337 20.1742C74.795 20.4563 74.3821 20.6347 73.9445 20.6879C73.507 20.7411 73.0634 20.6668 72.667 20.474C71.8788 20.0697 71.2042 19.4747 70.7045 18.7433C69.5545 17.2219 68.6698 15.5171 68.0879 13.7008" fill="#E3E3E3"/>
<path d="M71.3189 4.76053C66.4128 3.79293 61.3976 5.74176 57.4318 4.76053C55.5647 4.29718 50.6177 2.71632 45.6434 1.40801L43.9127 0.971902C43.204 0.794736 42.5498 0.617576 41.8139 0.467666C33.3644 -1.16772 30.9114 1.93951 30.1073 2.8526C29.1806 4.12002 28.9898 5.33293 30.2572 6.40955C32.4513 8.26299 39.32 9.73482 38.6658 11.9971C38.0116 14.2594 42.2909 15.5404 46.4339 14.8999C50.9046 14.4579 55.4067 15.3394 59.3806 17.4347C61.0144 18.246 62.81 18.6783 64.6339 18.6996C66.4578 18.7208 68.2631 18.3304 69.9152 17.5574C69.9152 17.5574 70.7193 9.58492 75.2847 11.3293C75.2847 11.3293 76.2387 5.74176 71.3189 4.76053Z" fill="#142B2A"/>
<path d="M74.3034 16.7261C74.2695 16.7262 74.2368 16.7138 74.2116 16.6911C74.1864 16.6684 74.1705 16.6372 74.1671 16.6034C74.163 16.5852 74.163 16.5663 74.1673 16.5481C74.1716 16.5299 74.18 16.5129 74.1918 16.4985C74.2036 16.484 74.2186 16.4724 74.2356 16.4646C74.2526 16.4569 74.2711 16.453 74.2898 16.4535C74.5757 16.417 74.8527 16.3293 75.1075 16.1946H75.1757C75.1757 16.1946 75.1757 16.1946 75.1757 16.0992C75.2233 15.2305 74.9354 14.3768 74.3716 13.7143C74.3494 13.6874 74.3373 13.6537 74.3373 13.6189C74.3373 13.584 74.3494 13.5503 74.3716 13.5235C74.3971 13.4985 74.4313 13.4845 74.467 13.4845C74.5026 13.4845 74.5369 13.4985 74.5624 13.5235C75.1784 14.2405 75.4913 15.1692 75.4346 16.1128C75.429 16.1941 75.4058 16.2732 75.3664 16.3445C75.3188 16.3939 75.2636 16.4353 75.2029 16.4671C74.921 16.6232 74.6104 16.7206 74.2898 16.7533" fill="#13110C"/>
<path d="M75.3662 14.1645H75.2707C75.2299 14.1443 75.1956 14.1132 75.1715 14.0746C75.1474 14.0361 75.1345 13.9916 75.1342 13.9461C75.1304 13.9132 75.1345 13.8799 75.1464 13.849C75.1583 13.818 75.1775 13.7905 75.2024 13.7686C75.2264 13.7375 75.2575 13.7125 75.2932 13.6959C75.3288 13.6793 75.3679 13.6714 75.4072 13.6731H75.5164C75.5533 13.691 75.5852 13.7179 75.609 13.7512C75.6328 13.7846 75.6479 13.8235 75.6529 13.8642C75.6591 13.9055 75.6563 13.9477 75.6445 13.9878C75.6327 14.0279 75.6123 14.0649 75.5847 14.0963C75.5443 14.1061 75.5022 14.1061 75.4618 14.0963H75.3662" fill="#13110C"/>
<path d="M71.6864 15.1453C71.6516 15.1358 71.6214 15.114 71.6014 15.0839C71.5813 15.0539 71.5728 15.0176 71.5774 14.9818C71.7011 14.3667 72.0332 13.8132 72.5177 13.4146C72.5292 13.4004 72.5438 13.3889 72.5603 13.381C72.5768 13.3731 72.5948 13.369 72.6131 13.369C72.6314 13.369 72.6495 13.3731 72.666 13.381C72.6825 13.3889 72.697 13.4004 72.7085 13.4146C72.7335 13.4401 72.7475 13.4743 72.7475 13.51C72.7475 13.5456 72.7335 13.5799 72.7085 13.6054C72.2805 13.9484 71.9863 14.4306 71.8772 14.9682C71.8713 15.0008 71.8547 15.0306 71.83 15.0528C71.8053 15.075 71.774 15.0884 71.7409 15.0908" fill="#13110C"/>
<path d="M75.5978 13.2915H75.5161C75.3318 13.1682 75.1093 13.115 74.8891 13.1416C74.8709 13.1458 74.852 13.1457 74.8338 13.1414C74.8156 13.1372 74.7987 13.1288 74.7842 13.117C74.7697 13.1051 74.7581 13.0902 74.7504 13.0732C74.7426 13.0562 74.7388 13.0376 74.7392 13.019C74.7352 12.9848 74.7441 12.9504 74.7643 12.9226C74.7845 12.8948 74.8145 12.8757 74.8483 12.8691C75.1341 12.845 75.4203 12.9118 75.666 13.0598C75.6909 13.0853 75.7049 13.1196 75.7049 13.1553C75.7049 13.1909 75.6909 13.2252 75.666 13.2506C75.6488 13.2581 75.6302 13.262 75.6114 13.262C75.5927 13.262 75.5741 13.2581 75.5569 13.2506" fill="#13110C"/>
<path d="M74.411 18.3888C74.0893 18.3896 73.7719 18.3149 73.4842 18.1708C73.4593 18.1453 73.4453 18.1111 73.4453 18.0754C73.4453 18.0397 73.4593 18.0055 73.4842 17.98C73.5089 17.9589 73.5403 17.9473 73.5728 17.9473C73.6053 17.9473 73.6367 17.9589 73.6614 17.98C73.9072 18.1014 74.1777 18.1645 74.4519 18.1645C74.726 18.1645 74.9965 18.1014 75.2423 17.98C75.2749 17.9661 75.3116 17.9654 75.3447 17.9781C75.3778 17.9909 75.4046 18.016 75.4195 18.0481C75.434 18.0827 75.4351 18.1215 75.4225 18.1568C75.4099 18.1921 75.3845 18.2214 75.3513 18.2389C75.0746 18.3698 74.7715 18.4351 74.4655 18.4297" fill="#13110C"/>
<path d="M80.574 15.0635L80.683 15.159L81.2008 15.595C81.5379 15.8768 81.893 16.1363 82.2638 16.3719L84.1309 15.3498C84.021 14.0775 83.6695 12.8379 83.0952 11.6974C82.8635 11.6974 82.8498 12.9784 82.8498 12.9784C82.8498 12.9784 82.1548 11.9291 81.9504 12.0381C81.746 12.1471 82.1412 13.1829 82.1412 13.1829C82.1412 13.1829 81.3235 11.9972 81.0782 12.1744C80.8329 12.3515 81.3644 13.6326 81.3644 13.6326C81.3644 13.6326 80.4649 12.5696 80.2605 12.7195C80.0561 12.8694 80.7102 13.8098 80.8738 14.0823C80.6163 14.0094 80.3508 13.9682 80.0833 13.9597C80.0161 13.9753 79.9563 14.0137 79.9141 14.0683C79.8719 14.123 79.8499 14.1905 79.8517 14.2595C79.8701 14.3467 79.9126 14.4269 79.9743 14.4912C80.1436 14.6895 80.3306 14.872 80.5331 15.0363" fill="#0095D4"/>
<path d="M56.8316 39.2264H56.6817H55.9731C55.5195 39.1914 55.0638 39.1914 54.6102 39.2264L53.6562 41.3388C54.5336 42.3639 55.615 43.1947 56.8316 43.7782C56.9951 43.6011 56.232 42.5244 56.232 42.5244C56.232 42.5244 57.4857 42.9605 57.5948 42.7289C57.7038 42.4972 56.7089 41.8703 56.7089 41.8703C56.7089 41.8703 58.1399 42.3473 58.2489 42.0338C58.358 41.7204 57.1042 40.9708 57.1042 40.9708C57.1042 40.9708 58.467 41.2979 58.6033 40.9708C58.7396 40.6438 57.5403 40.3303 57.2405 40.2349H57.1451C57.4149 40.124 57.671 39.9823 57.9082 39.8124C57.9516 39.7505 57.9749 39.6768 57.9749 39.6012C57.9749 39.5256 57.9516 39.4519 57.9082 39.39C57.8363 39.3347 57.7522 39.2973 57.6629 39.2809C57.3891 39.225 57.1109 39.1931 56.8316 39.1855" fill="white"/>
<path d="M24.7906 47.2125C24.3818 47.2125 23.9729 47.2125 23.5641 47.2125C21.6146 46.9789 19.6986 46.5217 17.8539 45.8496C16.7227 45.468 15.5371 45.0728 14.3514 44.7866C10.6582 43.9144 7.38742 44.6095 5.60213 46.6264C5.57527 46.6486 5.54153 46.6607 5.50672 46.6607C5.4719 46.6607 5.43821 46.6486 5.41135 46.6264C5.38549 46.5987 5.37109 46.5622 5.37109 46.5242C5.37109 46.4863 5.38549 46.4498 5.41135 46.422C7.26479 44.3233 10.6309 43.6146 14.4332 44.5141C15.6189 44.7866 16.8045 45.1818 17.9493 45.5634C19.7758 46.2337 21.6736 46.691 23.605 46.9263C25.8699 47.0105 28.1364 46.809 30.3509 46.3266C33.4581 45.7679 36.688 45.1955 39.6862 46.3266C39.7034 46.3327 39.7191 46.3421 39.7325 46.3544C39.746 46.3666 39.7568 46.3814 39.7644 46.398C39.7721 46.4145 39.7763 46.4323 39.7769 46.4505C39.7775 46.4687 39.7745 46.4868 39.768 46.5038C39.7619 46.5209 39.7525 46.5367 39.7402 46.5501C39.7279 46.5635 39.7131 46.5744 39.6966 46.582C39.6801 46.5896 39.6623 46.5939 39.6441 46.5945C39.6259 46.5951 39.6078 46.592 39.5908 46.5855C36.6608 45.4817 33.6217 46.0268 30.3918 46.5855C28.5519 46.9661 26.6823 47.185 24.8042 47.2397" fill="#13110C"/>
<path d="M23.0735 43.1917C20.9745 43.2138 18.8814 42.9665 16.8454 42.4557C16.3548 42.3331 15.8505 42.1832 15.3599 42.0333C13.1521 41.3927 10.8626 40.6704 8.80475 41.5972C8.77216 41.6111 8.73543 41.6117 8.70236 41.599C8.66929 41.5863 8.64246 41.5612 8.62758 41.529C8.61702 41.4927 8.61941 41.4538 8.63432 41.419C8.64923 41.3842 8.67574 41.3556 8.70935 41.3382C10.8353 40.4251 13.1794 41.1066 15.4281 41.7743L16.8999 42.1832C22.283 43.546 28.0886 42.6602 33.2537 41.8561C33.2716 41.8521 33.2902 41.8518 33.3082 41.8552C33.3262 41.8586 33.3434 41.8656 33.3587 41.8758C33.374 41.886 33.387 41.8991 33.3971 41.9145C33.4071 41.9298 33.414 41.9471 33.4172 41.9651C33.4212 41.9841 33.421 42.0036 33.4168 42.0225C33.4126 42.0414 33.4044 42.0591 33.3928 42.0746C33.3812 42.09 33.3665 42.1029 33.3495 42.1122C33.3326 42.1215 33.3139 42.1271 33.2946 42.1287C29.9385 42.7467 26.5393 43.1021 23.128 43.1917" fill="#13110C"/>
<path d="M25.1052 39.7713C22.1687 39.6518 19.2558 39.1946 16.424 38.4085L15.2384 38.1359C10.8092 37.1274 5.20806 36.3233 1.10597 39.2398C1.09453 39.2517 1.08077 39.2612 1.06555 39.2677C1.05033 39.2742 1.03394 39.2776 1.01739 39.2776C1.00083 39.2776 0.984451 39.2742 0.969227 39.2677C0.954003 39.2612 0.940251 39.2517 0.928801 39.2398C0.906647 39.2129 0.894531 39.1792 0.894531 39.1444C0.894531 39.1096 0.906647 39.0758 0.928801 39.049C5.11265 36.078 10.7956 36.8821 15.2656 37.9042L16.4513 38.1904C20.8805 39.2261 25.4595 40.3028 29.6706 38.8037C29.6885 38.7974 29.7075 38.795 29.7264 38.7964C29.7452 38.7979 29.7636 38.8033 29.7803 38.8123C29.7969 38.8213 29.8115 38.8336 29.8232 38.8486C29.8348 38.8635 29.8432 38.8807 29.8478 38.8991C29.8543 38.9161 29.8574 38.9342 29.8567 38.9523C29.8561 38.9705 29.8519 38.9884 29.8443 39.0049C29.8366 39.0214 29.8258 39.0362 29.8124 39.0485C29.7989 39.0607 29.7832 39.0702 29.766 39.0762C28.2565 39.5877 26.6716 39.841 25.0779 39.8258" fill="#13110C"/>
<path d="M52.2112 40.0572C52.142 40.0552 52.0751 40.0314 52.0203 39.989C51.4616 39.5665 38.3922 29.509 41.3086 24.4256C43.7753 20.2145 57.4853 21.7 58.0713 21.7818C58.1568 21.7953 58.234 21.8408 58.2872 21.9091C58.3403 21.9775 58.3655 22.0635 58.3575 22.1497C58.3542 22.1922 58.3422 22.2336 58.3223 22.2713C58.3024 22.309 58.2751 22.3423 58.2419 22.3691C58.2087 22.3959 58.1705 22.4157 58.1294 22.4271C58.0883 22.4386 58.0454 22.4416 58.0031 22.4359C55.5809 22.1921 53.146 22.0965 50.7121 22.1497C45.8332 22.2996 42.7668 23.1991 41.8537 24.7663C40.4909 27.1104 43.3801 30.9535 46.0512 33.7609C48.0269 35.8116 50.1494 37.7155 52.4019 39.4575C52.4677 39.5132 52.511 39.591 52.5235 39.6763C52.536 39.7616 52.5171 39.8486 52.4701 39.9209C52.4391 39.9607 52.4 39.9935 52.3554 40.017C52.3107 40.0405 52.2615 40.0542 52.2112 40.0572Z" fill="white"/>
</svg>
