<svg width="58" height="100" viewBox="0 0 58 100" fill="none" xmlns="http://www.w3.org/2000/svg">
<path d="M44.0323 64.9708C42.6699 64.9708 41.2341 64.9708 39.7544 64.795C29.8654 64.0038 22.3058 60.7807 22.5548 57.4698C22.8039 54.1588 30.7591 52.1809 40.6628 52.9721C44.8559 53.2419 48.9846 54.1408 52.9105 55.6384C56.2215 57.0156 57.9796 58.6711 57.8624 60.2973C57.6426 63.1248 51.8557 64.9708 44.0323 64.9708ZM36.5167 53.3383C29.0742 53.3383 23.258 55.0378 23.0676 57.5137C22.8478 60.4438 30.51 63.5204 39.7983 64.2675C49.0867 65.0147 57.1298 63.1834 57.3789 60.268C57.4814 58.8908 55.7967 57.3379 52.7494 56.1219C48.8678 54.6531 44.7895 53.7693 40.6481 53.4995C39.1831 53.3969 37.8645 53.3383 36.546 53.3383" fill="#A9D3A5"/>
<path d="M37.5274 48.5627C37.5274 48.5627 36.707 59.2576 18.013 61.9386C18.013 61.9386 20.4304 81.5116 16.7677 88.3094L12.3726 89.2031L8.22656 58.7009L25.6166 46.7314C27.9702 47.7452 30.4748 48.364 33.0297 48.5627C34.3336 48.636 36.5312 49.0755 37.5274 48.5627Z" fill="#0095D4"/>
<path d="M18.1175 47.3903C17.875 47.3194 17.6699 47.1564 17.5461 46.9361L16.1836 45.0462L16.3301 44.973C19.6957 43.0638 22.3375 40.0976 23.8458 36.5343C24.4375 35.1058 24.9271 33.6371 25.3108 32.1392C25.6602 30.9517 25.9053 29.736 26.0434 28.5059C26.0577 28.301 26.0577 28.0954 26.0434 27.8906C26.0299 26.9966 26.2309 26.1124 26.6294 25.3121C26.8274 24.9469 27.1295 24.6489 27.4974 24.4559C27.8652 24.2629 28.2821 24.1835 28.6951 24.228C29.5964 24.3786 30.45 24.7378 31.1877 25.2771C31.9254 25.8164 32.5267 26.5207 32.9437 27.3339C33.5514 28.8458 33.6288 30.519 33.1634 32.0806C32.6987 33.603 32.0231 35.0528 31.1563 36.3878C29.702 38.8805 27.9016 41.1544 25.8089 43.1417C23.7527 45.1374 21.237 46.5965 18.4837 47.3903C18.3577 47.4119 18.2288 47.4119 18.1028 47.3903M16.5499 45.1341L17.7365 46.7603C17.8537 46.9215 17.971 47.068 18.1175 47.0973C18.2141 47.1174 18.3139 47.1174 18.4105 47.0973C21.1212 46.3122 23.6 44.8792 25.6331 42.9219C27.6588 40.9495 29.4082 38.7121 30.834 36.2706C31.6935 34.9618 32.3597 33.5357 32.8118 32.0366C33.2596 30.5432 33.1873 28.942 32.6068 27.495C32.2005 26.7395 31.6305 26.0843 30.9385 25.5774C30.2465 25.0704 29.45 24.7246 28.6072 24.5649C28.2467 24.5312 27.8843 24.6033 27.5642 24.7724C27.2441 24.9415 26.9803 25.2004 26.8052 25.5172C26.4382 26.2852 26.2527 27.1273 26.2631 27.9785C26.2631 28.1836 26.2631 28.3887 26.2631 28.5938C26.1269 29.8398 25.8768 31.0707 25.5159 32.271C25.1368 33.7703 24.6471 35.2393 24.0509 36.6662C22.5423 40.236 19.9082 43.2148 16.5499 45.1488" fill="#13110C"/>
<path d="M26.2762 12.493C26.2762 12.493 24.6793 7.9807 28.3419 6.208C29.0661 5.80577 29.878 5.58766 30.7063 5.57294C31.5345 5.55822 32.3537 5.7473 33.0917 6.12354C33.8297 6.49978 34.464 7.05169 34.9386 7.73063C35.4132 8.40956 35.7137 9.19473 35.8136 10.0171C36.2824 13.2841 34.0702 13.7822 34.0702 13.7822L26.2762 12.493Z" fill="#E3E3E3"/>
<path d="M27.3605 15.1598C28.3607 16.8786 29.9472 18.179 31.8289 18.8224C32.5207 19.0958 33.2907 19.0958 33.9825 18.8224C34.3703 18.599 34.7091 18.2995 34.9785 17.9421C35.2479 17.5846 35.4423 17.1764 35.5501 16.742C36.0317 15.0683 36.2006 13.3201 36.0482 11.5851C36.0891 10.3514 35.7517 9.1347 35.0813 8.09827C34.4467 7.39991 33.6299 6.89252 32.7226 6.63323C32.6078 6.58098 32.4824 6.55593 32.3563 6.56C32.213 6.60038 32.0821 6.67591 31.9754 6.77974C31.0766 7.49719 30.0536 8.04345 28.9574 8.3913C28.2102 8.62571 26.9943 8.55244 26.4522 9.24101C25.3681 10.706 26.6134 13.8412 27.3605 15.1012" fill="#E3E3E3"/>
<path d="M30.0414 16.0085V15.8473C29.7176 14.4454 29.5748 13.0077 29.6166 11.5694C28.8515 11.9187 28.1165 12.3303 27.419 12.8001L27.2578 12.551C28.0259 12.0246 28.8457 11.5779 29.7045 11.2178L29.9095 11.1152V11.3496C29.8523 12.7812 29.9804 14.2142 30.2905 15.6129C30.8145 15.39 31.307 15.0994 31.7555 14.7486L31.9313 14.983C31.4043 15.3783 30.8281 15.7034 30.2172 15.9499L30.0414 16.0085Z" fill="#13110C"/>
<path d="M28.3428 13.548C28.241 13.5646 28.137 13.5646 28.0352 13.548H27.918V13.4014V13.2989V13.211C27.9766 13.1116 28.0709 13.0383 28.1817 13.0059C28.236 12.9777 28.2963 12.9629 28.3575 12.9629C28.4187 12.9629 28.479 12.9777 28.5333 13.0059C28.5757 13.0362 28.6109 13.0756 28.6363 13.1213C28.6616 13.1669 28.6765 13.2175 28.6798 13.2696C28.6779 13.3643 28.6433 13.4554 28.5819 13.5275C28.5205 13.5996 28.436 13.6483 28.3428 13.6652H28.2403" fill="#13110C"/>
<path d="M30.7891 10.3985V10.1202C31.7011 9.85926 32.6316 9.66827 33.5726 9.54883V9.84181C32.643 9.96505 31.7229 10.1511 30.8184 10.3985" fill="#13110C"/>
<path d="M31.932 12.1414H31.8294C31.759 12.122 31.6939 12.087 31.639 12.0388H31.5511C31.5139 12.0146 31.4827 11.9822 31.4599 11.9441C31.437 11.9061 31.4231 11.8633 31.4192 11.8191C31.4045 11.7714 31.4045 11.7203 31.4192 11.6726C31.4703 11.5508 31.5641 11.4518 31.683 11.3942C31.7357 11.3694 31.7932 11.3566 31.8514 11.3566C31.9097 11.3566 31.9672 11.3694 32.0199 11.3942C32.0826 11.4224 32.1378 11.465 32.181 11.5184C32.2243 11.5718 32.2544 11.6347 32.269 11.7019C32.2907 11.7639 32.2954 11.8306 32.2825 11.895C32.2696 11.9595 32.2396 12.0193 32.1957 12.0682C32.1631 12.1107 32.1209 12.1448 32.0725 12.1677C32.0241 12.1907 31.9709 12.2017 31.9174 12.2M31.9174 11.7751V11.7019V11.7751Z" fill="#13110C"/>
<path d="M44.7647 52.8547C44.7647 52.8547 43.9443 63.5495 25.2503 66.2306C25.2503 66.2306 27.6676 85.8035 24.005 92.6013L19.6099 93.495L15.4785 62.9489L32.8686 50.9795C35.2226 51.9943 37.7266 52.6178 40.2817 52.8254C41.5856 52.8254 43.7831 53.3382 44.7794 52.8254" fill="#0095D4"/>
<path d="M30.9939 21.2689L27.1262 24.4041C27.5198 28.1175 27.5737 31.8591 27.2873 35.5824C26.9968 39.3355 26.4287 43.062 25.5879 46.7313C25.5879 46.7313 33.6017 54.7012 44.7213 53.1629C44.7213 53.1629 49.4974 23.7009 43.813 21.3129C39.7988 19.6134 37.8063 18.9834 37.8063 18.9834C37.8063 18.9834 36.1655 24.4041 30.9939 21.2689Z" fill="#9BCEA4"/>
<path d="M5.04815 21.2833C4.59796 21.2869 4.15099 21.2074 3.72962 21.0489C3.11144 20.8173 2.55336 20.4495 2.09683 19.9726C1.64029 19.4958 1.29706 18.9223 1.09256 18.2946C0.729178 17.4096 0.638223 16.4363 0.831365 15.4993C1.02451 14.5623 1.49294 13.7043 2.17668 13.0351C2.80389 12.6014 3.47109 12.2286 4.16916 11.9217C5.33591 11.1579 6.27681 10.0956 6.89412 8.8451C7.59624 7.65039 8.4924 6.58093 9.54584 5.6806C11.3478 4.31811 13.5601 4.39139 15.699 4.46464C17.838 4.53789 20.1967 5.46086 21.9841 3.90791C22.3993 3.52641 22.7861 3.11511 23.1414 2.67728C23.4445 2.30387 23.7673 1.94685 24.1084 1.60779C24.9141 0.874013 25.8997 0.366815 26.9651 0.13778C28.0305 -0.0912555 29.1376 -0.033972 30.1737 0.303876C31.223 0.55436 32.2059 1.02828 33.0554 1.69323C33.9049 2.35817 34.601 3.1985 35.0962 4.15695C35.4478 5.07992 35.8141 6.94055 34.9644 7.57052C34.1146 8.20049 33.4261 7.57051 32.7375 7.38006C32.3592 7.23501 31.9527 7.17807 31.5491 7.21361C31.1454 7.24915 30.7553 7.37621 30.4081 7.58514C29.7264 8.01975 29.1547 8.60649 28.7379 9.29926C28.4675 9.76013 28.132 10.1796 27.7417 10.5446C26.9799 11.1159 26.0129 11.1892 25.2658 11.8045C24.6587 12.3625 24.1399 13.0096 23.7275 13.7237C22.8484 15.1887 21.9841 16.6538 20.2553 17.0494C19.3998 17.2488 18.5129 17.2737 17.6475 17.1226C16.9736 17.0054 16.3436 16.6684 15.6844 16.5659C15.0481 16.4971 14.405 16.5318 13.7798 16.6684C12.1347 17.1976 10.6317 18.0944 9.38471 19.2909C8.16745 20.3986 6.62693 21.0867 4.98958 21.254" fill="#0095D4"/>
<path d="M30.8027 17.562V17.269C31.4562 17.2207 32.0813 16.9829 32.6018 16.5848C33.1222 16.1867 33.5152 15.6455 33.7328 15.0275L33.9965 15.1154C33.7687 15.7786 33.3546 16.362 32.8038 16.796C32.253 17.2299 31.5887 17.4958 30.8906 17.562" fill="#13110C"/>
<path d="M18.3354 65.4255C18.3354 65.4255 34.1286 56.4595 31.389 54.5696C28.6493 52.6797 17.808 45.4424 16.9437 45.4424C16.0793 45.4424 7.75781 52.8555 7.75781 52.8555" fill="#CA5098"/>
<path d="M18.0151 64.7801C18.0151 64.7801 33.8083 55.7994 31.0687 53.9095C28.329 52.0196 17.4877 44.7822 16.6233 44.7822C15.759 44.7822 7.4375 52.1953 7.4375 52.1953" fill="white"/>
<path d="M15.5509 63.9457C15.5509 63.9457 27.535 56.2249 25.4546 54.5841C23.3742 52.9433 15.1993 46.7314 14.4961 46.7314C13.7928 46.7314 7.53711 53.1191 7.53711 53.1191" fill="#142B2A"/>
<path d="M25.3527 56.8398L17.1191 50.042L17.2363 49.8955L25.4699 56.6933L25.3527 56.8398Z" fill="white"/>
<path d="M24.4738 58.2617L16.2402 51.4492L16.3574 51.3027L24.591 58.1005L24.4738 58.2617Z" fill="white"/>
<path d="M23.5812 59.6679L15.3477 52.8701L15.4795 52.709L23.6984 59.5068L23.5812 59.6679Z" fill="white"/>
<path d="M22.4093 60.7518L14.1758 53.954L14.3076 53.8075L22.5265 60.6053L22.4093 60.7518Z" fill="white"/>
<path d="M18.9961 60.693L18.8496 60.5465L25.3397 54.0417L25.4863 54.1736L18.9961 60.693Z" fill="white"/>
<path d="M17.8526 59.0672L17.7207 58.9207L23.9471 52.9873L24.079 53.1338L17.8526 59.0672Z" fill="white"/>
<path d="M17.8526 56.8398L17.7207 56.6933L22.5846 51.7561L22.7165 51.888L17.8526 56.8398Z" fill="white"/>
<path d="M18.2032 54.3638L18.0566 54.232L21.2211 50.8037L21.3677 50.9356L18.2032 54.3638Z" fill="white"/>
<path d="M5.04978 39.6405C4.85592 39.6066 4.65706 39.6151 4.46681 39.6654C4.27655 39.7157 4.09944 39.8067 3.94768 39.932C3.79593 40.0573 3.67314 40.214 3.58773 40.3913C3.50231 40.5686 3.45629 40.7622 3.45288 40.959C3.32103 43.8891 2.99873 53.4412 4.41982 55.0967C6.11927 57.0599 16.7262 64.6927 17.6052 64.7659C18.4842 64.8392 19.1728 63.9748 19.6563 59.9606C20.1397 55.9464 19.8907 50.4086 18.6014 48.6798C17.8396 47.6689 8.87357 40.4023 5.07911 39.6405" fill="#9BCEA4"/>
<path d="M4.34528 40.2997C4.15261 40.266 3.95494 40.2741 3.76571 40.3236C3.57647 40.3731 3.4001 40.4627 3.2486 40.5864C3.09709 40.7101 2.97402 40.865 2.8877 41.0405C2.80139 41.216 2.75387 41.4081 2.74839 41.6036C2.60188 44.5337 2.27958 54.1004 3.71532 55.7413C5.41477 57.7044 16.0217 65.3519 16.9007 65.4252C17.7797 65.4984 18.4536 64.6194 18.9518 60.6199C19.4499 56.6203 19.1862 51.0678 17.8969 49.339C17.1205 48.3135 8.16902 41.0615 4.37456 40.2997" fill="#CA5098"/>
<path d="M11.5236 51.7856C11.5094 51.471 11.4258 51.1634 11.2789 50.8849C11.132 50.6063 10.9255 50.3636 10.6739 50.1741C10.5275 50.072 10.3636 49.9975 10.1904 49.9543C9.96933 49.9012 9.73929 49.8973 9.51652 49.9429C9.29374 49.9884 9.08366 50.0824 8.90118 50.218C8.52636 50.5467 8.28201 50.999 8.21261 51.4926C8.15379 51.9048 8.23062 52.3249 8.43146 52.6896C8.6323 53.0543 8.94629 53.3438 9.32605 53.5144C9.71046 53.6565 10.1341 53.6496 10.5137 53.495C10.8933 53.3405 11.2013 53.0495 11.3771 52.6793C11.4919 52.396 11.542 52.0907 11.5236 51.7856Z" fill="white"/>
<path d="M33.3958 53.0893C33.2514 53.0622 33.1143 53.0051 32.9932 52.9218C32.8721 52.8386 32.7697 52.7309 32.6926 52.6058L30.8613 50.3936L30.9785 50.3057C34.7703 47.1438 37.4714 42.8692 38.6993 38.0872C39.1772 36.1241 39.5296 34.1325 39.7541 32.1245C40.0145 30.5162 40.1468 28.8898 40.1497 27.2606C40.1497 26.9969 40.1497 26.7331 40.1497 26.4548C40.0046 25.3022 40.1146 24.1319 40.472 23.0266C40.6278 22.546 40.9252 22.1238 41.3252 21.8153C41.7252 21.5068 42.2092 21.3264 42.7135 21.2979C43.8161 21.3809 44.8822 21.7294 45.821 22.3136C46.7597 22.8977 47.5433 23.7003 48.1049 24.6528C49.0213 26.5549 49.3283 28.6936 48.9839 30.7767C48.6536 32.7996 48.0575 34.77 47.2112 36.6369C45.8791 40.0427 44.1059 43.259 41.9371 46.2036C39.86 49.0746 37.094 51.377 33.8939 52.8988C33.7611 52.9648 33.6169 53.0045 33.4691 53.016M31.2715 50.3643L32.9124 52.3275C33.0339 52.5225 33.2208 52.6679 33.4398 52.7377C33.5626 52.7269 33.6821 52.6921 33.7914 52.6351C36.9523 51.1299 39.6868 48.8587 41.7466 46.0278C43.892 43.0968 45.6499 39.9009 46.9768 36.5196C47.8149 34.6509 48.4059 32.6809 48.7348 30.6595C49.0612 28.635 48.7595 26.5592 47.8705 24.7114C47.3296 23.8055 46.5814 23.041 45.6874 22.4807C44.7934 21.9204 43.7792 21.5803 42.7281 21.4883C42.2715 21.5122 41.8331 21.6751 41.4717 21.9554C41.1103 22.2356 40.8433 22.6196 40.7064 23.0559H40.5892H40.7064C40.3743 24.1211 40.2694 25.2441 40.3987 26.3523C40.3987 26.6306 40.3987 26.8943 40.3987 27.1727C40.4 28.8161 40.2727 30.457 40.0178 32.0805C39.7814 34.0975 39.4242 36.0984 38.9484 38.0726C37.7182 42.8665 35.0246 47.1578 31.2422 50.3496" fill="#13110C"/>
<path d="M15.0684 100L19.0533 94.008L24.4592 92.9385L24.9281 96.7915L22.5694 97.7585L22.3936 96.8208L15.0684 100ZM19.2291 94.2717L15.8595 99.3261L22.5987 96.396L22.7745 97.3336L24.6204 96.5864L24.2102 93.2755L19.2291 94.2717Z" fill="#13110C"/>
<path d="M9.01758 95.1366L11.8304 89.8478L17.1193 88.6025L17.5148 92.1186L15.6396 92.6461V91.5766C14.8777 91.9135 11.6253 93.6862 9.45707 94.9022L9.01758 95.1366ZM11.9477 90.1115L9.69149 94.4041C15.5517 91.1224 15.7275 91.1956 15.8154 91.2396V92.2212L17.0753 91.8549L16.753 88.9249L11.9477 90.1115Z" fill="#13110C"/>
<path d="M42.4512 68.1504L44.766 95.5321H46.9342L48.3113 67.9453C46.4654 68.0918 44.5022 68.1651 42.4512 68.1504Z" fill="#CA5098"/>
<path d="M53.2773 67.2852V77.7896H55.2258L56.9692 66.3623C55.7573 66.7405 54.5247 67.0487 53.2773 67.2852Z" fill="#CA5098"/>
<path d="M29 66.8604L29.9669 84.9243H32.0619L33.1168 67.5196C31.6517 67.3291 30.3185 67.1094 29 66.8604Z" fill="#CA5098"/>
</svg>
