<svg width="79" height="97" viewBox="0 0 79 97" fill="none" xmlns="http://www.w3.org/2000/svg">
<path d="M21.2086 71.3955C20.0177 71.5778 18.8441 71.8595 17.7002 72.2375C17.7002 72.2375 16.8055 72.5358 16.8932 72.9041C16.981 73.2725 17.7879 73.0269 18.4896 72.9041C18.4896 72.9041 15.8408 74.0794 16.0864 74.4478C16.332 74.8162 18.1388 73.9917 18.1388 73.9917C18.1388 73.9917 16.56 74.7636 16.7003 75.1495C16.8406 75.5354 18.4545 74.5004 18.4545 74.5004C18.4545 74.5004 17.1564 75.4126 17.3318 75.7985C17.5072 76.1844 18.8579 75.2723 18.8579 75.2723C18.8579 75.2723 18.051 75.8687 18.4369 76.2721C18.8228 76.6756 21.3488 74.7109 22.7873 73.1848L21.2086 71.3955Z" fill="#9BCEA4"/>
<path d="M22.7346 73.0094L20.9805 71.4833L30.1022 60.5196L24.1906 50.4156L29.7162 45.4863L34.3297 60.3793L22.7346 73.0094ZM21.6119 71.4306L22.6995 72.3779L33.8386 60.2565L29.4882 46.2231L24.752 50.4507L30.6284 60.5196L30.5232 60.6425L21.6119 71.4306Z" fill="#13110C"/>
<path d="M68.3069 82.7451H61.9743V82.6048C58.2555 73.3603 46.1867 43.1534 46.5551 42.2587V42.171H46.6604L46.7832 42.592V42.3815H46.9937C46.9937 43.5393 56.1154 66.7997 62.3427 82.254H67.9736L63.2198 25.1731L51.4844 34.3299L51.2212 33.9615L63.5881 24.3135V24.7345L68.3069 82.7451Z" fill="#13110C"/>
<path d="M58.5894 1.22826L55.5547 38.3642L67.0971 86.7269H72.3596C72.3596 86.7269 91.831 2.52639 58.5543 1.21075" fill="#0095D4"/>
<path d="M63.4487 0C63.4487 0 65.3607 27.4704 63.1329 40.2408L22.1729 51.5728L18.875 48.5556C18.875 48.5556 22.3834 5.20991 63.4487 0Z" fill="#CA5098"/>
<path d="M5.49023 53.748C7.08942 54.9192 8.78543 55.952 10.5598 56.8354C12.3417 57.7244 14.3257 58.1297 16.3135 58.0107C16.8887 57.9794 17.4481 57.811 17.945 57.5196C18.3885 57.1701 18.7277 56.7056 18.9257 56.1767C19.1236 55.6478 19.1727 55.0747 19.0676 54.5199C18.834 53.4128 18.3276 52.3817 17.5941 51.5203C16.1397 49.6082 14.358 47.969 12.3316 46.6787" fill="#E3E3E3"/>
<path d="M6.52641 42.1532C5.78568 42.1255 5.05149 42.3014 4.40382 42.662C3.71264 43.1252 3.16082 43.768 2.80756 44.5214C2.1481 45.8405 1.79026 47.2898 1.75992 48.7643C1.72958 50.2388 2.02744 51.7015 2.63208 53.0467C3.26359 54.4325 3.80737 55.4499 5.0353 55.3271C6.59338 54.8064 8.00196 53.9155 9.14012 52.7309C10.418 51.4317 11.5261 49.9758 12.438 48.3981C13.0995 49.0224 13.7965 49.6081 14.5255 50.1523C14.5434 50.1651 14.5648 50.172 14.5868 50.172C14.6088 50.172 14.6304 50.1651 14.6483 50.1523C14.736 50.0646 14.5255 49.6085 14.5255 49.6085C14.35 49.205 14.2272 48.8191 14.4027 48.6437C15.0166 47.9771 15.8587 49.6786 16.5252 50.2926C16.2319 48.8576 15.6018 47.5129 14.6868 46.3692C13.7719 45.2256 12.5983 44.3156 11.2627 43.7144C9.83337 42.8461 8.21346 42.3402 6.54397 42.2409" fill="#142B2A"/>
<path d="M41.5935 33.2245C41.4883 33.5052 49.5575 69.5008 22.6309 76.7105L20.7188 74.2898L32.156 61.1685L26.7707 42.1182L41.5935 33.2245Z" fill="#0095D4"/>
<path d="M11.9813 82.096C11.9937 82.4558 11.9207 82.8136 11.7683 83.1398C11.6158 83.466 11.3883 83.7515 11.1043 83.9729C9.49041 85.4289 3.63148 87.3585 0.158203 84.7974L6.08733 79.8682L10.4377 80.4646L11.9813 82.096Z" fill="#0095D4"/>
<path d="M11.9814 82.0958C11.3954 81.5424 10.6521 81.1844 9.85406 81.0713C9.05601 80.9582 8.24251 81.0955 7.52579 81.4643C4.91207 82.7624 3.38593 85.4814 0.175781 84.8674C0.175781 84.8674 1.0704 78.7453 6.08735 78.7102C11.1043 78.6751 11.9814 82.0958 11.9814 82.0958Z" fill="#CA5098"/>
<path d="M5.24609 94.3576H9.82458L7.26344 84.1308C7.26344 84.1308 7.26341 84.0255 7.12308 84.1308C7.09359 84.139 7.06832 84.158 7.05209 84.1839C7.03587 84.2099 7.02988 84.241 7.03539 84.2711L9.50884 94.1997H5.4917V84.6746C5.4917 84.642 5.47876 84.6108 5.45573 84.5877C5.4327 84.5647 5.40147 84.5517 5.3689 84.5517C5.33633 84.5517 5.3051 84.5647 5.28207 84.5877C5.25904 84.6108 5.24609 84.642 5.24609 84.6746V94.3576Z" fill="#13110C"/>
<path d="M17.4704 76.9565L13.1201 73.4482C13.0094 73.4308 12.8961 73.4395 12.7893 73.4736C12.6826 73.5077 12.5853 73.5663 12.5052 73.6447C12.4251 73.723 12.3645 73.8191 12.3281 73.9251C12.2917 74.0311 12.2805 74.1441 12.2955 74.2551L16.4705 77.3951L17.4704 76.9565Z" fill="#9BCEA4"/>
<path d="M19.9647 75.2021C18.6917 75.4006 17.4364 75.6998 16.2107 76.0968L17.1405 76.8861C17.1405 76.8861 14.2636 78.1842 14.5268 78.6403C14.7899 79.0964 16.7545 78.1492 16.7545 78.1492C16.7545 78.1492 15.0004 78.9912 15.2109 79.3947C15.4214 79.7981 17.158 78.7105 17.158 78.7105C17.158 78.7105 15.7547 79.6928 15.9477 80.1138C16.1406 80.5348 17.7018 79.535 17.7018 79.535C17.7018 79.535 16.8247 80.184 17.2282 80.6226C17.6316 81.0611 20.2103 78.9912 21.7715 77.3422L19.9647 75.2021Z" fill="#CA5098"/>
<path d="M12.314 70.5881C13.9278 71.9914 14.6295 73.8684 13.8752 74.7806C13.1209 75.6928 11.2088 75.3069 9.59501 73.9035C7.98116 72.5002 7.27947 70.6056 8.03376 69.6935C8.78806 68.7813 10.7001 69.1848 12.314 70.5881Z" fill="#9BCEA4"/>
<path d="M8.89522 69.8166C8.89522 69.8166 8.08832 71.3778 10.2284 73.3249C12.3685 75.2721 13.5087 74.1143 13.5087 74.1143C13.5087 74.1143 14.2806 72.5005 12.3159 70.606C11.9115 70.0902 11.3403 69.7312 10.7003 69.5904C10.0602 69.4496 9.39104 69.5357 8.80753 69.8341" fill="#0095D4"/>
<path d="M11.3324 70.3424C11.3324 70.5529 10.9289 70.623 10.5781 70.5003C10.2273 70.3775 9.99915 70.1143 10.0693 69.9038C10.1395 69.6933 10.4729 69.6232 10.8237 69.746C11.1745 69.8688 11.385 70.1319 11.3324 70.3424Z" fill="white"/>
<path d="M56.0469 86.902C56.0469 85.5863 61.8532 83.3936 61.8532 83.3936C63.2144 83.6293 64.5942 83.7409 65.9756 83.7269C66.1335 84.5338 66.379 85.9547 66.0633 86.3406C65.7475 86.7265 56.117 88.1825 56.0469 86.8669" fill="#142B2A"/>
<path d="M62.2207 90.9898C62.2207 89.6917 68.027 87.4814 68.027 87.4814C69.3894 87.7062 70.7686 87.8119 72.1493 87.7972C72.3247 88.6216 72.5527 90.025 72.237 90.4285C71.9212 90.8319 62.2909 92.1826 62.2207 90.9372" fill="#142B2A"/>
<path d="M13.1216 56.7829H13.0164C12.6552 56.7207 12.3059 56.6023 11.9814 56.432C10.9983 55.9466 10.0692 55.3586 9.20973 54.6779C9.17261 54.6336 9.15234 54.5777 9.15234 54.52C9.15234 54.4623 9.17261 54.4064 9.20973 54.3621C9.25396 54.325 9.30991 54.3047 9.36765 54.3047C9.4254 54.3047 9.48124 54.325 9.52547 54.3621C10.3541 55.0421 11.2541 55.6302 12.2094 56.1163C12.4819 56.2703 12.7784 56.3771 13.0865 56.432H13.2269L13.3321 56.3268C13.5025 56.0834 13.6605 55.8317 13.8057 55.5725C13.8351 55.5229 13.8822 55.4863 13.9376 55.47C13.9929 55.4537 14.0524 55.459 14.104 55.4848C14.1447 55.5273 14.1674 55.5839 14.1674 55.6427C14.1674 55.7015 14.1447 55.7581 14.104 55.8006C13.9629 56.0678 13.8046 56.3256 13.6303 56.5724C13.571 56.6846 13.4793 56.7762 13.3671 56.8355C13.2751 56.8593 13.1785 56.8593 13.0865 56.8355" fill="#0095D4"/>
<path d="M12.2786 54.151C12.1113 54.1474 11.9457 54.1179 11.7875 54.0634C11.6281 53.997 11.4837 53.899 11.3632 53.7754C11.2426 53.6518 11.1482 53.5051 11.0858 53.3441C11.0203 53.1589 11.0003 52.9607 11.0273 52.7661C11.0543 52.5716 11.1276 52.3864 11.241 52.226C11.3544 52.0656 11.5047 51.9347 11.6791 51.8445C11.8536 51.7542 12.0471 51.707 12.2436 51.707C12.44 51.707 12.6335 51.7542 12.8079 51.8445C12.9824 51.9347 13.1326 52.0656 13.246 52.226C13.3595 52.3864 13.4327 52.5716 13.4597 52.7661C13.4867 52.9607 13.4667 53.1589 13.4013 53.3441C13.356 53.5124 13.2744 53.6687 13.1623 53.802C13.0502 53.9353 12.9102 54.0425 12.7522 54.116C12.6047 54.1875 12.4425 54.2235 12.2786 54.2212M11.4892 53.2564C11.5306 53.3592 11.5925 53.4525 11.6709 53.5309C11.7492 53.6093 11.8425 53.671 11.9453 53.7125C12.0449 53.756 12.1524 53.7784 12.261 53.7784C12.3697 53.7784 12.4773 53.756 12.5769 53.7125C12.6778 53.6631 12.7663 53.5918 12.8361 53.5038C12.9059 53.4158 12.9552 53.3133 12.9803 53.2038C13.0238 53.1042 13.0461 52.9967 13.0461 52.888C13.0461 52.7794 13.0238 52.6719 12.9803 52.5723C12.8765 52.3877 12.7057 52.2501 12.5032 52.188C12.3007 52.126 12.0821 52.1442 11.8927 52.239C11.7133 52.3295 11.5762 52.4865 11.5107 52.6765C11.4452 52.8665 11.4564 53.0745 11.5419 53.2564" fill="#0095D4"/>
<path d="M12.7528 52.1697C12.6971 52.1498 12.6504 52.1105 12.6214 52.0589C12.5924 52.0074 12.583 51.947 12.5949 51.8891L13.7 47.5562C13.7087 47.5035 13.7371 47.4561 13.7794 47.4235C13.8218 47.391 13.8749 47.3757 13.9281 47.3809C14.2074 47.4136 14.4799 47.4905 14.735 47.6089C14.7877 47.6353 14.8281 47.6812 14.8478 47.7368C14.8674 47.7924 14.8647 47.8534 14.8403 47.9071C14.8287 47.9347 14.8119 47.9598 14.7907 47.981C14.7695 48.0021 14.7443 48.0189 14.7166 48.0303C14.6889 48.0417 14.6592 48.0475 14.6292 48.0474C14.5993 48.0473 14.5697 48.0414 14.5421 48.0299C14.3898 47.9617 14.2312 47.9088 14.0684 47.872L13.016 52.0119C13.004 52.0582 12.9766 52.0991 12.9383 52.1278C12.9001 52.1565 12.8532 52.1713 12.8054 52.1697" fill="#0095D4"/>
<path d="M10.5965 55.6952C10.577 55.7034 10.5561 55.7076 10.535 55.7076C10.5139 55.7076 10.4931 55.7034 10.4736 55.6952C10.4329 55.6527 10.4102 55.5962 10.4102 55.5373C10.4102 55.4785 10.4329 55.4219 10.4736 55.3794C10.8323 54.8524 11.1547 54.3014 11.4384 53.7305C11.4487 53.7021 11.4656 53.6764 11.4877 53.6557C11.5097 53.635 11.5363 53.6198 11.5653 53.6112C11.5943 53.6027 11.6249 53.6011 11.6547 53.6066C11.6845 53.6121 11.7125 53.6245 11.7366 53.6428C11.7724 53.6842 11.7922 53.7372 11.7922 53.7919C11.7922 53.8467 11.7724 53.8996 11.7366 53.941C11.4496 54.5509 11.1153 55.1375 10.7367 55.6952C10.7168 55.7229 10.6904 55.7454 10.6598 55.7607C10.6293 55.776 10.5955 55.7836 10.5613 55.7829" fill="#0095D4"/>
<path d="M15.2971 57.2916C15.1938 57.2876 15.0928 57.2602 15.0017 57.2116C14.9105 57.163 14.8317 57.0944 14.7708 57.0109C14.6882 56.9235 14.6301 56.8159 14.6024 56.6988C14.5747 56.5818 14.5783 56.4595 14.6129 56.3443C14.6037 56.3283 14.5988 56.3102 14.5988 56.2917C14.5988 56.2732 14.6037 56.2551 14.6129 56.2391C14.6053 56.2044 14.6053 56.1685 14.6129 56.1338C14.6825 56.0372 14.7751 55.9593 14.8823 55.9072C14.9894 55.8552 15.1078 55.8306 15.2268 55.8356C15.3467 55.834 15.465 55.864 15.5696 55.9225C15.6743 55.981 15.7618 56.0659 15.8233 56.1689C15.8801 56.274 15.9098 56.3915 15.9098 56.511C15.9098 56.6304 15.8801 56.748 15.8233 56.8531C15.7737 56.9622 15.6982 57.0575 15.6035 57.1309C15.5087 57.2043 15.3975 57.2534 15.2795 57.274H15.1918M14.9286 56.397C14.9052 56.4336 14.8928 56.4762 14.8928 56.5198C14.8928 56.5633 14.9052 56.6059 14.9286 56.6426C14.954 56.6798 14.988 56.7104 15.0277 56.7318C15.0674 56.7532 15.1116 56.7647 15.1567 56.7653C15.1995 56.7515 15.2388 56.7287 15.2721 56.6985C15.3054 56.6682 15.3318 56.6312 15.3496 56.5899C15.3746 56.5506 15.3878 56.5049 15.3878 56.4584C15.3878 56.4118 15.3746 56.3661 15.3496 56.3268C15.3246 56.2903 15.2902 56.2614 15.2501 56.2428C15.2099 56.2243 15.1655 56.2169 15.1216 56.2215C15.0857 56.2056 15.0468 56.1973 15.0075 56.1973C14.9683 56.1973 14.9294 56.2056 14.8935 56.2215" fill="#142B2A"/>
<path d="M69.7302 78.9204C69.6998 78.9216 69.6696 78.9155 69.6419 78.9027C69.6143 78.8899 69.59 78.8708 69.5711 78.8468C69.5523 78.8228 69.5394 78.7948 69.5336 78.7649C69.5277 78.735 69.529 78.7042 69.5373 78.6749C69.5373 77.9206 69.625 77.1487 69.6777 76.3769C69.668 76.3429 69.6663 76.3072 69.6727 76.2725C69.6792 76.2378 69.6936 76.2051 69.7148 76.1769C69.7361 76.1487 69.7636 76.1259 69.7952 76.1101C69.8268 76.0944 69.8616 76.0862 69.8969 76.0862C69.9322 76.0862 69.9671 76.0944 69.9987 76.1101C70.0302 76.1259 70.0577 76.1487 70.079 76.1769C70.1002 76.2051 70.1147 76.2378 70.1211 76.2725C70.1276 76.3072 70.1259 76.3429 70.1162 76.3769C70.1162 77.1312 70.1162 77.903 69.9758 78.6749C69.9714 78.7322 69.9454 78.7858 69.9031 78.8248C69.8609 78.8639 69.8054 78.8855 69.7478 78.8853M70.046 73.9385C69.9871 73.93 69.9333 73.9005 69.8946 73.8553C69.8559 73.8101 69.8349 73.7525 69.8355 73.693C69.8355 72.7984 69.8355 71.9388 69.9583 71.0442C69.9581 70.9866 69.9797 70.9311 70.0188 70.8888C70.0578 70.8465 70.1114 70.8205 70.1688 70.8161C70.2277 70.8246 70.2815 70.8542 70.3202 70.8994C70.3589 70.9445 70.3799 71.0022 70.3793 71.0617C70.3793 71.9388 70.3793 72.8159 70.2565 73.7105C70.2566 73.7681 70.2351 73.8236 70.1961 73.8658C70.157 73.9081 70.1034 73.9341 70.046 73.9385ZM70.239 68.676C70.2098 68.6761 70.1809 68.6702 70.1541 68.6585C70.1274 68.6469 70.1033 68.6297 70.0836 68.6083C70.0638 68.5868 70.0486 68.5615 70.0391 68.5339C70.0296 68.5063 70.0261 68.477 70.0285 68.448V65.7816C70.0285 65.7258 70.0506 65.6722 70.0901 65.6328C70.1296 65.5933 70.1832 65.5711 70.239 65.5711C70.2682 65.571 70.2971 65.577 70.3238 65.5886C70.3506 65.6003 70.3746 65.6174 70.3944 65.6389C70.4142 65.6603 70.4293 65.6856 70.4388 65.7132C70.4483 65.7408 70.4519 65.7701 70.4495 65.7992V68.448C70.4495 68.5084 70.4255 68.5664 70.3827 68.6092C70.3399 68.652 70.2819 68.676 70.2215 68.676M70.2215 63.4135C70.161 63.4135 70.103 63.3894 70.0602 63.3467C70.0174 63.3039 69.9934 63.2459 69.9934 63.1854C69.9934 62.6943 69.9934 62.2207 69.9934 61.7295V60.5191C69.9934 60.4633 70.0156 60.4097 70.0551 60.3702C70.0946 60.3307 70.1481 60.3086 70.2039 60.3086C70.233 60.3062 70.2623 60.3098 70.2899 60.3193C70.3175 60.3287 70.3427 60.3439 70.3642 60.3637C70.3856 60.3835 70.4027 60.4075 70.4144 60.4342C70.426 60.461 70.4321 60.4899 70.4319 60.5191V63.1854C70.4319 63.2459 70.4079 63.3039 70.3651 63.3467C70.3224 63.3894 70.2644 63.4135 70.2039 63.4135M70.2039 58.1509C70.1434 58.1509 70.0854 58.1269 70.0427 58.0841C69.9999 58.0414 69.9758 57.9834 69.9758 57.9229C69.9758 57.0283 69.9758 56.1688 69.9758 55.2741C69.9735 55.2442 69.977 55.214 69.9863 55.1854C69.9956 55.1568 70.0105 55.1304 70.03 55.1075C70.0496 55.0847 70.0734 55.0659 70.1003 55.0524C70.1271 55.0388 70.1564 55.0307 70.1863 55.0285C70.2916 55.0285 70.4144 55.1338 70.4144 55.2566C70.4144 56.1337 70.4144 57.0107 70.4144 57.9229C70.4168 57.952 70.4132 57.9813 70.4037 58.0089C70.3942 58.0365 70.379 58.0618 70.3593 58.0832C70.3395 58.1047 70.3154 58.1218 70.2887 58.1334C70.2619 58.1451 70.2331 58.151 70.2039 58.1509ZM70.0635 52.8884C70.0044 52.8843 69.9488 52.859 69.9069 52.8171C69.865 52.7751 69.8396 52.7195 69.8355 52.6604C69.8355 51.7657 69.8355 50.9062 69.7302 50.0116C69.7296 49.9521 69.7506 49.8944 69.7893 49.8492C69.8281 49.8041 69.8818 49.7745 69.9407 49.766C70.0012 49.766 70.0592 49.79 70.102 49.8328C70.1447 49.8756 70.1688 49.9335 70.1688 49.994C70.1688 50.8536 70.1688 51.7482 70.274 52.6429C70.2764 52.6728 70.2729 52.7029 70.2636 52.7315C70.2543 52.7601 70.2394 52.7866 70.2199 52.8094C70.2003 52.8322 70.1764 52.851 70.1496 52.8645C70.1228 52.8781 70.0935 52.8862 70.0635 52.8884ZM69.8179 47.6259C69.7588 47.6218 69.7032 47.5964 69.6613 47.5545C69.6194 47.5126 69.5941 47.457 69.59 47.3978L69.4321 44.7491C69.4296 44.72 69.4333 44.6907 69.4428 44.6631C69.4522 44.6355 69.4674 44.6102 69.4872 44.5887C69.507 44.5673 69.531 44.5502 69.5578 44.5385C69.5845 44.5269 69.6134 44.5209 69.6425 44.521C69.6984 44.521 69.7519 44.5431 69.7914 44.5826C69.8308 44.6221 69.853 44.6757 69.853 44.7315C69.853 45.591 69.9583 46.4857 70.011 47.3803C70.0161 47.4381 69.999 47.4957 69.9631 47.5413C69.9273 47.5869 69.8753 47.6172 69.8179 47.6259ZM69.4672 42.3633C69.4096 42.3635 69.3541 42.3419 69.3118 42.3029C69.2695 42.2638 69.2435 42.2102 69.2391 42.1529C69.2391 41.2407 69.0988 40.3987 69.0111 39.504C69.0105 39.4445 69.0315 39.3869 69.0702 39.3417C69.1089 39.2965 69.1627 39.267 69.2216 39.2585C69.2506 39.256 69.2799 39.2596 69.3075 39.2691C69.3351 39.2786 69.3604 39.2938 69.3818 39.3136C69.4033 39.3334 69.4204 39.3574 69.4321 39.3841C69.4437 39.4109 69.4497 39.4398 69.4496 39.469C69.5373 40.3285 69.6075 41.2232 69.6777 42.1178C69.6828 42.1756 69.6657 42.2331 69.6298 42.2788C69.594 42.3244 69.5421 42.3546 69.4847 42.3633H69.4672ZM68.9935 37.1008C68.9386 37.1015 68.8854 37.0823 68.8435 37.0469C68.8016 37.0114 68.7739 36.9621 68.7655 36.9079C68.7655 35.9782 68.5901 35.1537 68.4848 34.2591C68.4797 34.2013 68.4967 34.1437 68.5326 34.098C68.5684 34.0524 68.6204 34.0221 68.6778 34.0134C68.7068 34.0085 68.7365 34.0096 68.765 34.0169C68.7936 34.0241 68.8203 34.0372 68.8434 34.0554C68.8665 34.0736 68.8856 34.0964 68.8994 34.1224C68.9132 34.1484 68.9214 34.1771 68.9234 34.2064C68.9234 35.0484 69.1163 35.9606 69.204 36.8553C69.209 36.8843 69.2078 36.914 69.2006 36.9425C69.1934 36.971 69.1802 36.9977 69.162 37.0209C69.1439 37.044 69.121 37.0631 69.095 37.0768C69.069 37.0906 69.0404 37.0988 69.0111 37.1008M68.4146 31.8383C68.3607 31.8357 68.3091 31.8153 68.2679 31.7805C68.2267 31.7456 68.1981 31.6981 68.1866 31.6453C68.0813 30.6805 67.9585 29.8034 67.8533 28.9965C67.8482 28.9688 67.8489 28.9404 67.8551 28.913C67.8612 28.8855 67.8728 28.8596 67.8891 28.8367C67.9055 28.8138 67.9263 28.7944 67.9503 28.7797C67.9742 28.7649 68.0009 28.7551 68.0287 28.7509C68.0587 28.7459 68.0894 28.747 68.119 28.7541C68.1486 28.7611 68.1764 28.774 68.2009 28.792C68.2254 28.81 68.2461 28.8327 68.2617 28.8588C68.2773 28.8849 68.2875 28.9138 68.2918 28.9439C68.397 29.7333 68.5198 30.6104 68.6251 31.5752C68.6301 31.6052 68.629 31.6358 68.622 31.6654C68.6149 31.695 68.6021 31.7228 68.5841 31.7473C68.5661 31.7718 68.5434 31.7925 68.5173 31.8081C68.4912 31.8238 68.4623 31.834 68.4322 31.8383M67.6954 26.5757C67.6436 26.5724 67.5945 26.5514 67.5562 26.5163C67.518 26.4812 67.4928 26.4341 67.4849 26.3828C67.2218 24.6286 67.0464 23.7691 67.0464 23.7691C67.0386 23.7391 67.037 23.7079 67.0417 23.6772C67.0464 23.6466 67.0573 23.6173 67.0737 23.591C67.0901 23.5647 67.1117 23.5421 67.1372 23.5245C67.1626 23.5068 67.1914 23.4945 67.2218 23.4884C67.2508 23.4834 67.2805 23.4846 67.309 23.4918C67.3376 23.499 67.3643 23.5122 67.3874 23.5303C67.4105 23.5485 67.4296 23.5714 67.4434 23.5974C67.4572 23.6234 67.4654 23.652 67.4674 23.6814C67.4674 23.6814 67.6604 24.6111 67.9235 26.3126C67.9285 26.3416 67.9273 26.3714 67.9201 26.3999C67.9128 26.4284 67.8997 26.4551 67.8815 26.4783C67.8633 26.5014 67.8405 26.5205 67.8145 26.5343C67.7885 26.548 67.7599 26.5562 67.7306 26.5582" fill="#13110C"/>
<path d="M11.8066 53.2744C11.8321 53.3131 11.8657 53.3458 11.9052 53.3701C11.9447 53.3944 11.989 53.4096 12.0351 53.4149H12.1756H12.281C12.281 53.4149 12.281 53.4149 12.281 53.3095C12.3039 53.2471 12.3039 53.1786 12.281 53.1162H12.1932C12.1932 53.1162 11.9999 53.1162 11.9471 53.1162C11.9119 53.2066 11.9119 53.307 11.9471 53.3974" fill="#142B2A"/>
<path d="M9.92969 56.3095C9.95008 56.3525 9.98245 56.3887 10.023 56.4137C10.0635 56.4386 10.1105 56.4513 10.1581 56.4501H10.2811C10.2976 56.4579 10.3156 56.4619 10.3338 56.4619C10.352 56.4619 10.3701 56.4579 10.3866 56.4501C10.3942 56.4094 10.3942 56.3677 10.3866 56.3271C10.3681 56.2582 10.3383 56.193 10.2986 56.1338C10.2986 56.1338 10.1054 56.1338 10.0527 56.1338C9.99999 56.1338 10.0527 56.3271 10.0527 56.3974" fill="#142B2A"/>
<path d="M9.87687 57.7825C9.61289 57.7853 9.35281 57.7187 9.12259 57.5895C8.99316 57.5232 8.87831 57.4316 8.7849 57.3201C8.6915 57.2086 8.62144 57.0795 8.5788 56.9405C8.4856 56.6823 8.4816 56.4003 8.56745 56.1396C8.6533 55.8789 8.82409 55.6544 9.05246 55.5021C9.32357 55.3415 9.63774 55.2688 9.95182 55.2939C10.2659 55.3191 10.5645 55.4408 10.8066 55.6424C11.0305 55.8655 11.1567 56.1683 11.1575 56.4844C11.1626 56.6593 11.1313 56.8333 11.0656 56.9955C11 57.1576 10.9015 57.3043 10.7761 57.4264C10.6508 57.5484 10.5014 57.6431 10.3376 57.7044C10.1737 57.7657 9.99897 57.7923 9.82431 57.7825M8.94722 56.8177C9.01584 56.9831 9.13978 57.1196 9.29797 57.2036C9.48494 57.3095 9.70028 57.3546 9.91403 57.3326C10.1278 57.3106 10.3294 57.2226 10.4909 57.0809C10.6407 56.9187 10.7223 56.7051 10.719 56.4844C10.7207 56.3923 10.7029 56.3008 10.6666 56.2161C10.6303 56.1315 10.5763 56.0555 10.5084 55.9932C10.3463 55.8645 10.1493 55.7874 9.94293 55.7718C9.73655 55.7561 9.53027 55.8027 9.35064 55.9055C9.2014 56.0024 9.09021 56.1478 9.03587 56.3173C8.98153 56.4867 8.9874 56.6697 9.05246 56.8353" fill="#0095D4"/>
<path d="M10.2613 53.0638C10.2084 53.064 10.1573 53.0442 10.1183 53.0084C10.0792 52.9727 10.0552 52.9235 10.0508 52.8708C10.0362 52.6136 10.1029 52.3583 10.2414 52.1411C10.3799 51.9238 10.5833 51.7557 10.8226 51.6604C10.8739 51.6432 10.9298 51.6463 10.9787 51.6692C11.0277 51.692 11.066 51.7329 11.0857 51.7832C11.1037 51.8369 11.1011 51.8953 11.0784 51.9472C11.0557 51.9991 11.0146 52.0407 10.9629 52.0639C10.8066 52.1211 10.6718 52.2253 10.577 52.3621C10.4907 52.5041 10.4538 52.6706 10.4718 52.8357C10.4742 52.8648 10.4706 52.8941 10.4611 52.9217C10.4516 52.9493 10.4364 52.9746 10.4166 52.996C10.3969 53.0175 10.3728 53.0345 10.3461 53.0462C10.3193 53.0579 10.2905 53.0639 10.2613 53.0638Z" fill="#142B2A"/>
<path d="M8.17449 55.3442H8.06924C8.03344 55.3028 8.01367 55.2499 8.01367 55.1951C8.01367 55.1404 8.03344 55.0875 8.06924 55.046C8.22148 54.8279 8.39801 54.6278 8.59547 54.4496C8.61503 54.43 8.6383 54.4144 8.66389 54.4038C8.68947 54.3932 8.71691 54.3877 8.74461 54.3877C8.77232 54.3877 8.79965 54.3932 8.82524 54.4038C8.85082 54.4144 8.8741 54.43 8.89365 54.4496C8.92945 54.4911 8.94922 54.544 8.94922 54.5987C8.94922 54.6535 8.92945 54.7064 8.89365 54.7478C8.72088 54.8857 8.57262 55.0518 8.45511 55.239C8.43867 55.2712 8.41353 55.2982 8.38252 55.3168C8.3515 55.3354 8.3159 55.3449 8.27973 55.3442" fill="#142B2A"/>
<path d="M12.0867 96.2171L12.2095 89.709L10.122 93.0771L6.96455 88.9898L7.01712 94.112L1.17578 88.7969L3.84206 96.2521L12.0867 96.2171Z" fill="#9BCEA4"/>
</svg>
