<svg width="75" height="102" viewBox="0 0 75 102" fill="none" xmlns="http://www.w3.org/2000/svg">
<path d="M21.8066 61.9042C27.3347 56.7566 33.0031 51.5089 39.8331 48.5245C47.2412 45.3361 55.5669 45.0008 63.2075 47.5831C65.0751 48.139 66.7889 49.1193 68.2149 50.4473C69.5583 52.0343 70.5728 53.8726 71.1992 55.8553C72.8639 59.6128 74.0289 63.5723 74.6644 67.6326C75.2907 71.7355 74.2839 75.9205 71.8602 79.2898C65.8514 86.8409 52.8523 84.4574 46.7032 91.8884C45.7824 93.2693 44.7292 94.5572 43.5586 95.734C40.8946 97.8771 37.0691 97.2762 33.8443 96.2347C29.2464 94.7418 24.8984 92.5678 20.9453 89.7852" fill="#0095D4"/>
<path d="M1.89685 101.883C6.44354 101.323 10.6898 98.6185 15.2565 98.899C18.7817 99.1193 22.0265 101.102 25.5517 101.182C25.8718 101.202 26.1929 101.202 26.513 101.182L34.2044 80.3516L11.3107 71.5988L0.0742188 101.943C0.739709 102.019 1.41168 102.019 2.07717 101.943" fill="#9BCEA4"/>
<path d="M32.2008 85.9001C34.6133 85.1857 36.8789 84.0461 38.8907 82.5352H30.8789L32.2008 85.9001Z" fill="#9BCEA4"/>
<path d="M46.2227 82.5346H23.4692C22.1162 82.5082 20.8285 81.9482 19.8868 80.9764C18.945 80.0047 18.4257 78.7 18.4418 77.3469V20.1827C18.4257 18.8296 18.945 17.525 19.8868 16.5533C20.8285 15.5815 22.1162 15.0215 23.4692 14.9951H46.2227C46.8934 15.0056 47.5555 15.148 48.1712 15.4144C48.7869 15.6807 49.3441 16.0658 49.811 16.5476C50.2778 17.0293 50.6452 17.5982 50.8921 18.222C51.1391 18.8457 51.2607 19.512 51.2501 20.1827V77.3469C51.2607 78.0177 51.1391 78.684 50.8921 79.3077C50.6452 79.9314 50.2778 80.5004 49.811 80.9821C49.3441 81.4638 48.7869 81.8489 48.1712 82.1153C47.5555 82.3817 46.8934 82.5241 46.2227 82.5346Z" fill="#142B2A"/>
<path d="M51.2305 63.0455C51.2305 63.0455 53.6541 62.8853 53.6541 65.8496C53.6555 66.5284 53.4106 67.1847 52.965 67.6967C52.5193 68.2087 51.903 68.5416 51.2305 68.6337V63.0455Z" fill="#CA5098"/>
<path d="M34.2052 10.1684C34.1736 10.1684 34.1424 10.1622 34.1133 10.1501C34.0841 10.138 34.0576 10.1203 34.0353 10.0979C34.0129 10.0756 33.9953 10.0492 33.9832 10.02C33.9711 9.99085 33.9648 9.95958 33.9648 9.92802V0.774524C33.9648 0.710778 33.9902 0.649671 34.0353 0.604596C34.0803 0.559521 34.1414 0.53418 34.2052 0.53418C34.2689 0.53418 34.33 0.559521 34.3751 0.604596C34.4202 0.649671 34.4455 0.710778 34.4455 0.774524V9.9881C34.4455 10.0518 34.4202 10.113 34.3751 10.158C34.33 10.2031 34.2689 10.2284 34.2052 10.2284" fill="#13110C"/>
<path d="M55.4173 24.008C55.3659 24.008 55.3155 23.9928 55.2728 23.9643C55.23 23.9358 55.1966 23.8952 55.1768 23.8478C55.1552 23.7837 55.1575 23.7138 55.1833 23.6513C55.2091 23.5887 55.2565 23.5375 55.317 23.5072L67.3347 18.5399C67.396 18.5193 67.4628 18.5223 67.522 18.5482C67.5812 18.5741 67.6288 18.6211 67.6553 18.6801C67.6681 18.7103 67.6746 18.7427 67.6745 18.7755C67.6743 18.8082 67.6674 18.8406 67.6543 18.8707C67.6412 18.9007 67.622 18.9276 67.5981 18.95C67.5741 18.9723 67.5459 18.9896 67.515 19.0006L55.4973 23.9879" fill="#13110C"/>
<path d="M52.4301 13.4132C52.4049 13.4243 52.3776 13.43 52.3501 13.43C52.3225 13.43 52.2953 13.4243 52.27 13.4132C52.2476 13.3909 52.2298 13.3644 52.2177 13.3352C52.2055 13.306 52.1992 13.2746 52.1992 13.243C52.1992 13.2114 52.2055 13.18 52.2177 13.1508C52.2298 13.1216 52.2476 13.0951 52.27 13.0728L58.2788 5.88219C58.3273 5.83567 58.3919 5.80969 58.459 5.80969C58.5262 5.80969 58.5909 5.83567 58.6394 5.88219C58.6618 5.90452 58.6796 5.93103 58.6917 5.96024C58.7038 5.98946 58.71 6.02079 58.71 6.05242C58.71 6.08405 58.7038 6.11538 58.6917 6.1446C58.6796 6.17381 58.6618 6.20032 58.6394 6.22265L52.6305 13.4132C52.5988 13.4265 52.5648 13.4333 52.5304 13.4333C52.496 13.4333 52.4619 13.4265 52.4301 13.4132Z" fill="#13110C"/>
<path d="M43.7596 10.6286C43.6976 10.6099 43.6447 10.5687 43.6113 10.5132C43.578 10.4576 43.5666 10.3917 43.5793 10.3281L45.5822 1.67538C45.586 1.64169 45.5975 1.60929 45.6159 1.58076C45.6342 1.55223 45.6588 1.52834 45.6879 1.51089C45.7169 1.49345 45.7497 1.48295 45.7835 1.48021C45.8173 1.47747 45.8512 1.48259 45.8827 1.49512C45.9424 1.51729 45.9928 1.5591 46.0255 1.61371C46.0583 1.66831 46.0715 1.73245 46.0629 1.79555L44.06 10.4483C44.0502 10.5032 44.02 10.5523 43.9754 10.5857C43.9308 10.6192 43.8751 10.6345 43.8196 10.6286" fill="#13110C"/>
<path d="M12.3518 24.0085H12.1715L0.153761 19.0211C0.0947738 18.9947 0.047769 18.9472 0.0218534 18.8879C-0.00406228 18.8287 -0.00704956 18.762 0.0135404 18.7007C0.0400159 18.6417 0.0875574 18.5946 0.146793 18.5687C0.206029 18.5428 0.27279 18.5399 0.334081 18.5604L12.3518 23.5278C12.3852 23.5384 12.4159 23.5562 12.4418 23.58C12.4676 23.6037 12.4878 23.6329 12.5012 23.6653C12.5145 23.6978 12.5206 23.7328 12.519 23.7678C12.5174 23.8029 12.5081 23.8371 12.4919 23.8682C12.4735 23.9127 12.4432 23.9512 12.4043 23.9795C12.3655 24.0078 12.3195 24.0248 12.2716 24.0285" fill="#13110C"/>
<path d="M15.317 13.4132C15.2853 13.4265 15.2512 13.4333 15.2169 13.4333C15.1825 13.4333 15.1484 13.4265 15.1166 13.4132L9.10777 6.22265C9.08536 6.20032 9.0677 6.17381 9.05557 6.1446C9.04344 6.11538 9.03711 6.08405 9.03711 6.05242C9.03711 6.02079 9.04344 5.98946 9.05557 5.96024C9.0677 5.93103 9.08536 5.90452 9.10777 5.88219C9.15626 5.83567 9.2209 5.80969 9.28809 5.80969C9.35528 5.80969 9.41992 5.83567 9.46841 5.88219L15.4773 13.0728C15.4997 13.0951 15.5174 13.1216 15.5296 13.1508C15.5417 13.18 15.5479 13.2114 15.5479 13.243C15.5479 13.2746 15.5417 13.306 15.5296 13.3352C15.5174 13.3644 15.4997 13.3909 15.4773 13.4132C15.4524 13.4256 15.4249 13.4321 15.3971 13.4321C15.3693 13.4321 15.3419 13.4256 15.317 13.4132Z" fill="#13110C"/>
<path d="M23.9872 10.6298C23.9318 10.6357 23.8761 10.6204 23.8315 10.5869C23.7869 10.5535 23.7567 10.5044 23.7469 10.4495L21.7439 1.79674C21.7366 1.73109 21.7526 1.66497 21.7893 1.61C21.8259 1.55504 21.8807 1.51478 21.9442 1.49631C21.9745 1.48737 22.0064 1.48504 22.0377 1.48953C22.069 1.49401 22.099 1.50519 22.1256 1.52229C22.1522 1.53939 22.1748 1.56205 22.1919 1.58867C22.2089 1.61529 22.2202 1.64526 22.2246 1.67657L24.2276 10.3293C24.2401 10.3608 24.2452 10.3947 24.2425 10.4285C24.2397 10.4623 24.2292 10.4951 24.2118 10.5241C24.1944 10.5532 24.1704 10.5779 24.1419 10.5962C24.1133 10.6145 24.0809 10.626 24.0472 10.6298" fill="#13110C"/>
<path d="M44.8206 79.4504H24.7911C23.8437 79.4346 22.9411 79.0444 22.2805 78.3651C21.62 77.6857 21.2551 76.7725 21.2659 75.8251V21.5852C21.2551 20.6696 21.6073 19.787 22.2453 19.1302C22.8834 18.4734 23.7554 18.0959 24.6709 18.0801H44.8807C45.3348 18.0853 45.7835 18.1802 46.2008 18.3595C46.6181 18.5387 46.9958 18.7986 47.3123 19.1244C47.6287 19.4502 47.8776 19.8353 48.0447 20.2576C48.2117 20.6799 48.2937 21.1311 48.2857 21.5852V75.8251C48.2965 76.7725 47.9316 77.6857 47.2711 78.3651C46.6105 79.0444 45.7079 79.4346 44.7605 79.4504" fill="#0095D4"/>
<path d="M48.5829 43.1768C48.2549 43.0229 47.9023 42.9279 47.5413 42.8964C47.1199 42.9023 46.7111 43.041 46.3731 43.2927C46.0351 43.5444 45.7849 43.8964 45.6585 44.2985C45.3586 45.0923 45.3586 45.9682 45.6585 46.762C46.2656 48.2776 47.4153 49.5129 48.8834 50.2272C49.471 50.465 50.0236 50.7817 50.5258 51.1686C50.9799 51.5905 51.287 52.1467 51.4024 52.7557C51.5177 53.3648 51.435 53.9948 51.1667 54.5535C51.7475 54.834 52.3685 54.3332 52.7892 53.8525C53.4328 53.0937 54.0028 52.2755 54.4916 51.4089C54.932 50.6879 55.1866 49.8689 55.2327 49.0254C55.2327 46.3414 50.5458 44.018 48.5229 43.1768" fill="#CA5098"/>
<path d="M51.2305 54.5535V51.5491L52.312 51.2687L52.2119 53.6322L51.5709 54.4534L51.2305 54.5535Z" fill="#CA5098"/>
<path d="M48.6259 34.0236C48.304 33.8723 47.9585 33.7774 47.6044 33.7432C47.1914 33.7504 46.7907 33.8852 46.4572 34.129C46.1238 34.3728 45.8738 34.7138 45.7417 35.1052C45.4507 35.9006 45.4507 36.7734 45.7417 37.5688C46.3415 39.0612 47.4773 40.2757 48.9263 40.9738C49.503 41.2129 50.048 41.5223 50.5487 41.8952C51.0005 42.3146 51.3051 42.8685 51.4169 43.4748C51.5288 44.081 51.442 44.7071 51.1696 45.2601C51.7505 45.5205 52.3715 45.0398 52.7921 44.5591C53.4207 43.805 53.9772 42.9935 54.4545 42.1355C54.8994 41.4326 55.1483 40.6236 55.1755 39.7921C55.1755 37.1482 50.5687 34.8448 48.5658 34.0236" fill="#CA5098"/>
<path d="M51.2305 45.2594V42.2951L52.2921 42.0146L52.2119 44.3381L51.5709 45.1593L51.2305 45.2594Z" fill="#CA5098"/>
<path d="M49.1859 53.192C48.9311 53.0607 48.6511 52.9855 48.3648 52.9717C48.0401 52.9825 47.7265 53.0918 47.4654 53.2849C47.2042 53.4781 47.008 53.7461 46.9027 54.0533C46.6522 54.6975 46.6522 55.4121 46.9027 56.0562C47.3903 57.2275 48.2872 58.1814 49.4263 58.7402C49.8807 58.9287 50.3111 59.1708 50.7082 59.4613C51.0549 59.7962 51.2878 60.2315 51.3741 60.7058C51.4603 61.1802 51.3955 61.6696 51.1889 62.1051C51.6295 62.3254 52.1303 61.9449 52.4507 61.5643C52.9542 60.9761 53.3972 60.3386 53.7728 59.6615C54.1138 59.1039 54.3132 58.4713 54.3536 57.8188C54.3536 55.8159 50.7082 53.9131 49.1459 53.2721" fill="#CA5098"/>
<path d="M51.2305 62.0243V59.7008L52.0717 59.4805L51.9916 61.3032L51.5109 61.9441L51.2305 62.0243Z" fill="#CA5098"/>
<path d="M22.8085 39.0107C22.8085 39.0107 4.10099 51.0285 6.78494 70.417C9.46889 89.8056 32.2024 85.8998 32.2024 85.8998C32.2024 85.8998 31.942 65.7101 18.4822 63.6871V50.5077C18.4822 50.5077 27.6958 43.3571 22.8687 39.0107" fill="#CA5098"/>
<path d="M34.1847 33.9033L23.1484 53.8327L45.6616 53.6925L34.1847 33.9033Z" fill="white"/>
<path d="M32.9009 51.1488C32.6063 50.7904 32.4453 50.3409 32.4453 49.877C32.4453 49.4131 32.6063 48.9635 32.9009 48.6051C33.0681 48.4275 33.2699 48.2862 33.4939 48.1897C33.7178 48.0932 33.9591 48.0437 34.2029 48.0443C34.4349 48.0341 34.6665 48.0715 34.8835 48.1542C35.1005 48.2368 35.2983 48.363 35.4648 48.525C35.7872 48.87 35.9666 49.3246 35.9666 49.7969C35.9666 50.2691 35.7872 50.7237 35.4648 51.0687C35.2983 51.2307 35.1005 51.3569 34.8835 51.4395C34.6665 51.5222 34.4349 51.5596 34.2029 51.5494C33.9681 51.5577 33.734 51.5195 33.514 51.437C33.294 51.3545 33.0924 51.2294 32.921 51.0687M35.7852 40.7335L35.625 47.4234H32.7808L32.6206 40.7335H35.7852Z" fill="#142B2A"/>
</svg>
