<svg width="73" height="102" viewBox="0 0 73 102" fill="none" xmlns="http://www.w3.org/2000/svg">
<path d="M27.2595 83.8744C27.2394 83.8829 27.2179 83.8873 27.1961 83.8873C27.1743 83.8873 27.1526 83.8829 27.1325 83.8744C24.5388 80.9918 22.1674 77.9168 20.0385 74.6757C15.6479 67.8902 14.287 62.7193 15.9743 59.3446C17.2807 56.732 21.0364 54.9722 27.1325 54.1194C30.0236 53.7196 32.9412 53.5437 35.8594 53.5933C35.8801 53.5931 35.9007 53.5974 35.9196 53.6058C35.9385 53.6142 35.9553 53.6265 35.9691 53.642C35.9828 53.6574 35.9931 53.6757 35.9992 53.6954C36.0053 53.7152 36.0072 53.736 36.0046 53.7565C36.0046 53.7998 35.9874 53.8414 35.9568 53.872C35.9261 53.9026 35.8846 53.9198 35.8413 53.9198C35.678 53.9198 19.2765 53.4844 16.2647 59.4898C12.3276 67.3096 27.1507 83.4934 27.3684 83.6567C27.3952 83.6866 27.4099 83.7254 27.4099 83.7655C27.4099 83.8057 27.3952 83.8445 27.3684 83.8744H27.2595Z" fill="#13110C"/>
<path d="M37.0922 20.5723C37.0922 20.5723 36.6749 29.6439 39.4871 32.4924C39.4871 32.4924 39.6867 50.5087 36.6931 56.2057C36.6931 56.2057 27.2222 31.0772 37.0922 20.5723Z" fill="#0095D4"/>
<path d="M29.7456 5.49524C29.7268 7.57995 29.8907 9.66228 30.2355 11.7184C30.5836 13.7762 31.4378 15.7152 32.7211 17.361C33.0836 17.825 33.5496 18.1978 34.0819 18.4496C34.6299 18.6272 35.2175 18.643 35.7743 18.4949C36.331 18.3469 36.8332 18.0413 37.2206 17.6149C37.9877 16.743 38.5297 15.6965 38.7991 14.5669C39.4895 12.1695 39.7777 9.6742 39.6519 7.18255" fill="#E3E3E3"/>
<path d="M60.8785 28.1926C57.2498 25.9791 56.9414 20.1007 55.2541 15.9641C53.5668 11.8274 50.9541 12.0995 47.652 10.9021C44.35 9.7046 44.4226 7.40041 42.826 5.00549C41.2294 2.61058 37.7276 -0.437514 34.2441 0.0523547C30.7606 0.542223 27.4405 2.9916 28.4202 7.40042C29.3999 11.8092 30.2345 11.7185 30.2345 11.7185C29.7812 10.0225 29.9954 8.21733 30.8332 6.67464C32.1032 9.95858 33.8088 9.72275 36.9476 9.88604C40.0864 10.0493 38.9977 13.6598 38.9977 13.6598C38.0542 22.0783 59.1004 40.8747 59.1004 40.8747C72.1455 44.6486 64.5434 30.3879 60.9148 28.1744" fill="#142B2A"/>
<path d="M36.6937 56.2063C36.6937 56.2063 42.9532 56.2063 43.9511 56.2063C44.9489 56.2063 47.7429 53.1945 47.7429 53.1945L40.4856 32.4023H39.4152L36.6211 42.4537L36.6937 56.2063Z" fill="#0095D4"/>
<path d="M27.6946 48.4221H0.479634C0.436327 48.4221 0.394757 48.4049 0.364134 48.3743C0.333512 48.3437 0.316406 48.3022 0.316406 48.2589C0.316406 48.2156 0.333512 48.174 0.364134 48.1434C0.394757 48.1128 0.436327 48.0956 0.479634 48.0956H27.6946C27.7379 48.0956 27.7794 48.1128 27.8101 48.1434C27.8407 48.174 27.8579 48.2156 27.8579 48.2589C27.8579 48.3022 27.8407 48.3437 27.8101 48.3743C27.7794 48.4049 27.7379 48.4221 27.6946 48.4221Z" fill="#13110C"/>
<path d="M29.2389 29.4267C29.2389 29.4267 27.6603 24.4736 24.2857 23.9837C20.911 23.4938 22.0359 24.3647 22.4713 24.4373C23.3345 24.6261 24.1787 24.8933 24.9933 25.2356C24.9933 25.2356 22.435 24.6369 22.3262 25.0179C22.2173 25.3989 24.1405 25.5803 24.4852 25.925C24.4852 25.925 22.054 25.3989 21.9996 25.7799C21.9452 26.1609 23.9592 26.2697 24.2495 26.6326C24.2495 26.6326 22.29 26.1427 22.4351 26.6326C22.5803 27.1225 23.8503 27.1044 24.2495 27.4491C24.6486 27.7938 25.0296 29.5356 26.4811 29.0457C26.689 30.0137 27.031 30.948 27.4971 31.8216" fill="#9BCEA4"/>
<path d="M41.4284 98.4975C41.3924 97.3307 41.2834 96.1672 41.1019 95.014C41.0967 94.9083 41.0587 94.8068 40.993 94.7237C40.8988 94.653 40.7842 94.6148 40.6664 94.6148L38.8521 94.506C36.776 96.4611 34.0291 97.5455 31.1774 97.5359C32.0588 96.3515 33.1248 95.3162 34.3344 94.4697H32.9918C30.5424 96.2841 27.9661 98.2254 26.9863 101.146C31.0977 100.554 35.1649 99.6873 39.1605 98.552L39.2694 99.2777L40.8841 99.06C41.0391 99.0616 41.1887 99.0031 41.3014 98.8967C41.3378 98.7661 41.3378 98.6281 41.3014 98.4975" fill="#9BCEA4"/>
<path d="M30.5439 89.8798C29.2139 90.9734 28.1889 92.3921 27.5684 93.9983C29.2013 93.7624 30.8342 93.4903 32.4489 93.1455L30.5439 89.8798Z" fill="#9BCEA4"/>
<path d="M32.9567 94.0886C32.9341 94.0998 32.9092 94.1056 32.884 94.1056C32.8589 94.1056 32.8341 94.0998 32.8115 94.0886C32.8115 94.0886 29.4913 88.5549 26.2436 82.0959C21.8893 73.4053 19.6758 67.2003 19.6758 63.6442C19.6785 63.0431 19.8056 62.449 20.0492 61.8995C20.2927 61.3499 20.6474 60.8567 21.0909 60.451C23.2862 58.2919 27.9673 56.9312 35.0069 56.3687C38.3026 56.1174 41.6098 56.0507 44.913 56.1691C46.4048 56.6118 47.8556 57.1825 49.2493 57.8746C52.2248 59.3805 53.9484 61.0497 54.3657 62.864C54.4875 63.8297 54.348 64.8104 53.9619 65.7039C53.5758 66.5974 52.9571 67.371 52.1704 67.9442C48.9409 70.9559 43.6793 71.5728 36.9844 69.7585C34.1329 68.926 31.3683 67.8202 28.7293 66.4564C30.9972 69.0872 33.4828 74.0947 36.1136 81.4246C38.2545 87.4119 39.7423 92.7823 39.7423 92.8368C39.7511 92.8786 39.7511 92.9218 39.7423 92.9637C39.7423 92.9637 39.7423 92.9637 39.6334 92.9637L33.0837 94.1068M41.9738 56.3869C36.5309 56.3869 25.282 56.8768 21.4356 60.6324C21.0247 61.0089 20.6952 61.4654 20.4674 61.9741C20.2397 62.4827 20.1184 63.0325 20.1112 63.5898C20.1112 71.6817 32.2309 92.2017 33.1562 93.762L39.4157 92.6735C38.8532 90.6233 33.392 71.1555 27.8946 65.9121C27.8679 65.8822 27.8531 65.8434 27.8531 65.8033C27.8531 65.7631 27.8679 65.7243 27.8946 65.6944C27.9216 65.6688 27.9573 65.6547 27.9944 65.6547C28.0315 65.6547 28.0673 65.6688 28.0943 65.6944C28.2576 65.8032 44.4233 74.766 52.1341 67.7264C52.8862 67.1733 53.4706 66.4231 53.8228 65.5585C54.175 64.694 54.2813 63.7489 54.1299 62.8277C53.2046 58.8362 45.3303 56.4957 44.913 56.3687C44.4957 56.2417 43.6068 56.3687 41.8831 56.3687" fill="#13110C"/>
<path d="M40.2846 18.8492C40.2846 18.8492 49.9187 16.7082 57.7566 31.0777C65.5945 45.4472 67.9531 58.0568 63.6169 77.3249C63.6169 77.3249 55.0896 80.7722 39.4863 76.1456C39.4863 76.1456 48.1407 58.2926 39.4863 32.4929C39.4863 32.4929 43.5141 27.7938 40.2846 18.8492Z" fill="#0095D4"/>
<path d="M29.7261 30.0615C29.7261 30.0615 38.7977 49.8196 45.4744 31.0775C45.4744 31.0775 52.8951 35.2324 53.8929 41.5281C53.8929 41.5281 52.0787 53.7748 41.8096 53.1579C31.5405 52.5411 27.2949 33.3636 27.2949 33.3636L29.7261 30.0615Z" fill="#0095D4"/>
<path d="M42.5352 53.3575H41.8096C37.5822 53.1035 33.6995 49.5656 30.5607 43.1428C29.0699 40.0352 27.9026 36.7826 27.0772 33.4362C27.0676 33.4164 27.0625 33.3947 27.0625 33.3727C27.0625 33.3507 27.0676 33.329 27.0772 33.3092L29.5809 30.0071C29.6035 29.9959 29.6284 29.9901 29.6535 29.9901C29.6787 29.9901 29.7035 29.9959 29.7261 30.0071C29.7261 30.0071 29.8349 30.0071 29.8531 30.0071C29.8712 30.0071 34.0623 39.0788 38.6889 39.0788H38.8522C41.3197 38.9518 43.4787 36.2847 45.3112 31.1138C45.3316 31.0752 45.3632 31.0436 45.4019 31.0231H45.5289C46.9148 31.813 48.2159 32.7432 49.4116 33.7991C51.7532 35.7841 53.3838 38.4785 54.0563 41.4737C54.0563 41.6007 52.0967 53.2849 42.5352 53.2849M27.4038 33.3273C27.7122 34.6518 32.2118 52.3415 41.9184 52.9221C51.6251 53.5027 53.7116 42.0361 53.8204 41.4555C53.1683 38.5393 51.5743 35.9188 49.2846 33.9986C48.1652 32.9663 46.9502 32.0429 45.6559 31.2408C43.8416 36.4298 41.5556 39.115 38.9792 39.242C36.929 39.242 34.7155 37.8269 32.4657 34.7244C31.4474 33.3306 30.5549 31.8491 29.7987 30.2974L27.4038 33.3273Z" fill="white"/>
<path d="M53.8394 84.9631C51.648 84.9237 49.4609 84.754 47.2896 84.4551C47.1917 84.4415 47.1028 84.3904 47.0419 84.3125C46.9809 84.2346 46.9527 84.1362 46.963 84.0378C46.9766 83.9384 47.027 83.8478 47.1043 83.7839C47.1817 83.72 47.2803 83.6876 47.3804 83.6931C53.0411 84.3825 58.4841 84.7635 62.6752 81.8788C66.8663 78.994 68.7894 72.8071 69.6603 68.616C71.6605 58.9117 71.9246 48.9297 70.4405 39.1332C70.4246 39.0347 70.4481 38.9339 70.5058 38.8525C70.5635 38.771 70.6507 38.7155 70.7489 38.6978C70.799 38.6901 70.8502 38.6925 70.8993 38.7048C70.9485 38.7171 70.9947 38.7391 71.0352 38.7695C71.0758 38.7999 71.1098 38.8382 71.1354 38.8819C71.161 38.9257 71.1777 38.9741 71.1844 39.0243C72.6889 48.9113 72.4186 58.9873 70.3861 68.7793C68.5717 77.8509 65.3241 80.9897 63.1288 82.5138C60.3708 84.265 57.1388 85.1205 53.8756 84.9631" fill="#CA5098"/>
<path d="M55.4006 91.1679C55.3505 91.1679 55.301 91.158 55.2547 91.1389C55.2085 91.1197 55.1665 91.0917 55.1312 91.0563C55.0958 91.0209 55.0677 90.9789 55.0485 90.9327C55.0294 90.8864 55.0195 90.8369 55.0195 90.7869V84.6544C55.0195 84.5534 55.0597 84.4565 55.1312 84.385C55.2026 84.3136 55.2995 84.2734 55.4006 84.2734C55.5016 84.2734 55.5986 84.3136 55.67 84.385C55.7415 84.4565 55.7815 84.5534 55.7815 84.6544V90.7869C55.784 90.836 55.7765 90.8852 55.7594 90.9313C55.7422 90.9775 55.7159 91.0196 55.682 91.0552C55.648 91.0909 55.6072 91.1193 55.5619 91.1386C55.5167 91.158 55.468 91.1679 55.4187 91.1679" fill="#CA5098"/>
<path d="M48.5803 92.3298C48.4792 92.3298 48.3823 92.2896 48.3108 92.2181C48.2394 92.1467 48.1992 92.0498 48.1992 91.9487C48.1992 91.8477 48.2394 91.7508 48.3108 91.6793C48.3823 91.6079 48.4792 91.5677 48.5803 91.5677C53.7797 90.5299 59.0503 89.887 64.3468 89.6445C64.4478 89.6445 64.5448 89.6847 64.6162 89.7562C64.6877 89.8276 64.7278 89.9245 64.7278 90.0255C64.7278 90.1266 64.6877 90.2235 64.6162 90.2949C64.5448 90.3664 64.4478 90.4066 64.3468 90.4066C59.0882 90.6598 53.855 91.2965 48.6891 92.3116" fill="#CA5098"/>
<path d="M52.0626 58.4014C55.0314 59.2176 58.1654 59.2176 61.1342 58.4014C61.1342 58.4014 61.8781 66.838 55.9271 67.2553C49.9761 67.6726 52.1171 58.4014 52.1171 58.4014" fill="#9BCEA4"/>
<path d="M32.4491 14.6579H32.2314C32.1275 14.5847 32.0459 14.4842 31.9955 14.3676C31.6497 13.6902 31.4168 12.961 31.306 12.2085C31.2417 11.8181 31.2417 11.4197 31.306 11.0292C31.308 11.0083 31.3145 10.9879 31.3251 10.9697C31.3357 10.9515 31.3501 10.9358 31.3674 10.9237C31.3847 10.9116 31.4043 10.9034 31.4251 10.8997C31.4458 10.896 31.4672 10.8969 31.4875 10.9022C31.5085 10.9042 31.5288 10.9106 31.547 10.9212C31.5652 10.9318 31.581 10.9462 31.5931 10.9635C31.6052 10.9808 31.6133 11.0005 31.617 11.0212C31.6207 11.042 31.6199 11.0633 31.6146 11.0837C31.5616 11.4385 31.5616 11.7993 31.6146 12.1541C31.7187 12.8686 31.9394 13.5612 32.2677 14.2043L32.3765 14.3676C32.4543 14.3843 32.5347 14.3843 32.6124 14.3676C33.0876 14.2541 33.5452 14.0771 33.9732 13.8414C34.0046 13.8179 34.0428 13.8052 34.082 13.8052C34.1213 13.8052 34.1595 13.8179 34.1909 13.8414C34.2063 13.855 34.2187 13.8718 34.2272 13.8906C34.2357 13.9094 34.24 13.9297 34.24 13.9503C34.24 13.9709 34.2357 13.9913 34.2272 14.01C34.2187 14.0288 34.2063 14.0455 34.1909 14.0591C33.7405 14.31 33.2583 14.4992 32.7575 14.6216H32.5217" fill="#142B2A"/>
<path d="M33.0106 10.9562C33.0763 10.9094 33.1526 10.8795 33.2326 10.8692C33.3126 10.8589 33.394 10.8686 33.4694 10.8973C33.5448 10.9261 33.6119 10.973 33.6648 11.0339C33.7177 11.0948 33.7548 11.1678 33.7727 11.2465C33.7827 11.326 33.7737 11.4067 33.7465 11.482C33.7194 11.5574 33.6748 11.6253 33.6164 11.6801C33.558 11.7349 33.4875 11.7752 33.4106 11.7976C33.3337 11.82 33.2526 11.8239 33.1739 11.8089C33.099 11.7768 33.0327 11.7276 32.98 11.6654C32.9274 11.6032 32.8898 11.5296 32.8705 11.4505C32.8511 11.3713 32.8505 11.2887 32.8685 11.2092C32.8865 11.1298 32.9228 11.0556 32.9744 10.9925" fill="#142B2A"/>
<path d="M32.1945 10.5391C32.172 10.5503 32.1472 10.5562 32.122 10.5562C32.0968 10.5562 32.072 10.5503 32.0494 10.5391C32.0227 10.5092 32.0078 10.4704 32.0078 10.4303C32.0078 10.3901 32.0227 10.3514 32.0494 10.3214C32.4032 10.0436 32.8021 9.82883 33.2287 9.6864C33.2488 9.67788 33.2707 9.67402 33.2925 9.6751C33.3143 9.67619 33.3356 9.68219 33.3548 9.69266C33.374 9.70312 33.3906 9.7178 33.4033 9.73557C33.4161 9.75334 33.4246 9.77372 33.4284 9.79526C33.4407 9.83385 33.4381 9.87564 33.4214 9.91253C33.4046 9.94941 33.3747 9.97878 33.3376 9.99486C32.9432 10.1224 32.5746 10.319 32.249 10.5755H32.1583" fill="#142B2A"/>
<path d="M30.7077 11.0288C30.5332 11.0032 30.3559 11.0032 30.1814 11.0288C30.16 11.0313 30.1382 11.0296 30.1174 11.0236C30.0966 11.0177 30.0773 11.0076 30.0604 10.9941C30.0435 10.9806 30.0295 10.9639 30.0191 10.9449C30.0087 10.926 30.0023 10.9051 30 10.8836C29.9992 10.8412 30.0132 10.7998 30.0397 10.7666C30.0662 10.7335 30.1036 10.7107 30.1452 10.7022C30.3493 10.667 30.5579 10.667 30.762 10.7022C30.783 10.7041 30.8034 10.7107 30.8216 10.7212C30.8398 10.7318 30.8555 10.7462 30.8676 10.7635C30.8796 10.7807 30.8879 10.8005 30.8916 10.8212C30.8953 10.842 30.8944 10.8633 30.889 10.8836C30.8846 10.9189 30.8674 10.9513 30.8406 10.9747C30.8139 10.9981 30.7794 11.0109 30.7439 11.0107" fill="#142B2A"/>
<path d="M33.0824 16.2721C33.0421 16.2724 33.0031 16.2577 32.9729 16.2309C32.9427 16.2041 32.9236 16.1671 32.9191 16.127C32.9166 16.1055 32.9183 16.0838 32.9243 16.063C32.9302 16.0422 32.9402 16.0228 32.9537 16.006C32.9672 15.9891 32.9839 15.975 33.0029 15.9647C33.0219 15.9543 33.0428 15.9478 33.0643 15.9456C33.7738 15.8962 34.4627 15.6852 35.0781 15.3287C35.1081 15.3019 35.1468 15.2871 35.187 15.2871C35.2272 15.2871 35.2659 15.3019 35.2958 15.3287C35.3194 15.3601 35.3322 15.3983 35.3322 15.4375C35.3322 15.4768 35.3194 15.515 35.2958 15.5464C34.6321 15.9182 33.8953 16.141 33.1368 16.1995" fill="#142B2A"/>
<path d="M30.689 11.6638C30.6394 11.66 30.5898 11.672 30.5475 11.6981C30.5051 11.7242 30.4721 11.763 30.4531 11.8089C30.4531 11.8089 30.4531 11.8089 30.4531 11.9178C30.4531 12.0267 30.4531 12.2444 30.6164 12.3351C30.6425 12.358 30.6743 12.3737 30.7084 12.3805C30.7425 12.3874 30.7778 12.3851 30.8108 12.3741C30.8438 12.3631 30.8735 12.3437 30.8966 12.3178C30.9198 12.2918 30.9357 12.2602 30.9429 12.2262C30.953 12.1479 30.953 12.0687 30.9429 11.9904C30.9377 11.9142 30.9086 11.8417 30.8598 11.783C30.8109 11.7244 30.7448 11.6827 30.6708 11.6638" fill="#142B2A"/>
<path d="M22.7772 46.2272H22.4144V32.2024C22.4193 31.5367 22.1606 30.896 21.695 30.4202C21.2293 29.9444 20.5945 29.6719 19.9288 29.6624H8.13568C7.80687 29.6671 7.4822 29.7366 7.18023 29.8668C6.87827 29.997 6.60486 30.1854 6.37572 30.4213C6.14659 30.6572 5.96615 30.9359 5.84473 31.2415C5.72332 31.5471 5.66331 31.8736 5.66811 32.2024V46.2272H5.28717V32.2024C5.28226 31.4387 5.57853 30.7039 6.11172 30.1571C6.64492 29.6103 7.3721 29.2957 8.13568 29.2814H19.9288C20.3077 29.2861 20.6818 29.3654 21.03 29.5148C21.3782 29.6641 21.6936 29.8806 21.9581 30.1519C22.2226 30.4231 22.431 30.7438 22.5716 31.0956C22.7121 31.4475 22.782 31.8236 22.7772 32.2024V46.2272Z" fill="#0A0A09"/>
<path d="M8.77123 40.5304C8.72151 40.5259 8.67526 40.5029 8.64167 40.4659C8.60808 40.429 8.58964 40.3808 8.58985 40.3309V28.574C8.59393 28.5273 8.61436 28.4835 8.64754 28.4503C8.68072 28.4171 8.72449 28.3967 8.77123 28.3926C8.82117 28.3924 8.86939 28.4109 8.90633 28.4445C8.94328 28.4781 8.96624 28.5243 8.97078 28.574V40.3309C8.97078 40.3838 8.94974 40.4346 8.91231 40.472C8.87489 40.5095 8.82416 40.5304 8.77123 40.5304Z" fill="#0A0A09"/>
<path d="M10.151 41.2743C10.1438 41.5497 10.0553 41.8168 9.89674 42.0421C9.73814 42.2674 9.51642 42.4408 9.25955 42.5404C9.00269 42.64 8.72219 42.6614 8.45316 42.602C8.18413 42.5426 7.93866 42.405 7.74765 42.2064C7.55664 42.0079 7.42863 41.7573 7.37967 41.4862C7.3307 41.215 7.36297 40.9355 7.47247 40.6827C7.58196 40.4298 7.76379 40.2151 7.99504 40.0653C8.22628 39.9155 8.4966 39.8374 8.77209 39.8409C9.14425 39.8504 9.49767 40.0062 9.75577 40.2745C10.0139 40.5428 10.1559 40.902 10.151 41.2743Z" fill="#CA5098"/>
<path d="M8.50068 40.8393C8.50068 40.9212 8.46822 40.9998 8.41028 41.0577C8.35234 41.1157 8.27369 41.1482 8.19175 41.1482C8.10981 41.1482 8.03127 41.1157 7.97333 41.0577C7.91539 40.9998 7.88281 40.9212 7.88281 40.8393C7.88281 40.7573 7.91539 40.6787 7.97333 40.6208C8.03127 40.5628 8.10981 40.5303 8.19175 40.5303C8.27369 40.5303 8.35234 40.5628 8.41028 40.6208C8.46822 40.6787 8.50068 40.7573 8.50068 40.8393Z" fill="white"/>
<path d="M12.2732 40.5304C12.2235 40.5259 12.1772 40.5029 12.1436 40.4659C12.11 40.429 12.0916 40.3808 12.0918 40.3309V28.574C12.0959 28.5273 12.1163 28.4835 12.1495 28.4503C12.1827 28.4171 12.2264 28.3967 12.2732 28.3926C12.3231 28.3924 12.3713 28.4109 12.4083 28.4445C12.4452 28.4781 12.4682 28.5243 12.4727 28.574V40.3309C12.4727 40.3838 12.4517 40.4346 12.4143 40.472C12.3768 40.5095 12.3261 40.5304 12.2732 40.5304Z" fill="#0A0A09"/>
<path d="M13.6706 41.2742C13.6635 41.5488 13.5755 41.8153 13.4177 42.0402C13.2599 42.2651 13.0393 42.4385 12.7835 42.5387C12.5277 42.6389 12.248 42.6614 11.9794 42.6035C11.7108 42.5456 11.4653 42.4097 11.2736 42.213C11.0818 42.0162 10.9523 41.7673 10.9013 41.4973C10.8502 41.2274 10.8799 40.9484 10.9866 40.6952C11.0934 40.4421 11.2724 40.2259 11.5012 40.074C11.7301 39.922 11.9988 39.8409 12.2735 39.8408C12.4594 39.8432 12.6429 39.8822 12.8137 39.9555C12.9845 40.0288 13.1392 40.1351 13.269 40.2682C13.3987 40.4013 13.5009 40.5586 13.5698 40.7312C13.6387 40.9038 13.673 41.0883 13.6706 41.2742Z" fill="#CA5098"/>
<path d="M12.0202 40.8393C12.0202 40.9212 11.9878 40.9998 11.9298 41.0577C11.8719 41.1157 11.7932 41.1482 11.7113 41.1482C11.6293 41.1482 11.5508 41.1157 11.4929 41.0577C11.4349 40.9998 11.4023 40.9212 11.4023 40.8393C11.4023 40.7573 11.4349 40.6787 11.4929 40.6208C11.5508 40.5628 11.6293 40.5303 11.7113 40.5303C11.7932 40.5303 11.8719 40.5628 11.9298 40.6208C11.9878 40.6787 12.0202 40.7573 12.0202 40.8393Z" fill="white"/>
<path d="M15.7936 40.5304C15.7682 40.5306 15.7431 40.5254 15.7198 40.5152C15.6965 40.5049 15.6756 40.4899 15.6585 40.4711C15.6414 40.4523 15.6284 40.4301 15.6204 40.4059C15.6125 40.3818 15.6097 40.3562 15.6122 40.3309V28.574C15.6122 28.5259 15.6314 28.4798 15.6654 28.4457C15.6994 28.4117 15.7455 28.3926 15.7936 28.3926C15.8418 28.3926 15.888 28.4117 15.922 28.4457C15.956 28.4798 15.975 28.5259 15.975 28.574V40.3309C15.9776 40.3562 15.9748 40.3818 15.9668 40.4059C15.9589 40.4301 15.946 40.4523 15.9288 40.4711C15.9117 40.4899 15.8908 40.5049 15.8675 40.5152C15.8442 40.5254 15.8191 40.5306 15.7936 40.5304Z" fill="#0A0A09"/>
<path d="M17.1901 41.2742C17.183 41.5488 17.095 41.8153 16.9372 42.0402C16.7794 42.2651 16.5588 42.4385 16.303 42.5387C16.0472 42.6389 15.7675 42.6614 15.4989 42.6035C15.2304 42.5456 14.9849 42.4097 14.7931 42.213C14.6013 42.0162 14.4718 41.7673 14.4208 41.4973C14.3698 41.2274 14.3995 40.9484 14.5062 40.6952C14.6129 40.4421 14.7919 40.2259 15.0208 40.074C15.2497 39.922 15.5183 39.8409 15.7931 39.8408C15.9789 39.8432 16.1624 39.8822 16.3332 39.9555C16.504 40.0288 16.6588 40.1351 16.7885 40.2682C16.9182 40.4013 17.0204 40.5586 17.0894 40.7312C17.1583 40.9038 17.1925 41.0883 17.1901 41.2742Z" fill="#CA5098"/>
<path d="M15.5216 40.8393C15.524 40.879 15.5184 40.9187 15.5049 40.9561C15.4914 40.9935 15.4704 41.0278 15.4431 41.0567C15.4159 41.0857 15.383 41.1087 15.3465 41.1245C15.31 41.1402 15.2706 41.1483 15.2308 41.1482C15.1489 41.1482 15.0703 41.1157 15.0124 41.0577C14.9545 40.9998 14.9219 40.9212 14.9219 40.8393C14.9262 40.7587 14.9601 40.6826 15.0172 40.6256C15.0742 40.5686 15.1503 40.5346 15.2308 40.5303C15.3096 40.5349 15.3835 40.5695 15.4376 40.6269C15.4917 40.6844 15.5217 40.7604 15.5216 40.8393Z" fill="white"/>
<path d="M19.3112 40.5304C19.2858 40.5306 19.2606 40.5254 19.2373 40.5152C19.2141 40.5049 19.1932 40.4899 19.1761 40.4711C19.159 40.4523 19.146 40.4301 19.138 40.4059C19.13 40.3818 19.1273 40.3562 19.1298 40.3309V28.574C19.1298 28.5259 19.149 28.4798 19.183 28.4457C19.217 28.4117 19.2631 28.3926 19.3112 28.3926C19.3593 28.3926 19.4055 28.4117 19.4396 28.4457C19.4736 28.4798 19.4926 28.5259 19.4926 28.574V40.3309C19.4951 40.3562 19.4924 40.3818 19.4844 40.4059C19.4764 40.4301 19.4635 40.4523 19.4464 40.4711C19.4293 40.4899 19.4084 40.5049 19.3851 40.5152C19.3618 40.5254 19.3366 40.5306 19.3112 40.5304Z" fill="#0A0A09"/>
<path d="M22.4696 39.0607C22.4392 39.0524 22.4115 39.0363 22.3893 39.014C22.367 38.9917 22.3509 38.964 22.3425 38.9337L22.0341 38.0084C22.0223 37.9603 22.0287 37.9096 22.0522 37.866C22.0757 37.8224 22.1145 37.7891 22.1612 37.7725C22.1838 37.7639 22.2078 37.7598 22.232 37.7606C22.2562 37.7614 22.28 37.7671 22.302 37.7772C22.324 37.7874 22.3437 37.8018 22.36 37.8197C22.3764 37.8376 22.3889 37.8586 22.397 37.8814L22.6873 38.8067C22.7054 38.8549 22.7042 38.9083 22.684 38.9556C22.6637 39.0029 22.6258 39.0406 22.5784 39.0607H22.4696ZM21.8708 37.2464C21.8418 37.2354 21.8155 37.2185 21.7936 37.1966C21.7717 37.1747 21.7548 37.1483 21.7439 37.1193L21.4535 36.1759C21.4449 36.1533 21.4409 36.1292 21.4417 36.105C21.4425 36.0808 21.4482 36.057 21.4583 36.035C21.4685 36.0131 21.4828 35.9933 21.5007 35.977C21.5186 35.9607 21.5396 35.9481 21.5624 35.94C21.5859 35.9282 21.6118 35.9221 21.6381 35.9225C21.6644 35.9228 21.6903 35.9296 21.7134 35.942C21.7366 35.9545 21.7565 35.9724 21.7713 35.9941C21.786 36.0159 21.7953 36.0409 21.7983 36.0671L22.1067 36.9924C22.1185 37.0404 22.1121 37.0912 22.0886 37.1348C22.0652 37.1784 22.0264 37.2117 21.9798 37.2282H21.8708M21.2903 35.4139C21.258 35.4101 21.2278 35.3954 21.2047 35.3724C21.1817 35.3494 21.1671 35.3193 21.1633 35.2869L20.8548 34.3616C20.8466 34.3137 20.8548 34.2646 20.8778 34.2218C20.9008 34.1791 20.9374 34.1452 20.9818 34.1257C21.0056 34.1174 21.0309 34.1141 21.056 34.1161C21.0811 34.1181 21.1056 34.1253 21.1278 34.1372C21.1499 34.1492 21.1694 34.1656 21.1849 34.1855C21.2004 34.2054 21.2115 34.2283 21.2177 34.2527L21.508 35.178C21.5167 35.2007 21.5207 35.2247 21.5199 35.2489C21.5191 35.2731 21.5134 35.2969 21.5033 35.3189C21.4931 35.3409 21.4787 35.3606 21.4609 35.3769C21.443 35.3932 21.422 35.4058 21.3992 35.4139H21.2903ZM20.6916 33.5996C20.6612 33.5913 20.6335 33.5751 20.6113 33.5529C20.589 33.5306 20.5729 33.5029 20.5645 33.4726L20.2743 32.5472C20.266 32.5246 20.2622 32.5006 20.2631 32.4765C20.2641 32.4524 20.2697 32.4287 20.2798 32.4068C20.2899 32.3849 20.3043 32.3652 20.322 32.3488C20.3397 32.3324 20.3605 32.3197 20.3832 32.3114C20.4058 32.303 20.4298 32.2992 20.4539 32.3002C20.478 32.3012 20.5017 32.3069 20.5236 32.317C20.5455 32.3271 20.5652 32.3414 20.5816 32.3591C20.598 32.3768 20.6107 32.3976 20.619 32.4202L20.9274 33.3456C20.9367 33.3959 20.9293 33.448 20.9064 33.4938C20.8835 33.5397 20.8463 33.5768 20.8004 33.5996H20.6916ZM20.111 31.7853C20.082 31.7743 20.0557 31.7573 20.0338 31.7354C20.0119 31.7135 19.9949 31.6872 19.9839 31.6582L19.6937 30.7148C19.685 30.6922 19.6809 30.6681 19.6817 30.6439C19.6826 30.6197 19.6882 30.5959 19.6984 30.5739C19.7085 30.5519 19.723 30.5322 19.7409 30.5159C19.7588 30.4996 19.7797 30.487 19.8026 30.4789C19.8263 30.4706 19.8516 30.4673 19.8767 30.4693C19.9019 30.4713 19.9262 30.4785 19.9484 30.4904C19.9706 30.5024 19.9901 30.5188 20.0055 30.5387C20.021 30.5586 20.0323 30.5815 20.0384 30.6059L20.3287 31.5312C20.3373 31.5538 20.3413 31.578 20.3405 31.6022C20.3397 31.6264 20.3342 31.6501 20.324 31.6721C20.3139 31.6941 20.2994 31.7138 20.2815 31.7301C20.2636 31.7464 20.2426 31.759 20.2198 31.7671H20.111" fill="#B4B4B4"/>
<path d="M24.6463 40.3667C24.7628 40.7254 24.7353 41.1153 24.5693 41.454C24.4034 41.7926 24.1121 42.0534 23.7573 42.1811C23.5779 42.2484 23.3864 42.2777 23.1951 42.2669C23.0037 42.2562 22.8167 42.2056 22.646 42.1186C22.4753 42.0315 22.3246 41.9098 22.2035 41.7613C22.0825 41.6127 21.9937 41.4405 21.9429 41.2557C21.8215 40.8972 21.8468 40.5052 22.0134 40.1653C22.1799 39.8254 22.4742 39.5652 22.8319 39.4414C23.0102 39.3738 23.2005 39.3438 23.3908 39.3534C23.5812 39.363 23.7675 39.412 23.938 39.4972C24.1085 39.5825 24.2595 39.7022 24.3814 39.8487C24.5033 39.9952 24.5935 40.1654 24.6463 40.3486" fill="#B4B4B4"/>
<path d="M22.9428 40.4941C22.9664 40.5737 22.9589 40.6592 22.9218 40.7335C22.8847 40.8077 22.8207 40.8651 22.7429 40.8939C22.6657 40.9169 22.5827 40.9088 22.5115 40.8715C22.4402 40.8341 22.3862 40.7704 22.3612 40.694C22.3375 40.6144 22.3451 40.5288 22.3822 40.4546C22.4194 40.3803 22.4832 40.323 22.5611 40.2941C22.5992 40.2801 22.6398 40.2743 22.6803 40.277C22.7208 40.2796 22.7603 40.2907 22.7962 40.3095C22.8322 40.3284 22.8638 40.3545 22.8891 40.3863C22.9143 40.4181 22.9326 40.4548 22.9428 40.4941Z" fill="white"/>
<path d="M20.7097 41.2742C20.7025 41.5488 20.6145 41.8153 20.4567 42.0402C20.299 42.2651 20.0784 42.4385 19.8225 42.5387C19.5667 42.6389 19.287 42.6614 19.0185 42.6035C18.7499 42.5456 18.5044 42.4097 18.3126 42.213C18.1209 42.0162 17.9914 41.7673 17.9403 41.4973C17.8893 41.2274 17.919 40.9484 18.0257 40.6952C18.1324 40.4421 18.3114 40.2259 18.5403 40.074C18.7692 39.922 19.0379 39.8409 19.3126 39.8408C19.6864 39.8503 20.0417 40.0055 20.3027 40.2733C20.5637 40.541 20.7098 40.9002 20.7097 41.2742Z" fill="#CA5098"/>
<path d="M19.0411 40.8393C19.0436 40.879 19.0379 40.9187 19.0244 40.9561C19.011 40.9935 18.9899 41.0278 18.9627 41.0567C18.9354 41.0857 18.9026 41.1087 18.866 41.1245C18.8295 41.1402 18.7901 41.1483 18.7503 41.1482C18.6684 41.1482 18.5899 41.1157 18.5319 41.0577C18.474 40.9998 18.4414 40.9212 18.4414 40.8393C18.4458 40.7587 18.4797 40.6826 18.5367 40.6256C18.5937 40.5686 18.6698 40.5346 18.7503 40.5303C18.8291 40.5349 18.903 40.5695 18.9571 40.6269C19.0112 40.6844 19.0412 40.7604 19.0411 40.8393Z" fill="white"/>
</svg>
