<svg width="106" height="91" viewBox="0 0 106 91" fill="none" xmlns="http://www.w3.org/2000/svg">
<path d="M105.655 28.8686C105.632 28.8386 105.603 28.8137 105.57 28.7953C105.537 28.7769 105.5 28.7655 105.463 28.7617L55.4027 33.0349C55.3545 33.0169 55.3014 33.0169 55.2531 33.0349L17.7775 80.0397C17.7569 80.0793 17.7461 80.1233 17.7461 80.1679C17.7461 80.2125 17.7569 80.2565 17.7775 80.2961C17.7975 80.3353 17.8282 80.3682 17.8659 80.3908C17.9037 80.4135 17.9471 80.4251 17.9911 80.4243L72.474 76.1511V90.1244C72.474 90.1867 72.4988 90.2465 72.5428 90.2906C72.5869 90.3346 72.6466 90.3594 72.709 90.3594C72.7713 90.3594 72.8312 90.3346 72.8752 90.2906C72.9193 90.2465 72.9441 90.1867 72.9441 90.1244V75.9802L105.249 29.6377V62.3061C105.249 62.3684 105.274 62.4282 105.318 62.4723C105.362 62.5163 105.422 62.5411 105.484 62.5411C105.547 62.5411 105.606 62.5163 105.65 62.4723C105.694 62.4282 105.719 62.3684 105.719 62.3061V28.8899M72.6022 75.7024L18.5253 79.9756L55.5737 33.4836L105.014 29.2104L72.6022 75.7024Z" fill="#142B2A"/>
<path d="M22.6902 78.1378C22.6498 78.1348 22.611 78.1214 22.5773 78.0989C22.5436 78.0765 22.5161 78.0457 22.4978 78.0096C22.4712 77.9682 22.457 77.9199 22.457 77.8707C22.457 77.8214 22.4712 77.7732 22.4978 77.7318L55.9996 34.872C56.0483 34.8571 56.1003 34.8571 56.149 34.872L101.573 30.9193C101.62 30.9142 101.668 30.9237 101.71 30.9467C101.752 30.9696 101.786 31.0047 101.808 31.0475C101.833 31.0856 101.846 31.1302 101.846 31.1757C101.846 31.2212 101.833 31.2657 101.808 31.3039L72.2589 74.1637C72.2414 74.1942 72.2166 74.2199 72.1868 74.2386C72.157 74.2572 72.123 74.2682 72.088 74.2705L22.6902 78.1378ZM56.32 35.2566L23.2243 77.6036L71.9384 73.6937L101.145 31.3466L56.32 35.2566Z" fill="#142B2A"/>
<path d="M58.8629 49.4433L43.9068 45.5119C41.768 39.6081 38.7734 34.0506 35.0187 29.0175C30.4464 34.1026 25.6604 25.2572 25.0622 24.082C21.2377 28.5902 28.3312 50.362 41.1079 54.8061L59.2475 53.5455L58.8629 49.4433Z" fill="#9BCEA4"/>
<path d="M21.1951 42.0945L17.9262 30.3005L25.5538 25.1514C25.1265 24.4463 24.8915 23.9549 24.8915 23.9549L23.524 21.4551C2.71371 45.8335 2.1582 81.5144 2.1582 81.5144L20.6396 80.4034L38.5441 58.2898C33.8436 57.6702 21.1525 42.0945 21.1525 42.0945" fill="#142B2A"/>
<path d="M34.9115 28.9962C31.087 33.2694 27.0917 27.757 25.5534 25.1504L17.9258 30.2995L21.1947 42.0935C21.1947 42.0935 33.7791 57.541 38.5437 58.2888C38.5437 57.8187 38.5437 57.3059 38.5437 56.7932C39.0032 47.3888 37.7583 37.9789 34.8689 29.0176" fill="#142B2A"/>
<path d="M40.2743 56.7084C40.2743 56.7084 31.728 32.1591 19.3144 26.6467C5.42666 20.472 15.319 62.1781 36.4071 69.5066L61.6187 62.1354L60.9992 57.734L40.2743 56.7084Z" fill="#9BCEA4"/>
<path d="M40.9808 10.6219C40.5852 13.3926 39.9489 16.1235 39.0792 18.7837C38.2247 21.4515 36.7022 23.8565 34.6565 25.7703C34.0554 26.3368 33.3202 26.7412 32.5199 26.9454C31.7541 27.0618 30.9711 26.9567 30.2632 26.6424C29.5552 26.3282 28.9519 25.818 28.5245 25.1721C27.6719 23.8501 27.1583 22.3384 27.029 20.7707C26.5758 17.4495 26.6913 14.0753 27.3708 10.7929" fill="#E3E3E3"/>
<path d="M70.9995 53.6955C70.9995 53.5032 70.6149 53.5673 70.3799 53.6955C68.5638 54.3151 66.769 54.9988 64.9957 55.832C65.1763 55.6318 65.3407 55.4175 65.4872 55.1911C65.7863 54.6996 66.1068 53.9091 65.9999 53.8023C65.8931 53.6954 65.0598 54.1441 65.017 54.1655C64.7415 54.363 64.4841 54.5846 64.2479 54.8278C63.7565 55.3834 62.1113 57.5627 62.1113 57.5627L62.7737 61.5367C64.6181 61.3506 66.4331 60.9417 68.1791 60.3188C68.6492 60.1337 69.1193 59.92 69.5894 59.6779C69.7389 59.6779 69.9312 59.4642 69.9312 59.2506C69.9312 59.0369 69.6107 58.8019 69.3756 58.8232C68.7032 58.8961 68.0427 59.054 67.41 59.2933C68.2162 58.903 68.9881 58.4456 69.7176 57.9259C69.9312 57.755 70.1662 57.3704 69.9739 57.1567C69.9358 57.1319 69.8913 57.1187 69.8457 57.1187C69.8002 57.1187 69.7557 57.1319 69.7176 57.1567C68.5761 57.2335 67.4629 57.5463 66.4485 58.0754L68.7775 56.8576C68.9484 56.8576 69.6961 56.2807 69.632 56.0884C69.5679 55.8961 69.5039 56.0884 69.3544 56.0884C68.1605 56.2124 67.0007 56.5603 65.9358 57.114L70.4227 54.9774C70.8286 54.7637 71.1704 54.3578 71.0636 54.0373" fill="#CA5098"/>
<path d="M34.7196 0.3878C22.4129 -2.19746 15.8536 8.78456 14.8066 14.3397C14.7004 14.9398 14.6361 15.5467 14.6143 16.1558C14.4434 20.429 15.8535 25.3004 13.2896 28.6548C12.0317 30.0287 10.514 31.1398 8.82424 31.9238C4.96156 33.7579 1.95429 37.0101 0.427489 41.0042C-1.04675 46.132 1.5385 51.5162 4.42289 55.9603C5.87576 58.2251 7.43545 60.4258 9.08062 62.5624C9.84067 63.7481 10.9125 64.7017 12.1787 65.3185C13.2689 65.612 14.4249 65.5436 15.4729 65.1236C16.5209 64.7037 17.4043 63.9548 17.9901 62.9897C19.1735 61.0104 19.8215 58.7573 19.8703 56.4517C19.9335 54.1505 20.2926 51.867 20.9386 49.6574C21.7475 47.4104 23.2424 45.4745 25.2118 44.1236C26.0394 43.6417 26.7651 43.003 27.3484 42.2435C27.7502 41.5415 27.9569 40.7447 27.9467 39.936C27.8747 37.1821 27.4291 34.4508 26.622 31.8169C26.3732 30.6769 26.2089 29.52 26.1305 28.3557C25.7025 25.7817 26.1419 23.1384 27.3794 20.8412C28.617 18.5439 30.5826 16.723 32.9676 15.6644C37.4117 13.8697 38.3518 11.6903 38.4159 11.4981C39.52 12.965 40.0104 14.8039 39.7833 16.6258C39.7833 16.6258 47.0477 3.03718 34.741 0.473282" fill="#0095D4"/>
<path d="M33.6314 20.493C33.3961 20.5081 33.1608 20.4631 32.9478 20.3621C32.7347 20.2612 32.5508 20.1077 32.4135 19.9161C32.1775 19.4617 32.124 18.9344 32.2639 18.4419C32.3297 18.0564 32.4674 17.6868 32.6699 17.3522C32.8486 17.1112 33.076 16.9106 33.3374 16.7633C33.5988 16.6161 33.8882 16.5256 34.1869 16.4976C34.4271 16.4705 34.6703 16.4966 34.8993 16.5741C35.1283 16.6517 35.3373 16.7787 35.5116 16.9462C35.7678 17.2322 35.9348 17.5869 35.9917 17.9666C36.0487 18.3463 35.9932 18.7343 35.8321 19.0828C35.6991 19.4033 35.4985 19.6914 35.2441 19.9273C34.9897 20.1633 34.6874 20.3416 34.3578 20.4502C34.125 20.5348 33.8791 20.5782 33.6314 20.5785M34.3791 17.0531H34.2297C33.9995 17.0703 33.7756 17.1363 33.5729 17.2469C33.3703 17.3574 33.1935 17.5098 33.0544 17.6941C32.8854 17.9692 32.7695 18.2736 32.7126 18.5914C32.584 18.9579 32.584 19.3573 32.7126 19.7238C32.8954 19.9021 33.1273 20.0218 33.3785 20.0675C33.6297 20.1132 33.8889 20.0828 34.1227 19.9802C34.4306 19.894 34.7153 19.7399 34.9556 19.5291C35.196 19.3183 35.3859 19.0563 35.5116 18.7623C35.6205 18.5133 35.6562 18.2383 35.6146 17.9697C35.573 17.7011 35.4557 17.4498 35.2766 17.2454C35.1739 17.1405 35.0507 17.0579 34.9147 17.0028C34.7787 16.9477 34.6328 16.9211 34.486 16.9249" fill="#142B2A"/>
<path d="M38.864 20.8993C38.6287 20.9145 38.3935 20.8694 38.1804 20.7685C37.9673 20.6676 37.7835 20.5141 37.6461 20.3225C37.5238 20.0992 37.4475 19.8538 37.4218 19.6005C37.3961 19.3473 37.4215 19.0914 37.4965 18.8482C37.5639 18.4663 37.6939 18.0982 37.8811 17.7586C38.0621 17.515 38.2929 17.3129 38.5582 17.1655C38.8234 17.0182 39.1171 16.929 39.4195 16.9039C39.6597 16.8768 39.903 16.9029 40.1319 16.9805C40.3609 17.058 40.5699 17.1851 40.7442 17.3526C41.0004 17.6385 41.1673 17.9933 41.2242 18.3729C41.2812 18.7526 41.2257 19.1407 41.0646 19.4892C40.9292 19.8082 40.7279 20.0949 40.4739 20.3306C40.2198 20.5663 39.9186 20.7455 39.5904 20.8566C39.3575 20.9411 39.1117 20.9845 38.864 20.9848M39.6117 17.4808H39.4622C39.232 17.498 39.0082 17.5641 38.8056 17.6746C38.6029 17.7851 38.4261 17.9376 38.2871 18.1218C38.1215 18.3986 38.0058 18.7023 37.9453 19.0191C37.8149 19.3853 37.8149 19.7853 37.9453 20.1515C38.1214 20.3333 38.3497 20.4557 38.5986 20.5016C38.8475 20.5476 39.1045 20.5148 39.334 20.4079C39.6004 20.3126 39.8454 20.1653 40.0545 19.9746C40.2635 19.7839 40.4325 19.5535 40.5518 19.2969C40.6607 19.0478 40.6965 18.7729 40.6549 18.5043C40.6132 18.2356 40.496 17.9844 40.3168 17.7799C40.2116 17.6799 40.0875 17.602 39.9517 17.5506C39.816 17.4992 39.6714 17.4755 39.5263 17.4808" fill="#142B2A"/>
<path d="M35.7233 18.8694C35.6609 18.8694 35.6012 18.8446 35.5571 18.8006C35.5131 18.7565 35.4883 18.6967 35.4883 18.6344C35.4883 18.5721 35.5131 18.5123 35.5571 18.4682C35.6012 18.4241 35.6609 18.3994 35.7233 18.3994H37.689C37.7199 18.3964 37.7511 18.3996 37.7807 18.4088C37.8103 18.418 37.8378 18.4329 37.8617 18.4528C37.8855 18.4726 37.9052 18.497 37.9196 18.5245C37.9339 18.552 37.9427 18.5821 37.9454 18.613C37.9484 18.6456 37.9445 18.6785 37.9341 18.7095C37.9236 18.7406 37.9068 18.7691 37.8846 18.7932C37.8625 18.8173 37.8355 18.8366 37.8055 18.8497C37.7755 18.8629 37.7432 18.8696 37.7104 18.8694C37.0481 18.8694 36.3856 18.8694 35.7233 18.8694Z" fill="#142B2A"/>
<path d="M32.455 18.2066C32.4 18.228 32.339 18.228 32.284 18.2066C30.431 16.4674 28.683 14.6195 27.0494 12.6728C26.8355 12.7441 26.6411 12.8643 26.4816 13.0238C26.3221 13.1832 26.202 13.3776 26.1307 13.5916C26.1108 13.6511 26.0682 13.7002 26.0121 13.7283C25.956 13.7563 25.891 13.7609 25.8315 13.7411C25.772 13.7213 25.7229 13.6786 25.6949 13.6225C25.6668 13.5664 25.6622 13.5015 25.6821 13.442C25.7801 13.1544 25.9428 12.8932 26.1577 12.6784C26.3725 12.4636 26.6337 12.3008 26.9212 12.2028C27.0329 12.1707 27.1514 12.1707 27.2631 12.2028C27.3805 12.2453 27.4839 12.3192 27.5623 12.4164C29.1703 14.3589 30.9047 16.1933 32.7542 17.9075C32.7962 17.9545 32.8194 18.0153 32.8194 18.0784C32.8194 18.1414 32.7962 18.2023 32.7542 18.2493C32.6989 18.2688 32.6385 18.2688 32.5832 18.2493" fill="#142B2A"/>
<path d="M35.5094 22.5227C35.3111 22.5532 35.1093 22.5532 34.9111 22.5227C34.8632 22.5078 34.8215 22.478 34.7919 22.4376C34.7622 22.3973 34.7461 22.3485 34.7461 22.2984C34.7461 22.2483 34.7622 22.1995 34.7919 22.1591C34.8215 22.1188 34.8632 22.089 34.9111 22.074C34.9492 22.0492 34.9939 22.036 35.0394 22.036C35.0849 22.036 35.1294 22.0492 35.1676 22.074C35.387 22.162 35.6317 22.162 35.8512 22.074C36.0435 21.9458 36.0862 21.6254 36.1289 21.3049L36.2359 20.2579C36.2464 20.1937 36.2809 20.1359 36.3325 20.0963C36.3841 20.0566 36.4487 20.038 36.5135 20.0443C36.5446 20.0494 36.5744 20.0607 36.601 20.0776C36.6276 20.0944 36.6506 20.1165 36.6685 20.1424C36.6865 20.1683 36.6991 20.1976 36.7055 20.2284C36.7119 20.2593 36.712 20.2911 36.7058 20.322V21.369C36.7076 21.5765 36.6669 21.7821 36.586 21.9732C36.5052 22.1643 36.386 22.3368 36.2359 22.48C36.0531 22.6043 35.8372 22.6713 35.6162 22.6723" fill="#142B2A"/>
<path d="M34.0793 24.7236H33.9725C33.5446 24.5009 33.1491 24.2205 32.7973 23.8904C32.5784 23.6694 32.4043 23.4082 32.2845 23.1212C32.2706 23.0919 32.2629 23.0601 32.2618 23.0277C32.2608 22.9953 32.2665 22.963 32.2785 22.9329C32.2906 22.9028 32.3088 22.8755 32.3319 22.8528C32.355 22.83 32.3824 22.8123 32.4127 22.8007C32.4404 22.787 32.4708 22.7794 32.5018 22.7785C32.5327 22.7777 32.5634 22.7835 32.5919 22.7957C32.6203 22.8079 32.6458 22.8261 32.6665 22.8491C32.6872 22.8721 32.7027 22.8994 32.7119 22.9289C32.8116 23.1619 32.9569 23.3725 33.1392 23.5485C33.4578 23.8533 33.8174 24.1122 34.2075 24.3177C34.2481 24.3612 34.2706 24.4185 34.2706 24.478C34.2706 24.5374 34.2481 24.5947 34.2075 24.6382C34.1875 24.6774 34.1569 24.7103 34.1191 24.7329C34.0813 24.7556 34.0378 24.7672 33.9938 24.7664" fill="#142B2A"/>
<path d="M42.305 70.6179C42.2713 70.6179 42.238 70.6113 42.2069 70.5984C42.1758 70.5855 42.1475 70.5666 42.1237 70.5428C42.0999 70.519 42.0811 70.4907 42.0682 70.4596C42.0553 70.4285 42.0486 70.3952 42.0486 70.3615C42.0425 70.3262 42.044 70.29 42.0528 70.2552C42.0616 70.2205 42.0776 70.1879 42.0997 70.1598C42.1219 70.1316 42.1497 70.1084 42.1814 70.0916C42.213 70.0748 42.2478 70.0648 42.2836 70.0624L45.4885 69.7633C45.525 69.7603 45.5618 69.7647 45.5966 69.776C45.6314 69.7873 45.6636 69.8054 45.6914 69.8292C45.7192 69.8531 45.742 69.8822 45.7585 69.9149C45.7751 69.9475 45.7849 69.9832 45.7876 70.0197C45.7939 70.0567 45.7919 70.0947 45.7819 70.1309C45.7718 70.1672 45.7539 70.2007 45.7295 70.2293C45.705 70.2578 45.6747 70.2806 45.6404 70.2961C45.6061 70.3116 45.5688 70.3193 45.5312 70.3188L42.3478 70.6179M48.7575 70.0197C48.6918 70.0165 48.6289 69.9917 48.5787 69.9492C48.5285 69.9067 48.4938 69.8489 48.4797 69.7846C48.4735 69.7086 48.4966 69.6331 48.5443 69.5735C48.592 69.5139 48.6606 69.4748 48.7361 69.4641L51.941 69.1864C51.9781 69.1801 52.016 69.1821 52.0522 69.1921C52.0885 69.2022 52.122 69.2201 52.1506 69.2445C52.1791 69.269 52.202 69.2994 52.2175 69.3337C52.2329 69.368 52.2407 69.4052 52.2401 69.4428C52.2431 69.4793 52.2387 69.516 52.2274 69.5508C52.216 69.5856 52.198 69.6179 52.1742 69.6457C52.1503 69.6735 52.1212 69.6963 52.0885 69.7128C52.0558 69.7293 52.0203 69.7392 51.9838 69.7419L48.7789 70.0197H48.7575ZM55.1673 69.4428C55.0971 69.443 55.0295 69.4167 54.978 69.3691C54.9265 69.3216 54.8949 69.2563 54.8895 69.1864C54.8866 69.1499 54.8909 69.1132 54.9023 69.0784C54.9136 69.0435 54.9316 69.0113 54.9555 68.9835C54.9793 68.9557 55.0083 68.9329 55.041 68.9164C55.0737 68.8998 55.1094 68.89 55.1459 68.8873L58.3507 68.5882C58.4244 68.5882 58.495 68.6174 58.5471 68.6695C58.5992 68.7216 58.6285 68.7922 58.6285 68.8659C58.6285 68.9396 58.5992 69.0102 58.5471 69.0623C58.495 69.1144 58.4244 69.1437 58.3507 69.1437L55.1459 69.4428H55.1673ZM61.577 68.8659C61.5083 68.8617 61.4431 68.8338 61.3925 68.7871C61.3419 68.7404 61.3089 68.6777 61.2992 68.6095C61.293 68.5335 61.3161 68.4579 61.3638 68.3984C61.4114 68.3388 61.4801 68.2997 61.5556 68.289L64.7605 68.0113C64.7966 68.0044 64.8338 68.006 64.8691 68.0161C64.9045 68.0262 64.937 68.0445 64.964 68.0694C64.9911 68.0943 65.0118 68.1253 65.0247 68.1597C65.0376 68.1941 65.0422 68.2311 65.0382 68.2677C65.0443 68.303 65.0429 68.3392 65.0341 68.3739C65.0253 68.4087 65.0093 68.4412 64.9871 68.4694C64.965 68.4976 64.9372 68.5208 64.9055 68.5376C64.8738 68.5544 64.839 68.5643 64.8033 68.5668L61.5984 68.8445M68.0081 68.2463C67.938 68.2465 67.8704 68.2202 67.8189 68.1726C67.7674 68.1251 67.7358 68.0598 67.7304 67.9899C67.7241 67.9528 67.7261 67.9148 67.7361 67.8786C67.7461 67.8424 67.7641 67.8088 67.7885 67.7803C67.813 67.7518 67.8433 67.7289 67.8776 67.7135C67.9119 67.698 67.9492 67.6902 67.9867 67.6908L71.1702 67.3917C71.2073 67.3854 71.2452 67.3873 71.2815 67.3974C71.3177 67.4074 71.3513 67.4253 71.3798 67.4498C71.4083 67.4743 71.4312 67.5047 71.4467 67.539C71.4622 67.5732 71.4699 67.6105 71.4694 67.6481C71.4754 67.6834 71.474 67.7196 71.4652 67.7543C71.4564 67.7891 71.4404 67.8216 71.4183 67.8498C71.3961 67.878 71.3683 67.9012 71.3366 67.918C71.3049 67.9347 71.27 67.9447 71.2343 67.9472L68.0294 68.2463H68.0081ZM73.264 65.5969H73.1145C73.0634 65.5417 73.035 65.4692 73.035 65.394C73.035 65.3187 73.0634 65.2462 73.1145 65.191L74.9947 62.5202C75.0187 62.493 75.0484 62.4711 75.0815 62.4562C75.1147 62.4412 75.1506 62.4335 75.187 62.4335C75.2234 62.4335 75.2594 62.4412 75.2925 62.4562C75.3257 62.4711 75.3552 62.493 75.3792 62.5202C75.4289 62.572 75.4566 62.6409 75.4566 62.7126C75.4566 62.7842 75.4289 62.8531 75.3792 62.9048L73.4992 65.5756C73.4726 65.6137 73.4376 65.6452 73.3968 65.6674C73.356 65.6897 73.3105 65.7021 73.264 65.7038M77.0458 60.341H76.8749C76.8238 60.2857 76.7955 60.2132 76.7955 60.138C76.7955 60.0627 76.8238 59.9903 76.8749 59.935L78.7551 57.2643C78.8068 57.2147 78.8757 57.1869 78.9474 57.1869C79.0191 57.1869 79.0879 57.2147 79.1396 57.2643C79.1893 57.316 79.217 57.3849 79.217 57.4566C79.217 57.5282 79.1893 57.5971 79.1396 57.6488L77.2594 60.341C77.1906 60.3673 77.1146 60.3673 77.0458 60.341ZM80.8062 54.9781H80.6353C80.5884 54.9209 80.5628 54.8491 80.5628 54.7751C80.5628 54.7011 80.5884 54.6294 80.6353 54.5722L82.5155 51.9014C82.5672 51.8518 82.6362 51.8241 82.7078 51.8241C82.7795 51.8241 82.8483 51.8518 82.9 51.9014C82.9453 51.9553 82.9701 52.0234 82.9701 52.0937C82.9701 52.1641 82.9453 52.2322 82.9 52.286L80.9985 54.9781C80.966 54.9969 80.9292 55.0067 80.8917 55.0067C80.8541 55.0067 80.8173 54.9969 80.7849 54.9781M84.5666 49.6153C84.5117 49.6368 84.4506 49.6368 84.3957 49.6153C84.3461 49.5636 84.3183 49.4947 84.3183 49.423C84.3183 49.3513 84.3461 49.2824 84.3957 49.2307L86.2759 46.5386C86.3276 46.489 86.3964 46.4613 86.4681 46.4613C86.5398 46.4613 86.6087 46.489 86.6604 46.5386C86.7115 46.5939 86.7399 46.6664 86.7399 46.7416C86.7399 46.8168 86.7115 46.8893 86.6604 46.9446L84.7802 49.6153C84.756 49.6491 84.7238 49.6765 84.6866 49.6951C84.6494 49.7137 84.6083 49.723 84.5666 49.7221M88.3269 44.3807C88.3033 44.3907 88.2779 44.3958 88.2522 44.3958C88.2265 44.3958 88.2011 44.3907 88.1775 44.3807C88.1502 44.3566 88.1283 44.327 88.1133 44.2939C88.0983 44.2607 88.0906 44.2247 88.0906 44.1884C88.0906 44.152 88.0983 44.1161 88.1133 44.0829C88.1283 44.0497 88.1502 44.0201 88.1775 43.9961L90.0577 41.304C90.1094 41.2544 90.1782 41.2267 90.2499 41.2267C90.3216 41.2267 90.3905 41.2544 90.4422 41.304C90.4891 41.3613 90.5146 41.433 90.5146 41.507C90.5146 41.581 90.4891 41.6527 90.4422 41.71L88.5407 44.3807C88.5206 44.4199 88.49 44.4528 88.4522 44.4754C88.4145 44.4981 88.371 44.5097 88.3269 44.5089M58.7139 40.7699C58.6438 40.7701 58.5762 40.7437 58.5247 40.6962C58.4732 40.6486 58.4415 40.5833 58.4362 40.5134C58.4332 40.4769 58.4376 40.4403 58.4489 40.4054C58.4603 40.3706 58.4783 40.3384 58.5021 40.3106C58.526 40.2828 58.5551 40.26 58.5878 40.2434C58.6205 40.2269 58.656 40.217 58.6925 40.2143L61.8974 39.9579C61.9339 39.955 61.9707 39.9594 62.0055 39.9707C62.0403 39.982 62.0725 40.0001 62.1003 40.0239C62.1281 40.0478 62.151 40.0769 62.1675 40.1095C62.184 40.1422 62.1939 40.1778 62.1966 40.2143C62.2028 40.2904 62.1797 40.3659 62.132 40.4255C62.0843 40.4851 62.0157 40.5242 61.9402 40.5348L58.7353 40.7699H58.7139ZM65.1237 40.2785C65.0536 40.2787 64.986 40.2523 64.9344 40.2048C64.8829 40.1572 64.8513 40.0919 64.8459 40.022C64.843 39.9855 64.8474 39.9489 64.8587 39.914C64.87 39.8792 64.8881 39.847 64.9119 39.8192C64.9357 39.7914 64.9649 39.7686 64.9976 39.752C65.0302 39.7355 65.0658 39.7256 65.1023 39.7229L68.3072 39.4665C68.3437 39.4636 68.3804 39.468 68.4153 39.4793C68.4501 39.4906 68.4823 39.5087 68.5101 39.5325C68.5379 39.5564 68.5607 39.5854 68.5772 39.6181C68.5937 39.6508 68.6036 39.6864 68.6063 39.7229C68.6125 39.799 68.5894 39.8745 68.5418 39.9341C68.4941 39.9937 68.4255 40.0328 68.3499 40.0434L65.1451 40.2785M71.5548 39.787C71.4868 39.787 71.4216 39.76 71.3735 39.7119C71.3255 39.6639 71.2984 39.5986 71.2984 39.5306C71.2924 39.4953 71.2938 39.4591 71.3026 39.4244C71.3114 39.3896 71.3274 39.3571 71.3495 39.3289C71.3717 39.3007 71.3995 39.2775 71.4312 39.2607C71.4629 39.2439 71.4977 39.234 71.5334 39.2315L74.7597 38.9751C74.7951 38.9722 74.8308 38.9766 74.8644 38.9881C74.898 38.9997 74.9288 39.0181 74.9549 39.0422C74.981 39.0663 75.0019 39.0956 75.0161 39.1282C75.0303 39.1608 75.0376 39.196 75.0374 39.2315C75.0404 39.268 75.036 39.3047 75.0247 39.3396C75.0133 39.3744 74.9953 39.4066 74.9715 39.4344C74.9476 39.4622 74.9186 39.485 74.8859 39.5015C74.8532 39.518 74.8176 39.5279 74.7811 39.5306L71.5762 39.787M77.9859 39.2956C77.9505 39.2986 77.9148 39.2941 77.8812 39.2826C77.8476 39.271 77.8168 39.2526 77.7907 39.2285C77.7646 39.2044 77.7438 39.1751 77.7296 39.1425C77.7154 39.11 77.708 39.0748 77.7082 39.0392C77.7021 39.0011 77.7041 38.9621 77.714 38.9247C77.7239 38.8874 77.7416 38.8526 77.7657 38.8224C77.7898 38.7922 77.82 38.7674 77.8542 38.7496C77.8885 38.7318 77.926 38.7212 77.9645 38.7187L81.1694 38.4837C81.2048 38.4807 81.2405 38.4852 81.2741 38.4967C81.3078 38.5083 81.3385 38.5267 81.3646 38.5508C81.3908 38.5749 81.4116 38.6042 81.4258 38.6368C81.44 38.6694 81.4473 38.7046 81.4472 38.7401C81.4534 38.8105 81.4326 38.8806 81.3889 38.9362C81.3452 38.9918 81.2821 39.0286 81.2122 39.0392L77.9859 39.2956ZM92.1087 39.146C92.0602 39.1623 92.0077 39.1623 91.9591 39.146C91.9095 39.0943 91.8818 39.0254 91.8818 38.9538C91.8818 38.8821 91.9095 38.8132 91.9591 38.7615L92.3224 38.2487L90.8908 38.3769C90.8277 38.3595 90.772 38.3219 90.7323 38.2698C90.6925 38.2177 90.671 38.154 90.671 38.0884C90.671 38.0229 90.6925 37.9592 90.7323 37.9071C90.772 37.855 90.8277 37.8174 90.8908 37.8L92.8992 37.6504C92.9522 37.6457 93.0054 37.6575 93.0513 37.6843C93.0972 37.7111 93.1337 37.7516 93.1556 37.8C93.1819 37.8455 93.1958 37.897 93.1958 37.9496C93.1958 38.0021 93.1819 38.0537 93.1556 38.0991L92.4506 39.0819C92.4241 39.1201 92.3891 39.1516 92.3483 39.1738C92.3075 39.1961 92.262 39.2085 92.2155 39.2102M84.5025 38.8683C84.4288 38.8683 84.3582 38.839 84.3061 38.7869C84.254 38.7348 84.2247 38.6642 84.2247 38.5905C84.2218 38.5551 84.2262 38.5195 84.2378 38.4859C84.2493 38.4522 84.2678 38.4214 84.2919 38.3953C84.316 38.3691 84.3452 38.3483 84.3778 38.3341C84.4104 38.3199 84.4455 38.3126 84.4811 38.3128L87.686 38.0564C87.7596 38.0564 87.8303 38.0856 87.8824 38.1377C87.9345 38.1898 87.9637 38.2605 87.9637 38.3342C87.9637 38.4078 87.9345 38.4785 87.8824 38.5305C87.8303 38.5826 87.7596 38.6119 87.686 38.6119L84.4811 38.8683H84.5025Z" fill="#13110C"/>
<path d="M55.957 33.4409V18.8694L59.9952 22.7793V33.0349L55.957 33.4409ZM56.427 20.0231V32.8426L59.5037 32.5435V23.0357L56.427 20.0231Z" fill="#0A0A09"/>
<path d="M58.5859 23.5272V17.8012L67.2818 8.5498V14.6177L58.5859 23.5272ZM59.0774 18.0148V22.288L66.8119 14.3613V9.72493L59.0774 18.0148Z" fill="#0A0A09"/>
<path d="M73.1346 20.7711L67.1309 14.6177V8.5498L75.9336 17.908L73.1346 20.7711ZM67.5582 14.4895L73.092 20.1514L75.2286 18.0148L67.5582 9.76764V14.4895Z" fill="#0A0A09"/>
<path d="M70.8277 12.5449C70.8067 13.288 70.5671 14.0084 70.139 14.6161C69.7109 15.2238 69.1132 15.6918 68.4206 15.9618C67.728 16.2317 66.9712 16.2915 66.2448 16.1337C65.5184 15.976 64.8545 15.6076 64.3363 15.0747C63.818 14.5418 63.4683 13.868 63.3309 13.1375C63.1934 12.4069 63.2743 11.6521 63.5634 10.9673C63.8525 10.2825 64.337 9.69803 64.9564 9.28702C65.5758 8.87601 66.3025 8.65667 67.0459 8.65637C67.55 8.66193 68.048 8.76709 68.5113 8.96579C68.9745 9.1645 69.394 9.45284 69.7454 9.81422C70.0969 10.1756 70.3734 10.6029 70.5592 11.0715C70.7449 11.5402 70.8362 12.0409 70.8277 12.5449Z" fill="white"/>
<path d="M67.0446 16.6259C66.2198 16.6514 65.4062 16.4301 64.7079 15.9905C64.0096 15.5508 63.4585 14.9127 63.125 14.1579C62.7915 13.4031 62.691 12.566 62.8361 11.7537C62.9813 10.9414 63.3655 10.1909 63.9398 9.59834C64.514 9.00576 65.2521 8.59805 66.0594 8.42745C66.8667 8.25685 67.7066 8.33109 68.4715 8.6407C69.2364 8.9503 69.8915 9.48118 70.3529 10.1653C70.8143 10.8494 71.061 11.6557 71.0614 12.4809C71.0699 13.0168 70.9727 13.5492 70.7754 14.0475C70.5781 14.5459 70.2846 15.0005 69.9116 15.3854C69.5386 15.7703 69.0935 16.078 68.6015 16.2908C68.1096 16.5036 67.5805 16.6175 67.0446 16.6259ZM67.0446 8.84869C66.3169 8.82742 65.5995 9.02403 64.9843 9.41329C64.3691 9.80255 63.8842 10.3667 63.5918 11.0334C63.2995 11.7001 63.213 12.439 63.3434 13.1552C63.4738 13.8714 63.8152 14.5324 64.3238 15.0532C64.8324 15.5741 65.485 15.9311 66.1979 16.0785C66.9108 16.226 67.6516 16.1571 68.3251 15.8806C68.9986 15.6042 69.5741 15.1329 69.9779 14.5272C70.3817 13.9214 70.5952 13.2089 70.5913 12.4809C70.5969 12.0095 70.5097 11.5416 70.3345 11.104C70.1593 10.6663 69.8997 10.2674 69.5703 9.93016C69.241 9.59287 68.8484 9.32376 68.4151 9.1382C67.9817 8.95264 67.516 8.85427 67.0446 8.84869Z" fill="#0A0A09"/>
<path d="M61.7489 21.3688C61.7238 22.1108 61.4808 22.829 61.0502 23.4338C60.6197 24.0386 60.0205 24.5033 59.3277 24.77C58.6348 25.0367 57.8789 25.0935 57.1539 24.9334C56.429 24.7733 55.7672 24.4034 55.251 23.8698C54.7349 23.3361 54.3872 22.6624 54.2513 21.9325C54.1155 21.2027 54.1975 20.4489 54.4871 19.7653C54.7767 19.0817 55.2612 18.4985 55.88 18.0884C56.4988 17.6782 57.2247 17.4593 57.9671 17.4589C58.4722 17.4672 58.9707 17.575 59.4341 17.776C59.8975 17.977 60.3168 18.2674 60.668 18.6305C61.0192 18.9936 61.2954 19.4223 61.4808 19.8921C61.6663 20.362 61.7574 20.8637 61.7489 21.3688Z" fill="white"/>
<path d="M57.9666 25.5142C57.1426 25.5354 56.3309 25.3105 55.6354 24.8681C54.9398 24.4258 54.392 23.7861 54.0619 23.0308C53.7317 22.2756 53.6342 21.439 53.7819 20.628C53.9296 19.8171 54.3157 19.0686 54.8909 18.4781C55.4661 17.8877 56.2042 17.4822 57.011 17.3134C57.8179 17.1446 58.6567 17.2202 59.4203 17.5306C60.1839 17.8409 60.8378 18.3719 61.2981 19.0556C61.7585 19.7394 62.0045 20.5449 62.0048 21.3692C62.0162 22.4535 61.5978 23.4983 60.8411 24.275C60.0844 25.0517 59.0509 25.4973 57.9666 25.5142ZM57.9666 17.7156C57.2399 17.6944 56.5233 17.8904 55.9086 18.2787C55.2939 18.6671 54.8089 19.23 54.516 19.8954C54.223 20.5609 54.1352 21.2986 54.2639 22.0142C54.3926 22.7298 54.7318 23.3908 55.2383 23.9125C55.7447 24.4342 56.3954 24.7929 57.1069 24.9428C57.8184 25.0926 58.5583 25.0267 59.2321 24.7536C59.906 24.4805 60.4831 24.0126 60.8895 23.4097C61.2958 22.8067 61.513 22.0963 61.5133 21.3692C61.5248 20.4152 61.1582 19.4954 60.4937 18.8108C59.8291 18.1262 58.9206 17.7325 57.9666 17.7156Z" fill="#0A0A09"/>
<path d="M77.4298 25.1724L73.8404 24.1682L72.8789 20.4292L75.5069 17.6943L79.0964 18.6985L80.0578 22.4162L79.4596 23.0358L77.1307 20.6214L75.6778 22.1171L78.0281 24.5528L77.4298 25.1724ZM74.225 23.7622L77.2803 24.6169L74.9301 22.1598L77.0667 20.0232L79.3955 22.4376L78.5623 19.2327L75.5282 18.3994L73.3917 20.7283L74.225 23.7622Z" fill="#0A0A09"/>
<path d="M67.047 14.2327C66.7115 14.2412 66.3811 14.1495 66.0979 13.9692C65.8148 13.789 65.5918 13.5284 65.4575 13.2209C65.3232 12.9133 65.2836 12.5726 65.3438 12.2424C65.404 11.9123 65.5613 11.6075 65.7955 11.3672C66.0298 11.1268 66.3304 10.9618 66.6589 10.8931C66.9875 10.8245 67.3291 10.8553 67.64 10.9817C67.9509 11.1081 68.217 11.3243 68.4044 11.6027C68.5919 11.8812 68.6921 12.2091 68.6922 12.5448C68.6951 12.7636 68.6547 12.9809 68.5736 13.1842C68.4924 13.3875 68.372 13.5727 68.2193 13.7295C68.0665 13.8862 67.8843 14.0113 67.6832 14.0977C67.482 14.184 67.2659 14.2299 67.047 14.2327ZM67.047 11.3483C66.8088 11.3398 66.5733 11.4026 66.371 11.5288C66.1687 11.655 66.0087 11.8388 65.9116 12.0565C65.8144 12.2743 65.7846 12.5161 65.8258 12.7509C65.867 12.9857 65.9776 13.2029 66.1431 13.3745C66.3086 13.5462 66.5215 13.6644 66.7547 13.7142C66.9878 13.7639 67.2306 13.7428 67.4517 13.6537C67.6728 13.5645 67.8623 13.4113 67.9957 13.2137C68.1292 13.0161 68.2006 12.7832 68.2007 12.5448C68.2036 12.3904 68.176 12.2371 68.1195 12.0934C68.063 11.9498 67.9789 11.8186 67.8717 11.7075C67.7646 11.5964 67.6366 11.5075 67.4951 11.4459C67.3536 11.3842 67.2014 11.3511 67.047 11.3483Z" fill="#0A0A09"/>
<path d="M57.9653 23.1638C57.5177 23.1638 57.0884 22.9859 56.7718 22.6694C56.4553 22.3529 56.2773 21.9235 56.2773 21.4759C56.2773 21.0282 56.4553 20.5989 56.7718 20.2823C57.0884 19.9658 57.5177 19.788 57.9653 19.788C58.413 19.788 58.8423 19.9658 59.1588 20.2823C59.4754 20.5989 59.6532 21.0282 59.6532 21.4759C59.6532 21.9235 59.4754 22.3529 59.1588 22.6694C58.8423 22.9859 58.413 23.1638 57.9653 23.1638ZM57.9653 20.3008C57.7261 20.2922 57.4898 20.3557 57.2871 20.4828C57.0843 20.6099 56.9244 20.795 56.8279 21.014C56.7314 21.233 56.7028 21.4759 56.7458 21.7114C56.7887 21.9468 56.9014 22.164 57.069 22.3347C57.2367 22.5055 57.4516 22.6221 57.6863 22.6694C57.9209 22.7167 58.1644 22.6925 58.3851 22.6001C58.6059 22.5076 58.7938 22.351 58.9246 22.1506C59.0554 21.9502 59.1232 21.7152 59.119 21.4759C59.1191 21.1679 58.9982 20.8722 58.7825 20.6524C58.5667 20.4326 58.2733 20.3064 57.9653 20.3008Z" fill="#0A0A09"/>
<path d="M58.2218 25.2577H57.7305V32.9921H58.2218V25.2577Z" fill="#0A0A09"/>
<path d="M60.8927 18.7408L60.5508 18.3776L63.9908 14.7667L64.3326 15.1086L60.8927 18.7408Z" fill="#0A0A09"/>
<path d="M74.2244 19.2963L69.9727 14.959L70.3145 14.6172L74.5664 18.9544L74.2244 19.2963Z" fill="#0A0A09"/>
<path d="M68.2207 52.4135C68.0683 52.4166 67.9188 52.3718 67.7933 52.2853L63.0715 49.23C63.0189 49.198 62.9742 49.1544 62.9409 49.1026C62.9076 49.0508 62.8865 48.992 62.8792 48.9308C62.8397 48.8277 62.8397 48.7136 62.8792 48.6104L65.9773 44.3372C66.1189 44.172 66.3169 44.0653 66.5328 44.0381L74.3526 42.7775C74.5515 42.6979 74.7733 42.6979 74.9722 42.7775L79.6941 45.8328C79.7467 45.8648 79.7914 45.9084 79.8248 45.9602C79.8581 46.012 79.8792 46.0707 79.8864 46.1319C79.911 46.1818 79.9236 46.2366 79.9236 46.2922C79.9236 46.3477 79.911 46.4026 79.8864 46.4524L76.7884 50.7256C76.6496 50.8943 76.4501 51.0017 76.2328 51.0247L68.4343 52.2853H68.242M63.2852 48.8454L67.9643 51.8793C68.0551 51.9049 68.1512 51.9049 68.242 51.8793L76.0619 50.6188C76.139 50.6387 76.2199 50.6387 76.297 50.6188L79.3523 46.3456L74.6946 43.3117C74.6037 43.2861 74.5076 43.2861 74.4168 43.3117L66.5968 44.5722C66.4473 44.5722 66.3618 44.5722 66.3618 44.6791L63.2852 48.8454ZM70.8486 49.465C70.6069 49.4862 70.3639 49.4862 70.1222 49.465C69.7349 49.4547 69.3566 49.3452 69.0237 49.1469C68.6908 48.9486 68.4143 48.6683 68.2207 48.3326C68.1422 48.12 68.1187 47.8911 68.1523 47.667C68.1859 47.4429 68.2756 47.2309 68.413 47.0507C68.9373 46.5127 69.585 46.1108 70.2999 45.8799C71.0148 45.6491 71.7753 45.5962 72.5152 45.726C72.9069 45.7409 73.2886 45.8545 73.6247 46.0562C73.9608 46.2578 74.2405 46.5411 74.4381 46.8797C74.5181 47.0898 74.5406 47.3175 74.503 47.5391C74.4654 47.7608 74.3692 47.9683 74.2244 48.1403C73.7973 48.6029 73.2731 48.9653 72.6896 49.2017C72.106 49.4381 71.4773 49.5426 70.8486 49.5077M71.8315 46.1747C71.2722 46.152 70.7142 46.2446 70.1923 46.4468C69.6703 46.6489 69.1957 46.9563 68.7976 47.3498C68.7075 47.4538 68.6479 47.5806 68.6253 47.7163C68.6027 47.852 68.6179 47.9914 68.6694 48.119C68.8289 48.3784 69.0519 48.593 69.3172 48.7425C69.5826 48.892 69.8817 48.9716 70.1863 48.9736C70.8414 49.0816 71.5126 49.0356 72.1468 48.839C72.781 48.6424 73.3607 48.3008 73.8399 47.8412C73.9277 47.736 73.9874 47.6103 74.0136 47.4759C74.0397 47.3414 74.0314 47.2024 73.9895 47.072C73.825 46.8122 73.598 46.5979 73.3292 46.4486C73.0604 46.2993 72.7585 46.2198 72.451 46.2174H71.8315" fill="#0A0A09"/>
<path d="M68.1982 50.0853C66.9415 50.0421 65.6834 50.1065 64.4377 50.2776C65.4727 50.1016 66.4938 49.8517 67.493 49.5297H67.6C67.8777 49.4015 68.1127 49.1665 68.0486 49.017C67.9845 48.8674 67.8563 48.9102 67.664 48.8888C66.7465 48.9116 65.8382 49.0774 64.9719 49.3802L66.3179 48.782C66.6682 48.66 66.9835 48.4547 67.2367 48.1837C67.2777 48.1378 67.3047 48.0811 67.3144 48.0204C67.324 47.9596 67.316 47.8973 67.2912 47.8409C67.2664 47.7846 67.2259 47.7366 67.1746 47.7027C67.1232 47.6687 67.0632 47.6503 67.0017 47.6496C66.5658 47.645 66.1347 47.74 65.7412 47.9273L63.4764 48.8674C63.6193 48.7975 63.7463 48.6988 63.8492 48.5774C63.9522 48.4561 64.0289 48.3148 64.0746 48.1623C64.0884 48.1286 64.0923 48.0916 64.0859 48.0558C64.0795 48.0199 64.0629 47.9865 64.0383 47.9596C64.0137 47.9328 63.982 47.9135 63.9468 47.904C63.9116 47.8945 63.8744 47.8951 63.8396 47.906C62.3296 48.2755 60.8874 48.8812 59.5664 49.7007L60.1219 53.0337C61.9803 53.1988 63.8515 53.1486 65.6984 52.8842C65.8693 52.6705 65.5488 52.4142 65.271 52.3287C64.4466 52.0962 63.6027 51.9389 62.7499 51.8586C64.4805 51.6236 66.2111 51.3458 67.9204 51.004C68.0611 50.9867 68.1953 50.9347 68.311 50.8527C68.4266 50.7706 68.52 50.6611 68.5827 50.5339C68.5827 50.3203 68.3264 50.1707 68.0913 50.1707" fill="#CA5098"/>
<path d="M89.1387 76.6851H88.9251C88.7542 76.6851 88.5405 76.4501 88.4978 75.8732L88.0918 66.9423C88.0956 66.0411 88.355 65.1595 88.8397 64.3997L95.7194 54.4005C96.0613 53.9091 96.3604 53.8664 96.5313 53.9305C96.7022 53.9946 96.9373 54.1655 96.9587 54.7424L97.4714 63.6306C97.4757 64.5366 97.2238 65.4254 96.7449 66.1945L89.8652 76.1723C89.5874 76.5783 89.3524 76.6851 89.1601 76.6851M96.5099 54.3792C96.5099 54.3792 96.3817 54.3792 96.2108 54.6783L89.3311 64.6561C88.9186 65.3334 88.6903 66.1068 88.6687 66.8995L89.0961 75.8305C89.0961 76.0869 89.0961 76.1723 89.0961 76.1937C89.0961 76.2151 89.2242 76.1937 89.3951 75.8946L96.2536 65.8953C96.6717 65.2205 96.9004 64.4456 96.9159 63.6519L96.5099 54.7424C96.5341 54.6225 96.5341 54.499 96.5099 54.3792Z" fill="#0A0A09"/>
<path d="M90.2698 69.5922H90.1202C89.9065 69.5922 89.6502 69.3145 89.6074 68.6094C89.6167 67.4447 89.9496 66.3055 90.5689 65.319C90.9962 64.6994 91.3594 64.6353 91.573 64.7208C91.7867 64.8063 92.0431 64.9986 92.0858 65.7036C92.0766 66.8683 91.7438 68.0075 91.1244 68.994C90.7826 69.4854 90.4834 69.6136 90.2698 69.6136M91.4235 65.1908C91.4235 65.1908 91.2099 65.1908 90.9749 65.6182C90.4029 66.5031 90.0986 67.5344 90.0988 68.588C90.0988 68.994 90.227 69.1008 90.2484 69.1222C90.2697 69.1435 90.4621 69.1222 90.7185 68.6948C91.2871 67.8084 91.591 66.7781 91.5944 65.725C91.5944 65.319 91.4662 65.1908 91.4449 65.1908" fill="#0A0A09"/>
<path d="M91.0618 66.7496C91.0632 67.0372 90.9816 67.3191 90.8268 67.5615C90.6773 67.7751 90.5491 67.7538 90.5491 67.5615C90.5439 67.2734 90.6258 66.9904 90.7841 66.7496C90.9336 66.5573 91.0405 66.5787 91.0618 66.7496Z" fill="#0A0A09"/>
<path d="M94.5862 63.823H94.4366C94.2229 63.823 93.9666 63.5239 93.9238 62.8188C93.9397 61.6551 94.2719 60.5176 94.8852 59.5285C95.3125 58.9089 95.6758 58.8661 95.8894 58.9302C96.1031 58.9943 96.3595 59.208 96.3808 59.913C96.3896 61.0773 96.0633 62.2195 95.4407 63.2034C95.0989 63.6948 94.7998 63.8444 94.5862 63.8444M95.7399 59.4003C95.7399 59.4003 95.5262 59.4003 95.2911 59.8276C94.7225 60.714 94.4187 61.7443 94.4152 62.7974C94.4152 63.2034 94.5434 63.3316 94.5648 63.3316C94.5861 63.3316 94.7784 63.3316 95.0348 62.9256C95.6013 62.0382 95.905 61.0086 95.9108 59.9558C95.9108 59.5285 95.7826 59.4216 95.7613 59.4003" fill="#0A0A09"/>
<path d="M95.336 60.9816C95.3307 61.2682 95.2496 61.5483 95.101 61.7935C94.9514 61.9858 94.8232 61.9644 94.8232 61.7935C94.8124 61.5046 94.8947 61.22 95.0582 60.9816C95.2078 60.7679 95.3146 60.8106 95.336 60.9816Z" fill="#0A0A09"/>
<path d="M90.0377 63.4171C89.977 63.4122 89.92 63.3859 89.8769 63.3428C89.8339 63.2998 89.8075 63.2428 89.8026 63.1821L89.5462 57.5201C89.5367 57.4636 89.5367 57.4058 89.5462 57.3492L90.3581 56.1955C90.384 56.1527 90.4228 56.1193 90.4689 56.1001C90.515 56.0809 90.566 56.0769 90.6145 56.0886C90.6635 56.1059 90.7061 56.1376 90.7366 56.1796C90.7671 56.2215 90.7841 56.2718 90.7855 56.3237L91.0419 62.007C91.0419 62.1352 91.0419 62.242 90.8069 62.2633C90.776 62.2633 90.7454 62.2573 90.7169 62.2454C90.6884 62.2336 90.6626 62.2163 90.6407 62.1945C90.6189 62.1727 90.6016 62.1468 90.5897 62.1183C90.5779 62.0898 90.5719 62.0592 90.5719 62.0283L90.3368 57.0714L89.995 57.5842L90.2513 63.1607C90.2543 63.1933 90.2505 63.2262 90.24 63.2572C90.2295 63.2882 90.2127 63.3168 90.1906 63.3409C90.1684 63.365 90.1415 63.3843 90.1115 63.3974C90.0815 63.4105 90.0491 63.4172 90.0164 63.4171" fill="#0A0A09"/>
<path d="M94.3505 57.2213C94.2898 57.2164 94.2329 57.1901 94.1898 57.147C94.1468 57.104 94.1204 57.047 94.1155 56.9863L93.8591 51.303C93.8464 51.2539 93.8464 51.2025 93.8591 51.1534L94.671 49.9783C94.708 49.9506 94.753 49.9355 94.7992 49.9355C94.8454 49.9355 94.8904 49.9506 94.9274 49.9783C94.9764 49.9883 95.0203 50.0151 95.0515 50.0542C95.0828 50.0932 95.0994 50.142 95.0984 50.192L95.3547 55.8752C95.3577 55.9061 95.3544 55.9373 95.3452 55.967C95.3361 55.9966 95.3211 56.0241 95.3013 56.048C95.2814 56.0718 95.2571 56.0915 95.2296 56.1058C95.202 56.1202 95.1719 56.129 95.141 56.1317C95.0787 56.1317 95.0189 56.1069 94.9749 56.0628C94.9308 56.0187 94.906 55.959 94.906 55.8966L94.6924 50.8116L94.3505 51.3243L94.6069 56.9008C94.6077 56.9677 94.5844 57.0325 94.5413 57.0835C94.4981 57.1345 94.4379 57.1683 94.3719 57.1786" fill="#0A0A09"/>
<path d="M34.1859 18.7625C34.1626 18.7511 34.137 18.7452 34.1111 18.7452C34.0851 18.7452 34.0596 18.7511 34.0363 18.7625C33.9781 18.7616 33.9206 18.7747 33.8685 18.8008C33.8164 18.8268 33.7714 18.865 33.7372 18.912V19.0829C33.7152 19.1597 33.7152 19.2412 33.7372 19.318C33.7468 19.3554 33.7642 19.3905 33.7882 19.4209C33.8121 19.4513 33.8421 19.4763 33.8763 19.4944C33.9105 19.5125 33.948 19.5233 33.9866 19.526C34.0252 19.5287 34.0641 19.5234 34.1005 19.5103C34.1735 19.4839 34.2378 19.4381 34.2867 19.3779C34.3356 19.3176 34.3672 19.2452 34.3781 19.1684C34.421 19.0585 34.421 18.9365 34.3781 18.8265" fill="#142B2A"/>
<path d="M38.8219 19.04C38.7986 19.0286 38.7731 19.0227 38.7472 19.0227C38.7213 19.0227 38.6956 19.0286 38.6723 19.04C38.5571 19.0494 38.45 19.103 38.3733 19.1895C38.3456 19.251 38.3095 19.3085 38.2664 19.3604C38.2471 19.4448 38.2471 19.5324 38.2664 19.6168C38.2752 19.6544 38.2925 19.6895 38.3168 19.7194C38.3411 19.7494 38.3719 19.7735 38.4068 19.7899C38.4417 19.8064 38.4799 19.8147 38.5185 19.8143C38.557 19.8139 38.5951 19.8048 38.6297 19.7877C38.7016 19.7562 38.7656 19.7093 38.8173 19.6502C38.869 19.5911 38.907 19.5214 38.9287 19.4459C38.9602 19.3414 38.9602 19.2299 38.9287 19.1254" fill="#142B2A"/>
<path d="M33.5026 18.5281C33.4473 18.5476 33.3869 18.5476 33.3316 18.5281C33.2952 18.4826 33.2754 18.4261 33.2754 18.3678C33.2754 18.3096 33.2952 18.2531 33.3316 18.2076C33.5931 18.0401 33.8972 17.9511 34.2077 17.9512H34.5709C34.6237 17.9616 34.6707 17.9916 34.7024 18.0352C34.7341 18.0787 34.7482 18.1327 34.7418 18.1862C34.7317 18.2409 34.7026 18.2902 34.6595 18.3254C34.6165 18.3606 34.5624 18.3794 34.5068 18.3785H34.2077C33.986 18.3754 33.7689 18.4427 33.588 18.5708H33.4598" fill="#142B2A"/>
<path d="M38.6074 18.7626C38.5617 18.759 38.5177 18.7433 38.4801 18.717C38.4425 18.6907 38.4126 18.6548 38.3937 18.613C38.3784 18.559 38.3829 18.5014 38.4064 18.4504C38.4299 18.3995 38.4708 18.3586 38.5218 18.3353C38.7177 18.2816 38.9243 18.2816 39.1202 18.3353C39.165 18.3567 39.201 18.3931 39.2219 18.4382C39.2428 18.4833 39.2473 18.5344 39.2346 18.5825C39.222 18.6305 39.193 18.6727 39.1526 18.7017C39.1122 18.7307 39.063 18.7447 39.0133 18.7412C38.9017 18.7092 38.7831 18.7092 38.6714 18.7412" fill="#142B2A"/>
</svg>
