<svg width="94" height="101" viewBox="0 0 94 101" fill="none" xmlns="http://www.w3.org/2000/svg">
<path d="M65.8469 14.0151C64.6411 11.4242 62.8525 9.1473 60.6208 7.36229C53.4389 1.20639 39.9728 1.51094 32.9512 2.16821L8.1353 5.37441C6.71958 5.42038 5.35754 5.92693 4.25582 6.81719C3.3531 7.90164 2.89477 9.2879 2.97326 10.6967C2.97326 15.506 5.28173 20.171 4.57636 24.9162C3.75878 30.2706 -0.922271 35.3364 1.06557 40.3701C2.78089 44.7305 8.31167 45.6603 12.8805 45.7405C25.9746 45.6978 39.0537 44.8519 52.0442 43.2076C54.9081 42.958 57.7556 42.5459 60.5727 41.9732C61.8057 41.7885 62.9675 41.2795 63.9392 40.4983C65.2018 38.9717 65.8783 37.0447 65.8469 35.0639C66.1194 32.2424 66.4079 29.4369 66.6965 26.6155C67.1133 22.3833 67.5141 17.9107 65.8629 13.9991" fill="#CA5098"/>
<path d="M69.1347 4.50781C68.7342 6.01049 68.4607 7.54416 68.3171 9.09265C68.1808 10.6532 68.4342 12.2231 69.0546 13.6615C69.2184 14.0735 69.4764 14.4413 69.808 14.7355C70.1693 14.9669 70.5893 15.0899 71.0184 15.0899C71.4474 15.0899 71.8674 14.9669 72.2287 14.7355C72.9422 14.2545 73.5259 13.6047 73.928 12.8439C74.8868 11.2582 75.5596 9.51645 75.9158 7.69796" fill="#E3E3E3"/>
<path d="M74.3763 11.7227L74.7611 11.5463L75.6588 10.4241V9.47831L74.1037 9.25391L72.677 9.815L72.6289 11.4982" fill="#E3E3E3"/>
<path d="M62.1277 45.5638C62.1277 45.5638 61.5025 74.115 65.9591 93.9614H68.5401L74.9525 54.958L72.7081 43.5118L62.1277 45.5638Z" fill="#0095D4"/>
<path d="M68.541 47.8562C72.1569 64.2475 78.6716 79.8611 87.7782 93.9614H91.6257L80.0994 44.7783L68.541 47.8562Z" fill="#CA5098"/>
<path d="M69.423 43.2554L69.8398 40.2576L80.837 36.811L80.3882 32.0818L80.2599 30.6551L78.2882 26.8397L75.082 15.121C75.082 15.121 73.4789 19.8342 70.3688 19.9303C67.2588 20.0265 68.5252 15.121 68.5252 15.121C68.5252 15.121 57.1753 17.718 50.6667 26.9679L44.6711 14.6561L42.5391 15.7943C42.5391 15.7943 44.8475 32.7231 49.2079 33.9575C53.5683 35.1918 63.7801 28.4909 63.7801 28.4909L62.177 45.5799C62.177 45.5799 65.1747 48.4014 72.2124 47.7922C79.25 47.183 81.6225 45.0509 81.6225 45.0509L81.3982 42.518C77.5039 43.5428 73.4472 43.7987 69.4551 43.2715" fill="#9BCEA4"/>
<path d="M75.082 15.1211L78.9294 16.5318C77.7065 15.9129 76.4152 15.4394 75.082 15.1211Z" fill="#9BCEA4"/>
<path d="M80.26 30.6551L78.9455 16.5318H78.9294L75.082 15.1211L78.2882 26.8397L80.26 30.6551Z" fill="#9BCEA4"/>
<path d="M88.9807 32.0492C88.9256 28.7832 87.9562 25.5979 86.1824 22.855C84.4085 20.1121 81.9013 17.9213 78.9453 16.5312L80.2599 30.6546L83.0813 36.1211L80.837 36.8104L81.366 42.5175C85.5982 41.1869 89.2693 38.2693 88.9807 32.0492Z" fill="#0095D4"/>
<path d="M69.8406 40.306L69.4238 43.3038C73.4151 43.8318 77.4709 43.5814 81.3669 42.5664L80.8379 36.8594L69.8406 40.306Z" fill="#0095D4"/>
<path d="M48.6152 30.9913L52.8955 41.8283L68.4616 41.9404L64.8866 30.7188L48.6152 30.9913Z" fill="#142B2A"/>
<path d="M68.4612 41.9404L71.6674 39.6641L67.7559 39.7282L68.4612 41.9404Z" fill="white"/>
<path d="M64.375 41.9087C65.9092 42.7971 67.6519 43.2618 69.4247 43.2553L69.7293 41.043L68.543 41.9087H64.375Z" fill="#CA5098"/>
<path d="M69.7262 41.0429C69.7262 41.0429 68.7002 39.7124 68.5078 39.9048C68.5139 40.6638 68.6218 41.4187 68.8285 42.1491L69.646 41.3315L69.7262 41.0429Z" fill="#CA5098"/>
<path d="M65.3356 95.0673C65.3356 95.0673 60.6064 97.4238 60.7026 98.0971C60.7026 98.3696 61.5363 98.4498 62.45 98.4498C64.2936 98.3536 66.1532 98.2254 67.9808 98.017C68.0944 98.0146 68.2052 97.9814 68.3013 97.9208C68.3492 97.8598 68.3821 97.7884 68.3975 97.7124C68.5708 96.8907 68.6408 96.0506 68.6059 95.2115C68.6059 95.2115 66.5379 95.0673 65.3997 95.0673" fill="#CA5098"/>
<path d="M91.9957 94.8104C91.9957 94.8104 91.8194 95.2593 91.7552 95.5478C91.6911 95.8364 91.7552 95.7883 91.7552 95.7883C91.2925 95.545 90.7854 95.3978 90.2644 95.3554H89.9278L89.6232 95.4677C89.2067 95.7389 88.8824 96.1302 88.6934 96.5898C88.6934 96.5898 91.114 101.543 92.7652 100.95C94.1599 100.469 92.7653 96.5257 92.3324 95.1791C92.2202 94.9387 92.124 94.7623 92.0278 94.7784" fill="#CA5098"/>
<path d="M9.83594 24.002C9.83594 24.002 10.6054 26.7112 14.6452 26.5349C18.685 26.3585 19.3102 24.002 19.3102 24.002H9.83594Z" fill="white"/>
<path d="M10.6691 24.5965C10.6495 24.5912 10.6312 24.5817 10.6155 24.5688C10.5997 24.556 10.5868 24.5399 10.5777 24.5217C10.5686 24.5035 10.5635 24.4836 10.5626 24.4633C10.5618 24.443 10.5652 24.4227 10.5727 24.4038L10.6691 24.0987C10.6744 24.0791 10.6838 24.0608 10.6967 24.0451C10.7096 24.0293 10.7257 24.0165 10.7439 24.0074C10.762 23.9983 10.782 23.9932 10.8023 23.9923C10.8226 23.9914 10.8429 23.9948 10.8618 24.0023C10.882 24.0095 10.9005 24.0206 10.9164 24.0351C10.9322 24.0495 10.9449 24.067 10.9539 24.0864C10.9629 24.1059 10.9679 24.1269 10.9686 24.1484C10.9693 24.1698 10.9658 24.1911 10.9581 24.2111L10.8618 24.5002C10.852 24.5314 10.8329 24.5589 10.8071 24.579C10.7812 24.5991 10.7499 24.6108 10.7172 24.6126" fill="#13110C"/>
<path d="M10.9584 23.7295C10.9382 23.7223 10.9197 23.7112 10.9039 23.6968C10.8881 23.6824 10.8753 23.665 10.8663 23.6455C10.8574 23.6261 10.8524 23.6051 10.8517 23.5837C10.8509 23.5624 10.8546 23.5411 10.8622 23.5211L11.0385 22.96C11.0449 22.941 11.0548 22.9235 11.0679 22.9084C11.081 22.8933 11.0969 22.881 11.1148 22.8721C11.1326 22.8631 11.1521 22.8578 11.172 22.8564C11.1919 22.8549 11.212 22.8575 11.2309 22.8638C11.2498 22.8701 11.2674 22.8801 11.2825 22.8932C11.2976 22.9063 11.3099 22.9222 11.3189 22.9401C11.3278 22.9579 11.3331 22.9774 11.3345 22.9973C11.3359 23.0172 11.3334 23.0372 11.3271 23.0562L11.1508 23.6333C11.1385 23.6615 11.1183 23.6855 11.0927 23.7026C11.0672 23.7196 11.0372 23.729 11.0064 23.7295M11.3752 22.6073C11.3551 22.6002 11.3365 22.5891 11.3207 22.5747C11.3049 22.5603 11.2921 22.5428 11.2831 22.5234C11.2742 22.504 11.2692 22.4829 11.2685 22.4616C11.2678 22.4402 11.2714 22.4189 11.279 22.3989L11.4554 21.8378C11.4607 21.8183 11.4701 21.8 11.4829 21.7843C11.4958 21.7686 11.5119 21.7558 11.53 21.7467C11.5482 21.7376 11.568 21.7325 11.5883 21.7316C11.6086 21.7308 11.6289 21.7342 11.6477 21.7417C11.6679 21.7488 11.6864 21.7599 11.7022 21.7743C11.718 21.7887 11.7307 21.8061 11.7397 21.8256C11.7487 21.845 11.7537 21.866 11.7544 21.8874C11.7551 21.9088 11.7515 21.93 11.7439 21.95L11.5676 22.5111C11.5539 22.5382 11.5334 22.5613 11.5081 22.5782C11.4828 22.595 11.4536 22.6051 11.4233 22.6073M11.7919 21.4852C11.7718 21.478 11.7532 21.4669 11.7374 21.4525C11.7216 21.4381 11.7089 21.4206 11.7 21.4012C11.691 21.3818 11.686 21.3608 11.6853 21.3394C11.6846 21.318 11.6881 21.2967 11.6958 21.2767L11.8722 20.7157C11.8785 20.6967 11.8884 20.6792 11.9015 20.6641C11.9146 20.649 11.9305 20.6367 11.9484 20.6277C11.9663 20.6188 11.9857 20.6134 12.0056 20.612C12.0256 20.6106 12.0456 20.6132 12.0645 20.6195C12.0835 20.6258 12.101 20.6358 12.1161 20.6489C12.1312 20.662 12.1435 20.6779 12.1524 20.6957C12.1613 20.7136 12.1667 20.7331 12.1682 20.753C12.1696 20.7729 12.167 20.7929 12.1607 20.8118L11.9843 21.3729C11.9769 21.4054 11.9586 21.4343 11.9323 21.4548C11.906 21.4752 11.8734 21.486 11.8401 21.4852M12.2088 20.363C12.1886 20.3558 12.1701 20.3447 12.1543 20.3303C12.1385 20.3159 12.1258 20.2985 12.1168 20.2791C12.1078 20.2596 12.1028 20.2386 12.1021 20.2172C12.1014 20.1958 12.1049 20.1745 12.1126 20.1546L12.2889 19.5935C12.3017 19.5552 12.3291 19.5236 12.3652 19.5055C12.4013 19.4875 12.4431 19.4845 12.4814 19.4973C12.5196 19.51 12.5512 19.5375 12.5692 19.5735C12.5873 19.6096 12.5903 19.6514 12.5775 19.6897L12.4011 20.2668C12.3874 20.2939 12.3669 20.317 12.3416 20.3339C12.3164 20.3507 12.2872 20.3607 12.2569 20.363M12.6256 19.2408C12.606 19.2354 12.5878 19.2261 12.5721 19.2132C12.5564 19.2003 12.5436 19.1843 12.5345 19.1661C12.5254 19.148 12.5203 19.1281 12.5194 19.1078C12.5186 19.0875 12.5219 19.0673 12.5294 19.0484L12.7057 18.4874C12.712 18.4684 12.7221 18.4509 12.7352 18.4358C12.7483 18.4207 12.7642 18.4083 12.782 18.3994C12.7999 18.3905 12.8194 18.3852 12.8393 18.3837C12.8592 18.3823 12.8791 18.3848 12.8981 18.3911C12.917 18.3975 12.9346 18.4075 12.9497 18.4205C12.9647 18.4336 12.9771 18.4495 12.9861 18.4674C12.995 18.4853 13.0003 18.5047 13.0017 18.5246C13.0031 18.5446 13.0006 18.5646 12.9943 18.5835L12.818 19.1446C12.8082 19.1758 12.7891 19.2033 12.7634 19.2233C12.7376 19.2434 12.7063 19.255 12.6737 19.2568M13.0424 18.1347C13.0222 18.1275 13.0037 18.1164 12.9879 18.102C12.9721 18.0876 12.9593 18.0702 12.9503 18.0507C12.9414 18.0313 12.9365 18.0103 12.9358 17.9889C12.935 17.9675 12.9386 17.9462 12.9462 17.9263L13.1225 17.3652C13.1289 17.3462 13.1388 17.3287 13.1519 17.3136C13.165 17.2985 13.181 17.2862 13.1989 17.2773C13.2167 17.2683 13.2361 17.263 13.256 17.2616C13.2759 17.2601 13.296 17.2627 13.3149 17.269C13.3339 17.2753 13.3514 17.2853 13.3665 17.2984C13.3816 17.3115 13.3939 17.3274 13.4029 17.3453C13.4118 17.3631 13.4171 17.3826 13.4185 17.4025C13.4199 17.4224 13.4174 17.4424 13.4111 17.4614L13.2348 18.0225C13.2274 18.0549 13.2089 18.0838 13.1826 18.1043C13.1563 18.1248 13.1238 18.1355 13.0905 18.1347M13.4592 17.0125C13.4396 17.0072 13.4214 16.9977 13.4057 16.9849C13.39 16.972 13.3772 16.956 13.3681 16.9378C13.3591 16.9197 13.3538 16.8998 13.353 16.8795C13.3521 16.8592 13.3556 16.839 13.363 16.8201L13.5554 16.259C13.5587 16.24 13.5663 16.222 13.5775 16.2063C13.5888 16.1906 13.6034 16.1776 13.6204 16.1684C13.6373 16.1591 13.6561 16.1538 13.6754 16.1529C13.6947 16.1519 13.7139 16.1553 13.7317 16.1629C13.7513 16.1682 13.7696 16.1776 13.7853 16.1904C13.801 16.2033 13.8137 16.2194 13.8228 16.2375C13.8319 16.2557 13.837 16.2755 13.8379 16.2958C13.8388 16.3161 13.8354 16.3363 13.8279 16.3552L13.6516 16.9163C13.6418 16.9475 13.6228 16.9749 13.597 16.995C13.5712 17.015 13.5399 17.0268 13.5073 17.0285M13.8761 15.9064C13.8565 15.901 13.8382 15.8916 13.8225 15.8788C13.8068 15.8659 13.7939 15.8499 13.7849 15.8317C13.7758 15.8135 13.7707 15.7937 13.7698 15.7734C13.7689 15.7531 13.7724 15.7329 13.7799 15.714L13.9562 15.1529C13.9689 15.1146 13.9963 15.083 14.0324 15.065C14.0685 15.0469 14.1103 15.044 14.1486 15.0567C14.1868 15.0695 14.2185 15.0969 14.2365 15.133C14.2546 15.1691 14.2575 15.2108 14.2447 15.2491L14.0684 15.8102C14.0587 15.8413 14.0396 15.8688 14.0138 15.8888C13.988 15.9089 13.9567 15.9206 13.9241 15.9224M14.2928 14.8002C14.2732 14.7949 14.255 14.7855 14.2393 14.7726C14.2236 14.7597 14.2108 14.7437 14.2017 14.7256C14.1926 14.7074 14.1875 14.6875 14.1866 14.6672C14.1857 14.647 14.1891 14.6267 14.1966 14.6078L14.389 14.0467C14.3923 14.0277 14.3998 14.0097 14.4111 13.994C14.4223 13.9783 14.437 13.9653 14.4539 13.9561C14.4709 13.9468 14.4897 13.9415 14.509 13.9406C14.5283 13.9396 14.5476 13.943 14.5654 13.9506C14.585 13.9559 14.6032 13.9653 14.6189 13.9782C14.6346 13.9911 14.6474 14.0071 14.6565 14.0253C14.6655 14.0434 14.6707 14.0633 14.6715 14.0835C14.6724 14.1038 14.669 14.1241 14.6616 14.1429L14.0363 14.6559C14.0266 14.6871 14.0075 14.7145 13.9817 14.7346C13.9559 14.7547 13.9246 14.7664 13.892 14.7682" fill="#13110C"/>
<path d="M14.2785 13.6305C14.2588 13.6252 14.2406 13.6158 14.2248 13.6029C14.2091 13.59 14.1962 13.5739 14.1871 13.5557C14.178 13.5376 14.1729 13.5176 14.172 13.4973C14.1711 13.477 14.1746 13.4567 14.1821 13.4378L14.2785 13.1327C14.2908 13.1045 14.3109 13.0804 14.3365 13.0633C14.3621 13.0462 14.3921 13.0369 14.4229 13.0364C14.4542 13.0346 14.4853 13.043 14.5113 13.0604C14.5374 13.0778 14.5571 13.1032 14.5675 13.1327L14.6638 13.4378C14.6717 13.4557 14.6757 13.475 14.6759 13.4945C14.6761 13.514 14.6723 13.5333 14.6648 13.5513C14.6573 13.5693 14.6463 13.5856 14.6323 13.5993C14.6183 13.6129 14.6018 13.6235 14.5836 13.6305C14.5598 13.6464 14.5318 13.6549 14.5032 13.6549C14.4746 13.6549 14.4467 13.6464 14.4229 13.6305C14.3918 13.6415 14.3577 13.6415 14.3266 13.6305" fill="#13110C"/>
<path d="M17.995 23.7296C17.9638 23.7313 17.9329 23.7229 17.9069 23.7056C17.8809 23.6882 17.8612 23.6629 17.8508 23.6334L17.6584 23.0723C17.6508 23.0523 17.6473 23.031 17.648 23.0096C17.6487 22.9882 17.6536 22.9673 17.6626 22.9478C17.6715 22.9284 17.6843 22.911 17.7001 22.8966C17.7159 22.8822 17.7345 22.871 17.7546 22.8639C17.7735 22.8564 17.7937 22.853 17.814 22.8539C17.8343 22.8547 17.8542 22.8599 17.8723 22.869C17.8905 22.8781 17.9065 22.8908 17.9194 22.9065C17.9323 22.9222 17.9417 22.9405 17.947 22.9601L18.1394 23.5212C18.147 23.5411 18.1505 23.5625 18.1498 23.5838C18.1491 23.6052 18.1441 23.6262 18.1352 23.6456C18.1262 23.665 18.1135 23.6825 18.0977 23.6969C18.0819 23.7113 18.0633 23.7224 18.0432 23.7296M17.6584 22.6074C17.6272 22.6092 17.5962 22.6008 17.5702 22.5834C17.5442 22.5661 17.5245 22.5407 17.5141 22.5112L17.3057 21.9501C17.2942 21.9096 17.2977 21.8664 17.3153 21.8281C17.3329 21.7899 17.3636 21.7593 17.4019 21.7417C17.4208 21.7343 17.441 21.7308 17.4613 21.7317C17.4816 21.7326 17.5014 21.7377 17.5196 21.7468C17.5378 21.7559 17.5538 21.7687 17.5667 21.7844C17.5795 21.8001 17.5889 21.8183 17.5943 21.8379L17.8027 22.399C17.8142 22.4395 17.8108 22.4828 17.7932 22.521C17.7755 22.5592 17.7448 22.5898 17.7065 22.6074M17.3057 21.4852C17.275 21.4847 17.2451 21.4754 17.2195 21.4583C17.1939 21.4413 17.1738 21.4172 17.1615 21.3891L16.9691 20.828C16.9615 20.808 16.9578 20.7867 16.9586 20.7653C16.9593 20.7439 16.9643 20.7229 16.9732 20.7035C16.9822 20.684 16.995 20.6667 17.0108 20.6522C17.0266 20.6378 17.0451 20.6267 17.0653 20.6196C17.0842 20.6121 17.1044 20.6087 17.1247 20.6095C17.145 20.6104 17.1649 20.6156 17.183 20.6246C17.2012 20.6337 17.2172 20.6465 17.2301 20.6622C17.2429 20.6779 17.2523 20.6962 17.2577 20.7157L17.45 21.2768C17.4577 21.2968 17.4612 21.3181 17.4605 21.3395C17.4598 21.3609 17.4548 21.3819 17.4458 21.4013C17.4369 21.4207 17.4242 21.4381 17.4084 21.4526C17.3926 21.467 17.374 21.4781 17.3539 21.4852M16.9691 20.3631C16.9379 20.3648 16.9069 20.3564 16.8809 20.3391C16.8548 20.3217 16.8352 20.2964 16.8248 20.2669L16.6324 19.7058C16.6197 19.6671 16.6208 19.6253 16.6354 19.5873C16.65 19.5493 16.6772 19.5175 16.7126 19.4974C16.7326 19.4897 16.7539 19.4862 16.7753 19.4869C16.7967 19.4876 16.8176 19.4926 16.837 19.5016C16.8565 19.5105 16.8739 19.5233 16.8883 19.5391C16.9027 19.5549 16.9138 19.5734 16.921 19.5935L17.1134 20.1546C17.1208 20.1735 17.1243 20.1938 17.1234 20.214C17.1226 20.2343 17.1173 20.2542 17.1083 20.2724C17.0992 20.2905 17.0864 20.3065 17.0707 20.3194C17.055 20.3323 17.0368 20.3417 17.0172 20.347M16.6164 19.2249C16.5873 19.2258 16.5587 19.2168 16.5354 19.1993C16.5121 19.1818 16.4955 19.1569 16.4882 19.1287L16.2798 18.5515C16.2691 18.5133 16.273 18.4724 16.2908 18.4369C16.3085 18.4013 16.339 18.3736 16.376 18.3592C16.3949 18.3517 16.4151 18.3483 16.4354 18.3492C16.4557 18.35 16.4754 18.3552 16.4936 18.3643C16.5118 18.3733 16.5278 18.3861 16.5407 18.4018C16.5535 18.4175 16.563 18.4358 16.5684 18.4554L16.7607 19.0165C16.7685 19.0343 16.7726 19.0535 16.7728 19.073C16.7729 19.0925 16.7692 19.1118 16.7617 19.1298C16.7542 19.1477 16.7432 19.164 16.7292 19.1776C16.7153 19.1912 16.6987 19.2018 16.6806 19.2088M16.2958 18.0867C16.265 18.0862 16.2351 18.0768 16.2096 18.0598C16.184 18.0427 16.1638 18.0186 16.1515 17.9905L15.9592 17.4134C15.9529 17.3944 15.9503 17.3744 15.9517 17.3545C15.9531 17.3346 15.9585 17.3151 15.9674 17.2973C15.9763 17.2794 15.9887 17.2634 16.0038 17.2503C16.0189 17.2373 16.0364 17.2273 16.0553 17.221C16.0743 17.2147 16.0943 17.2121 16.1143 17.2136C16.1342 17.215 16.1535 17.2203 16.1714 17.2292C16.1893 17.2381 16.2053 17.2505 16.2184 17.2656C16.2314 17.2807 16.2414 17.2982 16.2477 17.3172L16.4401 17.8783C16.4476 17.8971 16.4509 17.9174 16.4501 17.9377C16.4492 17.9579 16.4441 17.9778 16.435 17.9959C16.4259 18.0141 16.4131 18.0301 16.3974 18.043C16.3817 18.0559 16.3635 18.0653 16.3439 18.0706M15.9592 16.9484C15.9265 16.9467 15.8952 16.935 15.8694 16.9149C15.8437 16.8949 15.8246 16.8674 15.8148 16.8362L15.6225 16.2752C15.6147 16.2573 15.6106 16.2381 15.6104 16.2186C15.6103 16.1991 15.614 16.1798 15.6215 16.1619C15.629 16.1439 15.64 16.1276 15.654 16.114C15.6679 16.1004 15.6845 16.0898 15.7026 16.0828C15.7215 16.0753 15.7417 16.0719 15.762 16.0728C15.7823 16.0737 15.8022 16.0788 15.8203 16.0878C15.8385 16.0969 15.8545 16.1098 15.8674 16.1255C15.8803 16.1412 15.8896 16.1594 15.895 16.179L16.0874 16.74C16.0952 16.7579 16.0993 16.7771 16.0995 16.7966C16.0996 16.8161 16.0959 16.8354 16.0884 16.8533C16.0809 16.8713 16.0699 16.8876 16.0559 16.9012C16.042 16.9148 16.0254 16.9254 16.0072 16.9324M15.6064 15.8103C15.5744 15.8065 15.5441 15.7941 15.5187 15.7743C15.4932 15.7545 15.4737 15.7281 15.4622 15.698L15.2698 15.1369C15.2635 15.118 15.261 15.098 15.2624 15.0781C15.2638 15.0582 15.2691 15.0387 15.2781 15.0208C15.287 15.003 15.2994 14.9871 15.3145 14.974C15.3296 14.9609 15.3471 14.9509 15.366 14.9446C15.385 14.9383 15.4049 14.9358 15.4248 14.9372C15.4448 14.9386 15.4642 14.9439 15.4821 14.9528C15.4999 14.9618 15.5159 14.9741 15.5289 14.9892C15.542 15.0043 15.5521 15.0218 15.5584 15.0408L15.7508 15.6018C15.7625 15.6382 15.7609 15.6776 15.7462 15.7129C15.7315 15.7481 15.7047 15.777 15.6706 15.7942M15.2859 14.6721C15.2533 14.6703 15.222 14.6586 15.1962 14.6385C15.1704 14.6185 15.1513 14.591 15.1416 14.5598L14.9492 13.9987C14.9374 13.9624 14.939 13.923 14.9537 13.8877C14.9684 13.8525 14.9952 13.8236 15.0293 13.8064C15.0493 13.7987 15.0706 13.7952 15.092 13.7959C15.1133 13.7966 15.1344 13.8016 15.1538 13.8105C15.1732 13.8195 15.1907 13.8323 15.2051 13.8481C15.2195 13.8639 15.2306 13.8824 15.2378 13.9026L15.4301 14.4637C15.4376 14.4825 15.441 14.5028 15.4401 14.5231C15.4392 14.5433 15.4341 14.5632 15.425 14.5814C15.416 14.5995 15.4032 14.6156 15.3875 14.6284C15.3718 14.6413 15.3535 14.6507 15.3339 14.656" fill="#13110C"/>
<path d="M18.3007 24.597C18.268 24.5952 18.2367 24.5834 18.2109 24.5634C18.1851 24.5433 18.166 24.5158 18.1562 24.4846L18.0438 24.1955C18.0361 24.1755 18.0326 24.1541 18.0333 24.1327C18.034 24.1113 18.039 24.0902 18.048 24.0708C18.057 24.0513 18.0697 24.0339 18.0855 24.0194C18.1014 24.005 18.1199 23.9939 18.1401 23.9867C18.159 23.9792 18.1793 23.9758 18.1996 23.9767C18.2199 23.9776 18.2399 23.9827 18.258 23.9918C18.2762 24.0009 18.2923 24.0138 18.3052 24.0295C18.3181 24.0452 18.3275 24.0635 18.3328 24.0831L18.4452 24.3882C18.4559 24.4266 18.452 24.4675 18.4342 24.5031C18.4164 24.5387 18.386 24.5664 18.3489 24.5809" fill="#13110C"/>
<path d="M31.957 24.002C31.957 24.002 32.7265 26.7112 36.7663 26.5349C40.8061 26.3585 41.4314 24.002 41.4314 24.002H31.957Z" fill="white"/>
<path d="M32.8075 24.5965C32.7867 24.5687 32.7754 24.5349 32.7754 24.5002C32.7754 24.4654 32.7867 24.4316 32.8075 24.4038L32.9039 24.0987C32.9092 24.0791 32.9186 24.0608 32.9315 24.0451C32.9444 24.0293 32.9605 24.0165 32.9787 24.0074C32.9969 23.9983 33.0168 23.9932 33.0371 23.9923C33.0574 23.9914 33.0777 23.9948 33.0966 24.0023C33.1349 24.0199 33.1657 24.0506 33.1833 24.0889C33.201 24.1272 33.2044 24.1705 33.1929 24.2111L33.0966 24.5002C33.0851 24.5303 33.0655 24.5567 33.04 24.5765C33.0145 24.5964 32.9841 24.6088 32.952 24.6126" fill="#13110C"/>
<path d="M33.0814 23.7301C33.0431 23.7126 33.0124 23.6819 32.9947 23.6437C32.9771 23.6055 32.9737 23.5622 32.9852 23.5217L33.1776 22.9606C33.1829 22.941 33.1923 22.9228 33.2052 22.9071C33.218 22.8914 33.2341 22.8786 33.2522 22.8695C33.2704 22.8604 33.2903 22.8553 33.3106 22.8544C33.3308 22.8535 33.3511 22.8569 33.3699 22.8644C33.407 22.8788 33.4373 22.9066 33.4551 22.9421C33.4728 22.9776 33.4768 23.0185 33.4661 23.0568L33.2738 23.6339C33.2634 23.6634 33.2437 23.6887 33.2177 23.7061C33.1917 23.7234 33.1607 23.7319 33.1294 23.7301M33.4982 22.6079C33.46 22.5904 33.4292 22.5597 33.4115 22.5215C33.3939 22.4833 33.3906 22.44 33.402 22.3995L33.5944 21.8384C33.5997 21.8189 33.6091 21.8006 33.622 21.7849C33.6349 21.7692 33.6509 21.7564 33.6691 21.7473C33.6872 21.7382 33.7071 21.7331 33.7274 21.7322C33.7477 21.7314 33.7679 21.7348 33.7868 21.7423C33.825 21.7598 33.8557 21.7904 33.8734 21.8287C33.891 21.8669 33.8944 21.9101 33.883 21.9506L33.6906 22.5117C33.6783 22.5399 33.6581 22.5639 33.6326 22.581C33.607 22.5981 33.577 22.6074 33.5463 22.6079M33.915 21.4858C33.8768 21.4682 33.846 21.4375 33.8284 21.3993C33.8107 21.3611 33.8074 21.3179 33.8189 21.2774L34.0112 20.7163C34.0166 20.6967 34.026 20.6784 34.0388 20.6627C34.0517 20.647 34.0677 20.6342 34.0859 20.6252C34.104 20.6161 34.1239 20.6109 34.1442 20.61C34.1645 20.6092 34.1847 20.6126 34.2036 20.6201C34.2406 20.6345 34.2709 20.6622 34.2887 20.6977C34.3065 20.7333 34.3104 20.7742 34.2998 20.8124L34.1074 21.3735C34.1 21.406 34.0816 21.4349 34.0553 21.4554C34.029 21.4758 33.9964 21.4866 33.9631 21.4858M34.3318 20.3636C34.2935 20.346 34.2628 20.3154 34.2452 20.2772C34.2275 20.239 34.2241 20.1957 34.2356 20.1552L34.428 19.5941C34.4333 19.5745 34.4428 19.5562 34.4556 19.5405C34.4685 19.5248 34.4845 19.5121 34.5027 19.503C34.5209 19.4939 34.5407 19.4888 34.561 19.4879C34.5813 19.487 34.6015 19.4904 34.6204 19.4979C34.6574 19.5123 34.6878 19.54 34.7055 19.5756C34.7233 19.6111 34.7273 19.652 34.7166 19.6903L34.5242 20.2674C34.5119 20.2956 34.4918 20.3196 34.4662 20.3367C34.4406 20.3537 34.4106 20.3631 34.3799 20.3636M34.7486 19.2414C34.7116 19.2269 34.6812 19.1993 34.6635 19.1637C34.6457 19.1282 34.6417 19.0873 34.6524 19.049L34.8448 18.488C34.8511 18.469 34.8611 18.4515 34.8742 18.4364C34.8873 18.4213 34.9032 18.4089 34.9211 18.4C34.939 18.3911 34.9584 18.3858 34.9783 18.3844C34.9983 18.3829 35.0182 18.3854 35.0371 18.3917C35.0561 18.3981 35.0736 18.4081 35.0887 18.4211C35.1038 18.4342 35.1162 18.4502 35.1251 18.468C35.134 18.4859 35.1393 18.5053 35.1408 18.5253C35.1422 18.5452 35.1396 18.5652 35.1333 18.5842L34.941 19.1452C34.9312 19.1764 34.9122 19.2039 34.8865 19.2239C34.8607 19.244 34.8293 19.2557 34.7967 19.2574M35.1654 18.1353C35.1271 18.1178 35.0965 18.0871 35.0788 18.0488C35.0612 18.0106 35.0577 17.9674 35.0692 17.9269L35.2616 17.3658C35.2743 17.3275 35.3018 17.2959 35.3379 17.2779C35.374 17.2598 35.4157 17.2569 35.454 17.2696C35.4922 17.2824 35.5239 17.3098 35.5419 17.3459C35.56 17.382 35.5629 17.4237 35.5501 17.462L35.3578 18.0231C35.3504 18.0556 35.332 18.0845 35.3057 18.1049C35.2794 18.1254 35.2469 18.1361 35.2136 18.1353M35.5822 17.0131C35.5452 16.9987 35.5149 16.971 35.4971 16.9355C35.4793 16.8999 35.4754 16.859 35.4861 16.8207L35.6784 16.2596C35.6912 16.2214 35.7186 16.1898 35.7546 16.1717C35.7907 16.1537 35.8325 16.1507 35.8708 16.1635C35.909 16.1762 35.9407 16.2037 35.9587 16.2397C35.9768 16.2758 35.9797 16.3176 35.967 16.3558L35.7746 16.9169C35.7648 16.9481 35.7458 16.9755 35.72 16.9956C35.6942 17.0156 35.6629 17.0274 35.6303 17.0292M35.9991 15.907C35.962 15.8925 35.9317 15.8649 35.9139 15.8293C35.8962 15.7938 35.8922 15.7529 35.9029 15.7146L36.0952 15.1535C36.108 15.1152 36.1354 15.0836 36.1715 15.0656C36.2075 15.0475 36.2493 15.0446 36.2876 15.0573C36.3259 15.0701 36.3575 15.0975 36.3756 15.1336C36.3936 15.1697 36.3965 15.2114 36.3838 15.2497L36.1914 15.8108C36.1817 15.842 36.1626 15.8694 36.1368 15.8894C36.111 15.9095 36.0797 15.9212 36.0471 15.923M36.4159 14.8008C36.3809 14.7839 36.3525 14.7558 36.3351 14.721C36.3177 14.6862 36.3123 14.6466 36.3197 14.6085L36.5121 14.0474C36.5184 14.0284 36.5283 14.0109 36.5414 13.9958C36.5545 13.9807 36.5704 13.9684 36.5883 13.9594C36.6061 13.9505 36.6256 13.9452 36.6455 13.9437C36.6654 13.9423 36.6855 13.9449 36.7044 13.9512C36.7234 13.9575 36.7409 13.9675 36.756 13.9806C36.7711 13.9937 36.7834 14.0096 36.7923 14.0274C36.8012 14.0453 36.8066 14.0648 36.808 14.0847C36.8095 14.1046 36.8069 14.1246 36.8006 14.1435L36.6082 14.7046C36.5985 14.7358 36.5794 14.7632 36.5536 14.7833C36.5279 14.8034 36.4965 14.8151 36.4639 14.8169" fill="#13110C"/>
<path d="M36.4792 13.6309C36.4555 13.6044 36.4424 13.5701 36.4424 13.5345C36.4424 13.499 36.4555 13.4647 36.4792 13.4382L36.5755 13.1331C36.5544 13.1278 36.5349 13.1179 36.5182 13.104C36.5015 13.0901 36.4882 13.0726 36.4792 13.0528C36.5083 13.0519 36.537 13.0609 36.5603 13.0784C36.5837 13.0959 36.6004 13.1209 36.6077 13.1491L36.7201 13.4543C36.7276 13.4732 36.731 13.4934 36.7301 13.5138C36.7292 13.5341 36.7241 13.554 36.715 13.5722C36.7059 13.5904 36.6931 13.6064 36.6773 13.6193C36.6616 13.6322 36.6433 13.6416 36.6237 13.647C36.6024 13.6615 36.5772 13.6692 36.5514 13.6692C36.5256 13.6692 36.5005 13.6615 36.4792 13.647C36.448 13.658 36.414 13.658 36.3828 13.647" fill="#13110C"/>
<path d="M40.1333 23.7297C40.102 23.7315 40.071 23.723 40.045 23.7057C40.019 23.6883 39.9993 23.663 39.9889 23.6335L39.7805 23.0724C39.769 23.0319 39.7725 22.9886 39.7901 22.9504C39.8078 22.9122 39.8384 22.8815 39.8767 22.864C39.8956 22.8565 39.9158 22.8531 39.9361 22.854C39.9564 22.8548 39.9763 22.86 39.9944 22.8691C40.0126 22.8782 40.0286 22.891 40.0415 22.9067C40.0544 22.9224 40.0637 22.9406 40.0691 22.9602L40.2775 23.5213C40.289 23.5618 40.2856 23.6051 40.268 23.6433C40.2504 23.6815 40.2196 23.7122 40.1813 23.7297M39.6843 22.6716C39.6536 22.6711 39.6236 22.6618 39.598 22.6447C39.5725 22.6277 39.5523 22.6036 39.54 22.5755L39.3477 22.0144C39.34 21.9944 39.3365 21.9731 39.3372 21.9517C39.3379 21.9303 39.3429 21.9093 39.3519 21.8899C39.3608 21.8705 39.3735 21.853 39.3893 21.8386C39.4051 21.8242 39.4237 21.8131 39.4438 21.806C39.4627 21.7985 39.483 21.795 39.5032 21.7959C39.5235 21.7968 39.5434 21.802 39.5616 21.811C39.5797 21.8201 39.5957 21.8329 39.6086 21.8486C39.6215 21.8643 39.6309 21.8825 39.6362 21.9021L39.8287 22.4632C39.8363 22.4832 39.8399 22.5045 39.8391 22.5259C39.8384 22.5473 39.8334 22.5683 39.8245 22.5877C39.8155 22.6071 39.8027 22.6245 39.7869 22.639C39.7711 22.6534 39.7526 22.6645 39.7325 22.6716M39.3477 21.5494C39.3164 21.5512 39.2855 21.5428 39.2595 21.5255C39.2335 21.5081 39.2138 21.4828 39.2034 21.4533L39.0111 20.8922C38.9862 20.8632 38.9725 20.8262 38.9725 20.788C38.9725 20.7498 38.9862 20.7128 39.0111 20.6838C39.0299 20.6763 39.0502 20.6729 39.0705 20.6738C39.0907 20.6747 39.1106 20.6798 39.1288 20.6888C39.1469 20.6979 39.163 20.7108 39.1758 20.7265C39.1887 20.7422 39.1981 20.7604 39.2034 20.78L39.4118 21.3411C39.4233 21.3816 39.4199 21.4248 39.4023 21.4631C39.3846 21.5013 39.3539 21.5319 39.3157 21.5494M38.9149 20.4273C38.8846 20.4251 38.8553 20.415 38.8301 20.3982C38.8048 20.3813 38.7843 20.3582 38.7706 20.3311L38.5782 19.77C38.5667 19.7295 38.5702 19.6862 38.5878 19.648C38.6054 19.6098 38.6361 19.5792 38.6744 19.5616C38.6933 19.5541 38.7135 19.5507 38.7338 19.5516C38.7541 19.5525 38.7739 19.5576 38.7921 19.5667C38.8103 19.5758 38.8263 19.5886 38.8392 19.6043C38.852 19.62 38.8614 19.6382 38.8668 19.6578L39.0591 20.2189C39.0828 20.2454 39.0959 20.2796 39.0959 20.3151C39.0959 20.3506 39.0828 20.3848 39.0591 20.4113M38.6744 19.2891C38.6436 19.2886 38.6137 19.2793 38.5881 19.2622C38.5625 19.2452 38.5425 19.2211 38.5302 19.1929L38.3377 18.6158C38.3249 18.5775 38.328 18.5358 38.346 18.4997C38.3641 18.4636 38.3956 18.4362 38.4339 18.4234C38.4721 18.4107 38.5139 18.4136 38.55 18.4317C38.5861 18.4497 38.6136 18.4814 38.6263 18.5196L38.8187 19.0807C38.8262 19.0996 38.8296 19.1198 38.8287 19.1401C38.8278 19.1604 38.8227 19.1802 38.8136 19.1984C38.8045 19.2165 38.7917 19.2326 38.776 19.2454C38.7603 19.2583 38.7421 19.2677 38.7225 19.2731M38.3377 18.1509C38.307 18.1504 38.2771 18.141 38.2515 18.124C38.2259 18.1069 38.2058 18.0829 38.1935 18.0547L37.9851 17.4776C37.9744 17.4393 37.9783 17.3984 37.9961 17.3629C38.0139 17.3273 38.0442 17.2997 38.0812 17.2852C38.1001 17.2778 38.1204 17.2743 38.1406 17.2752C38.1609 17.2761 38.1808 17.2812 38.199 17.2903C38.2171 17.2994 38.2332 17.3122 38.246 17.3279C38.2589 17.3436 38.2683 17.3618 38.2736 17.3814L38.482 17.9425C38.4927 17.9808 38.4887 18.0217 38.471 18.0572C38.4532 18.0927 38.4229 18.1204 38.3858 18.1349M37.9851 17.0127C37.9531 17.009 37.9226 16.9965 37.8972 16.9767C37.8718 16.957 37.8522 16.9306 37.8407 16.9005L37.6484 16.3394C37.6421 16.3204 37.6395 16.3004 37.6409 16.2805C37.6424 16.2606 37.6478 16.2411 37.6567 16.2233C37.6656 16.2054 37.6779 16.1895 37.693 16.1764C37.7081 16.1633 37.7256 16.1533 37.7446 16.147C37.7635 16.1407 37.7835 16.1382 37.8035 16.1396C37.8234 16.141 37.8428 16.1463 37.8607 16.1553C37.8786 16.1642 37.8945 16.1766 37.9076 16.1917C37.9207 16.2068 37.9306 16.2242 37.9369 16.2432L38.1294 16.8043C38.1369 16.8232 38.1402 16.8434 38.1394 16.8637C38.1385 16.884 38.1334 16.9038 38.1243 16.922C38.1152 16.9402 38.1023 16.9562 38.0866 16.9691C38.0709 16.9819 38.0527 16.9913 38.0331 16.9967M37.6484 15.8745C37.6158 15.8727 37.5845 15.861 37.5588 15.841C37.533 15.8209 37.5139 15.7935 37.5042 15.7623L37.3118 15.2012C37.2881 15.1747 37.275 15.1405 37.275 15.105C37.275 15.0695 37.2881 15.0353 37.3118 15.0088C37.3307 15.0013 37.3509 14.9979 37.3712 14.9988C37.3915 14.9997 37.4113 15.0048 37.4295 15.0139C37.4477 15.023 37.4637 15.0358 37.4766 15.0515C37.4894 15.0672 37.4988 15.0854 37.5042 15.105L37.7126 15.6661C37.7232 15.7044 37.7193 15.7453 37.7015 15.7808C37.6837 15.8164 37.6534 15.844 37.6164 15.8585M37.2156 14.7363C37.1841 14.731 37.1544 14.718 37.1292 14.6984C37.104 14.6788 37.0841 14.6533 37.0713 14.6241L36.8789 14.063C36.8683 14.0247 36.8722 13.9838 36.89 13.9483C36.9078 13.9127 36.9381 13.8851 36.9751 13.8706C36.994 13.8632 37.0142 13.8597 37.0345 13.8606C37.0548 13.8615 37.0747 13.8666 37.0928 13.8757C37.111 13.8848 37.127 13.8976 37.1399 13.9133C37.1527 13.929 37.1621 13.9472 37.1675 13.9668L37.3598 14.5279C37.3835 14.5544 37.3966 14.5886 37.3966 14.6241C37.3966 14.6596 37.3835 14.6938 37.3598 14.7203" fill="#13110C"/>
<path d="M17.9463 13.3251H11.4538C11.4155 13.3251 11.3788 13.3098 11.3517 13.2828C11.3247 13.2557 11.3095 13.219 11.3095 13.1807C11.3072 13.1605 11.3093 13.14 11.3155 13.1206C11.3218 13.1012 11.3321 13.0834 11.3457 13.0682C11.3593 13.0531 11.376 13.041 11.3946 13.0327C11.4132 13.0245 11.4334 13.0203 11.4538 13.0205H17.8662C18.4046 12.3318 19.0421 11.7267 19.7578 11.225C21.5691 9.97822 23.7 9.27723 25.8977 9.20508C25.9367 9.208 25.9735 9.22373 26.0025 9.24984C26.0315 9.27595 26.051 9.31095 26.058 9.34935C26.0587 9.39106 26.0446 9.43164 26.0182 9.46393C25.9918 9.49621 25.9547 9.51809 25.9137 9.52567C24.4111 9.53707 22.9292 9.87737 21.5722 10.5227C20.2151 11.168 19.0158 12.1026 18.0586 13.2609L17.9463 13.3251Z" fill="#13110C"/>
<path d="M40.214 13.3254H33.7215C32.7682 12.1666 31.5719 11.2314 30.2173 10.586C28.8627 9.94055 27.3828 9.60058 25.8823 9.59012C25.8603 9.59067 25.8385 9.58622 25.8185 9.57706C25.7985 9.5679 25.781 9.55425 25.7671 9.53724C25.7531 9.52022 25.7432 9.50027 25.7382 9.47887C25.7332 9.45747 25.7331 9.43523 25.738 9.4138C25.7415 9.37674 25.758 9.34204 25.7843 9.31571C25.8106 9.28939 25.8453 9.27308 25.8823 9.26953C28.0805 9.33899 30.2121 10.0402 32.0221 11.2894C32.7411 11.793 33.3836 12.3977 33.9298 13.0849H40.3422C40.3626 13.0847 40.3828 13.089 40.4014 13.0972C40.42 13.1054 40.4368 13.1175 40.4504 13.1327C40.4641 13.1478 40.4743 13.1657 40.4806 13.1851C40.4868 13.2045 40.4888 13.2249 40.4865 13.2452C40.4865 13.2835 40.4713 13.3202 40.4443 13.3472C40.4172 13.3743 40.3805 13.3895 40.3422 13.3895" fill="#13110C"/>
<path d="M25.8337 35.1597C25.794 35.1557 25.7572 35.137 25.7306 35.1074C25.7039 35.0777 25.6893 35.0392 25.6895 34.9993V7.32982C25.6895 7.31088 25.6932 7.29214 25.7004 7.27464C25.7077 7.25713 25.7183 7.24122 25.7317 7.22782C25.7451 7.21442 25.761 7.20381 25.7785 7.19656C25.796 7.18931 25.8147 7.18555 25.8337 7.18555C25.8736 7.18535 25.9121 7.20001 25.9417 7.22669C25.9713 7.25337 25.9901 7.29014 25.994 7.32982V34.9993C25.9904 35.0406 25.9724 35.0794 25.9431 35.1087C25.9138 35.138 25.875 35.156 25.8337 35.1597Z" fill="#13110C"/>
<path d="M26.622 9.36588C26.6221 9.57572 26.5398 9.77721 26.393 9.92707C26.2461 10.0769 26.0463 10.1632 25.8365 10.1674C25.7334 10.1653 25.6316 10.1429 25.5371 10.1015C25.4426 10.0601 25.3572 10.0005 25.2858 9.92605C25.2143 9.85161 25.1582 9.76385 25.1207 9.66773C25.0832 9.57162 25.0649 9.46904 25.0671 9.36588C25.0627 9.26217 25.0795 9.15862 25.1162 9.06153C25.1529 8.96444 25.2089 8.87581 25.2808 8.80092C25.3527 8.72604 25.439 8.66644 25.5345 8.62578C25.63 8.58512 25.7327 8.56424 25.8365 8.56433C25.941 8.56431 26.0446 8.58511 26.1409 8.62558C26.2373 8.66606 26.3246 8.72539 26.3978 8.80004C26.4709 8.87469 26.5284 8.96315 26.5669 9.06031C26.6055 9.15747 26.6242 9.26138 26.622 9.36588Z" fill="white"/>
<path d="M44.6712 14.6558C44.6712 14.6558 39.8619 8.54796 39.2207 9.09302C38.5794 9.63807 40.8238 11.4496 40.8238 11.4496C40.8238 11.4496 39.6374 10.3274 39.3489 10.648C39.0603 10.9686 40.1345 11.9465 40.1345 11.9465C40.1345 11.9465 39.2366 10.7923 38.8359 11.0969C38.4351 11.4015 39.5092 12.4114 39.5092 12.4114C39.5092 12.4114 38.5153 11.5137 38.3069 11.8824C38.0985 12.2511 39.7497 13.9985 41.5131 14.7359L42.5551 15.778L44.6712 14.6558Z" fill="white"/>
<path d="M70.3528 11.7222C70.1877 11.742 70.0209 11.742 69.8558 11.7222C69.6831 11.6603 69.5324 11.5488 69.423 11.4015C69.3382 11.174 69.3382 10.9236 69.423 10.6962C69.5837 9.80494 69.8418 8.93406 70.1925 8.09914C70.201 8.07836 70.2138 8.05957 70.2301 8.04405C70.2463 8.02854 70.2657 8.01663 70.2868 8.00908C70.308 8.00152 70.3305 7.99851 70.3529 8.00022C70.3753 8.00193 70.3971 8.00828 70.4169 8.01896C70.4429 8.05055 70.4572 8.09023 70.4572 8.13119C70.4572 8.17214 70.4429 8.21183 70.4169 8.24342C70.0819 9.05364 69.8348 9.89742 69.6795 10.7603C69.6306 10.9059 69.6306 11.0635 69.6795 11.2092C69.6795 11.3053 69.8558 11.3534 69.952 11.4015H70.3688C70.411 11.3961 70.4536 11.4061 70.489 11.4297C70.5243 11.4533 70.5499 11.4888 70.5612 11.5297C70.5709 11.5743 70.563 11.621 70.5391 11.6598C70.5152 11.6987 70.4771 11.7268 70.4329 11.7382H70.3207" fill="#142B2A"/>
<path d="M72.8045 8.90102C72.1312 8.77278 71.442 8.61247 70.7847 8.45216C70.7405 8.44077 70.7024 8.4127 70.6785 8.37383C70.6546 8.33497 70.6467 8.28833 70.6564 8.24375C70.6678 8.19956 70.6958 8.1615 70.7347 8.13759C70.7735 8.11367 70.8202 8.10578 70.8648 8.11552C71.5221 8.27583 72.1954 8.43614 72.8687 8.56439C72.892 8.56823 72.9144 8.57669 72.9343 8.58934C72.9543 8.60199 72.9716 8.61852 72.985 8.63797C72.9985 8.65741 73.0078 8.67939 73.0126 8.70255C73.0174 8.7257 73.0175 8.74956 73.0129 8.77275C73.0027 8.81245 72.9802 8.84787 72.9484 8.87382C72.9167 8.89978 72.8775 8.91494 72.8366 8.91707" fill="#142B2A"/>
<path d="M70.8012 9.65503H70.6889C70.6076 9.61574 70.5443 9.54679 70.5122 9.46233C70.4803 9.37413 70.4803 9.27752 70.5122 9.18931C70.5421 9.1556 70.5795 9.12935 70.6213 9.11262C70.6631 9.09589 70.7082 9.08915 70.7531 9.09297C70.7678 9.08451 70.7843 9.08008 70.8012 9.08008C70.8182 9.08008 70.8348 9.08451 70.8495 9.09297C70.8861 9.12119 70.9155 9.15779 70.935 9.1997C70.9546 9.24162 70.9638 9.28762 70.9619 9.33384C70.9625 9.37757 70.9526 9.42086 70.9331 9.45998C70.9135 9.49911 70.8848 9.53295 70.8495 9.55868C70.7971 9.57478 70.7412 9.57478 70.6889 9.55868" fill="#142B2A"/>
<path d="M69.4228 8.24382L68.6534 7.92318C68.6276 7.9186 68.6031 7.90836 68.5817 7.89314C68.5604 7.87793 68.5428 7.85812 68.5301 7.83522C68.5174 7.81232 68.5098 7.7869 68.5082 7.76076C68.5065 7.73461 68.5108 7.70842 68.5205 7.6841C68.5302 7.65977 68.5452 7.63789 68.5644 7.6201C68.5837 7.60232 68.6066 7.58907 68.6316 7.58126C68.6567 7.57345 68.6831 7.57131 68.709 7.575C68.735 7.57869 68.7598 7.58812 68.7816 7.60259L69.5511 7.92318C69.593 7.94095 69.6264 7.97426 69.6443 8.01608C69.6623 8.05791 69.6633 8.10505 69.6473 8.14764C69.633 8.17897 69.6106 8.20593 69.5824 8.22567C69.5542 8.24541 69.5213 8.25721 69.487 8.25987" fill="#142B2A"/>
<path d="M68.9737 9.2061C68.9131 9.20718 68.8541 9.18682 68.807 9.14862C68.76 9.11042 68.728 9.05684 68.7167 8.99733C68.7026 8.97002 68.6953 8.93975 68.6953 8.90902C68.6953 8.8783 68.7026 8.84798 68.7167 8.82066L68.8613 8.70829C68.8877 8.6911 68.9182 8.68129 68.9497 8.67987C68.9811 8.67845 69.0124 8.68546 69.0402 8.70021C69.0681 8.71495 69.0915 8.73688 69.108 8.76372C69.1246 8.79055 69.1336 8.82131 69.1342 8.85281V8.93309C69.1202 8.99123 69.0874 9.04318 69.041 9.08089C68.9946 9.11861 68.9371 9.14001 68.8773 9.14186" fill="#142B2A"/>
<path d="M69.8713 13.4059H69.5987C69.5761 13.4041 69.5541 13.3974 69.5342 13.3865C69.5142 13.3755 69.4968 13.3604 69.4832 13.3423C69.4695 13.3241 69.46 13.3032 69.455 13.281C69.4501 13.2588 69.4499 13.2358 69.4545 13.2135C69.4563 13.1908 69.4629 13.1688 69.4739 13.1489C69.4849 13.1289 69.4999 13.1116 69.5181 13.0979C69.5363 13.0843 69.5572 13.0747 69.5794 13.0697C69.6016 13.0648 69.6246 13.0646 69.6469 13.0692C69.8945 13.1033 70.1468 13.079 70.3834 12.9983C70.62 12.9176 70.8343 12.7827 71.0095 12.6043C71.0245 12.5872 71.0431 12.5736 71.0638 12.5642C71.0845 12.5549 71.107 12.55 71.1297 12.55C71.1525 12.55 71.175 12.5549 71.1957 12.5642C71.2164 12.5736 71.2349 12.5872 71.25 12.6043C71.2815 12.6396 71.299 12.6852 71.299 12.7325C71.299 12.7798 71.2815 12.8255 71.25 12.8608C71.0711 13.0463 70.8571 13.1943 70.6203 13.2961C70.3836 13.398 70.129 13.4516 69.8713 13.4539" fill="#142B2A"/>
<path d="M77.5017 2.16793C77.3305 1.61901 77.0149 1.12624 76.5879 0.741192C76.0871 0.353079 75.487 0.114158 74.8565 0.0518712C73.7589 -0.0815168 72.6453 0.0432091 71.6044 0.41615C70.5635 0.78909 69.6241 1.39994 68.8609 2.20002C68.0433 3.04966 67.4822 3.72296 67.899 4.60467C68.6703 5.60706 69.6708 6.4097 70.8167 6.94518C72.0595 7.53668 73.3746 7.96248 74.7282 8.21164C74.4789 8.87159 74.2701 9.54611 74.103 10.2315L74.4557 9.99106C74.6802 9.75059 74.9207 9.55822 75.097 9.63838C75.7222 9.9109 74.7603 11.001 74.5038 11.6423C75.4467 11.0187 76.2287 10.181 76.7859 9.19748C77.3432 8.21397 77.6598 7.11259 77.71 5.98331C77.9362 4.6839 77.8539 3.34952 77.4696 2.08779" fill="#142B2A"/>
</svg>
