<svg width="115" height="70" viewBox="0 0 115 70" fill="none" xmlns="http://www.w3.org/2000/svg">
<path d="M53.6393 11.2007C54.201 11.226 54.7621 11.1364 55.2881 10.9374C55.814 10.7384 56.2937 10.4342 56.698 10.0433C57.0911 9.64735 57.4 9.17586 57.606 8.6573C57.812 8.13873 57.9108 7.58385 57.8966 7.02605C57.9189 6.47525 57.8258 5.92587 57.6229 5.41331C57.42 4.90075 57.112 4.43636 56.7187 4.05007C56.3103 3.66037 55.8262 3.35846 55.2966 3.16297C54.767 2.96748 54.203 2.88254 53.6393 2.91341C53.0729 2.8869 52.507 2.97378 51.9747 3.16897C51.4423 3.36415 50.9543 3.66373 50.5393 4.05007C50.1461 4.43636 49.8381 4.90075 49.6352 5.41331C49.4323 5.92587 49.3391 6.47525 49.3615 7.02605C49.3445 7.58239 49.4401 8.13642 49.6425 8.6549C49.8449 9.17339 50.1499 9.64563 50.5393 10.0433C50.9485 10.4394 51.435 10.7466 51.9685 10.9458C52.5019 11.1449 53.0707 11.2317 53.6393 11.2007ZM42.9961 11.2007C43.5579 11.226 44.1189 11.1364 44.6448 10.9374C45.1707 10.7384 45.6505 10.4342 46.0547 10.0433C46.4441 9.64563 46.7492 9.17339 46.9516 8.6549C47.154 8.13642 47.2497 7.58239 47.2327 7.02605C47.2551 6.47525 47.1618 5.92587 46.9589 5.41331C46.756 4.90075 46.448 4.43636 46.0547 4.05007C45.6487 3.66296 45.1682 3.36255 44.6424 3.16714C44.1165 2.97172 43.5564 2.88539 42.9961 2.91341C42.4266 2.88644 41.8573 2.97304 41.3215 3.16818C40.7858 3.36332 40.2943 3.66311 39.8755 4.05007C39.4716 4.43032 39.1538 4.89264 38.9435 5.40596C38.7331 5.91928 38.6351 6.47171 38.6561 7.02605C38.6358 7.58644 38.734 8.1448 38.9441 8.66471C39.1542 9.18462 39.4716 9.65437 39.8755 10.0433C40.287 10.442 40.777 10.7508 41.3142 10.95C41.8514 11.1492 42.4242 11.2346 42.9961 11.2007ZM48.1835 33.4584C46.0038 33.623 43.8293 33.0794 41.9835 31.9085C41.2852 31.3521 40.7323 30.6345 40.3723 29.8174C40.0124 29.0003 39.8561 28.108 39.9169 27.2172V26.8038C39.8563 25.907 40.0124 25.0088 40.3721 24.1851C40.7318 23.3614 41.2845 22.6364 41.9835 22.0712C43.8207 20.8774 45.9984 20.3185 48.1835 20.4799C53.6945 20.4799 56.45 22.5879 56.45 26.8038V27.2172C56.5091 28.1078 56.3519 28.9995 55.992 29.8163C55.6322 30.6331 55.0804 31.3509 54.3834 31.9085C52.5365 33.0767 50.3628 33.6201 48.1835 33.4584ZM48.1835 41.3324C51.1983 41.4017 54.1909 40.8018 56.946 39.5757C59.3247 38.5252 61.3436 36.8009 62.7533 34.6158C64.1468 32.3572 64.8639 29.7467 64.8199 27.0932V26.8865C64.8639 24.233 64.1468 21.6225 62.7533 19.3639C61.3406 17.1714 59.3238 15.4345 56.946 14.3627C54.1909 13.1366 51.1983 12.5366 48.1835 12.606C45.1889 12.5389 42.2168 13.139 39.4828 14.3627C37.0973 15.4408 35.0736 17.1845 33.6549 19.3846C32.2577 21.6339 31.54 24.239 31.5882 26.8865V27.0932C31.5435 29.7402 32.2609 32.3444 33.6549 34.5951C35.0761 36.783 37.1002 38.5128 39.4828 39.5757C42.2168 40.7994 45.1889 41.3994 48.1835 41.3324Z" fill="#1D1D1B"/>
<path d="M95.4276 8.01918H93.5883V5.39453H70.8552V8.01918H69.0158C68.2305 8.01918 68.2305 8.01919 68.2305 8.92851C68.2305 9.32117 69.9665 9.34183 69.9665 10.6645V22.4031C69.9665 23.2917 69.9665 23.2917 70.8552 23.2917H72.3225C73.2112 23.2917 73.2112 23.2917 73.2112 22.4031V10.6645H77.0551V22.4031C77.0551 23.2917 77.0551 23.2917 77.923 23.2917H79.4111C80.2791 23.2917 80.2791 23.2917 80.2791 22.4031V10.6645H84.123V22.4031C84.123 23.2917 84.1231 23.2917 84.9911 23.2917H86.4997C87.3677 23.2917 87.3676 23.2917 87.3676 22.4031V10.6645H91.2117V22.4031C91.2117 23.2917 91.2117 23.2917 92.1003 23.2917H93.5676C94.4562 23.2917 94.4562 23.2917 94.4562 22.4031V10.6645C94.4562 9.34183 96.1923 9.36251 96.1923 8.92851C96.1923 8.01919 96.1922 8.01918 95.4069 8.01918" fill="#9BCEA4"/>
<path d="M86.3541 2.35547H78.1289V4.4428H86.3541V2.35547Z" fill="#9BCEA4"/>
<path d="M84.2892 0H80.1973V1.81866H84.2892V0Z" fill="#9BCEA4"/>
<path d="M12.4515 32.5498C12.4515 32.5498 -2.53163 26.0605 1.62233 45.549C5.77629 65.0375 13.3402 67.2488 13.3402 67.2488L40.3926 68.3648V64.1075L17.4942 60.1395C17.4942 60.1395 17.6802 49.8063 16.2335 45.673" fill="#0095D4"/>
<path d="M20.6561 34.4925C20.6561 34.4925 30.6793 32.6945 34.0479 38.7911C37.4165 44.8877 38.8632 45.5284 43.3271 45.6524L47.7705 45.797L52.7924 64.9962L38.0158 63.6942L14.9107 62.2062L8.85547 39.8864" fill="#0095D4"/>
<path d="M40.3904 64.2728C40.4473 64.273 40.5022 64.2519 40.5443 64.2136C40.5864 64.1754 40.6125 64.1227 40.6177 64.0661C40.6236 64.0374 40.6234 64.0077 40.6171 63.9791C40.6107 63.9505 40.5983 63.9236 40.5807 63.9001C40.5631 63.8767 40.5407 63.8572 40.515 63.8431C40.4893 63.8289 40.461 63.8204 40.4318 63.8181L17.6986 59.9535C17.6986 58.4448 17.6987 49.3929 16.4173 45.5903C16.408 45.5617 16.393 45.5352 16.3733 45.5124C16.3537 45.4896 16.3297 45.4709 16.3028 45.4575C16.2759 45.444 16.2465 45.436 16.2165 45.434C16.1865 45.432 16.1565 45.4359 16.128 45.4456C16.077 45.472 16.0368 45.5153 16.0142 45.5681C15.9916 45.6208 15.988 45.6798 16.004 45.7349C17.4093 49.7442 17.2439 60.0361 17.2439 60.2015C17.2467 60.2542 17.2662 60.3047 17.2997 60.3456C17.3331 60.3865 17.3788 60.4157 17.43 60.4288L40.3697 64.2728" fill="white"/>
<path d="M12.4511 32.5497C12.4511 32.5497 13.4224 35.691 20.7177 34.4923L23.0944 40.5269H11.0251L7.61523 34.947L12.4511 32.5497Z" fill="#0095D4"/>
<path d="M47.2324 46.4786C47.2324 46.4786 56.9663 20.7489 69.9655 19.7362C82.9647 18.7235 109.232 27.2175 109.232 27.2175V31.5161L76.8682 30.0074L52.7503 53.0919L48.1624 50.5499L47.2324 46.4786Z" fill="#0095D4"/>
<path d="M114.654 21.6157C113.389 21.2812 110.211 27.4421 110.211 27.4421C110.185 29.0134 110.039 30.5796 109.773 32.1244C110.535 32.4941 111.881 33.0398 112.335 32.7581C112.789 32.4765 115.934 21.9325 114.654 21.6157Z" fill="#0095D4"/>
<path d="M48.2031 50.5505C48.2031 50.5505 63.9924 18.7655 72.8583 20.6254C81.7242 22.4854 104.85 58.6724 104.85 58.6724L100.985 59.4577C100.985 59.4577 86.2089 58.0111 74.5323 35.5466C74.5323 35.5466 71.019 64.335 52.7911 64.9963L48.2031 50.5505Z" fill="#CA5098"/>
<path d="M48.928 29.7394L50.2919 50.2819L39.6487 53.8778L24.8722 51.9765L22.1855 30.9587L37.0654 33.9347L48.928 29.7394Z" fill="#9BCEA4"/>
<path d="M31.3611 53.1749C31.2577 52.9682 31.1751 52.7822 31.0924 52.5756C30.6997 51.5009 30.2657 49.8062 30.6584 49.7649C31.051 49.7236 32.725 52.3069 32.725 52.3069C32.5803 51.9556 32.2084 50.7983 32.0844 50.4263C31.9604 50.0543 31.8777 49.5169 32.0844 49.4963C32.272 49.5085 32.4486 49.5894 32.5803 49.7236C32.8162 49.9355 33.0372 50.1633 33.2417 50.4056C33.6754 50.9496 34.0112 51.565 34.2337 52.2242C33.9858 51.5009 33.7997 50.7776 33.6137 50.1576C33.6137 49.8269 33.6137 49.4963 33.779 49.4756C33.8613 49.4861 33.9406 49.5135 34.0117 49.5562C34.0829 49.5989 34.1444 49.6559 34.1924 49.7236C34.3749 49.9773 34.5339 50.2471 34.6677 50.5296C34.8881 51.166 35.1648 51.7816 35.4944 52.3689C35.2938 51.8212 35.1551 51.2528 35.081 50.6742C35.081 50.3436 35.081 49.9716 35.2876 49.9509C35.4943 49.9303 35.6803 50.1989 35.8043 50.3849C36.0104 50.711 36.1967 51.0492 36.3623 51.3976C36.6309 52.0553 36.9631 52.6852 37.3543 53.2782C38.7183 54.9935 38.6977 51.7696 38.739 50.9636C38.7089 50.8837 38.7089 50.7955 38.739 50.7156C38.863 50.5916 39.0696 50.7156 39.1729 50.8809C39.5177 51.4057 39.7101 52.0159 39.7283 52.6436C39.7466 53.2712 39.5901 53.8916 39.2764 54.4356C38.6338 55.5016 37.6048 56.2788 36.4037 56.6055C35.7445 56.8579 35.025 56.9082 34.3371 56.7502C33.2288 56.3367 32.3198 55.5164 31.7951 54.4562C31.5678 54.0635 31.3404 53.6295 31.1338 53.2162" fill="white"/>
<path d="M22.186 17.2363C22.3719 19.3954 22.3719 21.5665 22.186 23.7256C22.0391 25.9351 21.3275 28.0698 20.1194 29.9255C19.7864 30.4444 19.3415 30.8822 18.8174 31.2068C18.2693 31.4407 17.6652 31.5104 17.0783 31.4077C16.4914 31.305 15.9469 31.0342 15.5108 30.6282C14.638 29.8027 13.9845 28.7728 13.6094 27.6316C12.678 25.2213 12.161 22.6709 12.0801 20.0883" fill="#E3E3E3"/>
<path d="M13.2982 25.8336L12.8228 25.503L11.8516 23.7257L12.0789 22.4443L14.2488 22.527L16.0675 23.6223L15.7576 25.9577" fill="#E3E3E3"/>
<path d="M11.2521 11.9658C11.6168 11.2545 12.1664 10.6548 12.8434 10.2298C13.6206 9.83001 14.4928 9.65129 15.3647 9.71314C16.9086 9.8072 18.4096 10.2573 19.7506 11.0281C21.0915 11.7989 22.2358 12.8696 23.094 14.1564C24.024 15.4997 24.6233 16.5744 23.8586 17.6904C22.5599 18.8641 21.0019 19.7138 19.312 20.1704C17.465 20.6694 15.5624 20.9332 13.6494 20.9557C13.8355 21.9111 13.9598 22.8776 14.0214 23.849C14.0304 23.8647 14.0352 23.8825 14.0352 23.9006C14.0352 23.9188 14.0304 23.9366 14.0214 23.9523C13.8767 23.9523 13.5873 23.5183 13.5873 23.5183C13.3187 23.1257 13.0294 22.8157 12.8021 22.8777C11.8721 23.105 12.9261 24.8203 13.1327 25.771C10.6527 23.911 9.95012 20.377 10.0741 17.215C10.065 15.3851 10.4899 13.579 11.3141 11.9451" fill="#142B2A"/>
<path d="M44.8152 68.7994C44.8152 68.9234 45.1458 69.2127 45.0425 69.3573C44.9392 69.502 43.8025 68.9854 43.5958 68.882C42.8037 68.4847 41.9152 68.3199 41.0332 68.4067C41.0767 67.1307 41.2149 65.8596 41.4466 64.6041C43.0755 64.5408 44.6984 64.8371 46.1998 65.472L46.5511 65.6167C46.5511 65.6167 48.8037 66.5467 49.6304 67.0427C49.6304 67.0427 49.7958 67.1874 49.7338 67.2494C49.6718 67.3114 48.9898 67.2494 48.6384 67.2494L45.8072 66.1747C47.0748 66.8384 48.2725 67.6276 49.3824 68.5307C49.4448 68.5774 49.492 68.6417 49.5178 68.7153C49.5435 68.7889 49.5468 68.8686 49.5271 68.944C49.4031 69.2127 47.9564 68.634 47.7084 68.5307L45.3319 67.58C46.0123 67.9706 46.6618 68.4127 47.2745 68.9027C47.5638 69.13 47.9772 69.5227 47.9152 69.7294C47.8532 69.936 46.9438 69.626 46.3031 69.378C45.6625 69.13 44.9391 68.82 44.2365 68.51C44.4267 68.6318 44.6003 68.7777 44.7531 68.944" fill="#0095D4"/>
<path d="M114.441 64.0249C114.441 62.3302 106.65 59.8916 106.65 59.8916C104.897 60.2889 103.113 60.5309 101.318 60.6149C101.153 61.7102 100.946 63.5496 101.318 64.0456C101.69 64.5415 114.4 65.6782 114.379 64.0456" fill="#0095D4"/>
<path d="M19.0028 26.7018C18.9444 26.6919 18.8915 26.6615 18.8536 26.616C18.8157 26.5705 18.7952 26.513 18.7961 26.4538C18.7928 26.4231 18.7965 26.3921 18.8068 26.3631C18.8171 26.334 18.8337 26.3076 18.8555 26.2858C18.8773 26.264 18.9036 26.2474 18.9327 26.2371C18.9617 26.2268 18.9927 26.2232 19.0234 26.2264C19.4016 26.257 19.7819 26.257 20.1601 26.2264C20.178 24.8467 20.1228 23.467 19.9948 22.0931C19.9888 22.0644 19.989 22.0348 19.9954 22.0062C20.0018 21.9775 20.0141 21.9506 20.0317 21.9272C20.0493 21.9037 20.0718 21.8843 20.0974 21.8701C20.1231 21.856 20.1515 21.8475 20.1807 21.8451C20.2094 21.8392 20.2391 21.8394 20.2677 21.8458C20.2963 21.8522 20.3232 21.8646 20.3467 21.8822C20.3701 21.8998 20.3897 21.9221 20.4038 21.9478C20.418 21.9735 20.4265 22.0019 20.4288 22.0311C20.5727 23.4039 20.6279 24.7845 20.594 26.1644C20.6013 26.2773 20.5642 26.3885 20.4907 26.4744C20.4165 26.54 20.3211 26.5766 20.2221 26.5777H19.3334H19.0028" fill="#142B2A"/>
<path d="M16.977 24.6345C16.6942 24.5142 16.4512 24.3166 16.2757 24.0643C16.1002 23.8121 15.9995 23.5154 15.9851 23.2085C15.9756 22.8987 16.0645 22.5938 16.239 22.3376C16.4135 22.0814 16.6646 21.8871 16.9563 21.7825C17.1667 21.6845 17.396 21.6338 17.628 21.6338C17.8601 21.6338 18.0893 21.6845 18.2997 21.7825C18.506 21.9202 18.6808 22.1001 18.8126 22.3102C18.9444 22.5204 19.0302 22.7561 19.0643 23.0018C19.0964 23.2003 19.0964 23.4026 19.0643 23.6011C18.9957 23.8688 18.8437 24.1076 18.6303 24.2831C18.3268 24.5482 17.938 24.695 17.535 24.6965C17.3357 24.6949 17.1388 24.6526 16.9563 24.5724M17.0803 22.1545C16.8793 22.2286 16.7071 22.3646 16.5883 22.5428C16.4694 22.7211 16.4102 22.9324 16.4191 23.1465C16.4238 23.3656 16.4929 23.5785 16.6179 23.7586C16.7429 23.9387 16.9181 24.078 17.1217 24.1591C17.3273 24.2295 17.5476 24.2456 17.7612 24.2058C17.9749 24.1659 18.1747 24.0716 18.3411 23.9318C18.4807 23.8211 18.5819 23.6693 18.6303 23.4978C18.6508 23.3677 18.6508 23.2352 18.6303 23.1051C18.6055 22.9231 18.5432 22.7483 18.4471 22.5917C18.3511 22.4352 18.2234 22.3003 18.0724 22.1958C17.9268 22.0958 17.753 22.0451 17.5764 22.0511C17.4132 22.0577 17.2522 22.0926 17.101 22.1545" fill="#CA5098"/>
<path d="M16.2325 23.3741C16.2852 23.3713 16.3357 23.3518 16.3766 23.3183C16.4175 23.2848 16.4466 23.2392 16.4598 23.188C16.4626 23.1565 16.4589 23.1247 16.4488 23.0947C16.4387 23.0647 16.4224 23.0371 16.401 23.0138C16.3796 22.9904 16.3536 22.9718 16.3245 22.9591C16.2955 22.9464 16.2641 22.9399 16.2325 22.94C15.2629 22.7138 14.3256 22.3667 13.4425 21.9067C13.4005 21.8675 13.345 21.8457 13.2875 21.8457C13.23 21.8457 13.1746 21.8675 13.1325 21.9067C13.0973 21.9507 13.0781 22.0054 13.0781 22.0617C13.0781 22.1181 13.0973 22.1727 13.1325 22.2167C14.0494 22.6869 15.0214 23.041 16.0258 23.2707" fill="#CA5098"/>
<path d="M19.209 29.1398C19.4926 29.1387 19.7734 29.0826 20.0357 28.9745C20.0643 28.9651 20.0907 28.9502 20.1135 28.9306C20.1363 28.9109 20.1549 28.8869 20.1684 28.86C20.1818 28.8331 20.1898 28.8038 20.1918 28.7738C20.1939 28.7438 20.1899 28.7136 20.1802 28.6851C20.1714 28.6565 20.1565 28.6302 20.1365 28.608C20.1164 28.5857 20.0918 28.5681 20.0643 28.5563C20.0368 28.5445 20.0069 28.5388 19.977 28.5397C19.9471 28.5405 19.9178 28.5478 19.891 28.5611C19.6389 28.6663 19.3685 28.7205 19.0953 28.7205C18.8222 28.7205 18.5517 28.6663 18.2996 28.5611C18.261 28.5233 18.209 28.5021 18.155 28.5021C18.1009 28.5021 18.0489 28.5233 18.0103 28.5611C17.971 28.6032 17.9492 28.6586 17.9492 28.7161C17.9492 28.7737 17.971 28.829 18.0103 28.8711C18.3504 29.0422 18.7249 29.1341 19.1057 29.1398" fill="#142B2A"/>
<path d="M17.6582 23.2504C17.5903 23.2404 17.5209 23.2532 17.4611 23.2869C17.4012 23.3206 17.3544 23.3731 17.3276 23.4364C17.2885 23.4944 17.2676 23.5628 17.2676 23.6327C17.2676 23.7027 17.2885 23.771 17.3276 23.829C17.3856 23.8681 17.4539 23.889 17.5239 23.889C17.5938 23.889 17.6621 23.8681 17.7202 23.829C17.7329 23.7887 17.7329 23.7454 17.7202 23.705C17.7343 23.6649 17.7343 23.6212 17.7202 23.581C17.7265 23.5379 17.7232 23.4939 17.7102 23.4524C17.6972 23.4108 17.6749 23.3726 17.6451 23.3408C17.6153 23.3091 17.5787 23.2844 17.538 23.2688C17.4974 23.2531 17.4537 23.2468 17.4102 23.2504" fill="#142B2A"/>
<path d="M21.875 22.9399C21.8071 22.9299 21.7378 22.9428 21.678 22.9764C21.6182 23.0101 21.5712 23.0626 21.5444 23.1259C21.5053 23.1839 21.4844 23.2523 21.4844 23.3222C21.4844 23.3922 21.5053 23.4605 21.5444 23.5186C21.6024 23.5576 21.6707 23.5785 21.7407 23.5785C21.8106 23.5785 21.8791 23.5576 21.9371 23.5186C21.9371 23.5186 21.9371 23.5186 22.0404 23.4152V23.2706C22.0475 23.2255 22.0438 23.1794 22.0297 23.1361C22.0156 23.0928 21.9914 23.0534 21.9592 23.0212C21.9269 22.9889 21.8875 22.9647 21.8441 22.9506C21.8008 22.9365 21.7548 22.9328 21.7098 22.9399" fill="#142B2A"/>
<path d="M16.9771 23.271C16.9609 23.2785 16.9433 23.2823 16.9255 23.2823C16.9077 23.2823 16.89 23.2785 16.8738 23.271C16.8557 23.2537 16.8413 23.2328 16.8314 23.2097C16.8216 23.1867 16.8164 23.1618 16.8164 23.1367C16.8164 23.1116 16.8216 23.0868 16.8314 23.0637C16.8413 23.0406 16.8557 23.0197 16.8738 23.0024C17.0512 22.7638 17.2959 22.5839 17.5765 22.4857C17.598 22.4759 17.6213 22.4707 17.645 22.4707C17.6687 22.4707 17.6922 22.4757 17.7138 22.4855C17.7353 22.4953 17.7545 22.5096 17.77 22.5275C17.7856 22.5454 17.7971 22.5664 17.8038 22.5891C17.8343 22.6232 17.8511 22.6673 17.8511 22.713C17.8511 22.7588 17.8343 22.8029 17.8038 22.837C17.5853 22.9244 17.393 23.0668 17.2458 23.2504C17.2232 23.2613 17.1986 23.267 17.1735 23.267C17.1484 23.267 17.1236 23.2613 17.1011 23.2504" fill="#142B2A"/>
<path d="M22.1639 22.5891C21.9883 22.475 21.7915 22.3977 21.5853 22.3618C21.5396 22.3489 21.499 22.322 21.4694 22.285C21.4397 22.2479 21.4225 22.2025 21.4199 22.1551C21.43 22.1039 21.459 22.0585 21.5012 22.0278C21.5433 21.9972 21.5955 21.9836 21.6472 21.9897C21.8959 22.0356 22.1341 22.1266 22.3499 22.2584C22.382 22.2959 22.3995 22.3435 22.3995 22.3928C22.3995 22.442 22.382 22.4897 22.3499 22.5271C22.3239 22.5385 22.2956 22.5443 22.2672 22.5443C22.2387 22.5443 22.2106 22.5385 22.1846 22.5271" fill="#142B2A"/>
<path d="M21.5433 23.8901C21.3566 23.7122 21.2172 23.4905 21.1378 23.2451C21.0584 22.9997 21.0415 22.7384 21.0886 22.4848C21.1267 22.2915 21.2103 22.1101 21.3325 21.9555C21.4547 21.801 21.612 21.6778 21.7913 21.5962C22.009 21.4854 22.2498 21.4277 22.494 21.4277C22.7382 21.4277 22.9789 21.4854 23.1966 21.5962C23.3781 21.6938 23.5343 21.8324 23.6527 22.001C23.7711 22.1697 23.8485 22.3636 23.8786 22.5675C23.8903 22.8569 23.841 23.1456 23.7339 23.4148C23.656 23.6498 23.5126 23.8577 23.3206 24.0141C23.1959 24.0975 23.055 24.1538 22.9072 24.1795H22.618C22.2248 24.1789 21.8443 24.0398 21.5433 23.7868M22.99 21.9681C22.8322 21.8914 22.6591 21.8515 22.4837 21.8515C22.3082 21.8515 22.1351 21.8914 21.9774 21.9681C21.8629 22.0242 21.7625 22.1053 21.6838 22.2055C21.6051 22.3057 21.55 22.4224 21.5226 22.5468C21.4934 22.7185 21.5063 22.8948 21.5603 23.0604C21.6143 23.226 21.7078 23.376 21.8327 23.4975C21.9685 23.6118 22.1275 23.695 22.2989 23.7414C22.4702 23.7878 22.6497 23.7962 22.8246 23.7661C22.9066 23.7808 22.9906 23.7808 23.0726 23.7661C23.1902 23.6609 23.2761 23.5249 23.3206 23.3735C23.4086 23.1721 23.4441 22.9516 23.4239 22.7328C23.4062 22.6024 23.3576 22.4781 23.2821 22.3702C23.2066 22.2624 23.1065 22.1741 22.99 22.1128L23.0933 21.9061L22.99 21.9681Z" fill="#CA5098"/>
<path d="M18.9617 23.2707L18.7344 22.878C19.115 22.6296 19.5462 22.4692 19.9966 22.4084C20.4471 22.3477 20.9054 22.3881 21.3382 22.5267L21.2143 22.9606C20.8393 22.8416 20.4427 22.8077 20.053 22.8613C19.6633 22.9149 19.2905 23.0548 18.9617 23.2707Z" fill="#CA5098"/>
<path d="M13.0901 22.7748H12.9868C12.9476 22.7327 12.9258 22.6773 12.9258 22.6198C12.9258 22.5623 12.9476 22.5069 12.9868 22.4648C13.0615 22.309 13.1443 22.1573 13.2348 22.0101C13.2735 21.9723 13.3254 21.951 13.3795 21.951C13.4336 21.951 13.4855 21.9723 13.5242 22.0101C13.5462 22.0295 13.5638 22.0534 13.5759 22.0801C13.588 22.1068 13.5942 22.1358 13.5942 22.1651C13.5942 22.1945 13.588 22.2234 13.5759 22.2502C13.5638 22.2769 13.5462 22.3007 13.5242 22.3201L13.2762 22.7541C13.2603 22.7905 13.2344 22.8215 13.2014 22.8434C13.1684 22.8654 13.1298 22.8775 13.0901 22.8781" fill="#CA5098"/>
</svg>
