<svg width="94" height="100" viewBox="0 0 94 100" fill="none" xmlns="http://www.w3.org/2000/svg">
<path d="M15.0199 50.4506C10.2376 49.5683 5.81076 47.3269 2.26903 43.9945C1.12421 43.0864 0.382258 41.7647 0.203125 40.3145C0.203125 37.845 2.94697 36.2794 3.52802 33.8584C4.04451 31.7924 2.81787 29.7426 2.33366 27.6605C1.95059 25.3611 2.34781 22.9996 3.46222 20.9521C4.57662 18.9047 6.34413 17.289 8.48311 16.3623C10.6353 15.5514 12.9521 15.2746 15.2348 15.5557C17.5174 15.8368 19.6979 16.6675 21.589 17.9763C22.8709 19.0214 24.3384 19.8154 25.9146 20.3166C27.1857 20.4588 28.4713 20.3989 29.7237 20.1391C33.9648 19.5501 38.2743 20.5441 41.8289 22.9314C43.6025 24.1706 45.047 25.8239 46.037 27.7477C47.027 29.6715 47.5328 31.8078 47.5104 33.9713C47.3569 35.0148 47.3569 36.0752 47.5104 37.1187C48.0107 39.0717 50.0928 40.5405 49.9152 42.5741C49.7626 43.2674 49.4651 43.9206 49.0423 44.4908C48.6195 45.061 48.0809 45.5354 47.4619 45.8829C44.7826 47.8843 42.0064 49.7566 39.1657 51.4997C36.6801 53.0331 33.6458 54.5018 31.0956 53.2752" fill="#CA5098"/>
<path d="M36.4238 58.94L40.8946 68.6242L38.6512 90.2039H42.8476C46.0202 81.0509 48.0213 71.5332 48.8034 61.8776C47.9133 56.0786 46.2127 50.4335 43.7515 45.1078C37.2954 32.2924 36.4238 45.1078 36.4238 45.1078V58.94Z" fill="#142B2A"/>
<path d="M46.011 9.80945C46.011 9.80945 15.7963 27.3378 21.3163 93.1419L25.5935 95.5629C25.5935 95.5629 30.8714 83.264 39.4096 46.803C39.4096 46.803 40.3941 47.0774 43.9289 45.6894C43.9289 45.6894 49.1099 27.935 50.5787 17.5891L46.011 9.80945Z" fill="#0095D4"/>
<path d="M43.9278 45.6894C43.9278 45.6894 40.9581 49.1918 22.2676 44.2206C22.2676 44.2206 31.1932 18.3961 46.01 9.80945L50.5776 17.5891C50.5776 17.5891 48.8022 33.7294 43.9278 45.6894Z" fill="#9BCEA4"/>
<path d="M46.011 9.80957C43.1981 14.1272 41.3148 18.9831 40.4812 24.0683C39.6475 29.1535 39.8818 34.3566 41.1689 39.3464C41.1689 39.3464 53.9843 46.787 65.0727 47.1583L66.8158 44.8179L48.7548 33.7134C50.6747 29.9636 52.8593 26.3552 55.2917 22.9155C55.2917 22.9155 53.8229 17.0727 45.9787 9.80957" fill="#0095D4"/>
<path d="M61.0194 7.93665C59.6726 9.06028 58.2306 10.0647 56.7099 10.9387C55.1798 11.806 53.449 12.2568 51.6902 12.2461C51.1904 12.2565 50.6962 12.1399 50.2537 11.9072C49.8398 11.6197 49.5137 11.2232 49.3115 10.7617C49.1092 10.3001 49.0387 9.79159 49.1078 9.29243C49.2677 8.30506 49.6605 7.37 50.2537 6.56472C51.4278 4.80797 52.9031 3.27255 54.6116 2.0293" fill="#DEDEDE"/>
<path d="M50.6423 3.78891C50.5508 3.86642 50.4827 3.96785 50.4457 4.08188C50.4086 4.19591 50.404 4.31802 50.4325 4.43451C50.5455 4.66047 50.8521 4.67664 51.0942 4.6605C52.5952 4.48295 54.0801 3.65977 55.5328 4.12784C57.6956 4.82187 58.2121 7.92084 60.1812 9.09908C60.6395 9.32262 61.1388 9.44975 61.6482 9.47264C62.1577 9.49553 62.6663 9.41366 63.1429 9.23212C63.6194 9.05059 64.0536 8.77325 64.4187 8.41722C64.7838 8.06119 65.072 7.63405 65.2654 7.16222C65.614 6.17441 65.6458 5.10249 65.3565 4.09572C65.0672 3.08896 64.4712 2.19745 63.6514 1.54538C61.9144 0.339097 59.7956 -0.18912 57.6956 0.0604983C56.32 0.133826 54.9767 0.505193 53.7588 1.14896C52.541 1.79273 51.4776 2.69352 50.6423 3.78891Z" fill="#142B2A"/>
<path d="M54.0155 4.53163C54.0155 4.53163 54.3868 2.7562 53.3377 2.9176C52.2885 3.079 51.2233 4.12812 50.8359 6.29092" fill="#DEDEDE"/>
<path d="M38.8102 90.6238C39.4397 91.9311 41.4088 91.6084 41.4088 91.6084C41.4088 91.6084 47.6712 93.3031 47.4937 94.4652C47.3161 95.6273 39.8109 94.4652 39.8109 94.4652V94.9817H37.8257C37.8257 94.9817 36.9541 91.5276 38.8263 90.6238" fill="#0095D4"/>
<path d="M21.4937 94.5781C22.0263 96.0308 24.1407 95.9016 24.1407 95.9016C24.1407 95.9016 30.5968 98.4357 30.2579 99.63C29.9189 100.824 22.1877 98.7423 22.1877 98.7423V99.2911L20.0895 99.049C20.0895 99.049 19.5407 95.3044 21.6066 94.5781" fill="#CA5098"/>
<path d="M67.6868 45.3829C69.0735 45.5943 70.4396 45.9237 71.7702 46.3675L70.7534 47.223C70.7534 47.223 73.8846 48.6272 73.5941 49.0468C73.3036 49.4665 71.173 48.5142 71.173 48.5142C71.173 48.5142 73.0453 49.4341 72.8678 49.8699C72.6902 50.3057 70.7372 49.1275 70.7372 49.1275C70.7372 49.1275 72.3513 50.1928 72.0607 50.6608C71.7702 51.1289 70.253 50.0152 70.253 50.0152C70.253 50.0152 71.2053 50.7254 70.7534 51.2096C70.3015 51.6938 67.5253 49.4342 65.8145 47.6265L67.6868 45.3829Z" fill="#CA5098"/>
<path d="M54.8531 10.3742C54.7664 10.3467 54.6921 10.2896 54.6433 10.2128L54.2236 9.61563C54.206 9.59903 54.192 9.57902 54.1825 9.55682C54.1729 9.53461 54.168 9.51071 54.168 9.48653C54.168 9.46235 54.1729 9.43839 54.1825 9.41619C54.192 9.39399 54.206 9.37398 54.2236 9.35738C54.2402 9.33979 54.2602 9.32583 54.2824 9.31625C54.3046 9.30667 54.3286 9.30172 54.3528 9.30172C54.377 9.30172 54.4009 9.30667 54.4231 9.31625C54.4453 9.32583 54.4653 9.33979 54.4819 9.35738L54.9015 9.95461C55.5353 9.7321 56.1376 9.42823 56.6931 9.05071C57.1007 8.81737 57.4618 8.51098 57.7584 8.14686V8.06617C57.5168 7.50651 57.1044 7.03762 56.5801 6.72655C56.5484 6.69104 56.5308 6.64504 56.5308 6.5974C56.5308 6.54976 56.5484 6.50381 56.5801 6.4683C56.6157 6.43654 56.6616 6.41895 56.7092 6.41895C56.7568 6.41895 56.8028 6.43654 56.8384 6.4683C57.4274 6.81581 57.8908 7.34142 58.1619 7.96934C58.1824 8.04874 58.1824 8.13203 58.1619 8.21143C58.1466 8.29295 58.1135 8.37012 58.065 8.43742C57.7456 8.84692 57.3513 9.19194 56.903 9.45422C56.3185 9.83994 55.6899 10.1543 55.0306 10.3904H54.8854" fill="#13110C"/>
<path d="M53.5314 11.2942H53.4345C52.935 10.966 52.5556 10.4846 52.3532 9.92224C52.3426 9.90013 52.3368 9.87608 52.336 9.85161C52.3352 9.82713 52.3395 9.80277 52.3486 9.78004C52.3577 9.7573 52.3714 9.73669 52.3888 9.7195C52.4063 9.70231 52.4271 9.6889 52.45 9.68014C52.4971 9.66429 52.5486 9.66719 52.5936 9.68822C52.6387 9.70926 52.6739 9.74682 52.6921 9.79314C52.8648 10.2788 53.1941 10.6933 53.6282 10.9713C53.657 11.0082 53.6726 11.0537 53.6726 11.1005C53.6726 11.1473 53.657 11.1927 53.6282 11.2296C53.6083 11.2534 53.5837 11.2729 53.5559 11.2868C53.5281 11.3007 53.4979 11.3087 53.4669 11.3103" fill="#13110C"/>
<path d="M56.258 8.53421C56.181 8.53196 56.1069 8.50347 56.0482 8.45348C55.9982 8.41024 55.96 8.35491 55.9374 8.29276C55.9148 8.2306 55.9085 8.16368 55.9191 8.09839C55.9195 8.03407 55.936 7.97092 55.967 7.91457C55.998 7.85821 56.0426 7.81045 56.0967 7.77561C56.1476 7.74419 56.2063 7.72754 56.2661 7.72754C56.326 7.72754 56.3846 7.74419 56.4356 7.77561C56.4964 7.81625 56.546 7.87156 56.5799 7.93644C56.6137 8.00131 56.6307 8.07365 56.6292 8.14681C56.6234 8.21784 56.5997 8.28626 56.5602 8.34556C56.5206 8.40486 56.4667 8.45313 56.4033 8.48579H56.258" fill="#13110C"/>
<path d="M57.2743 10.1485H57.1128C57.0592 10.1273 57.0141 10.0888 56.9849 10.0391C56.9556 9.98933 56.9439 9.93125 56.9515 9.87406C56.9516 9.80975 56.9718 9.7471 57.0095 9.69496C57.0472 9.64282 57.1003 9.60385 57.1613 9.58354C57.224 9.55228 57.293 9.53601 57.3631 9.53601C57.4331 9.53601 57.5022 9.55228 57.5648 9.58354C57.6 9.61604 57.6271 9.65632 57.6439 9.70117C57.6607 9.74601 57.6668 9.79418 57.6617 9.84179C57.6533 9.88705 57.6344 9.92969 57.6063 9.96617C57.5782 10.0026 57.5419 10.0319 57.5003 10.0516C57.4268 10.0751 57.3478 10.0751 57.2743 10.0516M57.2743 9.63196V9.80948V9.63196Z" fill="#13110C"/>
<path d="M83.634 93.7226C82.736 93.9346 81.8796 94.2946 81.0999 94.7879C80.4221 95.2398 79.7441 95.9984 79.9701 96.8215C80.1961 97.6447 80.8901 97.79 81.5841 97.9514C82.9691 98.3005 84.4156 98.3281 85.8129 98.032C87.2391 97.71 88.5138 96.9133 89.4283 95.7724C89.6392 95.5509 89.7747 95.2685 89.8157 94.9654C89.8157 94.3359 89.2507 93.9001 88.702 93.7065C87.823 93.4456 86.906 93.3364 85.9904 93.3836" fill="#9BCEA4"/>
<path d="M82.0995 77.4696C85.1319 75.0306 88.6388 73.2497 92.3971 72.2401C93.1809 73.8516 93.5123 75.6458 93.356 77.431C93.1996 79.2162 92.5614 80.9255 91.5094 82.3762C89.5725 85.0555 84.7465 87.8639 81.4377 86.266C77.8384 84.5229 79.9367 79.4225 82.0995 77.4696Z" fill="#9BCEA4"/>
<path d="M82.0013 89.1715C81.0788 89.1166 80.1762 88.8803 79.3453 88.4759C78.5144 88.0715 77.7715 87.5071 77.1592 86.815C75.1125 84.0884 73.6259 80.9836 72.7852 77.6796V77.5343H72.9305C74.2907 76.8223 75.8276 76.5182 77.3565 76.6585C78.8855 76.7988 80.3413 77.3775 81.5493 78.3252C83.8413 80.1006 86.2139 84.4262 84.7774 87.4122C84.5811 87.8853 84.2651 88.2992 83.8604 88.6133C83.4558 88.9274 82.9764 89.1309 82.4693 89.2037H81.9367M73.1725 77.7602C73.9886 80.9603 75.4315 83.9666 77.4174 86.6052C78.0402 87.3146 78.811 87.8788 79.6755 88.2581C80.54 88.6374 81.4772 88.8224 82.421 88.8002C82.8717 88.7385 83.2972 88.5559 83.6525 88.2717C84.0077 87.9875 84.2794 87.6124 84.4385 87.1862C85.7136 84.41 83.4055 80.2136 81.2104 78.5512C80.0777 77.6712 78.7203 77.1274 77.2934 76.9819C75.8664 76.8364 74.4274 77.0949 73.1403 77.728" fill="#13110C"/>
<path d="M82.212 86.2171C82.1708 86.215 82.1313 86.1997 82.0994 86.1736C82.0674 86.1475 82.0446 86.1118 82.0344 86.0718C81.6862 84.5853 80.9915 83.2022 80.007 82.0353C79.0224 80.8684 77.7759 79.9509 76.3692 79.3575C76.3229 79.3394 76.2853 79.3041 76.2643 79.259C76.2432 79.214 76.2403 79.1625 76.2562 79.1154C76.2797 79.0743 76.3164 79.0424 76.3603 79.0248C76.4043 79.0072 76.4529 79.005 76.4982 79.0185C77.9602 79.6298 79.2564 80.5791 80.2804 81.7883C81.3045 82.9975 82.0273 84.4323 82.3895 85.975C82.3968 85.9983 82.3992 86.0229 82.3966 86.0472C82.394 86.0714 82.3863 86.0949 82.3742 86.1162C82.3621 86.1374 82.3457 86.1558 82.3261 86.1704C82.3066 86.185 82.2841 86.1954 82.2603 86.201" fill="#13110C"/>
<path d="M79.3552 80.2624C79.3327 80.2646 79.31 80.2621 79.2885 80.255C79.2671 80.2479 79.2473 80.2364 79.2305 80.2212C79.2138 80.206 79.2004 80.1874 79.1913 80.1666C79.1822 80.1459 79.1776 80.1236 79.1777 80.1009C79.1011 79.5559 78.9878 79.0167 78.8387 78.4869C78.8265 78.4397 78.8311 78.3897 78.8517 78.3455C78.8724 78.3014 78.9077 78.2658 78.9517 78.2448C78.9761 78.2373 79.0017 78.2348 79.0271 78.2372C79.0525 78.2397 79.0771 78.2471 79.0996 78.2591C79.1221 78.2711 79.1419 78.2874 79.1581 78.3071C79.1743 78.3268 79.1865 78.3495 79.1939 78.3739C79.346 78.9029 79.4592 79.4424 79.5328 79.9879C79.5375 80.0369 79.5235 80.0858 79.4935 80.1247C79.4636 80.1637 79.4199 80.1898 79.3714 80.1978" fill="#13110C"/>
<path d="M81.3055 82.3114C81.2821 82.3094 81.2594 82.3027 81.2386 82.2919C81.2178 82.281 81.1994 82.2662 81.1844 82.2482C81.1694 82.2302 81.1582 82.2094 81.1512 82.187C81.1443 82.1646 81.1418 82.1411 81.144 82.1177C81.1926 81.6239 81.1926 81.1266 81.144 80.6328C81.1394 80.6094 81.1395 80.5854 81.1443 80.5621C81.1492 80.5388 81.1587 80.5167 81.1722 80.4971C81.1858 80.4775 81.2031 80.4609 81.2232 80.4481C81.2434 80.4354 81.2658 80.4268 81.2893 80.423C81.3139 80.4183 81.3391 80.419 81.3634 80.4248C81.3877 80.4306 81.4105 80.4415 81.4303 80.4567C81.4501 80.472 81.4665 80.4912 81.4784 80.5132C81.4902 80.5352 81.4973 80.5594 81.4992 80.5844C81.5508 81.1211 81.5508 81.6616 81.4992 82.1984C81.4993 82.221 81.4946 82.2434 81.4855 82.2642C81.4764 82.2849 81.463 82.3034 81.4463 82.3186C81.4295 82.3339 81.4098 82.3454 81.3883 82.3525C81.3669 82.3596 81.3441 82.3621 81.3216 82.3598" fill="#13110C"/>
<path d="M82.3895 84.4258C82.3666 84.417 82.3457 84.4036 82.3283 84.3864C82.3108 84.3692 82.2972 84.3486 82.2881 84.3259C82.279 84.3032 82.2747 84.2788 82.2755 84.2543C82.2763 84.2299 82.2821 84.2058 82.2926 84.1837C82.4695 83.7149 82.5518 83.2157 82.5347 82.7149C82.5345 82.6662 82.5527 82.6192 82.5856 82.5834C82.6185 82.5475 82.6638 82.5253 82.7123 82.5212C82.7369 82.519 82.7617 82.5219 82.7852 82.5298C82.8086 82.5377 82.8301 82.5504 82.8483 82.5672C82.8666 82.5839 82.8812 82.6042 82.8911 82.6269C82.901 82.6496 82.9061 82.674 82.906 82.6988C82.9214 83.2496 82.8281 83.798 82.6316 84.3128C82.6186 84.3498 82.5945 84.3819 82.5628 84.405C82.5311 84.428 82.4932 84.4409 82.454 84.4419" fill="#13110C"/>
<path d="M75.6896 81.5535C75.6498 81.555 75.6107 81.5431 75.5785 81.5197C75.5463 81.4963 75.5229 81.4627 75.5121 81.4244C75.4962 81.3773 75.4991 81.3258 75.5201 81.2807C75.5412 81.2357 75.5787 81.2004 75.625 81.1823C76.3045 80.9809 77.0277 80.9809 77.7071 81.1823C77.7529 81.1972 77.7914 81.2286 77.8153 81.2703C77.8391 81.3121 77.8466 81.3613 77.8363 81.4083C77.8307 81.432 77.8203 81.4544 77.8057 81.474C77.7911 81.4936 77.7727 81.51 77.7514 81.5221C77.7302 81.5342 77.7068 81.5418 77.6825 81.5444C77.6582 81.5471 77.6336 81.5447 77.6103 81.5374C76.9999 81.3524 76.3484 81.3524 75.738 81.5374" fill="#13110C"/>
<path d="M80.1451 83.2476C79.4276 83.0337 78.6694 82.995 77.9339 83.1347C77.9105 83.1393 77.8864 83.1392 77.8631 83.1344C77.8398 83.1295 77.8178 83.1201 77.7982 83.1065C77.7786 83.093 77.762 83.0756 77.7492 83.0555C77.7365 83.0354 77.7279 83.0129 77.724 82.9894C77.7168 82.965 77.715 82.9392 77.7186 82.914C77.7222 82.8888 77.7312 82.8646 77.745 82.8432C77.7588 82.8217 77.777 82.8036 77.7985 82.7898C77.8199 82.776 77.8441 82.767 77.8693 82.7634C78.6594 82.6209 79.4719 82.6651 80.2419 82.8925C80.2876 82.9074 80.3262 82.9388 80.3501 82.9806C80.3739 83.0224 80.3814 83.0716 80.3711 83.1185C80.3588 83.1574 80.3354 83.1918 80.3039 83.2176C80.2723 83.2434 80.234 83.2594 80.1935 83.2638" fill="#13110C"/>
<path d="M81.3899 85.4108C81.3748 85.4179 81.3582 85.4217 81.3414 85.4217C81.3247 85.4217 81.3082 85.4179 81.2931 85.4108C80.7388 85.1493 80.1099 85.0921 79.5176 85.2494C79.4942 85.254 79.4703 85.2539 79.4469 85.2491C79.4236 85.2442 79.4015 85.2347 79.3819 85.2212C79.3624 85.2076 79.3457 85.1903 79.333 85.1702C79.3202 85.15 79.3116 85.1276 79.3077 85.1041C79.3025 85.0532 79.3161 85.0022 79.3458 84.9606C79.3755 84.919 79.4194 84.8896 79.4692 84.8781C80.1467 84.7039 80.8646 84.7843 81.4867 85.1041C81.5043 85.1207 81.5183 85.1407 81.5279 85.1629C81.5375 85.1851 81.5424 85.209 81.5424 85.2332C81.5424 85.2574 81.5375 85.2813 81.5279 85.3035C81.5183 85.3257 81.5043 85.3458 81.4867 85.3624C81.47 85.3857 81.4483 85.4051 81.4232 85.419C81.3981 85.433 81.3701 85.4412 81.3414 85.443" fill="#13110C"/>
<path d="M84.6497 95.7236H84.5367C84.5066 95.6842 84.4902 95.636 84.4902 95.5865C84.4902 95.5369 84.5066 95.4887 84.5367 95.4493C85.1341 94.625 85.6172 93.7237 85.9731 92.77C86.242 91.9045 86.3046 90.9881 86.1561 90.0941C86.0075 89.2001 85.652 88.3533 85.1178 87.6212C85.1029 87.6021 85.092 87.5803 85.0855 87.557C85.0791 87.5337 85.0774 87.5094 85.0804 87.4854C85.0834 87.4614 85.0911 87.4383 85.1031 87.4173C85.115 87.3962 85.131 87.3778 85.1501 87.363C85.1691 87.3481 85.1909 87.3372 85.2142 87.3308C85.2375 87.3244 85.2618 87.3226 85.2858 87.3256C85.3098 87.3286 85.333 87.3363 85.354 87.3482C85.375 87.3602 85.3934 87.3762 85.4083 87.3952C85.9783 88.1752 86.3571 89.0782 86.5141 90.0314C86.6711 90.9846 86.6019 91.9614 86.3121 92.8829C85.9528 93.8716 85.4586 94.8058 84.8434 95.6591C84.8296 95.6864 84.8089 95.7096 84.7834 95.7266C84.758 95.7436 84.7286 95.7536 84.6981 95.7559" fill="#13110C"/>
<path d="M31.8223 40.8312C31.2879 40.8236 30.7628 40.6909 30.2889 40.4438C30.0683 40.334 29.8728 40.1798 29.7145 39.991C29.5562 39.8021 29.4386 39.5827 29.369 39.3463C28.8686 37.7323 30.0952 34.9238 31.2089 32.8902C31.2521 32.8145 31.3162 32.7529 31.3935 32.7128C31.4708 32.6728 31.558 32.6559 31.6447 32.6642C31.7374 32.6778 31.8239 32.7189 31.893 32.7822C31.962 32.8456 32.0105 32.9281 32.0321 33.0193C32.2096 33.794 33.0167 35.1982 36.1802 35.747C36.2419 35.756 36.3006 35.7798 36.3512 35.8163C36.4018 35.8528 36.4427 35.901 36.4707 35.9568C36.4989 36.0088 36.5137 36.0671 36.5137 36.1263C36.5137 36.1855 36.4989 36.2437 36.4707 36.2957C36.4707 36.441 35.2279 39.6852 32.9844 40.6052C32.6062 40.7642 32.2003 40.8465 31.79 40.8473M31.5641 33.0354C29.95 35.8761 29.3851 38.0067 29.7402 39.201C29.7948 39.3908 29.8893 39.5666 30.0173 39.7169C30.1453 39.8672 30.304 39.9885 30.4826 40.0726C30.8492 40.2773 31.2574 40.3967 31.6766 40.4218C32.0957 40.447 32.5151 40.3773 32.9036 40.2179C34.4334 39.2792 35.5781 37.8255 36.1317 36.1182C32.9036 35.5533 31.9353 34.1653 31.677 33.1C31.6644 33.0942 31.6506 33.0912 31.6367 33.0912C31.6227 33.0912 31.6089 33.0942 31.5963 33.1" fill="white"/>
<path d="M70.6875 47.19L74.7871 43.9619C74.7871 43.9619 75.6426 43.9619 75.5619 44.7205L71.6237 47.6903L70.6875 47.19Z" fill="#9BCEA4"/>
<path d="M75.5452 41.1705C74.028 42.494 73.3662 44.2694 74.0764 45.141C74.7866 46.0126 76.5943 45.6252 78.1276 44.3017C79.661 42.9782 80.3066 41.2027 79.5965 40.3312C78.8863 39.4596 77.0786 39.847 75.5452 41.1705Z" fill="#9BCEA4"/>
<path d="M78.7897 40.4438C78.7897 40.4438 79.5483 41.9287 77.5307 43.7525C75.5132 45.5764 74.4318 44.495 74.4318 44.495C74.4318 44.495 73.6894 42.9778 75.5455 41.1701C75.9263 40.7075 76.4503 40.3849 77.0349 40.2534C77.6195 40.1218 78.2313 40.1888 78.7736 40.4438" fill="#0095D4"/>
<path d="M76.4817 40.9438C76.4817 41.1374 76.8691 41.202 77.1919 41.089C77.5147 40.976 77.7408 40.7178 77.6762 40.5241C77.6116 40.3304 77.2888 40.2659 76.966 40.3788C76.6432 40.4918 76.4172 40.7501 76.4817 40.9438Z" fill="white"/>
</svg>
