<svg width="112" height="101" viewBox="0 0 112 101" fill="none" xmlns="http://www.w3.org/2000/svg">
<path d="M33.4733 7.97729C29.6924 8.21983 25.6406 9.14721 23.2294 12.0435C20.5899 15.1965 20.6185 19.6907 19.2203 23.4573C17.5653 28.0085 13.9414 31.5183 10.4174 34.8711C6.89336 38.2239 3.28376 41.648 1.42902 46.1422C-0.425724 50.6364 0.301907 56.486 4.28247 59.2681C7.43554 61.4652 11.6158 61.1941 15.468 61.3796C21.325 61.6711 27.0492 63.2288 32.2463 65.9452C37.3254 68.5989 42.0051 72.4225 47.6834 73.2928C55.9299 74.5483 63.6343 69.298 70.3113 64.333C72.6369 62.5923 75.0623 60.7376 76.1752 58.0839C77.1739 55.6727 76.9599 52.9619 77.3879 50.4081C79.0429 40.2783 92.2259 24.299 76.1181 18.2782C70.4112 16.1524 64.4332 14.8113 58.6978 12.5713C50.6653 9.50389 42.1478 7.321 33.4733 7.89169" fill="#142B2A"/>
<path d="M41.749 83.7793C41.749 83.7793 41.1213 93.0816 40.4793 96.5342L38.6103 96.6626C38.6103 96.6626 36.57 88.73 35.8281 84.3215C37.8176 84.5817 39.8399 84.3965 41.749 83.7793Z" fill="#0095D4"/>
<path d="M35.3862 84.1498L34.1022 97.7036L32.119 98.0746C31.0873 93.1199 30.3537 88.1079 29.9219 83.0654L35.3862 84.1498Z" fill="#0095D4"/>
<path d="M39.8941 30.6338C40.4244 31.6239 40.8638 32.6601 41.2067 33.7298C41.5553 34.8074 41.6288 35.9551 41.4207 37.0683C41.3696 37.3886 41.2424 37.692 41.0497 37.9529C40.8375 38.1793 40.5639 38.3389 40.2624 38.4124C39.9609 38.4859 39.6445 38.47 39.3519 38.3666C38.7655 38.1574 38.2442 37.7983 37.8396 37.3251C36.9089 36.369 36.151 35.2587 35.5996 34.0436" fill="#E3E3E3"/>
<path d="M36.4841 35.6132L35.4141 42.8039L37.5256 45.8856L39.9938 45.5146L40.1793 43.1891L39.095 36.726" fill="#E3E3E3"/>
<path d="M36.7537 35.2699C36.8668 35.055 37.011 34.8578 37.1817 34.685C37.9647 33.7684 38.5392 32.6925 38.8652 31.5319L40.5202 31.9028C40.7342 30.5617 40.9625 29.2206 41.1765 27.8652C39.6279 28.3971 38.0163 28.7232 36.3827 28.8354C34.7251 28.963 33.1858 29.7429 32.1026 31.004C31.6862 31.6279 31.4294 32.3444 31.3548 33.0908C31.2801 33.8371 31.3899 34.5903 31.6745 35.2842C31.9637 36.0595 32.4265 36.7583 33.0274 37.327C33.6283 37.8958 34.3515 38.3195 35.1415 38.5657C37.1817 38.9509 36.2829 36.4256 36.7679 35.2985" fill="#0095D4"/>
<path d="M51.3082 34.7002C51.3082 34.7002 51.6221 55.7016 43.7609 62.0077V83.9365C38.2613 85.2637 32.5249 85.2637 27.0254 83.9365C27.0254 83.9365 28.5377 67.2153 28.5805 67.2866C22.8736 49.0388 34.9437 41.6055 34.9437 41.6055C35.7572 42.5515 36.7213 43.3565 37.7972 43.9881C38.539 44.3591 39.9372 44.1451 40.1512 43.2035L45.6156 47.3838L47.7129 36.2981" fill="#CA5098"/>
<path d="M31.2636 74.0209C31.2402 74.0269 31.2156 74.0269 31.1922 74.0209C30.1316 71.8805 29.2349 69.6628 28.51 67.3866C28.5003 67.3563 28.5022 67.3234 28.5154 67.2944C28.5286 67.2654 28.5521 67.2423 28.5814 67.2297C28.5964 67.2254 28.6121 67.2243 28.6275 67.2263C28.643 67.2284 28.6579 67.2336 28.6712 67.2416C28.6846 67.2496 28.6961 67.2603 28.7052 67.273C28.7143 67.2857 28.7207 67.3 28.724 67.3153C29.4425 69.5346 30.3198 71.6993 31.3492 73.7926L34.06 72.1376L33.6177 58.5266C33.6265 58.5015 33.6429 58.4796 33.6646 58.4642C33.6863 58.4488 33.7123 58.4404 33.739 58.4404C33.7656 58.4404 33.7916 58.4488 33.8134 58.4642C33.8351 58.4796 33.8514 58.5015 33.8602 58.5266L34.2883 72.2232C34.297 72.2384 34.3016 72.2556 34.3016 72.2732C34.3016 72.2907 34.297 72.3079 34.2883 72.3231L31.4348 74.0779" fill="white"/>
<path d="M51.3101 34.7002L47.7433 36.2838L45.646 47.3695L40.1816 43.1892C42.4313 49.2182 43.6328 55.5877 43.7342 62.022C51.5954 55.7159 51.2816 34.7144 51.2816 34.7144" fill="#9BCEA4"/>
<path d="M58.043 26.2538L45.5306 31.6896C45.5306 31.6896 43.9897 33.3303 44.7459 34.8569C45.068 35.3474 45.4875 35.7665 45.9784 36.088C46.4693 36.4095 47.021 36.6267 47.5994 36.7259L60.6825 31.8323L58.043 26.2538Z" fill="#CA5098"/>
<path d="M79.0599 15.4678L58.8575 24.6273C58.325 25.3274 57.9713 26.1468 57.8271 27.0145C57.6829 27.8822 57.7525 28.772 58.03 29.6066C58.6384 31.0591 59.7904 32.2162 61.2401 32.831L82.3985 24.9127L79.0599 15.4678Z" fill="#0095D4"/>
<path d="M80.0997 13.0278C80.0997 13.0278 74.9492 21.2886 83.3383 25.8684L108.72 19.762L102.271 1.64258L80.0997 13.0278Z" fill="#CA5098"/>
<path d="M98.4319 9.21861C98.703 14.2835 101.899 19.2913 106.621 20.8464C107.183 21.0678 107.793 21.1368 108.39 21.0462C109.646 20.7608 110.331 19.3912 110.659 18.1927C111.857 13.7271 110.659 8.93328 108.89 4.71017C108.399 3.37923 107.602 2.18202 106.564 1.21468C101.243 -3.0655 98.2037 5.00977 98.4319 9.28995" fill="#CA5098"/>
<path d="M54.7163 66.3017C54.6874 66.2919 54.6629 66.2722 54.6472 66.2461C54.6315 66.2199 54.6256 66.1891 54.6306 66.159L62.5633 29.1782C62.5569 29.161 62.5547 29.1424 62.557 29.1242C62.5594 29.1059 62.566 29.0885 62.5766 29.0734C62.5871 29.0582 62.6011 29.0459 62.6174 29.0374C62.6337 29.0289 62.6518 29.0244 62.6702 29.0244C62.6887 29.0244 62.7068 29.0289 62.7231 29.0374C62.7394 29.0459 62.7534 29.0582 62.7639 29.0734C62.7745 29.0885 62.7812 29.1059 62.7835 29.1242C62.7858 29.1424 62.7837 29.161 62.7773 29.1782L54.8589 66.159C54.8554 66.1867 54.8419 66.2122 54.8209 66.2306C54.7998 66.249 54.7728 66.2591 54.7448 66.2589" fill="white"/>
<path d="M70.8827 57.9125C70.8568 57.9133 70.8313 57.9052 70.8106 57.8897C70.7898 57.8741 70.775 57.852 70.7686 57.8269L64.1913 29.1639C64.1843 29.1491 64.181 29.1327 64.1818 29.1162C64.1825 29.0998 64.1874 29.0838 64.1959 29.0696C64.2043 29.0555 64.2162 29.0437 64.2303 29.0353C64.2445 29.0268 64.2605 29.022 64.2769 29.0213C64.2919 29.0193 64.3072 29.0203 64.3218 29.0242C64.3364 29.0282 64.3501 29.035 64.3621 29.0443C64.374 29.0536 64.384 29.0652 64.3914 29.0784C64.3988 29.0916 64.4036 29.1061 64.4053 29.1211L70.9968 57.7698C71.0011 57.7848 71.0022 57.8005 71.0002 57.8159C70.9981 57.8314 70.9929 57.8463 70.9849 57.8596C70.9769 57.873 70.9662 57.8846 70.9535 57.8937C70.9409 57.9028 70.9264 57.9092 70.9112 57.9125" fill="white"/>
<path d="M63.8648 57.9126C63.8475 57.9227 63.8278 57.9279 63.8078 57.9279C63.7878 57.9279 63.7681 57.9227 63.7507 57.9126L63.337 29.7633C63.3349 29.7491 63.336 29.7346 63.3401 29.7207C63.3441 29.7069 63.3512 29.6941 63.3606 29.6833C63.3701 29.6725 63.3818 29.6638 63.395 29.6579C63.4081 29.652 63.4224 29.6491 63.4368 29.6492C63.453 29.6472 63.4694 29.6486 63.4849 29.6534C63.5004 29.6583 63.5148 29.6664 63.5269 29.6772C63.5391 29.688 63.5488 29.7012 63.5554 29.7161C63.562 29.731 63.5654 29.7471 63.5652 29.7633L63.979 57.9126C63.979 57.9126 63.979 58.0268 63.8648 58.0268V57.9126Z" fill="white"/>
<path d="M101.957 9.1327C102.385 12.6995 104.454 16.3519 107.222 17.6931C107.526 17.8758 107.881 17.9559 108.235 17.9213C108.934 17.7929 109.248 16.8798 109.376 16.0238C109.639 12.7555 109.044 9.47505 107.65 6.50753C107.339 5.57421 106.855 4.70781 106.223 3.95368C102.97 0.643674 101.672 6.13658 102.028 9.11844" fill="#0095D4"/>
<path d="M40.4379 35.8559C40.4221 35.8626 40.4051 35.866 40.388 35.866C40.3708 35.866 40.3538 35.8626 40.338 35.8559C40.3195 35.8312 40.3095 35.8012 40.3095 35.7703C40.3095 35.7394 40.3195 35.7094 40.338 35.6847L40.4522 35.599C40.4522 35.599 40.4522 35.599 40.5235 35.599L40.8231 35.385C40.6308 34.7274 40.2834 34.1256 39.8101 33.6302C39.798 33.6195 39.7883 33.6063 39.7816 33.5915C39.775 33.5768 39.7715 33.5608 39.7715 33.5446C39.7715 33.5284 39.775 33.5124 39.7816 33.4976C39.7883 33.4829 39.798 33.4697 39.8101 33.459C39.8313 33.4389 39.8594 33.4277 39.8886 33.4277C39.9178 33.4277 39.9459 33.4389 39.9671 33.459C40.5004 34.0013 40.8797 34.676 41.0657 35.4136C41.0786 35.4325 41.0854 35.4549 41.0854 35.4778C41.0854 35.5007 41.0786 35.5231 41.0657 35.542L40.5235 35.9129" fill="#13110C"/>
<path d="M40.8226 36.9539L40.0236 36.7827C39.9297 36.7672 39.8384 36.7384 39.7526 36.6971C39.7252 36.6823 39.7034 36.6589 39.6905 36.6306C39.6776 36.6023 39.6744 36.5705 39.6812 36.5401C39.7024 36.5201 39.7305 36.5089 39.7597 36.5089C39.7889 36.5089 39.817 36.5201 39.8382 36.5401H40.0807L40.8797 36.7114C40.8949 36.7147 40.9093 36.7211 40.922 36.7301C40.9346 36.7392 40.9453 36.7508 40.9534 36.7642C40.9614 36.7776 40.9666 36.7924 40.9686 36.8079C40.9707 36.8233 40.9695 36.839 40.9653 36.854C40.9618 36.8817 40.9482 36.9073 40.9272 36.9257C40.9061 36.9441 40.8791 36.9541 40.8512 36.9539" fill="#13110C"/>
<path d="M33.5605 72.5371C34.1341 73.1304 34.5722 73.8411 34.8446 74.6201L31.9911 74.7771L31.5488 73.65L33.5605 72.5371Z" fill="white"/>
<path d="M30.379 79.3134C36.0146 78.6571 35.9147 74.4482 35.9147 74.4482H29.9082" fill="#9BCEA4"/>
<path d="M34.2735 98.4315H32.1619C32.1619 98.4315 32.062 98.6598 31.9622 98.9736C31.7429 99.6278 31.7182 100.332 31.8909 101H32.7469L33.1321 100.215C34.3634 100.619 35.6365 100.883 36.9272 101C37.6406 100.871 34.2735 98.3887 34.2735 98.3887" fill="#142B2A"/>
<path d="M40.6637 97.1191H38.5664C38.5664 97.1191 38.4665 97.3473 38.3666 97.6612C38.1482 98.3151 38.1186 99.0172 38.281 99.6872H39.1514L39.5366 98.9025C40.7653 99.2981 42.0327 99.5611 43.3174 99.6872C44.045 99.5588 40.6637 97.0763 40.6637 97.0763" fill="#142B2A"/>
<path d="M39.2084 35.556C39.081 35.5601 38.9543 35.5358 38.8375 35.4846C38.619 35.3962 38.4202 35.2653 38.2526 35.0994C38.0644 34.9522 37.9415 34.737 37.9102 34.5002C37.9163 34.3877 37.9403 34.2769 37.9815 34.172C38.1241 33.8724 38.5664 33.3018 38.9944 33.3018C39.4225 33.3018 39.9789 34.0294 40.036 34.4859C40.0666 34.6768 40.0395 34.8726 39.9582 35.048C39.8769 35.2234 39.7449 35.3704 39.5794 35.4704C39.4641 35.5273 39.3371 35.5566 39.2084 35.556ZM38.224 34.2862C38.2133 34.3524 38.2133 34.4198 38.224 34.4859C38.224 34.6429 38.3667 34.7855 38.4808 34.8997C38.6223 35.0431 38.7925 35.1549 38.9802 35.2278C39.0636 35.2636 39.1534 35.282 39.2441 35.282C39.3349 35.282 39.4247 35.2636 39.5081 35.2278C39.6215 35.154 39.7105 35.0481 39.7638 34.9237C39.8172 34.7993 39.8324 34.6618 39.8077 34.5287C39.8077 34.1578 39.3939 33.5871 39.0372 33.5871C38.7662 33.5871 38.3952 34.0009 38.2668 34.2862" fill="#CA5098"/>
<path d="M34.5291 35.2417L34.3008 35.0991L34.7716 34.3571C34.8058 34.2928 34.8613 34.2424 34.9285 34.2145C34.9485 34.2045 34.9705 34.1992 34.9928 34.1992C35.0151 34.1992 35.0371 34.2045 35.057 34.2145C36.0665 34.2588 37.072 34.3684 38.0674 34.5426V34.8137C37.0815 34.6402 36.0855 34.5306 35.0855 34.4855L34.5291 35.2417Z" fill="#CA5098"/>
<path d="M39.8927 34.3291L39.75 34.1008L40.6488 33.4873L40.7915 33.7156L39.8927 34.3291Z" fill="#CA5098"/>
<path d="M15.8986 45.8C15.8922 45.8652 15.9004 45.9311 15.9227 45.9928C15.9449 46.0545 15.9805 46.1104 16.027 46.1566C16.054 46.1881 16.0883 46.2126 16.1269 46.228C16.1719 46.2557 16.2238 46.2705 16.2767 46.2705C16.3296 46.2705 16.3814 46.2557 16.4265 46.228C16.5016 46.1408 16.5422 46.0291 16.5406 45.9141C16.5487 45.8765 16.5487 45.8376 16.5406 45.8C16.5201 45.7327 16.4785 45.6738 16.422 45.6319C16.3655 45.5901 16.2971 45.5675 16.2267 45.5675C16.1564 45.5675 16.088 45.5901 16.0315 45.6319C15.9749 45.6738 15.9334 45.7327 15.9129 45.8" fill="white"/>
<path d="M22.6011 43.0886C22.5959 43.1517 22.6046 43.215 22.6268 43.2743C22.649 43.3335 22.6841 43.387 22.7295 43.4311H22.8151C22.8601 43.4589 22.912 43.4736 22.9649 43.4736C23.0178 43.4736 23.0696 43.4589 23.1147 43.4311C23.157 43.3908 23.1904 43.342 23.2125 43.2879C23.2346 43.2338 23.2451 43.1756 23.2431 43.1172C23.2512 43.0796 23.2512 43.0407 23.2431 43.003C23.2161 42.9368 23.1682 42.8812 23.1066 42.8447C23.0451 42.8082 22.9733 42.7928 22.9022 42.8009C22.8311 42.809 22.7646 42.8401 22.7128 42.8894C22.661 42.9388 22.6268 43.0038 22.6154 43.0744" fill="white"/>
<path d="M22.2749 54.8161C22.2697 54.8792 22.2785 54.9426 22.3007 55.0018C22.3229 55.061 22.3579 55.1145 22.4033 55.1586C22.4303 55.1901 22.4646 55.2146 22.5032 55.2299C22.5459 55.2635 22.5987 55.2817 22.653 55.2817C22.7073 55.2817 22.7601 55.2635 22.8028 55.2299C22.8779 55.1427 22.9185 55.0311 22.9169 54.916C22.9239 54.8783 22.9239 54.8396 22.9169 54.8019C22.8899 54.7357 22.842 54.68 22.7804 54.6436C22.7189 54.6071 22.6471 54.5917 22.576 54.5998C22.5049 54.6078 22.4384 54.6389 22.3867 54.6883C22.3349 54.7377 22.3006 54.8026 22.2892 54.8732" fill="white"/>
<path d="M17.1804 38.837C17.1768 38.902 17.1863 38.9671 17.2084 39.0284C17.2305 39.0896 17.2646 39.1458 17.3089 39.1936L17.3945 39.265C17.4395 39.2927 17.4914 39.3074 17.5443 39.3074C17.5972 39.3074 17.6491 39.2927 17.6941 39.265C17.7362 39.2215 17.7692 39.1701 17.7912 39.1138C17.8133 39.0574 17.8239 38.9973 17.8225 38.9368C17.8294 38.9039 17.8294 38.8699 17.8225 38.837C17.802 38.7697 17.7604 38.7108 17.7039 38.6689C17.6474 38.6271 17.5789 38.6045 17.5086 38.6045C17.4383 38.6045 17.3698 38.6271 17.3133 38.6689C17.2568 38.7108 17.2152 38.7697 17.1947 38.837" fill="white"/>
<path d="M26.3823 34.3435C26.3771 34.4066 26.3859 34.4699 26.4081 34.5291C26.4303 34.5884 26.4654 34.6419 26.5107 34.6859L26.5963 34.7715C26.6414 34.7993 26.6932 34.814 26.7461 34.814C26.7991 34.814 26.8509 34.7993 26.896 34.7715C26.9796 34.6829 27.0257 34.5653 27.0244 34.4434C27.0313 34.4056 27.0313 34.367 27.0244 34.3293C26.9973 34.263 26.9494 34.2074 26.8879 34.1709C26.8263 34.1344 26.7545 34.119 26.6834 34.1271C26.6124 34.1352 26.5459 34.1663 26.4941 34.2157C26.4423 34.265 26.4081 34.33 26.3966 34.4006" fill="white"/>
<path d="M9.9624 53.4755C9.95718 53.5385 9.96601 53.6019 9.98821 53.6611C10.0104 53.7203 10.0455 53.7738 10.0908 53.8179C10.1179 53.8494 10.1521 53.8739 10.1907 53.8892C10.2321 53.9194 10.2821 53.9356 10.3334 53.9356C10.3846 53.9356 10.4346 53.9194 10.476 53.8892C10.5184 53.8489 10.5517 53.8002 10.5739 53.7461C10.596 53.692 10.6064 53.6338 10.6044 53.5753C10.6114 53.5376 10.6114 53.4989 10.6044 53.4612C10.5774 53.395 10.5295 53.3393 10.4679 53.3029C10.4064 53.2664 10.3346 53.251 10.2635 53.2591C10.1924 53.2671 10.1259 53.2982 10.0742 53.3476C10.0224 53.397 9.98814 53.4619 9.97668 53.5325" fill="white"/>
<path d="M22.9311 25.7112C22.9207 25.7755 22.9256 25.8413 22.9454 25.9033C22.9653 25.9652 22.9995 26.0216 23.0452 26.0679H23.1451C23.1901 26.0957 23.2419 26.1104 23.2948 26.1104C23.3478 26.1104 23.3996 26.0957 23.4447 26.0679C23.5248 25.9771 23.5703 25.8609 23.5731 25.7398C23.5793 25.7068 23.5793 25.6729 23.5731 25.6399C23.5579 25.5699 23.5192 25.5071 23.4634 25.4621C23.4075 25.4171 23.338 25.3926 23.2663 25.3926C23.1946 25.3926 23.1251 25.4171 23.0693 25.4621C23.0135 25.5071 22.9748 25.5699 22.9596 25.6399" fill="white"/>
<path d="M36.2555 18.6202C36.2501 18.6854 36.2587 18.7509 36.2809 18.8125C36.303 18.874 36.3382 18.9301 36.3839 18.9769C36.4168 18.9834 36.4508 18.9834 36.4837 18.9769C36.5288 19.0046 36.5806 19.0193 36.6335 19.0193C36.6864 19.0193 36.7383 19.0046 36.7833 18.9769C36.8584 18.8841 36.8987 18.768 36.8975 18.6487C36.9044 18.6158 36.9044 18.5818 36.8975 18.5488C36.877 18.4816 36.8354 18.4227 36.7789 18.3808C36.7223 18.339 36.6539 18.3164 36.5836 18.3164C36.5133 18.3164 36.4448 18.339 36.3883 18.3808C36.3318 18.4227 36.2902 18.4816 36.2697 18.5488" fill="white"/>
<path d="M29.5951 15.0247C29.5848 15.0889 29.5897 15.1547 29.6095 15.2167C29.6294 15.2787 29.6636 15.3351 29.7093 15.3814L29.8091 15.4527C29.8542 15.4805 29.906 15.4952 29.9589 15.4952C30.0119 15.4952 30.0637 15.4805 30.1088 15.4527C30.1889 15.3619 30.2344 15.2457 30.2372 15.1246C30.2434 15.0916 30.2434 15.0577 30.2372 15.0247C30.222 14.9546 30.1833 14.8919 30.1274 14.8469C30.0716 14.8019 30.0021 14.7773 29.9304 14.7773C29.8587 14.7773 29.7892 14.8019 29.7334 14.8469C29.6776 14.8919 29.6388 14.9546 29.6236 15.0247" fill="white"/>
<path d="M47.6711 13.285C47.6667 13.3467 47.6745 13.4088 47.6941 13.4675C47.7137 13.5263 47.7446 13.5806 47.7852 13.6274H47.8851C47.9295 13.6568 47.9816 13.6725 48.0349 13.6725C48.0882 13.6725 48.1403 13.6568 48.1847 13.6274C48.2271 13.5871 48.2604 13.5383 48.2826 13.4842C48.3047 13.4301 48.3151 13.3719 48.3131 13.3135C48.3201 13.2758 48.3201 13.2371 48.3131 13.1994C48.2861 13.1331 48.2382 13.0775 48.1766 13.041C48.1151 13.0045 48.0433 12.9891 47.9723 12.9972C47.9012 13.0053 47.8346 13.0364 47.7829 13.0858C47.7311 13.1351 47.6968 13.2001 47.6854 13.2707" fill="white"/>
<path d="M57.4 18.2637C57.3946 18.3289 57.4033 18.3945 57.4255 18.456C57.4476 18.5176 57.4827 18.5736 57.5284 18.6204C57.5614 18.627 57.5953 18.627 57.6283 18.6204C57.6711 18.647 57.7205 18.661 57.771 18.661C57.8214 18.661 57.8708 18.647 57.9136 18.6204C57.9557 18.577 57.9887 18.5256 58.0108 18.4692C58.0328 18.4129 58.0434 18.3527 58.042 18.2923C58.049 18.2593 58.049 18.2253 58.042 18.1924C58.0215 18.1251 57.9799 18.0662 57.9234 18.0244C57.8669 17.9826 57.7985 17.96 57.7282 17.96C57.6578 17.96 57.5894 17.9826 57.5329 18.0244C57.4764 18.0662 57.4348 18.1251 57.4143 18.1924" fill="white"/>
<path d="M73.4508 32.2314C73.4454 32.2966 73.4541 32.3622 73.4762 32.4238C73.4984 32.4853 73.5335 32.5413 73.5792 32.5881C73.6062 32.6196 73.6405 32.6441 73.6791 32.6594C73.7241 32.6872 73.776 32.7019 73.8289 32.7019C73.8818 32.7019 73.9337 32.6872 73.9787 32.6594C74.0537 32.5666 74.094 32.4506 74.0928 32.3313C74.0997 32.2984 74.0997 32.2644 74.0928 32.2314C74.0723 32.1642 74.0307 32.1053 73.9742 32.0634C73.9177 32.0216 73.8493 31.999 73.7789 31.999C73.7086 31.999 73.6402 32.0216 73.5837 32.0634C73.5271 32.1053 73.4856 32.1642 73.4651 32.2314" fill="white"/>
<path d="M76.0326 39.1935C76.0222 39.2556 76.0272 39.3192 76.0471 39.3789C76.067 39.4386 76.1012 39.4925 76.1468 39.5359C76.1468 39.5359 76.2181 39.5359 76.2467 39.6215C76.2979 39.6415 76.3541 39.6453 76.4076 39.6326C76.4611 39.6198 76.5095 39.5911 76.5463 39.5502C76.5886 39.5099 76.622 39.4611 76.6441 39.407C76.6662 39.3529 76.6767 39.2948 76.6747 39.2363C76.6747 39.2363 76.6747 39.165 76.6747 39.1222C76.6477 39.0559 76.5997 39.0004 76.5382 38.9639C76.4766 38.9274 76.4048 38.912 76.3337 38.9201C76.2627 38.9281 76.1962 38.9592 76.1444 39.0086C76.0926 39.058 76.0584 39.1229 76.0469 39.1935" fill="white"/>
<path d="M69.7417 36.74C69.7365 36.803 69.7453 36.8664 69.7675 36.9256C69.7897 36.9848 69.8247 37.0383 69.8701 37.0824L69.9557 37.1537C69.9984 37.1873 70.0511 37.2055 70.1055 37.2055C70.1598 37.2055 70.2126 37.1873 70.2553 37.1537C70.2977 37.1135 70.331 37.0646 70.3531 37.0105C70.3753 36.9564 70.3857 36.8983 70.3837 36.8399C70.3907 36.8021 70.3907 36.7634 70.3837 36.7257C70.3567 36.6594 70.3087 36.6038 70.2472 36.5673C70.1857 36.5309 70.1139 36.5155 70.0428 36.5236C69.9717 36.5317 69.9052 36.5627 69.8534 36.6121C69.8016 36.6615 69.7674 36.7264 69.7559 36.7971" fill="white"/>
<path d="M44.1891 26.1543C44.1837 26.2195 44.1923 26.2851 44.2145 26.3466C44.2366 26.4081 44.2718 26.4642 44.3175 26.511L44.4031 26.5823C44.4481 26.6101 44.5 26.6248 44.5529 26.6248C44.6058 26.6248 44.6576 26.6101 44.7027 26.5823C44.7437 26.541 44.7761 26.492 44.7981 26.4382C44.8202 26.3843 44.8314 26.3266 44.8311 26.2685C44.8392 26.2308 44.8392 26.1919 44.8311 26.1543C44.8105 26.0871 44.769 26.0282 44.7125 25.9863C44.656 25.9445 44.5875 25.9219 44.5172 25.9219C44.4469 25.9219 44.3784 25.9445 44.3219 25.9863C44.2654 26.0282 44.2238 26.0871 44.2033 26.1543" fill="white"/>
<path d="M52.3354 25.711C52.325 25.7752 52.3299 25.841 52.3498 25.903C52.3696 25.965 52.4037 26.0214 52.4495 26.0677H52.5494C52.5944 26.0954 52.6463 26.1102 52.6992 26.1102C52.7521 26.1102 52.8039 26.0954 52.849 26.0677C52.891 26.0242 52.9241 25.9728 52.9461 25.9165C52.9681 25.8602 52.9788 25.8 52.9774 25.7395C52.9774 25.7395 52.9774 25.6682 52.9774 25.6397C52.9569 25.5724 52.9153 25.5135 52.8588 25.4717C52.8023 25.4298 52.7338 25.4072 52.6635 25.4072C52.5932 25.4072 52.5247 25.4298 52.4682 25.4717C52.4117 25.5135 52.3701 25.5724 52.3496 25.6397" fill="white"/>
<path d="M43.8608 39.5505C43.8556 39.6135 43.8644 39.6769 43.8866 39.7361C43.9088 39.7953 43.9439 39.8489 43.9892 39.8929C44.0163 39.9244 44.0506 39.9489 44.0891 39.9643C44.1296 39.9967 44.1799 40.0144 44.2318 40.0144C44.2837 40.0144 44.334 39.9967 44.3745 39.9643C44.4168 39.924 44.4502 39.8752 44.4723 39.8211C44.4944 39.767 44.5049 39.7088 44.5029 39.6504C44.5099 39.6127 44.5099 39.574 44.5029 39.5362C44.4759 39.47 44.4279 39.4144 44.3664 39.3779C44.3048 39.3414 44.2331 39.3261 44.162 39.3341C44.0909 39.3422 44.0244 39.3733 43.9726 39.4226C43.9208 39.472 43.8866 39.537 43.8751 39.6076" fill="white"/>
<path d="M33.1891 25.3547C33.1837 25.4198 33.1924 25.4854 33.2145 25.547C33.2367 25.6085 33.2718 25.6646 33.3175 25.7113C33.3505 25.7179 33.3844 25.7179 33.4173 25.7113C33.4624 25.7391 33.5142 25.7538 33.5672 25.7538C33.6201 25.7538 33.6719 25.7391 33.717 25.7113C33.7921 25.6242 33.8327 25.5125 33.8311 25.3975C33.8392 25.3599 33.8392 25.321 33.8311 25.2833C33.8106 25.2161 33.769 25.1572 33.7125 25.1153C33.656 25.0735 33.5875 25.0509 33.5172 25.0509C33.4469 25.0509 33.3784 25.0735 33.3219 25.1153C33.2654 25.1572 33.2238 25.2161 33.2033 25.2833" fill="white"/>
<path d="M54.0757 39.1935C54.0705 39.2566 54.0793 39.3199 54.1015 39.3792C54.1237 39.4384 54.1587 39.4919 54.2041 39.5359L54.2897 39.6215C54.341 39.6415 54.3971 39.6453 54.4506 39.6326C54.5041 39.6198 54.5525 39.5911 54.5893 39.5502C54.6316 39.5099 54.665 39.4611 54.6872 39.407C54.7093 39.3529 54.7197 39.2948 54.7177 39.2363C54.7247 39.1986 54.7247 39.1599 54.7177 39.1222C54.6907 39.0559 54.6428 39.0004 54.5812 38.9639C54.5197 38.9274 54.4479 38.912 54.3768 38.9201C54.3057 38.9281 54.2392 38.9592 54.1874 39.0086C54.1356 39.058 54.1014 39.1229 54.09 39.1935" fill="white"/>
<path d="M50.0509 57.7558C50.0445 57.821 50.0528 57.8869 50.075 57.9486C50.0972 58.0103 50.1328 58.0662 50.1793 58.1125L50.2649 58.1838C50.3099 58.2116 50.3618 58.2263 50.4147 58.2263C50.4676 58.2263 50.5195 58.2116 50.5646 58.1838C50.6069 58.1435 50.6403 58.0947 50.6624 58.0406C50.6845 57.9865 50.6949 57.9283 50.693 57.8699C50.6999 57.8322 50.6999 57.7935 50.693 57.7558C50.6725 57.6885 50.6309 57.6296 50.5744 57.5878C50.5178 57.5459 50.4494 57.5233 50.3791 57.5233C50.3088 57.5233 50.2403 57.5459 50.1838 57.5878C50.1273 57.6296 50.0857 57.6885 50.0652 57.7558" fill="white"/>
<path d="M55.8726 48.311C55.8673 48.374 55.8761 48.4374 55.8983 48.4966C55.9205 48.5558 55.9556 48.6094 56.001 48.6535C56.0258 48.6855 56.0546 48.7142 56.0866 48.7391C56.1316 48.7669 56.1834 48.7816 56.2363 48.7816C56.2892 48.7816 56.3411 48.7669 56.3862 48.7391C56.4698 48.6504 56.5158 48.5328 56.5146 48.4109C56.5215 48.3732 56.5215 48.3345 56.5146 48.2968C56.494 48.2295 56.4525 48.1706 56.396 48.1288C56.3394 48.0869 56.271 48.0643 56.2007 48.0643C56.1304 48.0643 56.0619 48.0869 56.0054 48.1288C55.9489 48.1706 55.9073 48.2295 55.8868 48.2968" fill="white"/>
<path d="M39.3972 34.2715H39.3114H39.2114C39.2114 34.2715 39.1399 34.2715 39.1256 34.2715C39.101 34.3072 39.0879 34.3496 39.0879 34.393C39.0879 34.4364 39.101 34.4787 39.1256 34.5145C39.1191 34.5475 39.1191 34.5815 39.1256 34.6145C39.1676 34.6355 39.2161 34.6399 39.2612 34.6266C39.3063 34.6133 39.3446 34.5835 39.3686 34.543C39.3964 34.5059 39.4115 34.4608 39.4115 34.4144C39.4115 34.368 39.3964 34.3229 39.3686 34.2858" fill="#13110C"/>
<path d="M40.9934 33.2876C40.9699 33.2816 40.9454 33.2816 40.9219 33.2876H40.8076C40.7799 33.2778 40.7496 33.2778 40.7218 33.2876C40.7005 33.3272 40.6895 33.3714 40.6895 33.4163C40.6895 33.4611 40.7005 33.5054 40.7218 33.5449C40.7352 33.5755 40.7572 33.6016 40.7851 33.6198C40.813 33.6381 40.8457 33.6478 40.879 33.6478C40.9124 33.6478 40.9451 33.6381 40.973 33.6198C41.0009 33.6016 41.0229 33.5755 41.0362 33.5449C41.0603 33.5063 41.0731 33.4617 41.0731 33.4163C41.0731 33.3708 41.0603 33.3262 41.0362 33.2876" fill="#13110C"/>
<path d="M38.5387 34.728C38.523 34.7233 38.5086 34.7154 38.4963 34.7046C38.4839 34.6939 38.474 34.6806 38.4673 34.6657C38.4605 34.6509 38.457 34.6347 38.457 34.6184C38.4571 34.602 38.4606 34.5859 38.4674 34.571C38.5087 34.4119 38.5836 34.2633 38.6869 34.1354C38.7903 34.0074 38.9197 33.903 39.0666 33.8291C39.076 33.8172 39.0879 33.8077 39.1015 33.8011C39.1151 33.7945 39.13 33.791 39.1451 33.791C39.1602 33.791 39.1751 33.7945 39.1887 33.8011C39.2023 33.8077 39.2142 33.8172 39.2236 33.8291C39.2421 33.8538 39.2521 33.8838 39.2521 33.9147C39.2521 33.9456 39.2421 33.9756 39.2236 34.0003C39.1066 34.0604 39.0039 34.1451 38.9227 34.2485C38.8414 34.3519 38.7834 34.4717 38.7528 34.5996C38.7463 34.6247 38.7314 34.6468 38.7107 34.6624C38.69 34.6779 38.6645 34.686 38.6386 34.6852" fill="#13110C"/>
<path d="M40.9212 32.8165C40.709 32.8159 40.4977 32.8447 40.2934 32.9021C40.2615 32.912 40.2348 32.934 40.2188 32.9633C40.2028 32.9926 40.1989 33.0269 40.2078 33.0591C40.2143 33.0842 40.2291 33.1064 40.2499 33.1219C40.2706 33.1375 40.296 33.1455 40.3219 33.1447C40.5347 33.0814 40.7563 33.0524 40.9782 33.0591C40.9542 32.9767 40.9257 32.8957 40.8926 32.8165" fill="#13110C"/>
<path d="M41.6066 34.4C41.3381 34.3805 41.0875 34.2578 40.9075 34.0576C40.7431 33.9061 40.6143 33.7201 40.5304 33.5129C40.4465 33.3056 40.4096 33.0824 40.4224 32.8592C40.448 32.7217 40.5069 32.5926 40.594 32.4832C40.681 32.3737 40.7936 32.2873 40.9217 32.2314C41.0181 32.179 41.126 32.1515 41.2356 32.1515C41.3453 32.1515 41.4532 32.179 41.5495 32.2314C41.7404 32.3421 41.907 32.4901 42.0394 32.6666C42.1718 32.8431 42.2672 33.0444 42.32 33.2587C42.3857 33.4822 42.3857 33.72 42.32 33.9435C42.2813 34.0631 42.2124 34.1706 42.1199 34.2556C42.0274 34.3406 41.9144 34.4002 41.792 34.4286H41.6779M41.1643 33.8864C41.2337 33.9744 41.3228 34.0447 41.4244 34.0918C41.526 34.1389 41.6373 34.1614 41.7492 34.1575C41.8234 34.132 41.8911 34.0908 41.9478 34.0366C42.0044 33.9824 42.0486 33.9166 42.0774 33.8436C42.1273 33.6761 42.1273 33.4976 42.0774 33.33C41.9895 32.9768 41.7701 32.6707 41.4639 32.474C41.4045 32.4428 41.3384 32.4264 41.2713 32.4264C41.2042 32.4264 41.1381 32.4428 41.0787 32.474C40.9919 32.5151 40.9165 32.5769 40.8593 32.6541C40.8021 32.7312 40.7647 32.8213 40.7505 32.9163C40.7471 33.0959 40.7822 33.2742 40.8536 33.4391C40.925 33.6041 41.031 33.7517 41.1643 33.8722" fill="#CA5098"/>
</svg>
