<svg width="124" height="67" viewBox="0 0 124 67" fill="none" xmlns="http://www.w3.org/2000/svg">
<path d="M38.584 10.1761L38.8355 8.29867L34.0581 7.5946L33.8066 9.4721L34.7789 9.60618L38.584 10.1761Z" fill="#0095D4"/>
<path d="M32.7832 13.562L32.9676 12.2209C32.9842 12.1202 33.0384 12.0295 33.1193 11.9672C33.2003 11.905 33.3018 11.8758 33.4035 11.8857C33.5044 11.9061 33.5937 11.9643 33.6529 12.0485C33.7122 12.1327 33.7369 12.2364 33.722 12.3383L33.5376 13.6626L35.0462 13.8804L35.2306 12.5562C35.2368 12.5054 35.253 12.4563 35.2784 12.4118C35.3037 12.3674 35.3376 12.3284 35.3782 12.2972C35.4188 12.266 35.4652 12.2432 35.5147 12.2301C35.5642 12.217 35.6157 12.2139 35.6664 12.2209C35.7704 12.2375 35.8638 12.2942 35.9265 12.3788C35.9892 12.4634 36.0162 12.5692 36.0017 12.6735L35.8173 13.9978L37.3427 14.2157L37.5271 12.925C37.5333 12.8742 37.5495 12.8251 37.5749 12.7806C37.6002 12.7362 37.6343 12.6972 37.6748 12.666C37.7154 12.6348 37.7617 12.612 37.8112 12.5989C37.8607 12.5858 37.9122 12.5827 37.9629 12.5897C38.0669 12.6063 38.1603 12.663 38.223 12.7476C38.2857 12.8322 38.3127 12.938 38.2982 13.0423L38.1138 14.3331L40.0248 14.6013L40.5277 11.0475L39.0022 10.8296L35.7502 10.3267L31.3583 9.67297L30.8555 13.277L32.7832 13.562Z" fill="#0095D4"/>
<path d="M32.1788 17.9037L32.3633 16.5291C32.3798 16.4296 32.4347 16.3404 32.5162 16.2809C32.5976 16.2213 32.6993 16.1961 32.7992 16.2106C32.85 16.2168 32.8989 16.2331 32.9434 16.2584C32.9879 16.2838 33.0269 16.3177 33.0581 16.3583C33.0893 16.3988 33.1121 16.4452 33.1252 16.4947C33.1383 16.5442 33.1414 16.5958 33.1343 16.6465L32.95 18.0043L34.4419 18.2222L34.643 16.8644C34.6492 16.8136 34.6655 16.7645 34.6908 16.72C34.7162 16.6756 34.7501 16.6366 34.7907 16.6054C34.8312 16.5742 34.8776 16.5514 34.9271 16.5383C34.9765 16.5252 35.0282 16.5221 35.0789 16.5291C35.1798 16.5495 35.2691 16.6078 35.3283 16.692C35.3876 16.7762 35.4123 16.8798 35.3974 16.9817L35.213 18.3395L36.7552 18.5574L36.9395 17.2331C36.9457 17.1823 36.962 17.1333 36.9873 17.0888C37.0127 17.0444 37.0466 17.0054 37.0872 16.9742C37.1278 16.943 37.1742 16.9202 37.2237 16.9071C37.2732 16.894 37.3247 16.8909 37.3754 16.8979C37.4763 16.9183 37.5656 16.9766 37.6248 17.0607C37.6841 17.1449 37.7088 17.2486 37.6939 17.3505L37.5095 18.658L39.4038 18.943L39.9234 15.2719L30.7708 13.8973L30.2344 17.6187L32.1788 17.9037Z" fill="#0095D4"/>
<path d="M31.5585 22.1283L31.743 20.7537C31.7492 20.7029 31.7654 20.6538 31.7908 20.6094C31.8161 20.5649 31.8501 20.5259 31.8906 20.4947C31.9312 20.4635 31.9775 20.4407 32.027 20.4276C32.0765 20.4145 32.1281 20.4114 32.1788 20.4185C32.2795 20.435 32.3702 20.4892 32.4325 20.5701C32.4947 20.6511 32.5239 20.7526 32.514 20.8543L32.3129 22.2288L33.8216 22.4468L34.0227 21.089C34.0266 21.0372 34.0413 20.9868 34.0659 20.9411C34.0905 20.8954 34.1245 20.8555 34.1657 20.8238C34.2068 20.7922 34.2541 20.7696 34.3046 20.7575C34.3551 20.7454 34.4076 20.7441 34.4586 20.7537C34.5582 20.7702 34.6473 20.8251 34.7068 20.9066C34.7664 20.9881 34.7916 21.0897 34.7771 21.1895L34.5926 22.5641L36.1181 22.782L36.3193 21.441C36.3254 21.3902 36.3417 21.3411 36.367 21.2967C36.3924 21.2522 36.4263 21.2132 36.4669 21.182C36.5075 21.1508 36.5538 21.128 36.6033 21.1149C36.6528 21.1018 36.7044 21.0987 36.7551 21.1057C36.856 21.1261 36.9453 21.1844 37.0045 21.2686C37.0638 21.3528 37.0885 21.4565 37.0736 21.5583L36.8892 22.8993L38.8001 23.1676L39.3198 19.5132L30.1505 18.1387L29.6309 21.8433L31.5585 22.1283Z" fill="#0095D4"/>
<path d="M30.9394 26.5032L31.1239 25.1287C31.1301 25.0779 31.1463 25.0288 31.1716 24.9843C31.197 24.9399 31.2309 24.9009 31.2715 24.8697C31.3121 24.8385 31.3584 24.8157 31.4079 24.8026C31.4574 24.7895 31.5089 24.7864 31.5596 24.7934C31.6106 24.8015 31.6595 24.8197 31.7033 24.847C31.7471 24.8743 31.785 24.9101 31.8147 24.9523C31.8444 24.9946 31.8653 25.0423 31.8762 25.0927C31.8871 25.1432 31.8877 25.1953 31.8781 25.246L31.6937 26.6038L33.2025 26.8217L33.4036 25.4639C33.4074 25.4122 33.4221 25.3618 33.4468 25.3161C33.4714 25.2704 33.5054 25.2305 33.5465 25.1988C33.5877 25.1672 33.635 25.1446 33.6855 25.1325C33.7359 25.1204 33.7884 25.1191 33.8395 25.1287C33.939 25.1452 34.0281 25.2001 34.0877 25.2815C34.1472 25.363 34.1725 25.4646 34.158 25.5645L33.9735 26.9391L35.499 27.157L35.7001 25.816C35.7063 25.7652 35.7225 25.7161 35.7479 25.6716C35.7732 25.6271 35.8072 25.5882 35.8478 25.557C35.8883 25.5258 35.9347 25.5029 35.9841 25.4899C36.0336 25.4768 36.0853 25.4736 36.136 25.4807C36.2369 25.5011 36.3262 25.5593 36.3854 25.6435C36.4447 25.7277 36.4694 25.8314 36.4545 25.9333L36.27 27.2743L38.181 27.5426L38.7174 23.8882L29.5481 22.5137L29.0117 26.2183L30.9394 26.5032Z" fill="#0095D4"/>
<path d="M30.2852 30.7445L30.4696 29.4034C30.4861 29.3038 30.5409 29.2147 30.6224 29.1552C30.7039 29.0956 30.8055 29.0704 30.9054 29.0849C31.005 29.1014 31.0941 29.1563 31.1536 29.2378C31.2132 29.3193 31.2384 29.4209 31.2239 29.5208L31.0562 30.8451L32.5482 31.0629L32.7325 29.7387C32.7526 29.6397 32.8077 29.5512 32.8878 29.4896C32.9679 29.428 33.0675 29.3974 33.1684 29.4034C33.2724 29.42 33.3658 29.4767 33.4285 29.5613C33.4911 29.6459 33.5181 29.7517 33.5037 29.856L33.3193 31.1803L34.8614 31.3982L35.029 30.1075C35.0352 30.0567 35.0515 30.0076 35.0768 29.9631C35.1022 29.9187 35.1361 29.8797 35.1767 29.8485C35.2172 29.8173 35.2637 29.7945 35.3132 29.7814C35.3626 29.7683 35.4142 29.7652 35.4649 29.7722C35.5689 29.7888 35.6623 29.8455 35.725 29.9301C35.7877 30.0147 35.8146 30.1205 35.8002 30.2248L35.6158 31.5156L37.5267 31.7838L38.0297 28.23L36.521 28.0121L33.2522 27.526L28.8771 26.8555L28.3574 30.4595L30.2852 30.7445Z" fill="#0095D4"/>
<path d="M29.714 35.0853L29.9151 33.7107C29.9213 33.6621 29.9371 33.6152 29.9616 33.5727C29.9861 33.5303 30.0188 33.4932 30.0579 33.4635C30.0969 33.4339 30.1414 33.4123 30.1888 33.4C30.2363 33.3878 30.2857 33.3851 30.3342 33.3922C30.385 33.3984 30.4341 33.4146 30.4786 33.44C30.523 33.4653 30.562 33.4993 30.5932 33.5399C30.6244 33.5804 30.6472 33.6268 30.6603 33.6763C30.6734 33.7258 30.6765 33.7774 30.6695 33.8281L30.4851 35.1859L31.9769 35.4038L32.1781 34.0459C32.1946 33.9452 32.2489 33.8545 32.3298 33.7923C32.4107 33.73 32.5123 33.7009 32.6139 33.7107C32.7149 33.7311 32.8041 33.7894 32.8634 33.8735C32.9226 33.9577 32.9473 34.0614 32.9324 34.1633L32.7481 35.5211L34.2902 35.739L34.4747 34.4147C34.4809 34.3639 34.4971 34.3149 34.5225 34.2704C34.5478 34.226 34.5818 34.187 34.6223 34.1558C34.6629 34.1246 34.7092 34.1018 34.7587 34.0887C34.8082 34.0756 34.8598 34.0725 34.9105 34.0795C34.9614 34.0876 35.0103 34.1058 35.0541 34.1331C35.0979 34.1604 35.1358 34.1962 35.1655 34.2384C35.1952 34.2806 35.2161 34.3284 35.227 34.3788C35.2379 34.4293 35.2386 34.4814 35.229 34.5321L35.0614 35.8564L36.9388 36.1246L37.4585 32.4703L28.3059 31.0957L27.7695 34.8003L29.714 35.0853Z" fill="#0095D4"/>
<path d="M29.0605 39.3772L29.2449 38.0026C29.251 37.9518 29.2673 37.9027 29.2926 37.8582C29.318 37.8138 29.352 37.7748 29.3926 37.7436C29.4332 37.7124 29.4795 37.6896 29.529 37.6765C29.5785 37.6634 29.63 37.6603 29.6807 37.6673C29.7847 37.6839 29.8781 37.7406 29.9408 37.8252C30.0035 37.9098 30.0305 38.0156 30.016 38.1199L29.8316 39.4945L31.3235 39.6957L31.5247 38.3379C31.5309 38.2871 31.5471 38.238 31.5725 38.1935C31.5978 38.149 31.6318 38.1101 31.6723 38.0789C31.7129 38.0477 31.7592 38.0248 31.8087 38.0117C31.8582 37.9986 31.9099 37.9955 31.9605 38.0026C32.0615 38.023 32.1507 38.0812 32.21 38.1654C32.2692 38.2496 32.2939 38.3533 32.279 38.4552L32.0946 39.813L33.6368 40.0309L33.8212 38.6899C33.8377 38.5903 33.8926 38.5012 33.9741 38.4416C34.0556 38.3821 34.1572 38.3569 34.2571 38.3714C34.3073 38.3774 34.3559 38.3936 34.3996 38.4192C34.4433 38.4448 34.4812 38.4791 34.5111 38.52C34.541 38.5609 34.5621 38.6075 34.5732 38.6569C34.5843 38.7063 34.5851 38.7575 34.5756 38.8072L34.3911 40.1482L36.3021 40.4165L36.8217 36.7621L27.6525 35.3876L27.1328 39.0922L29.0605 39.3772Z" fill="#0095D4"/>
<path d="M2.52519 37.7342C4.65409 33.4262 6.84998 28.7661 6.76616 24.0222C6.84998 21.9939 6.28006 18.6077 12.2309 18.1384C16.9916 17.7696 20.2436 22.1279 21.3667 23.9048L25.4569 33.0239C25.1551 34.214 26.1777 35.2869 27.1332 36.0077C28.6095 37.0766 30.2145 37.9552 31.9106 38.6227C32.6445 38.8472 33.3357 39.1929 33.9557 39.6452C35.347 40.8186 35.4308 42.9978 36.3192 44.5903C37.7273 47.1885 40.8787 48.0435 43.544 49.1834C45.8436 50.1506 47.9764 51.4743 49.8637 53.1058C51.2489 54.0914 52.1982 55.5755 52.5122 57.2463C52.5484 57.9427 52.4339 58.6387 52.1764 59.2867C51.9189 59.9348 51.5246 60.5196 51.0204 61.0012C50.0235 61.9393 48.8416 62.6588 47.5504 63.1133C40.9458 65.7284 33.5701 65.0914 26.5632 63.9347C21.769 63.1301 16.9916 62.1075 12.2645 60.8671C10.0767 60.4318 8.01096 59.522 6.21296 58.2018C4.95971 57.0046 3.91706 55.6048 3.12864 54.0613C1.30812 51.3921 0.263652 48.2703 0.111328 45.0429C0.392945 42.4717 1.20946 39.9878 2.50842 37.751" fill="#0095D4"/>
<path d="M41.4485 41.7912V36.9131C43.7132 37.9216 45.9134 39.0692 48.0363 40.3495L47.3155 27.1571L48.9918 27.4756C48.9918 27.4756 59.9045 43.8865 50.249 45.1102C44.7805 45.7807 39.2449 44.6004 34.5254 41.7576L41.4485 41.7912Z" fill="#9BCEA4"/>
<path d="M41.9512 12.2714L52.2604 5.88477L57.7084 27.4754L49.3437 33.158L41.9512 12.2714Z" fill="#142B2A"/>
<path d="M79.3515 44.2222L90.6331 25.5986C90.6331 25.5986 90.4319 29.1188 94.6897 33.2425C98.9474 37.3661 111.453 45.6135 111.453 45.6135L116.28 45.1777L96.7682 19.0107H84.196L77.625 27.8113L79.3515 44.2222Z" fill="#0095D4"/>
<path d="M86.3417 23.5863C86.3417 23.5863 82.8214 48.8983 71.8919 50.407C60.9625 51.9157 57.6602 37.2816 78.815 17.8366L111.453 10.0586L112.71 12.7575C112.71 12.7575 98.1428 25.7319 86.3417 23.6366" fill="#9BCEA4"/>
<path d="M75.277 49.0493C75.277 49.0493 70.7845 53.2904 51.8927 53.2904C33.0009 53.2904 26.7483 44.5568 28.7431 38.9412C30.7379 33.3257 63.8279 38.9412 63.8279 38.9412C63.8279 38.9412 65.0349 45.6464 75.277 48.999" fill="#CA5098"/>
<path d="M23.0098 32.4372C23.0098 32.4372 31.3913 39.4441 32.6988 34.3985C34.0063 29.3528 26.7814 25.38 26.7814 25.38L23.0098 32.4372Z" fill="#E3E3E3"/>
<path d="M51.2053 27.4248C51.2053 27.4248 65.4538 48.8646 52.8816 50.4571C40.3094 52.0495 26.0609 45.0426 28.7933 38.9409C31.5257 32.8392 50.0655 44.1375 50.0655 44.1375L49.1435 28.8497L51.2053 27.4248Z" fill="#0095D4"/>
<path d="M20.8976 50.6252C21.6184 43.4172 18.1987 33.6276 18.1484 31.1467C18.1484 29.4704 19.4393 25.4305 22.2219 24.4415C23.5084 23.928 24.9413 23.9189 26.2341 24.4162C27.527 24.9134 28.5845 25.8804 29.1953 27.1236C28.3325 26.6124 27.323 26.4058 26.3288 26.5369C25.8735 27.9875 25.8214 29.5346 26.1779 31.0126C26.2748 31.2949 26.4041 31.5649 26.5635 31.8172C26.8484 32.2698 27.2675 32.7392 27.6028 33.2085V33.3091L27.8039 33.6276C28.3702 34.4718 28.7529 35.4255 28.9271 36.427C28.9271 36.8461 28.9271 37.3993 28.9271 38.1033C28.6759 40.8713 29.3097 43.6476 30.7374 46.0322C32.9431 48.7595 36.0429 50.6182 39.4877 51.279C40.3052 51.4948 41.1332 51.6683 41.9686 51.7987C49.0593 52.838 51.1714 60.8673 41.1975 65.6615C31.2235 70.4557 20.0594 57.8333 20.7802 50.5749" fill="#142B2A"/>
<path d="M50.5677 26.8221C50.1989 24.6597 49.7798 22.5308 49.2937 20.4019C49.2937 20.3752 49.2831 20.3497 49.2642 20.3308C49.2454 20.312 49.2198 20.3014 49.1931 20.3014C49.1665 20.3014 49.1409 20.312 49.122 20.3308C49.1032 20.3497 49.0926 20.3752 49.0926 20.4019C48.9912 20.8319 48.9912 21.2795 49.0926 21.7094C49.1304 21.125 48.9964 20.5423 48.707 20.0331C48.6966 20.0158 48.6818 20.0014 48.6642 19.9914C48.6465 19.9815 48.6267 19.9763 48.6065 19.9763C48.5862 19.9763 48.5663 19.9815 48.5487 19.9914C48.531 20.0014 48.5163 20.0158 48.5059 20.0331C48.3772 20.5845 48.3772 21.1581 48.5059 21.7094C48.5192 20.9588 48.2899 20.2239 47.8521 19.6141C47.8248 19.5807 47.7881 19.5561 47.7467 19.5436C47.7054 19.531 47.6614 19.5311 47.6201 19.5436C47.5788 19.5562 47.5421 19.5808 47.5148 19.6142C47.4875 19.6476 47.4707 19.6884 47.4666 19.7314C47.3838 20.823 47.5322 21.9197 47.9024 22.9499C47.6787 22.0996 47.2597 21.3132 46.6787 20.6534C46.6501 20.619 46.6108 20.5951 46.5672 20.5855C46.5235 20.5759 46.4779 20.5811 46.4375 20.6004C46.3972 20.6196 46.3643 20.6517 46.3442 20.6917C46.3242 20.7316 46.318 20.7771 46.3266 20.821C46.556 22.2444 46.9038 23.6461 47.366 25.0117C46.5782 25.0117 46.159 23.9054 45.4885 23.6204C45.4384 23.6047 45.3853 23.6009 45.3335 23.6094C45.2817 23.618 45.2326 23.6385 45.1901 23.6695C45.1477 23.7005 45.1132 23.7411 45.0894 23.7879C45.0655 23.8347 45.0529 23.8864 45.0527 23.9389C45.154 24.561 45.4752 25.1261 45.9579 25.5314C46.8852 26.4365 47.9416 27.1991 49.0926 27.7944" fill="#9BCEA4"/>
<path d="M52.2589 5.88458L41.1953 5.39844L43.1399 11.5337L52.2589 5.88458Z" fill="#9BCEA4"/>
<path d="M123.805 49.9885C123.805 48.4463 116.798 46.3174 116.798 46.3174C115.218 46.6803 113.607 46.8991 111.987 46.9712C111.836 47.9434 111.652 49.6197 111.987 50.0555C112.323 50.4914 123.721 51.5307 123.721 50.0555" fill="#0095D4"/>
<path d="M115.875 0.00115377C114.417 0.15202 112.992 7.42717 112.992 7.42717C113.479 8.99832 113.832 10.6077 114.048 12.2381C114.987 12.2381 116.596 12.3387 116.982 11.9028C117.367 11.467 117.351 -0.13295 115.875 0.00115377Z" fill="#0095D4"/>
<path d="M107.077 13.7469H107.16L107.797 13.3781C107.826 13.3424 107.841 13.2981 107.841 13.2524C107.841 13.2067 107.826 13.1623 107.797 13.1267C107.763 13.0949 107.718 13.0771 107.672 13.0771C107.625 13.0771 107.58 13.0949 107.546 13.1267L106.909 13.4787C106.877 13.5128 106.859 13.5578 106.859 13.6044C106.859 13.6511 106.877 13.696 106.909 13.7301C106.922 13.7596 106.943 13.7848 106.97 13.8026C106.996 13.8204 107.028 13.8301 107.06 13.8307" fill="#13110C"/>
<path d="M82.8527 21.2731C82.8112 21.2607 82.7748 21.2353 82.7489 21.2006C82.723 21.1658 82.709 21.1237 82.709 21.0804C82.709 21.037 82.723 20.9949 82.7489 20.9601C82.7748 20.9254 82.8112 20.9 82.8527 20.8876C83.3053 20.8876 83.7915 20.8038 84.2441 20.7367C84.2856 20.7491 84.3219 20.7746 84.3478 20.8093C84.3737 20.844 84.3877 20.8862 84.3877 20.9295C84.3877 20.9728 84.3737 21.015 84.3478 21.0497C84.3219 21.0845 84.2856 21.1099 84.2441 21.1223L82.836 21.2731M85.6353 20.9379C85.5902 20.9347 85.5475 20.9165 85.5141 20.8861C85.4806 20.8557 85.4584 20.8149 85.451 20.7703C85.4487 20.746 85.4511 20.7216 85.4583 20.6983C85.4655 20.6751 85.4773 20.6534 85.4929 20.6347C85.5085 20.616 85.5276 20.6006 85.5492 20.5894C85.5708 20.5781 85.5943 20.5712 85.6186 20.5691L87.0099 20.3344C87.0332 20.3296 87.0573 20.3298 87.0805 20.335C87.1037 20.3401 87.1255 20.3502 87.1446 20.3644C87.1636 20.3787 87.1793 20.3969 87.1908 20.4177C87.2023 20.4385 87.2092 20.4616 87.2111 20.4853C87.2159 20.5095 87.2158 20.5345 87.2107 20.5587C87.2057 20.5829 87.1959 20.6059 87.1818 20.6262C87.1677 20.6465 87.1497 20.6638 87.1288 20.677C87.1079 20.6903 87.0846 20.6992 87.0602 20.7032L85.6689 20.9379M88.3845 20.4518C88.3624 20.4541 88.3401 20.452 88.3189 20.4457C88.2977 20.4393 88.2779 20.4288 88.2608 20.4148C88.2436 20.4007 88.2295 20.3835 88.219 20.3639C88.2086 20.3444 88.2022 20.3229 88.2001 20.3009C88.1953 20.2766 88.1954 20.2516 88.2004 20.2274C88.2054 20.2032 88.2153 20.1803 88.2294 20.16C88.2435 20.1396 88.2614 20.1223 88.2823 20.1091C88.3032 20.0959 88.3265 20.087 88.3509 20.083L89.7255 19.798C89.7497 19.7932 89.7747 19.7933 89.799 19.7983C89.8232 19.8033 89.8462 19.8132 89.8665 19.8272C89.8868 19.8413 89.9041 19.8593 89.9173 19.8802C89.9306 19.9011 89.9394 19.9245 89.9434 19.9489C89.9536 19.9955 89.9453 20.0442 89.9203 20.0849C89.8953 20.1255 89.8555 20.1548 89.8093 20.1668L88.418 20.4518M91.1671 19.8483C91.1273 19.8428 91.09 19.8254 91.0602 19.7985C91.0303 19.7716 91.0092 19.7364 90.9995 19.6974C90.9893 19.6508 90.9976 19.6021 91.0226 19.5614C91.0476 19.5208 91.0874 19.4914 91.1336 19.4795L92.5082 19.1275C92.5544 19.1211 92.6014 19.1309 92.6412 19.1554C92.681 19.1799 92.711 19.2174 92.7261 19.2616C92.7369 19.3104 92.7291 19.3614 92.7043 19.4048C92.6795 19.4482 92.6395 19.4808 92.592 19.4963L91.2174 19.8483M93.9666 19.1107C93.9259 19.1097 93.8864 19.0963 93.8535 19.0723C93.8206 19.0484 93.7957 19.015 93.7821 18.9766C93.7713 18.9278 93.7791 18.8768 93.8039 18.8334C93.8287 18.79 93.8687 18.7574 93.9162 18.742C94.3688 18.6246 94.8214 18.4737 95.2572 18.3396C95.3039 18.3278 95.3533 18.3332 95.3964 18.3548C95.4395 18.3763 95.4733 18.4126 95.4919 18.457C95.5026 18.4798 95.508 18.5048 95.5076 18.53C95.5072 18.5552 95.5012 18.58 95.4899 18.6026C95.4786 18.6252 95.4624 18.6449 95.4424 18.6603C95.4225 18.6757 95.3993 18.6865 95.3746 18.6917L94.0168 19.1107M96.7156 18.2726C96.6772 18.2705 96.6404 18.2565 96.6103 18.2324C96.5803 18.2084 96.5585 18.1755 96.548 18.1385C96.5402 18.1154 96.537 18.0909 96.5386 18.0666C96.5403 18.0422 96.5467 18.0184 96.5576 17.9966C96.5686 17.9748 96.5838 17.9553 96.6022 17.9394C96.6207 17.9235 96.6422 17.9114 96.6654 17.9038L98.0064 17.4512C98.0269 17.4403 98.0497 17.4343 98.0729 17.4337C98.0961 17.433 98.1192 17.4378 98.1403 17.4475C98.1614 17.4572 98.18 17.4717 98.1945 17.4898C98.2091 17.5079 98.2193 17.5291 98.2243 17.5517C98.2384 17.5989 98.2361 17.6493 98.2179 17.695C98.1996 17.7406 98.1664 17.7788 98.1237 17.8032L96.7659 18.2558M99.4313 17.3003C99.3929 17.2983 99.356 17.2842 99.3259 17.2602C99.2959 17.2361 99.2741 17.2033 99.2636 17.1662C99.2557 17.1431 99.2525 17.1187 99.2542 17.0943C99.2558 17.07 99.2623 17.0462 99.2732 17.0244C99.2841 17.0025 99.2993 16.9831 99.3178 16.9671C99.3363 16.9512 99.3578 16.9391 99.381 16.9315C99.8336 16.7639 100.269 16.5963 100.689 16.4119C100.712 16.404 100.736 16.4008 100.76 16.4025C100.785 16.4041 100.808 16.4106 100.83 16.4215C100.852 16.4325 100.872 16.4476 100.888 16.4661C100.903 16.4845 100.916 16.506 100.923 16.5292C100.934 16.551 100.94 16.5748 100.941 16.5991C100.941 16.6233 100.937 16.6475 100.927 16.6698C100.918 16.6921 100.903 16.7121 100.885 16.7283C100.867 16.7446 100.846 16.7567 100.823 16.7639L99.4983 17.2835M102.13 16.2107C102.096 16.2114 102.062 16.2023 102.032 16.1845C102.002 16.1667 101.978 16.141 101.962 16.1102C101.945 16.0632 101.945 16.0115 101.964 15.965C101.983 15.9185 102.018 15.8806 102.063 15.8587L103.371 15.2888C103.412 15.2814 103.455 15.2886 103.492 15.3092C103.529 15.3297 103.558 15.3625 103.574 15.4018C103.59 15.4412 103.591 15.4848 103.579 15.5252C103.566 15.5657 103.54 15.6006 103.505 15.624L102.214 16.194M104.812 15.0373C104.776 15.0345 104.742 15.0222 104.712 15.0015C104.683 14.9809 104.659 14.9528 104.645 14.92C104.626 14.8751 104.624 14.8248 104.639 14.7785C104.655 14.7323 104.686 14.6932 104.728 14.6685C105.214 14.4506 105.634 14.2327 106.002 14.0483C106.024 14.0369 106.048 14.03 106.073 14.028C106.098 14.0261 106.122 14.0291 106.146 14.0369C106.169 14.0448 106.191 14.0572 106.209 14.0736C106.228 14.0899 106.243 14.1098 106.254 14.1321C106.282 14.1678 106.298 14.2121 106.298 14.2578C106.298 14.3035 106.282 14.3479 106.254 14.3836L104.963 15.0206" fill="#13110C"/>
<path d="M80.2889 22.0107C80.3123 22.0224 80.3382 22.0286 80.3644 22.0286C80.3906 22.0286 80.4164 22.0224 80.4398 22.0107L80.8085 21.4742H81.4623C81.4865 21.4721 81.5102 21.4652 81.5317 21.454C81.5533 21.4427 81.5724 21.4273 81.588 21.4086C81.6036 21.3899 81.6153 21.3683 81.6225 21.3451C81.6297 21.3218 81.6322 21.2973 81.6299 21.2731C81.6219 21.2257 81.5973 21.1828 81.5604 21.1521C81.5235 21.1213 81.4767 21.1048 81.4287 21.1055H80.7079L80.2721 21.7089C80.2403 21.7431 80.2227 21.788 80.2227 21.8347C80.2227 21.8813 80.2403 21.9262 80.2721 21.9604C80.2878 21.9678 80.305 21.9717 80.3224 21.9717C80.3398 21.9717 80.3569 21.9678 80.3726 21.9604" fill="#13110C"/>
<path d="M71.2686 38.0361C71.2248 38.0175 71.1899 37.9828 71.1712 37.939C71.1525 37.8953 71.1513 37.846 71.168 37.8015C71.3357 37.3321 71.5201 36.8459 71.738 36.3598C71.7452 36.3366 71.7573 36.3153 71.7735 36.2973C71.7898 36.2792 71.8098 36.2649 71.8321 36.2553C71.8545 36.2457 71.8786 36.2412 71.9028 36.2419C71.9271 36.2425 71.951 36.2484 71.9727 36.2592C71.9945 36.2682 72.014 36.2816 72.0302 36.2986C72.0464 36.3156 72.0589 36.3358 72.0668 36.3579C72.0747 36.3801 72.0779 36.4036 72.0762 36.427C72.0744 36.4505 72.0677 36.4733 72.0565 36.4939C71.8554 36.9968 71.6709 37.4662 71.5033 37.9355C71.4922 37.9709 71.4698 38.0015 71.4395 38.0228C71.4091 38.044 71.3727 38.0546 71.3357 38.0529M72.5258 35.2032C72.5035 35.1925 72.4837 35.1774 72.4673 35.1589C72.4509 35.1403 72.4385 35.1187 72.4307 35.0952C72.4228 35.0718 72.4198 35.047 72.4218 35.0223C72.4237 34.9977 72.4306 34.9737 72.442 34.9517C72.6432 34.5159 72.8779 34.0466 73.1126 33.5604C73.1467 33.5286 73.1917 33.5109 73.2383 33.5109C73.285 33.5109 73.3298 33.5286 73.364 33.5604C73.3958 33.5946 73.4135 33.6395 73.4135 33.6861C73.4135 33.7328 73.3958 33.7777 73.364 33.8119L72.6935 35.1864C72.6827 35.2173 72.6621 35.2438 72.6349 35.2619C72.6077 35.28 72.5753 35.2889 72.5426 35.287M73.9172 32.5379H73.8166C73.7848 32.5037 73.7671 32.4588 73.7671 32.4122C73.7671 32.3655 73.7848 32.3206 73.8166 32.2864L74.5542 30.9286C74.5802 30.8897 74.6201 30.8621 74.6657 30.8515C74.7113 30.8409 74.7593 30.848 74.7998 30.8715C74.8404 30.895 74.8705 30.933 74.884 30.9779C74.8976 31.0228 74.8935 31.071 74.8727 31.113L74.1351 32.4541C74.1222 32.4835 74.1012 32.5087 74.0744 32.5265C74.0477 32.5443 74.0163 32.5541 73.9842 32.5547M75.4761 29.8726H75.3923C75.3593 29.8357 75.3411 29.788 75.3411 29.7385C75.3411 29.689 75.3593 29.6412 75.3923 29.6044C75.6438 29.1518 75.9119 28.7159 76.1801 28.2969C76.1943 28.2794 76.2122 28.2653 76.2325 28.2556C76.2528 28.2459 76.275 28.2408 76.2975 28.2408C76.32 28.2408 76.3422 28.2459 76.3626 28.2556C76.3829 28.2653 76.4007 28.2794 76.4148 28.2969C76.4466 28.331 76.4644 28.3759 76.4644 28.4226C76.4644 28.4693 76.4466 28.5141 76.4148 28.5483L75.627 29.8726C75.6106 29.8978 75.5883 29.9186 75.562 29.9332C75.5357 29.9479 75.5062 29.9558 75.4761 29.9564M77.0686 27.3246H76.968C76.9498 27.3074 76.9352 27.2866 76.9253 27.2635C76.9153 27.2405 76.9102 27.2156 76.9102 27.1905C76.9102 27.1654 76.9153 27.1406 76.9253 27.1175C76.9352 27.0944 76.9498 27.0736 76.968 27.0564L77.7894 25.7657C77.8051 25.7478 77.8245 25.7335 77.8462 25.7237C77.8679 25.7139 77.8914 25.7089 77.9151 25.7089C77.9389 25.7089 77.9624 25.7139 77.9841 25.7237C78.0058 25.7335 78.0252 25.7478 78.0409 25.7657C78.0727 25.7998 78.0904 25.8447 78.0904 25.8914C78.0904 25.938 78.0727 25.983 78.0409 26.0171L77.2195 27.3078C77.2043 27.3342 77.1823 27.3559 77.1557 27.3707C77.1291 27.3854 77.099 27.3927 77.0686 27.3917M78.7449 24.8269H78.6443C78.6169 24.7876 78.6023 24.7408 78.6023 24.6928C78.6023 24.6449 78.6169 24.5981 78.6443 24.5587L79.516 23.2847C79.5502 23.2529 79.595 23.2352 79.6417 23.2352C79.6883 23.2352 79.7333 23.2529 79.7674 23.2847C79.7857 23.302 79.8002 23.3228 79.8102 23.3458C79.8201 23.3689 79.8253 23.3937 79.8253 23.4188C79.8253 23.4439 79.8201 23.4688 79.8102 23.4919C79.8002 23.5149 79.7857 23.5357 79.7674 23.553L78.9125 24.8269C78.8961 24.8521 78.8738 24.873 78.8475 24.8876C78.8212 24.9022 78.7918 24.9102 78.7617 24.9108" fill="#13110C"/>
<path d="M70.6146 40.2152C70.6553 40.2122 70.6939 40.1957 70.7242 40.1684C70.7546 40.1411 70.7749 40.1045 70.7822 40.0643C70.7822 39.8464 70.8995 39.595 70.9666 39.3603C70.9745 39.3372 70.9777 39.3128 70.976 39.2884C70.9744 39.2641 70.9679 39.2403 70.957 39.2184C70.9461 39.1966 70.931 39.1772 70.9125 39.1612C70.894 39.1453 70.8724 39.1332 70.8492 39.1256C70.825 39.118 70.7996 39.1155 70.7744 39.1183C70.7491 39.121 70.7248 39.1289 70.7027 39.1415C70.6807 39.1541 70.6615 39.1711 70.6464 39.1914C70.6312 39.2118 70.6204 39.235 70.6146 39.2597C70.6146 39.5111 70.4972 39.7458 70.4302 39.9805C70.4229 40.029 70.4321 40.0785 70.4565 40.1211C70.4808 40.1637 70.5188 40.1969 70.5643 40.2152" fill="#13110C"/>
<path d="M31.2569 31.666H31.3575L31.7598 31.3643C31.8237 31.3194 31.8709 31.2545 31.8939 31.1799C31.9175 31.1331 31.9298 31.0814 31.9298 31.029C31.9298 30.9766 31.9175 30.9249 31.8939 30.8781C31.3381 29.834 30.5935 28.9018 29.698 28.129C29.6822 28.1112 29.6629 28.0969 29.6412 28.0871C29.6195 28.0773 29.596 28.0723 29.5722 28.0723C29.5484 28.0723 29.5249 28.0773 29.5033 28.0871C29.4816 28.0969 29.4623 28.1112 29.4466 28.129C29.4283 28.1462 29.4138 28.167 29.4038 28.1901C29.3939 28.2131 29.3887 28.238 29.3887 28.2631C29.3887 28.2882 29.3939 28.3131 29.4038 28.3361C29.4138 28.3592 29.4283 28.38 29.4466 28.3972C30.3088 29.1349 31.0251 30.0275 31.5586 31.029L31.1731 31.314C31.1401 31.3509 31.1219 31.3986 31.1219 31.4481C31.1219 31.4976 31.1401 31.5453 31.1731 31.5822C31.1968 31.5928 31.2225 31.5983 31.2485 31.5983C31.2745 31.5983 31.3003 31.5928 31.324 31.5822" fill="#13110C"/>
<path d="M30.9547 33.4771C31.5226 33.3552 32.0281 33.0342 32.3796 32.5719C32.3975 32.5562 32.4117 32.5368 32.4215 32.5151C32.4313 32.4934 32.4363 32.4699 32.4363 32.4461C32.4363 32.4224 32.4313 32.3989 32.4215 32.3772C32.4117 32.3555 32.3975 32.3361 32.3796 32.3204C32.3639 32.3026 32.3445 32.2883 32.3229 32.2785C32.3012 32.2687 32.2777 32.2637 32.2539 32.2637C32.2301 32.2637 32.2066 32.2687 32.1849 32.2785C32.1633 32.2883 32.1439 32.3026 32.1282 32.3204C31.8182 32.704 31.3865 32.9702 30.9045 33.0748C30.857 33.0902 30.8169 33.1228 30.7922 33.1662C30.7674 33.2096 30.7596 33.2607 30.7704 33.3095C30.7808 33.3465 30.8026 33.3793 30.8327 33.4034C30.8627 33.4274 30.8995 33.4415 30.9379 33.4435" fill="#13110C"/>
<path d="M27.7545 29.6549C27.7754 29.6652 27.7983 29.6706 27.8216 29.6706C27.8448 29.6706 27.8677 29.6652 27.8886 29.6549C28.3225 29.1141 28.9052 28.712 29.5649 28.4982C29.6116 28.4827 29.6502 28.4493 29.6722 28.4052C29.6942 28.3612 29.6978 28.3103 29.6822 28.2636C29.6667 28.2169 29.6332 28.1783 29.5892 28.1563C29.5452 28.1343 29.4943 28.1307 29.4476 28.1462C28.7284 28.3765 28.0967 28.821 27.6372 29.4202C27.6042 29.4571 27.5859 29.5048 27.5859 29.5543C27.5859 29.6038 27.6042 29.6516 27.6372 29.6884H27.7545" fill="#13110C"/>
<path d="M29.5319 30.2748C29.5728 30.2616 29.6104 30.2399 29.6422 30.2109C29.674 30.182 29.6993 30.1467 29.7163 30.1072C29.7361 30.0623 29.7464 30.0138 29.7464 29.9647C29.7464 29.9156 29.7361 29.8671 29.7163 29.8222C29.6663 29.7071 29.5849 29.6084 29.4816 29.5373C29.4485 29.51 29.407 29.4951 29.3642 29.4951C29.3214 29.4951 29.2799 29.51 29.2469 29.5373C29.1943 29.5692 29.1501 29.6132 29.1181 29.6657C29.086 29.7182 29.0669 29.7776 29.0625 29.839C29.0623 29.9144 29.0825 29.9884 29.1208 30.0533C29.1592 30.1182 29.2143 30.1716 29.2804 30.2078H29.4313" fill="#13110C"/>
<path d="M30.7877 28.7333C30.8202 28.7123 30.8581 28.7012 30.8968 28.7012C30.9356 28.7012 30.9735 28.7123 31.006 28.7333C31.0481 28.7443 31.0869 28.7652 31.119 28.7945C31.1512 28.8237 31.1758 28.8604 31.1907 28.9012C31.1988 28.94 31.1988 28.98 31.1907 29.0187C31.1907 29.0187 31.1907 29.1531 31.0899 29.1867C31.0414 29.2147 30.9864 29.2294 30.9304 29.2294C30.8744 29.2294 30.8194 29.2147 30.7709 29.1867C30.7519 29.1415 30.7422 29.093 30.7422 29.0439C30.7422 28.9949 30.7519 28.9464 30.7709 28.9012C30.778 28.8733 30.7905 28.847 30.8078 28.824C30.8251 28.8009 30.8468 28.7815 30.8716 28.7669" fill="#13110C"/>
</svg>
