<svg width="74" height="94" viewBox="0 0 74 94" fill="none" xmlns="http://www.w3.org/2000/svg">
<path d="M72.9071 93.1484H44.329C44.3027 93.1508 44.2762 93.1477 44.2512 93.1392C44.2261 93.1308 44.2031 93.1172 44.1836 93.0993C44.1642 93.0815 44.1487 93.0598 44.1381 93.0356C44.1275 93.0114 44.1221 92.9852 44.1222 92.9588V81.893L0.324341 80.7898C0.299442 80.7898 0.27486 80.785 0.251856 80.7754C0.228853 80.7659 0.207919 80.7519 0.190313 80.7343C0.172707 80.7167 0.158707 80.6958 0.149178 80.6728C0.13965 80.6498 0.134766 80.6252 0.134766 80.6003C0.138747 80.5467 0.16182 80.4964 0.199781 80.4584C0.237742 80.4205 0.288058 80.3974 0.341594 80.3934L44.329 81.4965C44.3808 81.5009 44.4291 81.5246 44.4642 81.5629C44.4993 81.6013 44.5188 81.6514 44.5186 81.7034V92.7519H72.9415C72.9679 92.7518 72.994 92.7572 73.0183 92.7678C73.0425 92.7784 73.0642 92.7939 73.082 92.8134C73.0999 92.8329 73.1134 92.8559 73.1219 92.8809C73.1303 92.9059 73.1335 92.9324 73.1311 92.9588C73.1311 93.009 73.1111 93.0573 73.0756 93.0928C73.04 93.1284 72.9917 93.1484 72.9415 93.1484" fill="#13110C"/>
<path d="M57.2055 77.3951C56.259 77.6182 55.2736 77.6182 54.327 77.3951L53.5342 79.7048H51.8106C51.618 80.1027 51.4844 80.5266 51.4141 80.963C51.4141 81.9455 62.5143 86.7028 63.7898 86.2374C65.0653 85.772 57.1711 77.3262 57.1711 77.3262" fill="#C74593"/>
<path d="M56.8274 75.8433C56.7785 75.8274 56.7374 75.7938 56.7119 75.7492C56.6864 75.7046 56.6784 75.6521 56.6895 75.602C56.6895 75.3607 62.9463 52.3673 60.9986 48.2822C60.399 46.8904 59.3378 45.748 57.9939 45.0478C56.6499 44.3476 55.1056 44.1324 53.6214 44.4385C53.5965 44.4434 53.5708 44.4433 53.5459 44.4382C53.521 44.433 53.4974 44.4229 53.4765 44.4084C53.4556 44.3939 53.4378 44.3754 53.4242 44.3539C53.4106 44.3325 53.4015 44.3084 53.3973 44.2834C53.3895 44.2585 53.387 44.2322 53.3898 44.2063C53.3926 44.1804 53.4007 44.1553 53.4137 44.1327C53.4266 44.11 53.4441 44.0902 53.465 44.0746C53.4859 44.059 53.5099 44.0479 53.5353 44.042C55.1042 43.7492 56.7259 43.9909 58.1414 44.7283C59.5568 45.4657 60.6842 46.6563 61.3433 48.1098C63.36 52.3328 57.3273 74.7401 57.0687 75.6881C57.0571 75.7291 57.0322 75.7649 56.9978 75.7899C56.9634 75.8149 56.9216 75.8276 56.8791 75.826" fill="#13110C"/>
<path d="M53.7069 79.9797H49.2255L47.5019 62.7433C45.5714 65.1391 34.54 78.2561 23.9741 78.7387C22.6069 78.8915 21.2228 78.7252 19.9307 78.2526C18.6387 77.7801 17.4739 77.0142 16.5279 76.0153C13.0807 72.2061 14.0114 65.8458 14.0459 65.5873C14.0459 65.5873 22.0609 60.0372 31.0238 54.9697C43.0893 48.0751 51.2422 45.3 55.1549 46.541C55.7911 46.7482 56.3756 47.0892 56.8691 47.5411C57.3627 47.993 57.7537 48.5453 58.0161 49.1609C59.6363 52.6082 59.4123 58.7444 57.3094 67.6557C56.322 71.8362 55.1136 75.9615 53.6897 80.0142L53.7069 79.9797ZM49.5013 79.6177H53.3622C54.0172 77.7562 61.2909 56.7277 57.6541 49.2126C57.4139 48.6405 57.0545 48.1263 56.5997 47.7042C56.1449 47.2822 55.6053 46.962 55.0169 46.7651C46.0712 43.9556 15.9936 64.5531 14.3045 65.7252C14.3045 66.5008 13.6667 72.3095 16.6831 75.7568C17.5926 76.7138 18.7125 77.4457 19.9542 77.8945C21.1958 78.3433 22.525 78.4966 23.8362 78.3423C35.2295 77.8596 47.2606 62.2779 47.3812 62.1228L47.6569 61.7436L49.5013 79.6177Z" fill="#13110C"/>
<path d="M27.3014 70.1721C27.2601 70.1748 27.2191 70.1639 27.1845 70.1411C27.15 70.1182 27.1239 70.0847 27.1103 70.0456C27.0966 70.0065 27.0961 69.964 27.1088 69.9247C27.1215 69.8853 27.1468 69.8511 27.1807 69.8274L28.0426 69.0863C28.0618 69.0705 28.084 69.0585 28.1078 69.0513C28.1316 69.044 28.1567 69.0414 28.1815 69.0438C28.2064 69.0462 28.2304 69.0535 28.2524 69.0653C28.2745 69.077 28.2939 69.0929 28.3098 69.1121C28.3256 69.1314 28.3375 69.1536 28.3448 69.1774C28.3521 69.2012 28.3546 69.2262 28.3522 69.251C28.3498 69.2759 28.3425 69.2999 28.3308 69.322C28.3191 69.344 28.3031 69.3634 28.2839 69.3793L27.4221 70.1204C27.403 70.1285 27.3825 70.1326 27.3618 70.1326C27.3411 70.1326 27.3205 70.1285 27.3014 70.1204" fill="#13110C"/>
<path d="M52.948 71.9312C52.898 71.9155 52.8551 71.8827 52.8268 71.8386C52.7984 71.7946 52.7864 71.7419 52.7928 71.6899C52.9135 71.0177 53.0514 70.2593 53.1893 69.4492C53.1893 69.3989 53.2093 69.3507 53.2449 69.3151C53.2804 69.2795 53.3286 69.2596 53.3789 69.2596C53.4292 69.2596 53.4774 69.2795 53.5129 69.3151C53.5485 69.3507 53.5685 69.3989 53.5685 69.4492C53.4306 70.2765 53.2927 71.0349 53.1721 71.7244C53.1611 71.7671 53.1368 71.8051 53.1027 71.833C53.0686 71.8609 53.0265 71.8772 52.9825 71.8795M29.989 67.9151C29.965 67.9272 29.9384 67.9336 29.9115 67.9336C29.8846 67.9336 29.858 67.9272 29.834 67.9151C29.8 67.8772 29.7812 67.8281 29.7812 67.7772C29.7812 67.7264 29.8 67.6772 29.834 67.6393C30.351 67.1912 30.9371 66.7086 31.5576 66.1915C31.5955 66.1575 31.6445 66.1388 31.6954 66.1388C31.7463 66.1388 31.7954 66.1575 31.8333 66.1915C31.8655 66.2335 31.8829 66.2851 31.8829 66.338C31.8829 66.391 31.8655 66.4424 31.8333 66.4845C31.1956 67.0016 30.6268 67.4842 30.1097 67.9324H29.989M53.7236 67.3808C53.6202 67.3808 53.5512 67.2774 53.5512 67.1567C53.6719 66.4328 53.7753 65.6571 53.8787 64.8987C53.8782 64.8729 53.8835 64.8472 53.8943 64.8237C53.905 64.8002 53.9209 64.7794 53.9408 64.7629C53.9606 64.7463 53.984 64.7344 54.009 64.7281C54.0341 64.7218 54.0602 64.7212 54.0855 64.7264C54.1356 64.7382 54.1802 64.767 54.2116 64.8078C54.243 64.8486 54.2593 64.899 54.258 64.9504C54.1545 65.7261 54.0511 66.4845 53.9305 67.2257C53.9306 67.2498 53.9256 67.2738 53.9158 67.2959C53.9061 67.318 53.892 67.3378 53.8741 67.3541C53.8562 67.3703 53.8351 67.3826 53.8121 67.3902C53.7892 67.3978 53.7649 67.4005 53.7409 67.398M33.4708 65.0711C33.4402 65.0692 33.4103 65.0604 33.3835 65.0455C33.3567 65.0306 33.3335 65.0099 33.3156 64.9849C33.2969 64.9672 33.2819 64.9459 33.2717 64.9221C33.2614 64.8984 33.2562 64.8728 33.2562 64.847C33.2562 64.8212 33.2614 64.7957 33.2717 64.772C33.2819 64.7483 33.2969 64.7269 33.3156 64.7092L35.0393 63.2958C35.0555 63.2774 35.0754 63.2627 35.0977 63.2527C35.12 63.2426 35.1441 63.2374 35.1686 63.2374C35.193 63.2374 35.2172 63.2426 35.2395 63.2527C35.2618 63.2627 35.2817 63.2774 35.2979 63.2958C35.3167 63.3135 35.3316 63.3349 35.3419 63.3586C35.3521 63.3823 35.3573 63.4078 35.3573 63.4336C35.3573 63.4594 35.3521 63.485 35.3419 63.5087C35.3316 63.5325 35.3167 63.5538 35.2979 63.5715L33.5742 64.9849C33.5351 64.9981 33.4927 64.9981 33.4536 64.9849M54.2925 62.7614C54.2424 62.7496 54.1978 62.7208 54.1664 62.68C54.135 62.6392 54.1187 62.5888 54.12 62.5373C54.12 61.7445 54.258 60.9688 54.2925 60.2621C54.305 60.214 54.3312 60.1705 54.3679 60.1368C54.4046 60.1032 54.4502 60.0809 54.4993 60.0726C54.5497 60.0803 54.596 60.105 54.6305 60.1426C54.665 60.1802 54.6855 60.2285 54.6889 60.2794C54.6889 61.0033 54.5855 61.7789 54.4993 62.5718C54.4993 62.5967 54.4943 62.6214 54.4848 62.6444C54.4752 62.6674 54.4614 62.6883 54.4437 62.7059C54.4261 62.7235 54.4052 62.7375 54.3822 62.747C54.3592 62.7565 54.3345 62.7614 54.3096 62.7614M36.987 62.1581C36.9365 62.174 36.8824 62.174 36.8319 62.1581C36.8132 62.1404 36.7982 62.1191 36.788 62.0953C36.7777 62.0716 36.7724 62.0461 36.7724 62.0203C36.7724 61.9945 36.7777 61.9689 36.788 61.9452C36.7982 61.9215 36.8132 61.9001 36.8319 61.8824L38.5556 60.4862C38.5967 60.4542 38.6488 60.4399 38.7006 60.4463C38.7523 60.4528 38.7993 60.4796 38.8313 60.5207C38.8633 60.5619 38.8777 60.614 38.8712 60.6657C38.8647 60.7175 38.838 60.7645 38.7968 60.7965L37.0732 62.1927H36.9525M40.5205 59.452C40.4707 59.4721 40.4151 59.4721 40.3654 59.452C40.3466 59.4343 40.3316 59.4129 40.3214 59.3892C40.3112 59.3655 40.306 59.34 40.306 59.3141C40.306 59.2883 40.3112 59.2628 40.3214 59.2391C40.3316 59.2154 40.3466 59.194 40.3654 59.1763L42.1752 57.8318C42.2103 57.7991 42.2565 57.7809 42.3045 57.7809C42.3525 57.7809 42.3987 57.7991 42.4338 57.8318C42.4526 57.8495 42.4675 57.8709 42.4778 57.8946C42.488 57.9184 42.4932 57.9439 42.4932 57.9697C42.4932 57.9955 42.488 58.0211 42.4778 58.0448C42.4675 58.0685 42.4526 58.0898 42.4338 58.1076L40.6239 59.452H40.5033M54.4993 58.211C54.449 58.211 54.4007 58.1911 54.3652 58.1555C54.3296 58.1199 54.3096 58.0717 54.3096 58.0214C54.3176 57.267 54.2773 56.5128 54.1889 55.7634C54.184 55.7372 54.1847 55.7102 54.1909 55.6843C54.1972 55.6583 54.2088 55.634 54.225 55.6128C54.2413 55.5917 54.2619 55.5742 54.2854 55.5616C54.3089 55.5489 54.3348 55.5413 54.3614 55.5394C54.3863 55.537 54.4114 55.5396 54.4353 55.547C54.4592 55.5544 54.4814 55.5664 54.5007 55.5824C54.5199 55.5985 54.5358 55.6182 54.5474 55.6404C54.559 55.6625 54.566 55.6868 54.5682 55.7117C54.6565 56.4784 54.6968 57.2498 54.6889 58.0214C54.6916 58.047 54.6885 58.0728 54.6799 58.0971C54.6714 58.1213 54.6575 58.1433 54.6393 58.1615C54.6211 58.1797 54.5992 58.1935 54.5749 58.2021C54.5507 58.2107 54.5249 58.2137 54.4993 58.211ZM44.1574 56.8148C44.1265 56.8142 44.0962 56.806 44.0692 56.791C44.0421 56.776 44.0191 56.7546 44.0023 56.7287C43.9835 56.711 43.9685 56.6896 43.9583 56.6659C43.9481 56.6422 43.9428 56.6166 43.9428 56.5908C43.9428 56.565 43.9481 56.5394 43.9583 56.5157C43.9685 56.492 43.9835 56.4706 44.0023 56.4529C44.6572 56.0047 45.2778 55.5738 45.8811 55.1946C45.8972 55.1763 45.9171 55.1616 45.9394 55.1515C45.9616 55.1415 45.9858 55.1363 46.0103 55.1363C46.0347 55.1363 46.0589 55.1415 46.0812 55.1515C46.1035 55.1616 46.1234 55.1763 46.1396 55.1946C46.1735 55.2325 46.1923 55.2817 46.1923 55.3325C46.1923 55.3834 46.1735 55.4325 46.1396 55.4704L44.278 56.7114H44.1746M47.9666 54.2811C47.9311 54.2817 47.8961 54.2724 47.8656 54.2541C47.8351 54.2358 47.8104 54.2093 47.7943 54.1777C47.7616 54.1426 47.7434 54.0964 47.7434 54.0484C47.7434 54.0004 47.7616 53.9542 47.7943 53.9191C48.4415 53.5332 49.1089 53.1822 49.7937 52.8677C49.8173 52.8565 49.843 52.8503 49.8691 52.8494C49.8952 52.8486 49.9213 52.8532 49.9456 52.8629C49.9699 52.8726 49.9919 52.8872 50.0103 52.9059C50.0286 52.9245 50.0429 52.9467 50.0523 52.9711C50.0703 53.0194 50.0697 53.0726 50.0506 53.1204C50.0315 53.1682 49.9952 53.2072 49.9488 53.2297C49.2756 53.5384 48.6196 53.8837 47.9839 54.2639H47.8977M53.7753 53.6089C53.7384 53.606 53.7029 53.5933 53.6726 53.5721C53.6423 53.5509 53.6183 53.5219 53.603 53.4882C53.516 53.2608 53.3772 53.0567 53.1977 52.8921C53.0182 52.7276 52.803 52.6071 52.5688 52.5402C52.3866 52.5057 52.1995 52.5057 52.0172 52.5402C51.9923 52.5426 51.9672 52.54 51.9433 52.5326C51.9194 52.5252 51.8971 52.5131 51.8778 52.4971C51.8586 52.4811 51.8428 52.4614 51.8312 52.4392C51.8197 52.4171 51.8126 52.3928 51.8104 52.3679C51.8055 52.3429 51.8056 52.3172 51.8107 52.2923C51.8159 52.2674 51.8259 52.2439 51.8404 52.2229C51.8549 52.202 51.8734 52.1843 51.8949 52.1707C51.9164 52.1571 51.9404 52.1479 51.9655 52.1438C52.1882 52.1083 52.4151 52.1083 52.6377 52.1438C52.9327 52.2172 53.2056 52.3604 53.4336 52.5614C53.6616 52.7624 53.8379 53.0153 53.9477 53.2986C53.9671 53.3449 53.969 53.3965 53.9532 53.4441C53.9373 53.4916 53.9048 53.5318 53.8616 53.5572" fill="#13110C"/>
<path d="M52.2057 75.2916C52.1557 75.2758 52.1127 75.2431 52.0844 75.199C52.0561 75.1549 52.0441 75.1023 52.0505 75.0503C52.0505 75.0503 52.154 74.6366 52.2919 73.9127C52.296 73.8876 52.3051 73.8636 52.3187 73.8421C52.3323 73.8206 52.3501 73.8021 52.371 73.7876C52.3919 73.7731 52.4155 73.763 52.4404 73.7579C52.4653 73.7527 52.491 73.7526 52.5159 73.7575C52.5659 73.7733 52.6088 73.806 52.6371 73.8501C52.6655 73.8942 52.6776 73.9468 52.6711 73.9988L52.4298 75.1364C52.4188 75.1791 52.3945 75.2172 52.3604 75.2451C52.3262 75.273 52.2842 75.2893 52.2402 75.2916" fill="#13110C"/>
<path d="M36.6763 19.8765C36.6763 19.8765 26.1448 18.9457 21.0084 32.2178C15.8719 45.4899 11.5801 66.2253 11.5801 66.2253C18.9495 64.8753 26.0623 62.3803 32.6602 58.8309C43.4157 52.9877 44.8464 51.1089 44.8464 51.1089C44.8464 51.1089 48.0868 28.7016 44.8464 24.5821C44.8464 24.5821 45.4324 27.6501 42.9332 27.5122C40.4339 27.3743 36.6074 19.8765 36.6074 19.8765" fill="#0095D4"/>
<path d="M35.9532 49.0918L49.5872 42.7316L50.8799 45.8169C50.8799 45.8169 35.2292 63.829 30.9201 60.623C26.611 57.417 24.3531 26.1501 34.6432 25.3745C44.9334 24.5988 35.9532 49.0918 35.9532 49.0918Z" fill="#C74593"/>
<path d="M49.1913 82.3242C49.7792 82.6855 50.4414 82.9088 51.128 82.9774C51.8146 83.0461 52.5078 82.9583 53.1557 82.7206C53.1557 82.7206 61.05 91.1837 59.7745 91.6319C58.499 92.08 47.3298 87.34 47.3988 86.3575C47.811 84.9494 48.3896 83.5954 49.1224 82.3242" fill="#C74593"/>
<path d="M50.1898 6.15625C50.0562 9.04533 49.7453 11.9235 49.2589 14.7745C48.9518 16.9238 48.1234 18.9654 46.8459 20.721C46.5042 21.1953 46.0474 21.5749 45.5187 21.8242C44.9627 21.9762 44.3734 21.9536 43.8307 21.7593C43.288 21.5651 42.8182 21.2086 42.485 20.7383C41.7304 19.7478 41.2117 18.5983 40.9682 17.3772C40.2971 14.7673 40.0241 12.0709 40.1582 9.37946" fill="#E3E3E3"/>
<path d="M50.1901 6.15617C49.673 2.86402 47.6908 -0.979713 41.1581 0.226837C30.1958 2.2435 34.2636 12.706 34.2636 12.706C34.6428 15.7224 38.4004 17.5322 38.4004 17.5322C45.6397 16.3602 49.3283 8.19007 50.1384 6.15617" fill="#142B2A"/>
<path d="M34.5387 4.9843C31.2293 4.26037 27.5407 6.24253 24.7139 8.62116C20.2497 12.3615 16.9059 17.2394 12.9243 21.4106C9.64934 24.8579 5.71936 28.3052 4.77135 32.7522C4.34141 34.9759 4.61871 37.2784 5.56427 39.3365C6.2892 41.2541 7.60897 42.8894 9.33032 44.0028C11.0517 45.1163 13.0842 45.6495 15.1305 45.5244C16.8907 45.2202 18.5614 44.5289 20.022 43.5006C21.4826 42.4722 22.6966 41.1324 23.5764 39.5778C25.2363 36.587 26.0077 33.1845 25.7998 29.7702C25.603 28.0522 25.603 26.3173 25.7998 24.5993C26.6174 21.5739 28.4412 18.9172 30.9708 17.067C34.125 14.4643 38.0894 12.4304 39.882 8.8797C40.2174 8.3707 40.4034 7.77782 40.4186 7.16841C40.4338 6.55901 40.2777 5.95753 39.9681 5.43241C39.7785 5.22557 39.52 5.01873 39.5372 4.72571" fill="#142B2A"/>
<path d="M47.9316 40.7498L62.6343 25.5645L67.8914 32.6659L56.4464 45.507L47.9316 40.7498Z" fill="#9BCEA4"/>
<path d="M49.5 42.7324C49.5 42.7324 51.8614 38.8887 52.5164 38.8887C53.1714 38.8887 52.275 41.0949 52.275 41.0949C53.7453 40.2784 55.2585 39.5419 56.8082 38.8887C57.2219 38.8887 54.3607 41.4914 54.3607 41.4914C54.3607 41.4914 57.222 39.492 57.4116 39.7677C57.6012 40.0435 54.7227 42.2498 54.7227 42.2498C54.7227 42.2498 56.9978 40.9743 56.9978 41.4397C56.9978 41.9051 54.3607 43.1633 54.3607 43.1633C54.3607 43.1633 55.9809 42.8531 55.9809 43.1633C54.3183 44.1523 52.5907 45.0276 50.81 45.7832L49.5 42.7324Z" fill="#0095D4"/>
<path d="M67.8931 32.6662L66.6003 24.8926L63.9805 27.3919L67.8931 32.6662Z" fill="#C74593"/>
<path d="M47.2606 17.0325C47.0426 17.0495 46.8236 17.0495 46.6056 17.0325C46.5802 17.0266 46.5562 17.0155 46.5353 16.9999C46.5144 16.9843 46.4969 16.9646 46.484 16.942C46.471 16.9193 46.4629 16.8942 46.4601 16.8683C46.4573 16.8423 46.4599 16.8161 46.4677 16.7912C46.4718 16.7661 46.481 16.7421 46.4946 16.7207C46.5082 16.6992 46.526 16.6806 46.5469 16.6662C46.5678 16.6517 46.5913 16.6416 46.6162 16.6364C46.6411 16.6312 46.6668 16.6311 46.6917 16.6361C47.1154 16.7479 47.5608 16.7479 47.9845 16.6361C48.2443 15.1889 48.4112 13.7266 48.4843 12.2581C48.4865 12.2331 48.4935 12.2088 48.5051 12.1866C48.5167 12.1644 48.5326 12.1448 48.5518 12.1288C48.5711 12.1127 48.5933 12.1007 48.6172 12.0933C48.6411 12.0859 48.6663 12.0833 48.6912 12.0857C48.7176 12.0856 48.7437 12.091 48.7679 12.1016C48.7921 12.1122 48.8139 12.1277 48.8318 12.1472C48.8496 12.1667 48.8632 12.1896 48.8716 12.2147C48.8801 12.2397 48.8832 12.2662 48.8808 12.2925C48.7946 13.7665 48.6219 15.2341 48.3637 16.6878C48.3719 16.7565 48.3719 16.8259 48.3637 16.8946C48.3026 16.9682 48.2168 17.0172 48.1224 17.0325C47.8544 17.1148 47.5753 17.1555 47.295 17.1532" fill="#142B2A"/>
<path d="M47.0514 14.1196H46.8617C46.7995 14.0934 46.7501 14.0439 46.7239 13.9817C46.7155 13.9362 46.7155 13.8894 46.7239 13.8438C46.7066 13.7995 46.7066 13.7503 46.7239 13.706C46.7377 13.6505 46.7633 13.5987 46.799 13.554C46.8347 13.5094 46.8797 13.473 46.9307 13.4474C47.0313 13.4132 47.1404 13.4132 47.241 13.4474C47.2925 13.4747 47.3365 13.514 47.3695 13.562C47.4026 13.61 47.4235 13.6653 47.4306 13.7232C47.4403 13.782 47.436 13.8424 47.418 13.8993C47.4001 13.9562 47.3689 14.0081 47.3272 14.0506C47.2539 14.109 47.1623 14.1396 47.0687 14.1369" fill="#142B2A"/>
<path d="M46.7246 19.4461C46.1877 19.3369 45.7025 19.0518 45.3457 18.636C45.3118 18.5981 45.293 18.549 45.293 18.4981C45.293 18.4473 45.3118 18.3981 45.3457 18.3602C45.3634 18.3414 45.3848 18.3265 45.4085 18.3162C45.4322 18.306 45.4577 18.3008 45.4835 18.3008C45.5093 18.3008 45.5349 18.306 45.5586 18.3162C45.5823 18.3265 45.6037 18.3414 45.6214 18.3602C45.9222 18.7049 46.328 18.9411 46.7762 19.0325C46.8013 19.0366 46.8253 19.0457 46.8468 19.0593C46.8683 19.0729 46.8868 19.0907 46.9013 19.1116C46.9158 19.1325 46.9259 19.1561 46.9311 19.181C46.9362 19.2059 46.9364 19.2316 46.9314 19.2565C46.9238 19.3024 46.9009 19.3443 46.8665 19.3756C46.8321 19.4069 46.7882 19.4256 46.7418 19.4289" fill="#142B2A"/>
<path d="M48.7079 12.3961H48.6045C48.0846 12.0105 47.5013 11.7188 46.8809 11.5342C46.8555 11.5283 46.8316 11.5172 46.8107 11.5016C46.7898 11.486 46.7723 11.4663 46.7594 11.4437C46.7464 11.421 46.7383 11.396 46.7355 11.37C46.7327 11.3441 46.7353 11.3178 46.743 11.2929C46.7468 11.2682 46.7558 11.2446 46.7697 11.2237C46.7835 11.2028 46.8018 11.1852 46.8231 11.172C46.8444 11.1589 46.8683 11.1506 46.8932 11.1477C46.918 11.1447 46.9433 11.1472 46.9671 11.155C47.6586 11.3457 48.3117 11.6548 48.8976 12.0686C48.9164 12.0863 48.9314 12.1077 48.9416 12.1314C48.9518 12.1551 48.957 12.1807 48.957 12.2065C48.957 12.2323 48.9518 12.2578 48.9416 12.2816C48.9314 12.3053 48.9164 12.3266 48.8976 12.3444C48.8732 12.3553 48.8467 12.3609 48.82 12.3609C48.7932 12.3609 48.7668 12.3553 48.7424 12.3444" fill="#142B2A"/>
</svg>
