<svg width="94" height="120" viewBox="0 0 94 120" fill="none" xmlns="http://www.w3.org/2000/svg">
<path d="M64.7559 70.4436C73.1443 68.8774 80.8993 64.9145 87.0831 59.0341C88.0832 58.251 88.9185 57.2777 89.5408 56.1703C90.163 55.0629 90.56 53.8433 90.7088 52.5817C90.7088 48.2597 85.9156 45.5149 84.8709 41.3362C83.9901 37.7106 86.1409 34.1054 86.9193 30.4593C88.7629 22.4501 83.5395 13.806 76.1653 10.6105C68.7912 7.41507 60.0036 9.05377 53.2235 13.4578C50.971 15.2784 48.4016 16.6673 45.6445 17.5545C43.4162 17.8001 41.1632 17.6964 38.9668 17.2473C31.5377 16.2035 23.9854 17.9474 17.7662 22.1429C14.6793 24.3062 12.1643 27.187 10.4373 30.5375C8.71033 33.888 7.82305 37.6079 7.85196 41.3771C8.10837 43.198 8.10837 45.0459 7.85196 46.8668C6.95068 50.3081 3.32504 52.889 3.61181 56.4327C3.81665 58.9522 5.94705 60.7753 7.93398 62.2501C12.6316 65.746 17.4657 69.0234 22.4364 72.0823C26.7994 74.7656 32.1047 77.3261 36.775 75.1753" fill="#9BCEA4"/>
<path d="M78.9704 8.48047H74.8532H70.7564L67.8682 12.3314V22.5733H74.8532H81.8586V12.3314L78.9704 8.48047Z" fill="#CA5098"/>
<path d="M78.7074 16.387C78.6872 17.1439 78.4443 17.8781 78.0091 18.4978C77.5739 19.1175 76.9657 19.5951 76.2605 19.8709C75.5553 20.1467 74.7844 20.2085 74.0443 20.0486C73.3041 19.8886 72.6276 19.514 72.0993 18.9716C71.5709 18.4292 71.2142 17.743 71.0737 16.999C70.9332 16.2549 71.0151 15.4859 71.3094 14.7882C71.6036 14.0904 72.097 13.4949 72.7279 13.0762C73.3588 12.6574 74.0992 12.4339 74.8564 12.4336C75.3693 12.4389 75.8759 12.5456 76.3474 12.7474C76.8189 12.9492 77.2459 13.2423 77.6038 13.6097C77.9616 13.977 78.2434 14.4115 78.4328 14.8882C78.6222 15.3648 78.7155 15.8741 78.7074 16.387Z" fill="white"/>
<path d="M75.2827 0H73.8897L71.4521 6.75964H78.089L75.2827 0Z" fill="#CA5098"/>
<path d="M71.4938 23.9863H67.8682V76.4862H71.4938V23.9863Z" fill="#CA5098"/>
<path d="M76.6774 23.9863H73.0518V76.4862H76.6774V23.9863Z" fill="#CA5098"/>
<path d="M81.8609 23.9863H78.2354V76.4862H81.8609V23.9863Z" fill="#CA5098"/>
<path d="M77.2934 17.0228H74.3232V13.9912H75.204V16.1215H77.2934V17.0228Z" fill="#CA5098"/>
<path d="M38.9277 45.474C39.0506 48.202 40.1063 50.8052 41.9183 52.8482C42.628 53.7486 43.6102 54.395 44.718 54.6904C45.8259 54.9858 46.9996 54.9144 48.0634 54.4869C49.0544 53.8642 49.8829 53.0146 50.4805 52.0083C51.4782 50.721 52.3045 49.3094 52.9385 47.8092C53.8114 45.2852 53.89 42.5544 53.1638 39.9844C52.8466 38.2302 51.8631 36.6667 50.4191 35.6213C49.3183 35.0457 48.0621 34.8375 46.8344 35.0273C44.8885 35.2321 39.9929 34.167 39.6651 37.9155C39.2884 40.4184 39.0763 42.9433 39.0301 45.474" fill="#FAFAFA"/>
<path d="M53.4697 44.6957C53.4697 44.6957 52.6094 54.323 46.1775 54.7122C39.7456 55.1014 47.7957 44.1631 47.7957 44.1631L53.4697 44.6957Z" fill="#FAFAFA"/>
<path d="M49.2476 53.6671C48.6665 54.1823 47.96 54.5356 47.1992 54.6913C45.8268 55.0805 47.7318 53.3803 47.7318 53.3803L48.8379 52.9092L49.2476 53.6671Z" fill="#FAFAFA"/>
<path d="M43.206 45.1055C43.1738 45.1202 43.1389 45.1278 43.1036 45.1278C43.0682 45.1278 43.0333 45.1202 43.0012 45.1055C42.8673 44.9612 42.7059 44.8452 42.5265 44.7643C42.347 44.6834 42.1532 44.6392 41.9565 44.6343C41.7586 44.6218 41.5601 44.6498 41.3734 44.7167C41.1867 44.7837 41.0156 44.8881 40.8708 45.0235C40.8212 45.0711 40.7552 45.0977 40.6865 45.0977C40.6178 45.0977 40.5517 45.0711 40.5021 45.0235C40.4517 44.9672 40.4238 44.8943 40.4238 44.8187C40.4238 44.7431 40.4517 44.6702 40.5021 44.6139C40.7009 44.4326 40.9335 44.2923 41.1866 44.2009C41.4396 44.1095 41.7082 44.0689 41.977 44.0813C42.5191 44.1104 43.0274 44.3535 43.3904 44.7573C43.4165 44.7803 43.4374 44.8087 43.4518 44.8405C43.4661 44.8723 43.4735 44.9067 43.4735 44.9416C43.4735 44.9765 43.4661 45.011 43.4518 45.0427C43.4374 45.0745 43.4165 45.1029 43.3904 45.126C43.3649 45.1386 43.3368 45.1452 43.3084 45.1452C43.2799 45.1452 43.2519 45.1386 43.2265 45.126" fill="#13110C"/>
<path d="M48.5739 44.8182C48.5297 44.8151 48.4868 44.8026 48.4479 44.7814C48.409 44.7602 48.3751 44.7308 48.3486 44.6953C48.2997 44.6423 48.2725 44.5728 48.2725 44.5007C48.2725 44.4286 48.2997 44.3591 48.3486 44.3061C48.6973 44.0654 49.097 43.9088 49.5163 43.8484C49.9356 43.7879 50.3632 43.8254 50.7657 43.9579C50.8351 43.9814 50.8928 44.0305 50.9271 44.0953C50.9614 44.1601 50.9696 44.2355 50.9501 44.3061C50.9386 44.3402 50.9203 44.3716 50.8964 44.3985C50.8725 44.4254 50.8435 44.4471 50.8109 44.4624C50.7784 44.4777 50.7431 44.4863 50.7072 44.4876C50.6712 44.4889 50.6353 44.4829 50.6018 44.47C50.2615 44.3556 49.8993 44.322 49.5438 44.3718C49.1883 44.4216 48.8492 44.5534 48.5534 44.7567C48.5069 44.7723 48.4565 44.7723 48.41 44.7567" fill="#13110C"/>
<path d="M46.3629 48.2194H45.8918C45.6582 48.1638 45.4451 48.043 45.2773 47.8712C45.1435 47.6876 45.0521 47.4767 45.0095 47.2536C44.967 47.0304 44.9746 46.8006 45.0316 46.5807C45.111 45.9816 45.2204 45.3868 45.3592 44.7986C45.3671 44.7633 45.3821 44.7299 45.4032 44.7006C45.4244 44.6712 45.4513 44.6465 45.4824 44.6279C45.5134 44.6093 45.5479 44.5973 45.5838 44.5924C45.6196 44.5876 45.6562 44.5902 45.691 44.6C45.7259 44.6097 45.7584 44.6265 45.7866 44.6492C45.8147 44.6719 45.838 44.7002 45.8548 44.7322C45.8717 44.7642 45.8819 44.7993 45.8847 44.8354C45.8876 44.8715 45.883 44.9077 45.8713 44.942C45.7374 45.5095 45.6349 46.0839 45.5642 46.6627C45.458 46.9325 45.458 47.2326 45.5642 47.5025C45.6568 47.6005 45.7792 47.6653 45.9123 47.6868C46.1151 47.7277 46.324 47.7277 46.5268 47.6868C46.5967 47.6803 46.6667 47.6996 46.7234 47.7411C46.78 47.7826 46.8194 47.8435 46.8341 47.9122C46.8415 47.9846 46.8229 48.0574 46.7816 48.1174C46.7404 48.1774 46.6792 48.2208 46.6088 48.2399H46.2605" fill="#13110C"/>
<path d="M45.892 51.0264C45.6671 51.0467 45.4408 51.0467 45.216 51.0264C44.8843 50.9766 44.5648 50.8655 44.2738 50.6987C44.2143 50.6606 44.1709 50.602 44.152 50.5339C44.1331 50.4659 44.1401 50.3933 44.1714 50.33C44.221 50.2824 44.287 50.2559 44.3557 50.2559C44.4244 50.2559 44.4905 50.2824 44.5401 50.33C44.777 50.4584 45.0328 50.5483 45.298 50.5963C45.903 50.6949 46.5232 50.6385 47.1006 50.4324C47.1327 50.4197 47.1672 50.4139 47.2017 50.4153C47.2363 50.4168 47.2702 50.4256 47.3011 50.4411C47.332 50.4565 47.3593 50.4783 47.3813 50.5051C47.4032 50.5318 47.4192 50.5629 47.4283 50.5963C47.4412 50.6298 47.4472 50.6657 47.4459 50.7016C47.4446 50.7376 47.4361 50.7729 47.4208 50.8054C47.4054 50.8379 47.3837 50.8671 47.3569 50.891C47.33 50.9149 47.2985 50.9331 47.2644 50.9445C46.8243 51.1043 46.3601 51.1874 45.892 51.1903" fill="#13110C"/>
<path d="M40.4018 42.7093C40.3549 42.7074 40.3095 42.6931 40.2699 42.6679C40.2303 42.6428 40.1981 42.6076 40.1765 42.5659C40.1332 42.5143 40.1094 42.449 40.1094 42.3816C40.1094 42.3141 40.1332 42.2489 40.1765 42.1972C41.1969 41.5841 42.4038 41.3587 43.5768 41.5622C43.6494 41.5771 43.7135 41.6196 43.7555 41.6807C43.7976 41.7418 43.8142 41.8168 43.8021 41.89C43.7971 41.9251 43.7852 41.9589 43.7669 41.9894C43.7487 42.0198 43.7245 42.0463 43.6959 42.0673C43.6673 42.0883 43.6348 42.1034 43.6003 42.1116C43.5657 42.1199 43.5299 42.1211 43.4949 42.1153C42.4441 41.9137 41.356 42.1109 40.4428 42.6684H40.2994" fill="#13110C"/>
<path d="M50.1729 42.4623C49.5042 42.2892 48.8152 42.2065 48.1245 42.2166C48.0519 42.2167 47.9818 42.1893 47.9286 42.1399C47.8754 42.0905 47.8429 42.0227 47.8377 41.9503C47.8349 41.9136 47.8397 41.8768 47.8518 41.842C47.8639 41.8073 47.8831 41.7755 47.9081 41.7486C47.9331 41.7216 47.9634 41.7002 47.9971 41.6855C48.0308 41.6709 48.0672 41.6634 48.104 41.6635C48.8772 41.6485 49.6489 41.738 50.3982 41.9298C50.4686 41.9532 50.5282 42.0015 50.5658 42.0655C50.6035 42.1295 50.6167 42.205 50.603 42.278C50.5857 42.3358 50.5507 42.3867 50.5029 42.4235C50.4551 42.4603 50.3969 42.481 50.3367 42.4828" fill="#13110C"/>
<path d="M25.3466 117.168C25.6012 117.792 25.99 118.352 26.4856 118.809C26.9813 119.266 27.5715 119.608 28.2142 119.81C30.1275 120.221 32.1238 119.961 33.8677 119.073C35.6498 118.295 37.3296 117.25 39.1731 116.635C45.4616 114.587 52.6104 117.68 58.8579 115.447C60.6784 114.758 62.3171 113.661 63.6484 112.241C64.9798 110.821 65.9687 109.115 66.5394 107.254C67 105.381 67.2677 103.466 67.3382 101.539C66.8057 92.9972 65.802 85.3568 65.802 85.3568C74.8353 84.3139 83.5135 81.2321 91.1812 76.3439C89.7154 76.9454 88.0858 77.0179 86.5724 76.5488C80.6526 75.2173 72.4797 66.8805 68.3624 62.2102C63.0464 60.6614 57.47 60.2153 51.9754 60.8992L51.6681 61.104V61.5957C51.4992 65.0926 50.8088 68.5446 49.6198 71.8375C49.251 72.8617 48.6775 74.0088 47.5714 74.1522C47.1828 74.1765 46.7941 74.1073 46.4377 73.9505C46.0813 73.7937 45.7676 73.5538 45.523 73.2509C44.6825 72.3258 43.9915 71.2754 43.4746 70.1374C42.4914 68.089 41.5491 66.2045 40.6069 64.2176C40.3453 63.7331 40.1719 63.2059 40.0948 62.6608C40.0813 62.0559 40.1713 61.4532 40.3611 60.8787C34.8664 60.1977 29.2906 60.6438 23.9741 62.1897C19.8773 66.7576 11.6838 75.0944 5.78449 76.5283C4.24899 77.012 2.5905 76.9247 1.11426 76.2825C8.9297 81.2321 17.7704 84.3354 26.9647 85.3568C26.9647 85.3568 24.2814 105.841 25.4285 117.148" fill="#0095D4"/>
<path d="M35.3239 59.7314L35.3018 59.7535L35.3239 59.7314Z" fill="#0095D4"/>
<path d="M47.2432 54.5472C44.8876 55.7762 43.1464 53.3591 41.3234 51.4541V55.428C41.4364 57.296 41.2497 59.1701 40.7703 60.979C40.5821 61.5539 40.4921 62.1564 40.504 62.7611C40.5907 63.304 40.7636 63.8296 41.0161 64.3179C41.9583 66.3663 42.9006 68.2713 43.8838 70.2377C44.4007 71.3757 45.0918 72.4262 45.9322 73.3512C46.179 73.6516 46.4931 73.8897 46.8489 74.0462C47.2047 74.2028 47.5924 74.2735 47.9806 74.2525C49.0253 74.1091 49.6193 72.962 50.029 71.9379C51.2087 68.6424 51.8988 65.1917 52.0773 61.696L50.2748 52.3759C49.4058 53.2666 48.3952 54.0072 47.2841 54.5676" fill="#0095D4"/>
<path d="M41.3035 61.1045L39.7673 60.8792L39.46 63.0504L41.3035 67.6798L43.5363 72.7188L45.3593 76.5697L48.6368 75.3816L49.0668 70.9776" fill="#0095D4"/>
<path d="M45.9753 59.6511C45.3203 59.6477 44.6677 59.5721 44.0293 59.4257C42.7816 59.1582 41.603 58.6351 40.5675 57.8895C40.5273 57.873 40.4914 57.8476 40.4625 57.8151C40.4336 57.7827 40.4123 57.7442 40.4005 57.7024C40.3886 57.6606 40.3865 57.6166 40.3941 57.5739C40.4017 57.5311 40.4189 57.4906 40.4445 57.4555C40.47 57.4204 40.5033 57.3915 40.5416 57.3711C40.58 57.3507 40.6224 57.3392 40.6658 57.3376C40.7092 57.336 40.7524 57.3443 40.7922 57.3618C40.8319 57.3793 40.8671 57.4057 40.8952 57.4388C42.474 58.5951 44.3999 59.1785 46.3549 59.0929C48.31 59.0072 50.1775 58.2576 51.6492 56.9677C51.6988 56.9201 51.7649 56.8936 51.8336 56.8936C51.9023 56.8936 51.9683 56.9201 52.0179 56.9677C52.0445 56.9926 52.0658 57.0227 52.0804 57.0562C52.0949 57.0897 52.1024 57.1258 52.1024 57.1623C52.1024 57.1988 52.0949 57.2349 52.0804 57.2684C52.0658 57.3018 52.0445 57.332 52.0179 57.3569C50.3323 58.7671 48.2135 59.5553 46.0161 59.5896" fill="#13110C"/>
<path d="M38.9277 45.474C39.0506 48.202 40.1063 50.8052 41.9183 52.8482C42.628 53.7486 43.6102 54.395 44.718 54.6904C45.8259 54.9858 46.9996 54.9144 48.0634 54.4869C49.0544 53.8642 49.8829 53.0146 50.4805 52.0083C51.4782 50.721 52.3045 49.3094 52.9385 47.8092C53.8114 45.2852 53.89 42.5544 53.1638 39.9844C52.8466 38.2302 51.8631 36.6667 50.4191 35.6213C49.3183 35.0457 48.0621 34.8375 46.8344 35.0273C44.8885 35.2321 39.9929 34.167 39.6651 37.9155C39.2884 40.4184 39.0763 42.9433 39.0301 45.474" fill="#E3E3E3"/>
<path d="M53.4697 44.6957C53.4697 44.6957 52.6094 54.323 46.1775 54.7122C39.7456 55.1014 47.7957 44.1631 47.7957 44.1631L53.4697 44.6957Z" fill="#E3E3E3"/>
<path d="M49.2515 53.6671C48.6704 54.1823 47.9639 54.5356 47.2031 54.6913C45.8307 55.0805 47.7357 53.3803 47.7357 53.3803L48.8418 52.9092L49.2515 53.6671Z" fill="#E3E3E3"/>
<path d="M43.2089 45.1055C43.1768 45.1202 43.1418 45.1278 43.1065 45.1278C43.0711 45.1278 43.0362 45.1202 43.0041 45.1055C42.8702 44.9612 42.7088 44.8452 42.5294 44.7643C42.35 44.6834 42.1562 44.6392 41.9594 44.6343C41.7615 44.6218 41.563 44.6498 41.3763 44.7167C41.1896 44.7837 41.0186 44.8881 40.8737 45.0235C40.8241 45.0711 40.7581 45.0977 40.6894 45.0977C40.6207 45.0977 40.5546 45.0711 40.505 45.0235C40.4546 44.9672 40.4268 44.8943 40.4268 44.8187C40.4268 44.7431 40.4546 44.6702 40.505 44.6139C40.7038 44.4326 40.9365 44.2923 41.1895 44.2009C41.4426 44.1095 41.7112 44.0689 41.9799 44.0813C42.522 44.1104 43.0304 44.3535 43.3933 44.7573C43.4195 44.7803 43.4403 44.8087 43.4547 44.8405C43.469 44.8723 43.4764 44.9067 43.4764 44.9416C43.4764 44.9765 43.469 45.011 43.4547 45.0427C43.4403 45.0745 43.4195 45.1029 43.3933 45.126C43.3678 45.1386 43.3397 45.1452 43.3113 45.1452C43.2829 45.1452 43.2549 45.1386 43.2294 45.126" fill="#13110C"/>
<path d="M48.5739 44.8182C48.5297 44.8151 48.4868 44.8026 48.4479 44.7814C48.409 44.7602 48.3751 44.7308 48.3486 44.6953C48.2997 44.6423 48.2725 44.5728 48.2725 44.5007C48.2725 44.4286 48.2997 44.3591 48.3486 44.3061C48.6973 44.0654 49.097 43.9088 49.5163 43.8484C49.9356 43.7879 50.3632 43.8254 50.7657 43.9579C50.8351 43.9814 50.8928 44.0305 50.9271 44.0953C50.9614 44.1601 50.9696 44.2355 50.9501 44.3061C50.9386 44.3402 50.9203 44.3716 50.8964 44.3985C50.8725 44.4254 50.8435 44.4471 50.8109 44.4624C50.7784 44.4777 50.7431 44.4863 50.7072 44.4876C50.6712 44.4889 50.6353 44.4829 50.6018 44.47C50.2615 44.3556 49.8993 44.322 49.5438 44.3718C49.1883 44.4216 48.8492 44.5534 48.5534 44.7567C48.5069 44.7723 48.4565 44.7723 48.41 44.7567" fill="#13110C"/>
<path d="M46.3629 48.2194H45.8918C45.6582 48.1638 45.4451 48.043 45.2773 47.8712C45.1435 47.6876 45.0521 47.4767 45.0095 47.2536C44.967 47.0304 44.9746 46.8006 45.0316 46.5807C45.111 45.9816 45.2204 45.3868 45.3592 44.7986C45.3671 44.7633 45.3821 44.7299 45.4032 44.7006C45.4244 44.6712 45.4513 44.6465 45.4824 44.6279C45.5134 44.6093 45.5479 44.5973 45.5838 44.5924C45.6196 44.5876 45.6562 44.5902 45.691 44.6C45.7259 44.6097 45.7584 44.6265 45.7866 44.6492C45.8147 44.6719 45.838 44.7002 45.8548 44.7322C45.8717 44.7642 45.8819 44.7993 45.8847 44.8354C45.8876 44.8715 45.883 44.9077 45.8713 44.942C45.7374 45.5095 45.6349 46.0839 45.5642 46.6627C45.458 46.9325 45.458 47.2326 45.5642 47.5025C45.6568 47.6005 45.7792 47.6653 45.9123 47.6868C46.1151 47.7277 46.324 47.7277 46.5268 47.6868C46.5967 47.6803 46.6667 47.6996 46.7234 47.7411C46.78 47.7826 46.8194 47.8435 46.8341 47.9122C46.8415 47.9846 46.8229 48.0574 46.7816 48.1174C46.7404 48.1774 46.6792 48.2208 46.6088 48.2399H46.2605" fill="#13110C"/>
<path d="M45.892 51.0264C45.6671 51.0467 45.4408 51.0467 45.216 51.0264C44.8843 50.9766 44.5648 50.8655 44.2738 50.6987C44.2143 50.6606 44.1709 50.602 44.152 50.5339C44.1331 50.4659 44.1401 50.3933 44.1714 50.33C44.221 50.2824 44.287 50.2559 44.3557 50.2559C44.4244 50.2559 44.4905 50.2824 44.5401 50.33C44.777 50.4584 45.0328 50.5483 45.298 50.5963C45.903 50.6949 46.5232 50.6385 47.1006 50.4324C47.1327 50.4197 47.1672 50.4139 47.2017 50.4153C47.2363 50.4168 47.2702 50.4256 47.3011 50.4411C47.332 50.4565 47.3593 50.4783 47.3813 50.5051C47.4032 50.5318 47.4192 50.5629 47.4283 50.5963C47.4412 50.6298 47.4472 50.6657 47.4459 50.7016C47.4446 50.7376 47.4361 50.7729 47.4208 50.8054C47.4054 50.8379 47.3837 50.8671 47.3569 50.891C47.33 50.9149 47.2985 50.9331 47.2644 50.9445C46.8243 51.1043 46.3601 51.1874 45.892 51.1903" fill="#13110C"/>
<path d="M40.4018 42.7093C40.3549 42.7074 40.3095 42.6931 40.2699 42.6679C40.2303 42.6428 40.1981 42.6076 40.1765 42.5659C40.1332 42.5143 40.1094 42.449 40.1094 42.3816C40.1094 42.3141 40.1332 42.2489 40.1765 42.1972C41.1969 41.5841 42.4038 41.3587 43.5768 41.5622C43.6494 41.5771 43.7135 41.6196 43.7555 41.6807C43.7976 41.7418 43.8142 41.8168 43.8021 41.89C43.7971 41.9251 43.7852 41.9589 43.7669 41.9894C43.7487 42.0198 43.7245 42.0463 43.6959 42.0673C43.6673 42.0883 43.6348 42.1034 43.6003 42.1116C43.5657 42.1199 43.5299 42.1211 43.4949 42.1153C42.4441 41.9137 41.356 42.1109 40.4428 42.6684H40.2994" fill="#13110C"/>
<path d="M50.1729 42.4623C49.5042 42.2892 48.8152 42.2065 48.1245 42.2166C48.0519 42.2167 47.9818 42.1893 47.9286 42.1399C47.8754 42.0905 47.8429 42.0227 47.8377 41.9503C47.8349 41.9136 47.8397 41.8768 47.8518 41.842C47.8639 41.8073 47.8831 41.7755 47.9081 41.7486C47.9331 41.7216 47.9634 41.7002 47.9971 41.6855C48.0308 41.6709 48.0672 41.6634 48.104 41.6635C48.8772 41.6485 49.6489 41.738 50.3982 41.9298C50.4686 41.9532 50.5282 42.0015 50.5658 42.0655C50.6035 42.1295 50.6167 42.205 50.603 42.278C50.5857 42.3358 50.5507 42.3867 50.5029 42.4235C50.4551 42.4603 50.3969 42.481 50.3367 42.4828" fill="#13110C"/>
<path d="M41.1795 35.3762C41.1795 35.3762 32.986 60.3254 44.4774 77.8185C44.4774 77.8185 45.2148 83.1853 33.0474 83.9636C33.0474 83.9636 21.003 30.4191 44.4774 28.1249C67.9518 25.8308 60.4547 74.8074 58.816 81.3827C56.9282 81.3712 55.0905 80.7738 53.5568 79.673C52.0231 78.5722 50.8689 77.0224 50.2538 75.2376C50.2538 75.2376 53.8794 50.3703 52.6504 42.4636C52.6504 42.4636 44.457 40.4152 41.0976 35.622" fill="#CA5098"/>
<path d="M72.0259 116.102C71.9692 116.108 71.9124 116.092 71.8668 116.058C71.8211 116.024 71.7902 115.974 71.7801 115.917C70.6125 112.169 66.6591 110.203 63.7914 109.055L62.5624 108.564C59.3847 107.634 56.5088 105.882 54.2255 103.484C51.1734 99.5919 51.7265 94.2662 52.3206 91.4189C52.423 90.9478 52.5253 90.4972 52.6482 90.026C53.1866 88.2633 53.3745 86.4123 53.2013 84.5773C52.8646 83.1808 52.2457 81.8679 51.3826 80.7195C50.5196 79.5711 49.4306 78.6115 48.1828 77.8996C46.2644 76.6568 44.2664 75.5414 42.2016 74.5608C40.4809 73.7005 38.6988 72.8197 37.0396 71.775C35.6475 70.9715 34.429 69.8992 33.455 68.6205C32.2183 66.5558 31.5867 64.1852 31.632 61.7789C31.5108 58.439 31.8765 55.0993 32.7176 51.8648C32.7254 51.8295 32.7404 51.7961 32.7616 51.7668C32.7828 51.7374 32.8097 51.7127 32.8407 51.6941C32.8718 51.6755 32.9063 51.6634 32.9421 51.6586C32.978 51.6538 33.0146 51.6564 33.0494 51.6661C33.0843 51.6759 33.1166 51.6926 33.1448 51.7154C33.1729 51.7381 33.1962 51.7663 33.2131 51.7984C33.2299 51.8304 33.2402 51.8655 33.2431 51.9016C33.2459 51.9376 33.2413 51.9739 33.2297 52.0082C32.4044 55.1896 32.0456 58.4739 32.1645 61.7584C32.1163 64.0545 32.7124 66.3182 33.8852 68.2928C34.8226 69.5135 35.9921 70.5368 37.3264 71.3039C38.9651 72.3281 40.7267 73.2089 42.4269 74.0692C44.5123 75.0635 46.5308 76.1925 48.4696 77.449C49.7831 78.2001 50.9281 79.2132 51.8337 80.4253C52.7393 81.6375 53.3861 83.0229 53.7339 84.4954C53.9116 86.406 53.7168 88.333 53.1603 90.1694C53.0579 90.6201 52.9351 91.0707 52.8531 91.5418C52.2591 94.2866 51.7266 99.4281 54.6557 103.136C56.8968 105.479 59.7268 107.177 62.8492 108.052L64.0987 108.543C67.0689 109.731 71.1656 111.78 72.2922 115.754C72.3129 115.822 72.3076 115.895 72.2773 115.959C72.247 116.024 72.1939 116.074 72.1283 116.102" fill="#13110C"/>
<path d="M50.6843 79.7838C50.6184 79.7797 50.5559 79.7531 50.5074 79.7083C50.4588 79.6635 50.4273 79.6033 50.418 79.538C50.4216 78.5868 50.6635 77.6516 51.1215 76.8179C51.5795 75.9842 52.2389 75.2785 53.0398 74.7653C53.5519 74.3351 54.1255 73.9459 54.6581 73.5567C55.6452 72.915 56.5528 72.1587 57.362 71.3035C58.1951 70.3026 58.7554 69.1034 58.9887 67.8222C59.2219 66.5409 59.1202 65.2212 58.6934 63.9908C58.4486 63.3377 58.1612 62.7013 57.8331 62.0858C57.2293 61.0837 56.8128 59.9801 56.604 58.8289C56.5095 57.7927 56.6978 56.7502 57.1487 55.8124C57.5996 54.8746 58.2961 54.0765 59.1644 53.5031C59.1875 53.477 59.2159 53.456 59.2477 53.4417C59.2795 53.4273 59.314 53.4199 59.3489 53.4199C59.3837 53.4199 59.4182 53.4273 59.45 53.4417C59.4818 53.456 59.5102 53.477 59.5333 53.5031C59.5808 53.5527 59.6074 53.6188 59.6074 53.6875C59.6074 53.7562 59.5808 53.8223 59.5333 53.8718C58.7532 54.39 58.1268 55.1082 57.7196 55.9515C57.3123 56.7948 57.1393 57.732 57.2186 58.6651C57.4152 59.7524 57.8111 60.7941 58.3862 61.7376C58.7221 62.4042 59.023 63.088 59.2875 63.786C59.7412 65.1149 59.8457 66.5382 59.591 67.9192C59.3363 69.3002 58.731 70.5925 57.8331 71.6722C57.0073 72.5656 56.0712 73.3503 55.0473 74.0074C54.5147 74.3966 53.9616 74.7858 53.4495 75.1954C52.7221 75.6564 52.1206 76.2907 51.6987 77.0415C51.2768 77.7922 51.0479 78.636 51.0325 79.497C51.0383 79.5309 51.0369 79.5656 51.0285 79.5989C51.02 79.6322 51.0047 79.6634 50.9834 79.6904C50.9622 79.7175 50.9356 79.7397 50.9052 79.7558C50.8748 79.7719 50.8415 79.7814 50.8072 79.7838" fill="#13110C"/>
<path d="M56.7874 52.0078C57.0668 52.4654 57.4458 52.8541 57.8962 53.1449C58.3466 53.4357 58.8569 53.6212 59.3889 53.6875C60.7613 53.6875 61.7649 52.397 62.277 51.1065C62.7691 49.7869 63.0926 48.4104 63.2398 47.0098C63.6193 45.0685 63.6193 43.0722 63.2398 41.1309C63.0283 40.1767 62.5876 39.2883 61.956 38.5424C61.3243 37.7965 60.5205 37.2156 59.6142 36.8498C56.2139 35.7847 54.8414 39.738 54.4727 42.4214C53.9814 45.811 54.8342 49.2585 56.8489 52.0283" fill="#0095D4"/>
<path d="M32.3947 38.1811C31.819 38.5565 31.347 39.0707 31.0222 39.6764C29.9267 41.8643 29.3518 44.2759 29.3425 46.7228C29.1024 48.4405 29.2494 50.1901 29.7727 51.8437C29.8762 52.2331 30.0833 52.5872 30.3718 52.8685C30.6603 53.1498 31.0195 53.3478 31.4114 53.4415C31.7475 53.4329 32.078 53.3537 32.3815 53.209C32.685 53.0643 32.9548 52.8574 33.1731 52.6016C35.598 50.3457 37.1073 47.2758 37.4131 43.978C37.6384 41.356 35.9588 36.1737 32.3947 38.1811Z" fill="#0095D4"/>
<path d="M57.6894 40.9481C57.6894 40.8457 56.2761 30.3171 45.3992 30.5014C34.5223 30.6858 32.7812 42.5049 32.7607 42.6278V42.9555L34.8091 41.9313C34.8091 41.9313 36.8574 32.1401 45.3787 31.9762C53.8999 31.8124 56.1532 42.0543 56.1737 42.2181L57.5665 43.017L57.6894 40.9481Z" fill="#0095D4"/>
<path d="M25.1425 56.4542C25.3049 53.3087 25.8413 50.1937 26.7403 47.175C28.0718 43.2831 31.0214 40.1491 31.8407 40.4564C32.6601 40.7636 31.6973 41.8493 31.6973 41.8493C31.6973 41.8493 29.2597 45.5978 29.0959 46.0689C29.0959 46.0689 32.0661 40.5997 32.7625 41.501C33.459 42.4023 31.0008 45.5978 30.4888 46.8678L29.9767 48.0763C29.9767 48.0763 32.7625 43.5699 33.336 43.8362C34.5446 44.3892 30.3659 49.121 30.5913 49.8174C30.5913 49.8174 32.23 46.6834 32.7625 47.175C33.2951 47.6666 31.4721 49.715 31.2468 51.661C31.0214 53.6069 31.554 57.4988 27.15 59.3014C27.15 59.3014 14.5729 74.6642 6.35895 76.5282C-1.85503 78.3923 -1.54776 70.3831 4.06478 67.1057C9.67733 63.8283 25.163 56.4542 25.163 56.4542" fill="#FFE1E1"/>
<path d="M67.9329 56.4542C67.7705 53.3087 67.2341 50.1937 66.3351 47.175C65.0036 43.2831 62.054 40.1491 61.2346 40.4564C60.4153 40.7636 61.378 41.8493 61.378 41.8493C61.378 41.8493 63.8156 45.5978 63.9795 46.0689C63.9795 46.0689 61.0094 40.5997 60.313 41.501C59.6165 42.4023 62.0745 45.5978 62.5866 46.8678L63.0987 48.0763C63.0987 48.0763 60.3129 43.5699 59.7394 43.8362C58.5308 44.3892 62.7096 49.121 62.4842 49.8174C62.4842 49.8174 60.8456 46.6834 60.313 47.175C59.7804 47.6666 61.6034 49.715 61.8288 51.661C62.0541 53.6069 61.5215 57.4988 65.9255 59.3014C65.9255 59.3014 78.5024 74.6642 86.7164 76.5282C94.9304 78.3923 94.6231 70.3831 89.0106 67.1057C83.3981 63.8283 67.9124 56.4542 67.9124 56.4542" fill="#FFE1E1"/>
</svg>
