<svg width="127" height="121" viewBox="0 0 127 121" fill="none" xmlns="http://www.w3.org/2000/svg">
<path d="M38.1201 9.51723C33.8161 9.80661 29.2035 10.9131 26.4586 14.3686C23.4539 18.1306 23.4864 23.4926 21.8947 27.9865C20.0107 33.4167 15.8853 37.6042 11.8736 41.6045C7.86191 45.6047 3.7528 49.6901 1.64138 55.0521C-0.47003 60.4142 0.358294 67.3934 4.88971 70.7127C8.47912 73.3342 13.2379 73.0107 17.6232 73.232C24.2906 73.5799 30.807 75.4383 36.7234 78.6792C42.5054 81.8454 47.8326 86.4074 54.2968 87.4457C63.6844 88.9437 72.455 82.6795 80.0561 76.7557C82.7034 74.6789 85.4645 72.466 86.7313 69.2999C87.8683 66.4231 87.6246 63.1888 88.1119 60.1418C89.9959 48.0559 105.003 28.9909 86.6664 21.8074C80.1698 19.2711 73.3645 17.671 66.8353 14.9984C57.6913 11.3386 47.995 8.73421 38.1201 9.4151" fill="#142B2A"/>
<path d="M47.542 99.9578C47.542 99.9578 46.8274 111.056 46.0965 115.176L43.9689 115.329C43.9689 115.329 41.6463 105.865 40.8018 100.605C43.0665 100.915 45.3688 100.694 47.542 99.9578Z" fill="#0095D4"/>
<path d="M40.2977 100.399L38.8359 116.57L36.5783 117.013C35.4039 111.102 34.5687 105.122 34.0771 99.1055L40.2977 100.399Z" fill="#0095D4"/>
<path d="M45.4298 36.5498C46.0335 37.7311 46.5337 38.9675 46.924 40.2436C47.3209 41.5293 47.4046 42.8987 47.1676 44.2269C47.1095 44.6091 46.9647 44.971 46.7453 45.2823C46.5037 45.5524 46.1923 45.7429 45.849 45.8306C45.5058 45.9182 45.1457 45.8992 44.8126 45.7759C44.1451 45.5263 43.5515 45.0979 43.091 44.5333C42.0315 43.3925 41.1687 42.0678 40.541 40.6181" fill="#E3E3E3"/>
<path d="M41.5472 42.4902L40.3291 51.0695L42.7328 54.7464L45.5427 54.3038L45.7538 51.5291L44.5194 43.818" fill="#E3E3E3"/>
<path d="M41.8545 42.0815C41.9833 41.825 42.1475 41.5898 42.3418 41.3835C43.2332 40.2899 43.8871 39.0063 44.2583 37.6216L46.1423 38.0641C46.386 36.464 46.6458 34.864 46.8894 33.2468C45.1266 33.8813 43.2918 34.2705 41.4323 34.4043C39.5453 34.5566 37.793 35.4871 36.5598 36.9918C36.0858 37.7361 35.7935 38.591 35.7085 39.4814C35.6235 40.3719 35.7485 41.2705 36.0725 42.0985C36.4017 43.0235 36.9285 43.8572 37.6126 44.5358C38.2967 45.2144 39.12 45.7199 40.0193 46.0136C42.3418 46.4732 41.3186 43.4602 41.8708 42.1155" fill="#0095D4"/>
<path d="M58.4226 41.4016C58.4226 41.4016 58.7799 66.4585 49.8307 73.9824V100.146C43.5701 101.729 37.0399 101.729 30.7793 100.146C30.7793 100.146 32.5009 80.1956 32.5496 80.2808C26.053 58.5091 39.7934 49.6404 39.7934 49.6404C40.7194 50.769 41.817 51.7295 43.0417 52.4832C43.8863 52.9257 45.478 52.6704 45.7216 51.5469L51.9422 56.5345L54.3297 43.3081" fill="#CA5098"/>
<path d="M35.6045 88.315C35.5779 88.3222 35.5499 88.3222 35.5233 88.315C34.3158 85.7614 33.295 83.1153 32.4698 80.3996C32.4588 80.3634 32.461 80.3242 32.476 80.2896C32.491 80.2549 32.5178 80.2274 32.5511 80.2124C32.5681 80.2073 32.586 80.2059 32.6036 80.2084C32.6212 80.2108 32.6381 80.217 32.6534 80.2266C32.6686 80.2362 32.6817 80.2489 32.6921 80.264C32.7024 80.2792 32.7097 80.2963 32.7135 80.3145C33.5314 82.9624 34.5301 85.5451 35.7019 88.0427L38.7878 86.0681L38.2844 69.8287C38.2943 69.7986 38.313 69.7726 38.3377 69.7542C38.3625 69.7358 38.392 69.7258 38.4224 69.7258C38.4527 69.7258 38.4824 69.7358 38.5071 69.7542C38.5318 69.7726 38.5505 69.7986 38.5604 69.8287L39.0477 86.1702C39.0577 86.1883 39.0629 86.2089 39.0629 86.2298C39.0629 86.2507 39.0577 86.2712 39.0477 86.2894L35.7994 88.3831" fill="white"/>
<path d="M58.4253 41.4014L54.3649 43.2908L51.9774 56.5172L45.7568 51.5297C48.3178 58.7229 49.6856 66.3225 49.801 73.9992C58.7501 66.4753 58.3928 41.4184 58.3928 41.4184" fill="#9BCEA4"/>
<path d="M66.0898 31.3242L51.8459 37.8097C51.8459 37.8097 50.0917 39.7673 50.9525 41.5887C51.3192 42.1739 51.7968 42.6739 52.3556 43.0575C52.9144 43.4411 53.5425 43.7002 54.2009 43.8187L69.0945 37.98L66.0898 31.3242Z" fill="#CA5098"/>
<path d="M90.0152 18.4551L67.017 29.3835C66.4108 30.2187 66.0082 31.1964 65.844 32.2316C65.6799 33.2668 65.7592 34.3284 66.075 35.3243C66.7676 37.0572 68.079 38.4378 69.7294 39.1714L93.8158 29.7239L90.0152 18.4551Z" fill="#0095D4"/>
<path d="M91.199 15.5438C91.199 15.5438 85.3358 25.3998 94.8859 30.864L123.78 23.5784L116.439 1.95996L91.199 15.5438Z" fill="#CA5098"/>
<path d="M112.068 10.9988C112.377 17.0418 116.015 23.0166 121.391 24.8721C122.031 25.1362 122.725 25.2185 123.405 25.1104C124.834 24.7699 125.614 23.1358 125.987 21.7059C127.352 16.3779 125.987 10.6584 123.974 5.61975C123.414 4.0318 122.508 2.60338 121.326 1.44924C115.268 -3.65748 111.808 5.97721 112.068 11.0839" fill="#CA5098"/>
<path d="M62.3026 79.1057C62.2697 79.0941 62.2418 79.0706 62.224 79.0394C62.2061 79.0082 62.1994 78.9714 62.2051 78.9355L71.2355 34.8134C71.2282 34.7928 71.2258 34.7707 71.2284 34.7489C71.231 34.7271 71.2386 34.7063 71.2506 34.6883C71.2626 34.6702 71.2785 34.6555 71.2971 34.6454C71.3157 34.6352 71.3363 34.6299 71.3573 34.6299C71.3782 34.6299 71.3989 34.6352 71.4174 34.6454C71.436 34.6555 71.452 34.6702 71.4639 34.6883C71.4759 34.7063 71.4836 34.7271 71.4862 34.7489C71.4888 34.7707 71.4864 34.7928 71.4791 34.8134L62.465 78.9355C62.461 78.9686 62.4456 78.999 62.4216 79.0209C62.3977 79.0429 62.3669 79.0549 62.3351 79.0546" fill="white"/>
<path d="M80.7055 69.0965C80.676 69.0975 80.6471 69.0879 80.6234 69.0694C80.5998 69.0508 80.583 69.0244 80.5756 68.9944L73.0882 34.7964C73.0801 34.7787 73.0764 34.7591 73.0773 34.7395C73.0782 34.7199 73.0837 34.7008 73.0933 34.6839C73.103 34.6671 73.1165 34.653 73.1326 34.6429C73.1487 34.6328 73.1669 34.6271 73.1856 34.6262C73.2027 34.6238 73.2201 34.625 73.2367 34.6297C73.2534 34.6344 73.2689 34.6426 73.2825 34.6537C73.2961 34.6648 73.3075 34.6786 73.3159 34.6943C73.3244 34.7101 73.3298 34.7274 73.3318 34.7454L80.8354 68.9263C80.8403 68.9442 80.8416 68.9629 80.8392 68.9814C80.8369 68.9998 80.831 69.0176 80.8218 69.0335C80.8127 69.0495 80.8006 69.0633 80.7862 69.0742C80.7717 69.085 80.7553 69.0926 80.738 69.0965" fill="white"/>
<path d="M72.7173 69.0955C72.6976 69.1074 72.6752 69.1137 72.6524 69.1137C72.6296 69.1137 72.6072 69.1074 72.5874 69.0955L72.1164 35.5103C72.1141 35.4933 72.1153 35.4759 72.1199 35.4595C72.1246 35.443 72.1326 35.4277 72.1434 35.4148C72.1542 35.4019 72.1675 35.3915 72.1825 35.3845C72.1974 35.3775 72.2137 35.3739 72.2301 35.3741C72.2485 35.3717 72.2671 35.3734 72.2848 35.3792C72.3025 35.3849 72.3188 35.3946 72.3327 35.4075C72.3465 35.4204 72.3575 35.4362 72.3651 35.4539C72.3726 35.4716 72.3764 35.4909 72.3763 35.5103L72.8473 69.0955C72.8473 69.0955 72.8473 69.2316 72.7173 69.2316V69.0955Z" fill="white"/>
<path d="M116.081 10.8966C116.568 15.1522 118.923 19.5099 122.074 21.11C122.421 21.3281 122.825 21.4236 123.227 21.3824C124.023 21.2292 124.381 20.1397 124.527 19.1184C124.827 15.2189 124.149 11.305 122.561 7.76444C122.207 6.65088 121.656 5.61717 120.937 4.71741C117.234 0.768219 115.756 7.32186 116.162 10.8795" fill="#0095D4"/>
<path d="M46.0487 42.7799C46.0307 42.7878 46.0114 42.7919 45.9918 42.7919C45.9723 42.7919 45.953 42.7878 45.935 42.7799C45.9139 42.7504 45.9025 42.7146 45.9025 42.6777C45.9025 42.6409 45.9139 42.6051 45.935 42.5756L46.0649 42.4734C46.0649 42.4734 46.0649 42.4734 46.1461 42.4734L46.4872 42.2181C46.2682 41.4335 45.8728 40.7155 45.3341 40.1244C45.3202 40.1116 45.3092 40.0959 45.3016 40.0782C45.294 40.0606 45.29 40.0416 45.29 40.0222C45.29 40.0029 45.294 39.9838 45.3016 39.9662C45.3092 39.9486 45.3202 39.9328 45.3341 39.9201C45.3582 39.8961 45.3901 39.8828 45.4234 39.8828C45.4566 39.8828 45.4886 39.8961 45.5127 39.9201C46.1199 40.5671 46.5516 41.3722 46.7633 42.2522C46.778 42.2748 46.7858 42.3014 46.7858 42.3287C46.7858 42.3561 46.778 42.3828 46.7633 42.4054L46.1461 42.8479" fill="#13110C"/>
<path d="M46.4859 44.0895L45.5764 43.8852C45.4694 43.8668 45.3655 43.8324 45.2678 43.7831C45.2366 43.7655 45.2118 43.7376 45.1972 43.7038C45.1825 43.67 45.1788 43.6321 45.1866 43.5958C45.2107 43.5719 45.2427 43.5586 45.2759 43.5586C45.3092 43.5586 45.3411 43.5719 45.3652 43.5958H45.6414L46.5509 43.8002C46.5682 43.8041 46.5846 43.8117 46.599 43.8225C46.6135 43.8334 46.6256 43.8472 46.6348 43.8632C46.6439 43.8791 46.6498 43.8968 46.6522 43.9153C46.6545 43.9337 46.6532 43.9524 46.6483 43.9703C46.6444 44.0034 46.6289 44.0339 46.605 44.0558C46.581 44.0778 46.5503 44.0898 46.5184 44.0895" fill="#13110C"/>
<path d="M38.2188 86.5449C38.8718 87.2528 39.3705 88.1007 39.6805 89.0302L36.4322 89.2175L35.9287 87.8727L38.2188 86.5449Z" fill="white"/>
<path d="M34.5975 94.6298C41.0129 93.8468 40.8992 88.8252 40.8992 88.8252H34.0615" fill="#9BCEA4"/>
<path d="M39.031 117.44H36.6272C36.6272 117.44 36.5136 117.712 36.3999 118.087C36.1503 118.867 36.1221 119.707 36.3187 120.504H37.2931L37.7317 119.568C39.1333 120.05 40.5827 120.364 42.052 120.504C42.8641 120.351 39.031 117.389 39.031 117.389" fill="#142B2A"/>
<path d="M46.3056 115.873H43.918C43.918 115.873 43.8043 116.146 43.6906 116.52C43.442 117.3 43.4082 118.138 43.5932 118.937H44.584L45.0225 118.001C46.4212 118.473 47.8641 118.787 49.3265 118.937C50.1548 118.784 46.3056 115.822 46.3056 115.822" fill="#142B2A"/>
<path d="M44.6488 42.421C44.5038 42.4259 44.3596 42.3968 44.2266 42.3359C43.9778 42.2303 43.7515 42.0741 43.5607 41.8763C43.3465 41.7006 43.2066 41.4439 43.1709 41.1613C43.1779 41.0271 43.2053 40.8949 43.2521 40.7698C43.4145 40.4123 43.918 39.7314 44.4052 39.7314C44.8925 39.7314 45.5259 40.5996 45.5909 41.1443C45.6258 41.3721 45.595 41.6056 45.5024 41.8149C45.4098 42.0242 45.2596 42.1996 45.0711 42.3188C44.9399 42.3868 44.7953 42.4218 44.6488 42.421ZM43.5282 40.906C43.516 40.9849 43.516 41.0654 43.5282 41.1443C43.5282 41.3315 43.6906 41.5018 43.8206 41.6379C43.9815 41.809 44.1753 41.9425 44.389 42.0295C44.484 42.0721 44.5862 42.0941 44.6895 42.0941C44.7928 42.0941 44.895 42.0721 44.99 42.0295C45.1191 41.9413 45.2204 41.8151 45.2811 41.6666C45.3418 41.5182 45.3592 41.3541 45.331 41.1953C45.331 40.7528 44.86 40.0719 44.454 40.0719C44.1454 40.0719 43.7231 40.5655 43.5769 40.906" fill="#CA5098"/>
<path d="M39.3224 42.0475L39.0625 41.8773L39.5985 40.9921C39.6374 40.9154 39.7005 40.8552 39.7771 40.8219C39.7998 40.81 39.8249 40.8037 39.8502 40.8037C39.8756 40.8037 39.9007 40.81 39.9234 40.8219C41.0726 40.8748 42.2173 41.0055 43.3503 41.2134V41.5369C42.228 41.3299 41.0942 41.1991 39.9558 41.1453L39.3224 42.0475Z" fill="#CA5098"/>
<path d="M45.4281 40.9574L45.2656 40.6851L46.2889 39.9531L46.4513 40.2255L45.4281 40.9574Z" fill="#CA5098"/>
<path d="M18.1137 54.6436C18.1065 54.7214 18.1158 54.8 18.1411 54.8736C18.1664 54.9472 18.2069 55.014 18.2599 55.0691C18.2907 55.1067 18.3297 55.1359 18.3736 55.1542C18.4248 55.1874 18.4839 55.2049 18.5441 55.2049C18.6044 55.2049 18.6634 55.1874 18.7146 55.1542C18.8002 55.0502 18.8464 54.917 18.8446 54.7797C18.8538 54.7348 18.8538 54.6884 18.8446 54.6436C18.8213 54.5633 18.7739 54.493 18.7096 54.4431C18.6453 54.3932 18.5673 54.3662 18.4873 54.3662C18.4072 54.3662 18.3293 54.3932 18.265 54.4431C18.2007 54.493 18.1533 54.5633 18.13 54.6436" fill="white"/>
<path d="M25.7429 51.4093C25.7369 51.4844 25.7469 51.5601 25.7722 51.6307C25.7975 51.7013 25.8374 51.7653 25.889 51.8178H25.9865C26.0378 51.851 26.0968 51.8685 26.157 51.8685C26.2173 51.8685 26.2763 51.851 26.3276 51.8178C26.3758 51.7698 26.4137 51.7115 26.4389 51.647C26.4641 51.5824 26.476 51.513 26.4737 51.4433C26.4829 51.3985 26.4829 51.352 26.4737 51.3071C26.443 51.2281 26.3884 51.1618 26.3184 51.1182C26.2483 51.0747 26.1666 51.0563 26.0857 51.066C26.0047 51.0756 25.929 51.1127 25.8701 51.1716C25.8111 51.2305 25.7722 51.308 25.7591 51.3923" fill="white"/>
<path d="M25.3728 65.4013C25.3668 65.4765 25.3769 65.5521 25.4021 65.6228C25.4274 65.6934 25.4673 65.7573 25.5189 65.8099C25.5497 65.8475 25.5887 65.8767 25.6326 65.895C25.6813 65.935 25.7413 65.9568 25.8032 65.9568C25.865 65.9568 25.925 65.935 25.9737 65.895C26.0592 65.791 26.1055 65.6578 26.1036 65.5205C26.1116 65.4755 26.1116 65.4293 26.1036 65.3843C26.0729 65.3053 26.0183 65.2389 25.9483 65.1954C25.8782 65.1519 25.7965 65.1335 25.7155 65.1431C25.6346 65.1528 25.5589 65.1899 25.5 65.2488C25.441 65.3077 25.4021 65.3852 25.389 65.4694" fill="white"/>
<path d="M19.5721 46.3369C19.568 46.4145 19.5789 46.4922 19.604 46.5653C19.6291 46.6384 19.668 46.7055 19.7184 46.7625L19.8158 46.8476C19.8671 46.8807 19.9261 46.8983 19.9863 46.8983C20.0465 46.8983 20.1056 46.8807 20.1569 46.8476C20.2048 46.7957 20.2424 46.7344 20.2675 46.6672C20.2925 46.6 20.3046 46.5282 20.303 46.4561C20.3109 46.4168 20.3109 46.3762 20.303 46.3369C20.2797 46.2567 20.2324 46.1864 20.168 46.1365C20.1037 46.0865 20.0258 46.0596 19.9457 46.0596C19.8657 46.0596 19.7878 46.0865 19.7234 46.1365C19.6591 46.1864 19.6118 46.2567 19.5884 46.3369" fill="white"/>
<path d="M30.0485 40.9756C30.0426 41.0508 30.0526 41.1264 30.0779 41.197C30.1032 41.2677 30.1431 41.3316 30.1947 41.3841L30.2922 41.4862C30.3434 41.5194 30.4025 41.5369 30.4627 41.5369C30.5229 41.5369 30.582 41.5194 30.6333 41.4862C30.7285 41.3805 30.7809 41.2401 30.7794 41.0947C30.7874 41.0497 30.7874 41.0036 30.7794 40.9585C30.7487 40.8795 30.6941 40.8131 30.624 40.7696C30.554 40.7261 30.4723 40.7077 30.3913 40.7173C30.3104 40.727 30.2347 40.7641 30.1758 40.823C30.1168 40.8819 30.0778 40.9594 30.0648 41.0436" fill="white"/>
<path d="M11.3562 63.8018C11.3502 63.8769 11.3603 63.9525 11.3855 64.0232C11.4108 64.0938 11.4507 64.1577 11.5024 64.2103C11.5331 64.2479 11.5721 64.277 11.616 64.2954C11.6632 64.3313 11.7201 64.3507 11.7785 64.3507C11.8368 64.3507 11.8937 64.3313 11.9409 64.2954C11.9891 64.2473 12.0271 64.1891 12.0523 64.1246C12.0774 64.06 12.0893 63.9906 12.087 63.9209C12.095 63.8759 12.095 63.8297 12.087 63.7847C12.0563 63.7057 12.0017 63.6393 11.9317 63.5958C11.8616 63.5522 11.7799 63.5339 11.6989 63.5435C11.618 63.5532 11.5423 63.5903 11.4834 63.6492C11.4244 63.7081 11.3855 63.7855 11.3724 63.8698" fill="white"/>
<path d="M26.1193 30.6761C26.1075 30.7528 26.1131 30.8313 26.1357 30.9052C26.1582 30.9791 26.1972 31.0464 26.2492 31.1017H26.3629C26.4142 31.1348 26.4732 31.1524 26.5334 31.1524C26.5937 31.1524 26.6527 31.1348 26.704 31.1017C26.7952 30.9933 26.847 30.8546 26.8501 30.7102C26.8572 30.6708 26.8572 30.6304 26.8501 30.591C26.8328 30.5074 26.7888 30.4325 26.7252 30.3789C26.6617 30.3252 26.5826 30.2959 26.501 30.2959C26.4193 30.2959 26.3402 30.3252 26.2767 30.3789C26.2131 30.4325 26.1691 30.5074 26.1518 30.591" fill="white"/>
<path d="M41.2869 22.216C41.2808 22.2937 41.2907 22.372 41.3159 22.4454C41.3411 22.5188 41.3811 22.5857 41.4331 22.6415C41.4706 22.6493 41.5093 22.6493 41.5468 22.6415C41.5981 22.6747 41.6571 22.6922 41.7173 22.6922C41.7775 22.6922 41.8366 22.6747 41.8879 22.6415C41.9732 22.5308 42.0192 22.3923 42.0178 22.25C42.0257 22.2107 42.0257 22.1701 42.0178 22.1308C41.9944 22.0506 41.9471 21.9803 41.8828 21.9304C41.8184 21.8805 41.7405 21.8535 41.6605 21.8535C41.5804 21.8535 41.5025 21.8805 41.4382 21.9304C41.3738 21.9803 41.3265 22.0506 41.3031 22.1308" fill="white"/>
<path d="M33.7052 17.9262C33.6934 18.0029 33.6991 18.0813 33.7216 18.1553C33.7442 18.2292 33.7831 18.2966 33.8352 18.3518L33.9488 18.4369C34.0001 18.47 34.0592 18.4876 34.1194 18.4876C34.1796 18.4876 34.2387 18.47 34.29 18.4369C34.3812 18.3285 34.433 18.1899 34.4361 18.0454C34.4432 18.006 34.4432 17.9656 34.4361 17.9262C34.4188 17.8426 34.3747 17.7678 34.3112 17.7141C34.2477 17.6604 34.1685 17.6311 34.0869 17.6311C34.0053 17.6311 33.9261 17.6604 33.8626 17.7141C33.7991 17.7678 33.755 17.8426 33.7377 17.9262" fill="white"/>
<path d="M54.2826 15.8507C54.2776 15.9244 54.2864 15.9984 54.3087 16.0685C54.331 16.1386 54.3663 16.2034 54.4125 16.2592H54.5262C54.5768 16.2944 54.6361 16.3131 54.6967 16.3131C54.7574 16.3131 54.8167 16.2944 54.8673 16.2592C54.9155 16.2112 54.9535 16.153 54.9787 16.0884C55.0039 16.0239 55.0157 15.9544 55.0135 15.8847C55.0214 15.8397 55.0214 15.7936 55.0135 15.7486C54.9827 15.6695 54.9281 15.6032 54.8581 15.5596C54.788 15.5161 54.7063 15.4977 54.6254 15.5074C54.5445 15.517 54.4688 15.5541 54.4098 15.613C54.3509 15.6719 54.3119 15.7494 54.2988 15.8337" fill="white"/>
<path d="M65.3572 21.7902C65.3511 21.8679 65.361 21.9462 65.3862 22.0196C65.4115 22.093 65.4514 22.1599 65.5035 22.2157C65.541 22.2235 65.5796 22.2235 65.6171 22.2157C65.6659 22.2474 65.7222 22.2642 65.7795 22.2642C65.8369 22.2642 65.8932 22.2474 65.942 22.2157C65.9899 22.1639 66.0274 22.1026 66.0525 22.0353C66.0776 21.9681 66.0897 21.8964 66.0881 21.8242C66.096 21.7849 66.096 21.7443 66.0881 21.7051C66.0648 21.6248 66.0174 21.5545 65.9531 21.5046C65.8888 21.4547 65.8109 21.4277 65.7308 21.4277C65.6508 21.4277 65.5728 21.4547 65.5085 21.5046C65.4442 21.5545 65.3968 21.6248 65.3735 21.7051" fill="white"/>
<path d="M83.6307 38.456C83.6245 38.5338 83.6344 38.612 83.6597 38.6855C83.6849 38.7589 83.7249 38.8257 83.7769 38.8816C83.8077 38.9192 83.8466 38.9483 83.8905 38.9667C83.9418 38.9998 84.0009 39.0174 84.0611 39.0174C84.1213 39.0174 84.1804 38.9998 84.2317 38.9667C84.317 38.8559 84.363 38.7175 84.3616 38.5752C84.3695 38.5359 84.3695 38.4953 84.3616 38.456C84.3382 38.3758 84.2909 38.3055 84.2266 38.2555C84.1622 38.2056 84.0843 38.1787 84.0042 38.1787C83.9242 38.1787 83.8463 38.2056 83.7819 38.2555C83.7176 38.3055 83.6703 38.3758 83.6469 38.456" fill="white"/>
<path d="M86.5695 46.7634C86.5577 46.8374 86.5633 46.9133 86.586 46.9846C86.6086 47.0558 86.6476 47.1201 86.6994 47.1719C86.6994 47.1719 86.7807 47.1719 86.8132 47.274C86.8715 47.2978 86.9354 47.3024 86.9963 47.2872C87.0573 47.272 87.1123 47.2377 87.1542 47.1889C87.2024 47.1409 87.2404 47.0826 87.2656 47.0181C87.2908 46.9535 87.3026 46.8841 87.3004 46.8144C87.3004 46.8144 87.3004 46.7293 87.3004 46.6782C87.2696 46.5992 87.2151 46.5329 87.145 46.4893C87.0749 46.4458 86.9932 46.4274 86.9123 46.4371C86.8314 46.4467 86.7557 46.4838 86.6967 46.5427C86.6378 46.6016 86.5988 46.6791 86.5857 46.7634" fill="white"/>
<path d="M79.4079 43.8349C79.402 43.9101 79.412 43.9857 79.4373 44.0564C79.4625 44.127 79.5024 44.1909 79.5541 44.2434L79.6515 44.3286C79.7002 44.3686 79.7602 44.3903 79.822 44.3903C79.8839 44.3903 79.944 44.3686 79.9926 44.3286C80.0408 44.2805 80.0788 44.2223 80.104 44.1577C80.1292 44.0932 80.141 44.0238 80.1388 43.9541C80.1467 43.9091 80.1467 43.8629 80.1388 43.8179C80.108 43.7388 80.0534 43.6725 79.9834 43.6289C79.9133 43.5854 79.8316 43.5671 79.7507 43.5767C79.6698 43.5864 79.5941 43.6234 79.5351 43.6823C79.4761 43.7412 79.4372 43.8188 79.4241 43.903" fill="white"/>
<path d="M50.3192 31.2051C50.313 31.2828 50.3229 31.3611 50.3481 31.4345C50.3733 31.5079 50.4133 31.5748 50.4653 31.6306L50.5628 31.7157C50.614 31.7489 50.6731 31.7664 50.7333 31.7664C50.7936 31.7664 50.8526 31.7489 50.9038 31.7157C50.9505 31.6665 50.9874 31.608 51.0125 31.5437C51.0376 31.4795 51.0503 31.4107 51.05 31.3412C51.0592 31.2964 51.0592 31.2499 51.05 31.2051C51.0267 31.1248 50.9794 31.0545 50.915 31.0046C50.8507 30.9547 50.7727 30.9277 50.6927 30.9277C50.6126 30.9277 50.5347 30.9547 50.4704 31.0046C50.406 31.0545 50.3587 31.1248 50.3354 31.2051" fill="white"/>
<path d="M59.5919 30.6759C59.5801 30.7525 59.5858 30.831 59.6084 30.905C59.6309 30.9789 59.6698 31.0462 59.7219 31.1015H59.8356C59.8868 31.1346 59.9459 31.1522 60.0061 31.1522C60.0663 31.1522 60.1254 31.1346 60.1766 31.1015C60.2245 31.0496 60.2621 30.9883 60.2872 30.9211C60.3123 30.8539 60.3244 30.7821 60.3228 30.7099C60.3228 30.7099 60.3228 30.6248 60.3228 30.5908C60.2995 30.5106 60.2522 30.4403 60.1878 30.3904C60.1235 30.3404 60.0456 30.3135 59.9655 30.3135C59.8855 30.3135 59.8075 30.3404 59.7432 30.3904C59.6788 30.4403 59.6316 30.5106 59.6082 30.5908" fill="white"/>
<path d="M49.946 47.1884C49.9401 47.2636 49.9501 47.3392 49.9753 47.4099C50.0006 47.4805 50.0405 47.5444 50.0922 47.5969C50.1229 47.6345 50.162 47.6638 50.2059 47.6821C50.252 47.7208 50.3093 47.7418 50.3683 47.7418C50.4273 47.7418 50.4846 47.7208 50.5307 47.6821C50.5789 47.634 50.6169 47.5758 50.6421 47.5112C50.6673 47.4467 50.6792 47.3773 50.6769 47.3076C50.6848 47.2626 50.6848 47.2164 50.6769 47.1714C50.6461 47.0923 50.5916 47.026 50.5215 46.9824C50.4514 46.9389 50.3697 46.9206 50.2888 46.9302C50.2079 46.9399 50.1322 46.9769 50.0732 47.0359C50.0143 47.0948 49.9753 47.1723 49.9623 47.2565" fill="white"/>
<path d="M37.7967 30.2518C37.7905 30.3296 37.8005 30.4079 37.8257 30.4813C37.8509 30.5547 37.8909 30.6216 37.9429 30.6774C37.9804 30.6852 38.019 30.6852 38.0566 30.6774C38.1078 30.7105 38.1669 30.7281 38.2271 30.7281C38.2873 30.7281 38.3464 30.7105 38.3977 30.6774C38.4832 30.5734 38.5294 30.4402 38.5276 30.3029C38.5368 30.258 38.5368 30.2116 38.5276 30.1667C38.5042 30.0865 38.4569 30.0162 38.3926 29.9663C38.3282 29.9164 38.2503 29.8894 38.1703 29.8894C38.0902 29.8894 38.0123 29.9164 37.948 29.9663C37.8836 30.0162 37.8363 30.0865 37.8129 30.1667" fill="white"/>
<path d="M61.5739 46.7634C61.568 46.8385 61.578 46.9142 61.6033 46.9848C61.6285 47.0555 61.6685 47.1193 61.7201 47.1719L61.8175 47.274C61.8759 47.2978 61.9398 47.3024 62.0007 47.2872C62.0617 47.272 62.1167 47.2377 62.1586 47.1889C62.2068 47.1409 62.2448 47.0826 62.27 47.0181C62.2952 46.9535 62.3071 46.8841 62.3048 46.8144C62.3128 46.7694 62.3128 46.7232 62.3048 46.6782C62.2741 46.5992 62.2195 46.5329 62.1494 46.4893C62.0794 46.4458 61.9977 46.4274 61.9167 46.4371C61.8358 46.4467 61.7601 46.4838 61.7011 46.5427C61.6422 46.6016 61.6032 46.6791 61.5902 46.7634" fill="white"/>
<path d="M56.9926 68.9102C56.9854 68.988 56.9947 69.0666 57.02 69.1402C57.0453 69.2138 57.0858 69.2806 57.1388 69.3357L57.2362 69.4208C57.2875 69.454 57.3466 69.4715 57.4068 69.4715C57.467 69.4715 57.5261 69.454 57.5773 69.4208C57.6256 69.3728 57.6635 69.3145 57.6887 69.25C57.7139 69.1854 57.7258 69.116 57.7235 69.0463C57.7314 69.0013 57.7314 68.9552 57.7235 68.9102C57.7002 68.8299 57.6528 68.7596 57.5885 68.7097C57.5242 68.6598 57.4462 68.6328 57.3662 68.6328C57.2861 68.6328 57.2082 68.6598 57.1439 68.7097C57.0796 68.7596 57.0322 68.8299 57.0089 68.9102" fill="white"/>
<path d="M63.6189 57.64C63.6129 57.7152 63.6229 57.7909 63.6482 57.8615C63.6735 57.9321 63.7134 57.9961 63.765 58.0486C63.7933 58.0868 63.826 58.1211 63.8625 58.1507C63.9137 58.1839 63.9727 58.2014 64.033 58.2014C64.0932 58.2014 64.1523 58.1839 64.2035 58.1507C64.2988 58.045 64.3512 57.9046 64.3497 57.7592C64.3576 57.7142 64.3576 57.6681 64.3497 57.6231C64.3263 57.5428 64.279 57.4725 64.2147 57.4226C64.1503 57.3727 64.0724 57.3457 63.9924 57.3457C63.9123 57.3457 63.8344 57.3727 63.7701 57.4226C63.7057 57.4725 63.6584 57.5428 63.6351 57.6231" fill="white"/>
<path d="M44.8638 40.8896H44.7662H44.6523C44.6523 40.8896 44.5709 40.8896 44.5547 40.8896C44.5267 40.9323 44.5117 40.9829 44.5117 41.0346C44.5117 41.0864 44.5267 41.1369 44.5547 41.1796C44.5472 41.219 44.5472 41.2595 44.5547 41.2989C44.6025 41.324 44.6577 41.3292 44.709 41.3133C44.7603 41.2975 44.804 41.2619 44.8313 41.2136C44.863 41.1694 44.8801 41.1155 44.8801 41.0602C44.8801 41.0048 44.863 40.951 44.8313 40.9067" fill="#13110C"/>
<path d="M46.6809 39.7158C46.6542 39.7086 46.6263 39.7086 46.5996 39.7158H46.4695C46.4379 39.7041 46.4034 39.7041 46.3718 39.7158C46.3476 39.763 46.335 39.8157 46.335 39.8693C46.335 39.9228 46.3476 39.9756 46.3718 40.0228C46.387 40.0593 46.4121 40.0904 46.4438 40.1122C46.4756 40.134 46.5128 40.1456 46.5508 40.1456C46.5888 40.1456 46.626 40.134 46.6577 40.1122C46.6895 40.0904 46.7145 40.0593 46.7297 40.0228C46.7571 39.9767 46.7717 39.9235 46.7717 39.8693C46.7717 39.815 46.7571 39.7618 46.7297 39.7158" fill="#13110C"/>
<path d="M43.886 41.4343C43.8681 41.4287 43.8517 41.4192 43.8376 41.4064C43.8236 41.3936 43.8123 41.3778 43.8046 41.36C43.7969 41.3423 43.7929 41.323 43.793 41.3035C43.793 41.284 43.797 41.2648 43.8048 41.2471C43.8518 41.0571 43.937 40.8799 44.0547 40.7273C44.1723 40.5746 44.3197 40.45 44.4869 40.3619C44.4976 40.3477 44.5111 40.3363 44.5266 40.3284C44.5421 40.3205 44.5591 40.3164 44.5763 40.3164C44.5935 40.3164 44.6104 40.3205 44.6259 40.3284C44.6414 40.3363 44.6549 40.3477 44.6656 40.3619C44.6867 40.3913 44.698 40.4272 44.698 40.464C44.698 40.5008 44.6867 40.5367 44.6656 40.5661C44.5324 40.6378 44.4155 40.7388 44.323 40.8622C44.2305 40.9856 44.1646 41.1285 44.1296 41.2811C44.1223 41.311 44.1054 41.3375 44.0817 41.356C44.0581 41.3746 44.0292 41.3842 43.9997 41.3832" fill="#13110C"/>
<path d="M46.5986 39.1541C46.3571 39.1533 46.1166 39.1877 45.884 39.2562C45.8477 39.268 45.8173 39.2942 45.7991 39.3291C45.7809 39.3641 45.7764 39.4051 45.7866 39.4434C45.7939 39.4734 45.8108 39.4999 45.8344 39.5184C45.8581 39.537 45.887 39.5466 45.9165 39.5456C46.1587 39.47 46.411 39.4355 46.6636 39.4434C46.6363 39.3451 46.6038 39.2486 46.5662 39.1541" fill="#13110C"/>
<path d="M47.3792 41.0441C47.0735 41.0208 46.7883 40.8744 46.5833 40.6356C46.3962 40.4548 46.2496 40.2328 46.1541 39.9856C46.0586 39.7383 46.0166 39.472 46.0311 39.2057C46.0603 39.0417 46.1274 38.8876 46.2265 38.7571C46.3256 38.6265 46.4537 38.5234 46.5996 38.4567C46.7092 38.3941 46.8321 38.3613 46.9569 38.3613C47.0817 38.3613 47.2046 38.3941 47.3142 38.4567C47.5315 38.5887 47.7212 38.7653 47.8719 38.9759C48.0226 39.1865 48.1312 39.4267 48.1913 39.6823C48.2662 39.949 48.2662 40.2327 48.1913 40.4994C48.1473 40.642 48.0688 40.7703 47.9635 40.8717C47.8582 40.9731 47.7296 41.0443 47.5903 41.0782H47.4604M46.8757 40.4313C46.9547 40.5362 47.0561 40.6202 47.1718 40.6763C47.2875 40.7325 47.4142 40.7594 47.5416 40.7547C47.626 40.7243 47.7031 40.6751 47.7676 40.6104C47.8321 40.5458 47.8824 40.4673 47.9152 40.3802C47.972 40.1803 47.972 39.9673 47.9152 39.7674C47.8152 39.3461 47.5653 38.9808 47.2168 38.7461C47.1492 38.7088 47.0739 38.6893 46.9975 38.6893C46.9211 38.6893 46.8458 38.7088 46.7782 38.7461C46.6794 38.7952 46.5937 38.8689 46.5285 38.961C46.4634 39.053 46.4208 39.1605 46.4047 39.2738C46.4008 39.4882 46.4408 39.7009 46.522 39.8976C46.6033 40.0944 46.7239 40.2706 46.8757 40.4143" fill="#CA5098"/>
</svg>
