<svg width="96" height="102" viewBox="0 0 96 102" fill="none" xmlns="http://www.w3.org/2000/svg">
<path d="M15.64 51.4253C10.7653 50.526 6.25301 48.2413 2.6429 44.8446C1.47598 43.9189 0.719701 42.5717 0.537109 41.0935C0.537109 38.5764 3.33393 36.9805 3.9262 34.5128C4.45266 32.4069 3.20233 30.3175 2.70877 28.1952C2.31831 25.8514 2.7232 23.4443 3.85912 21.3573C4.99504 19.2703 6.79667 17.6235 8.97695 16.6789C11.1707 15.8523 13.5322 15.5702 15.859 15.8567C18.1857 16.1433 20.4082 16.9899 22.3359 18.3241C23.6426 19.3894 25.1384 20.1986 26.745 20.7096C28.0407 20.8545 29.3511 20.7934 30.6276 20.5286C34.9506 19.9282 39.3433 20.9414 42.9666 23.3748C44.7744 24.6379 46.2467 26.3231 47.2559 28.2841C48.265 30.2451 48.7806 32.4226 48.7577 34.6279C48.6012 35.6915 48.6012 36.7724 48.7577 37.836C49.2677 39.8267 51.39 41.3238 51.209 43.3968C51.0534 44.1034 50.7502 44.7692 50.3192 45.3504C49.8883 45.9317 49.3393 46.4153 48.7083 46.7694C45.9773 48.8094 43.1475 50.7179 40.252 52.4947C37.7184 54.0576 34.6254 55.5548 32.026 54.3044" fill="#CA5098"/>
<path d="M37.457 60.0778L42.0141 69.949L39.7274 91.9452H44.0049C47.2387 82.6156 49.2785 72.914 50.0756 63.0721C49.1683 57.1611 47.4349 51.4071 44.9262 45.9786C38.3454 32.9157 37.457 45.9786 37.457 45.9786V60.0778Z" fill="#142B2A"/>
<path d="M47.2293 9.99902C47.2293 9.99902 16.4312 27.8658 22.0578 94.9403L26.4176 97.4081C26.4176 97.4081 31.7974 84.8717 40.5004 47.7068C40.5004 47.7068 41.504 47.9865 45.107 46.5717C45.107 46.5717 50.388 28.4745 51.8851 17.9289L47.2293 9.99902Z" fill="#0095D4"/>
<path d="M45.1058 46.5717C45.1058 46.5717 42.0787 50.1417 23.0273 45.0745C23.0273 45.0745 32.1253 18.7514 47.2282 9.99902L51.884 17.9289C51.884 17.9289 50.0743 34.3808 45.1058 46.5717Z" fill="#9BCEA4"/>
<path d="M47.2297 9.99902C44.3625 14.4 42.4429 19.3497 41.5932 24.5331C40.7434 29.7165 40.9822 35.02 42.2941 40.1061C42.2941 40.1061 55.357 47.6904 66.6594 48.0688L68.4362 45.6832L50.0265 34.3644C51.9835 30.5421 54.2102 26.8641 56.6896 23.358C56.6896 23.358 55.1924 17.4024 47.1968 9.99902" fill="#0095D4"/>
<path d="M62.5272 8.08977C61.1544 9.23509 59.6846 10.2589 58.1345 11.1498C56.5748 12.0338 54.8107 12.4933 53.0179 12.4824C52.5085 12.493 52.0047 12.3741 51.5537 12.1369C51.1318 11.8439 50.7994 11.4398 50.5932 10.9693C50.387 10.4989 50.3152 9.98052 50.3857 9.47172C50.5486 8.46529 50.949 7.51217 51.5537 6.69134C52.7504 4.90068 54.2543 3.33561 55.9957 2.06836" fill="#DEDEDE"/>
<path d="M51.9504 3.86206C51.8572 3.94107 51.7878 4.04446 51.75 4.16069C51.7122 4.27692 51.7076 4.40139 51.7365 4.52012C51.8517 4.75045 52.1642 4.76693 52.411 4.75047C53.9411 4.5695 55.4546 3.73043 56.9353 4.20753C59.1399 4.91496 59.6663 8.07376 61.6735 9.27475C62.1406 9.50261 62.6496 9.63219 63.1688 9.65552C63.6881 9.67885 64.2066 9.5954 64.6923 9.41036C65.1781 9.22532 65.6207 8.94264 65.9928 8.57973C66.3649 8.21683 66.6587 7.78144 66.8559 7.3005C67.2112 6.29362 67.2436 5.201 66.9487 4.1748C66.6539 3.14859 66.0463 2.23987 65.2107 1.57521C63.4401 0.345643 61.2805 -0.192772 59.1399 0.0616663C57.7377 0.136409 56.3685 0.514947 55.1271 1.17115C53.8858 1.82735 52.8019 2.74553 51.9504 3.86206Z" fill="#142B2A"/>
<path d="M55.3884 4.61866C55.3884 4.61866 55.7669 2.80895 54.6975 2.97346C53.6281 3.13798 52.5423 4.20735 52.1475 6.41191" fill="#DEDEDE"/>
<path d="M39.8898 92.374C40.5314 93.7066 42.5385 93.3776 42.5385 93.3776C42.5385 93.3776 48.9219 95.1051 48.7409 96.2896C48.5599 97.4741 40.9098 96.2896 40.9098 96.2896V96.8161H38.8862C38.8862 96.8161 37.9978 93.2953 39.9062 92.374" fill="#0095D4"/>
<path d="M22.2389 96.4043C22.7818 97.885 24.9369 97.7534 24.9369 97.7534C24.9369 97.7534 31.5178 100.336 31.1723 101.554C30.8268 102.771 22.9463 100.649 22.9463 100.649V101.208L20.8076 100.961C20.8076 100.961 20.2481 97.1446 22.354 96.4043" fill="#CA5098"/>
<path d="M69.3235 46.2588C70.737 46.4743 72.1294 46.81 73.4858 47.2624L72.4493 48.1343C72.4493 48.1343 75.641 49.5657 75.3449 49.9934C75.0487 50.4212 72.8771 49.4505 72.8771 49.4505C72.8771 49.4505 74.7855 50.3882 74.6045 50.8324C74.4235 51.2766 72.4329 50.0756 72.4329 50.0756C72.4329 50.0756 74.0781 51.1615 73.7819 51.6386C73.4858 52.1157 71.9393 50.9805 71.9393 50.9805C71.9393 50.9805 72.91 51.7044 72.4493 52.198C71.9887 52.6915 69.1589 50.3882 67.415 48.5456L69.3235 46.2588Z" fill="#CA5098"/>
<path d="M56.2423 10.5746C56.1539 10.5466 56.0782 10.4883 56.0284 10.4101L55.6007 9.80137C55.5828 9.78445 55.5685 9.76405 55.5587 9.74142C55.5489 9.71879 55.5439 9.69442 55.5439 9.66978C55.5439 9.64513 55.5489 9.62071 55.5587 9.59808C55.5685 9.57545 55.5828 9.55505 55.6007 9.53813C55.6176 9.52021 55.638 9.50597 55.6606 9.49621C55.6833 9.48645 55.7077 9.4814 55.7323 9.4814C55.757 9.4814 55.7814 9.48645 55.804 9.49621C55.8267 9.50597 55.847 9.52021 55.864 9.53813L56.2916 10.1469C56.9376 9.92009 57.5516 9.61035 58.1179 9.22554C58.5333 8.9877 58.9013 8.67539 59.2037 8.30424V8.222C58.9574 7.65153 58.5371 7.17358 58.0027 6.85651C57.9703 6.82032 57.9524 6.77343 57.9524 6.72487C57.9524 6.67631 57.9703 6.62947 58.0027 6.59328C58.0389 6.5609 58.0857 6.54297 58.1342 6.54297C58.1828 6.54297 58.2297 6.5609 58.2659 6.59328C58.8663 6.9475 59.3387 7.48325 59.615 8.12329C59.6358 8.20423 59.6358 8.28913 59.615 8.37006C59.5994 8.45315 59.5657 8.53181 59.5162 8.60041C59.1906 9.01782 58.7887 9.3695 58.3318 9.63684C57.736 10.03 57.0953 10.3504 56.4233 10.5911H56.2753" fill="#13110C"/>
<path d="M54.8953 11.5119H54.7966C54.2874 11.1774 53.9006 10.6867 53.6943 10.1135C53.6836 10.091 53.6776 10.0665 53.6768 10.0415C53.6761 10.0166 53.6804 9.99174 53.6897 9.96856C53.699 9.94538 53.7129 9.92438 53.7307 9.90686C53.7485 9.88934 53.7697 9.87567 53.793 9.86674C53.8411 9.85058 53.8935 9.85354 53.9394 9.87497C53.9854 9.89641 54.0213 9.93471 54.0397 9.98192C54.2158 10.477 54.5515 10.8994 54.994 11.1829C55.0233 11.2205 55.0393 11.2668 55.0393 11.3145C55.0393 11.3622 55.0233 11.4085 54.994 11.4461C54.9737 11.4704 54.9486 11.4902 54.9203 11.5044C54.892 11.5186 54.8611 11.5267 54.8295 11.5284" fill="#13110C"/>
<path d="M57.6739 8.6992C57.5953 8.69691 57.5198 8.66786 57.46 8.61691C57.409 8.57283 57.37 8.51644 57.347 8.45308C57.324 8.38972 57.3175 8.32151 57.3283 8.25496C57.3288 8.18941 57.3456 8.12503 57.3772 8.06759C57.4088 8.01015 57.4543 7.96147 57.5094 7.92596C57.5613 7.89393 57.6211 7.87695 57.6821 7.87695C57.7431 7.87695 57.8029 7.89393 57.8548 7.92596C57.9168 7.96738 57.9674 8.02375 58.0019 8.08988C58.0364 8.15601 58.0537 8.22974 58.0522 8.30432C58.0463 8.37673 58.0221 8.44646 57.9818 8.5069C57.9415 8.56735 57.8865 8.61655 57.822 8.64984H57.6739" fill="#13110C"/>
<path d="M58.7103 10.3447H58.5457C58.491 10.3232 58.4451 10.2839 58.4152 10.2332C58.3854 10.1825 58.3734 10.1233 58.3812 10.065C58.3813 9.99948 58.402 9.93562 58.4404 9.88248C58.4787 9.82934 58.5329 9.78961 58.5951 9.76891C58.659 9.73704 58.7294 9.72046 58.8007 9.72046C58.8721 9.72046 58.9425 9.73704 59.0064 9.76891C59.0423 9.80203 59.0699 9.84309 59.087 9.8888C59.1042 9.93452 59.1103 9.98361 59.1051 10.0321C59.0966 10.0783 59.0773 10.1217 59.0487 10.1589C59.0201 10.1961 58.983 10.226 58.9406 10.246C58.8657 10.27 58.7852 10.27 58.7103 10.246M58.7103 9.81826V9.99921V9.81826Z" fill="#13110C"/>
<path d="M85.5786 95.5322C84.6633 95.7483 83.7904 96.1153 82.9957 96.6181C82.3047 97.0787 81.6137 97.8519 81.844 98.691C82.0743 99.53 82.7818 99.6781 83.4892 99.8426C84.9009 100.199 86.3753 100.227 87.7996 99.9249C89.2534 99.5966 90.5527 98.7845 91.4848 97.6216C91.6997 97.3958 91.8379 97.1079 91.8796 96.799C91.8796 96.1574 91.3038 95.7132 90.7445 95.5158C89.8485 95.2499 88.9139 95.1386 87.9805 95.1867" fill="#9BCEA4"/>
<path d="M84.0151 78.9652C87.106 76.4792 90.6806 74.6638 94.5114 73.6348C95.3104 75.2774 95.6482 77.1062 95.4889 78.9259C95.3295 80.7455 94.679 82.4878 93.6066 83.9666C91.6324 86.6976 86.7132 89.5602 83.3405 87.9315C79.6717 86.1547 81.8106 80.9559 84.0151 78.9652Z" fill="#9BCEA4"/>
<path d="M83.9146 90.8928C82.9743 90.8369 82.0543 90.596 81.2073 90.1838C80.3604 89.7716 79.6031 89.1963 78.979 88.4908C76.8928 85.7116 75.3774 82.5468 74.5205 79.1791V79.031H74.6686C76.0552 78.3052 77.6217 77.9953 79.1801 78.1383C80.7386 78.2813 82.2226 78.8712 83.4539 79.8371C85.7901 81.6468 88.2085 86.056 86.7443 89.0996C86.5441 89.5818 86.2221 90.0037 85.8096 90.3239C85.3972 90.6441 84.9085 90.8514 84.3917 90.9257H83.8487M74.9153 79.2613C75.7472 82.5231 77.2179 85.5875 79.2422 88.277C79.877 89.0001 80.6627 89.5752 81.5439 89.9618C82.4251 90.3484 83.3804 90.537 84.3424 90.5144C84.8018 90.4515 85.2355 90.2654 85.5976 89.9757C85.9597 89.686 86.2367 89.3036 86.3988 88.8692C87.6985 86.0395 85.3459 81.762 83.1085 80.0675C81.9538 79.1706 80.5703 78.6163 79.1158 78.4679C77.6613 78.3196 76.1944 78.5831 74.8825 79.2284" fill="#13110C"/>
<path d="M84.1289 87.8817C84.0869 87.8795 84.0467 87.8639 84.0141 87.8373C83.9816 87.8107 83.9583 87.7743 83.9479 87.7336C83.593 86.2183 82.8849 84.8085 81.8813 83.6191C80.8778 82.4297 79.6072 81.4944 78.1733 80.8896C78.1261 80.8711 78.0878 80.8352 78.0664 80.7892C78.0449 80.7433 78.042 80.6908 78.0581 80.6428C78.0821 80.6009 78.1195 80.5684 78.1643 80.5505C78.2091 80.5325 78.2586 80.5303 78.3049 80.5441C79.795 81.1672 81.1162 82.1347 82.1601 83.3673C83.2039 84.5999 83.9407 86.0624 84.3099 87.6349C84.3173 87.6586 84.3198 87.6837 84.3171 87.7084C84.3144 87.7332 84.3066 87.7571 84.2943 87.7787C84.2819 87.8004 84.2653 87.8192 84.2453 87.8341C84.2253 87.849 84.2025 87.8596 84.1782 87.8652" fill="#13110C"/>
<path d="M81.2169 81.8122C81.1939 81.8145 81.1708 81.812 81.1489 81.8047C81.127 81.7975 81.1068 81.7857 81.0898 81.7702C81.0727 81.7547 81.0591 81.7358 81.0498 81.7147C81.0405 81.6935 81.0358 81.6707 81.0359 81.6477C80.9579 81.0921 80.8424 80.5425 80.6904 80.0025C80.678 79.9544 80.6827 79.9034 80.7037 79.8584C80.7247 79.8134 80.7607 79.7771 80.8056 79.7557C80.8304 79.7481 80.8566 79.7455 80.8824 79.748C80.9083 79.7505 80.9334 79.7581 80.9563 79.7703C80.9792 79.7825 80.9995 79.7991 81.016 79.8192C81.0325 79.8393 81.0449 79.8624 81.0524 79.8873C81.2075 80.4266 81.3229 80.9764 81.3978 81.5325C81.4027 81.5824 81.3884 81.6322 81.3579 81.6719C81.3273 81.7116 81.2828 81.7383 81.2334 81.7464" fill="#13110C"/>
<path d="M83.2052 83.9006C83.1814 83.8986 83.1582 83.8918 83.137 83.8808C83.1158 83.8697 83.097 83.8546 83.0818 83.8362C83.0665 83.8179 83.055 83.7966 83.0479 83.7738C83.0409 83.751 83.0383 83.727 83.0406 83.7032C83.0901 83.1999 83.0901 82.6929 83.0406 82.1896C83.0358 82.1658 83.036 82.1413 83.0409 82.1176C83.0458 82.0938 83.0555 82.0713 83.0693 82.0513C83.0831 82.0314 83.1008 82.0144 83.1213 82.0014C83.1418 81.9884 83.1648 81.9797 83.1887 81.9757C83.2137 81.971 83.2394 81.9717 83.2642 81.9777C83.289 81.9836 83.3122 81.9947 83.3324 82.0102C83.3526 82.0257 83.3693 82.0454 83.3814 82.0678C83.3935 82.0902 83.4007 82.1149 83.4026 82.1403C83.4552 82.6874 83.4552 83.2383 83.4026 83.7855C83.4027 83.8085 83.3979 83.8314 83.3886 83.8525C83.3793 83.8736 83.3657 83.8925 83.3487 83.908C83.3316 83.9235 83.3115 83.9353 83.2896 83.9425C83.2677 83.9497 83.2445 83.9523 83.2215 83.95" fill="#13110C"/>
<path d="M84.3096 86.0563C84.2863 86.0474 84.2651 86.0337 84.2473 86.0162C84.2295 85.9987 84.2156 85.9777 84.2063 85.9545C84.197 85.9313 84.1927 85.9065 84.1935 85.8816C84.1942 85.8566 84.2002 85.8321 84.2109 85.8096C84.3913 85.3317 84.4751 84.8229 84.4576 84.3124C84.4575 84.2628 84.476 84.2149 84.5096 84.1783C84.5431 84.1417 84.5892 84.1191 84.6387 84.115C84.6638 84.1127 84.6891 84.1157 84.713 84.1237C84.7369 84.1318 84.7588 84.1448 84.7774 84.1618C84.7959 84.1788 84.8108 84.1996 84.8209 84.2227C84.831 84.2458 84.8362 84.2707 84.8361 84.296C84.8518 84.8574 84.7568 85.4164 84.5564 85.9411C84.5431 85.9788 84.5187 86.0116 84.4864 86.0351C84.454 86.0586 84.4153 86.0717 84.3754 86.0728" fill="#13110C"/>
<path d="M77.4813 83.128C77.4407 83.1296 77.4008 83.1174 77.368 83.0936C77.3352 83.0697 77.3114 83.0355 77.3003 82.9965C77.2842 82.9484 77.2871 82.8959 77.3086 82.85C77.33 82.8041 77.3683 82.7681 77.4155 82.7496C78.1081 82.5444 78.8452 82.5444 79.5378 82.7496C79.5844 82.7648 79.6237 82.7968 79.648 82.8394C79.6724 82.882 79.68 82.9321 79.6694 82.98C79.6638 83.0042 79.6532 83.027 79.6383 83.047C79.6234 83.067 79.6046 83.0837 79.583 83.096C79.5613 83.1084 79.5374 83.1161 79.5127 83.1188C79.4879 83.1215 79.4628 83.119 79.4391 83.1116C78.8169 82.923 78.1529 82.923 77.5307 83.1116" fill="#13110C"/>
<path d="M82.023 84.8552C81.2917 84.6371 80.5188 84.5977 79.7691 84.7401C79.7453 84.7448 79.7208 84.7447 79.697 84.7398C79.6732 84.7349 79.6508 84.7252 79.6308 84.7114C79.6109 84.6976 79.5939 84.6799 79.5809 84.6594C79.5679 84.6389 79.5592 84.616 79.5552 84.592C79.5479 84.5671 79.546 84.5409 79.5497 84.5152C79.5534 84.4895 79.5626 84.4648 79.5766 84.443C79.5906 84.4211 79.6093 84.4026 79.6311 84.3886C79.653 84.3745 79.6776 84.3654 79.7033 84.3617C80.5087 84.2164 81.3369 84.2615 82.1217 84.4933C82.1683 84.5085 82.2076 84.5405 82.232 84.5831C82.2563 84.6256 82.2639 84.6758 82.2534 84.7236C82.2408 84.7632 82.217 84.7983 82.1849 84.8246C82.1527 84.8509 82.1137 84.8673 82.0724 84.8717" fill="#13110C"/>
<path d="M83.2915 87.0598C83.276 87.0671 83.2591 87.0709 83.2421 87.0709C83.225 87.0709 83.2082 87.0671 83.1928 87.0598C82.6278 86.7932 81.9867 86.735 81.383 86.8952C81.3592 86.9 81.3347 86.8999 81.311 86.8949C81.2872 86.89 81.2647 86.8803 81.2447 86.8665C81.2248 86.8527 81.2078 86.835 81.1948 86.8145C81.1818 86.794 81.173 86.7711 81.1691 86.7472C81.1637 86.6953 81.1776 86.6433 81.2079 86.6009C81.2382 86.5584 81.2829 86.5286 81.3337 86.5168C82.0243 86.3392 82.756 86.4212 83.3902 86.7472C83.4081 86.7641 83.4224 86.7845 83.4321 86.8071C83.4419 86.8297 83.4469 86.8541 83.4469 86.8788C83.4469 86.9034 83.4419 86.9278 83.4321 86.9504C83.4224 86.973 83.4081 86.9935 83.3902 87.0104C83.3731 87.0342 83.351 87.054 83.3254 87.0682C83.2998 87.0824 83.2713 87.0908 83.2421 87.0926" fill="#13110C"/>
<path d="M86.6137 97.5714H86.4986C86.4679 97.5312 86.4512 97.4821 86.4512 97.4315C86.4512 97.381 86.4679 97.3319 86.4986 97.2917C87.1074 96.4515 87.5999 95.5328 87.9627 94.5607C88.2367 93.6785 88.3006 92.7444 88.1492 91.8332C87.9978 90.9219 87.6354 90.0587 87.0908 89.3125C87.0757 89.2931 87.0645 89.2708 87.058 89.2471C87.0514 89.2233 87.0497 89.1985 87.0528 89.1741C87.0558 89.1496 87.0637 89.126 87.0759 89.1046C87.088 89.0832 87.1043 89.0644 87.1237 89.0493C87.1432 89.0341 87.1654 89.023 87.1891 89.0165C87.2129 89.01 87.2377 89.0082 87.2621 89.0112C87.2866 89.0143 87.3102 89.0221 87.3316 89.0343C87.353 89.0464 87.3718 89.0627 87.3869 89.0822C87.968 89.8772 88.3541 90.7976 88.5141 91.7692C88.6741 92.7408 88.6036 93.7364 88.3082 94.6758C87.942 95.6835 87.4382 96.6358 86.8112 97.5055C86.7971 97.5333 86.7759 97.5571 86.75 97.5744C86.7241 97.5917 86.6941 97.6019 86.663 97.6042" fill="#13110C"/>
<path d="M32.7664 41.6197C32.2217 41.612 31.6864 41.4768 31.2034 41.2249C30.9786 41.113 30.7793 40.9558 30.6179 40.7633C30.4565 40.5708 30.3367 40.3471 30.2657 40.1062C29.7557 38.461 31.006 35.5984 32.1412 33.5254C32.1852 33.4483 32.2506 33.3855 32.3294 33.3447C32.4082 33.3038 32.4971 33.2866 32.5854 33.2951C32.6799 33.309 32.7681 33.3509 32.8385 33.4154C32.9089 33.48 32.9582 33.5641 32.9803 33.657C33.1612 34.4467 33.9838 35.878 37.2084 36.4374C37.2713 36.4466 37.3312 36.4708 37.3827 36.508C37.4343 36.5453 37.476 36.5944 37.5045 36.6513C37.5333 36.7043 37.5484 36.7637 37.5484 36.824C37.5484 36.8844 37.5333 36.9437 37.5045 36.9968C37.5045 37.1448 36.2378 40.4517 33.951 41.3894C33.5655 41.5515 33.1517 41.6353 32.7335 41.6362M32.5032 33.6735C30.858 36.569 30.2822 38.7407 30.6441 39.9581C30.6998 40.1515 30.7961 40.3308 30.9266 40.484C31.0571 40.6372 31.2188 40.7608 31.4008 40.8465C31.7746 41.0552 32.1906 41.1768 32.6179 41.2025C33.0451 41.2281 33.4726 41.1571 33.8686 40.9946C35.428 40.0379 36.5947 38.5561 37.159 36.8158C33.8686 36.24 32.8816 34.8251 32.6184 33.7393C32.6055 33.7334 32.5914 33.7303 32.5772 33.7303C32.563 33.7303 32.5489 33.7334 32.536 33.7393" fill="white"/>
<path d="M72.3818 48.1009L76.5606 44.8105C76.5606 44.8105 77.4326 44.8105 77.3503 45.5838L73.3361 48.6109L72.3818 48.1009Z" fill="#9BCEA4"/>
<path d="M77.334 41.9652C75.7875 43.3143 75.1129 45.124 75.8368 46.0124C76.5607 46.9008 78.4033 46.506 79.9662 45.1569C81.5292 43.8079 82.1873 41.9981 81.4634 41.1097C80.7395 40.2213 78.8969 40.6162 77.334 41.9652Z" fill="#9BCEA4"/>
<path d="M80.6413 41.225C80.6413 41.225 81.4145 42.7385 79.358 44.5976C77.3015 46.4567 76.1993 45.3544 76.1993 45.3544C76.1993 45.3544 75.4425 43.808 77.3345 41.9653C77.7226 41.4938 78.2568 41.165 78.8526 41.0309C79.4485 40.8968 80.0721 40.9651 80.6249 41.225" fill="#0095D4"/>
<path d="M78.2886 41.735C78.2886 41.9325 78.6834 41.9983 79.0125 41.8831C79.3415 41.7679 79.5719 41.5047 79.5061 41.3073C79.4403 41.1098 79.1113 41.044 78.7822 41.1592C78.4532 41.2744 78.2228 41.5376 78.2886 41.735Z" fill="white"/>
</svg>
