<svg width="68" height="102" viewBox="0 0 68 102" fill="none" xmlns="http://www.w3.org/2000/svg">
<path d="M28.2227 43.1619H3.125L6.30355 35.9395L6.66543 36.0968L3.7387 42.7528H27.6091L24.6823 36.0968L25.0442 35.9395L28.2227 43.1619Z" fill="#13110C"/>
<path d="M28.2237 18.6939C28.1556 21.0774 27.3867 23.3881 26.0129 25.3371C24.6392 27.2861 22.7216 28.7871 20.4996 29.6525C18.2777 30.5178 15.85 30.7092 13.5199 30.2028C11.1898 29.6963 9.06061 28.5144 7.39839 26.8048C5.73617 25.0951 4.61462 22.9335 4.17388 20.5901C3.73315 18.2467 3.99277 15.8253 4.92031 13.6286C5.84784 11.4319 7.40218 9.55725 9.38906 8.23886C11.376 6.92047 13.7073 6.21679 16.0918 6.21582C17.7078 6.23839 19.3034 6.57911 20.7877 7.21843C22.272 7.85776 23.6158 8.78322 24.7424 9.94195C25.869 11.1007 26.7563 12.4699 27.3536 13.9716C27.9509 15.4733 28.2466 17.078 28.2237 18.6939Z" fill="#0095D4"/>
<path d="M28.2077 13.3277C28.0811 13.144 28.0304 12.9185 28.066 12.6983C28.0481 11.9207 27.8019 11.1655 27.358 10.5268C26.9331 9.86591 26.4296 9.2837 26.0047 8.65429C25.6857 8.11237 25.339 7.58717 24.9662 7.08076C24.5846 6.56752 24.0221 6.21872 23.3927 6.10519C23.1054 6.06277 22.8121 6.0907 22.5381 6.18663C22.264 6.28256 22.0173 6.44358 21.8191 6.65588C21.5837 7.00756 21.3262 7.34394 21.0481 7.66296C20.8302 7.84558 20.5586 7.9521 20.2746 7.9663C19.9906 7.9805 19.7097 7.90159 19.4746 7.74162C19.3487 7.66294 19.2228 7.55281 19.0812 7.61576C18.9396 7.6787 18.9711 7.77311 18.9396 7.86753C18.8147 8.20424 18.7821 8.56821 18.8452 8.92176C18.8761 9.0931 18.9718 9.24594 19.1124 9.34852C19.2531 9.45109 19.4279 9.49551 19.6005 9.4725C19.805 9.4725 20.0411 9.26795 20.167 9.4725C20.1501 9.63833 20.0978 9.7986 20.0136 9.94248C19.9295 10.0864 19.8154 10.2105 19.6792 10.3065C19.3078 10.654 18.9559 11.0218 18.6249 11.408C18.4308 11.6231 18.2811 11.8744 18.1843 12.1475C18.1378 12.2833 18.1279 12.4289 18.1555 12.5698C18.1832 12.7107 18.2474 12.8418 18.3417 12.95C18.3774 12.9887 18.4215 13.0187 18.4706 13.0378C18.5196 13.0569 18.5724 13.0645 18.6249 13.0601C18.7017 13.0524 18.7737 13.0191 18.8295 12.9657C19.1442 12.7612 19.4274 12.478 19.7578 12.3049C19.9212 12.2047 20.1091 12.1517 20.3007 12.1517C20.4923 12.1517 20.6802 12.2047 20.8436 12.3049C20.9593 12.4031 21.086 12.4875 21.2212 12.5566C21.3281 12.5721 21.4373 12.5584 21.537 12.5168C21.6368 12.4753 21.7234 12.4074 21.7877 12.3206C21.9293 12.1475 22.0237 11.9429 22.1653 11.7698C22.2078 11.7241 22.2624 11.6914 22.3227 11.6754C22.4958 11.6754 22.6531 11.8171 22.6846 11.9902C22.6846 12.4937 22.2597 12.9815 22.4171 13.4535C22.5744 13.9256 22.7318 13.9728 22.7475 14.2403C22.1829 14.4252 21.5687 14.3858 21.0324 14.1301C20.639 13.9413 20.2614 13.6109 19.8208 13.6266C19.5509 13.6422 19.2925 13.7412 19.0812 13.9099C18.5675 14.3314 18.1581 14.8661 17.8851 15.4721C17.6122 16.0781 17.483 16.7389 17.5077 17.4031C17.4733 17.6787 17.5227 17.9584 17.6493 18.2056C17.7667 18.3601 17.9239 18.4798 18.104 18.5519C18.2842 18.6239 18.4805 18.6456 18.6721 18.6147C19.0497 18.6147 19.4117 18.4573 19.805 18.4259C19.9946 18.3945 20.189 18.4112 20.3704 18.4745C20.5519 18.5377 20.7145 18.6454 20.8436 18.7878C21.0295 19.1685 21.1058 19.5935 21.0639 20.0151C21.2492 20.6481 21.3808 21.2955 21.4573 21.9505C21.3543 22.5044 21.1574 23.0366 20.875 23.5241C20.7455 23.7661 20.6778 24.0363 20.6778 24.3108C20.6778 24.5853 20.7455 24.8556 20.875 25.0976C20.9345 25.1813 21.0163 25.2468 21.1111 25.2865C21.2491 25.3004 21.3878 25.2671 21.5045 25.1921C22.0331 24.9428 22.5169 24.6078 22.9363 24.2007C23.6759 23.2392 24.1286 22.0882 24.2424 20.8806C24.3525 20.2039 24.4784 19.5116 24.6043 18.8507C24.7367 18.3371 24.7688 17.8029 24.6987 17.2772C24.6379 17.1047 24.6008 16.9247 24.5886 16.7422C24.6266 16.4574 24.7117 16.1809 24.8403 15.924C24.9106 15.7991 24.9476 15.6582 24.9476 15.5148C24.9476 15.3715 24.9106 15.2306 24.8403 15.1058C24.7838 15.0477 24.7408 14.9778 24.7144 14.9012C24.7144 14.7281 24.8875 14.5865 25.0606 14.6494C25.2337 14.7124 25.3281 14.8697 25.4068 15.027C25.8474 16.0026 25.8317 17.2457 26.6184 17.9538C26.6871 18.0185 26.776 18.0573 26.8701 18.0639C27.059 18.0639 27.1534 17.8437 27.2006 17.6549C27.5783 16.2387 27.9402 14.8225 28.3021 13.4221" fill="#9BCEA4"/>
<path d="M7.42029 8.76427C7.57364 9.42817 7.50739 10.1239 7.23147 10.7469C6.99544 11.392 6.665 11.99 6.49191 12.6351C6.20773 13.7276 6.29065 14.8831 6.72793 15.9238C7.1605 16.9466 7.82912 17.8525 8.67909 18.5673C8.79696 18.6703 8.92955 18.7552 9.07247 18.8191C9.10528 18.8292 9.14023 18.8301 9.17355 18.8219C9.20687 18.8136 9.2373 18.7964 9.26157 18.7722C9.28585 18.7479 9.30305 18.7175 9.31132 18.6841C9.31959 18.6508 9.31864 18.6159 9.30854 18.5831C9.20383 18.2141 9.0777 17.8516 8.93086 17.4973C8.48379 16.7485 8.27523 15.8814 8.33291 15.0112C8.33732 14.9517 8.35702 14.8944 8.3901 14.8447C8.42318 14.7951 8.46857 14.7548 8.52177 14.7279C8.77354 14.602 8.99383 14.9168 9.26133 14.964C9.3578 14.97 9.45406 14.9497 9.53995 14.9054C9.62583 14.8611 9.69814 14.7943 9.74912 14.7122C9.85517 14.5396 9.93972 14.3546 10.0009 14.1615C10.3266 13.2398 10.9826 12.4717 11.8419 12.0057C12.1678 11.8814 12.463 11.6881 12.7073 11.4392C12.9101 11.1566 13.0349 10.8256 13.0692 10.4794C13.1555 10.1974 13.1555 9.89597 13.0692 9.61394C13.0342 9.52944 12.9737 9.45794 12.8962 9.40937C12.6287 9.18908 12.3769 9.3307 12.1251 9.40937L11.3856 9.80276C11.3856 9.80276 11.244 9.88143 11.181 9.80276C11.1148 9.79654 11.0525 9.7684 11.004 9.7228C10.9556 9.6772 10.9237 9.61678 10.9135 9.55103C10.8791 9.34573 10.9147 9.13481 11.0146 8.95217C11.1145 8.76954 11.2728 8.62577 11.4643 8.54395C11.8419 8.3394 12.2667 8.27646 12.6129 8.05617C12.7071 8.00869 12.7889 7.93985 12.8517 7.85515C12.9145 7.77046 12.9567 7.67226 12.9748 7.56838C12.9768 7.51848 12.9681 7.46876 12.949 7.42259C12.93 7.37641 12.9012 7.33486 12.8647 7.30086C12.7972 7.25553 12.7178 7.23132 12.6365 7.23132C12.5553 7.23132 12.4758 7.25553 12.4084 7.30086C10.9475 7.88418 9.33012 7.94535 7.82942 7.47397" fill="#9BCEA4"/>
<path d="M13.9831 7.89925C14.1152 8.05738 14.2166 8.23883 14.282 8.43425C14.3056 8.74851 14.3056 9.06411 14.282 9.37837C14.2794 9.41763 14.2867 9.45693 14.3032 9.49266C14.3197 9.52838 14.3449 9.55941 14.3765 9.58294C14.4056 9.59811 14.438 9.60603 14.4709 9.60603C14.5037 9.60603 14.5361 9.59811 14.5653 9.58294C14.817 9.44132 14.8957 9.11088 15.0373 8.84338C15.352 8.2297 16.1388 7.93073 16.2804 7.26985C16.3038 7.18222 16.3038 7.08997 16.2804 7.00233C16.2516 6.93154 16.2088 6.86732 16.1545 6.81352C15.8882 6.55579 15.5463 6.39034 15.1789 6.34148C14.8681 6.2789 14.5519 6.24728 14.2348 6.24707C14.046 6.24707 13.6841 6.24708 13.5582 6.35723C13.4323 6.46738 13.7471 7.66325 13.9359 7.93075" fill="#9BCEA4"/>
<path d="M9.73311 18.5036C9.73657 19.036 9.66233 19.5661 9.51279 20.0771C9.3851 20.4122 9.2954 20.7605 9.24532 21.1156C9.22069 21.2903 9.23777 21.4684 9.29521 21.6352C9.35265 21.8021 9.44878 21.953 9.57574 22.0755L9.93767 22.2958C10.1685 22.4656 10.3608 22.6825 10.5018 22.932C10.6428 23.1815 10.7294 23.458 10.7559 23.7434C10.866 24.3099 10.8346 24.8921 10.8975 25.4586C10.9604 26.025 11.0234 26.1352 11.1021 26.4656L11.4797 28.0392C11.5118 28.2098 11.5817 28.3711 11.6843 28.5112C11.7431 28.5689 11.8222 28.6011 11.9046 28.6011C11.987 28.6011 12.066 28.5689 12.1248 28.5112C12.2665 28.4011 12.2508 28.1808 12.2036 27.992C12.0914 27.6679 12.0329 27.3278 12.0304 26.9849C12.0639 26.662 12.1545 26.3477 12.298 26.0565L12.8959 24.6088C12.987 24.3656 13.1143 24.1375 13.2735 23.9322C13.5725 23.6175 14.0603 23.4445 14.1862 23.0196C14.312 22.5948 14.0446 22.1227 14.2649 21.7608C14.2649 21.6349 14.4851 21.5405 14.5795 21.4146C14.6673 21.2728 14.7139 21.1093 14.7139 20.9425C14.7139 20.7758 14.6673 20.6123 14.5795 20.4705C14.3889 20.1967 14.128 19.9792 13.8243 19.8411C13.4581 19.738 13.1472 19.4949 12.9588 19.1645C12.922 18.9879 12.8583 18.8181 12.77 18.6609C12.6986 18.576 12.6064 18.511 12.5025 18.4721L11.3538 17.9214C11.0706 17.7797 10.4726 17.4178 10.1579 17.5437C9.84324 17.6696 9.76459 18.1889 9.74886 18.5036" fill="#9BCEA4"/>
<path d="M65.8625 30.4785L66.02 30.6361C65.9567 30.6089 65.8982 30.5716 65.8467 30.5258" fill="#0095D4"/>
<path d="M31.34 33.7674C31.34 33.7674 23.6612 30.7777 23.3151 31.7533C22.9689 32.7289 26.1946 33.0436 26.1946 33.0436C26.1946 33.0436 24.4008 32.6974 24.3064 33.201C24.212 33.7045 25.8799 33.9562 25.8799 33.9562C25.8799 33.9562 24.3064 33.4055 24.1333 33.9562C23.9602 34.5069 25.5494 34.7902 25.5494 34.7902C25.5494 34.7902 24.0703 34.5542 24.0861 35.0262C24.1018 35.4983 26.7139 36.1749 28.9011 35.7501L30.3644 36.0333L31.34 33.7674Z" fill="#9BCEA4"/>
<path d="M42.4326 39.5268C38.5625 39.4976 34.7469 38.6109 31.2605 36.9305H31.1504L31.9372 33.689H32.0788C37.2085 34.224 46.036 33.8621 47.5623 25.3965V25.2549H49.7023V25.365C51.1971 28.6065 52.7077 33.1225 51.3545 36.1122C51.0302 36.8064 50.5484 37.4154 49.9475 37.8907C49.3465 38.366 48.6429 38.6945 47.8927 38.8502C46.0869 39.3367 44.2242 39.5802 42.3539 39.574M31.4651 36.7416C36.5465 39.1829 42.3107 39.8103 47.7983 38.5197C48.4991 38.3699 49.1566 38.0626 49.7209 37.6209C50.2853 37.1792 50.7417 36.6148 51.0555 35.9706C52.3458 33.1225 50.8982 28.7796 49.482 25.6011H47.8613C47.4419 28.0216 46.1345 30.1987 44.1949 31.7063C41.4727 33.7834 37.4445 34.5702 32.1889 34.0352L31.4651 36.7416Z" fill="#13110C"/>
<path d="M47.3574 95.3864H44.3205V95.2606C40.009 78.6599 44.3205 46.7015 44.3205 46.3711V46.2295H46.6021L54.2966 72.0353L47.3574 95.3864ZM44.588 95.056H47.1214L53.9347 72.0353L46.3346 46.5757H44.6037C44.289 48.936 40.4968 79.0532 44.6037 95.056" fill="#13110C"/>
<path d="M46.082 46.7641C46.082 46.7641 49.5123 81.712 58.5129 96.5976H61.3924V46.7641L49.5123 44.3408L46.082 46.7641Z" fill="#CA5098"/>
<path d="M49.5136 19.2598C49.5136 19.2598 44.557 27.1274 44.085 46.765H61.3937L60.3867 24.6412L49.5136 19.2598Z" fill="#9BCEA4"/>
<path d="M49.5156 19.259C51.1795 19.3856 52.8522 19.1879 54.4408 18.6768C54.4408 18.6768 67.7842 20.2503 67.501 31.9731C67.2178 43.6958 58.5162 51.469 58.5162 51.469L55.794 49.6595C55.794 49.6595 61.3958 40.4229 60.7978 33.7354C60.2786 27.8662 49.5156 19.259 49.5156 19.259Z" fill="#9BCEA4"/>
<path d="M55.7932 49.8332C55.776 49.8416 55.7572 49.8459 55.7381 49.8459C55.719 49.8459 55.7002 49.8416 55.683 49.8332C55.6562 49.7997 55.6416 49.7581 55.6416 49.7152C55.6416 49.6723 55.6562 49.6307 55.683 49.5972C55.7617 49.487 62.9527 39.1962 58.421 32.6975C58.4042 32.6828 58.3908 32.6646 58.3816 32.6442C58.3724 32.6239 58.3677 32.6018 58.3677 32.5795C58.3677 32.5572 58.3724 32.5351 58.3816 32.5148C58.3908 32.4944 58.4042 32.4763 58.421 32.4615C58.453 32.4317 58.4951 32.415 58.5389 32.415C58.5827 32.415 58.6249 32.4317 58.657 32.4615C63.3776 39.149 55.9977 49.6444 55.9191 49.7703C55.8995 49.78 55.8779 49.785 55.8561 49.785C55.8343 49.785 55.8127 49.78 55.7932 49.7703" fill="#13110C"/>
<path d="M56.2005 49.9431C55.4221 50.5586 54.7883 51.3375 54.3438 52.2247L57.9156 52.3664L58.5136 51.4694L56.2005 49.9431Z" fill="white"/>
<path d="M58.5154 57.1805C57.6174 57.1107 56.7495 56.8253 55.9853 56.3487C55.221 55.8721 54.583 55.2182 54.1252 54.4426C53.7737 53.8018 53.5948 53.0806 53.606 52.3497V52.1924L59.192 52.4599C59.2351 52.4638 59.2752 52.4838 59.3043 52.5158C59.3335 52.5479 59.3495 52.5897 59.3493 52.633C59.3493 52.7274 59.2707 52.8061 59.1763 52.7903L53.9206 52.5386C53.9206 53.2781 54.2668 56.1262 58.5626 56.8501C58.5834 56.8538 58.6033 56.8617 58.621 56.8733C58.6388 56.8849 58.654 56.9 58.6657 56.9176C58.6775 56.9353 58.6855 56.9551 58.6894 56.9759C58.6933 56.9967 58.693 57.0182 58.6884 57.0389C58.6885 57.0589 58.6844 57.0787 58.6764 57.097C58.6683 57.1153 58.6564 57.1316 58.6416 57.145C58.6267 57.1584 58.6092 57.1685 58.5901 57.1746C58.5711 57.1807 58.551 57.1827 58.5311 57.1805" fill="#13110C"/>
<path d="M59.1585 89.8791C59.1224 89.8772 59.0878 89.864 59.0596 89.8414C59.0314 89.8188 59.0109 89.788 59.0011 89.7532C59.0054 89.6799 59.0054 89.6063 59.0011 89.5329C58.993 89.4892 58.9994 89.4441 59.0193 89.4043C59.0392 89.3646 59.0715 89.3324 59.1113 89.3126C59.1316 89.3024 59.1541 89.2971 59.177 89.2974C59.1998 89.2977 59.2222 89.3035 59.2423 89.3143C59.2624 89.3251 59.2795 89.3406 59.2924 89.3595C59.3052 89.3784 59.3132 89.4001 59.3158 89.4228C59.3158 89.5014 59.3158 89.5801 59.3945 89.6588C59.4019 89.6805 59.4049 89.7034 59.4033 89.7263C59.4018 89.7491 59.3957 89.7714 59.3855 89.7919C59.3752 89.8124 59.361 89.8307 59.3436 89.8457C59.3263 89.8606 59.3061 89.872 59.2843 89.8791M58.8437 88.3056C58.8055 88.3027 58.7694 88.2873 58.7409 88.2616C58.7124 88.236 58.6932 88.2016 58.6864 88.164C58.5762 87.7548 58.4661 87.2985 58.3717 86.8422C58.3646 86.8205 58.3623 86.7974 58.365 86.7747C58.3677 86.752 58.3752 86.7302 58.3872 86.7107C58.3992 86.6912 58.4153 86.6747 58.4343 86.662C58.4534 86.6494 58.475 86.6411 58.4976 86.6376C58.5183 86.6331 58.5397 86.6327 58.5605 86.6366C58.5814 86.6405 58.6012 86.6486 58.6188 86.6603C58.6365 86.6721 58.6515 86.6873 58.6631 86.7051C58.6748 86.7228 58.6826 86.7426 58.6864 86.7635C58.7965 87.2198 58.891 87.6761 59.0011 88.0852C59.0083 88.1059 59.0112 88.1278 59.0095 88.1496C59.0077 88.1714 59.0015 88.1926 58.9911 88.2118C58.9808 88.2311 58.9665 88.248 58.9492 88.2614C58.932 88.2748 58.9121 88.2845 58.8909 88.2898M58.3088 85.6149C58.2678 85.6155 58.228 85.6016 58.1963 85.5757C58.1646 85.5498 58.1431 85.5135 58.1357 85.4732C58.057 85.0484 57.9783 84.5921 57.8996 84.1357C57.8901 84.092 57.8979 84.0462 57.9213 84.008C57.9448 83.9699 57.9822 83.9424 58.0255 83.9312C58.0483 83.9266 58.0717 83.9267 58.0944 83.9315C58.1172 83.9362 58.1387 83.9454 58.1578 83.9586C58.1769 83.9718 58.1931 83.9887 58.2056 84.0083C58.218 84.0279 58.2263 84.0499 58.2301 84.0728L58.4661 85.4103C58.4757 85.454 58.4679 85.4998 58.4444 85.5379C58.4209 85.5761 58.3836 85.6037 58.3402 85.6149M57.8682 82.9241C57.83 82.9212 57.7938 82.9058 57.7653 82.8801C57.7368 82.8545 57.7177 82.8202 57.7108 82.7825C57.7108 82.3262 57.5849 81.8856 57.5062 81.4293C57.5041 81.3843 57.5168 81.34 57.5424 81.303C57.568 81.266 57.6051 81.2385 57.6479 81.2247C57.6706 81.2225 57.6936 81.2249 57.7154 81.2317C57.7372 81.2384 57.7575 81.2494 57.7751 81.264C57.7926 81.2787 57.8071 81.2966 57.8177 81.3169C57.8283 81.3372 57.8347 81.3593 57.8367 81.3821C57.8367 81.8384 57.9626 82.279 58.0413 82.7196C58.0458 82.7423 58.0457 82.7658 58.041 82.7885C58.0363 82.8112 58.027 82.8328 58.0138 82.8519C58.0006 82.871 57.9837 82.8872 57.9641 82.8996C57.9445 82.912 57.9225 82.9203 57.8996 82.9241M57.522 80.2176C57.4814 80.2141 57.4434 80.1964 57.4147 80.1676C57.3859 80.1388 57.3682 80.1008 57.3646 80.0603C57.3646 79.6197 57.2545 79.1634 57.1916 78.7071C57.1909 78.662 57.2065 78.6182 57.2353 78.5835C57.2642 78.5489 57.3045 78.5257 57.3489 78.5182C57.37 78.5134 57.3918 78.5135 57.4128 78.5184C57.4338 78.5234 57.4534 78.5331 57.4701 78.5467C57.4868 78.5604 57.5002 78.5777 57.5092 78.5973C57.5182 78.6169 57.5225 78.6383 57.522 78.6598C57.522 79.1162 57.6322 79.5725 57.6951 80.0288C57.6996 80.0507 57.6994 80.0732 57.6946 80.095C57.6897 80.1168 57.6803 80.1373 57.6669 80.1552C57.6535 80.1731 57.6364 80.1878 57.6169 80.1986C57.5973 80.2094 57.5757 80.2159 57.5534 80.2176M57.2388 77.4955C57.2181 77.4955 57.1976 77.4914 57.1786 77.4834C57.1595 77.4755 57.1421 77.464 57.1275 77.4494C57.1129 77.4347 57.1013 77.4174 57.0934 77.3983C57.0855 77.3792 57.0814 77.3588 57.0814 77.3381C57.0814 76.8975 56.9713 76.4412 56.9398 75.9849C56.9353 75.963 56.9354 75.9405 56.9403 75.9187C56.9451 75.8969 56.9546 75.8764 56.968 75.8585C56.9814 75.8406 56.9984 75.8258 57.018 75.815C57.0375 75.8043 57.0592 75.7978 57.0814 75.796C57.1265 75.7954 57.1703 75.8109 57.2049 75.8398C57.2395 75.8686 57.2627 75.9089 57.2702 75.9534L57.4118 77.3066C57.414 77.3294 57.4117 77.3523 57.4049 77.3742C57.3982 77.396 57.3871 77.4162 57.3725 77.4338C57.3579 77.4514 57.3399 77.4659 57.3197 77.4764C57.2994 77.487 57.2773 77.4935 57.2545 77.4955M56.987 74.7732C56.9468 74.7711 56.9084 74.7563 56.8772 74.7308C56.8461 74.7054 56.8239 74.6706 56.8139 74.6316C56.8139 74.1753 56.8139 73.719 56.7038 73.2627C56.6991 73.2191 56.7111 73.1754 56.7374 73.1404C56.7637 73.1053 56.8023 73.0816 56.8454 73.0739C56.8905 73.0732 56.9343 73.0887 56.9689 73.1176C57.0035 73.1465 57.0267 73.1868 57.0342 73.2312C57.0342 73.6875 57.0342 74.1439 57.1444 74.6002C57.1492 74.6212 57.1491 74.643 57.1442 74.664C57.1392 74.685 57.1295 74.7047 57.1159 74.7214C57.1022 74.7381 57.0849 74.7514 57.0653 74.7604C57.0457 74.7694 57.0243 74.7738 57.0027 74.7732M56.7667 72.0511C56.7249 72.0511 56.6849 72.0345 56.6554 72.005C56.6259 71.9755 56.6094 71.9354 56.6094 71.8937C56.6094 71.4374 56.5307 70.9811 56.4992 70.5247C56.499 70.4814 56.5151 70.4396 56.5442 70.4076C56.5733 70.3755 56.6134 70.3556 56.6566 70.3516C56.6785 70.3494 56.7007 70.3519 56.7216 70.3588C56.7426 70.3657 56.7618 70.3769 56.7782 70.3918C56.7945 70.4066 56.8075 70.4247 56.8163 70.4449C56.8252 70.4651 56.8297 70.4869 56.8296 70.509C56.8296 70.9496 56.8296 71.4059 56.9398 71.8622C56.942 71.885 56.9396 71.9079 56.9328 71.9298C56.9261 71.9516 56.9151 71.9719 56.9005 71.9894C56.8858 72.007 56.8678 72.0215 56.8476 72.0321C56.8273 72.0426 56.8052 72.0491 56.7824 72.0511M56.2002 69.4233C56.1585 69.4233 56.1185 69.4067 56.089 69.3772C56.0595 69.3477 56.0429 69.3076 56.0429 69.2659C56.0429 68.7938 56.0114 68.3375 55.9485 67.8969C55.9478 67.8519 55.9634 67.8081 55.9922 67.7734C56.0211 67.7388 56.0614 67.7156 56.1058 67.7081C56.1286 67.7081 56.151 67.7126 56.172 67.7213C56.193 67.73 56.2122 67.7428 56.2282 67.7588C56.2443 67.7749 56.257 67.794 56.2657 67.815C56.2744 67.836 56.2789 67.8585 56.2789 67.8812L56.3733 69.2344C56.3739 69.2795 56.3584 69.3233 56.3296 69.358C56.3007 69.3926 56.2604 69.4158 56.216 69.4233M56.0429 66.6853C56.0011 66.6853 55.9611 66.6688 55.9316 66.6392C55.9021 66.6097 55.8855 66.5697 55.8855 66.528C55.8855 66.0559 55.8855 65.5996 55.8069 65.159C55.8046 65.1371 55.8071 65.1149 55.814 65.094C55.8209 65.073 55.8322 65.0538 55.847 65.0374C55.8618 65.0211 55.8799 65.0081 55.9001 64.9992C55.9203 64.9903 55.9422 64.9858 55.9642 64.9859C55.9862 64.9837 56.0083 64.9862 56.0293 64.9931C56.0502 65 56.0695 65.0112 56.0858 65.0261C56.1021 65.0409 56.1152 65.059 56.124 65.0792C56.1329 65.0994 56.1374 65.1212 56.1373 65.1433C56.1373 65.5839 56.1373 66.0402 56.216 66.5122C56.2182 66.5342 56.2157 66.5564 56.2088 66.5773C56.2019 66.5982 56.1907 66.6175 56.1758 66.6338C56.161 66.6501 56.1429 66.6632 56.1227 66.672C56.1025 66.6809 56.0807 66.6855 56.0586 66.6853M55.917 63.9631C55.8739 63.9592 55.8338 63.9392 55.8046 63.9072C55.7755 63.8751 55.7595 63.8334 55.7596 63.7901C55.7596 63.3023 55.7596 62.8459 55.7596 62.4211C55.7574 62.3991 55.7599 62.377 55.7668 62.356C55.7737 62.3351 55.785 62.3158 55.7998 62.2995C55.8146 62.2831 55.8327 62.2702 55.8529 62.2613C55.8731 62.2524 55.895 62.2479 55.917 62.248C55.939 62.2458 55.9611 62.2482 55.9821 62.2551C56.003 62.2621 56.0223 62.2733 56.0386 62.2881C56.0549 62.303 56.0679 62.3211 56.0768 62.3412C56.0856 62.3614 56.0902 62.3833 56.0901 62.4054C56.0901 62.8302 56.0901 63.2865 56.0901 63.7743C56.0907 63.8194 56.0752 63.8632 56.0463 63.8978C56.0175 63.9325 55.9772 63.9556 55.9327 63.9631H55.917ZM55.8069 61.2252C55.7609 61.2252 55.7169 61.207 55.6845 61.1745C55.652 61.142 55.6338 61.098 55.6338 61.0521C55.6338 60.1709 55.6338 59.6831 55.6338 59.6831C55.6448 59.6479 55.6667 59.6172 55.6965 59.5953C55.7262 59.5735 55.7621 59.5616 55.799 59.5616C55.8359 59.5616 55.8718 59.5735 55.9015 59.5953C55.9313 59.6172 55.9532 59.6479 55.9642 59.6831C55.9642 59.6831 55.9642 60.1867 55.9642 61.0521C55.9642 61.1622 55.9642 61.2409 55.8069 61.2409V61.2252Z" fill="#13110C"/>
<path d="M47.2162 96.5986C46.6182 97.8417 44.73 97.5428 44.73 97.5428C44.73 97.5428 38.7349 99.1163 38.908 100.265C39.0811 101.414 46.2563 100.265 46.2563 100.265V100.753H48.1603C48.1603 100.753 48.9943 97.4641 47.2162 96.5986Z" fill="#0095D4"/>
<path d="M61.3294 97.7471C60.7315 98.9902 58.8432 98.6754 58.8432 98.6754C58.8432 98.6754 52.8638 100.249 53.0369 101.413C53.21 102.578 60.3695 101.413 60.3695 101.413V101.901H62.2735C62.2735 101.901 63.1075 98.5968 61.3136 97.7471" fill="#0095D4"/>
<path d="M51.8127 27.8818C53.0414 28.5126 54.4623 28.6586 55.7937 28.2909C55.7937 28.2909 55.2744 32.0674 52.9928 31.8629C50.7112 31.6583 51.8127 27.8818 51.8127 27.8818Z" fill="white"/>
<path d="M47.0279 6.82792C47.0279 6.82792 46.5715 17.7482 51.2292 15.8599C55.8868 13.9717 54.6594 5.74219 54.6594 5.74219L47.0279 6.82792Z" fill="#E3E3E3"/>
<path d="M44.998 5.71113C45.2782 6.20025 45.6689 6.61715 46.1388 6.92858C46.6087 7.24002 47.1448 7.43736 47.7045 7.50492C48.8129 7.63071 49.9319 7.63071 51.0403 7.50492C51.9645 7.37967 52.9047 7.54465 53.731 7.97701C54.1395 8.21524 54.4446 8.59689 54.5871 9.04771C54.7297 9.49854 54.6994 9.98625 54.5021 10.416C54.3133 10.7149 54.0143 10.951 53.9671 11.3129C53.9561 11.4978 53.9941 11.6823 54.0772 11.8479C54.2846 12.26 54.638 12.5801 55.0685 12.7459C55.499 12.9117 55.9758 12.9113 56.4061 12.7448C56.8736 12.4676 57.2587 12.0706 57.5215 11.5948C57.7843 11.119 57.9152 10.5817 57.9009 10.0383C57.8663 8.94857 57.9348 7.85798 58.1054 6.78111C58.4516 5.49082 59.4744 4.21628 59.0024 2.95746C58.7479 2.48826 58.3626 2.10313 57.8932 1.84891C57.4239 1.59469 56.8909 1.48234 56.3589 1.52554C55.3122 1.62577 54.2584 1.62577 53.2118 1.52554C51.5124 1.1951 49.9861 -0.362707 48.3181 0.0778804C46.9491 0.439791 46.603 1.65139 45.832 2.72139C45.0609 3.79139 44.4 4.37363 45.0295 5.66392" fill="#142B2A"/>
<path d="M49.5284 12.8699H48.537C48.4759 12.8915 48.4093 12.8915 48.3482 12.8699C48.3227 12.8041 48.3227 12.7311 48.3482 12.6653C48.3334 12.1371 48.3809 11.6089 48.4898 11.0918C48.4898 11.0542 48.5048 11.0182 48.5313 10.9917C48.5579 10.9651 48.5939 10.9502 48.6314 10.9502C48.669 10.9502 48.705 10.9651 48.7316 10.9917C48.7581 11.0182 48.773 11.0542 48.773 11.0918C48.6575 11.6079 48.6099 12.1369 48.6314 12.6653H49.5913C49.629 12.6722 49.6633 12.6914 49.6889 12.7198C49.7146 12.7483 49.7301 12.7845 49.7329 12.8227C49.7329 12.8603 49.718 12.8963 49.6914 12.9228C49.6649 12.9494 49.6288 12.9643 49.5913 12.9643" fill="#142B2A"/>
<path d="M49.1191 14.3503C49.0991 14.3505 49.0792 14.3464 49.0609 14.3383C49.0427 14.3302 49.0263 14.3183 49.0129 14.3035C48.9995 14.2886 48.9895 14.2711 48.9833 14.2521C48.9772 14.233 48.9752 14.2129 48.9774 14.193C48.9773 14.175 48.981 14.1573 48.9883 14.1409C48.9956 14.1245 49.0063 14.1098 49.0197 14.0979C49.0331 14.086 49.0489 14.0771 49.066 14.0718C49.0832 14.0665 49.1012 14.0649 49.1191 14.0671C49.2863 14.068 49.452 14.0359 49.6068 13.9727C49.6243 13.9653 49.6432 13.962 49.6621 13.9629C49.681 13.9639 49.6995 13.9691 49.7162 13.9781C49.7328 13.9872 49.7472 13.9999 49.7582 14.0153C49.7693 14.0307 49.7767 14.0485 49.78 14.0671C49.8032 14.0931 49.816 14.1267 49.816 14.1615C49.816 14.1964 49.8032 14.23 49.78 14.2559C49.6035 14.32 49.4169 14.352 49.2292 14.3503" fill="#142B2A"/>
<path d="M22.2273 36.3174H9.43457V39.3228H22.2273V36.3174Z" fill="#0095D4"/>
<path d="M20.167 32.1309C18.2306 32.722 16.1874 32.8777 14.1838 32.5869C12.1801 32.2961 10.2655 31.566 8.57697 30.4488C6.88844 29.3317 5.46775 27.8551 4.41655 26.1247C3.36534 24.3944 2.70961 22.453 2.49632 20.4397C2.16574 17.9533 2.50147 15.4238 3.46911 13.1098C4.43675 10.7957 6.00159 8.78017 8.00366 7.26925L6.93367 5.08203C4.47921 6.84018 2.55069 9.23444 1.35569 12.0071C0.160691 14.7797 -0.255547 17.8257 0.151779 20.8173C0.622102 24.7599 2.51246 28.3961 5.46934 31.046C8.42622 33.6959 12.2471 35.178 16.2175 35.2151C16.9227 35.2144 17.627 35.1671 18.326 35.0735C19.3198 34.9357 20.2993 34.7093 21.2528 34.3968L20.167 32.1309Z" fill="#CA5098"/>
<path d="M29.7975 44.121H1.55273L5.10892 36.0488L5.47084 36.2062L2.16643 43.7119H29.1838L25.8795 36.2062L26.2413 36.0488L29.7975 44.121Z" fill="#13110C"/>
<path d="M1.94612 44.0264H1.55273V98.6907H1.94612V44.0264Z" fill="#13110C"/>
<path d="M29.7821 44.0889H29.3887V98.6745H29.7821V44.0889Z" fill="#13110C"/>
<path d="M50.38 10.2588C50.3445 10.2685 50.3118 10.2864 50.2844 10.3111C50.2571 10.3357 50.2358 10.3664 50.2224 10.4006C50.2071 10.4734 50.2071 10.5486 50.2224 10.6213C50.2224 10.6213 50.2224 10.7002 50.2224 10.7317C50.2427 10.77 50.2766 10.7994 50.3174 10.814C50.3583 10.8286 50.4031 10.8273 50.4431 10.8105C50.4886 10.7964 50.5307 10.7731 50.5668 10.7421C50.6029 10.711 50.6322 10.6728 50.6529 10.6299C50.6736 10.5871 50.6852 10.5404 50.6871 10.4928C50.689 10.4452 50.681 10.3977 50.6638 10.3534C50.6405 10.3012 50.602 10.2572 50.5534 10.2273C50.5301 10.2117 50.5026 10.2034 50.4746 10.2034C50.4465 10.2034 50.4191 10.2117 50.3958 10.2273" fill="#142B2A"/>
<path d="M47.5787 10.7946C47.5941 10.7378 47.5941 10.678 47.5787 10.6212C47.5553 10.5782 47.5231 10.5406 47.4841 10.5109C47.4841 10.5109 47.3896 10.5109 47.3581 10.5109C47.3329 10.5203 47.31 10.5351 47.291 10.5541C47.2719 10.5731 47.2572 10.596 47.2477 10.6212C47.2403 10.6946 47.2403 10.7685 47.2477 10.8419C47.2409 10.8836 47.2409 10.9262 47.2477 10.968C47.2788 10.9936 47.3178 11.0076 47.3581 11.0076C47.3983 11.0076 47.4374 10.9936 47.4684 10.968C47.504 10.9813 47.5431 10.9813 47.5787 10.968C47.5872 10.9158 47.5872 10.8625 47.5787 10.8104" fill="#142B2A"/>
<path d="M50.7879 11.6756C50.636 11.6762 50.4857 11.644 50.3473 11.5811C50.1137 11.4203 49.9325 11.1943 49.8262 10.9314C49.7199 10.6684 49.6932 10.38 49.7494 10.102C49.755 9.91928 49.7981 9.73966 49.8759 9.57419C49.9537 9.40873 50.0646 9.26096 50.2017 9.14004C50.3388 9.01912 50.4993 8.92759 50.6732 8.87113C50.8471 8.81467 51.0307 8.79448 51.2128 8.81178C51.3218 8.7893 51.4342 8.7893 51.5432 8.81178C51.683 8.88635 51.802 8.99433 51.8899 9.12612C51.9778 9.2579 52.0316 9.40937 52.0467 9.56704C52.1176 9.83316 52.1304 10.1114 52.0843 10.3829C52.0381 10.6545 51.9341 10.9128 51.7793 11.1406C51.6697 11.3033 51.5222 11.4371 51.3495 11.5303C51.1768 11.6235 50.9841 11.6733 50.7879 11.6756ZM51.1341 9.11075C50.9923 9.10443 50.8506 9.12637 50.7174 9.17534C50.5841 9.22431 50.4619 9.29933 50.358 9.39599C50.254 9.49265 50.1703 9.609 50.1117 9.73833C50.0532 9.86765 50.021 10.0073 50.0169 10.1492C49.9703 10.3667 49.9887 10.5931 50.0698 10.8001C50.151 11.0072 50.2913 11.1858 50.4732 11.3137C50.6641 11.3953 50.8777 11.407 51.0764 11.3465C51.275 11.2861 51.4459 11.1574 51.5589 10.9832C51.6777 10.7899 51.757 10.5749 51.7921 10.3507C51.8272 10.1265 51.8175 9.8976 51.7635 9.6772C51.7551 9.56998 51.7224 9.46607 51.6679 9.37337C51.6134 9.28067 51.5385 9.20162 51.4488 9.1422C51.3709 9.12693 51.2907 9.12693 51.2128 9.1422H51.1341" fill="#CA5098"/>
<path d="M51.9527 9.9287C51.912 9.9431 51.8676 9.9431 51.8269 9.9287C51.8025 9.9002 51.7891 9.86392 51.7891 9.82642C51.7891 9.78891 51.8025 9.75263 51.8269 9.72413C53.5105 8.71708 55.2414 7.72576 56.9566 6.78165C56.974 6.77429 56.9927 6.77051 57.0116 6.77051C57.0306 6.77051 57.0492 6.77429 57.0667 6.78165C57.1002 6.79938 57.1276 6.82677 57.1454 6.86031C57.2518 7.10013 57.3208 7.35487 57.3499 7.61562C57.3574 7.63696 57.3596 7.65975 57.3564 7.68212C57.3532 7.70449 57.3447 7.7258 57.3316 7.74421C57.3185 7.76263 57.3012 7.77764 57.2811 7.78801C57.261 7.79837 57.2388 7.80376 57.2162 7.80376C57.1936 7.80376 57.1713 7.79837 57.1512 7.78801C57.1312 7.77764 57.1139 7.76263 57.1008 7.74421C57.0877 7.7258 57.0792 7.70449 57.076 7.68212C57.0728 7.65975 57.075 7.63696 57.0824 7.61562C57.0553 7.43927 57.0132 7.26558 56.9566 7.09637C55.2886 8.00902 53.6049 8.98457 51.9685 9.96015" fill="#CA5098"/>
<path d="M46.7594 11.99C46.6252 11.995 46.4916 11.9692 46.3689 11.9147C46.2461 11.8601 46.1375 11.7782 46.0513 11.6753C45.8414 11.3605 45.7521 10.9807 45.7995 10.6053C45.8057 10.4118 45.8429 10.2206 45.9096 10.0389C46.0005 9.85644 46.1293 9.69547 46.2873 9.56678C46.3962 9.45094 46.5279 9.35897 46.6742 9.29667C46.8204 9.23437 46.978 9.20315 47.137 9.2049C47.2639 9.21181 47.3881 9.24468 47.5018 9.30152C47.6154 9.35836 47.7162 9.43795 47.7979 9.53533C48.0078 9.78641 48.1196 10.1051 48.1126 10.4323C48.1217 10.6925 48.0661 10.9509 47.9507 11.1843C47.8354 11.4177 47.6639 11.6189 47.4517 11.7697C47.248 11.9105 47.0069 11.9872 46.7594 11.99ZM46.4761 9.77135C46.354 9.88177 46.248 10.0089 46.1614 10.149C46.1113 10.3014 46.0848 10.4606 46.0828 10.6211C46.0409 10.9208 46.1019 11.2259 46.2558 11.4865C46.4022 11.6067 46.5857 11.6724 46.7751 11.6724C46.9645 11.6724 47.148 11.6067 47.2944 11.4865C47.4648 11.3588 47.6023 11.1922 47.6953 11.0006C47.7884 10.809 47.8343 10.598 47.8293 10.385C47.8382 10.1283 47.7544 9.87699 47.5933 9.67694C47.4733 9.53903 47.3036 9.45419 47.1213 9.44092C46.8774 9.44689 46.6456 9.54863 46.4761 9.72415" fill="#CA5098"/>
<path d="M47.9718 10.5746C47.946 10.5728 47.921 10.5647 47.899 10.551C47.8771 10.5373 47.8589 10.5183 47.846 10.4959C47.8242 10.4662 47.8125 10.4304 47.8125 10.3936C47.8125 10.3568 47.8242 10.321 47.846 10.2914C48.4402 9.98821 49.13 9.93166 49.7657 10.134C49.7954 10.1488 49.819 10.1736 49.8323 10.2041C49.8456 10.2346 49.8477 10.2688 49.8383 10.3007C49.8289 10.3326 49.8087 10.3601 49.781 10.3786C49.7533 10.397 49.72 10.4051 49.687 10.4015C49.4049 10.3129 49.1081 10.2813 48.8137 10.3083C48.5193 10.3353 48.2331 10.4204 47.9718 10.5588" fill="#CA5098"/>
</svg>
