<svg width="65" height="113" viewBox="0 0 65 113" fill="none" xmlns="http://www.w3.org/2000/svg">
<path d="M48.9286 73.4162C47.389 73.4162 45.7666 73.4162 44.0946 73.2176C32.92 72.3236 24.3777 68.6815 24.6591 64.9401C24.9405 61.1987 33.9299 58.9637 45.121 59.8577C49.8593 60.1627 54.5247 61.1784 58.9609 62.8707C62.7023 64.4269 64.6889 66.2976 64.5565 68.1352C64.3082 71.3303 57.769 73.4162 48.9286 73.4162ZM40.436 60.2716C32.026 60.2716 25.4537 62.192 25.2385 64.9897C24.9902 68.3007 33.6484 71.7772 44.1442 72.6215C54.6401 73.4659 63.7287 71.3965 64.0102 68.1021C64.126 66.5459 62.2223 64.7911 58.7788 63.417C54.3927 61.7572 49.7842 60.7586 45.1045 60.4537C43.449 60.3378 41.959 60.2716 40.469 60.2716" fill="#A9D3A5"/>
<path d="M41.5776 54.876C41.5776 54.876 40.6506 66.9611 19.5265 69.9907C19.5265 69.9907 22.258 92.1081 18.1193 99.7896L13.1528 100.799L8.46777 66.332L28.1185 52.8066C30.778 53.9522 33.6082 54.6514 36.4953 54.876C37.9687 54.9588 40.4519 55.4554 41.5776 54.876Z" fill="#0095D4"/>
<path d="M19.6452 53.551C19.3712 53.4708 19.1395 53.2866 18.9996 53.0378L17.46 50.9022L17.6255 50.8194C21.4287 48.6621 24.4138 45.3103 26.1182 41.2837C26.7869 39.6695 27.3401 38.0098 27.7737 36.3173C28.1685 34.9754 28.4454 33.6016 28.6014 32.2116C28.6177 31.9801 28.6177 31.7478 28.6014 31.5163C28.5863 30.5062 28.8133 29.507 29.2636 28.6027C29.4874 28.19 29.8288 27.8533 30.2445 27.6352C30.6601 27.417 31.1312 27.3274 31.5979 27.3776C32.6164 27.5478 33.5809 27.9538 34.4145 28.5631C35.2481 29.1725 35.9276 29.9684 36.3988 30.8872C37.0855 32.5957 37.173 34.4864 36.6471 36.251C36.122 37.9713 35.3586 39.6096 34.3791 41.1182C32.7357 43.9349 30.7013 46.5045 28.3366 48.75C26.0131 51.0052 23.1703 52.654 20.0591 53.551C19.9167 53.5753 19.7711 53.5753 19.6287 53.551M17.8738 51.0015L19.2148 52.8391C19.3472 53.0212 19.4797 53.1867 19.6452 53.2198C19.7544 53.2426 19.8672 53.2426 19.9763 53.2198C23.0394 52.3326 25.8405 50.7134 28.1379 48.5017C30.4268 46.2729 32.4037 43.7446 34.0149 40.9858C34.9861 39.5068 35.7389 37.8954 36.2498 36.2014C36.7558 34.5138 36.6741 32.7045 36.0181 31.0694C35.559 30.2157 34.9149 29.4753 34.133 28.9024C33.351 28.3296 32.451 27.9387 31.4986 27.7584C31.0913 27.7202 30.6817 27.8017 30.32 27.9928C29.9583 28.1839 29.6602 28.4764 29.4623 28.8344C29.0476 29.7023 28.8381 30.6539 28.8498 31.6157C28.8498 31.8474 28.8498 32.0792 28.8498 32.311C28.6959 33.719 28.4133 35.1099 28.0054 36.4662C27.577 38.1604 27.0237 39.8204 26.35 41.4327C24.6453 45.4666 21.6688 48.8326 17.8738 51.018" fill="#13110C"/>
<path d="M28.8642 14.1174C28.8642 14.1174 27.0597 9.01853 31.1984 7.01539C32.0168 6.56087 32.9343 6.31441 33.8702 6.29778C34.8061 6.28114 35.7318 6.4948 36.5657 6.91995C37.3997 7.34511 38.1164 7.96875 38.6527 8.73595C39.189 9.50315 39.5285 10.3904 39.6414 11.3196C40.1712 15.0114 37.6714 15.5743 37.6714 15.5743L28.8642 14.1174Z" fill="#E3E3E3"/>
<path d="M30.0895 17.1313C31.2197 19.0735 33.0125 20.543 35.1387 21.27C35.9205 21.579 36.7905 21.579 37.5723 21.27C38.0106 21.0176 38.3934 20.6792 38.6978 20.2753C39.0022 19.8713 39.2218 19.4101 39.3437 18.9192C39.8879 17.0279 40.0787 15.0524 39.9066 13.0919C39.9528 11.6978 39.5715 10.323 38.8139 9.15182C38.0969 8.36267 37.1738 7.78932 36.1486 7.49632C36.0189 7.43728 35.8772 7.40897 35.7347 7.41357C35.5728 7.4592 35.4248 7.54455 35.3043 7.66188C34.2886 8.4726 33.1327 9.08986 31.894 9.48293C31.0497 9.74781 29.6756 9.66502 29.0631 10.4431C27.838 12.0986 29.2452 15.6413 30.0895 17.0651" fill="#E3E3E3"/>
<path d="M33.1191 18.0898V17.9077C32.7531 16.3235 32.5918 14.6989 32.639 13.0736C31.7745 13.4683 30.944 13.9335 30.1558 14.4643L29.9736 14.1828C30.8416 13.588 31.768 13.0832 32.7383 12.6763L32.9701 12.5604V12.8253C32.9054 14.443 33.0501 16.0622 33.4005 17.6428C33.9926 17.3909 34.5492 17.0625 35.056 16.6661L35.2547 16.931C34.6592 17.3777 34.0081 17.745 33.3178 18.0236L33.1191 18.0898Z" fill="#13110C"/>
<path d="M31.1998 15.3086C31.0847 15.3274 30.9673 15.3274 30.8521 15.3086H30.7197V15.143V15.0272V14.9279C30.786 14.8155 30.8925 14.7327 31.0177 14.6961C31.0791 14.6641 31.1472 14.6475 31.2164 14.6475C31.2855 14.6475 31.3537 14.6641 31.415 14.6961C31.463 14.7303 31.5028 14.7749 31.5314 14.8264C31.56 14.8779 31.5768 14.9352 31.5806 14.994C31.5785 15.101 31.5394 15.204 31.47 15.2855C31.4006 15.367 31.3051 15.422 31.1998 15.4411H31.0839" fill="#13110C"/>
<path d="M33.9648 11.7502V11.4357C34.9954 11.1408 36.0469 10.925 37.1103 10.79V11.1211C36.0598 11.2604 35.0201 11.4706 33.998 11.7502" fill="#13110C"/>
<path d="M35.2559 13.7199H35.14C35.0605 13.698 34.9869 13.6584 34.9249 13.604H34.8255C34.7835 13.5766 34.7482 13.54 34.7224 13.497C34.6966 13.4539 34.6809 13.4056 34.6765 13.3557C34.6599 13.3017 34.6599 13.244 34.6765 13.1901C34.7342 13.0524 34.8402 12.9406 34.9745 12.8755C35.0341 12.8475 35.0991 12.833 35.1649 12.833C35.2307 12.833 35.2957 12.8475 35.3553 12.8755C35.4261 12.9074 35.4885 12.9555 35.5373 13.0159C35.5862 13.0763 35.6203 13.1473 35.6367 13.2232C35.6613 13.2933 35.6666 13.3687 35.652 13.4415C35.6375 13.5143 35.6036 13.5819 35.5539 13.6371C35.5171 13.6852 35.4694 13.7237 35.4147 13.7496C35.36 13.7755 35.2999 13.7881 35.2394 13.7861M35.2394 13.306V13.2232V13.306Z" fill="#13110C"/>
<path d="M49.7564 59.7255C49.7564 59.7255 48.8293 71.8105 27.7052 74.8401C27.7052 74.8401 30.4368 96.9575 26.298 104.639L21.3315 105.649L16.6631 71.1318L36.3138 57.6064C38.9739 58.7532 41.8034 59.4577 44.6906 59.6923C46.164 59.6923 48.6472 60.2718 49.773 59.6923" fill="#0095D4"/>
<path d="M34.1947 24.0338L29.8242 27.5765C30.269 31.7727 30.3299 36.0007 30.0063 40.2079C29.678 44.449 29.0361 48.6599 28.0859 52.8062C28.0859 52.8062 37.1415 61.8121 49.7067 60.0739C49.7067 60.0739 55.1036 26.7819 48.6803 24.0835C44.1442 22.1631 41.8927 21.4512 41.8927 21.4512C41.8927 21.4512 40.0386 27.5765 34.1947 24.0338Z" fill="#9BCEA4"/>
<path d="M4.87675 24.0501C4.36805 24.0541 3.86297 23.9643 3.38682 23.7852C2.68828 23.5235 2.05765 23.1078 1.54177 22.569C1.02589 22.0302 0.638035 21.3821 0.406953 20.6729C-0.0036659 19.6728 -0.106444 18.573 0.111806 17.5142C0.330055 16.4554 0.859382 15.4858 1.632 14.7296C2.34075 14.2396 3.09469 13.8183 3.8835 13.4715C5.20192 12.6084 6.26513 11.4079 6.96269 9.99493C7.75609 8.64491 8.76875 7.43642 9.95913 6.41906C11.9954 4.87945 14.4952 4.96225 16.9122 5.04502C19.3292 5.1278 21.9946 6.17075 24.0143 4.41593C24.4835 3.98483 24.9206 3.52006 25.3221 3.02532C25.6646 2.60336 26.0293 2.19993 26.4147 1.81679C27.3251 0.987631 28.439 0.414499 29.6429 0.15569C30.8468 -0.103118 32.0978 -0.0383882 33.2685 0.343378C34.4542 0.626424 35.5649 1.16195 36.5249 1.91334C37.4848 2.66472 38.2714 3.61429 38.8309 4.69733C39.2283 5.74029 39.6421 7.8428 38.6819 8.55466C37.7218 9.26652 36.9437 8.55465 36.1656 8.33944C35.7381 8.17553 35.2788 8.11119 34.8227 8.15135C34.3666 8.19151 33.9257 8.33509 33.5334 8.57118C32.7631 9.06228 32.117 9.7253 31.6461 10.5081C31.3405 11.0289 30.9614 11.5029 30.5204 11.9153C29.6595 12.561 28.5669 12.6437 27.7226 13.339C27.0366 13.9696 26.4504 14.7008 25.9843 15.5077C24.991 17.1632 24.0143 18.8187 22.0608 19.2657C21.0941 19.4911 20.0918 19.5192 19.114 19.3485C18.3525 19.216 17.6406 18.8352 16.8957 18.7194C16.1767 18.6417 15.45 18.6808 14.7435 18.8353C12.8846 19.4333 11.1861 20.4467 9.77705 21.7986C8.40155 23.0504 6.66077 23.8279 4.81057 24.017" fill="#0095D4"/>
<path d="M33.9795 19.8445V19.5134C34.7179 19.4588 35.4243 19.1902 36.0124 18.7403C36.6004 18.2904 37.0446 17.6789 37.2905 16.9805L37.5885 17.0798C37.331 17.8292 36.8631 18.4885 36.2407 18.9789C35.6182 19.4692 34.8677 19.7697 34.0788 19.8445" fill="#13110C"/>
<path d="M19.8921 73.9305C19.8921 73.9305 37.7383 63.7989 34.6426 61.6633C31.5468 59.5277 19.2962 51.3496 18.3194 51.3496C17.3427 51.3496 7.93945 59.7264 7.93945 59.7264" fill="#CA5098"/>
<path d="M19.5288 73.202C19.5288 73.202 37.3751 63.0538 34.2793 60.9182C31.1835 58.7826 18.9329 50.6045 17.9561 50.6045C16.9794 50.6045 7.57617 58.9813 7.57617 58.9813" fill="white"/>
<path d="M16.745 72.2586C16.745 72.2586 30.287 63.5341 27.9362 61.68C25.5854 59.8258 16.3477 52.8065 15.553 52.8065C14.7584 52.8065 7.68945 60.0245 7.68945 60.0245" fill="#142B2A"/>
<path d="M27.8214 64.2299L18.5176 56.5484L18.65 56.3828L27.9539 64.0643L27.8214 64.2299Z" fill="white"/>
<path d="M26.8273 65.8362L17.5234 58.1382L17.6559 57.9727L26.9598 65.6541L26.8273 65.8362Z" fill="white"/>
<path d="M25.8195 67.4241L16.5156 59.7426L16.6647 59.5605L25.952 67.242L25.8195 67.4241Z" fill="white"/>
<path d="M24.4953 68.6496L15.1914 60.9682L15.3404 60.8026L24.6277 68.4841L24.4953 68.6496Z" fill="white"/>
<path d="M20.6382 68.5843L20.4727 68.4188L27.8065 61.0684L27.972 61.2173L20.6382 68.5843Z" fill="white"/>
<path d="M19.3463 66.7463L19.1973 66.5807L26.2331 59.876L26.3821 60.0415L19.3463 66.7463Z" fill="white"/>
<path d="M19.3463 64.228L19.1973 64.0624L24.6935 58.4834L24.8425 58.6324L19.3463 64.228Z" fill="white"/>
<path d="M19.7417 61.4301L19.5762 61.2811L23.152 57.4072L23.3176 57.5563L19.7417 61.4301Z" fill="white"/>
<path d="M4.87931 44.7945C4.66025 44.7562 4.43554 44.7658 4.22055 44.8227C4.00557 44.8795 3.80543 44.9823 3.63395 45.1239C3.46247 45.2655 3.32372 45.4425 3.2272 45.6429C3.13068 45.8432 3.07868 46.0621 3.07482 46.2844C2.92583 49.5954 2.56163 60.3893 4.16746 62.26C6.08783 64.4783 18.0736 73.1034 19.0669 73.1862C20.0602 73.269 20.8383 72.2922 21.3846 67.7562C21.9309 63.2201 21.6495 56.9624 20.1926 55.0089C19.3318 53.8666 9.20018 45.6553 4.91245 44.7945" fill="#9BCEA4"/>
<path d="M4.0824 45.5397C3.86469 45.5016 3.64133 45.5107 3.42749 45.5667C3.21366 45.6226 3.01436 45.7239 2.84316 45.8637C2.67196 46.0035 2.53288 46.1784 2.43535 46.3768C2.33781 46.5751 2.28412 46.7921 2.27792 47.013C2.11237 50.324 1.74817 61.1344 3.37055 62.9886C5.29093 65.2069 17.2767 73.8486 18.27 73.9314C19.2633 74.0141 20.0248 73.0209 20.5877 68.5014C21.1505 63.9819 20.8526 57.7075 19.3957 55.754C18.5183 54.5952 8.40322 46.4005 4.1155 45.5397" fill="#CA5098"/>
<path d="M12.1938 58.5173C12.1777 58.1618 12.0833 57.8142 11.9173 57.4995C11.7514 57.1847 11.5179 56.9104 11.2337 56.6963C11.0682 56.5809 10.8831 56.4968 10.6873 56.4479C10.4375 56.3879 10.1776 56.3835 9.92583 56.435C9.67409 56.4865 9.4367 56.5926 9.2305 56.7459C8.80695 57.1173 8.53084 57.6284 8.45241 58.1862C8.38595 58.6519 8.47276 59.1267 8.69972 59.5388C8.92667 59.9509 9.28147 60.278 9.7106 60.4708C10.145 60.6314 10.6237 60.6235 11.0527 60.4489C11.4816 60.2743 11.8296 59.9455 12.0283 59.5271C12.158 59.2071 12.2146 58.8621 12.1938 58.5173Z" fill="white"/>
<path d="M36.9089 59.9906C36.7457 59.9599 36.5907 59.8955 36.4539 59.8014C36.3171 59.7073 36.2014 59.5857 36.1143 59.4443L34.0449 56.9445L34.1773 56.8452C38.462 53.2722 41.5142 48.442 42.9018 43.0383C43.4419 40.82 43.84 38.5695 44.0937 36.3005C44.388 34.4831 44.5375 32.6453 44.5407 30.8043C44.5407 30.5063 44.5407 30.2083 44.5407 29.8937C44.3768 28.5914 44.5011 27.2689 44.905 26.0199C45.081 25.4769 45.417 24.9997 45.8691 24.6511C46.3211 24.3025 46.8679 24.0987 47.4379 24.0664C48.6838 24.1603 49.8885 24.554 50.9493 25.2142C52.0101 25.8743 52.8955 26.7812 53.5301 27.8575C54.5656 30.0069 54.9125 32.4235 54.5234 34.7775C54.1501 37.0633 53.4765 39.2899 52.5202 41.3994C51.0149 45.248 49.0113 48.8825 46.5604 52.2098C44.2134 55.454 41.0879 58.0557 37.4718 59.7754C37.3217 59.8499 37.1587 59.8948 36.9917 59.9078M34.5085 56.9114L36.3626 59.1297C36.4999 59.3502 36.7111 59.5145 36.9586 59.5933C37.0973 59.5812 37.2324 59.5418 37.3559 59.4774C40.9276 57.7765 44.0177 55.21 46.3452 52.0111C48.7695 48.6991 50.756 45.0878 52.2554 41.267C53.2024 39.1553 53.8702 36.9292 54.2419 34.645C54.6107 32.3574 54.2698 30.0117 53.2652 27.9237C52.654 26.9001 51.8085 26.0362 50.7983 25.403C49.7881 24.7698 48.6421 24.3855 47.4544 24.2816C46.9384 24.3086 46.4429 24.4928 46.0346 24.8094C45.6262 25.126 45.3245 25.56 45.1698 26.053H45.0374H45.1698C44.7945 27.2566 44.676 28.5256 44.8222 29.7779C44.8222 30.0924 44.8222 30.3904 44.8222 30.705C44.8236 32.562 44.6797 34.4162 44.3918 36.2508C44.1246 38.5299 43.721 40.791 43.1832 43.0218C41.7932 48.4389 38.7494 53.288 34.4753 56.8948" fill="#13110C"/>
<path d="M16.1992 113L20.7022 106.229L26.8109 105.021L27.3407 109.374L24.6753 110.467L24.4767 109.408L16.1992 113ZM20.9008 106.527L17.0931 112.238L24.7084 108.927L24.9071 109.987L26.993 109.143L26.5295 105.401L20.9008 106.527Z" fill="#13110C"/>
<path d="M9.3623 107.504L12.5408 101.528L18.5172 100.121L18.9641 104.094L16.8451 104.69V103.481C15.9843 103.862 12.3091 105.865 9.85893 107.239L9.3623 107.504ZM12.6733 101.826L10.1238 106.677C16.7458 102.968 16.9444 103.051 17.0438 103.101V104.21L18.4675 103.796L18.1033 100.485L12.6733 101.826Z" fill="#13110C"/>
<path d="M47.1426 77.0091L49.7583 107.95H52.2084L53.7646 76.7773C51.6786 76.9429 49.4603 77.0257 47.1426 77.0091Z" fill="#CA5098"/>
<path d="M59.376 76.0321V87.902H61.5778L63.5478 74.9891C62.1783 75.4165 60.7854 75.7647 59.376 76.0321Z" fill="#CA5098"/>
<path d="M31.9424 75.5518L33.035 95.964H35.4024L36.5943 76.2967C34.9388 76.0815 33.4323 75.8332 31.9424 75.5518Z" fill="#CA5098"/>
</svg>
