<svg width="58" height="103" viewBox="0 0 58 103" fill="none" xmlns="http://www.w3.org/2000/svg">
<path d="M57.3229 11.9357C57.1905 11.3384 56.979 10.7615 56.6939 10.2203C55.05 7.44707 50.976 7.79013 49.132 7.18975C48.6602 7.0468 48.0885 6.88956 47.4738 6.74661L46.9591 6.64656C44.0015 6.09566 40.9633 6.14426 38.0248 6.78949C37.8532 6.83155 37.6858 6.88898 37.5245 6.96105C36.2998 7.44312 35.2865 8.34502 34.6656 9.50553C34.374 10.2782 34.1399 11.0713 33.9651 11.8785C33.3219 13.9655 31.7065 15.6523 31.2634 17.7966C31.107 18.7494 31.1536 19.7244 31.3999 20.658C31.6462 21.5916 32.0868 22.4627 32.6929 23.2143C33.9209 24.6478 35.4619 25.78 37.1968 26.5235C38.9318 27.2671 40.8143 27.6021 42.6993 27.5028C43.6396 27.4262 44.5544 27.1584 45.3877 26.716C46.2209 26.2736 46.9551 25.6657 47.5453 24.9297C48.2202 23.7508 48.9599 22.6103 49.761 21.5132C51.0618 20.1838 53.0202 19.8693 54.5783 18.883C55.5219 18.2578 56.2955 17.4081 56.8294 16.41C57.3634 15.412 57.641 14.2969 57.6374 13.165C57.6252 12.7377 57.5774 12.3122 57.4945 11.8928" fill="#0095D4"/>
<path d="M18.842 9.32002C18.4694 11.0204 17.9628 12.6886 17.3268 14.3089C16.6895 15.9047 15.6623 17.3153 14.3392 18.4116C13.9724 18.7213 13.5357 18.9372 13.0669 19.0405C12.5933 19.0679 12.1218 18.9585 11.7086 18.7253C11.2955 18.4921 10.9582 18.145 10.7368 17.7254C10.2834 16.8408 10.0482 15.8605 10.0507 14.8664C9.93173 12.7812 10.1538 10.6905 10.7082 8.67676" fill="#DEDEDE"/>
<path d="M18.6267 89.0425H15.6533L21.4857 51.1182H24.4589L18.6267 89.0425ZM16.0393 88.6994H18.3408L24.0587 51.5327H21.7573L16.0393 88.6994Z" fill="#13110C"/>
<path d="M43.1449 49.2603H18.4434L24.7331 9.36328H49.4203L43.1449 49.2603ZM18.8436 48.9315H42.8733L49.0487 9.70637H25.0333L18.8436 48.9315Z" fill="#13110C"/>
<path d="M7.36302 44.8145C7.36302 44.8145 3.74636 50.9327 4.80418 68.4296C5.86201 85.9265 7.36302 101.594 7.36302 101.594H11.1797L17.3551 62.3114L7.36302 44.8145Z" fill="#0095D4"/>
<path d="M49.2332 51.4612H21.7585C21.713 51.4612 21.6693 51.4432 21.6372 51.411C21.605 51.3788 21.5869 51.3352 21.5869 51.2897C21.5869 51.2442 21.605 51.2006 21.6372 51.1684C21.6693 51.1362 21.713 51.1182 21.7585 51.1182H49.2332C49.2787 51.1182 49.3224 51.1362 49.3545 51.1684C49.3867 51.2006 49.4048 51.2442 49.4048 51.2897C49.4048 51.3352 49.3867 51.3788 49.3545 51.411C49.3224 51.4432 49.2787 51.4612 49.2332 51.4612Z" fill="#13110C"/>
<path d="M24.9293 92.3019H22.0703L29.2178 49.1028C29.2194 49.0807 29.2257 49.0593 29.2362 49.0398C29.2467 49.0203 29.2611 49.0033 29.2787 48.9898C29.2962 48.9763 29.3165 48.9666 29.338 48.9615C29.3595 48.9563 29.3818 48.9558 29.4036 48.9598C29.4263 48.9633 29.448 48.9713 29.4675 48.9833C29.4871 48.9953 29.504 49.0111 29.5174 49.0297C29.5307 49.0484 29.5401 49.0695 29.5451 49.0919C29.5501 49.1143 29.5506 49.1374 29.5465 49.16L22.3991 92.0446H24.7148L31.8623 49.16C31.8639 49.1379 31.8702 49.1164 31.8807 49.097C31.8912 49.0775 31.9057 49.0604 31.9233 49.0469C31.9408 49.0335 31.961 49.0238 31.9825 49.0187C32.004 49.0135 32.0264 49.013 32.0481 49.017C32.0708 49.0205 32.0925 49.0285 32.1121 49.0405C32.1316 49.0525 32.1486 49.0682 32.1619 49.0869C32.1752 49.1056 32.1846 49.1267 32.1896 49.1491C32.1946 49.1714 32.1952 49.1946 32.1911 49.2172L24.9293 92.3019Z" fill="#13110C"/>
<path d="M35.8653 9.70624C35.8222 9.69599 35.7846 9.66941 35.7606 9.6321C35.7367 9.59478 35.7281 9.54963 35.7366 9.50611L37.3091 0H40.2824L38.71 9.56328C38.7066 9.58595 38.6985 9.6077 38.6865 9.62723C38.6745 9.64677 38.6588 9.6637 38.6401 9.67703C38.6215 9.69036 38.6003 9.6998 38.5779 9.70482C38.5555 9.70984 38.5324 9.71032 38.5099 9.70624C38.4667 9.69599 38.4291 9.66941 38.4052 9.6321C38.3812 9.59478 38.3726 9.54963 38.3812 9.50611L39.8964 0.343085H37.5807L36.0512 9.56328C36.0476 9.60246 36.0294 9.63887 36.0003 9.66534C35.9712 9.6918 35.9332 9.7064 35.8939 9.70624" fill="#13110C"/>
<path d="M44.4736 89.0425H41.486V88.8995L35.668 51.1182H38.6555V51.2611L44.4736 89.0425ZM41.7719 88.6994H44.0877L38.3697 51.5327H36.054L41.7719 88.6994Z" fill="#13110C"/>
<path d="M17.3561 49.1025C17.3561 49.1025 24.3892 53.9056 31.3937 69.7443L25.1611 97.8052H20.8726L22.6309 71.9743C22.6309 71.9743 12.1098 66.5566 7.03516 50.4463L17.3561 49.1025Z" fill="#CA5098"/>
<path d="M16.6964 20.7272C16.6964 20.7272 7.97651 17.8682 4.61722 25.1586C1.25792 32.449 0 54.0486 0 54.0486H22.2L16.6964 20.7272Z" fill="#9BCEA4"/>
<path d="M14.3951 21.2855C13.7639 21.8179 13.2952 22.5171 13.0424 23.3032C12.7896 24.0893 12.763 24.9307 12.9656 25.7312C13.6518 29.5336 15.8246 37.5388 21.4425 37.839C28.9044 38.2535 34.3079 27.3465 34.3079 27.3465L32.3638 26.0171L23.7869 30.8916C23.7869 30.8916 19.6556 17.6975 14.295 21.2855" fill="#CA5098"/>
<path d="M18.5842 63.398C16.9546 63.398 15.3535 62.3402 13.924 60.2817C13.1744 59.173 12.5511 57.9839 12.0657 56.7366C12.0458 56.686 12.0458 56.6299 12.0657 56.5793C12.0797 56.5578 12.0988 56.5401 12.1212 56.5276C12.1436 56.5152 12.1688 56.5084 12.1944 56.5079H18.7129C18.7407 56.5073 18.7682 56.5135 18.7931 56.5259C18.818 56.5384 18.8395 56.5567 18.8558 56.5793C18.9558 56.7366 21.386 60.4961 20.5712 62.2973C20.4394 62.5732 20.2386 62.8103 19.9881 62.9857C19.7376 63.161 19.446 63.2686 19.1417 63.2979H18.5699M12.4517 56.7509C12.952 57.9517 15.3964 63.4838 19.0845 62.9263C19.3376 62.9113 19.5823 62.8293 19.7934 62.6887C20.0044 62.548 20.1741 62.3537 20.2853 62.1257C20.9571 60.5533 18.9844 57.2798 18.6413 56.7509H12.4517Z" fill="white"/>
<path d="M4.78974 64.1692C4.75503 64.1683 4.72149 64.1569 4.69341 64.1365C4.66534 64.1161 4.64407 64.0876 4.63252 64.0549C4.6259 64.0333 4.62362 64.0106 4.6258 63.9881C4.62797 63.9657 4.63454 63.9439 4.64517 63.9239C4.65579 63.904 4.67029 63.8864 4.68774 63.8721C4.7052 63.8577 4.72529 63.847 4.7469 63.8405C6.86254 63.1972 6.89112 57.8652 6.87682 56.8645H4.80405C4.75855 56.8645 4.71494 56.8465 4.68277 56.8143C4.6506 56.7821 4.63252 56.7385 4.63252 56.693C4.63252 56.6475 4.6506 56.6039 4.68277 56.5717C4.71494 56.5395 4.75855 56.5215 4.80405 56.5215H7.03404C7.07844 56.5248 7.12017 56.5439 7.15166 56.5754C7.18314 56.6069 7.20227 56.6486 7.20558 56.693C7.20558 56.9646 7.40574 63.383 4.83266 64.1692" fill="white"/>
<path d="M30.2918 96.2763C29.8469 96.0581 29.3577 95.9456 28.8623 95.9475C27.73 95.8928 26.5956 95.9889 25.4887 96.2334C24.3594 97.9345 21.2002 97.8059 20.8285 97.7773L20.7285 97.9059C20.7285 97.9774 19.8422 99.4498 20.8572 100.393C21.5285 100.778 22.3234 100.885 23.0729 100.693C25.7274 100.288 28.2356 99.2155 30.3632 97.5771C30.537 97.4567 30.6713 97.2876 30.7492 97.0911C30.7688 96.9225 30.7353 96.7519 30.6533 96.6033C30.5713 96.4546 30.4449 96.3353 30.2918 96.262" fill="#142B2A"/>
<path d="M16.6424 97.891C16.2026 97.659 15.7099 97.5456 15.2129 97.5622C14.0814 97.5093 12.9478 97.6005 11.8393 97.8338C10.71 99.5492 7.55086 99.4062 7.17919 99.3919L7.07912 99.5063C7.07912 99.5063 6.19279 101.064 7.20772 101.994C7.87911 102.378 8.674 102.486 9.4235 102.294C12.0779 101.903 14.5852 100.829 16.6995 99.1775C16.8839 99.0653 17.025 98.894 17.0998 98.6915C17.1208 98.5246 17.0876 98.3554 17.0053 98.2088C16.9229 98.0621 16.7958 97.9457 16.6424 97.8767" fill="#142B2A"/>
<path d="M13.5795 11.193C15.009 10.6641 16.4385 10.6355 17.868 10.1209C18.5944 9.90355 19.2358 9.46676 19.7042 8.87043C20.1726 8.2741 20.445 7.54744 20.484 6.79017C20.385 6.13793 20.0985 5.52854 19.6595 5.03616C19.2204 4.54379 18.6476 4.1897 18.0109 4.01699C17.6696 3.8719 17.3026 3.79712 16.9317 3.79712C16.5608 3.79712 16.1937 3.8719 15.8524 4.01699C15.3947 4.32116 14.9851 4.69217 14.6373 5.11768C13.9847 5.79036 13.2144 6.33784 12.3645 6.73301C11.4215 7.06559 10.5041 7.46692 9.6198 7.93377C8.57409 8.63436 7.84522 9.71745 7.58995 10.95C7.32476 12.2008 7.54991 13.5056 8.21893 14.5952C8.44731 15.0005 8.77113 15.344 9.16235 15.5958C9.55254 15.8166 10.0056 15.9 10.4488 15.8326C10.8921 15.7652 11.2999 15.551 11.6068 15.2242C12.3215 14.4379 12.0213 13.7947 12.0213 12.8369C12.0213 11.8792 12.8219 11.4074 13.5795 11.1215" fill="#142B2A"/>
<path d="M10.3371 15.0812L11.0804 16.911L13.5677 15.0812L13.0388 13.5517L12.1383 12.2651C12.1383 12.2651 11.5521 10.5927 10.7802 11.2645C10.0083 11.9364 9.69384 13.4087 10.4515 15.3957" fill="#DEDEDE"/>
<path d="M15.9684 15.2238H15.8969H15.5967C15.5535 15.2136 15.5161 15.187 15.4921 15.1497C15.4681 15.1124 15.4595 15.0672 15.4681 15.0237C15.4783 14.9805 15.5049 14.943 15.5423 14.919C15.5796 14.895 15.6247 14.8864 15.6682 14.895C15.7535 14.9087 15.8403 14.9087 15.9255 14.895C16.0192 14.9055 16.1136 14.8826 16.1921 14.8303C16.2705 14.778 16.328 14.6997 16.3544 14.6091C16.6117 13.8086 16.8547 12.9938 17.0834 12.1933C17.09 12.1717 17.1007 12.1516 17.115 12.1341C17.1293 12.1167 17.147 12.1022 17.1669 12.0916C17.1868 12.081 17.2087 12.0744 17.2311 12.0722C17.2536 12.07 17.2762 12.0723 17.2978 12.0789C17.3193 12.0852 17.3393 12.096 17.3563 12.1105C17.3734 12.1251 17.387 12.1431 17.3965 12.1634C17.4059 12.1837 17.411 12.2058 17.4112 12.2282C17.4115 12.2507 17.4069 12.2729 17.3979 12.2934C17.1691 13.0939 16.9261 13.923 16.6688 14.7235C16.6228 14.8731 16.5298 15.0039 16.4037 15.0966C16.2775 15.1893 16.1249 15.2389 15.9684 15.2381" fill="#13110C"/>
<path d="M14.338 12.651C14.306 12.6472 14.2751 12.6362 14.2479 12.6189C14.2207 12.6016 14.1977 12.5783 14.1807 12.5509C14.165 12.5088 14.165 12.4625 14.1808 12.4205C14.1966 12.3784 14.227 12.3435 14.2665 12.3222C14.976 11.9855 15.7543 11.8191 16.5394 11.8362C16.5613 11.8361 16.583 11.8406 16.6031 11.8493C16.6232 11.8581 16.6412 11.871 16.656 11.8871C16.6708 11.9033 16.682 11.9224 16.689 11.9431C16.696 11.9639 16.6986 11.9859 16.6966 12.0077C16.6966 12.0532 16.6785 12.0968 16.6464 12.129C16.6142 12.1612 16.5706 12.1792 16.5251 12.1792C15.7939 12.1651 15.0695 12.3218 14.4095 12.6367" fill="#13110C"/>
<path d="M15.4534 13.5091C15.4228 13.5067 15.3933 13.4962 15.3682 13.4786C15.3431 13.461 15.3231 13.4369 15.3104 13.409C15.2935 13.3686 15.2913 13.3235 15.3043 13.2816C15.3174 13.2397 15.3449 13.2038 15.3819 13.1803C15.555 13.0972 15.7374 13.0349 15.9251 12.9945C15.9686 12.9859 16.0138 12.9945 16.0511 13.0185C16.0884 13.0424 16.115 13.0799 16.1253 13.1231C16.1306 13.1662 16.1206 13.2099 16.0971 13.2465C16.0736 13.283 16.038 13.3102 15.9966 13.3232C15.8342 13.3653 15.6763 13.4228 15.5248 13.4948" fill="#13110C"/>
<path d="M15.0678 17.0676C14.5188 16.9857 14.0143 16.7183 13.6383 16.3099C13.6223 16.294 13.6096 16.2751 13.601 16.2542C13.5923 16.2334 13.5879 16.211 13.5879 16.1885C13.5879 16.1659 13.5923 16.1435 13.601 16.1227C13.6096 16.1018 13.6223 16.0829 13.6383 16.0669C13.6516 16.0492 13.6689 16.0348 13.6888 16.0248C13.7086 16.0149 13.7305 16.0098 13.7527 16.0098C13.7749 16.0098 13.7968 16.0149 13.8167 16.0248C13.8365 16.0348 13.8538 16.0492 13.8671 16.0669C14.1776 16.4104 14.5963 16.6374 15.0536 16.7102C15.0977 16.7204 15.1365 16.7464 15.1628 16.7832C15.1891 16.8201 15.2012 16.8653 15.1965 16.9103C15.1897 16.9507 15.1686 16.9873 15.1372 17.0135C15.1057 17.0398 15.0659 17.0539 15.025 17.0533" fill="#13110C"/>
<path d="M17.9115 12.5088C17.8937 12.5177 17.8741 12.5223 17.8542 12.5223C17.8343 12.5223 17.8148 12.5177 17.797 12.5088L17.6395 12.337C17.6235 12.321 17.6107 12.3021 17.6021 12.2812C17.5934 12.2603 17.5889 12.2379 17.5889 12.2153C17.5889 12.1927 17.5934 12.1703 17.6021 12.1494C17.6107 12.1285 17.6235 12.1095 17.6395 12.0936C17.671 12.0654 17.7117 12.0498 17.754 12.0498C17.7962 12.0498 17.837 12.0654 17.8685 12.0936L18.026 12.2654C18.0421 12.2814 18.0548 12.3003 18.0634 12.3212C18.0721 12.3421 18.0766 12.3645 18.0766 12.3871C18.0766 12.4097 18.0721 12.4321 18.0634 12.453C18.0548 12.4739 18.0421 12.4929 18.026 12.5088C17.9892 12.5232 17.9484 12.5232 17.9115 12.5088Z" fill="#13110C"/>
<path d="M38.0107 15.8244C37.8021 15.9758 37.6262 16.1678 37.4935 16.3889C37.3609 16.61 37.2742 16.8555 37.2388 17.1109C37.2059 17.6234 37.3581 18.1306 37.6676 18.5404C38.0249 18.4651 38.3613 18.3121 38.6528 18.0923C38.9443 17.8724 39.1839 17.591 39.3545 17.2681C39.6365 16.7421 39.7031 16.127 39.5402 15.5528C39.3687 15.1525 39.3973 15.1954 38.9685 15.3097C38.6185 15.4096 38.2926 15.5798 38.0107 15.8101" fill="white"/>
<path d="M37.4377 18.1396C37.5268 18.2417 37.6407 18.319 37.7684 18.3641C37.8961 18.4092 38.0334 18.4205 38.1668 18.397L35.4793 24.9297L34.25 24.4008L37.4377 18.1396Z" fill="#142B2A"/>
<path d="M36.3662 25.6312C36.771 25.4686 37.126 25.2024 37.3954 24.8593C37.4175 24.8311 37.431 24.7972 37.4343 24.7616C37.4376 24.7259 37.4304 24.6901 37.4138 24.6584C37.3972 24.6267 37.3718 24.6005 37.3407 24.5828C37.3095 24.5652 37.2739 24.557 37.2382 24.5591C36.9629 24.5861 36.7054 24.7073 36.5091 24.9022C36.8669 24.6253 37.1719 24.2864 37.4097 23.9015C37.4262 23.8737 37.4345 23.8418 37.4336 23.8095C37.4328 23.7772 37.4228 23.7458 37.4049 23.719C37.387 23.6921 37.3618 23.6708 37.3323 23.6575C37.3028 23.6443 37.2702 23.6397 37.2382 23.6442C37.1267 23.6822 37.021 23.7351 36.9237 23.8015C37.2079 23.5499 37.445 23.2498 37.6242 22.9152C37.6418 22.8786 37.6479 22.8376 37.6416 22.7975C37.6354 22.7574 37.6171 22.7201 37.5892 22.6907C37.5613 22.6612 37.5251 22.6409 37.4854 22.6325C37.4456 22.6241 37.4043 22.628 37.3669 22.6436C36.3651 23.1574 35.4087 23.7552 34.5079 24.4305C34.7936 23.7764 34.9443 23.0714 34.951 22.3577C34.9522 22.3204 34.9412 22.2837 34.9196 22.2533C34.8981 22.2228 34.8672 22.2002 34.8316 22.1889C34.796 22.1775 34.7577 22.1781 34.7225 22.1905C34.6873 22.203 34.6571 22.2265 34.6365 22.2576C33.9649 23.1266 33.4254 24.09 33.0355 25.1166C32.9908 25.2512 32.9908 25.3966 33.0355 25.5312L34.851 26.9606C35.1083 26.8034 37.3668 25.9171 37.3382 25.6598C37.3097 25.4025 36.3805 25.6598 36.3805 25.6598" fill="#9BCEA4"/>
<path d="M34.5956 18.5834C34.565 18.581 34.5355 18.5705 34.5104 18.5529C34.4853 18.5353 34.4653 18.5113 34.4526 18.4833C34.2322 17.9657 34.1771 17.3927 34.2948 16.8425C34.4125 16.2924 34.6973 15.7921 35.1102 15.4099C35.9249 14.6983 36.9732 14.3116 38.0549 14.3235C38.8847 14.3203 39.7128 14.3969 40.5279 14.5523L41.1283 14.6523C43.3838 15.0525 45.7006 14.9353 47.9041 14.3092C50.1152 13.6094 51.9631 12.0694 53.0502 10.0208C53.3133 9.36671 53.5051 8.68614 53.622 7.99091C53.6347 7.94821 53.6613 7.91095 53.6975 7.88505C53.7338 7.85916 53.7777 7.8461 53.8222 7.84795C53.8637 7.861 53.8992 7.88816 53.9227 7.92473C53.9462 7.96129 53.9561 8.00494 53.9508 8.04808C53.824 8.77829 53.6179 9.4925 53.3361 10.178C52.202 12.2857 50.2883 13.8659 48.0042 14.5808C45.753 15.2139 43.3881 15.3311 41.0854 14.9239L40.485 14.8239C39.6823 14.6833 38.8697 14.6068 38.0549 14.5951C37.0592 14.5941 36.0959 14.949 35.3389 15.5958C34.9787 15.9304 34.7285 16.3664 34.6213 16.8462C34.5141 17.3261 34.555 17.8271 34.7385 18.2832C34.7588 18.3231 34.7626 18.3694 34.7493 18.4121C34.7359 18.4549 34.7064 18.4907 34.667 18.5119" fill="white"/>
</svg>
