<svg width="94" height="104" viewBox="0 0 94 104" fill="none" xmlns="http://www.w3.org/2000/svg">
<path d="M0.21752 75.8713C0.164736 75.8678 0.114718 75.8465 0.0757244 75.8107C0.0367312 75.775 0.0111066 75.727 0.00308165 75.6747C-0.00198681 75.6452 -0.000789296 75.6149 0.00657199 75.5858C0.0139333 75.5568 0.0273144 75.5296 0.0458384 75.506C0.0643623 75.4824 0.08762 75.463 0.114118 75.4489C0.140616 75.4349 0.169829 75.4266 0.199741 75.4245L92.4476 64.3448L82.2971 58.6977C82.2465 58.6677 82.2092 58.6197 82.1926 58.5634C82.176 58.507 82.1814 58.4464 82.2077 58.3939C82.2342 58.3446 82.279 58.3077 82.3324 58.291C82.3859 58.2743 82.4437 58.2792 82.4936 58.3045L93.216 64.2912C93.2561 64.3181 93.2876 64.356 93.3066 64.4004C93.3256 64.4448 93.3314 64.4938 93.3232 64.5414C93.3126 64.5877 93.2881 64.6296 93.253 64.6616C93.2178 64.6935 93.1738 64.7139 93.1266 64.7201L0.199741 75.8713" fill="#13110C"/>
<path d="M32.8512 64.9154C32.8512 64.9154 47.3443 65.1835 53.724 62.5923C60.1038 60.001 34.0664 58.2676 34.0664 58.2676L31.6182 61.4843L32.8512 64.9154Z" fill="#0095D4"/>
<path d="M31.2601 58.5186L48.0048 92.1331L44.5736 96.6007C44.5736 96.6007 16.9636 68.4367 18.5184 61.0741C20.0731 53.7114 28.4008 54.2832 31.2601 58.5186Z" fill="#CA5098"/>
<path d="M14.2293 62.1819C13.6666 62.1593 13.114 62.0257 12.6031 61.7887C12.3509 61.6672 12.1334 61.4839 11.9709 61.2558C11.8085 61.0278 11.7063 60.7623 11.6738 60.4842C11.6738 59.6085 12.4244 58.9473 13.1571 58.4827C15.9732 56.6921 19.0643 55.376 22.3068 54.5869C23.0574 56.8743 24.9158 59.9481 22.2174 61.056C19.6792 62.0504 16.9434 62.436 14.2293 62.1819Z" fill="#142B2A"/>
<path d="M30.1692 54.3369H30.3125L30.0977 54.4264" fill="#0095D4"/>
<path d="M24.2188 55.8739V60.413C24.2188 60.413 71.0038 74.7095 71.9688 61.3423C73.327 42.5782 24.2188 55.8739 24.2188 55.8739Z" fill="#142B2A"/>
<path d="M56.8704 54.3369L56.584 54.2295L56.8704 54.3369Z" fill="#0095D4"/>
<path d="M66.9826 32.677C63.0154 22.6516 55.4919 20.2927 50.4345 19.9531C50.1664 21.8653 46.8604 23.3843 42.8395 23.3843C38.8186 23.3843 35.6913 21.9368 35.2624 20.0782C30.2765 20.7037 23.5929 23.42 19.9473 32.5876C13.6033 48.6711 12.6204 60.8231 29.9906 54.3003V50.4046L26.4165 48.6175L31.8848 40.1648L30.4552 51.5304L55.9208 51.0836L54.4733 40.1648L56.4032 35.6792V42.2735L60.5135 48.6175L56.9394 50.4046V54.3897C74.3096 60.9125 73.3267 48.689 67.0005 32.677" fill="#0095D4"/>
<path d="M53.3637 36.8232L43.1954 40.3795L30.543 37.1806V52.4779L43.4812 56.3022L56.4016 51.2627V42.3631L55.0436 40.2544L53.3637 36.8232Z" fill="#9BCEA4"/>
<path d="M53.3662 36.8239L55.046 40.255L56.4041 42.3638V35.7695L53.3662 36.8239Z" fill="#9BCEA4"/>
<path d="M30.3139 48.5296C30.4564 48.1792 30.6624 47.8581 30.9215 47.5825C31.2263 47.3137 31.5958 47.129 31.9937 47.0464C33.0666 46.706 34.1766 46.496 35.2997 46.4209C35.5856 46.4209 35.9431 46.4209 36.1039 46.6889C36.1671 46.8313 36.1821 46.9903 36.1467 47.1419C36.1112 47.2935 36.0271 47.4294 35.9074 47.5289C35.6807 47.7078 35.4082 47.8193 35.1211 47.8505L33.2089 48.2258C33.0838 48.2258 32.923 48.4224 33.0481 48.4939L35.9431 48.6547C36.0818 48.6516 36.2184 48.6888 36.3362 48.7619C36.3965 48.8282 36.4423 48.9063 36.4706 48.9912C36.499 49.0762 36.5092 49.1661 36.5008 49.2552C36.4924 49.3444 36.4655 49.4308 36.4218 49.509C36.378 49.5871 36.3185 49.6553 36.2469 49.7091C35.9615 49.8938 35.6146 49.958 35.2819 49.8878L33.2982 49.7805L34.8708 49.9057C35.2104 49.9057 35.675 50.1201 35.6214 50.4954C35.5678 50.8707 35.2104 50.9064 34.9245 50.9243H32.9587H34.2454C34.442 50.9243 34.6921 50.9243 34.7457 51.1923C34.7716 51.2676 34.7716 51.3494 34.7457 51.4246C34.6936 51.6244 34.585 51.8048 34.4328 51.9443C34.2806 52.0838 34.0915 52.1764 33.888 52.2109C33.5127 52.3003 33.1195 52.2109 32.7442 52.3182C31.643 52.6283 30.6832 53.3103 30.028 54.2482C29.5811 53.194 29.3269 52.0682 29.2773 50.9243C29.4394 50.0175 29.7861 49.1538 30.296 48.3866" fill="#CA5098"/>
<path d="M31.5625 37.4309L33.8499 35.7689L43.0175 39.3073L53.7398 34.5537L55.5627 36.0549L43.1963 40.3795L31.5625 37.4309Z" fill="white"/>
<path d="M47.6482 8.67684C47.4668 7.4017 46.8325 6.23447 45.8611 5.38866C45.1322 4.94934 44.2704 4.78459 43.4308 4.92403H43.0912V8.7662H38.3555L41.4828 17.219C41.3908 17.8603 41.1523 18.4718 40.7858 19.006C41.1711 19.3699 41.6399 19.6335 42.1509 19.7738C42.6619 19.914 43.1996 19.9265 43.7166 19.8102C44.2264 19.6743 44.6896 19.4025 45.0569 19.0239C46.3808 17.7259 47.2624 16.044 47.5766 14.2167C48.0503 12.3884 48.0503 10.4694 47.5766 8.64109" fill="#E3E3E3"/>
<path d="M38.1029 12.8413C38.1693 14.8667 38.8763 16.8188 40.1223 18.4169C40.3247 18.6491 40.5458 18.8643 40.7835 19.0603C41.1466 18.5243 41.3848 17.9136 41.4804 17.2732L38.3531 8.82043C38.1689 10.1645 38.0853 11.5205 38.1029 12.8771" fill="#E3E3E3"/>
<path d="M49.0572 6.08569C49.0706 5.0321 48.851 3.98857 48.4139 3.02981C47.9877 2.24805 47.3736 1.58478 46.6269 1.09981C46.0711 0.73257 45.4705 0.438263 44.8398 0.224145C44.6991 0.180007 44.5559 0.144208 44.4109 0.116926C43.2076 -0.126073 41.9585 0.0113304 40.8368 0.510081C39.8007 0.931406 38.9103 1.64643 38.2753 2.5672C37.6403 3.48798 37.2883 4.57431 37.2627 5.69253C37.2627 5.99633 37.2627 6.30013 37.2627 6.58606C37.4235 11.9472 38.2277 13.0731 38.3707 12.7514C38.5136 12.4297 38.8532 9.01646 40.1577 8.90924C41.4623 8.80202 42.1592 9.51683 43.1421 9.01646C44.125 8.51608 44.804 6.90773 45.9299 7.2294C46.3387 7.30361 46.7049 7.52825 46.9563 7.85903C47.2076 8.18981 47.326 8.60273 47.2881 9.01646C47.2969 9.10559 47.2969 9.19537 47.2881 9.28451V9.6598V15.1103C48.4922 12.2898 49.0655 9.24028 48.9679 6.17505" fill="#142B2A"/>
<path d="M44.8945 98.2628C44.8945 98.2628 43.1075 103.195 47.8253 103.195C52.5431 103.195 50.1485 93.7773 50.1485 93.7773L44.8945 98.2628Z" fill="#142B2A"/>
<path d="M41.2501 12.787C40.6366 12.7713 40.031 12.6442 39.463 12.4117C39.4094 12.3847 39.3682 12.338 39.3482 12.2814C39.3282 12.2247 39.331 12.1626 39.3558 12.1079C39.3794 12.0552 39.4218 12.0133 39.4746 11.9902C39.5275 11.9671 39.587 11.9644 39.6417 11.9828C40.2935 12.2667 41.0076 12.3775 41.7148 12.3045C41.7444 12.302 41.7742 12.3057 41.8023 12.3154C41.8305 12.325 41.8562 12.3404 41.878 12.3606C41.8999 12.3808 41.9173 12.4052 41.9292 12.4325C41.9411 12.4598 41.9472 12.4892 41.9471 12.5189C41.9522 12.5461 41.9515 12.5741 41.945 12.601C41.9386 12.6279 41.9265 12.6531 41.9097 12.675C41.8928 12.697 41.8715 12.7151 41.8472 12.7282C41.8228 12.7413 41.7959 12.7492 41.7683 12.7512H41.3038" fill="#13110C"/>
<path d="M44.2875 12.6442H44.1087C44.079 12.6443 44.0496 12.6383 44.0224 12.6264C43.9951 12.6145 43.9706 12.5971 43.9505 12.5752C43.9303 12.5534 43.9149 12.5276 43.9052 12.4995C43.8955 12.4714 43.8918 12.4415 43.8943 12.4119C43.8942 12.3822 43.9003 12.3528 43.9122 12.3255C43.9241 12.2982 43.9415 12.2738 43.9633 12.2536C43.9852 12.2334 44.011 12.218 44.0391 12.2084C44.0673 12.1987 44.097 12.195 44.1266 12.1975C44.7307 12.2126 45.3335 12.1342 45.9137 11.9651C45.9419 11.9572 45.9715 11.955 46.0005 11.9589C46.0295 11.9628 46.0574 11.9725 46.0825 11.9876C46.1076 12.0027 46.1294 12.0227 46.1464 12.0465C46.1635 12.0703 46.1756 12.0974 46.1818 12.126C46.19 12.153 46.1929 12.1813 46.1902 12.2094C46.1875 12.2375 46.1793 12.2648 46.166 12.2897C46.1527 12.3146 46.1346 12.3366 46.1127 12.3545C46.0909 12.3724 46.0658 12.3859 46.0388 12.3941C45.4585 12.5641 44.8564 12.6484 44.2517 12.6442" fill="#13110C"/>
<path d="M40.6046 14.3958C40.5229 14.4196 40.4361 14.4196 40.3544 14.3958C40.3251 14.4034 40.2944 14.4034 40.2651 14.3958C40.2092 14.2949 40.193 14.1768 40.2194 14.0644C40.2458 13.9521 40.3131 13.8537 40.4081 13.7882C40.5228 13.7425 40.6507 13.7425 40.7654 13.7882C40.8572 13.8326 40.9327 13.9049 40.9808 13.9948C41.029 14.0847 41.0475 14.1876 41.0335 14.2886C41.05 14.3409 41.05 14.3971 41.0335 14.4494C40.9973 14.4818 40.9548 14.5064 40.9087 14.5217C40.8626 14.5371 40.8138 14.5429 40.7654 14.5388" fill="#13110C"/>
<path d="M44.8398 14.3422H44.7326C44.6714 14.3227 44.6163 14.2878 44.5725 14.2408C44.5287 14.1939 44.4977 14.1365 44.4824 14.0742C44.4479 14.0144 44.4297 13.9466 44.4297 13.8776C44.4297 13.8086 44.4479 13.7408 44.4824 13.681C44.5105 13.6593 44.5451 13.6475 44.5806 13.6475C44.6162 13.6475 44.6508 13.6593 44.6789 13.681H44.7861C44.862 13.6813 44.9357 13.7057 44.9968 13.7507C45.0578 13.7956 45.1029 13.8589 45.1257 13.9312C45.1605 13.9876 45.1789 14.0525 45.1789 14.1188C45.1789 14.1851 45.1605 14.2501 45.1257 14.3065C45.0898 14.3466 45.0458 14.3786 44.9964 14.4001C44.9471 14.4217 44.8936 14.4324 44.8398 14.4316" fill="#13110C"/>
<path d="M43.1071 16.4863C42.9018 16.4881 42.7036 16.4114 42.5531 16.2718C42.4285 16.1382 42.3325 15.9805 42.271 15.8084C42.2096 15.6363 42.184 15.4534 42.1958 15.2711C42.1483 14.6763 42.1483 14.0787 42.1958 13.484C42.1958 13.4271 42.2183 13.3726 42.2585 13.3324C42.2987 13.2921 42.3533 13.2696 42.4102 13.2696C42.4393 13.2691 42.4681 13.2751 42.4946 13.2871C42.5212 13.2991 42.5448 13.3169 42.5636 13.3391C42.5824 13.3614 42.596 13.3875 42.6035 13.4156C42.611 13.4438 42.6121 13.4732 42.6068 13.5019C42.6068 14.0558 42.6068 14.6277 42.6068 15.1996C42.5931 15.45 42.6691 15.6971 42.8212 15.8965C42.8858 15.936 42.96 15.9569 43.0356 15.9569C43.1113 15.9569 43.1855 15.936 43.2501 15.8965C43.3005 15.8893 43.352 15.8987 43.3965 15.9236C43.441 15.9484 43.4761 15.9871 43.4964 16.0338C43.5167 16.0805 43.521 16.1326 43.5088 16.1821C43.4966 16.2315 43.4686 16.2756 43.4289 16.3075C43.3172 16.3341 43.2009 16.3341 43.0893 16.3075" fill="#13110C"/>
<path d="M42.8205 18.2733C42.4709 18.2808 42.1237 18.2138 41.8019 18.0768C41.7482 18.0498 41.7071 18.0031 41.6871 17.9464C41.6671 17.8898 41.6698 17.8276 41.6947 17.7729C41.704 17.7452 41.7193 17.7198 41.7396 17.6988C41.7599 17.6777 41.7848 17.6615 41.8122 17.6512C41.8396 17.6409 41.8689 17.6369 41.898 17.6394C41.9272 17.6419 41.9554 17.6509 41.9807 17.6657C42.5077 17.8803 43.0977 17.8803 43.6247 17.6657C43.6795 17.6511 43.7376 17.6555 43.7896 17.6782C43.8415 17.701 43.8842 17.7406 43.9106 17.7908C43.9221 17.8177 43.9279 17.8466 43.9278 17.8759C43.9276 17.9051 43.9216 17.934 43.9099 17.9608C43.8981 17.9876 43.8811 18.0117 43.8597 18.0316C43.8383 18.0515 43.813 18.0669 43.7855 18.0768C43.4821 18.2121 43.1527 18.2792 42.8205 18.2733Z" fill="#13110C"/>
<path d="M43.1953 40.3801L43.4812 56.3028L56.4016 51.2633V35.7695L43.1953 40.3801Z" fill="#142B2A"/>
<path d="M56.6728 48.5285C56.517 48.1851 56.3123 47.8661 56.0652 47.5813C55.7557 47.3196 55.3881 47.1357 54.993 47.0452C53.9139 46.7048 52.798 46.4948 51.6691 46.4198C51.526 46.3886 51.3771 46.3971 51.2386 46.4444C51.1 46.4916 50.977 46.5758 50.8828 46.6878C50.8176 46.8283 50.7997 46.9861 50.8319 47.1376C50.8642 47.2891 50.9447 47.426 51.0614 47.5277C51.29 47.7035 51.5615 47.8146 51.8477 47.8494L53.7599 48.2247C53.885 48.2247 54.0458 48.4212 53.9386 48.4927L51.0258 48.6536C50.8871 48.6504 50.7504 48.6877 50.6326 48.7608C50.3466 48.9752 50.4538 49.4935 50.6326 49.7079C50.9187 49.8908 51.2649 49.9549 51.5975 49.8866C52.2587 49.8866 52.92 49.8866 53.5812 49.7794L52.0086 49.9045C51.6691 49.9045 51.2044 50.119 51.258 50.4942C51.3116 50.8695 51.669 50.9052 51.955 50.9231H53.9208H52.634C52.4375 50.9231 52.2052 50.9231 52.1337 51.1912C52.1064 51.2662 52.1064 51.3485 52.1337 51.4235C52.1825 51.6218 52.2878 51.8017 52.437 51.9413C52.5861 52.0809 52.7725 52.1742 52.9736 52.2098C53.3489 52.2992 53.7421 52.2098 54.1352 52.317C55.2293 52.6321 56.1819 53.3135 56.8337 54.247C57.2944 53.1965 57.5549 52.0692 57.6021 50.9231C57.424 50.0211 57.0785 49.1603 56.5835 48.3855" fill="#CA5098"/>
</svg>
