<svg width="75" height="95" viewBox="0 0 75 95" fill="none" xmlns="http://www.w3.org/2000/svg">
<path d="M74.1773 94.9465H45.0475C45.0207 94.949 44.9936 94.9458 44.9681 94.9372C44.9426 94.9286 44.9191 94.9147 44.8993 94.8965C44.8794 94.8783 44.8637 94.8562 44.8529 94.8315C44.8421 94.8068 44.8366 94.7802 44.8367 94.7532V83.4738L0.193236 82.3494C0.167856 82.3494 0.142799 82.3444 0.119351 82.3347C0.0959039 82.325 0.0745655 82.3108 0.0566195 82.2928C0.0386736 82.2749 0.0244033 82.2535 0.0146911 82.2301C0.00497876 82.2066 0 82.1815 0 82.1561C0.00405858 82.1016 0.0275771 82.0503 0.0662706 82.0116C0.104964 81.9729 0.156252 81.9494 0.210822 81.9453L45.0475 83.0697C45.1003 83.0741 45.1495 83.0983 45.1853 83.1374C45.2211 83.1764 45.2409 83.2275 45.2407 83.2805V94.5424H74.2123C74.2393 94.5423 74.2659 94.5478 74.2906 94.5586C74.3153 94.5694 74.3374 94.5852 74.3556 94.6051C74.3738 94.6249 74.3876 94.6484 74.3962 94.6739C74.4049 94.6994 74.4081 94.7264 74.4057 94.7532C74.4057 94.8045 74.3853 94.8537 74.3491 94.8899C74.3128 94.9261 74.2636 94.9465 74.2123 94.9465" fill="#13110C"/>
<path d="M58.1728 78.8886C57.208 79.116 56.2035 79.116 55.2387 78.8886L54.4306 81.2429H52.6737C52.4774 81.6485 52.3412 82.0806 52.2695 82.5254C52.2695 83.5269 63.5841 88.376 64.8842 87.9016C66.1843 87.4272 58.1377 78.8184 58.1377 78.8184" fill="#C74593"/>
<path d="M57.7873 77.3082C57.7375 77.292 57.6956 77.2578 57.6696 77.2123C57.6436 77.1669 57.6354 77.1134 57.6467 77.0623C57.6467 76.8163 64.0244 53.379 62.039 49.2151C61.4279 47.7964 60.3462 46.632 58.9763 45.9182C57.6064 45.2045 56.0323 44.9851 54.5195 45.2971C54.4941 45.3022 54.4679 45.302 54.4425 45.2968C54.4171 45.2915 54.393 45.2812 54.3717 45.2664C54.3504 45.2517 54.3323 45.2328 54.3184 45.2109C54.3046 45.189 54.2953 45.1646 54.2911 45.139C54.2831 45.1136 54.2805 45.0869 54.2833 45.0604C54.2862 45.034 54.2945 45.0085 54.3077 44.9854C54.3209 44.9623 54.3387 44.9421 54.36 44.9262C54.3813 44.9103 54.4058 44.899 54.4317 44.893C56.0309 44.5945 57.6839 44.8408 59.1267 45.5925C60.5694 46.3441 61.7186 47.5577 62.3905 49.0394C64.446 53.3438 58.2969 76.1838 58.0333 77.1501C58.0215 77.1918 57.9961 77.2284 57.961 77.2538C57.926 77.2793 57.8834 77.2923 57.8401 77.2906" fill="#13110C"/>
<path d="M54.6062 81.5245H50.0383L48.2813 63.9553C46.3136 66.3974 35.0693 79.7676 24.2993 80.2595C22.9057 80.4154 21.4949 80.2458 20.1779 79.7641C18.8609 79.2824 17.6737 78.5018 16.7094 77.4836C13.1956 73.6008 14.1443 67.1177 14.1794 66.8542C14.1794 66.8542 22.3492 61.197 31.4852 56.0316C43.7836 49.0039 52.0939 46.1753 56.0821 47.4402C56.7306 47.6515 57.3264 47.999 57.8295 48.4597C58.3325 48.9203 58.7311 49.4833 58.9985 50.1107C60.65 53.6246 60.4217 59.8792 58.2782 68.9625C57.2717 73.2238 56.0401 77.4287 54.5886 81.5597L54.6062 81.5245ZM50.3193 81.1556H54.2548C54.9224 79.2581 62.3366 57.8236 58.6295 50.1635C58.3847 49.5803 58.0184 49.0562 57.5548 48.6259C57.0913 48.1957 56.5413 47.8693 55.9415 47.6687C46.8231 44.8049 16.1648 65.8001 14.443 66.9948C14.443 67.7854 13.793 73.7062 16.8676 77.2201C17.7946 78.1956 18.9362 78.9416 20.2018 79.3991C21.4674 79.8565 22.8222 80.0128 24.1587 79.8555C35.772 79.3635 48.0354 63.4809 48.1584 63.3228L48.4394 62.9363L50.3193 81.1556Z" fill="#13110C"/>
<path d="M27.6911 71.5279C27.6489 71.5306 27.6071 71.5195 27.5719 71.4962C27.5367 71.4729 27.5102 71.4388 27.4962 71.3989C27.4823 71.3591 27.4817 71.3158 27.4947 71.2757C27.5077 71.2355 27.5334 71.2007 27.5681 71.1766L28.4465 70.4211C28.4661 70.405 28.4887 70.3928 28.513 70.3854C28.5373 70.378 28.5629 70.3754 28.5882 70.3778C28.6135 70.3803 28.638 70.3877 28.6604 70.3997C28.6829 70.4116 28.7027 70.4278 28.7189 70.4474C28.735 70.4671 28.7472 70.4897 28.7546 70.514C28.762 70.5383 28.7646 70.5638 28.7621 70.589C28.7597 70.6143 28.7523 70.6389 28.7403 70.6613C28.7284 70.6837 28.7121 70.7036 28.6925 70.7198L27.8141 71.4752C27.7946 71.4834 27.7737 71.4877 27.7526 71.4877C27.7315 71.4877 27.7105 71.4834 27.6911 71.4752" fill="#13110C"/>
<path d="M53.8327 73.3206C53.7818 73.3046 53.7381 73.2712 53.7092 73.2262C53.6803 73.1813 53.668 73.1276 53.6746 73.0746C53.7976 72.3894 53.9382 71.6164 54.0787 70.7906C54.0787 70.7394 54.0991 70.6902 54.1354 70.654C54.1716 70.6177 54.2207 70.5973 54.272 70.5973C54.3232 70.5973 54.3723 70.6177 54.4086 70.654C54.4448 70.6902 54.4652 70.7394 54.4652 70.7906C54.3247 71.634 54.1841 72.407 54.0611 73.1098C54.05 73.1533 54.0252 73.1921 53.9905 73.2205C53.9557 73.2489 53.9128 73.2656 53.8679 73.2679M30.4305 69.2269C30.406 69.2393 30.379 69.2458 30.3515 69.2458C30.324 69.2458 30.297 69.2393 30.2725 69.2269C30.2379 69.1883 30.2188 69.1383 30.2188 69.0864C30.2188 69.0346 30.2379 68.9845 30.2725 68.9458C30.7996 68.489 31.3969 67.9971 32.0294 67.47C32.068 67.4355 32.118 67.4164 32.1699 67.4164C32.2217 67.4164 32.2718 67.4355 32.3105 67.47C32.3432 67.5129 32.361 67.5654 32.361 67.6194C32.361 67.6734 32.3432 67.7258 32.3105 67.7687C31.6604 68.2958 31.0806 68.7877 30.5535 69.2445H30.4305M54.6234 68.6823C54.518 68.6823 54.4476 68.5769 54.4476 68.4539C54.5706 67.716 54.676 66.9254 54.7814 66.1523C54.7809 66.126 54.7864 66.0999 54.7973 66.0759C54.8082 66.0519 54.8245 66.0307 54.8447 66.0138C54.865 65.997 54.8887 65.9848 54.9143 65.9784C54.9399 65.972 54.9664 65.9714 54.9923 65.9766C55.0433 65.9887 55.0887 66.018 55.1207 66.0596C55.1527 66.1012 55.1694 66.1526 55.168 66.205C55.0626 66.9957 54.9572 67.7687 54.8342 68.5242C54.8343 68.5488 54.8292 68.5732 54.8193 68.5958C54.8094 68.6183 54.7949 68.6385 54.7767 68.6551C54.7585 68.6716 54.7369 68.6842 54.7136 68.6919C54.6902 68.6996 54.6655 68.7024 54.641 68.6999M33.9796 66.328C33.9483 66.326 33.9179 66.3171 33.8905 66.3019C33.8632 66.2867 33.8396 66.2657 33.8214 66.2402C33.8022 66.2221 33.787 66.2004 33.7766 66.1762C33.7661 66.152 33.7608 66.126 33.7608 66.0996C33.7608 66.0733 33.7661 66.0473 33.7766 66.0231C33.787 65.999 33.8022 65.9772 33.8214 65.9591L35.5783 64.5184C35.5948 64.4997 35.6151 64.4848 35.6378 64.4745C35.6605 64.4642 35.6852 64.459 35.7101 64.459C35.735 64.459 35.7597 64.4642 35.7824 64.4745C35.8051 64.4848 35.8254 64.4997 35.8419 64.5184C35.861 64.5365 35.8763 64.5583 35.8867 64.5824C35.8971 64.6066 35.9025 64.6326 35.9025 64.6589C35.9025 64.6853 35.8971 64.7113 35.8867 64.7355C35.8763 64.7597 35.861 64.7815 35.8419 64.7995L34.085 66.2402C34.0451 66.2536 34.0019 66.2536 33.962 66.2402M55.2032 63.9738C55.1521 63.9617 55.1067 63.9324 55.0747 63.8908C55.0427 63.8492 55.026 63.7978 55.0274 63.7454C55.0274 62.9372 55.1681 62.1466 55.2032 61.4262C55.216 61.3771 55.2427 61.3328 55.2801 61.2985C55.3175 61.2642 55.364 61.2415 55.414 61.233C55.4654 61.2409 55.5126 61.2661 55.5477 61.3044C55.5829 61.3427 55.6039 61.3919 55.6072 61.4438C55.6072 62.1817 55.5019 62.9723 55.414 63.7805C55.414 63.8059 55.4089 63.831 55.3992 63.8545C55.3895 63.8779 55.3753 63.8992 55.3574 63.9172C55.3394 63.9351 55.3181 63.9494 55.2947 63.9591C55.2712 63.9688 55.246 63.9738 55.2207 63.9738M37.5636 63.3588C37.5122 63.375 37.457 63.375 37.4056 63.3588C37.3864 63.3408 37.3712 63.319 37.3607 63.2948C37.3503 63.2706 37.3449 63.2446 37.3449 63.2183C37.3449 63.192 37.3503 63.1659 37.3607 63.1417C37.3712 63.1176 37.3864 63.0958 37.4056 63.0777L39.1625 61.6546C39.2044 61.622 39.2575 61.6074 39.3103 61.614C39.363 61.6206 39.4109 61.6479 39.4436 61.6898C39.4762 61.7317 39.4908 61.7849 39.4842 61.8376C39.4776 61.8903 39.4503 61.9382 39.4084 61.9709L37.6515 63.394H37.5285M41.1653 60.6005C41.1146 60.621 41.0579 60.621 41.0072 60.6005C40.9881 60.5824 40.9728 60.5606 40.9624 60.5364C40.952 60.5123 40.9467 60.4862 40.9467 60.4599C40.9467 60.4336 40.952 60.4076 40.9624 60.3834C40.9728 60.3592 40.9881 60.3375 41.0072 60.3194L42.852 58.9489C42.8878 58.9156 42.9349 58.8971 42.9838 58.8971C43.0327 58.8971 43.0798 58.9156 43.1156 58.9489C43.1347 58.967 43.15 58.9889 43.1604 59.013C43.1708 59.0372 43.1762 59.0632 43.1762 59.0895C43.1762 59.1159 43.1708 59.1419 43.1604 59.166C43.15 59.1902 43.1347 59.212 43.1156 59.2301L41.2707 60.6005H41.1478M55.414 59.3355C55.3628 59.3355 55.3135 59.3152 55.2773 59.2789C55.241 59.2427 55.2207 59.1935 55.2207 59.1422C55.2289 58.3732 55.1878 57.6045 55.0977 56.8407C55.0927 56.8139 55.0934 56.7864 55.0997 56.76C55.106 56.7335 55.1179 56.7087 55.1345 56.6872C55.151 56.6656 55.1721 56.6478 55.196 56.6349C55.2199 56.622 55.2463 56.6143 55.2734 56.6123C55.2988 56.6099 55.3244 56.6125 55.3488 56.62C55.3732 56.6276 55.3958 56.6398 55.4154 56.6562C55.435 56.6725 55.4512 56.6926 55.463 56.7152C55.4748 56.7378 55.482 56.7626 55.4843 56.788C55.5742 57.5694 55.6153 58.3557 55.6072 59.1422C55.61 59.1683 55.6069 59.1946 55.5981 59.2193C55.5894 59.244 55.5753 59.2665 55.5567 59.285C55.5382 59.3035 55.5158 59.3177 55.4911 59.3264C55.4664 59.3351 55.4401 59.3382 55.414 59.3355ZM44.8725 57.9124C44.841 57.9117 44.8101 57.9034 44.7825 57.8881C44.755 57.8728 44.7315 57.851 44.7143 57.8245C44.6952 57.8065 44.6799 57.7847 44.6695 57.7605C44.6591 57.7364 44.6537 57.7103 44.6537 57.684C44.6537 57.6577 44.6591 57.6316 44.6695 57.6075C44.6799 57.5833 44.6952 57.5615 44.7143 57.5434C45.3819 57.0866 46.0145 56.6474 46.6294 56.2609C46.6459 56.2422 46.6661 56.2272 46.6888 56.2169C46.7115 56.2067 46.7362 56.2014 46.7611 56.2014C46.786 56.2014 46.8106 56.2067 46.8334 56.2169C46.8561 56.2272 46.8764 56.2422 46.8929 56.2609C46.9275 56.2995 46.9466 56.3496 46.9466 56.4014C46.9466 56.4533 46.9275 56.5033 46.8929 56.542L44.9954 57.807H44.89M48.7552 55.3297C48.719 55.3304 48.6833 55.3208 48.6523 55.3022C48.6212 55.2836 48.596 55.2566 48.5796 55.2243C48.5462 55.1885 48.5277 55.1415 48.5277 55.0925C48.5277 55.0436 48.5462 54.9965 48.5796 54.9608C49.2393 54.5673 49.9195 54.2096 50.6175 53.8891C50.6416 53.8776 50.6678 53.8713 50.6944 53.8704C50.7211 53.8696 50.7476 53.8742 50.7724 53.8841C50.7971 53.894 50.8196 53.9089 50.8383 53.9279C50.857 53.9469 50.8716 53.9696 50.8811 53.9945C50.8995 54.0436 50.8989 54.0979 50.8794 54.1466C50.8599 54.1954 50.8229 54.2351 50.7757 54.258C50.0894 54.5727 49.4208 54.9246 48.7728 55.3122H48.685M54.676 54.6445C54.6384 54.6416 54.6023 54.6287 54.5714 54.607C54.5405 54.5854 54.516 54.5559 54.5004 54.5215C54.4117 54.2897 54.2703 54.0817 54.0873 53.9139C53.9043 53.7462 53.6849 53.6234 53.4463 53.5552C53.2605 53.5201 53.0698 53.5201 52.884 53.5552C52.8586 53.5577 52.833 53.555 52.8087 53.5475C52.7843 53.5399 52.7616 53.5276 52.742 53.5113C52.7224 53.4949 52.7063 53.4749 52.6945 53.4523C52.6826 53.4297 52.6754 53.405 52.6732 53.3795C52.6682 53.3541 52.6683 53.3279 52.6735 53.3025C52.6788 53.2772 52.689 53.2531 52.7038 53.2318C52.7185 53.2105 52.7374 53.1924 52.7593 53.1785C52.7812 53.1647 52.8057 53.1553 52.8313 53.1511C53.0583 53.115 53.2895 53.115 53.5165 53.1511C53.8171 53.226 54.0954 53.3719 54.3277 53.5768C54.5601 53.7817 54.7399 54.0394 54.8518 54.3283C54.8716 54.3754 54.8735 54.4281 54.8574 54.4765C54.8412 54.525 54.8081 54.566 54.764 54.5918" fill="#13110C"/>
<path d="M53.0759 76.7451C53.025 76.729 52.9812 76.6957 52.9523 76.6507C52.9234 76.6058 52.9112 76.5522 52.9178 76.4991C52.9178 76.4991 53.0232 76.0775 53.1637 75.3396C53.168 75.314 53.1772 75.2895 53.1911 75.2676C53.205 75.2457 53.2231 75.2268 53.2444 75.2121C53.2657 75.1973 53.2898 75.187 53.3152 75.1818C53.3405 75.1765 53.3667 75.1764 53.3922 75.1814C53.4431 75.1975 53.4868 75.2309 53.5157 75.2758C53.5446 75.3208 53.5569 75.3744 53.5503 75.4274L53.3043 76.587C53.2932 76.6305 53.2683 76.6693 53.2336 76.6977C53.1988 76.7262 53.156 76.7427 53.1111 76.7451" fill="#13110C"/>
<path d="M37.2468 20.2604C37.2468 20.2604 26.5119 19.3117 21.2763 32.84C16.0407 46.3683 11.666 67.5041 11.666 67.5041C19.1777 66.128 26.4278 63.5848 33.1531 59.9669C44.1163 54.0109 45.5746 52.0959 45.5746 52.0959C45.5746 52.0959 48.8776 29.2559 45.5746 25.0569C45.5746 25.0569 46.172 28.1842 43.6244 28.0436C41.0769 27.903 37.1765 20.2604 37.1765 20.2604" fill="#0095D4"/>
<path d="M36.51 50.0403L50.4072 43.5573L51.7249 46.7022C51.7249 46.7022 35.7721 65.062 31.3798 61.7941C26.9875 58.5263 24.686 26.6557 35.1748 25.8651C45.6636 25.0745 36.51 50.0403 36.51 50.0403Z" fill="#C74593"/>
<path d="M50.0033 83.9131C50.6025 84.2813 51.2775 84.5089 51.9773 84.5789C52.6772 84.6489 53.3838 84.5594 54.0442 84.3171C54.0442 84.3171 62.0909 92.9437 60.7908 93.4004C59.4907 93.8572 48.1058 89.0257 48.1761 88.0243C48.5963 86.5889 49.1861 85.2088 49.933 83.9131" fill="#C74593"/>
<path d="M51.0208 6.27539C50.8846 9.22025 50.5677 12.154 50.072 15.06C49.7589 17.2509 48.9145 19.3318 47.6124 21.1213C47.2641 21.6048 46.7985 21.9918 46.2595 22.2458C45.6928 22.4008 45.0921 22.3777 44.5389 22.1797C43.9858 21.9817 43.5069 21.6183 43.1673 21.1389C42.3981 20.1294 41.8694 18.9577 41.6212 17.713C40.9372 15.0526 40.6588 12.3043 40.7955 9.56082" fill="#E3E3E3"/>
<path d="M51.0216 6.27515C50.4946 2.91943 48.474 -0.998506 41.8153 0.231339C30.6413 2.28694 34.7876 12.9514 34.7876 12.9514C35.1741 16.026 39.0042 17.8708 39.0042 17.8708C46.3833 16.6761 50.1431 8.34832 50.9689 6.27515" fill="#142B2A"/>
<path d="M35.0684 5.07999C31.6951 4.34208 27.9353 6.36251 25.0539 8.78707C20.5035 12.5996 17.0951 17.5717 13.0366 21.8234C9.69849 25.3373 5.69264 28.8511 4.72633 33.384C4.28809 35.6506 4.57075 37.9976 5.53456 40.0954C6.27349 42.0501 7.61873 43.7169 9.37332 44.8518C11.1279 45.9868 13.1997 46.5303 15.2854 46.4028C17.0796 46.0927 18.7826 45.3881 20.2714 44.3399C21.7602 43.2917 22.9976 41.926 23.8944 40.3414C25.5864 37.2929 26.3727 33.8246 26.1608 30.3445C25.9602 28.5933 25.9602 26.8249 26.1608 25.0737C26.9942 21.9899 28.8532 19.2819 31.4316 17.396C34.6467 14.743 38.6876 12.6699 40.5148 9.05059C40.8567 8.53177 41.0463 7.92744 41.0618 7.30627C41.0773 6.6851 40.9182 6.07201 40.6026 5.53675C40.4094 5.32592 40.1458 5.11508 40.1634 4.81641" fill="#142B2A"/>
<path d="M48.7197 41.5371L63.7062 26.0586L69.0648 33.2971L57.3989 46.3861L48.7197 41.5371Z" fill="#9BCEA4"/>
<path d="M50.3184 43.5576C50.3184 43.5576 52.7253 39.6396 53.393 39.6396C54.0606 39.6396 53.147 41.8885 53.147 41.8885C54.6456 41.0562 56.1881 40.3055 57.7677 39.6396C58.1894 39.6396 55.2729 42.2926 55.2729 42.2926C55.2729 42.2926 58.1894 40.2546 58.3827 40.5357C58.5759 40.8168 55.6419 43.0657 55.6419 43.0657C55.6419 43.0657 57.9609 41.7655 57.9609 42.2399C57.9609 42.7143 55.2729 43.9968 55.2729 43.9968C55.2729 43.9968 56.9244 43.6806 56.9244 43.9968C55.2297 45.0049 53.4688 45.8971 51.6536 46.6673L50.3184 43.5576Z" fill="#0095D4"/>
<path d="M69.0663 33.2968L67.7486 25.373L65.0781 27.9206L69.0663 33.2968Z" fill="#C74593"/>
<path d="M48.0358 17.3617C47.8136 17.379 47.5904 17.379 47.3682 17.3617C47.3423 17.3557 47.3179 17.3443 47.2965 17.3285C47.2752 17.3126 47.2574 17.2925 47.2442 17.2694C47.231 17.2463 47.2227 17.2207 47.2199 17.1943C47.217 17.1678 47.2196 17.1411 47.2276 17.1157C47.2318 17.0901 47.2412 17.0657 47.255 17.0438C47.2689 17.0219 47.287 17.003 47.3083 16.9883C47.3296 16.9735 47.3536 16.9632 47.379 16.9579C47.4044 16.9526 47.4306 16.9525 47.456 16.9576C47.8878 17.0715 48.3418 17.0715 48.7737 16.9576C49.0385 15.4825 49.2087 13.9919 49.2832 12.4951C49.2854 12.4696 49.2926 12.4449 49.3044 12.4222C49.3162 12.3996 49.3324 12.3796 49.352 12.3633C49.3716 12.3469 49.3942 12.3347 49.4186 12.3271C49.443 12.3196 49.4687 12.3169 49.4941 12.3193C49.521 12.3192 49.5476 12.3247 49.5723 12.3355C49.5969 12.3463 49.6192 12.3622 49.6374 12.382C49.6555 12.4019 49.6694 12.4253 49.678 12.4508C49.6866 12.4763 49.6898 12.5034 49.6873 12.5302C49.5994 14.0326 49.4235 15.5285 49.1603 17.0103C49.1686 17.0803 49.1686 17.1511 49.1603 17.2211C49.0979 17.2961 49.0105 17.3461 48.9143 17.3617C48.6411 17.4456 48.3566 17.4871 48.0709 17.4847" fill="#142B2A"/>
<path d="M47.8226 14.393H47.6293C47.5659 14.3663 47.5155 14.3158 47.4888 14.2524C47.4802 14.206 47.4802 14.1583 47.4888 14.1119C47.4712 14.0667 47.4712 14.0165 47.4888 13.9713C47.5029 13.9148 47.529 13.862 47.5654 13.8165C47.6018 13.771 47.6476 13.7339 47.6996 13.7077C47.8022 13.6729 47.9133 13.6729 48.0159 13.7077C48.0683 13.7356 48.1133 13.7757 48.1469 13.8246C48.1806 13.8736 48.2019 13.9299 48.2091 13.9889C48.219 14.0489 48.2147 14.1104 48.1963 14.1684C48.178 14.2264 48.1463 14.2793 48.1037 14.3227C48.029 14.3822 47.9357 14.4133 47.8402 14.4106" fill="#142B2A"/>
<path d="M47.4885 19.8218C46.9413 19.7104 46.4467 19.4198 46.083 18.996C46.0484 18.9573 46.0293 18.9073 46.0293 18.8555C46.0293 18.8036 46.0484 18.7535 46.083 18.7149C46.1011 18.6957 46.1229 18.6805 46.147 18.6701C46.1712 18.6596 46.1972 18.6543 46.2235 18.6543C46.2498 18.6543 46.2759 18.6596 46.3001 18.6701C46.3242 18.6805 46.346 18.6957 46.3641 18.7149C46.6707 19.0662 47.0843 19.307 47.5412 19.4001C47.5668 19.4043 47.5912 19.4136 47.6131 19.4275C47.635 19.4414 47.6539 19.4595 47.6687 19.4808C47.6834 19.5021 47.6938 19.5261 47.699 19.5515C47.7043 19.5769 47.7044 19.6031 47.6994 19.6285C47.6916 19.6753 47.6683 19.718 47.6332 19.7499C47.5981 19.7817 47.5534 19.8009 47.5061 19.8042" fill="#142B2A"/>
<path d="M49.5107 12.636H49.4053C48.8753 12.243 48.2807 11.9457 47.6483 11.7576C47.6224 11.7515 47.5981 11.7402 47.5768 11.7243C47.5555 11.7084 47.5377 11.6883 47.5245 11.6652C47.5113 11.6421 47.503 11.6166 47.5001 11.5902C47.4973 11.5637 47.4999 11.5369 47.5079 11.5116C47.5117 11.4863 47.5209 11.4623 47.535 11.441C47.5491 11.4197 47.5677 11.4017 47.5895 11.3883C47.6112 11.375 47.6355 11.3665 47.6609 11.3635C47.6862 11.3605 47.712 11.3631 47.7363 11.371C48.4411 11.5654 49.1068 11.8804 49.704 12.3022C49.7232 12.3203 49.7384 12.342 49.7488 12.3662C49.7593 12.3904 49.7646 12.4165 49.7646 12.4428C49.7646 12.4691 49.7593 12.4951 49.7488 12.5193C49.7384 12.5435 49.7232 12.5652 49.704 12.5833C49.6791 12.5945 49.6521 12.6002 49.6249 12.6002C49.5976 12.6002 49.5707 12.5945 49.5458 12.5833" fill="#142B2A"/>
</svg>
