<svg width="113" height="69" viewBox="0 0 113 69" fill="none" xmlns="http://www.w3.org/2000/svg">
<path d="M35.1466 10.3726L35.3763 8.45887L31.012 7.74121L30.7822 9.65495L31.6704 9.79162L35.1466 10.3726Z" fill="#0095D4"/>
<path d="M29.8471 13.8235L30.0155 12.4565C30.0306 12.3538 30.0802 12.2614 30.1541 12.1979C30.228 12.1345 30.3208 12.1048 30.4137 12.1148C30.5058 12.1356 30.5874 12.195 30.6415 12.2808C30.6956 12.3666 30.7182 12.4723 30.7046 12.5761L30.5362 13.926L31.9144 14.1481L32.0828 12.7983C32.0884 12.7465 32.1033 12.6964 32.1264 12.6511C32.1496 12.6058 32.1806 12.5661 32.2177 12.5343C32.2547 12.5025 32.2971 12.4792 32.3424 12.4658C32.3876 12.4525 32.4347 12.4493 32.481 12.4565C32.576 12.4734 32.6613 12.5312 32.7186 12.6174C32.7758 12.7037 32.8005 12.8115 32.7873 12.9178L32.6188 14.2677L34.0123 14.4898L34.1808 13.1742C34.1864 13.1224 34.2013 13.0723 34.2244 13.027C34.2476 12.9817 34.2787 12.942 34.3157 12.9102C34.3528 12.8784 34.3951 12.8551 34.4403 12.8418C34.4855 12.8284 34.5326 12.8252 34.5789 12.8324C34.6739 12.8493 34.7593 12.9071 34.8165 12.9933C34.8738 13.0796 34.8984 13.1874 34.8852 13.2937L34.7168 14.6094L36.4626 14.8828L36.922 11.2605L35.5284 11.0384L32.5575 10.5257L28.5453 9.85938L28.0859 13.533L29.8471 13.8235Z" fill="#0095D4"/>
<path d="M29.2949 18.2497L29.4634 16.8486C29.4785 16.7471 29.5286 16.6563 29.6031 16.5956C29.6775 16.5349 29.7704 16.5092 29.8616 16.524C29.908 16.5303 29.9528 16.5468 29.9934 16.5727C30.034 16.5985 30.0697 16.6331 30.0982 16.6745C30.1267 16.7158 30.1475 16.7631 30.1595 16.8135C30.1714 16.864 30.1742 16.9166 30.1678 16.9682L29.9994 18.3522L31.3623 18.5744L31.5461 17.1903C31.5517 17.1385 31.5666 17.0885 31.5897 17.0432C31.6129 16.9979 31.6439 16.9582 31.6809 16.9264C31.718 16.8946 31.7603 16.8713 31.8055 16.858C31.8507 16.8446 31.8979 16.8414 31.9442 16.8486C32.0364 16.8694 32.118 16.9288 32.1721 17.0146C32.2262 17.1004 32.2488 17.2061 32.2352 17.3099L32.0668 18.6939L33.4756 18.9161L33.644 17.5662C33.6497 17.5144 33.6645 17.4645 33.6877 17.4191C33.7108 17.3738 33.7418 17.3341 33.7789 17.3023C33.816 17.2705 33.8584 17.2472 33.9036 17.2339C33.9488 17.2205 33.9959 17.2173 34.0422 17.2245C34.1344 17.2453 34.216 17.3047 34.2701 17.3905C34.3242 17.4763 34.3468 17.582 34.3332 17.6858L34.1647 19.0186L35.8952 19.3091L36.3699 15.5671L28.0086 14.166L27.5186 17.9592L29.2949 18.2497Z" fill="#0095D4"/>
<path d="M28.7288 22.5559L28.8973 21.1548C28.903 21.103 28.9178 21.053 28.941 21.0077C28.9641 20.9623 28.9951 20.9226 29.0322 20.8908C29.0692 20.859 29.1116 20.8357 29.1568 20.8224C29.202 20.809 29.2491 20.8059 29.2954 20.8131C29.3874 20.8299 29.4703 20.8852 29.5272 20.9677C29.5841 21.0502 29.6107 21.1537 29.6017 21.2573L29.4179 22.6584L30.7962 22.8805L30.98 21.4965C30.9835 21.4438 30.9969 21.3924 31.0194 21.3458C31.0419 21.2992 31.0729 21.2585 31.1105 21.2262C31.1481 21.194 31.1913 21.171 31.2375 21.1587C31.2836 21.1463 31.3315 21.145 31.3781 21.1548C31.4691 21.1716 31.5505 21.2276 31.6049 21.3106C31.6593 21.3937 31.6824 21.4972 31.6691 21.599L31.5006 23.0001L32.8942 23.2223L33.0779 21.8553C33.0836 21.8035 33.0984 21.7535 33.1216 21.7082C33.1447 21.6629 33.1757 21.6232 33.2128 21.5914C33.2499 21.5596 33.2922 21.5363 33.3374 21.5229C33.3826 21.5096 33.4298 21.5064 33.4761 21.5136C33.5683 21.5344 33.6498 21.5938 33.704 21.6796C33.7581 21.7654 33.7807 21.8711 33.7671 21.9749L33.5986 23.3418L35.3443 23.6152L35.819 19.8904L27.4425 18.4893L26.9678 22.2654L28.7288 22.5559Z" fill="#0095D4"/>
<path d="M28.1634 27.0148L28.3319 25.6137C28.3375 25.562 28.3524 25.5119 28.3755 25.4666C28.3987 25.4213 28.4297 25.3815 28.4668 25.3497C28.5038 25.3179 28.5461 25.2947 28.5914 25.2813C28.6366 25.268 28.6837 25.2648 28.73 25.272C28.7765 25.2802 28.8212 25.2988 28.8612 25.3266C28.9012 25.3545 28.9358 25.391 28.963 25.434C28.9901 25.477 29.0092 25.5257 29.0192 25.5771C29.0291 25.6285 29.0297 25.6816 29.0209 25.7333L28.8525 27.1174L30.2308 27.3395L30.4145 25.9554C30.418 25.9027 30.4315 25.8514 30.454 25.8048C30.4765 25.7582 30.5075 25.7175 30.5451 25.6852C30.5827 25.653 30.6259 25.6299 30.672 25.6176C30.7181 25.6053 30.7661 25.604 30.8127 25.6137C30.9037 25.6306 30.985 25.6865 31.0395 25.7695C31.0939 25.8526 31.1169 25.9562 31.1037 26.058L30.9351 27.4591L32.3287 27.6812L32.5125 26.3143C32.5181 26.2625 32.533 26.2125 32.5561 26.1671C32.5793 26.1218 32.6103 26.0821 32.6474 26.0503C32.6844 26.0185 32.7268 25.9952 32.772 25.9819C32.8172 25.9685 32.8644 25.9654 32.9107 25.9725C33.0029 25.9933 33.0844 26.0527 33.1385 26.1385C33.1927 26.2243 33.2152 26.33 33.2016 26.4339L33.0331 27.8008L34.7789 28.0742L35.2689 24.3493L26.8924 22.9482L26.4023 26.7244L28.1634 27.0148Z" fill="#0095D4"/>
<path d="M27.5648 31.3381L27.7333 29.9712C27.7483 29.8697 27.7984 29.7788 27.8729 29.7181C27.9473 29.6574 28.0402 29.6317 28.1314 29.6465C28.2224 29.6633 28.3038 29.7193 28.3582 29.8024C28.4126 29.8854 28.4357 29.989 28.4224 30.0908L28.2692 31.4406L29.6321 31.6627L29.8006 30.3129C29.8189 30.212 29.8693 30.1218 29.9424 30.059C30.0156 29.9962 30.1066 29.965 30.1987 29.9712C30.2937 29.988 30.3791 30.0458 30.4363 30.1321C30.4936 30.2183 30.5182 30.3262 30.505 30.4325L30.3366 31.7823L31.7454 32.0045L31.8985 30.6888C31.9042 30.637 31.919 30.587 31.9422 30.5417C31.9653 30.4963 31.9963 30.4566 32.0334 30.4248C32.0705 30.393 32.1129 30.3698 32.1581 30.3564C32.2033 30.3431 32.2504 30.3399 32.2967 30.3471C32.3917 30.3639 32.477 30.4217 32.5343 30.508C32.5916 30.5942 32.6162 30.7021 32.603 30.8084L32.4346 32.1241L34.1803 32.3975L34.6397 28.7751L33.2615 28.553L30.2753 28.0575L26.2784 27.374L25.8037 31.0476L27.5648 31.3381Z" fill="#0095D4"/>
<path d="M27.0439 35.7629L27.2277 34.3618C27.2333 34.3122 27.2477 34.2644 27.2701 34.2212C27.2925 34.1779 27.3224 34.1401 27.3581 34.1098C27.3937 34.0796 27.4344 34.0576 27.4777 34.0451C27.5211 34.0326 27.5662 34.0299 27.6105 34.0371C27.6569 34.0434 27.7018 34.06 27.7424 34.0858C27.783 34.1117 27.8186 34.1463 27.8471 34.1876C27.8756 34.229 27.8964 34.2763 27.9084 34.3267C27.9204 34.3771 27.9233 34.4297 27.9168 34.4814L27.7484 35.8654L29.1112 36.0875L29.295 34.7035C29.3101 34.6008 29.3597 34.5084 29.4336 34.4449C29.5075 34.3815 29.6003 34.3517 29.6932 34.3618C29.7854 34.3825 29.8669 34.4419 29.921 34.5278C29.9752 34.6136 29.9977 34.7193 29.9841 34.8231L29.8157 36.2071L31.2245 36.4292L31.3931 35.0794C31.3987 35.0276 31.4136 34.9776 31.4367 34.9323C31.4599 34.887 31.4909 34.8473 31.5279 34.8154C31.565 34.7836 31.6073 34.7604 31.6525 34.747C31.6977 34.7337 31.7448 34.7305 31.7911 34.7377C31.8377 34.7459 31.8824 34.7645 31.9224 34.7923C31.9624 34.8202 31.997 34.8566 32.0242 34.8997C32.0513 34.9427 32.0704 34.9914 32.0803 35.0428C32.0903 35.0942 32.0909 35.1473 32.0821 35.199L31.929 36.5489L33.6441 36.8223L34.1188 33.0974L25.7575 31.6963L25.2676 35.4724L27.0439 35.7629Z" fill="#0095D4"/>
<path d="M26.4466 40.1379L26.615 38.7368C26.6206 38.685 26.6355 38.635 26.6586 38.5896C26.6818 38.5443 26.7129 38.5046 26.75 38.4728C26.787 38.441 26.8294 38.4177 26.8746 38.4044C26.9198 38.391 26.9669 38.3878 27.0132 38.395C27.1082 38.4119 27.1935 38.4697 27.2508 38.556C27.308 38.6422 27.3327 38.7501 27.3195 38.8564L27.151 40.2575L28.514 40.4625L28.6977 39.0785C28.7034 39.0268 28.7182 38.9767 28.7414 38.9314C28.7645 38.8861 28.7955 38.8463 28.8326 38.8145C28.8697 38.7827 28.912 38.7595 28.9572 38.7461C29.0024 38.7328 29.0496 38.7296 29.0959 38.7368C29.1881 38.7575 29.2696 38.8169 29.3238 38.9028C29.3779 38.9886 29.4005 39.0943 29.3869 39.1981L29.2183 40.5821L30.6273 40.8042L30.7957 39.4373C30.8108 39.3359 30.8609 39.245 30.9353 39.1843C31.0098 39.1236 31.1026 39.0979 31.1939 39.1127C31.2398 39.1188 31.2841 39.1354 31.3241 39.1615C31.364 39.1875 31.3987 39.2225 31.426 39.2642C31.4532 39.3059 31.4726 39.3533 31.4827 39.4037C31.4928 39.4541 31.4936 39.5063 31.4848 39.557L31.3163 40.9239L33.0621 41.1973L33.5368 37.4724L25.1603 36.0713L24.6855 39.8474L26.4466 40.1379Z" fill="#0095D4"/>
<path d="M2.20518 38.4625C4.15002 34.0712 6.15606 29.3212 6.07949 24.4857C6.15606 22.4182 5.63541 18.9667 11.0718 18.4883C15.4209 18.1124 18.3917 22.5549 19.4178 24.3661L23.1543 33.6612C22.8787 34.8743 23.8128 35.9678 24.6857 36.7026C26.0343 37.7921 27.5007 38.6877 29.05 39.3681C29.7205 39.597 30.352 39.9493 30.9184 40.4104C32.1894 41.6064 32.2659 43.8277 33.0776 45.4509C34.3639 48.0993 37.2429 48.9708 39.6778 50.1326C41.7785 51.1186 43.7269 52.4678 45.4511 54.1308C46.7165 55.1354 47.5837 56.6482 47.8706 58.3513C47.9036 59.0611 47.799 59.7705 47.5638 60.4311C47.3286 61.0916 46.9684 61.6877 46.5077 62.1786C45.597 63.1349 44.5173 63.8682 43.3378 64.3316C37.3042 66.9971 30.5661 66.3478 24.165 65.1688C19.7853 64.3486 15.4209 63.3063 11.1024 62.0419C9.10382 61.5982 7.21667 60.6709 5.57412 59.3252C4.42922 58.1049 3.47671 56.6781 2.75645 55.1048C1.09333 52.384 0.139155 49.2019 0 45.9123C0.25727 43.2914 1.0032 40.7596 2.18985 38.4796" fill="#0095D4"/>
<path d="M37.763 42.5982V37.626C39.832 38.654 41.8419 39.8238 43.7813 41.1288L43.1228 27.6816L44.6542 28.0063C44.6542 28.0063 54.6234 44.734 45.8027 45.9813C40.8069 46.6647 35.7499 45.4617 31.4385 42.564L37.763 42.5982Z" fill="#9BCEA4"/>
<path d="M38.2227 12.508L47.6406 5.99805L52.6176 28.0056L44.9761 33.7979L38.2227 12.508Z" fill="#142B2A"/>
<path d="M72.3898 45.0761L82.6959 26.0929C82.6959 26.0929 82.5122 29.6811 86.4018 33.8844C90.2915 38.0877 101.716 46.4943 101.716 46.4943L106.126 46.05L88.3007 19.3779H76.8154L70.8125 28.3484L72.3898 45.0761Z" fill="#0095D4"/>
<path d="M78.7759 24.0418C78.7759 24.0418 75.5599 49.8425 65.5754 51.3803C55.5909 52.9181 52.5741 38.0015 71.9 18.1811L101.716 10.2529L102.864 13.0039C102.864 13.0039 89.5568 26.2289 78.7759 24.0931" fill="#9BCEA4"/>
<path d="M68.6677 49.9956C68.6677 49.9956 64.5636 54.3186 47.305 54.3186C30.0465 54.3186 24.3345 45.4164 26.1568 39.6924C27.9791 33.9684 58.2084 39.6924 58.2084 39.6924C58.2084 39.6924 59.311 46.5271 68.6677 49.9444" fill="#CA5098"/>
<path d="M20.9189 33.0635C20.9189 33.0635 28.5758 40.2058 29.7703 35.0627C30.9648 29.9196 24.3645 25.8701 24.3645 25.8701L20.9189 33.0635Z" fill="#E3E3E3"/>
<path d="M46.6768 27.9541C46.6768 27.9541 59.6934 49.8078 48.2081 51.431C36.7229 53.0543 23.7062 45.9121 26.2024 39.6926C28.6985 33.4731 45.6355 44.9894 45.6355 44.9894L44.7932 29.4065L46.6768 27.9541Z" fill="#0095D4"/>
<path d="M18.989 51.6033C19.6475 44.2561 16.5235 34.2775 16.4775 31.7487C16.4775 30.04 17.6568 25.9222 20.1989 24.9141C21.3741 24.3906 22.6831 24.3813 23.8642 24.8882C25.0453 25.3951 26.0113 26.3807 26.5693 27.6479C25.7811 27.1269 24.8589 26.9163 23.9506 27.0499C23.5347 28.5285 23.4871 30.1055 23.8129 31.612C23.9013 31.8997 24.0195 32.175 24.165 32.4321C24.4254 32.8935 24.8082 33.3719 25.1145 33.8503V33.9529L25.2982 34.2775C25.8156 35.138 26.1652 36.1101 26.3243 37.131C26.3243 37.5581 26.3243 38.122 26.3243 38.8396C26.0948 41.661 26.6738 44.4909 27.9781 46.9216C29.9931 49.7016 32.825 51.5961 35.9719 52.2697C36.7187 52.4897 37.4752 52.6664 38.2383 52.7994C44.716 53.8587 46.6455 62.0431 37.5339 66.9299C28.4222 71.8166 18.2233 58.9505 18.8818 51.552" fill="#142B2A"/>
<path d="M46.0938 27.3398C45.7569 25.1356 45.3741 22.9656 44.93 20.7956C44.93 20.7684 44.9203 20.7424 44.9031 20.7232C44.8858 20.7039 44.8625 20.6931 44.8381 20.6931C44.8137 20.6931 44.7904 20.7039 44.7731 20.7232C44.7559 20.7424 44.7462 20.7684 44.7462 20.7956C44.6536 21.2339 44.6536 21.6901 44.7462 22.1284C44.7808 21.5327 44.6584 20.9387 44.394 20.4197C44.3845 20.402 44.371 20.3874 44.3549 20.3772C44.3388 20.3671 44.3207 20.3617 44.3022 20.3617C44.2837 20.3617 44.2655 20.3671 44.2494 20.3772C44.2333 20.3874 44.2198 20.402 44.2103 20.4197C44.0927 20.9817 44.0927 21.5664 44.2103 22.1284C44.2225 21.3633 44.013 20.6142 43.613 19.9926C43.588 19.9585 43.5545 19.9335 43.5168 19.9207C43.479 19.9079 43.4388 19.9079 43.401 19.9208C43.3633 19.9336 43.3298 19.9586 43.3049 19.9927C43.2799 20.0268 43.2646 20.0684 43.2608 20.1122C43.1852 21.2248 43.3208 22.3427 43.6589 23.3928C43.4546 22.5261 43.0719 21.7245 42.541 21.0519C42.5149 21.0169 42.4791 20.9925 42.4392 20.9827C42.3993 20.9729 42.3576 20.9783 42.3207 20.9979C42.2839 21.0175 42.2538 21.0502 42.2355 21.091C42.2172 21.1317 42.2115 21.1781 42.2194 21.2228C42.429 22.6736 42.7467 24.1025 43.169 25.4944C42.4492 25.4944 42.0663 24.3667 41.4537 24.0763C41.408 24.0602 41.3595 24.0564 41.3121 24.0651C41.2648 24.0738 41.2199 24.0947 41.1812 24.1263C41.1424 24.1579 41.1109 24.1993 41.0891 24.2469C41.0673 24.2946 41.0559 24.3473 41.0557 24.4009C41.1482 25.035 41.4416 25.611 41.8826 26.0241C42.7297 26.9467 43.6947 27.7241 44.7462 28.3308" fill="#9BCEA4"/>
<path d="M47.6393 5.99845L37.5322 5.50293L39.3087 11.7566L47.6393 5.99845Z" fill="#9BCEA4"/>
<path d="M113 50.9539C113 49.3819 106.598 47.2119 106.598 47.2119C105.154 47.5818 103.683 47.8049 102.203 47.8783C102.066 48.8693 101.897 50.578 102.203 51.0222C102.51 51.4665 112.923 52.5259 112.923 51.0222" fill="#0095D4"/>
<path d="M105.756 0.00117604C104.424 0.154955 103.122 7.57056 103.122 7.57056C103.567 9.17205 103.889 10.8125 104.087 12.4744C104.944 12.4744 106.415 12.5769 106.767 12.1326C107.119 11.6884 107.104 -0.135516 105.756 0.00117604Z" fill="#0095D4"/>
<path d="M97.718 14.0127H97.7945L98.3764 13.6368C98.4025 13.6005 98.4167 13.5553 98.4167 13.5087C98.4167 13.4621 98.4025 13.4169 98.3764 13.3806C98.3453 13.3481 98.3042 13.3301 98.2616 13.3301C98.2189 13.3301 98.1779 13.3481 98.1467 13.3806L97.5648 13.7394C97.5357 13.7741 97.5195 13.82 97.5195 13.8675C97.5195 13.9151 97.5357 13.9609 97.5648 13.9956C97.5765 14.0257 97.5958 14.0514 97.6202 14.0695C97.6446 14.0877 97.6733 14.0976 97.7026 14.0982" fill="#13110C"/>
<path d="M75.5884 21.6834C75.5504 21.6708 75.5171 21.6449 75.4935 21.6095C75.4698 21.5741 75.457 21.5311 75.457 21.4869C75.457 21.4428 75.4698 21.3998 75.4935 21.3644C75.5171 21.329 75.5504 21.3031 75.5884 21.2904C76.0018 21.2904 76.4459 21.205 76.8594 21.1367C76.8973 21.1493 76.9305 21.1752 76.9542 21.2106C76.9778 21.246 76.9906 21.289 76.9906 21.3331C76.9906 21.3773 76.9778 21.4203 76.9542 21.4557C76.9305 21.4911 76.8973 21.517 76.8594 21.5296L75.573 21.6834M78.1304 21.3417C78.0892 21.3385 78.0502 21.3199 78.0196 21.2889C77.9891 21.2579 77.9687 21.2163 77.962 21.1708C77.9599 21.1461 77.9621 21.1212 77.9687 21.0975C77.9753 21.0738 77.986 21.0518 78.0003 21.0327C78.0145 21.0136 78.032 20.9979 78.0517 20.9864C78.0714 20.975 78.0929 20.9679 78.1151 20.9658L79.3861 20.7266C79.4074 20.7216 79.4294 20.7218 79.4506 20.7271C79.4718 20.7324 79.4917 20.7426 79.5091 20.7572C79.5265 20.7717 79.5409 20.7902 79.5514 20.8114C79.5618 20.8327 79.5682 20.8562 79.5699 20.8803C79.5743 20.905 79.5742 20.9305 79.5696 20.9552C79.565 20.9799 79.556 21.0033 79.5431 21.024C79.5303 21.0447 79.5138 21.0623 79.4947 21.0758C79.4756 21.0893 79.4544 21.0984 79.4321 21.1025L78.161 21.3417M80.6419 20.8462C80.6217 20.8485 80.6013 20.8464 80.5819 20.84C80.5626 20.8335 80.5445 20.8228 80.5289 20.8085C80.5132 20.7942 80.5002 20.7766 80.4907 20.7566C80.4812 20.7367 80.4753 20.7149 80.4734 20.6924C80.469 20.6677 80.4691 20.6422 80.4737 20.6175C80.4783 20.5928 80.4873 20.5695 80.5002 20.5487C80.513 20.528 80.5294 20.5104 80.5485 20.4969C80.5676 20.4834 80.5889 20.4744 80.6112 20.4703L81.8669 20.1798C81.8891 20.1749 81.9119 20.175 81.934 20.1801C81.9562 20.1852 81.9772 20.1952 81.9957 20.2096C82.0143 20.2239 82.0301 20.2423 82.0422 20.2636C82.0543 20.2849 82.0623 20.3087 82.066 20.3336C82.0753 20.3811 82.0677 20.4308 82.0449 20.4722C82.022 20.5136 81.9857 20.5435 81.9435 20.5557L80.6725 20.8462M83.1839 20.2311C83.1475 20.2255 83.1135 20.2078 83.0862 20.1803C83.0589 20.1529 83.0396 20.117 83.0308 20.0773C83.0215 20.0297 83.0291 19.9801 83.0519 19.9387C83.0748 19.8972 83.1111 19.8673 83.1533 19.8552L84.4091 19.4963C84.4513 19.4898 84.4942 19.4998 84.5306 19.5248C84.5669 19.5497 84.5943 19.588 84.6081 19.633C84.618 19.6828 84.6109 19.7348 84.5882 19.779C84.5656 19.8232 84.529 19.8564 84.4856 19.8722L83.2299 20.2311M85.7413 19.4793C85.7042 19.4782 85.6681 19.4645 85.6381 19.4401C85.608 19.4157 85.5852 19.3817 85.5728 19.3425C85.563 19.2928 85.5701 19.2408 85.5927 19.1965C85.6154 19.1523 85.652 19.1191 85.6954 19.1034C86.1088 18.9838 86.5223 18.8299 86.9204 18.6932C86.9631 18.6813 87.0082 18.6867 87.0476 18.7087C87.0869 18.7306 87.1179 18.7676 87.1348 18.8129C87.1446 18.8362 87.1495 18.8616 87.1491 18.8873C87.1488 18.913 87.1433 18.9383 87.133 18.9613C87.1227 18.9843 87.1078 19.0044 87.0896 19.0201C87.0714 19.0359 87.0502 19.0468 87.0276 19.0521L85.7872 19.4793M88.2527 18.6249C88.2176 18.6228 88.184 18.6085 88.1565 18.584C88.1291 18.5595 88.1092 18.526 88.0996 18.4882C88.0924 18.4647 88.0895 18.4398 88.091 18.415C88.0925 18.3901 88.0984 18.3659 88.1084 18.3436C88.1184 18.3214 88.1323 18.3016 88.1492 18.2853C88.166 18.2691 88.1856 18.2568 88.2068 18.249L89.4319 17.7877C89.4507 17.7766 89.4714 17.7705 89.4927 17.7698C89.5139 17.7692 89.535 17.774 89.5543 17.7839C89.5735 17.7938 89.5905 17.8086 89.6038 17.827C89.6171 17.8455 89.6264 17.8671 89.631 17.8902C89.6438 17.9382 89.6418 17.9896 89.6251 18.0362C89.6084 18.0827 89.5781 18.1216 89.5391 18.1465L88.2987 18.6078M90.7336 17.6339C90.6985 17.6318 90.6648 17.6175 90.6374 17.593C90.6099 17.5684 90.59 17.535 90.5804 17.4972C90.5732 17.4737 90.5703 17.4487 90.5718 17.4239C90.5733 17.3991 90.5792 17.3749 90.5892 17.3526C90.5992 17.3304 90.6131 17.3105 90.63 17.2943C90.6469 17.278 90.6664 17.2657 90.6876 17.258C91.1011 17.0871 91.4993 16.9163 91.8822 16.7283C91.9033 16.7203 91.9255 16.717 91.9478 16.7187C91.97 16.7204 91.9918 16.727 92.0117 16.7382C92.0316 16.7493 92.0494 16.7647 92.0639 16.7835C92.0785 16.8024 92.0896 16.8243 92.0965 16.8479C92.1063 16.8701 92.1118 16.8944 92.1125 16.9191C92.1131 16.9438 92.1089 16.9685 92.1001 16.9912C92.0914 17.014 92.0783 17.0343 92.0618 17.0509C92.0453 17.0674 92.0258 17.0798 92.0046 17.0871L90.7948 17.6168M93.1991 16.5233C93.1675 16.5239 93.1365 16.5146 93.1094 16.4965C93.0823 16.4784 93.0603 16.4521 93.0459 16.4208C93.0299 16.3729 93.0304 16.3202 93.0474 16.2728C93.0644 16.2254 93.0966 16.1868 93.1378 16.1645L94.3323 15.5835C94.3704 15.576 94.4098 15.5833 94.4436 15.6043C94.4775 15.6253 94.5038 15.6586 94.5182 15.6988C94.5326 15.7389 94.5341 15.7833 94.5226 15.8245C94.5111 15.8658 94.4871 15.9014 94.4548 15.9252L93.2757 16.5062M95.6493 15.3272C95.6165 15.3244 95.585 15.3118 95.558 15.2907C95.5311 15.2697 95.5098 15.241 95.4962 15.2076C95.4789 15.1618 95.4771 15.1105 95.4912 15.0634C95.5053 15.0162 95.5343 14.9764 95.5727 14.9513C96.0168 14.7292 96.3997 14.507 96.7366 14.3191C96.7566 14.3074 96.7785 14.3004 96.8011 14.2984C96.8236 14.2964 96.8462 14.2995 96.8676 14.3075C96.889 14.3155 96.9088 14.3282 96.9257 14.3448C96.9427 14.3615 96.9565 14.3818 96.9662 14.4046C96.9923 14.4409 97.0066 14.4861 97.0066 14.5327C97.0066 14.5793 96.9923 14.6245 96.9662 14.6608L95.7871 15.3101" fill="#13110C"/>
<path d="M73.246 22.4363C73.2674 22.4483 73.2911 22.4546 73.315 22.4546C73.3389 22.4546 73.3625 22.4483 73.3839 22.4363L73.7207 21.8895H74.318C74.3402 21.8874 74.3618 21.8804 74.3815 21.8689C74.4012 21.8574 74.4186 21.8417 74.4329 21.8226C74.4471 21.8036 74.4578 21.7816 74.4644 21.7579C74.4709 21.7342 74.4732 21.7092 74.4711 21.6845C74.4638 21.6362 74.4413 21.5925 74.4076 21.5612C74.3739 21.5299 74.3312 21.513 74.2873 21.5137H73.6289L73.2307 22.1288C73.2016 22.1636 73.1855 22.2094 73.1855 22.257C73.1855 22.3045 73.2016 22.3503 73.2307 22.3851C73.245 22.3927 73.2608 22.3966 73.2767 22.3966C73.2926 22.3966 73.3082 22.3927 73.3226 22.3851" fill="#13110C"/>
<path d="M65.005 38.7702C64.965 38.7513 64.9331 38.7158 64.916 38.6713C64.8989 38.6267 64.8978 38.5764 64.9131 38.531C65.0662 38.0526 65.2347 37.5571 65.4338 37.0616C65.4404 37.0379 65.4514 37.0162 65.4662 36.9978C65.4811 36.9794 65.4994 36.9648 65.5198 36.955C65.5402 36.9453 65.5622 36.9406 65.5844 36.9413C65.6066 36.942 65.6284 36.948 65.6482 36.9591C65.6681 36.9682 65.6859 36.9818 65.7008 36.9992C65.7156 37.0165 65.727 37.0371 65.7342 37.0596C65.7414 37.0822 65.7443 37.1062 65.7427 37.1301C65.7411 37.154 65.735 37.1772 65.7248 37.1983C65.541 37.7109 65.3725 38.1893 65.2194 38.6677C65.2093 38.7037 65.1888 38.735 65.1611 38.7566C65.1334 38.7783 65.1001 38.7891 65.0663 38.7873M66.1535 35.8826C66.1331 35.8717 66.115 35.8563 66.1 35.8374C66.0851 35.8185 66.0737 35.7965 66.0666 35.7726C66.0594 35.7487 66.0567 35.7234 66.0585 35.6983C66.0602 35.6731 66.0665 35.6487 66.077 35.6263C66.2607 35.1821 66.4752 34.7037 66.6895 34.2081C66.7207 34.1757 66.7618 34.1577 66.8044 34.1577C66.847 34.1577 66.888 34.1757 66.9192 34.2081C66.9483 34.2429 66.9644 34.2887 66.9644 34.3363C66.9644 34.3838 66.9483 34.4296 66.9192 34.4644L66.3067 35.8655C66.2968 35.897 66.278 35.924 66.2531 35.9425C66.2283 35.9609 66.1987 35.9699 66.1688 35.9681M67.4246 33.1658H67.3327C67.3036 33.131 67.2875 33.0853 67.2875 33.0377C67.2875 32.9902 67.3036 32.9443 67.3327 32.9095L68.0065 31.5255C68.0303 31.4858 68.0667 31.4577 68.1084 31.4469C68.1501 31.4361 68.1939 31.4434 68.2309 31.4673C68.268 31.4912 68.2955 31.53 68.3078 31.5758C68.3202 31.6215 68.3165 31.6707 68.2975 31.7135L67.6237 33.0804C67.6119 33.1105 67.5927 33.1361 67.5682 33.1543C67.5438 33.1724 67.5152 33.1824 67.4858 33.1829M68.8487 30.4491H68.7722C68.7421 30.4115 68.7254 30.3628 68.7254 30.3124C68.7254 30.262 68.7421 30.2133 68.7722 30.1757C69.0019 29.7143 69.2469 29.2701 69.4919 28.8429C69.5048 28.8251 69.5212 28.8107 69.5397 28.8009C69.5583 28.791 69.5785 28.7858 69.5991 28.7858C69.6196 28.7858 69.64 28.791 69.6585 28.8009C69.6771 28.8107 69.6934 28.8251 69.7063 28.8429C69.7354 28.8777 69.7515 28.9235 69.7515 28.9711C69.7515 29.0187 69.7354 29.0644 69.7063 29.0992L68.9866 30.4491C68.9716 30.4748 68.9512 30.496 68.9272 30.5109C68.9031 30.5258 68.8762 30.5339 68.8487 30.5345M70.3036 27.8519H70.2117C70.195 27.8344 70.1817 27.8132 70.1726 27.7897C70.1635 27.7662 70.1589 27.7408 70.1589 27.7152C70.1589 27.6896 70.1635 27.6643 70.1726 27.6408C70.1817 27.6173 70.195 27.5961 70.2117 27.5785L70.962 26.2629C70.9764 26.2447 70.9941 26.2301 71.0139 26.2201C71.0337 26.2102 71.0552 26.205 71.0769 26.205C71.0986 26.205 71.1201 26.2102 71.1399 26.2201C71.1597 26.2301 71.1774 26.2447 71.1918 26.2629C71.2208 26.2977 71.237 26.3435 71.237 26.391C71.237 26.4386 71.2208 26.4844 71.1918 26.5192L70.4414 27.8348C70.4275 27.8617 70.4074 27.8838 70.3831 27.8989C70.3588 27.9139 70.3313 27.9213 70.3036 27.9203M71.8349 25.306H71.743C71.718 25.2659 71.7046 25.2182 71.7046 25.1693C71.7046 25.1205 71.718 25.0728 71.743 25.0327L72.5394 23.7341C72.5706 23.7016 72.6115 23.6836 72.6542 23.6836C72.6968 23.6836 72.7379 23.7016 72.769 23.7341C72.7857 23.7516 72.799 23.7728 72.8081 23.7963C72.8172 23.8198 72.8219 23.8451 72.8219 23.8707C72.8219 23.8963 72.8172 23.9217 72.8081 23.9452C72.799 23.9687 72.7857 23.9899 72.769 24.0075L71.988 25.306C71.973 25.3317 71.9527 25.353 71.9287 25.3678C71.9047 25.3827 71.8777 25.3909 71.8503 25.3915" fill="#13110C"/>
<path d="M64.4081 40.9923C64.4452 40.9892 64.4804 40.9724 64.5082 40.9446C64.5359 40.9167 64.5545 40.8794 64.5612 40.8385C64.5612 40.6164 64.6683 40.36 64.7296 40.1208C64.7368 40.0973 64.7397 40.0724 64.7382 40.0476C64.7367 40.0227 64.7308 39.9985 64.7208 39.9762C64.7108 39.954 64.697 39.9342 64.6801 39.9179C64.6632 39.9017 64.6436 39.8894 64.6224 39.8816C64.6003 39.8739 64.577 39.8714 64.554 39.8741C64.5309 39.8769 64.5087 39.885 64.4885 39.8978C64.4684 39.9106 64.4509 39.928 64.437 39.9487C64.4232 39.9694 64.4133 39.9931 64.4081 40.0183C64.4081 40.2746 64.3008 40.5138 64.2395 40.753C64.2328 40.8025 64.2413 40.853 64.2636 40.8964C64.2858 40.9398 64.3205 40.9736 64.3621 40.9923" fill="#13110C"/>
<path d="M28.4528 32.2774H28.5447L28.9122 31.9698C28.9706 31.9241 29.0137 31.8579 29.0347 31.7819C29.0563 31.7342 29.0675 31.6815 29.0675 31.6281C29.0675 31.5747 29.0563 31.522 29.0347 31.4743C28.527 30.41 27.8468 29.4598 27.0286 28.6721C27.0143 28.6539 26.9966 28.6394 26.9768 28.6294C26.957 28.6194 26.9355 28.6143 26.9138 28.6143C26.892 28.6143 26.8706 28.6194 26.8508 28.6294C26.831 28.6394 26.8134 28.6539 26.799 28.6721C26.7823 28.6897 26.769 28.7108 26.7599 28.7343C26.7508 28.7579 26.7461 28.7832 26.7461 28.8088C26.7461 28.8344 26.7508 28.8597 26.7599 28.8832C26.769 28.9067 26.7823 28.9279 26.799 28.9455C27.5867 29.6974 28.241 30.6073 28.7284 31.6281L28.3763 31.9186C28.3461 31.9562 28.3294 32.0048 28.3294 32.0552C28.3294 32.1057 28.3461 32.1544 28.3763 32.192C28.3979 32.2028 28.4214 32.2084 28.4451 32.2084C28.4689 32.2084 28.4924 32.2028 28.5141 32.192" fill="#13110C"/>
<path d="M28.1767 34.1235C28.6954 33.9994 29.1572 33.6721 29.4784 33.2009C29.4947 33.1849 29.5077 33.1651 29.5166 33.143C29.5255 33.1209 29.5302 33.097 29.5302 33.0727C29.5302 33.0485 29.5255 33.0245 29.5166 33.0024C29.5077 32.9803 29.4947 32.9606 29.4784 32.9445C29.464 32.9264 29.4463 32.9118 29.4265 32.9018C29.4067 32.8919 29.3852 32.8867 29.3635 32.8867C29.3418 32.8867 29.3203 32.8919 29.3005 32.9018C29.2807 32.9118 29.263 32.9264 29.2486 32.9445C28.9655 33.3356 28.5711 33.6069 28.1308 33.7135C28.0874 33.7292 28.0508 33.7625 28.0281 33.8067C28.0055 33.8509 27.9984 33.903 28.0082 33.9527C28.0178 33.9905 28.0377 34.0239 28.0652 34.0484C28.0926 34.073 28.1262 34.0873 28.1613 34.0894" fill="#13110C"/>
<path d="M25.2536 30.2281C25.2727 30.2387 25.2936 30.2442 25.3149 30.2442C25.3361 30.2442 25.357 30.2387 25.3761 30.2281C25.7725 29.6769 26.3048 29.267 26.9075 29.0492C26.9501 29.0333 26.9854 28.9992 27.0055 28.9544C27.0256 28.9095 27.0289 28.8576 27.0147 28.81C27.0004 28.7624 26.9699 28.7231 26.9297 28.7006C26.8895 28.6782 26.843 28.6745 26.8003 28.6904C26.1433 28.925 25.5662 29.3781 25.1464 29.989C25.1163 30.0266 25.0996 30.0752 25.0996 30.1256C25.0996 30.1761 25.1163 30.2248 25.1464 30.2624H25.2536" fill="#13110C"/>
<path d="M26.8771 30.8592C26.9144 30.8457 26.9488 30.8236 26.9778 30.7941C27.0069 30.7646 27.0299 30.7286 27.0455 30.6884C27.0636 30.6426 27.073 30.5931 27.073 30.5431C27.073 30.4931 27.0636 30.4436 27.0455 30.3979C26.9998 30.2806 26.9255 30.18 26.8311 30.1074C26.8009 30.0796 26.763 30.0645 26.7239 30.0645C26.6848 30.0645 26.6468 30.0796 26.6167 30.1074C26.5686 30.14 26.5283 30.1848 26.499 30.2384C26.4697 30.2919 26.4523 30.3524 26.4482 30.415C26.4481 30.4918 26.4665 30.5673 26.5015 30.6334C26.5366 30.6996 26.5869 30.754 26.6473 30.7909H26.7852" fill="#13110C"/>
<path d="M28.024 29.2886C28.0537 29.2672 28.0883 29.2559 28.1237 29.2559C28.1591 29.2559 28.1937 29.2672 28.2234 29.2886C28.2619 29.2998 28.2973 29.3212 28.3267 29.351C28.3561 29.3808 28.3785 29.4181 28.3921 29.4598C28.3996 29.4993 28.3996 29.54 28.3921 29.5796C28.3921 29.5796 28.3921 29.7165 28.3001 29.7507C28.2558 29.7793 28.2055 29.7943 28.1543 29.7943C28.1032 29.7943 28.0529 29.7793 28.0086 29.7507C27.9913 29.7046 27.9824 29.6552 27.9824 29.6053C27.9824 29.5553 27.9913 29.5059 28.0086 29.4598C28.0151 29.4313 28.0265 29.4045 28.0423 29.381C28.0581 29.3575 28.078 29.3377 28.1007 29.3228" fill="#13110C"/>
</svg>
