<svg width="87" height="82" viewBox="0 0 87 82" fill="none" xmlns="http://www.w3.org/2000/svg">
<path d="M11.2739 49.2349H25.8593C25.1264 49.0082 24.4698 48.5846 23.9609 48.0104C23.4521 47.4362 23.1105 46.7334 22.9735 45.9785H9.67491C9.5302 46.7332 9.18358 47.4346 8.67198 48.008C8.16037 48.5814 7.50293 49.0055 6.76953 49.2349H11.2739Z" fill="#0095D4"/>
<path d="M11.2739 43.8931H25.8593C25.1227 43.6667 24.4632 43.2409 23.9538 42.6626C23.4444 42.0844 23.1051 41.3764 22.9735 40.6172H9.67491C9.53544 41.3763 9.19099 42.0828 8.67888 42.6602C8.16677 43.2376 7.50652 43.6639 6.76953 43.8931H11.2739Z" fill="#0095D4"/>
<path d="M23.2058 38.335H23.3423C22.7087 37.9715 22.1746 37.4576 21.7869 36.8387C21.3992 36.2197 21.1698 35.5148 21.1193 34.7861H11.5062C11.4556 35.5148 11.2264 36.2197 10.8387 36.8387C10.451 37.4576 9.91673 37.9715 9.2832 38.335H23.2058Z" fill="#0095D4"/>
<path d="M21.6463 32.5051C21.1375 32.0833 20.726 31.5565 20.4399 30.9608C20.1538 30.3651 20 29.7145 19.9889 29.0537H13.0666C13.0555 29.7145 12.9017 30.3651 12.6156 30.9608C12.3295 31.5565 11.918 32.0833 11.4092 32.5051H21.6073H21.6463Z" fill="#0095D4"/>
<path d="M21.0811 51.3026H18.7217V55.7874H21.0811V51.3026Z" fill="#0095D4"/>
<path d="M24.0827 51.3027H19.7148V55.7876H24.0827V51.3027Z" fill="#0095D4"/>
<path d="M13.2814 51.3016H8.5625V55.7865H13.2814V51.3016Z" fill="#0095D4"/>
<path d="M13.9238 51.3026H11.5449V55.7874H13.9238V51.3026Z" fill="#0095D4"/>
<path d="M18.1735 51.3027H14.4492V55.7876H18.1735V51.3027Z" fill="#0095D4"/>
<path d="M86.0894 72.8883C84.9585 64.1526 56.5285 60.7012 56.5285 60.7012H35.2157C35.2157 60.7012 6.8051 64.1526 5.65464 72.8883C4.97216 78.1336 15.8138 80.3175 26.792 81.2145H27.1625L28.9173 81.351C34.7671 81.6435 45.1213 80.9415 48.8846 80.6685C42.6934 79.798 36.6346 78.1605 30.8478 75.7937C30.8203 75.7647 30.8051 75.7263 30.8051 75.6864C30.8051 75.6465 30.8203 75.6082 30.8478 75.5792C30.8605 75.5662 30.8756 75.5559 30.8924 75.5489C30.9091 75.5419 30.9272 75.5382 30.9453 75.5382C30.9635 75.5382 30.9814 75.5419 30.9982 75.5489C31.0149 75.5559 31.0301 75.5662 31.0428 75.5792C37.2476 78.1086 43.7574 79.8131 50.4056 80.649C51.4976 80.922 57.7179 81.234 60.3503 81.351H60.6818C61.1498 81.351 62.1052 81.351 63.1972 81.351C74.8968 80.5125 86.889 78.3676 86.1675 72.9078" fill="#0095D4"/>
<path d="M63.3534 72.3208C53.2313 70.3545 42.8527 70.0844 32.642 71.5213C32.6034 71.5273 32.5639 71.5187 32.5314 71.497C32.4989 71.4753 32.4757 71.4423 32.4664 71.4043C32.4605 71.3606 32.4712 71.3163 32.4965 71.2802C32.5218 71.244 32.5598 71.2187 32.6029 71.2093C42.8462 69.7716 53.2569 70.0418 63.4119 72.0088C63.455 72.0182 63.493 72.0435 63.5183 72.0796C63.5436 72.1158 63.5543 72.1601 63.5484 72.2038C63.5369 72.2366 63.5159 72.2651 63.4882 72.2859C63.4604 72.3068 63.427 72.3189 63.3924 72.3208" fill="white"/>
<path d="M30.4603 75.3853C31.4071 74.2997 31.9571 72.9246 32.0202 71.4855C31.4523 70.7379 30.9623 69.9343 30.5577 69.0871C30.2976 68.5611 29.84 68.1592 29.2848 67.9693C28.7295 67.7793 28.1216 67.8166 27.5938 68.0731C27.1759 68.47 26.7912 68.9004 26.4434 69.36C25.9077 69.7648 25.2807 70.0316 24.6176 70.137C23.9545 70.2424 23.2758 70.1832 22.641 69.9645C21.3844 69.4898 19.9978 69.4898 18.7411 69.9645C18.7411 69.9645 16.7912 71.3295 17.1031 72.3629C17.4151 73.3964 19.0531 72.246 20.145 72.3629H20.5741C23.0505 72.5774 25.3124 74.3129 27.7498 74.9759C28.5841 75.1926 29.4423 75.304 30.3042 75.3074H30.4797" fill="white"/>
<path d="M56.4902 71.2499C59.4244 71.5659 62.3357 72.0674 65.2065 72.7514C66.3994 72.0798 67.6986 71.618 69.0478 71.3864H69.4963C70.5297 71.2304 72.4407 72.3418 72.6942 71.2499C72.9477 70.1579 70.8808 68.8124 70.8808 68.8124C69.5322 68.353 68.0623 68.4016 66.7469 68.949C66.0887 69.21 65.3766 69.3056 64.6728 69.2275C63.9691 69.1493 63.2953 68.8996 62.7105 68.5005C62.3232 68.0322 61.8993 67.5954 61.443 67.194C60.4291 66.5311 59.0837 67.194 58.3817 68.403C57.6798 69.6119 57.4457 70.7234 56.5682 71.3084" fill="white"/>
<path d="M15.1514 63.3926C13.7361 64.4171 12.2432 65.3299 10.6861 66.1225C9.94006 66.5942 9.3104 67.2288 8.84438 67.9784C8.37837 68.7281 8.08807 69.5735 7.99521 70.4513C7.99408 70.4857 8.00305 70.5196 8.02104 70.5489C8.03903 70.5782 8.06522 70.6016 8.09637 70.6162C8.12753 70.6307 8.16234 70.6358 8.19635 70.6307C8.23036 70.6257 8.26214 70.6108 8.28775 70.5878C8.48044 70.3649 8.65018 70.1232 8.79463 69.8664C8.50073 70.4714 8.39224 71.1498 8.4827 71.8163C8.48544 71.8707 8.50334 71.9233 8.53435 71.9681C8.56535 72.0128 8.60829 72.0481 8.65824 72.0698C8.81424 72.0698 8.98965 72.0698 9.06765 71.8358C9.27207 71.4833 9.39841 71.091 9.43814 70.6854L9.30163 71.8553C9.27273 72.0688 9.27273 72.2853 9.30163 72.4988C9.32889 72.5861 9.38329 72.6624 9.45695 72.7165C9.53061 72.7707 9.61973 72.7999 9.71116 72.7999C9.8026 72.7999 9.8916 72.7707 9.96526 72.7165C10.0389 72.6624 10.0934 72.5861 10.1207 72.4988C10.2943 72.0388 10.4183 71.5616 10.4911 71.0753C10.6946 70.1979 11.044 69.3608 11.5246 68.5989C11.7069 68.2262 11.982 67.9067 12.3235 67.671C12.665 67.4354 13.0614 67.2916 13.4745 67.2535H13.7085C13.7766 67.2993 13.8252 67.3688 13.845 67.4485C14.04 68.0725 13.4745 68.7744 13.845 69.3984C13.8854 69.4549 13.9378 69.5017 13.9985 69.5355C14.0593 69.5692 14.1267 69.5889 14.196 69.5934C14.3715 69.5934 14.4495 69.4374 14.508 69.3009C14.6804 68.8291 14.8237 68.3473 14.937 67.8579C15.4443 66.2334 16.4297 64.7995 17.7644 63.7436" fill="#9BCEA4"/>
<path d="M77.0046 63.3926C78.4199 64.4171 79.9128 65.3299 81.4699 66.1225C82.2159 66.5942 82.8456 67.2288 83.3116 67.9784C83.7776 68.7281 84.0679 69.5735 84.1608 70.4513C84.1619 70.4857 84.153 70.5196 84.135 70.5489C84.117 70.5782 84.0908 70.6016 84.0596 70.6162C84.0285 70.6307 83.9937 70.6358 83.9597 70.6307C83.9256 70.6257 83.8939 70.6108 83.8683 70.5878C83.6756 70.3649 83.5058 70.1232 83.3614 69.8664C83.6553 70.4714 83.7638 71.1498 83.6733 71.8163C83.6706 71.8707 83.6527 71.9233 83.6217 71.9681C83.5906 72.0128 83.5477 72.0481 83.4978 72.0698C83.3223 72.0698 83.1663 72.0698 83.0884 71.8358C82.8839 71.4833 82.7576 71.091 82.7179 70.6854L82.8544 71.8553C82.8833 72.0688 82.8833 72.2853 82.8544 72.4988C82.8271 72.5861 82.7726 72.6624 82.6989 72.7165C82.6253 72.7707 82.5363 72.7999 82.4448 72.7999C82.3534 72.7999 82.2644 72.7707 82.1907 72.7165C82.1171 72.6624 82.0626 72.5861 82.0353 72.4988C81.8618 72.0388 81.7376 71.5616 81.6648 71.0753C81.4527 70.2007 81.1039 69.3649 80.6314 68.5989C80.4491 68.2262 80.174 67.9067 79.8325 67.671C79.491 67.4354 79.0946 67.2916 78.6815 67.2535H78.4475C78.3794 67.2993 78.3308 67.3688 78.311 67.4485C78.116 68.0725 78.6815 68.7744 78.311 69.3984C78.2706 69.4549 78.2182 69.5017 78.1575 69.5355C78.0968 69.5692 78.0293 69.5889 77.96 69.5934C77.8842 69.5828 77.8134 69.5491 77.7576 69.4967C77.7017 69.4443 77.6634 69.3759 77.648 69.3009C77.4756 68.8291 77.3323 68.3473 77.219 67.8579C76.7117 66.2334 75.7263 64.7995 74.3916 63.7436" fill="#9BCEA4"/>
<path d="M66.1228 45.8817C63.1979 37.0485 61.1699 25.9924 48.0664 25.5829H44.1665C30.907 25.8949 28.8596 37.0095 25.9152 45.8817C22.9708 54.7539 12.2656 63.8796 12.2656 63.8796L17.7449 65.264C33.0909 63.0021 37.4978 51.9655 37.7318 51.3415L33.5784 62.4366C33.5784 62.4366 36.2303 66.6485 46.4869 66.3365C56.7436 66.0245 58.4791 62.4366 58.4791 62.4366L54.3257 51.3415C54.5792 51.9655 58.9666 63.0411 74.3125 65.264L79.7919 63.8796C79.7919 63.8796 69.1842 55.0074 66.1423 45.8817" fill="#CA5098"/>
<path d="M51.9859 25.4263C51.9859 26.5768 49.2365 27.4738 45.8631 27.4738C42.4897 27.4738 39.7988 26.5378 39.7988 25.4263C39.7988 24.3149 42.5483 23.3789 45.9216 23.3789C49.295 23.3789 52.0445 24.2954 52.0445 25.4263" fill="white"/>
<path d="M50.8346 13.7472C50.6135 12.5044 49.9133 11.398 48.8847 10.6663C48.1073 10.2561 47.2168 10.1123 46.3498 10.2568H45.9988V13.8447H41.1045L44.361 21.7614C44.2656 22.3782 44.0175 22.9614 43.6394 23.4579C44.0618 23.8024 44.5562 24.0478 45.086 24.176C45.6158 24.3042 46.1676 24.312 46.7008 24.1988C47.2211 24.0779 47.7035 23.83 48.1048 23.4774C49.4721 22.3185 50.4067 20.7309 50.7567 18.973C51.2439 17.2585 51.2439 15.4422 50.7567 13.7277" fill="#E3E3E3"/>
<path d="M40.8326 17.6465C40.852 15.857 41.0019 14.0714 41.2811 12.3037C41.4956 9.86628 44.4399 10.3538 45.9999 10.3538V3.33398C31.0049 4.09446 29.8545 23.4573 29.8545 23.4573L40.0721 26.1482C41.4887 25.6595 42.7297 24.7643 43.6404 23.5743C43.3935 23.3883 43.1591 23.1864 42.9385 22.9698C41.6588 21.5127 40.9158 19.662 40.8326 17.7245" fill="#142B2A"/>
<path d="M41.9429 13.8641H45.9988V10.2762C44.4389 10.2762 41.4945 9.86672 41.28 12.2261C41.28 12.7136 41.163 13.2596 41.1045 13.7861L41.9429 13.8641Z" fill="#142B2A"/>
<path d="M50.9135 17.6465C50.8844 15.8575 50.7344 14.0725 50.4649 12.3037C50.2504 9.86628 47.2865 10.3538 45.7461 10.3538V3.33398C60.7411 4.09446 61.8916 23.4573 61.8916 23.4573L51.674 26.1482C50.2574 25.6595 49.0162 24.7643 48.1056 23.5743C48.3503 23.3932 48.5786 23.1909 48.788 22.9698C50.0734 21.5146 50.8233 19.664 50.9135 17.7245" fill="#142B2A"/>
<path d="M49.802 13.8641H45.7461V10.2762C47.2865 10.2762 50.2504 9.86672 50.4649 12.2261C50.4649 12.7136 50.5819 13.2596 50.6404 13.7861L49.802 13.8641Z" fill="#142B2A"/>
<path d="M40.8311 17.6471C40.9143 19.5846 41.6572 21.4354 42.9369 22.8925C43.1575 23.109 43.392 23.3109 43.6388 23.4969C44.0143 22.9916 44.262 22.4028 44.3604 21.781L41.104 13.8643C40.8945 15.1139 40.8032 16.3804 40.8311 17.6471Z" fill="#E3E3E3"/>
<path d="M47.2458 17.2362C47.2056 17.237 47.166 17.2264 47.1315 17.2057C47.0971 17.185 47.069 17.1551 47.0507 17.1192C47.0123 17.0763 46.9912 17.0208 46.9912 16.9632C46.9912 16.9057 47.0123 16.8501 47.0507 16.8072C47.4386 16.6148 47.8657 16.5146 48.2987 16.5146C48.7317 16.5146 49.1588 16.6148 49.5467 16.8072C49.5991 16.8327 49.6401 16.8767 49.6618 16.9308C49.6834 16.9849 49.6841 17.0452 49.6637 17.0997C49.6531 17.1274 49.637 17.1525 49.6162 17.1736C49.5954 17.1946 49.5705 17.2112 49.543 17.2222C49.5155 17.2332 49.4862 17.2384 49.4566 17.2374C49.427 17.2365 49.3979 17.2294 49.3711 17.2167C49.0428 17.0579 48.6829 16.9754 48.3182 16.9754C47.9535 16.9754 47.5936 17.0579 47.2653 17.2167" fill="#1D1D1B"/>
<path d="M44.3624 17.2369H44.2648C43.9365 17.0781 43.5765 16.9956 43.2119 16.9956C42.8472 16.9956 42.4872 17.0781 42.1589 17.2369C42.1322 17.2496 42.1032 17.2567 42.0736 17.2576C42.044 17.2586 42.0145 17.2534 41.9871 17.2424C41.9596 17.2314 41.9346 17.2149 41.9139 17.1938C41.8931 17.1727 41.877 17.1476 41.8664 17.1199C41.846 17.0654 41.8467 17.0051 41.8683 16.9511C41.8899 16.897 41.931 16.8528 41.9834 16.8274C42.3678 16.6352 42.7918 16.5352 43.2216 16.5352C43.6514 16.5352 44.0754 16.6352 44.4598 16.8274C44.5136 16.8564 44.5539 16.9053 44.5721 16.9635C44.5903 17.0218 44.585 17.085 44.5573 17.1394C44.539 17.1752 44.5111 17.2052 44.4766 17.2259C44.4421 17.2465 44.4026 17.2571 44.3624 17.2564" fill="#1D1D1B"/>
<path d="M46.3507 19.6554C46.0365 19.6565 45.7275 19.5758 45.4538 19.4215C45.3171 19.3383 45.2083 19.2161 45.1418 19.0705C45.1129 18.9553 45.1129 18.8347 45.1418 18.7194C45.1981 18.3046 45.2828 17.8942 45.3953 17.491C45.402 17.4622 45.4145 17.4352 45.4322 17.4115C45.4498 17.3879 45.4721 17.3681 45.4978 17.3535C45.5234 17.3388 45.5517 17.3296 45.5811 17.3264C45.6104 17.3233 45.6401 17.3262 45.6683 17.335C45.7243 17.3569 45.7696 17.3995 45.7951 17.454C45.8205 17.5084 45.824 17.5705 45.8048 17.6275C45.7034 18.0048 45.6316 18.3894 45.5902 18.7779C45.5822 18.8231 45.5822 18.8693 45.5902 18.9144C45.6274 18.9623 45.6738 19.0021 45.7267 19.0314C45.935 19.1487 46.1704 19.2092 46.4093 19.2069C46.4662 19.2069 46.5207 19.2295 46.5609 19.2698C46.6011 19.31 46.6238 19.3646 46.6238 19.4215C46.6302 19.4518 46.6293 19.4833 46.6211 19.5132C46.613 19.5432 46.5977 19.5708 46.5767 19.5937C46.5558 19.6166 46.5296 19.6341 46.5005 19.6448C46.4713 19.6556 46.4401 19.6592 46.4093 19.6554" fill="#1D1D1B"/>
<path d="M46.019 22.0149C45.479 22.0159 44.9434 21.9167 44.4396 21.7224C44.4119 21.7118 44.3867 21.6956 44.3657 21.6749C44.3446 21.6541 44.3281 21.6292 44.3171 21.6017C44.3061 21.5743 44.3009 21.5448 44.3019 21.5153C44.3028 21.4857 44.3099 21.4566 44.3226 21.4299C44.3314 21.4029 44.3455 21.3779 44.364 21.3564C44.3825 21.3349 44.4051 21.3174 44.4305 21.3047C44.4559 21.292 44.4836 21.2844 44.5119 21.2825C44.5403 21.2806 44.5687 21.2843 44.5956 21.2934C45.4057 21.6053 46.2951 21.6464 47.1305 21.4104C47.1874 21.3949 47.2481 21.4026 47.2992 21.4319C47.3504 21.4612 47.388 21.5096 47.4035 21.5664C47.419 21.6233 47.4112 21.684 47.382 21.7352C47.3527 21.7864 47.3044 21.8239 47.2475 21.8394C46.8485 21.9563 46.4348 22.0154 46.019 22.0149Z" fill="#1D1D1B"/>
<path d="M46.136 59.8827C46.0978 59.883 46.0608 59.8692 46.0321 59.8441C46.0033 59.8189 45.9847 59.7841 45.98 59.7462C45.8435 56.2168 45.863 50.6205 45.98 45.2191C46.097 39.8178 45.98 34.202 45.98 30.6922C45.9797 30.654 45.9935 30.617 46.0186 30.5882C46.0438 30.5594 46.0786 30.5409 46.1165 30.5361C46.1578 30.5361 46.1975 30.5526 46.2268 30.5818C46.2561 30.6111 46.2725 30.6508 46.2725 30.6922C46.409 34.202 46.3895 39.7983 46.2725 45.2191C46.1555 50.64 46.2725 56.2168 46.37 59.7266C46.3733 59.7479 46.3716 59.7696 46.365 59.7901C46.3583 59.8105 46.3469 59.8291 46.3317 59.8444C46.3164 59.8596 46.2978 59.871 46.2774 59.8776C46.2569 59.8843 46.2352 59.886 46.2139 59.8827H46.136Z" fill="white"/>
<path d="M9.45675 19.831L8.81323 20.2015V15.6582H2.08594V18.2711H5.24494V21.8199L4.30889 22.2489L6.06388 24.4524L6.84378 24.1599C8.26471 23.6052 9.6459 22.9537 10.9776 22.21L11.6992 21.8199L10.5097 19.207L9.45675 19.831Z" fill="#142B2A"/>
<path d="M6.64874 11.4068L6.16125 11.1924L3.27539 12.8498L4.85483 13.5518C5.90743 14.0024 6.9187 14.544 7.87721 15.1703L8.42313 15.5407L11.114 13.9223L9.94413 13.1618C8.89383 12.4906 7.7919 11.9037 6.64874 11.4068Z" fill="#142B2A"/>
<path d="M26.7918 22.3644C25.6781 21.2469 24.4856 20.2108 23.2234 19.2641L22.775 18.9326L19.6745 20.005L19.8696 19.7515L16.6717 18.9131L16.2816 19.4201C15.3932 20.519 14.3331 21.4672 13.1423 22.228L11.7188 23.1054L15.0337 24.4314L15.4822 24.1194C16.842 23.1836 18.0573 22.0536 19.0896 20.7655L19.655 20.0246L20.8639 20.9606C22.0282 21.8583 23.1174 22.8495 24.1204 23.9244L24.5884 24.4314L27.6498 23.2809L26.7918 22.3644Z" fill="#142B2A"/>
<path d="M24.9793 11.4062H14.6641V18.738H24.9793V11.4062ZM21.7033 16.0861H17.9399V14.0192H21.7033V16.0861Z" fill="#142B2A"/>
<path d="M0 10.4711L2.9249 12.4211H3.08081C4.57814 11.7811 6.0031 10.9837 7.33165 10.0421C8.43337 10.9762 9.6293 11.793 10.9001 12.4796L11.0951 12.5966L13.5715 10.6466L12.577 9.98365C12.148 9.71066 11.758 9.41813 11.368 9.14514C10.978 8.87215 10.1006 8.26772 9.4181 7.85823H12.928V5.0893H9.47665C9.47665 4.81631 9.47665 4.5043 9.47665 4.21181H12.6746V1.63794H7.13671C7.12825 1.5994 7.12825 1.55949 7.13671 1.52095L7.74118 0.40947L4.03626 0L3.72432 0.604475C3.04201 1.69794 2.20821 2.68921 1.24787 3.54883L0.526401 4.19235L3.25636 5.0893H1.18943V7.68269H5.0893C4.11166 8.70104 2.89007 9.45283 1.54041 9.86666L0 10.4711ZM4.36783 5.06978C4.70279 4.79575 5.02178 4.50282 5.32328 4.19235H5.83028C5.83028 4.48484 5.83028 4.81629 5.83028 5.06978H4.36783Z" fill="#142B2A"/>
<path d="M18.6215 9.98371H21.1564V10.7247H25.0563V1.34546H14.7021V10.7442H18.602L18.6215 9.98371ZM18.6215 3.89993H21.1564V7.4293H18.6215V3.89993Z" fill="#142B2A"/>
</svg>
