<svg width="122" height="74" viewBox="0 0 122 74" fill="none" xmlns="http://www.w3.org/2000/svg">
<path d="M36.7549 27.2181C36.7919 27.1876 36.8384 27.1709 36.8864 27.1709C36.9343 27.1709 36.9808 27.1876 37.0178 27.2181C37.0483 27.2551 37.065 27.3015 37.065 27.3495C37.065 27.3974 37.0483 27.4439 37.0178 27.4809C36.2362 28.0486 35.4212 28.5689 34.5774 29.039C34.5437 29.0383 34.5107 29.0294 34.4812 29.013C34.4518 28.9966 34.4269 28.9733 34.4085 28.9451C34.381 28.9068 34.3662 28.8608 34.3662 28.8137C34.3662 28.7665 34.381 28.7206 34.4085 28.6823" fill="#CA5098"/>
<path d="M93.3876 40.1148C93.3876 40.1148 74.6159 36.7547 65.7182 39.4391C57.8529 41.8231 56.7828 46.9477 56.6326 49.8949C56.4825 52.842 60.6874 63.6733 99.6198 48.4495L113.267 15.6741L109.757 14.041C109.757 14.041 91.8295 31.3109 93.3876 40.1148Z" fill="#0095D4"/>
<path d="M85.0543 33.4137C85.0543 33.4137 55.5077 32.4 52.6919 42.2927C49.8762 52.1853 68.8731 53.199 68.8731 53.199L91.3991 38.3694L100.541 9.42351L97.1056 8.18457C97.1056 8.18457 84.9792 22.3384 84.9792 33.4137" fill="#0095D4"/>
<path d="M55.3398 54.8697L53.8006 33.0758C48.5685 30.2591 42.4913 29.4386 36.6996 30.7669C27.126 32.4563 39.6843 52.2792 39.6843 52.2792L24.667 59.9568L25.2677 62.7162C25.2677 62.7162 40.7918 62.566 45.4284 55.0386C45.4284 55.0386 45.4284 54.3065 45.4284 53.1614C48.648 54.0456 51.9397 54.6424 55.2648 54.9448" fill="#9BCEA4"/>
<path d="M61.5524 61.8713C61.5524 61.8713 62.4347 30.8417 51.0215 32.8503C39.6084 34.8589 54.5882 58.5675 54.5882 58.5675L36.7363 67.7468L37.4497 71.0506C37.4497 71.0506 56.0148 70.8817 61.5524 61.8713Z" fill="#CA5098"/>
<path d="M37.207 30.6538C37.207 30.6538 37.8453 37.0173 41.2242 36.9235C44.6031 36.8296 46.1987 29.2083 46.2738 28.5513C46.3489 27.8943 37.207 30.6538 37.207 30.6538Z" fill="white"/>
<path d="M42.7968 15.3173C45.3685 14.9418 47.9966 15.0545 50.587 14.7729C51.6853 14.7023 52.761 14.4287 53.7595 13.9657C55.3994 12.7982 56.8387 11.3717 58.0207 9.74209C60.4587 7.118 63.8285 5.55442 67.4065 5.38706C69.6567 5.56067 71.9196 5.4598 74.1454 5.0867C76.3527 4.09993 78.3971 2.78342 80.2086 1.18222C80.865 0.583267 81.6833 0.190864 82.5613 0.0539936C83.4393 -0.0828773 84.3381 0.0418382 85.1456 0.412579C85.7146 0.839119 86.1508 1.41849 86.4034 2.08325C87.83 5.29321 86.5911 9.17894 84.5262 11.9947C83.5757 13.3282 82.3618 14.4526 80.9596 15.2985C77.7121 17.1757 73.6199 16.6876 70.4287 18.5648C69.768 18.9135 69.2062 19.4236 68.7956 20.0477C67.9133 21.4931 68.2699 23.5205 67.2563 24.8908C66.749 25.4133 66.1421 25.8287 65.4715 26.1125C64.8008 26.3962 64.08 26.5425 63.3517 26.5427L54.4352 27.7253C53.5564 27.7813 52.6964 28.0042 51.9011 28.3823C50.6809 29.0393 49.8737 30.3909 48.5973 30.954C47.8731 31.204 47.0985 31.2714 46.3421 31.1502C45.5857 31.0291 44.8708 30.7231 44.261 30.2595C42.2524 28.9643 40.6944 27.1997 38.6295 26.0359C37.2592 25.3038 35.213 24.5154 34.6123 22.8635C32.998 18.377 39.8684 15.7678 42.9282 15.3548" fill="#142B2A"/>
<path d="M40.5292 26.4491C38.8028 26.1288 37.1645 25.444 35.7236 24.4406C35.7914 25.7894 35.9544 27.1318 36.2116 28.4577C36.2116 28.8331 36.3618 29.2085 36.4744 29.584C36.9216 31.2756 37.8864 32.7852 39.2339 33.9015C39.6338 34.2529 40.1195 34.4925 40.6418 34.596C41.2202 34.6474 41.8026 34.564 42.3433 34.3523C42.884 34.1406 43.3682 33.8064 43.7578 33.3758C44.442 32.6506 44.9214 31.7566 45.1469 30.7854C44.9746 29.6496 44.4257 28.6046 43.5883 27.8183C42.7508 27.0319 41.6735 26.5497 40.5292 26.4491Z" fill="#E3E3E3"/>
<path d="M89.6551 39.7022C75.2385 37.5623 67.467 39.2142 67.392 39.2329C67.3432 39.2357 67.2949 39.2226 67.2542 39.1955C67.2136 39.1684 67.1829 39.1288 67.1667 39.0828C67.1604 39.0334 67.1721 38.9835 67.1997 38.9421C67.2273 38.9007 67.2688 38.8707 67.3168 38.8575C67.3168 38.8575 75.2196 37.1681 89.7114 39.3268C89.824 39.3268 89.8804 39.4207 89.8804 39.5333C89.8722 39.5783 89.8494 39.6192 89.8154 39.6498C89.7814 39.6804 89.7383 39.6988 89.6927 39.7022" fill="#13110C"/>
<path d="M110.246 11.2068C110.074 11.9352 110.074 12.6934 110.246 13.4218L113.737 14.7358C116.456 14.6751 119.148 14.1874 121.715 13.2904L113.437 11.2068H110.246Z" fill="#0095D4"/>
<path d="M116.421 10.9063C116.421 10.9063 110.79 9.5923 110.245 11.0377C109.701 12.4831 121.264 13.9285 121.715 13.2903C122.165 12.6521 117.322 11.1503 116.421 10.9063Z" fill="#CA5098"/>
<path d="M97.2186 5.78081C97.1641 6.41833 97.254 7.05992 97.4814 7.65798L100.71 8.39007C103.099 7.98732 105.411 7.21467 107.562 6.09993L100.053 5.31152L97.2186 5.78081Z" fill="#0095D4"/>
<path d="M102.625 4.80527C102.625 4.80527 97.4445 4.37351 97.1817 5.7063C96.9189 7.03908 107.243 6.87016 107.562 6.25069C107.881 5.63123 103.433 4.9179 102.625 4.80527Z" fill="#CA5098"/>
<path d="M16.3876 54.1182C16.3876 54.1182 22.7324 49.2563 33.1695 55.6575L0 54.0056C0 54.0056 6.83284 48.1113 16.3876 54.1182Z" fill="#0095D4"/>
<path d="M0 54.0059L3.36008 72.1017L19.5414 72.8526L16.5754 54.7567L0 54.0059Z" fill="#142B2A"/>
<path d="M16.5762 54.7568L19.5421 72.8527L35.5167 73.3596L33.1702 55.6579L16.5762 54.7568Z" fill="#CA5098"/>
<path d="M36.2496 67.7083C35.7417 67.2737 35.1878 66.8961 34.5977 66.582L34.7479 68.1213C33.141 67.9769 31.5783 67.5176 30.1488 66.7697C30.1109 66.7462 30.0667 66.7344 30.0221 66.736C29.9774 66.7375 29.9342 66.7523 29.898 66.7785C29.8618 66.8046 29.8342 66.841 29.8187 66.8829C29.8032 66.9248 29.8005 66.9703 29.8109 67.0138C29.8596 67.2342 29.9703 67.4362 30.13 67.5957C30.8312 68.3271 31.7691 68.7861 32.7769 68.8909C31.9583 69.0192 31.1201 68.8948 30.3741 68.5343C30.0925 68.4216 30.055 68.5343 30.055 68.5343C30.0788 68.705 30.1579 68.8633 30.2802 68.9848C30.9434 69.6467 31.8234 70.0467 32.7581 70.1111C32.1309 70.1932 31.4938 70.155 30.8809 69.9985H30.7683C30.6369 69.9985 30.468 69.9985 30.4492 69.9985C30.4304 69.9985 30.6369 70.449 30.9748 70.7306L31.125 70.8244C31.544 71.0986 32.0322 71.2483 32.5328 71.2562C32.2244 71.2541 31.9184 71.3115 31.6317 71.4251C31.6317 71.4251 31.5191 71.4251 31.5191 71.5377C31.5191 71.6504 31.7068 71.7254 31.8758 71.7818H31.9884C32.8008 72.0248 33.6563 72.0886 34.4957 71.9687C35.3351 71.8488 36.1385 71.548 36.8503 71.0872L36.2496 67.7083Z" fill="#9BCEA4"/>
<path d="M38.5743 31.9309H38.4054C38.3342 31.8836 38.276 31.819 38.2364 31.7432C37.7051 30.883 37.4496 29.8808 37.5043 28.8711C37.5132 28.8231 37.5388 28.7798 37.5766 28.7488C37.6144 28.7179 37.6621 28.7014 37.7109 28.7022C37.7356 28.7045 37.7596 28.7118 37.7815 28.7234C37.8034 28.7351 37.8227 28.751 37.8384 28.7702C37.8541 28.7894 37.8659 28.8115 37.873 28.8353C37.8801 28.8591 37.8824 28.884 37.8798 28.9087C37.8288 29.8309 38.0579 30.747 38.5369 31.5367L39.2502 31.4241C39.2972 31.4184 39.3446 31.4308 39.3829 31.4587C39.4212 31.4865 39.4475 31.5278 39.4566 31.5742C39.4621 31.5989 39.4625 31.6245 39.4578 31.6493C39.4531 31.6742 39.4435 31.6978 39.4295 31.7189C39.4155 31.7399 39.3974 31.7579 39.3762 31.7717C39.3551 31.7856 39.3313 31.7951 39.3064 31.7995L38.6119 31.9121H38.4805" fill="#13110C"/>
<path d="M39.7018 33.0751C39.4321 33.0727 39.165 33.0218 38.9133 32.9249C38.8006 32.9249 38.7632 32.7936 38.782 32.6809C38.7903 32.6573 38.8032 32.6356 38.8201 32.6171C38.837 32.5986 38.8574 32.5837 38.8801 32.5732C38.9029 32.5627 38.9275 32.5568 38.9526 32.556C38.9776 32.5552 39.0025 32.5593 39.0259 32.5683C39.3043 32.6696 39.6016 32.7087 39.8968 32.6827C40.1919 32.6568 40.4777 32.5665 40.7342 32.4181C40.7682 32.389 40.8114 32.373 40.8562 32.373C40.9009 32.373 40.9442 32.389 40.9782 32.4181C41.0126 32.4532 41.0318 32.5004 41.0318 32.5495C41.0318 32.5987 41.0126 32.6458 40.9782 32.6809C40.6127 32.8908 40.1983 33.0009 39.7768 33" fill="#13110C"/>
<path d="M38.163 27.3311C38.143 27.3426 38.1203 27.3487 38.0972 27.3487C38.0741 27.3487 38.0515 27.3426 38.0315 27.3311C38.0119 27.3153 37.9961 27.2952 37.9852 27.2725C37.9744 27.2498 37.9688 27.2249 37.9688 27.1997C37.9688 27.1745 37.9744 27.1496 37.9852 27.1269C37.9961 27.1042 38.0119 27.0841 38.0315 27.0683C38.3036 26.8185 38.6321 26.6381 38.9889 26.5427C39.0123 26.5341 39.0373 26.5307 39.0621 26.5329C39.087 26.535 39.1109 26.5427 39.1325 26.5552C39.154 26.5678 39.1725 26.585 39.1867 26.6055C39.2008 26.6261 39.2102 26.6495 39.2142 26.6741C39.2228 26.6975 39.2261 26.7225 39.2239 26.7473C39.2217 26.7722 39.2141 26.7962 39.2016 26.8177C39.189 26.8393 39.1718 26.8577 39.1513 26.8719C39.1307 26.886 39.1073 26.8954 39.0827 26.8994C38.7791 26.9997 38.4984 27.1592 38.2568 27.3686H38.1442" fill="#13110C"/>
<path d="M36.6429 27.0131C36.6003 27.0274 36.5541 27.0274 36.5115 27.0131C36.3436 26.8605 36.1538 26.7339 35.9483 26.6376C35.9247 26.6293 35.903 26.6162 35.8845 26.5994C35.866 26.5825 35.851 26.5621 35.8405 26.5393C35.83 26.5166 35.8242 26.492 35.8233 26.467C35.8225 26.4419 35.8268 26.417 35.8357 26.3936C35.8436 26.3698 35.8565 26.3481 35.8738 26.33C35.891 26.3119 35.9122 26.2978 35.9355 26.2889C35.9589 26.2799 35.9839 26.2762 36.0088 26.2781C36.0338 26.2799 36.058 26.2873 36.0798 26.2997C36.3377 26.3959 36.5739 26.5427 36.7743 26.7315C36.8087 26.7665 36.8279 26.8137 36.8279 26.8629C36.8279 26.912 36.8087 26.9592 36.7743 26.9943C36.7543 27.0058 36.7316 27.0119 36.7085 27.0119C36.6855 27.0119 36.6629 27.0058 36.6429 26.9943" fill="#13110C"/>
<path d="M39.5515 28.608C39.4201 28.608 39.2699 28.7206 39.2887 28.8708C39.2979 28.9438 39.3336 29.0108 39.389 29.0593C39.4443 29.1077 39.5156 29.1342 39.5891 29.1336C39.6693 29.1296 39.7455 29.0972 39.8039 29.0422C39.8624 28.9871 39.8994 28.9131 39.9082 28.8332C39.9265 28.7562 39.9155 28.6751 39.8774 28.6057C39.8392 28.5363 39.7766 28.4836 39.7017 28.4578C39.6647 28.4496 39.6264 28.449 39.5891 28.456C39.5518 28.463 39.5163 28.4774 39.4847 28.4985C39.4532 28.5195 39.4262 28.5467 39.4055 28.5784C39.3847 28.6102 39.3706 28.6457 39.3639 28.6831" fill="#13110C"/>
<path d="M36.5487 28.5707C36.4173 28.5707 36.2671 28.6833 36.3047 28.8335C36.3174 28.9049 36.3541 28.9699 36.4087 29.0177C36.4633 29.0654 36.5325 29.0932 36.605 29.0963C36.684 29.0889 36.7583 29.0553 36.8161 29.0009C36.8739 28.9465 36.9119 28.8744 36.9241 28.796C36.9424 28.7189 36.9314 28.6378 36.8932 28.5684C36.8551 28.4991 36.7925 28.4463 36.7176 28.4205C36.6805 28.4092 36.6412 28.4063 36.6028 28.412C36.5644 28.4177 36.5278 28.4318 36.4954 28.4533C36.4631 28.4749 36.4361 28.5033 36.4161 28.5366C36.396 28.5698 36.3836 28.6071 36.3797 28.6458" fill="#13110C"/>
<path d="M40.2466 30.1655H39.6647C39.4682 30.1332 39.2781 30.0699 39.1016 29.9778C38.9027 29.8505 38.7386 29.6758 38.6239 29.4694C38.5092 29.263 38.4476 29.0313 38.4445 28.7952C38.4359 28.5701 38.4769 28.3458 38.5644 28.1382C38.652 27.9306 38.7841 27.7448 38.9513 27.5938C39.1403 27.4207 39.3626 27.2881 39.6048 27.2041C39.8469 27.1202 40.1037 27.0867 40.3592 27.1058C40.5784 27.1141 40.7918 27.1787 40.9787 27.2935C41.2303 27.4925 41.4192 27.7596 41.5231 28.0631C41.7075 28.4079 41.7797 28.8017 41.7295 29.1894C41.674 29.4049 41.5661 29.6032 41.4155 29.767C41.2648 29.9307 41.0762 30.0547 40.8661 30.128C40.6615 30.1671 40.4512 30.1671 40.2466 30.128M38.8011 28.6826C38.8037 28.8584 38.8496 29.0309 38.9347 29.1848C39.0199 29.3387 39.1416 29.4692 39.2892 29.5649C39.7474 29.7789 40.2679 29.8189 40.7535 29.6775C40.9036 29.6289 41.0391 29.5432 41.1474 29.4284C41.2556 29.3135 41.3332 29.1732 41.3729 29.0205C41.4007 28.7103 41.3423 28.3985 41.204 28.1194C41.111 27.8817 40.9631 27.6694 40.7723 27.5C40.6381 27.4289 40.4914 27.3843 40.3404 27.3686C40.1327 27.3512 39.9236 27.3773 39.7264 27.4452C39.5293 27.513 39.3484 27.6212 39.1954 27.7628C39.0684 27.8795 38.9676 28.0219 38.8997 28.1804C38.8317 28.339 38.7981 28.5101 38.8011 28.6826Z" fill="#CA5098"/>
<path d="M35.797 29.9779H35.2526C35.0693 29.9508 34.8917 29.8937 34.727 29.809C34.5359 29.69 34.3786 29.5239 34.2702 29.3267C34.1617 29.1295 34.1056 28.9077 34.1075 28.6827C34.1069 28.4732 34.1482 28.2657 34.2288 28.0723C34.3094 27.8789 34.4276 27.7035 34.5768 27.5563C34.7561 27.3939 34.9671 27.27 35.1964 27.1925C35.4257 27.115 35.6684 27.0855 35.9096 27.1058C36.1135 27.1193 36.3121 27.1769 36.4915 27.2748C36.7257 27.4665 36.9014 27.7202 36.9984 28.0069C37.1704 28.3286 37.2361 28.6966 37.186 29.0581C37.1402 29.2628 37.0417 29.452 36.9001 29.6068C36.7585 29.7616 36.5787 29.8766 36.3789 29.9404C36.1869 29.9793 35.989 29.9793 35.797 29.9404M35.797 27.3686C35.4506 27.3663 35.1158 27.4936 34.8584 27.7253C34.7443 27.8381 34.6539 27.9727 34.5927 28.121C34.5314 28.2693 34.5005 28.4283 34.5017 28.5888C34.5082 28.7472 34.5503 28.9021 34.6251 29.0418C34.6999 29.1816 34.8053 29.3027 34.9334 29.396C35.0693 29.4627 35.2152 29.5071 35.3652 29.5274C35.6721 29.614 35.997 29.614 36.3038 29.5274C36.4443 29.48 36.5709 29.3986 36.6724 29.2906C36.7739 29.1825 36.8472 29.0511 36.8857 28.9079C36.9027 28.6225 36.8444 28.3377 36.7168 28.0819C36.642 27.8603 36.5052 27.6649 36.3225 27.5188C36.2003 27.4364 36.057 27.3907 35.9096 27.3874H35.797" fill="#CA5098"/>
<path d="M41.4648 28.2892C41.444 28.298 41.4216 28.3025 41.399 28.3025C41.3765 28.3025 41.3542 28.298 41.3334 28.2892C41.3169 28.2734 41.3038 28.2545 41.2949 28.2335C41.2859 28.2126 41.2813 28.19 41.2812 28.1672C41.2813 28.1444 41.2859 28.1219 41.2949 28.1009C41.3038 28.0799 41.3169 28.061 41.3334 28.0452C42.5347 27.1799 43.7885 26.3899 45.0877 25.68C45.1425 25.6614 45.2018 25.6614 45.2566 25.68C45.2666 25.7004 45.2717 25.7229 45.2717 25.7457C45.2717 25.7684 45.2666 25.7909 45.2566 25.8114C45.3011 26.0034 45.3987 26.179 45.5382 26.3182C45.5547 26.334 45.5678 26.3529 45.5767 26.3739C45.5857 26.3948 45.5903 26.4174 45.5903 26.4402C45.5903 26.463 45.5857 26.4856 45.5767 26.5065C45.5678 26.5275 45.5547 26.5465 45.5382 26.5622C45.5031 26.5966 45.4559 26.6159 45.4068 26.6159C45.3577 26.6159 45.3105 26.5966 45.2754 26.5622C45.1378 26.4294 45.0292 26.2697 44.9563 26.0929C43.7709 26.7737 42.6241 27.5194 41.5211 28.3268H41.4084" fill="#CA5098"/>
<path d="M37.5995 28.7769H37.0176C36.9712 28.7722 36.9281 28.7504 36.8969 28.7157C36.8656 28.681 36.8484 28.6359 36.8486 28.5892C36.8486 28.5394 36.8684 28.4917 36.9036 28.4565C36.9388 28.4213 36.9865 28.4015 37.0363 28.4015C37.5995 28.4015 37.8999 28.4015 38.4255 28.4015C38.4722 28.4013 38.5173 28.4184 38.552 28.4497C38.5867 28.4809 38.6085 28.524 38.6132 28.5704C38.614 28.6193 38.5975 28.6668 38.5665 28.7046C38.5356 28.7424 38.4922 28.768 38.4442 28.7769H37.5995Z" fill="#CA5098"/>
</svg>
