<svg width="71" height="103" viewBox="0 0 71 103" fill="none" xmlns="http://www.w3.org/2000/svg">
<path d="M0.00306577 10.1003C0.370674 12.4888 1.02694 14.8238 1.95753 17.0541C3.45634 21.6057 3.91078 26.4364 3.28713 31.1877C2.94106 32.9383 2.79385 34.7224 2.84834 36.5061C2.90398 37.4375 3.18314 38.3419 3.66221 39.1426C4.14128 39.9434 4.80616 40.617 5.60061 41.1064C7.64819 42.2632 10.3074 41.8643 12.714 41.5851C20.4921 40.681 28.3766 41.399 36.2212 41.6782C44.0658 41.9574 52.1763 41.6782 59.396 39.1121C61.7944 38.3478 63.9895 37.0526 65.818 35.3227C67.7477 33.0626 68.9808 30.2916 69.368 27.3451C70.0931 23.9632 70.2236 20.4808 69.7536 17.0541C69.0255 12.6458 67.0719 8.53131 64.1161 5.1808C62.6101 3.32692 60.6688 1.87441 58.4653 0.952686C55.8532 0.159803 53.1168 -0.142245 50.3947 0.0618501L30.238 0.27459C23.5695 0.192743 16.9039 0.59712 10.2941 1.48452C4.65664 2.38864 -0.435756 3.8379 0.0296025 9.98063" fill="#0095D4"/>
<path d="M46.3924 15.2318C46.3613 15.2324 46.331 15.2221 46.3067 15.2027C46.2824 15.1833 46.2656 15.1559 46.2594 15.1254L44.5708 10.4585C44.5578 10.4197 44.5601 10.3773 44.5775 10.3402C44.5948 10.3031 44.6257 10.2741 44.6639 10.2591C44.683 10.2507 44.7036 10.2465 44.7244 10.2467C44.7453 10.2469 44.7659 10.2516 44.7847 10.2604C44.8036 10.2692 44.8204 10.282 44.834 10.2978C44.8476 10.3136 44.8576 10.3322 44.8634 10.3522L46.3924 14.6069C46.8086 12.9207 46.9212 11.1738 46.7248 9.44806C46.7248 8.62371 46.6317 7.75948 46.645 6.92183C46.6326 6.60406 46.7012 6.28835 46.8445 6.00441C47.2433 5.32631 48.174 5.23325 49.0515 5.21995L53.9444 5.12688C55.274 5.12688 56.6835 5.0604 58.8374 5.03381C58.8577 5.03196 58.8782 5.03436 58.8975 5.04088C58.9168 5.0474 58.9345 5.05788 58.9495 5.07165C58.9645 5.08542 58.9766 5.10217 58.9847 5.12084C58.9929 5.13952 58.9971 5.15969 58.997 5.18007C58.9975 5.22165 58.9829 5.26202 58.9561 5.29377C58.9292 5.32552 58.8917 5.34651 58.8507 5.35291L53.9578 5.43268C52.6282 5.43268 51.2188 5.49916 49.0649 5.52575C48.3203 5.52575 47.4295 5.63213 47.1104 6.17726C46.9942 6.41239 46.9393 6.6731 46.9508 6.93513C46.9508 7.75948 46.9508 8.61041 47.0306 9.42147C47.2744 11.3361 47.1067 13.2808 46.5387 15.1254C46.5279 15.1559 46.5081 15.1823 46.482 15.2013C46.4559 15.2203 46.4246 15.231 46.3924 15.2318Z" fill="white"/>
<path d="M50.1284 15.2054C49.8942 15.2008 49.6643 15.142 49.4567 15.0336C49.2491 14.9251 49.0694 14.7701 48.9318 14.5805C48.6863 14.2219 48.5692 13.7908 48.5994 13.3573C48.6119 12.8902 48.7398 12.4334 48.9716 12.0277C49.1309 11.738 49.3536 11.488 49.6231 11.2964C49.7239 11.2229 49.8443 11.1813 49.9688 11.1768C50.1949 11.1768 50.3545 11.1768 50.4342 11.4028C50.514 11.6288 50.3145 12.2005 50.0619 12.6393C49.9833 12.7565 49.9166 12.8812 49.8625 13.0116C49.8625 13.1712 50.1417 13.2509 50.381 13.344C50.6203 13.4371 51.2984 13.6764 51.2187 14.3279C51.1743 14.5719 51.0439 14.7919 50.8512 14.948C50.6585 15.1041 50.4162 15.186 50.1683 15.1788M50.0088 11.4959C49.9474 11.483 49.884 11.483 49.8226 11.4959C49.5983 11.6574 49.4123 11.8662 49.2775 12.1075C49.0778 12.4666 48.964 12.8671 48.9451 13.2775C48.9176 13.6407 49.0161 14.0024 49.2243 14.3013C49.3341 14.4558 49.4799 14.5813 49.6489 14.667C49.818 14.7527 50.0054 14.796 50.1949 14.7933C50.3674 14.7999 50.5372 14.7485 50.677 14.6473C50.8168 14.546 50.9185 14.4008 50.966 14.2348C50.966 13.8492 50.74 13.7296 50.3145 13.57C49.8891 13.4105 49.6764 13.3307 49.5966 12.9983C49.5966 12.8786 49.5966 12.7324 49.8359 12.4133C50.0752 12.0942 50.2879 11.6421 50.2082 11.4826C50.1769 11.4682 50.1429 11.4608 50.1085 11.4608C50.0741 11.4608 50.0401 11.4682 50.0088 11.4826" fill="white"/>
<path d="M53.5464 14.9395C53.3039 14.9538 53.0611 14.9188 52.8325 14.8365C52.604 14.7542 52.3945 14.6264 52.2168 14.4608C52.0281 14.2974 51.9057 14.0707 51.8724 13.8233C51.8392 13.5759 51.8974 13.3249 52.0363 13.1174C52.1751 12.91 52.3849 12.7604 52.6263 12.6968C52.8677 12.6333 53.124 12.6601 53.347 12.7722C53.3984 12.7914 53.4424 12.826 53.4734 12.8712C53.5043 12.9164 53.5206 12.9701 53.5199 13.0248C53.5205 13.0642 53.5095 13.1029 53.4882 13.136C53.4669 13.1692 53.4363 13.1952 53.4002 13.211C53.363 13.2249 53.3219 13.2244 53.285 13.2097C53.2481 13.1949 53.2181 13.167 53.2007 13.1312C53.1943 13.1005 53.1943 13.0688 53.2007 13.0381C53.0386 12.9835 52.8632 12.9824 52.7004 13.0351C52.5376 13.0878 52.396 13.1914 52.2966 13.3307C52.2167 13.4761 52.1878 13.6441 52.2143 13.8079C52.2408 13.9717 52.3213 14.1219 52.4429 14.2348C52.7392 14.4966 53.1247 14.6346 53.5199 14.6204C53.6801 14.6365 53.8407 14.594 53.9719 14.5007C53.9856 14.4862 54.0021 14.4747 54.0203 14.4668C54.0386 14.4589 54.0584 14.4548 54.0783 14.4548C54.0982 14.4548 54.1179 14.4589 54.1362 14.4668C54.1545 14.4747 54.171 14.4862 54.1847 14.5007C54.1996 14.5155 54.2114 14.5331 54.2194 14.5525C54.2275 14.5719 54.2316 14.5927 54.2316 14.6137C54.2316 14.6347 54.2275 14.6555 54.2194 14.6749C54.2114 14.6943 54.1996 14.7119 54.1847 14.7267C53.9952 14.8729 53.7585 14.9439 53.5199 14.9262L53.5464 14.9395Z" fill="white"/>
<path d="M51.2201 17.1731C48.0158 17.1731 44.8248 17.0667 41.4343 16.854C41.3943 16.8453 41.3583 16.8236 41.3319 16.7924C41.3055 16.7611 41.2901 16.722 41.2881 16.6812C41.2881 16.5881 41.3679 16.5216 41.4476 16.5349C47.9069 16.9603 54.3871 16.9603 60.8464 16.5349C60.8673 16.5349 60.8881 16.539 60.9075 16.547C60.9268 16.5551 60.9444 16.5668 60.9593 16.5816C60.9741 16.5964 60.9858 16.614 60.9938 16.6334C61.0018 16.6528 61.006 16.6735 61.006 16.6945C61.0079 16.7147 61.0054 16.7352 60.9989 16.7545C60.9923 16.7738 60.9819 16.7916 60.9681 16.8066C60.9543 16.8216 60.9376 16.8336 60.9189 16.8417C60.9003 16.8499 60.8801 16.8541 60.8597 16.854C57.5357 17.0667 54.3713 17.1731 51.2201 17.1731Z" fill="white"/>
<path d="M46.0352 20.7761H45.8623C45.7282 20.7335 45.6092 20.6532 45.5195 20.5447C45.4299 20.4362 45.3735 20.3042 45.3571 20.1644C45.3329 19.965 45.3679 19.7629 45.4577 19.5832C45.5475 19.4035 45.6883 19.2542 45.8623 19.1539C46.0479 19.0604 46.2528 19.0117 46.4607 19.0117C46.6685 19.0117 46.8733 19.0604 47.0589 19.1539C47.0933 19.1759 47.1189 19.2092 47.1311 19.2482C47.1432 19.2871 47.1413 19.3291 47.1255 19.3667C47.1159 19.3917 47.0996 19.4135 47.0786 19.4299C47.0575 19.4463 47.0323 19.4567 47.0058 19.4598C47.019 19.5256 47.019 19.5934 47.0058 19.6592C47.018 19.7917 47.0574 19.9203 47.1214 20.0369C47.1854 20.1536 47.2729 20.2558 47.3781 20.3373C47.5122 20.4441 47.6786 20.5022 47.8501 20.5022C48.0215 20.5022 48.1879 20.4441 48.322 20.3373C48.352 20.3073 48.3927 20.2905 48.4351 20.2905C48.4775 20.2905 48.5181 20.3073 48.5481 20.3373C48.578 20.3673 48.5949 20.4079 48.5949 20.4503C48.5949 20.4927 48.578 20.5334 48.5481 20.5633C48.3594 20.7144 48.1249 20.7967 47.8833 20.7967C47.6416 20.7967 47.4071 20.7144 47.2185 20.5633C47.0849 20.4654 46.9757 20.338 46.8994 20.191V20.3107C46.8265 20.4563 46.7172 20.5806 46.5821 20.6714C46.4469 20.7623 46.2906 20.8167 46.1283 20.8292M46.6069 19.3268C46.4336 19.3238 46.2631 19.3699 46.115 19.4598C45.9948 19.5247 45.8966 19.6238 45.8327 19.7444C45.7688 19.8651 45.7421 20.002 45.7559 20.1379C45.7621 20.2185 45.7919 20.2955 45.8416 20.3593C45.8912 20.4232 45.9586 20.471 46.0352 20.4968C46.2612 20.4968 46.5138 20.3639 46.6334 20.1511C46.7261 19.993 46.7807 19.8155 46.7931 19.6326V19.3933H46.5936" fill="white"/>
<path d="M49.4125 19.8724C49.3732 19.8699 49.336 19.854 49.307 19.8274C49.278 19.8008 49.2589 19.7651 49.2529 19.7262C49.2529 19.7052 49.2571 19.6845 49.2651 19.6651C49.2731 19.6458 49.2849 19.6282 49.2997 19.6134C49.3145 19.5985 49.3321 19.5868 49.3514 19.5788C49.3708 19.5708 49.3915 19.5666 49.4125 19.5666C49.9576 19.5666 50.5293 19.5666 51.0878 19.4736C51.1262 19.458 51.169 19.458 51.2074 19.4736H51.3404C51.359 19.4735 51.3775 19.4773 51.3945 19.4848C51.4116 19.4923 51.4269 19.5033 51.4394 19.5171C51.4519 19.5309 51.4615 19.5471 51.4673 19.5648C51.4732 19.5825 51.4752 19.6013 51.4733 19.6198C51.4739 19.6579 51.4608 19.6949 51.4364 19.7242C51.412 19.7534 51.378 19.773 51.3404 19.7794C50.7022 19.7794 50.0108 19.8724 49.4125 19.8857V19.8724Z" fill="white"/>
<path d="M50.3419 20.5638C50.3027 20.5612 50.2654 20.5453 50.2364 20.5187C50.2074 20.4921 50.1884 20.4564 50.1824 20.4175L50.076 19.0879C50.0689 19.0641 50.0674 19.039 50.0718 19.0145C50.0761 18.9901 50.0861 18.9669 50.101 18.947C50.1158 18.9271 50.1351 18.9109 50.1573 18.8998C50.1795 18.8886 50.204 18.8828 50.2289 18.8828C50.2537 18.8828 50.2783 18.8886 50.3005 18.8998C50.3227 18.9109 50.342 18.9271 50.3569 18.947C50.3717 18.9669 50.3817 18.9901 50.386 19.0145C50.3903 19.039 50.3889 19.0641 50.3818 19.0879L50.4882 20.4175C50.492 20.4378 50.4914 20.4586 50.4866 20.4786C50.4818 20.4986 50.4729 20.5174 50.4603 20.5337C50.4478 20.55 50.432 20.5635 50.4138 20.5733C50.3957 20.583 50.3758 20.5889 50.3552 20.5904" fill="white"/>
<path d="M53.7452 21.1487C53.6348 21.1626 53.5231 21.1626 53.4128 21.1487C53.2232 21.0844 53.0505 20.978 52.9078 20.8375C52.765 20.6971 52.6559 20.5262 52.5884 20.3377C52.4587 19.9705 52.4356 19.574 52.522 19.1942C52.5929 18.8219 52.7734 18.4793 53.0405 18.2103C53.1778 18.0801 53.3414 17.9808 53.5202 17.9188C53.6991 17.8569 53.8891 17.8339 54.0776 17.8513C54.1665 17.8633 54.2513 17.896 54.3252 17.9468C54.3991 17.9976 54.4601 18.0651 54.5031 18.1439C54.6892 18.4896 54.503 18.7289 54.277 18.8884C54.0509 19.048 54.051 19.1145 54.0643 19.2208C54.0776 19.3272 54.1706 19.3937 54.3967 19.4735C54.5208 19.5032 54.6366 19.5605 54.7356 19.641C54.8345 19.7216 54.9141 19.8233 54.9684 19.9388C55.0075 20.029 55.0278 20.1263 55.0278 20.2247C55.0278 20.323 55.0075 20.4203 54.9684 20.5105C54.8345 20.7741 54.6069 20.9781 54.3302 21.0823C54.1467 21.1486 53.9536 21.1845 53.7585 21.1886M53.9579 18.1571C53.7038 18.1751 53.4619 18.2728 53.2665 18.4364C53.0511 18.6664 52.9038 18.9518 52.8411 19.2607C52.7439 19.5724 52.7439 19.9063 52.8411 20.218C52.8879 20.3623 52.9676 20.4938 53.0736 20.6022C53.1797 20.7106 53.3094 20.793 53.4526 20.8429C53.6859 20.9191 53.9374 20.9191 54.1707 20.8429C54.3696 20.7649 54.5345 20.6188 54.636 20.4308C54.6588 20.3806 54.6706 20.3263 54.6706 20.2712C54.6706 20.2162 54.6588 20.1618 54.636 20.1117C54.636 19.9654 54.4499 19.9122 54.2371 19.8324C54.0244 19.7527 53.7451 19.6463 53.7053 19.3139C53.7058 19.1972 53.7338 19.0822 53.7869 18.9783C53.84 18.8744 53.9168 18.7844 54.0111 18.7156C54.2106 18.5294 54.2505 18.4763 54.184 18.3566C54.1649 18.3153 54.1351 18.28 54.0976 18.2542C54.0602 18.2285 54.0165 18.2133 53.9712 18.2103H53.8914" fill="white"/>
<path d="M9.88281 18.5561L14.3635 14.3014L15.241 14.2881L16.0654 15.8836L14.9486 21.202L12.0766 21.3349L9.88281 18.5561Z" fill="#142B2A"/>
<path d="M19.5887 24.3265C19.5887 24.3265 12.2494 21.4945 10.2816 27.9031C9.00379 32.2671 9.32436 36.9438 11.1857 41.0927L19.0968 41.2124L22.2612 31.5595L19.5887 24.3265Z" fill="#9BCEA4"/>
<path d="M14.1532 32.8091C16.9454 34.2983 27.7816 38.9386 36.5436 26.5467L35.6528 25.3368L29.3106 28.8602C29.3106 28.8602 19.3386 22.8372 15.4828 23.8078C11.8663 24.7385 9.88523 28.2885 12.8236 31.7853C13.1952 32.2107 13.647 32.5586 14.1532 32.8091Z" fill="#CA5098"/>
<path d="M19.8032 65.89L20.1489 69.3204L19.7234 95.4469H17.7025C17.7025 95.4469 14.5248 84.265 15.6283 62.207L19.8032 65.89Z" fill="#CA5098"/>
<path d="M9.51076 65.9561C9.51076 65.9561 12.1699 71.2745 13.9117 75.476C11.8712 76.893 10.4268 79.0146 9.85646 81.4326C8.68642 85.5676 6.50586 96.0581 6.50586 96.0581H8.28755L19.0307 76.0078C18.9093 71.5238 18.1021 67.0847 16.6374 62.8448L9.51076 65.9561Z" fill="#9BCEA4"/>
<path d="M11.2261 41.0928C9.2813 42.6577 7.79691 44.7204 6.93069 47.0616C6.06447 49.4027 5.84877 51.9348 6.30655 54.3887C7.04174 59.5313 8.64213 64.5123 11.0399 69.1206L20.1476 69.2669L19.1239 41.1593L11.2261 41.0928Z" fill="#142B2A"/>
<path d="M16.9163 11.6154C15.8925 9.75397 12.4222 10.6448 10.6672 11.4691C9.22676 12.2987 8.1651 13.6555 7.70616 15.2531C7.24722 16.8507 7.42695 18.5642 8.20744 20.0317C10.2683 24.3928 14.1906 21.6139 14.1906 21.6139C13.1725 20.9613 12.2955 20.1114 11.6112 19.1143L15.3607 14.9394C15.826 15.5776 16.2914 16.269 16.6903 16.8806C17.3285 16.2025 18.4719 14.4474 16.9163 11.642" fill="#142B2A"/>
<path d="M15.4004 13.3838C15.2191 14.6791 14.7951 15.9286 14.1506 17.0668C13.6487 17.7478 13.3605 18.5626 13.3226 19.4078C13.2848 20.2529 13.4989 21.0902 13.9379 21.8134C14.5267 22.24 15.221 22.4974 15.9456 22.558C16.3349 22.5785 16.7231 22.5002 17.0741 22.3306C17.4251 22.1609 17.7275 21.9052 17.9533 21.5874C18.1419 21.2341 18.2509 20.8438 18.2723 20.4439C18.3607 19.1244 18.0896 17.8056 17.4879 16.628C17.3636 16.3684 17.226 16.1155 17.0757 15.8701C16.9386 16.0169 16.792 16.1546 16.6369 16.2823L15.4004 13.3838Z" fill="#DEDEDE"/>
<path d="M16.6379 16.2701C16.793 16.1425 16.9396 16.0048 17.0767 15.858C16.5704 15.0122 16.0108 14.1995 15.4014 13.4248L16.6379 16.2701Z" fill="#9BCEA4"/>
<path d="M7.50256 15.8042C7.28876 15.8153 7.07703 15.7581 6.89781 15.641C6.71859 15.5239 6.58113 15.3529 6.50536 15.1527C6.34812 14.7278 6.31137 14.2677 6.39905 13.8231C6.47527 13.1813 6.70626 12.5677 7.07221 12.035C7.43816 11.5023 7.92804 11.0664 8.49975 10.765C8.67717 10.661 8.87912 10.6062 9.08478 10.6062C9.29044 10.6062 9.49238 10.661 9.6698 10.765C9.80644 10.8959 9.91566 11.0526 9.991 11.2261C10.0663 11.3996 10.1063 11.5864 10.1086 11.7755C10.1473 12.9113 9.82107 14.0296 9.17786 14.9666V14.7272" fill="#142B2A"/>
<path d="M17.6496 95.7258C17.3499 96.1063 17.1334 96.5456 17.0143 97.0152C16.8952 97.4847 16.8761 97.9741 16.9583 98.4515C17.073 99.5784 17.2775 100.694 17.5699 101.789L18.3942 98.7706C18.6016 99.5732 19.044 100.296 19.6646 100.845C20.2853 101.395 21.0559 101.747 21.8777 101.855C24.8029 102.254 23.912 100.845 23.2073 100.3L22.0506 99.3689C22.157 99.6082 22.3564 100.18 21.7315 100.02C21.1066 99.8609 19.6972 99.103 17.7427 95.6992" fill="#142B2A"/>
<path d="M6.34675 96.2981C6.02788 96.7 5.79786 97.165 5.67181 97.6623C5.54576 98.1596 5.52656 98.678 5.61549 99.1833C5.7396 100.372 5.95291 101.55 6.25367 102.707L7.13125 99.5024C7.35149 100.354 7.82095 101.12 8.47951 101.703C9.13807 102.285 9.95566 102.658 10.8275 102.773C13.9121 103.199 12.9681 101.71 12.2369 101.138L11.0003 100.141C11.12 100.393 11.3194 101.005 10.6679 100.845C10.0164 100.686 8.51403 99.8614 6.38668 96.2715" fill="#142B2A"/>
<path d="M17.0494 18.743C17.022 18.7435 16.995 18.7363 16.9715 18.7222C16.948 18.708 16.9289 18.6876 16.9165 18.6632C16.8927 18.6328 16.8799 18.5954 16.8799 18.5568C16.8799 18.5183 16.8927 18.4808 16.9165 18.4505L17.3951 18.1845C17.1546 17.3768 16.6367 16.6799 15.9326 16.2167C15.9181 16.2031 15.9065 16.1866 15.8986 16.1683C15.8908 16.15 15.8867 16.1303 15.8867 16.1104C15.8867 16.0904 15.8908 16.0707 15.8986 16.0525C15.9065 16.0342 15.9181 16.0177 15.9326 16.004C15.945 15.9899 15.9604 15.9785 15.9776 15.9708C15.9948 15.963 16.0134 15.959 16.0323 15.959C16.0512 15.959 16.0698 15.963 16.087 15.9708C16.1042 15.9785 16.1196 15.9899 16.132 16.004C16.9361 16.5344 17.5142 17.3448 17.7541 18.2776C17.7725 18.3027 17.7823 18.3329 17.7823 18.364C17.7823 18.3951 17.7725 18.4254 17.7541 18.4505L17.1824 18.7829H17.1026" fill="#1D1D1B"/>
<path d="M14.5902 17.8915C14.5698 17.8915 14.5496 17.8874 14.531 17.8792C14.5123 17.871 14.4956 17.8591 14.4818 17.844C14.468 17.829 14.4575 17.8113 14.451 17.792C14.4445 17.7727 14.4421 17.7522 14.444 17.7319C14.445 17.4638 14.5153 17.2004 14.6481 16.9675C14.7809 16.7345 14.9716 16.5398 15.2018 16.4023C15.2289 16.3771 15.2646 16.363 15.3016 16.363C15.3386 16.363 15.3742 16.3771 15.4012 16.4023C15.425 16.4327 15.4378 16.4701 15.4378 16.5087C15.4378 16.5472 15.425 16.5847 15.4012 16.615C15.2132 16.7234 15.0583 16.8809 14.9529 17.0706C14.8475 17.2603 14.7957 17.4751 14.803 17.692C14.803 17.7343 14.7862 17.7749 14.7562 17.8048C14.7263 17.8348 14.6857 17.8516 14.6434 17.8516" fill="#1D1D1B"/>
<path d="M16.5169 15.8309C16.4846 15.83 16.4533 15.8194 16.4272 15.8004C16.4011 15.7814 16.3814 15.7549 16.3706 15.7245C16.3576 15.6857 16.36 15.6433 16.3773 15.6062C16.3946 15.569 16.4256 15.54 16.4637 15.5251C16.726 15.4318 17.0124 15.4318 17.2747 15.5251C17.3129 15.54 17.3438 15.569 17.3612 15.6062C17.3785 15.6433 17.3809 15.6857 17.3678 15.7245C17.3633 15.7441 17.3547 15.7625 17.3427 15.7787C17.3306 15.7948 17.3154 15.8083 17.2979 15.8183C17.2805 15.8283 17.2611 15.8345 17.2411 15.8367C17.2211 15.8389 17.2009 15.8369 17.1817 15.8309C16.9844 15.7575 16.7673 15.7575 16.57 15.8309" fill="#1D1D1B"/>
<path d="M17.4227 20.5371C16.8725 20.5102 16.3417 20.3255 15.8936 20.0053C15.8787 19.9905 15.8669 19.9729 15.8589 19.9535C15.8508 19.9341 15.8467 19.9133 15.8467 19.8923C15.8467 19.8713 15.8508 19.8505 15.8589 19.8311C15.8669 19.8117 15.8787 19.7941 15.8936 19.7793C15.9073 19.7648 15.9237 19.7532 15.942 19.7454C15.9603 19.7375 15.9801 19.7334 16 19.7334C16.0199 19.7334 16.0396 19.7375 16.0579 19.7454C16.0762 19.7532 16.0927 19.7648 16.1064 19.7793C16.501 20.0464 16.9603 20.2025 17.436 20.2313C17.4565 20.2329 17.4764 20.2387 17.4946 20.2485C17.5127 20.2582 17.5285 20.2717 17.5411 20.288C17.5536 20.3043 17.5626 20.3231 17.5674 20.3431C17.5722 20.3631 17.5727 20.384 17.5689 20.4042C17.5689 20.443 17.5535 20.4802 17.526 20.5076C17.4986 20.535 17.4614 20.5504 17.4227 20.5504" fill="#1D1D1B"/>
<path d="M17.2498 16.8283C17.2154 16.8405 17.1777 16.8405 17.1433 16.8283C17.1211 16.7899 17.1094 16.7462 17.1094 16.7018C17.1094 16.6574 17.1211 16.6138 17.1433 16.5753C17.1519 16.556 17.1644 16.5385 17.1798 16.524C17.1952 16.5095 17.2133 16.4982 17.2331 16.4908C17.2529 16.4833 17.274 16.4799 17.2952 16.4807C17.3164 16.4815 17.3372 16.4865 17.3564 16.4954C17.3719 16.5192 17.3802 16.5469 17.3802 16.5753C17.3802 16.6037 17.3719 16.6314 17.3564 16.6552C17.3583 16.6932 17.3475 16.7308 17.3259 16.7621C17.3042 16.7934 17.2728 16.8167 17.2365 16.8283" fill="#1D1D1B"/>
<path d="M48.601 8.22559L37.459 22.7182L38.5093 23.6622L48.8669 8.22559H48.601Z" fill="#142B2A"/>
<path d="M36.1836 24.7647C36.8218 23.701 37.4069 22.4246 38.1381 21.4274C38.398 21.0466 38.7218 20.7137 39.0954 20.4435C39.1126 20.4348 39.1316 20.4304 39.1509 20.4307C39.1702 20.4309 39.1891 20.4358 39.2061 20.445C39.2231 20.4541 39.2376 20.4672 39.2485 20.4832C39.2593 20.4991 39.2661 20.5174 39.2683 20.5366C39.2213 20.8561 39.0931 21.1583 38.896 21.4141L37.9387 22.9166C38.1985 22.6049 38.5388 22.3704 38.9226 22.2385C38.989 22.2385 39.0556 22.2385 39.0423 22.3714C38.9572 22.5706 38.8404 22.7547 38.6965 22.9166C38.8769 22.7096 39.1119 22.5575 39.3747 22.4778C39.4135 22.4646 39.4555 22.4646 39.4943 22.4778C39.5873 22.4778 39.4943 22.6639 39.4943 22.757C39.4943 22.8501 39.1353 23.1958 38.9359 23.4085C39.0913 23.2102 39.3053 23.0659 39.5475 22.9963C39.5869 22.9701 39.6331 22.956 39.6804 22.956C39.7278 22.956 39.7741 22.9701 39.8134 22.9963C39.9065 23.116 39.8134 23.2756 39.6804 23.3819L39.0556 23.9271C39.2618 23.7688 39.5038 23.6638 39.7602 23.6213C39.7892 23.6167 39.8188 23.6191 39.8467 23.6282C39.8746 23.6372 39.9 23.6528 39.9207 23.6735C39.9415 23.6943 39.957 23.7196 39.9661 23.7475C39.9752 23.7754 39.9775 23.805 39.973 23.834C39.9333 23.9619 39.8597 24.0767 39.7602 24.1664C38.9389 24.8866 38.0482 25.5235 37.101 26.0677" fill="white"/>
</svg>
