<svg width="117" height="72" viewBox="0 0 117 72" fill="none" xmlns="http://www.w3.org/2000/svg">
<path d="M53.7633 11.4174C54.3359 11.4432 54.9078 11.3518 55.4439 11.149C55.98 10.9461 56.469 10.636 56.8811 10.2377C57.2818 9.83406 57.5966 9.35347 57.8066 8.82489C58.0165 8.29632 58.1173 7.73072 58.1028 7.16215C58.1256 6.60071 58.0306 6.04073 57.8238 5.51827C57.617 4.99582 57.303 4.52247 56.9022 4.12872C56.4859 3.73149 55.9925 3.42376 55.4526 3.22449C54.9128 3.02523 54.3379 2.93864 53.7633 2.97011C53.186 2.94308 52.6091 3.03164 52.0665 3.2306C51.5239 3.42956 51.0265 3.73491 50.6035 4.12872C50.2026 4.52247 49.8887 4.99582 49.6819 5.51827C49.4751 6.04073 49.3801 6.60071 49.4029 7.16215C49.3856 7.72923 49.483 8.29395 49.6893 8.82245C49.8957 9.35094 50.2066 9.8323 50.6035 10.2377C51.0205 10.6414 51.5165 10.9545 52.0602 11.1575C52.604 11.3605 53.1838 11.449 53.7633 11.4174ZM42.9147 11.4174C43.4873 11.4432 44.0591 11.3518 44.5951 11.149C45.1312 10.9461 45.6202 10.636 46.0323 10.2377C46.4292 9.8323 46.7402 9.35094 46.9465 8.82245C47.1528 8.29395 47.2503 7.72923 47.2331 7.16215C47.2558 6.60071 47.1607 6.04073 46.9539 5.51827C46.7471 4.99582 46.4332 4.52247 46.0323 4.12872C45.6185 3.73414 45.1287 3.42792 44.5927 3.22873C44.0567 3.02955 43.4858 2.94155 42.9147 2.97011C42.3341 2.94261 41.7538 3.03089 41.2077 3.22979C40.6616 3.4287 40.1606 3.73429 39.7338 4.12872C39.3221 4.5163 38.9981 4.98755 38.7837 5.51078C38.5694 6.03402 38.4695 6.59711 38.4909 7.16215C38.4702 7.73336 38.5702 8.3025 38.7844 8.83245C38.9985 9.36239 39.3221 9.84121 39.7338 10.2377C40.1533 10.6441 40.6527 10.9588 41.2003 11.1618C41.7479 11.3649 42.3317 11.452 42.9147 11.4174ZM48.2021 34.1049C45.9804 34.2726 43.7639 33.7185 41.8825 32.525C41.1707 31.9578 40.6071 31.2264 40.2402 30.3935C39.8733 29.5606 39.714 28.6511 39.7759 27.7431V27.3218C39.7142 26.4077 39.8733 25.4921 40.24 24.6525C40.6066 23.8129 41.17 23.0738 41.8825 22.4978C43.7551 21.281 45.9749 20.7112 48.2021 20.8758C53.8196 20.8758 56.6283 23.0244 56.6283 27.3218V27.7431C56.6885 28.6509 56.5282 29.5598 56.1615 30.3924C55.7947 31.225 55.2322 31.9566 54.5218 32.525C52.6392 33.7157 50.4236 34.2696 48.2021 34.1049ZM48.2021 42.1308C51.2751 42.2015 54.3256 41.59 57.1339 40.3403C59.5585 39.2695 61.6164 37.5118 63.0533 35.2845C64.4736 32.9824 65.2047 30.3214 65.1598 27.6167V27.4061C65.2047 24.7013 64.4736 22.0404 63.0533 19.7382C61.6133 17.5034 59.5575 15.7329 57.1339 14.6404C54.3256 13.3906 51.2751 12.7791 48.2021 12.8498C45.1497 12.7815 42.1203 13.3931 39.3335 14.6404C36.9019 15.7393 34.8392 17.5168 33.393 19.7593C31.9689 22.052 31.2374 24.7074 31.2865 27.4061V27.6167C31.2409 30.3149 31.9722 32.9693 33.393 35.2635C34.8417 37.4936 36.9049 39.2568 39.3335 40.3403C42.1203 41.5875 45.1497 42.1992 48.2021 42.1308Z" fill="#1D1D1B"/>
<path d="M96.3589 8.17331H94.4841V5.49799H71.3121V8.17331H69.4372C68.6367 8.17331 68.6367 8.17331 68.6367 9.10019C68.6367 9.50044 70.4063 9.5215 70.4063 10.8697V22.8349C70.4063 23.7407 70.4063 23.7407 71.3121 23.7407H72.8078C73.7136 23.7407 73.7136 23.7407 73.7136 22.8349V10.8697H77.6317V22.8349C77.6317 23.7407 77.6317 23.7407 78.5164 23.7407H80.0332C80.918 23.7407 80.9179 23.7407 80.9179 22.8349V10.8697H84.8361V22.8349C84.8361 23.7407 84.8362 23.7407 85.7209 23.7407H87.2586C88.1434 23.7407 88.1434 23.7407 88.1434 22.8349V10.8697H92.0616V22.8349C92.0616 23.7407 92.0616 23.7407 92.9674 23.7407H94.463C95.3688 23.7407 95.3688 23.7407 95.3688 22.8349V10.8697C95.3688 9.5215 97.1384 9.54257 97.1384 9.10019C97.1384 8.17331 97.1383 8.17331 96.3379 8.17331" fill="#9BCEA4"/>
<path d="M87.1096 2.40131H78.7256V4.52894H87.1096V2.40131Z" fill="#9BCEA4"/>
<path d="M85.0049 -0.00012207H80.834V1.85365H85.0049V-0.00012207Z" fill="#9BCEA4"/>
<path d="M11.7801 33.1781C11.7801 33.1781 -3.49231 26.5635 0.74185 46.4283C4.97601 66.293 12.6859 68.547 12.6859 68.547L40.2607 69.6846V65.345L16.9201 61.3005C16.9201 61.3005 17.1097 50.7677 15.6351 46.5547" fill="#0095D4"/>
<path d="M20.1437 35.1585C20.1437 35.1585 30.3604 33.3258 33.794 39.5401C37.2277 45.7544 38.7023 46.4075 43.2524 46.5339L47.7815 46.6813L52.9004 66.2512L37.8386 64.924L14.2874 63.4073L8.11523 40.6566" fill="#0095D4"/>
<path d="M40.2589 65.5135C40.3168 65.5138 40.3728 65.4923 40.4157 65.4533C40.4586 65.4143 40.4853 65.3606 40.4905 65.3029C40.4966 65.2736 40.4964 65.2434 40.4899 65.2142C40.4834 65.1851 40.4708 65.1576 40.4529 65.1337C40.4349 65.1098 40.4121 65.09 40.3859 65.0756C40.3597 65.0611 40.3308 65.0525 40.301 65.0501L17.129 61.1109C17.129 59.5731 17.129 50.3464 15.823 46.4704C15.8134 46.4412 15.7981 46.4142 15.7781 46.391C15.7581 46.3678 15.7337 46.3487 15.7062 46.335C15.6788 46.3213 15.6489 46.3132 15.6183 46.3111C15.5877 46.309 15.5571 46.313 15.528 46.3229C15.4761 46.3498 15.4351 46.394 15.412 46.4478C15.389 46.5015 15.3853 46.5616 15.4016 46.6178C16.8341 50.7045 16.6655 61.1951 16.6655 61.3636C16.6683 61.4174 16.6882 61.4689 16.7223 61.5106C16.7564 61.5523 16.803 61.582 16.8552 61.5954L40.2378 65.5135" fill="white"/>
<path d="M11.7798 33.1779C11.7798 33.1779 12.7699 36.3798 20.206 35.158L22.6286 41.3091H10.3263L6.85059 35.6215L11.7798 33.1779Z" fill="#0095D4"/>
<path d="M47.2324 47.3754C47.2324 47.3754 57.1543 21.1489 70.4044 20.1167C83.6546 19.0845 110.429 27.7424 110.429 27.7424V32.124L77.4404 30.5863L52.8569 54.1164L48.1804 51.5253L47.2324 47.3754Z" fill="#0095D4"/>
<path d="M115.956 22.0329C114.667 21.692 111.428 27.9719 111.428 27.9719C111.401 29.5735 111.252 31.1699 110.981 32.7446C111.758 33.1214 113.13 33.6776 113.592 33.3905C114.055 33.1034 117.261 22.3559 115.956 22.0329Z" fill="#0095D4"/>
<path d="M48.2227 51.5262C48.2227 51.5262 64.3168 19.1275 73.3539 21.0234C82.391 22.9193 105.963 59.8049 105.963 59.8049L102.024 60.6054C102.024 60.6054 86.9622 59.1309 75.0602 36.2327C75.0602 36.2327 71.479 65.5769 52.8993 66.251L48.2227 51.5262Z" fill="#CA5098"/>
<path d="M48.9609 30.3125L50.3511 51.2516L39.5025 54.917L24.4406 52.979L21.7021 31.5554L36.8693 34.5888L48.9609 30.3125Z" fill="#9BCEA4"/>
<path d="M31.0554 54.2024C30.95 53.9917 30.8658 53.8021 30.7815 53.5915C30.3813 52.4961 29.9388 50.7687 30.3391 50.7266C30.7393 50.6844 32.4456 53.3176 32.4456 53.3176C32.2982 52.9595 31.919 51.7798 31.7926 51.4007C31.6662 51.0215 31.5819 50.4738 31.7926 50.4527C31.9839 50.4652 32.1639 50.5477 32.2982 50.6844C32.5386 50.9004 32.7638 51.1327 32.9723 51.3796C33.4144 51.9341 33.7566 52.5614 33.9835 53.2334C33.7307 52.4961 33.541 51.7588 33.3514 51.1268C33.3514 50.7898 33.3515 50.4527 33.52 50.4316C33.6039 50.4423 33.6847 50.4703 33.7572 50.5138C33.8297 50.5573 33.8924 50.6154 33.9413 50.6844C34.1273 50.9431 34.2895 51.2181 34.4258 51.506C34.6505 52.1547 34.9325 52.7821 35.2685 53.3808C35.064 52.8226 34.9226 52.2432 34.8471 51.6534C34.8471 51.3164 34.8471 50.9372 35.0577 50.9162C35.2684 50.8951 35.458 51.1689 35.5844 51.3585C35.7944 51.6909 35.9844 52.0356 36.1532 52.3907C36.4269 53.0612 36.7655 53.7032 37.1643 54.3077C38.5546 56.0561 38.5336 52.7699 38.5758 51.9484C38.545 51.8669 38.545 51.777 38.5758 51.6956C38.7021 51.5692 38.9127 51.6956 39.018 51.8641C39.3695 52.399 39.5656 53.021 39.5842 53.6608C39.6027 54.3006 39.4433 54.933 39.1235 55.4874C38.4685 56.574 37.4197 57.3662 36.1953 57.6992C35.5234 57.9564 34.79 58.0078 34.0888 57.8467C32.9591 57.4252 32.0326 56.589 31.4978 55.5084C31.2661 55.1082 31.0343 54.6658 30.8237 54.2445" fill="white"/>
<path d="M21.7024 17.5685C21.8919 19.7693 21.8919 21.9823 21.7024 24.183C21.5526 26.4351 20.8273 28.6111 19.5959 30.5027C19.2564 31.0316 18.803 31.4778 18.2687 31.8087C17.7101 32.047 17.0943 32.1182 16.4961 32.0135C15.8978 31.9088 15.3428 31.6328 14.8983 31.2189C14.0087 30.3775 13.3425 29.3277 12.9602 28.1644C12.0109 25.7076 11.4838 23.108 11.4014 20.4755" fill="#E3E3E3"/>
<path d="M12.6436 26.3317L12.159 25.9947L11.1689 24.183L11.4006 22.877L13.6125 22.9612L15.4663 24.0777L15.1503 26.4581" fill="#E3E3E3"/>
<path d="M10.5574 12.197C10.929 11.472 11.4893 10.8607 12.1793 10.4275C12.9716 10.02 13.8606 9.83783 14.7494 9.90087C16.323 9.99675 17.8531 10.4555 19.2199 11.2412C20.5867 12.0269 21.7531 13.1183 22.6278 14.4299C23.5758 15.7992 24.1867 16.8946 23.4072 18.0321C22.0834 19.2285 20.4954 20.0947 18.7728 20.56C16.8902 21.0686 14.9509 21.3376 13.0009 21.3605C13.1906 22.3343 13.3173 23.3194 13.3801 24.3096C13.3893 24.3257 13.3942 24.3438 13.3942 24.3623C13.3942 24.3808 13.3893 24.399 13.3801 24.415C13.2326 24.415 12.9376 23.9726 12.9376 23.9726C12.6638 23.5723 12.369 23.2564 12.1373 23.3196C11.1893 23.5513 12.2636 25.2997 12.4743 26.2687C9.9464 24.3728 9.23022 20.7706 9.35661 17.5476C9.3473 15.6823 9.7804 13.8414 10.6205 12.1759" fill="#142B2A"/>
<path d="M44.7691 70.1266C44.7691 70.253 45.1061 70.5479 45.0008 70.6954C44.8954 70.8428 43.7368 70.3162 43.5262 70.2109C42.7187 69.8059 41.8131 69.6379 40.9141 69.7264C40.9584 68.4257 41.0992 67.1301 41.3354 65.8503C42.9958 65.7858 44.65 66.0879 46.1804 66.735L46.5385 66.8825C46.5385 66.8825 48.8346 67.8305 49.6772 68.336C49.6772 68.336 49.8459 68.4835 49.7827 68.5467C49.7195 68.6099 49.0243 68.5467 48.6661 68.5467L45.7802 67.4513C47.0723 68.1278 48.2932 68.9323 49.4245 69.8528C49.4881 69.9004 49.5362 69.9659 49.5624 70.0409C49.5887 70.116 49.592 70.1972 49.5719 70.2741C49.4455 70.5479 47.971 69.9581 47.7182 69.8528L45.2957 68.8838C45.9893 69.2818 46.6513 69.7325 47.2759 70.2319C47.5708 70.4636 47.9921 70.8639 47.9289 71.0746C47.8657 71.2852 46.9388 70.9692 46.2857 70.7164C45.6327 70.4637 44.8954 70.1476 44.1792 69.8317C44.373 69.9559 44.55 70.1046 44.7058 70.2741" fill="#0095D4"/>
<path d="M115.739 65.26C115.739 63.5326 107.797 61.0469 107.797 61.0469C106.01 61.4518 104.192 61.6985 102.362 61.7841C102.193 62.9006 101.983 64.7755 102.362 65.281C102.741 65.7866 115.696 66.9452 115.675 65.281" fill="#0095D4"/>
<path d="M18.458 27.2168C18.3985 27.2067 18.3445 27.1757 18.3059 27.1293C18.2673 27.083 18.2464 27.0243 18.2473 26.964C18.2439 26.9327 18.2477 26.9011 18.2582 26.8715C18.2687 26.8419 18.2856 26.815 18.3078 26.7928C18.33 26.7705 18.3569 26.7536 18.3865 26.7431C18.4161 26.7326 18.4477 26.7289 18.479 26.7322C18.8645 26.7634 19.2521 26.7634 19.6377 26.7322C19.6559 25.3259 19.5996 23.9195 19.4691 22.5191C19.463 22.4899 19.4632 22.4597 19.4697 22.4305C19.4762 22.4013 19.4888 22.3739 19.5068 22.35C19.5247 22.3261 19.5476 22.3062 19.5738 22.2918C19.5999 22.2774 19.6288 22.2687 19.6586 22.2664C19.6879 22.2603 19.7182 22.2605 19.7473 22.267C19.7765 22.2735 19.8039 22.2862 19.8278 22.3041C19.8517 22.322 19.8716 22.3448 19.8861 22.371C19.9005 22.3972 19.9092 22.4262 19.9115 22.4559C20.0582 23.8552 20.1144 25.2625 20.0799 26.669C20.0873 26.7841 20.0496 26.8975 19.9746 26.985C19.8989 27.0518 19.8017 27.0892 19.7008 27.0903H18.795H18.458" fill="#142B2A"/>
<path d="M16.3927 25.1094C16.1044 24.9868 15.8567 24.7854 15.6778 24.5282C15.4989 24.2711 15.3962 23.9687 15.3816 23.6559C15.3719 23.3401 15.4625 23.0293 15.6404 22.7682C15.8182 22.5071 16.0742 22.309 16.3716 22.2023C16.586 22.1025 16.8197 22.0508 17.0562 22.0508C17.2928 22.0508 17.5264 22.1025 17.7409 22.2023C17.9512 22.3427 18.1293 22.5261 18.2637 22.7403C18.398 22.9545 18.4855 23.1947 18.5203 23.4452C18.5529 23.6475 18.5529 23.8538 18.5203 24.0561C18.4503 24.3289 18.2953 24.5723 18.0779 24.7512C17.7686 25.0215 17.3722 25.1711 16.9615 25.1726C16.7583 25.1709 16.5576 25.1279 16.3716 25.0462M16.498 22.5815C16.2931 22.6571 16.1175 22.7957 15.9964 22.9774C15.8753 23.1591 15.8149 23.3745 15.824 23.5927C15.8288 23.816 15.8992 24.033 16.0266 24.2166C16.154 24.4002 16.3326 24.5422 16.5401 24.6249C16.7497 24.6966 16.9742 24.713 17.192 24.6724C17.4098 24.6318 17.6134 24.5356 17.7831 24.3931C17.9254 24.2804 18.0285 24.1256 18.0779 23.9508C18.0988 23.8182 18.0988 23.6831 18.0779 23.5505C18.0526 23.365 17.9891 23.1868 17.8912 23.0272C17.7933 22.8676 17.6632 22.7302 17.5092 22.6236C17.3607 22.5217 17.1836 22.4701 17.0036 22.4762C16.8372 22.4829 16.6732 22.5185 16.519 22.5815" fill="#CA5098"/>
<path d="M15.6342 23.8254C15.688 23.8226 15.7395 23.8027 15.7811 23.7686C15.8228 23.7345 15.8525 23.688 15.8659 23.6358C15.8688 23.6037 15.865 23.5713 15.8547 23.5407C15.8444 23.5101 15.8278 23.482 15.806 23.4582C15.7841 23.4344 15.7576 23.4154 15.728 23.4025C15.6985 23.3895 15.6665 23.3829 15.6342 23.383C14.6459 23.1525 13.6905 22.7986 12.7904 22.3298C12.7475 22.2898 12.691 22.2676 12.6324 22.2676C12.5737 22.2676 12.5173 22.2898 12.4744 22.3298C12.4385 22.3746 12.4189 22.4303 12.4189 22.4878C12.4189 22.5452 12.4385 22.6009 12.4744 22.6457C13.409 23.125 14.3997 23.4859 15.4236 23.7201" fill="#CA5098"/>
<path d="M18.6679 29.7017C18.957 29.7006 19.2432 29.6434 19.5105 29.5332C19.5397 29.5237 19.5666 29.5085 19.5899 29.4885C19.6131 29.4684 19.6321 29.444 19.6458 29.4166C19.6595 29.3891 19.6676 29.3592 19.6697 29.3286C19.6718 29.298 19.6677 29.2673 19.6579 29.2383C19.6488 29.2091 19.6337 29.1823 19.6133 29.1596C19.5928 29.137 19.5678 29.119 19.5397 29.107C19.5117 29.0949 19.4812 29.0892 19.4507 29.09C19.4202 29.0909 19.3904 29.0983 19.363 29.1119C19.1061 29.2191 18.8304 29.2743 18.552 29.2743C18.2736 29.2743 17.9979 29.2191 17.741 29.1119C17.7016 29.0733 17.6486 29.0517 17.5935 29.0517C17.5384 29.0517 17.4854 29.0733 17.446 29.1119C17.406 29.1548 17.3838 29.2112 17.3838 29.2699C17.3838 29.3285 17.406 29.385 17.446 29.4279C17.7927 29.6023 18.1745 29.6959 18.5625 29.7017" fill="#142B2A"/>
<path d="M17.0876 23.6987C17.0184 23.6885 16.9477 23.7016 16.8867 23.7359C16.8257 23.7702 16.7779 23.8238 16.7507 23.8883C16.7108 23.9474 16.6895 24.0171 16.6895 24.0884C16.6895 24.1597 16.7108 24.2294 16.7507 24.2885C16.8098 24.3284 16.8794 24.3496 16.9507 24.3496C17.022 24.3496 17.0916 24.3284 17.1508 24.2885C17.1637 24.2474 17.1637 24.2033 17.1508 24.1621C17.1652 24.1212 17.1652 24.0766 17.1508 24.0357C17.1573 23.9918 17.1539 23.947 17.1406 23.9046C17.1274 23.8622 17.1047 23.8233 17.0743 23.7909C17.0439 23.7585 17.0066 23.7334 16.9651 23.7174C16.9237 23.7015 16.8791 23.695 16.8349 23.6987" fill="#142B2A"/>
<path d="M21.3855 23.3824C21.3163 23.3722 21.2457 23.3853 21.1847 23.4196C21.1237 23.4539 21.0758 23.5075 21.0485 23.572C21.0087 23.6311 20.9873 23.7008 20.9873 23.7721C20.9873 23.8434 21.0087 23.9131 21.0485 23.9722C21.1076 24.0121 21.1773 24.0334 21.2486 24.0334C21.3199 24.0334 21.3896 24.0121 21.4488 23.9722C21.4488 23.9722 21.4487 23.9722 21.5541 23.8669V23.7195C21.5613 23.6736 21.5575 23.6266 21.5431 23.5824C21.5287 23.5382 21.5041 23.4981 21.4713 23.4652C21.4384 23.4324 21.3982 23.4077 21.354 23.3933C21.3098 23.3789 21.263 23.3752 21.2171 23.3824" fill="#142B2A"/>
<path d="M16.3933 23.72C16.3768 23.7276 16.3589 23.7315 16.3407 23.7315C16.3225 23.7315 16.3045 23.7276 16.288 23.72C16.2695 23.7023 16.2548 23.6811 16.2448 23.6575C16.2347 23.634 16.2295 23.6087 16.2295 23.5831C16.2295 23.5575 16.2347 23.5322 16.2448 23.5087C16.2548 23.4851 16.2695 23.4639 16.288 23.4462C16.4688 23.203 16.7183 23.0196 17.0043 22.9195C17.0262 22.9095 17.05 22.9043 17.0741 22.9042C17.0982 22.9042 17.1222 22.9094 17.1442 22.9193C17.1661 22.9293 17.1857 22.9439 17.2015 22.9621C17.2174 22.9803 17.2291 23.0017 17.236 23.0249C17.2671 23.0596 17.2842 23.1046 17.2842 23.1513C17.2842 23.1979 17.2671 23.2429 17.236 23.2776C17.0132 23.3667 16.8172 23.5118 16.6672 23.6989C16.6442 23.7101 16.619 23.716 16.5935 23.716C16.5679 23.716 16.5427 23.7101 16.5197 23.6989" fill="#142B2A"/>
<path d="M21.6802 23.0245C21.5013 22.9082 21.3007 22.8294 21.0904 22.7928C21.0439 22.7797 21.0025 22.7523 20.9723 22.7145C20.9421 22.6767 20.9245 22.6304 20.9219 22.5821C20.9321 22.53 20.9617 22.4837 21.0047 22.4524C21.0476 22.4212 21.1008 22.4073 21.1536 22.4136C21.407 22.4603 21.6499 22.5531 21.8698 22.6875C21.9025 22.7256 21.9204 22.7742 21.9204 22.8244C21.9204 22.8746 21.9025 22.9232 21.8698 22.9613C21.8433 22.9729 21.8145 22.9789 21.7855 22.9789C21.7565 22.9789 21.7279 22.9729 21.7013 22.9613" fill="#142B2A"/>
<path d="M21.0477 24.3508C20.8574 24.1694 20.7153 23.9434 20.6343 23.6933C20.5534 23.4431 20.5362 23.1768 20.5842 22.9183C20.623 22.7213 20.7083 22.5363 20.8329 22.3788C20.9574 22.2213 21.1177 22.0957 21.3005 22.0125C21.5224 21.8996 21.7678 21.8408 22.0168 21.8408C22.2657 21.8408 22.511 21.8996 22.7329 22.0125C22.9179 22.112 23.0771 22.2533 23.1978 22.4252C23.3185 22.5971 23.3974 22.7948 23.4281 23.0026C23.44 23.2976 23.3898 23.5919 23.2806 23.8662C23.2012 24.1058 23.055 24.3177 22.8593 24.4772C22.7322 24.5621 22.5886 24.6195 22.438 24.6457H22.1432C21.7423 24.6451 21.3545 24.5034 21.0477 24.2454M22.5223 22.3917C22.3615 22.3134 22.185 22.2728 22.0062 22.2728C21.8274 22.2728 21.6509 22.3134 21.4901 22.3917C21.3735 22.4488 21.2712 22.5315 21.1909 22.6336C21.1107 22.7358 21.0546 22.8547 21.0266 22.9815C20.9968 23.1565 21.01 23.3362 21.0651 23.505C21.1201 23.6738 21.2154 23.8267 21.3427 23.9505C21.4811 24.067 21.6432 24.1519 21.8179 24.1992C21.9925 24.2465 22.1754 24.2551 22.3538 24.2243C22.4374 24.2393 22.5229 24.2393 22.6065 24.2243C22.7264 24.1171 22.814 23.9785 22.8593 23.8241C22.949 23.6188 22.9852 23.3942 22.9646 23.1711C22.9465 23.0381 22.897 22.9114 22.8201 22.8015C22.7431 22.6916 22.641 22.6016 22.5223 22.5391L22.6276 22.3285L22.5223 22.3917Z" fill="#CA5098"/>
<path d="M18.4163 23.7194L18.1846 23.3191C18.5726 23.066 19.0121 22.9024 19.4712 22.8405C19.9303 22.7785 20.3975 22.8197 20.8387 22.961L20.7123 23.4034C20.3302 23.282 19.9259 23.2474 19.5287 23.3021C19.1315 23.3567 18.7514 23.4993 18.4163 23.7194Z" fill="#CA5098"/>
<path d="M12.4312 23.2146H12.3259C12.2859 23.1718 12.2637 23.1153 12.2637 23.0567C12.2637 22.998 12.2859 22.9416 12.3259 22.8987C12.402 22.7399 12.4864 22.5852 12.5787 22.4352C12.6181 22.3966 12.671 22.375 12.7262 22.375C12.7813 22.375 12.8342 22.3966 12.8736 22.4352C12.896 22.455 12.914 22.4793 12.9263 22.5066C12.9386 22.5338 12.945 22.5633 12.945 22.5932C12.945 22.6231 12.9386 22.6526 12.9263 22.6799C12.914 22.7071 12.896 22.7314 12.8736 22.7512L12.6208 23.1936C12.6047 23.2306 12.5782 23.2622 12.5446 23.2846C12.511 23.307 12.4716 23.3193 12.4312 23.32" fill="#CA5098"/>
</svg>
