<svg width="73" height="103" viewBox="0 0 73 103" fill="none" xmlns="http://www.w3.org/2000/svg">
<path d="M72.3859 102.949H43.9284C43.9034 102.949 43.8786 102.944 43.8557 102.934C43.8327 102.924 43.8121 102.909 43.7952 102.891C43.7783 102.872 43.7654 102.851 43.7574 102.827C43.7494 102.803 43.7465 102.778 43.7487 102.753V91.7589L0.180408 90.6644C0.154632 90.6623 0.129531 90.6552 0.106525 90.6434C0.0835192 90.6316 0.0630543 90.6154 0.0463516 90.5957C0.0296488 90.5759 0.0170451 90.553 0.00921054 90.5284C0.00137601 90.5038 -0.00150145 90.4778 0.000735403 90.4521C0.000631705 90.427 0.00575676 90.4022 0.0157912 90.3793C0.0258257 90.3563 0.0405076 90.3358 0.0589646 90.3189C0.0774216 90.3019 0.0992529 90.289 0.122977 90.281C0.146701 90.273 0.171826 90.2701 0.19676 90.2724L43.9448 91.3669C43.9698 91.3668 43.9946 91.3719 44.0175 91.3819C44.0404 91.392 44.0611 91.4067 44.078 91.4251C44.0949 91.4436 44.1078 91.4654 44.1158 91.4891C44.1238 91.5129 44.1267 91.538 44.1244 91.5629V102.557H72.3859C72.4379 102.557 72.4877 102.578 72.5245 102.614C72.5612 102.651 72.5819 102.701 72.5819 102.753C72.5819 102.805 72.5612 102.855 72.5245 102.892C72.4877 102.928 72.4379 102.949 72.3859 102.949Z" fill="#13110C"/>
<path d="M56.7516 87.2831C55.8178 87.511 54.843 87.511 53.9092 87.2831L53.1087 89.5865H51.4751C51.2846 89.9848 51.1525 90.4084 51.083 90.8444C51.083 91.8082 62.1262 96.5293 63.4004 96.0883C64.6746 95.6472 56.866 87.2178 56.866 87.2178" fill="#C74593"/>
<path d="M56.4084 85.7476C56.3578 85.7324 56.3146 85.6988 56.2875 85.6535C56.2603 85.6082 56.251 85.5544 56.2613 85.5026C56.2613 85.2739 62.4854 62.4033 60.5414 58.352C59.9473 56.9666 58.8925 55.8291 57.5557 55.1324C56.219 54.4358 54.6824 54.2227 53.2064 54.5294C53.1571 54.5355 53.1073 54.5241 53.0655 54.4973C53.0237 54.4704 52.9927 54.4297 52.9778 54.3823C52.9674 54.3305 52.9767 54.2767 53.0039 54.2314C53.0311 54.1861 53.0742 54.1525 53.1248 54.1373C54.6837 53.8365 56.2985 54.0714 57.7071 54.8039C59.1157 55.5363 60.2354 56.7234 60.8845 58.1723C62.8938 62.3707 56.8984 84.6694 56.637 85.6169C56.6266 85.6574 56.6036 85.6935 56.5713 85.7199C56.539 85.7464 56.4991 85.7618 56.4574 85.7639" fill="#13110C"/>
<path d="M53.2885 89.8471H48.8451L47.0808 72.678C45.1695 75.063 34.1917 88.1319 23.6876 88.5893C22.3259 88.7407 20.9476 88.5747 19.6609 88.1042C18.3741 87.6337 17.2138 86.8716 16.271 85.8775C13.0038 82.0712 13.7715 75.7654 13.8042 75.5041V75.4224C13.8859 75.4224 21.7762 69.9008 30.6957 64.853C42.7191 58.0572 50.7891 55.2473 54.7098 56.4726C55.342 56.6814 55.9224 57.0225 56.4126 57.4732C56.9027 57.9239 57.2912 58.4738 57.5522 59.0863C59.1858 62.3535 58.9408 68.6266 56.8661 77.4644C55.8803 81.6255 54.6751 85.7316 53.2558 89.7655L53.2885 89.8471ZM49.1882 89.4551H53.0271C53.6806 87.6091 60.9011 66.6989 57.3072 59.217C57.0661 58.6501 56.7067 58.1411 56.2532 57.7242C55.7996 57.3072 55.2623 56.9919 54.6771 56.7993C45.7739 54.0058 15.8626 74.4749 14.18 75.6348C14.0983 76.4189 13.5429 82.1692 16.5487 85.6161C17.4553 86.5681 18.5704 87.2967 19.8063 87.7446C21.0422 88.1925 22.3652 88.3475 23.6712 88.1972C34.9921 87.7071 46.9501 72.2206 47.0645 72.0735L47.3585 71.6814L49.1882 89.4551Z" fill="#13110C"/>
<path d="M27.0367 80.0948C26.9896 80.1139 26.9369 80.1139 26.8897 80.0948C26.8714 80.0766 26.8569 80.055 26.847 80.0312C26.8371 80.0074 26.832 79.9818 26.832 79.956C26.832 79.9302 26.8371 79.9047 26.847 79.8808C26.8569 79.857 26.8714 79.8354 26.8897 79.8172L27.7392 79.082C27.7571 79.0588 27.7801 79.0399 27.8063 79.0267C27.8325 79.0136 27.8613 79.0064 27.8907 79.0059C27.92 79.0054 27.9491 79.0114 27.9758 79.0236C28.0025 79.0358 28.0261 79.0538 28.0449 79.0764C28.0637 79.0989 28.0772 79.1254 28.0844 79.1539C28.0915 79.1823 28.0923 79.212 28.0865 79.2408C28.0806 79.2696 28.0684 79.2967 28.0507 79.3201C28.033 79.3435 28.0103 79.3626 27.9843 79.3761L27.1347 80.1112C27.0927 80.1276 27.0461 80.1276 27.0041 80.1112" fill="#13110C"/>
<path d="M52.4693 81.8438C52.4199 81.8321 52.3771 81.8018 52.3497 81.7591C52.3222 81.7165 52.3124 81.6649 52.3222 81.6152C52.4366 80.929 52.5836 80.1776 52.7143 79.3771C52.7162 79.3519 52.7233 79.3273 52.7353 79.3051C52.7473 79.2828 52.7639 79.2633 52.7839 79.2479C52.804 79.2325 52.827 79.2215 52.8516 79.2156C52.8762 79.2097 52.9018 79.2091 52.9267 79.2138C52.9526 79.2177 52.9774 79.2268 52.9998 79.2405C53.0221 79.2542 53.0414 79.2723 53.0566 79.2936C53.0719 79.3149 53.0827 79.3391 53.0884 79.3647C53.0941 79.3902 53.0947 79.4166 53.09 79.4424C52.9593 80.2429 52.8123 81.076 52.6979 81.6805C52.6901 81.7266 52.6661 81.7685 52.6301 81.7984C52.5942 81.8284 52.5487 81.8445 52.5019 81.8438M29.6314 77.9068C29.6083 77.9172 29.5833 77.9226 29.5579 77.9226C29.5326 77.9226 29.5075 77.9172 29.4844 77.9068C29.4661 77.8886 29.4516 77.867 29.4417 77.8432C29.4318 77.8193 29.4268 77.7938 29.4268 77.768C29.4268 77.7422 29.4318 77.7166 29.4417 77.6928C29.4516 77.669 29.4661 77.6474 29.4844 77.6292C29.9908 77.1881 30.5789 76.7143 31.1997 76.1916C31.2179 76.1733 31.2395 76.1588 31.2634 76.1489C31.2872 76.139 31.3127 76.1339 31.3385 76.1339C31.3643 76.1339 31.3899 76.139 31.4137 76.1489C31.4376 76.1588 31.4592 76.1733 31.4774 76.1916C31.4957 76.2098 31.5102 76.2314 31.5201 76.2552C31.53 76.2791 31.5351 76.3046 31.5351 76.3304C31.5351 76.3562 31.53 76.3818 31.5201 76.4056C31.5102 76.4294 31.4957 76.4511 31.4774 76.4693L29.7621 77.9068C29.7196 77.9206 29.6739 77.9206 29.6314 77.9068ZM53.2534 77.3514C53.2275 77.3475 53.2026 77.3384 53.1803 77.3246C53.158 77.3109 53.1386 77.2929 53.1234 77.2716C53.1082 77.2502 53.0974 77.2261 53.0916 77.2005C53.0859 77.1749 53.0854 77.1485 53.09 77.1227C53.2044 76.3876 53.3024 75.6361 53.4004 74.8684C53.4085 74.8193 53.4349 74.775 53.4743 74.7447C53.5137 74.7144 53.5632 74.7002 53.6128 74.705C53.638 74.7068 53.6625 74.714 53.6848 74.726C53.7071 74.738 53.7266 74.7546 53.742 74.7746C53.7574 74.7947 53.7684 74.8177 53.7743 74.8423C53.7802 74.8669 53.7808 74.8925 53.7761 74.9174C53.6944 75.6852 53.5801 76.4529 53.4657 77.188C53.4658 77.2109 53.4612 77.2336 53.452 77.2546C53.4428 77.2756 53.4292 77.2944 53.4123 77.3098C53.3953 77.3252 53.3754 77.3369 53.3536 77.344C53.3319 77.3512 53.3088 77.3537 53.2861 77.3514M33.111 75.0317C33.0638 75.0508 33.0111 75.0508 32.964 75.0317C32.9457 75.0135 32.9312 74.9918 32.9213 74.968C32.9114 74.9442 32.9063 74.9186 32.9063 74.8928C32.9063 74.867 32.9114 74.8415 32.9213 74.8176C32.9312 74.7938 32.9457 74.7722 32.964 74.754L34.712 73.3491C34.7287 73.3313 34.749 73.3171 34.7715 73.3074C34.794 73.2977 34.8181 73.2927 34.8426 73.2927C34.8671 73.2927 34.8913 73.2977 34.9138 73.3074C34.9363 73.3171 34.9565 73.3313 34.9733 73.3491C34.9911 73.3659 35.0053 73.3862 35.015 73.4086C35.0247 73.4311 35.0297 73.4553 35.0297 73.4798C35.0297 73.5042 35.0247 73.5284 35.015 73.5509C35.0053 73.5734 34.9911 73.5937 34.9733 73.6105L33.2417 75.0317C33.1996 75.0481 33.153 75.0481 33.111 75.0317ZM53.8415 72.8263C53.8163 72.8245 53.7917 72.8173 53.7694 72.8053C53.7472 72.7933 53.7277 72.7767 53.7123 72.7567C53.6969 72.7367 53.6858 72.7136 53.68 72.689C53.6741 72.6644 53.6734 72.6388 53.6781 72.614C53.6781 71.8135 53.8088 71.0621 53.8415 70.3433C53.8415 70.2913 53.8621 70.2414 53.8989 70.2046C53.9357 70.1679 53.9855 70.1472 54.0375 70.1472C54.0895 70.1472 54.1394 70.1679 54.1761 70.2046C54.2129 70.2414 54.2335 70.2913 54.2335 70.3433C54.2335 71.0457 54.1355 71.8135 54.0539 72.614C54.0498 72.6631 54.0273 72.7088 53.9909 72.7421C53.9546 72.7754 53.9071 72.7939 53.8578 72.7937M36.6232 72.2056C36.5942 72.2037 36.566 72.1954 36.5405 72.1813C36.5151 72.1672 36.4931 72.1476 36.4762 72.1239C36.458 72.1057 36.4434 72.084 36.4336 72.0602C36.4237 72.0364 36.4186 72.0108 36.4186 71.985C36.4186 71.9592 36.4237 71.9337 36.4336 71.9098C36.4434 71.886 36.458 71.8644 36.4762 71.8462L38.2569 70.4739C38.2737 70.4561 38.2939 70.442 38.3164 70.4323C38.3389 70.4226 38.3631 70.4176 38.3876 70.4176C38.412 70.4176 38.4362 70.4226 38.4587 70.4323C38.4812 70.442 38.5014 70.4561 38.5182 70.4739C38.5365 70.4922 38.551 70.5138 38.5609 70.5376C38.5708 70.5614 38.5759 70.587 38.5759 70.6128C38.5759 70.6386 38.5708 70.6641 38.5609 70.688C38.551 70.7118 38.5365 70.7335 38.5182 70.7517L36.754 72.1239C36.7115 72.1376 36.6657 72.1376 36.6232 72.1239M40.1845 69.3958C40.1531 69.3941 40.1224 69.386 40.0943 69.3719C40.0662 69.3579 40.0413 69.3382 40.0212 69.3141C39.9907 69.2742 39.9742 69.2254 39.9742 69.1752C39.9742 69.125 39.9907 69.0762 40.0212 69.0364L41.8345 67.6968C41.8704 67.6646 41.917 67.6469 41.9652 67.6469C42.0134 67.6469 42.0599 67.6646 42.0958 67.6968C42.1263 67.7367 42.1428 67.7855 42.1428 67.8357C42.1428 67.8859 42.1263 67.9346 42.0958 67.9745L40.2989 69.2977C40.2618 69.3102 40.2216 69.3102 40.1845 69.2977M54.1029 68.0725C54.0521 68.0688 54.0044 68.0469 53.9685 68.0109C53.9325 67.9749 53.9106 67.9273 53.9068 67.8765C53.9146 67.1234 53.8764 66.3706 53.7925 65.6221C53.7878 65.5973 53.7884 65.5717 53.7943 65.5471C53.8002 65.5225 53.8112 65.4994 53.8266 65.4794C53.842 65.4594 53.8615 65.4428 53.8838 65.4308C53.9061 65.4188 53.9306 65.4116 53.9558 65.4097C53.9807 65.4051 54.0062 65.4057 54.0308 65.4116C54.0554 65.4175 54.0785 65.4285 54.0986 65.4439C54.1186 65.4594 54.1352 65.4788 54.1472 65.5011C54.1592 65.5233 54.1664 65.5479 54.1682 65.5731C54.2582 66.3376 54.3018 67.1068 54.2989 67.8765C54.2951 67.9273 54.2732 67.9749 54.2373 68.0109C54.2013 68.0469 54.1536 68.0688 54.1029 68.0725ZM43.8111 66.6677C43.7585 66.6878 43.7004 66.6878 43.6478 66.6677C43.6144 66.6291 43.5961 66.5798 43.5961 66.5288C43.5961 66.4778 43.6144 66.4285 43.6478 66.3899C44.2849 65.9489 44.922 65.5241 45.5101 65.1484C45.5269 65.1306 45.5471 65.1164 45.5696 65.1067C45.5921 65.097 45.6163 65.092 45.6408 65.092C45.6653 65.092 45.6895 65.097 45.7119 65.1067C45.7344 65.1164 45.7547 65.1306 45.7715 65.1484C45.8036 65.1843 45.8214 65.2309 45.8214 65.2791C45.8214 65.3273 45.8036 65.3738 45.7715 65.4097C45.1834 65.7855 44.5626 66.2102 43.9255 66.6513C43.8886 66.6651 43.848 66.6651 43.8111 66.6513M47.5848 64.2499C47.5482 64.2456 47.513 64.2331 47.4818 64.2133C47.4507 64.1935 47.4245 64.1669 47.4051 64.1355C47.3729 64.0996 47.3552 64.0531 47.3552 64.0049C47.3552 63.9567 47.3729 63.9101 47.4051 63.8742C48.1402 63.4494 48.81 63.1064 49.3981 62.8287C49.4204 62.818 49.4448 62.8121 49.4696 62.8113C49.4943 62.8105 49.519 62.8149 49.542 62.8241C49.5651 62.8333 49.5859 62.8472 49.6033 62.8648C49.6207 62.8825 49.6342 62.9035 49.6431 62.9267C49.654 62.9503 49.6601 62.9758 49.6611 63.0017C49.6621 63.0277 49.6579 63.0535 49.6488 63.0778C49.6397 63.1022 49.6258 63.1244 49.608 63.1433C49.5902 63.1623 49.5688 63.1775 49.5451 63.1881C48.9733 63.4494 48.3199 63.8088 47.5848 64.2172H47.5031M53.3351 63.5475C53.299 63.5491 53.2635 63.5388 53.2339 63.5181C53.2044 63.4974 53.1825 63.4675 53.1717 63.4331C53.0876 63.2066 52.9502 63.0037 52.771 62.8416C52.5919 62.6795 52.3763 62.563 52.1425 62.5019C51.9637 62.4769 51.7823 62.4769 51.6034 62.5019C51.5786 62.5066 51.553 62.506 51.5284 62.5001C51.5038 62.4942 51.4808 62.4832 51.4607 62.4678C51.4407 62.4524 51.4241 62.4329 51.4121 62.4106C51.4001 62.3883 51.3929 62.3638 51.3911 62.3386C51.3864 62.3128 51.3869 62.2864 51.3927 62.2608C51.3984 62.2352 51.4092 62.2111 51.4245 62.1897C51.4397 62.1684 51.459 62.1504 51.4814 62.1367C51.5037 62.1229 51.5285 62.1138 51.5544 62.1099C51.7715 62.0845 51.9908 62.0845 52.2079 62.1099C52.5034 62.1829 52.7767 62.3266 53.0044 62.5286C53.232 62.7306 53.4072 62.985 53.5147 63.2697C53.5439 63.3071 53.5597 63.3531 53.5597 63.4004C53.5597 63.4478 53.5439 63.4938 53.5147 63.5311H53.4167" fill="#13110C"/>
<path d="M51.8513 85.226C51.8007 85.2107 51.7576 85.1772 51.7305 85.1319C51.7033 85.0866 51.694 85.0327 51.7043 84.9809C51.7043 84.9809 51.8023 84.5725 51.933 83.8537C51.9447 83.8044 51.9751 83.7616 52.0178 83.7341C52.0604 83.7067 52.112 83.6969 52.1617 83.7067C52.1873 83.7104 52.2117 83.7195 52.2334 83.7334C52.2551 83.7473 52.2736 83.7657 52.2876 83.7874C52.3015 83.8091 52.3106 83.8336 52.3143 83.8591C52.3179 83.8847 52.316 83.9107 52.3088 83.9354L52.0801 85.0626C52.0728 85.1061 52.0512 85.1458 52.0186 85.1755C51.986 85.2051 51.9443 85.2229 51.9004 85.226" fill="#13110C"/>
<path d="M36.3652 30.0905C36.3652 30.0905 25.8938 29.1593 20.7806 42.3589C15.6674 55.5584 11.4854 76.1909 11.4854 76.1909C18.804 74.8625 25.8702 72.3987 32.4282 68.8886C43.1283 63.073 44.5659 61.2107 44.5659 61.2107C44.5659 61.2107 47.8331 38.9446 44.5659 34.8279C44.5659 34.8279 45.1376 37.8828 42.6546 37.7521C40.1715 37.6214 36.3652 30.1558 36.3652 30.1558" fill="#0095D4"/>
<path d="M35.6453 59.0871L49.2043 52.7487L50.4949 55.8362C50.4949 55.8362 34.9266 73.8059 30.6465 70.5387C26.3665 67.2715 24.1121 36.2329 34.3385 35.4978C44.5649 34.7627 35.6453 59.0707 35.6453 59.0707" fill="#C74593"/>
<path d="M48.812 92.1846C49.3957 92.5438 50.0533 92.7657 50.7353 92.8337C51.4173 92.9016 52.1058 92.8137 52.7489 92.5766C52.7489 92.5766 60.6066 100.99 59.2833 101.447C57.9601 101.905 46.917 97.1671 46.966 96.2032C47.4036 94.7972 48.0067 93.4482 48.7629 92.1846" fill="#C74593"/>
<path d="M49.8094 16.4502C49.6724 19.3035 49.3614 22.1458 48.8783 24.9613C48.5691 27.098 47.745 29.1276 46.4769 30.875C46.1373 31.3476 45.6815 31.7246 45.1536 31.9695C44.6001 32.1197 44.0138 32.0969 43.4735 31.9042C42.9333 31.7115 42.4649 31.358 42.1315 30.8913C41.391 29.8987 40.878 28.7554 40.6286 27.5424C39.9553 24.9473 39.6853 22.264 39.8281 19.5867" fill="#E3E3E3"/>
<path d="M49.8094 16.4505C49.2866 13.1833 47.3263 9.3443 40.8246 10.5368C29.9284 12.5462 34.0124 22.9523 34.0124 22.9523C34.4045 25.9581 38.1291 27.7551 38.1291 27.7551C45.317 26.5789 48.9926 18.4598 49.8094 16.4505Z" fill="#142B2A"/>
<path d="M34.2402 15.2893C30.973 14.5541 27.281 16.5308 24.4385 18.8995C20.0115 22.6078 16.6789 27.4106 12.7093 31.609C9.44205 35.0559 5.55406 38.4865 4.54122 42.8809C4.11519 45.0875 4.38931 47.3721 5.32532 49.4153C6.04495 51.3258 7.35848 52.9551 9.07278 54.0636C10.7871 55.1722 12.8118 55.7016 14.8493 55.574C16.5973 55.2717 18.2563 54.5842 19.7057 53.5613C21.1552 52.5385 22.3589 51.206 23.2297 49.6604C24.8961 46.6743 25.6673 43.2715 25.4514 39.8587C25.2555 38.149 25.2555 36.4225 25.4514 34.7128C26.2612 31.7125 28.0563 29.0715 30.5482 27.2146C33.6848 24.6335 37.6218 22.6078 39.4024 19.0465C39.7302 18.5255 39.9041 17.9224 39.9041 17.3067C39.9041 16.6911 39.7302 16.088 39.4024 15.5669C39.2227 15.3709 38.9613 15.1586 38.9776 14.8809" fill="#142B2A"/>
<path d="M47.5547 50.8377L62.1755 35.7432L67.4031 42.8004L56.0168 55.5752L47.5547 50.8377Z" fill="#9BCEA4"/>
<path d="M49.1895 52.8138C49.1895 52.8138 51.5418 48.9912 52.1953 48.9912C52.8487 48.9912 51.9503 51.1802 51.9503 51.1802C53.413 50.3706 54.9181 49.6399 56.459 48.9912C56.8674 48.9912 54.0086 51.5723 54.0086 51.5723C54.0086 51.5723 56.8674 49.5956 57.0471 49.9387C57.2268 50.2817 54.3843 52.3891 54.3843 52.3891C54.3843 52.3891 56.6387 51.1312 56.6387 51.605C56.6387 52.0787 54.0086 53.3529 54.0086 53.3529C54.0086 53.3529 55.6422 53.0589 55.6422 53.3529C53.9974 54.3463 52.2831 55.2198 50.5127 55.9667L49.1895 52.8138Z" fill="#0095D4"/>
<path d="M67.4036 42.8002L66.1294 35.0732L63.5156 37.5564L67.4036 42.8002Z" fill="#C74593"/>
<path d="M46.9494 27.247C46.7323 27.272 46.5131 27.272 46.296 27.247C46.2704 27.2434 46.246 27.2343 46.2243 27.2203C46.2026 27.2064 46.1841 27.1879 46.1701 27.1662C46.1562 27.1446 46.1471 27.1201 46.1434 27.0946C46.1398 27.0691 46.1417 27.043 46.1489 27.0183C46.1508 26.9931 46.158 26.9685 46.17 26.9462C46.182 26.924 46.1985 26.9045 46.2186 26.8891C46.2386 26.8737 46.2617 26.8627 46.2863 26.8568C46.3109 26.8509 46.3365 26.8502 46.3613 26.8549C46.7849 26.9614 47.2282 26.9614 47.6518 26.8549C47.9047 25.4179 48.0684 23.9667 48.142 22.5095C48.144 22.4837 48.1511 22.4586 48.1629 22.4356C48.1747 22.4126 48.191 22.3922 48.2107 22.3755C48.2304 22.3588 48.2533 22.3461 48.278 22.3383C48.3026 22.3305 48.3285 22.3276 48.3543 22.3298C48.3793 22.3297 48.4041 22.3349 48.4271 22.3449C48.45 22.3549 48.4706 22.3697 48.4875 22.3881C48.5044 22.4066 48.5173 22.4284 48.5253 22.4521C48.5333 22.4758 48.5363 22.5009 48.534 22.5259C48.4585 23.9953 48.2839 25.458 48.0112 26.9039C48.0285 26.9737 48.0285 27.0466 48.0112 27.1163C47.9423 27.1923 47.8506 27.2439 47.7499 27.2633C47.488 27.3281 47.2192 27.361 46.9494 27.3613" fill="#142B2A"/>
<path d="M46.6878 24.34H46.4917C46.4585 24.3268 46.4283 24.307 46.403 24.2817C46.3777 24.2564 46.3579 24.2262 46.3447 24.193C46.3447 24.193 46.3447 24.1113 46.3447 24.0623V23.9316C46.3615 23.8784 46.389 23.8292 46.4255 23.7871C46.4621 23.7449 46.5069 23.7107 46.5571 23.6865C46.6052 23.6621 46.6584 23.6494 46.7123 23.6494C46.7662 23.6494 46.8194 23.6621 46.8675 23.6865C46.9164 23.7142 46.959 23.7518 46.9928 23.7968C47.0265 23.8418 47.0506 23.8932 47.0635 23.9479C47.0707 24.0075 47.0641 24.0679 47.0443 24.1246C47.0245 24.1812 46.9919 24.2326 46.9492 24.2746C46.8812 24.3327 46.7933 24.362 46.7041 24.3563" fill="#142B2A"/>
<path d="M46.3633 29.6816C45.826 29.5846 45.34 29.3012 44.9911 28.8811C44.9739 28.8618 44.9607 28.8393 44.9523 28.8149C44.9438 28.7905 44.9402 28.7647 44.9417 28.7389C44.9448 28.6868 44.9684 28.6381 45.0074 28.6034C45.0464 28.5687 45.0976 28.551 45.1496 28.5541C45.2017 28.5571 45.2505 28.5808 45.2851 28.6198C45.5752 28.9711 45.9803 29.2084 46.4286 29.2895C46.478 29.3013 46.5208 29.3316 46.5482 29.3742C46.5756 29.4169 46.5855 29.4685 46.5757 29.5182C46.5684 29.5617 46.5468 29.6015 46.5142 29.6311C46.4816 29.6607 46.4399 29.6785 46.396 29.6816" fill="#142B2A"/>
<path d="M48.3391 22.5758H48.2247C47.6901 22.1829 47.0859 21.8946 46.4441 21.7263C46.3935 21.7111 46.3504 21.6775 46.3232 21.6322C46.296 21.5869 46.2867 21.5331 46.2971 21.4813C46.3123 21.4307 46.3459 21.3876 46.3912 21.3604C46.4365 21.3332 46.4903 21.3239 46.5421 21.3343C47.2229 21.5248 47.8645 21.8345 48.4371 22.2491C48.4716 22.2718 48.498 22.3049 48.5126 22.3435C48.5271 22.3822 48.5292 22.4244 48.5183 22.4643C48.5074 22.5041 48.4842 22.5395 48.452 22.5654C48.4199 22.5913 48.3804 22.6064 48.3391 22.6085" fill="#142B2A"/>
<path d="M37.23 11.9078C38.1618 12.6163 39.3243 12.9519 40.4903 12.8492C41.6563 12.7465 42.7422 12.2128 43.5358 11.3524L44.8753 1.55078L42.0492 5.34076L40.3012 1.74681L38.3082 5.99419L35.4004 2.23692L37.23 11.9078Z" fill="#C74593"/>
<path d="M34.5994 0.751145C34.5008 0.824538 34.4286 0.927734 34.3933 1.04543C34.3579 1.16313 34.3615 1.28906 34.4034 1.40458C34.4677 1.56201 34.5753 1.69794 34.7138 1.79663C34.7862 1.85134 34.8626 1.90048 34.9424 1.94365C35.0124 1.95917 35.0849 1.95917 35.1548 1.94365C35.3145 1.92904 35.4641 1.85898 35.5775 1.74558C35.6909 1.63217 35.761 1.48263 35.7756 1.32292C35.7787 1.18501 35.7429 1.04901 35.6724 0.930469C35.6018 0.811933 35.4994 0.715633 35.3767 0.652584C35.254 0.589536 35.116 0.562265 34.9786 0.573915C34.8411 0.585565 34.7097 0.635642 34.5994 0.718441" fill="#C74593"/>
<path d="M45.7913 0.277352C45.8846 0.351238 45.9533 0.451702 45.9883 0.565456C46.0233 0.67921 46.0229 0.800924 45.9873 0.914482C45.9114 1.06943 45.7993 1.20387 45.6606 1.30653C45.5977 1.37373 45.5191 1.42425 45.4319 1.45355C45.3675 1.46947 45.3002 1.46947 45.2359 1.45355C45.0733 1.44262 44.9198 1.37416 44.8031 1.26042C44.6864 1.14667 44.6139 0.995056 44.5987 0.832772C44.5963 0.693426 44.6336 0.556264 44.7062 0.437282C44.7787 0.3183 44.8836 0.222384 45.0086 0.160744C45.1336 0.0991028 45.2735 0.0742964 45.4121 0.0891536C45.5507 0.104011 45.6822 0.157959 45.7913 0.244697" fill="#C74593"/>
<path d="M40.9383 0.441106C40.909 0.324686 40.8447 0.220033 40.7542 0.141186C40.6637 0.0623387 40.5512 0.0130428 40.4319 0C40.2642 0.00898344 40.1014 0.0595507 39.9581 0.147069C39.8755 0.19205 39.7987 0.246866 39.7294 0.310389C39.6819 0.363805 39.6433 0.424497 39.6151 0.490112C39.5642 0.645309 39.5689 0.813364 39.6286 0.965418C39.6882 1.11747 39.7989 1.24404 39.9417 1.32327C40.4645 1.60098 41.069 0.996533 40.9383 0.441106Z" fill="#C74593"/>
</svg>
