<svg width="77" height="104" viewBox="0 0 77 104" fill="none" xmlns="http://www.w3.org/2000/svg">
<path d="M22.2275 62.5545C27.8624 57.3075 33.6401 51.9584 40.6021 48.9164C48.1532 45.6665 56.6397 45.3247 64.4277 47.9568C66.3314 48.5235 68.0782 49.5228 69.5318 50.8764C70.9012 52.494 71.9352 54.3678 72.5738 56.3887C74.2706 60.2188 75.4581 64.2548 76.1058 68.3935C76.7442 72.5756 75.718 76.8414 73.2475 80.2757C67.1227 87.9726 53.8726 85.5431 47.6048 93.1175C46.6662 94.5251 45.5926 95.8379 44.3994 97.0374C41.6841 99.2219 37.7846 98.6094 34.4976 97.5478C29.811 96.0261 25.379 93.8101 21.3496 90.9738" fill="#0095D4"/>
<path d="M1.93399 103.306C6.56847 102.734 10.8967 99.978 15.5516 100.264C19.1448 100.488 22.4523 102.51 26.0455 102.591C26.3719 102.612 26.6991 102.612 27.0254 102.591L34.8653 81.3584L11.5296 72.4365L0.0761719 103.367C0.75451 103.444 1.43945 103.444 2.11779 103.367" fill="#9BCEA4"/>
<path d="M32.822 87.0139C35.2811 86.2857 37.5904 85.1241 39.6411 83.584H31.4746L32.822 87.0139Z" fill="#9BCEA4"/>
<path d="M47.1155 83.5836H23.9227C22.5436 83.5568 21.231 82.9859 20.2711 81.9954C19.3112 81.0049 18.7818 79.6751 18.7982 78.2958V20.028C18.7818 18.6488 19.3112 17.319 20.2711 16.3285C21.231 15.3379 22.5436 14.7671 23.9227 14.7402H47.1155C47.7992 14.7509 48.4741 14.8961 49.1016 15.1676C49.7292 15.4391 50.2972 15.8316 50.773 16.3227C51.2489 16.8137 51.6234 17.3936 51.8751 18.0294C52.1268 18.6652 52.2508 19.3443 52.24 20.028V78.2958C52.2508 78.9795 52.1268 79.6587 51.8751 80.2945C51.6234 80.9303 51.2489 81.5102 50.773 82.0012C50.2972 82.4922 49.7292 82.8848 49.1016 83.1563C48.4741 83.4278 47.7992 83.573 47.1155 83.5836Z" fill="#142B2A"/>
<path d="M52.2197 63.7186C52.2197 63.7186 54.6901 63.5553 54.6901 66.5769C54.6916 67.2688 54.442 67.9377 53.9877 68.4596C53.5334 68.9815 52.9052 69.3208 52.2197 69.4147V63.7186Z" fill="#CA5098"/>
<path d="M34.8651 9.82018C34.8329 9.82018 34.8011 9.81387 34.7714 9.80155C34.7417 9.78924 34.7146 9.77116 34.6919 9.74841C34.6691 9.72566 34.6511 9.69869 34.6388 9.66897C34.6265 9.63924 34.6201 9.60737 34.6201 9.5752V0.244984C34.6201 0.180008 34.6459 0.117721 34.6919 0.0717757C34.7378 0.0258303 34.8001 0 34.8651 0C34.9301 0 34.9924 0.0258303 35.0383 0.0717757C35.0843 0.117721 35.1101 0.180008 35.1101 0.244984V9.63644C35.1101 9.70142 35.0843 9.76371 35.0383 9.80965C34.9924 9.8556 34.9301 9.88143 34.8651 9.88143" fill="#13110C"/>
<path d="M56.4876 23.9263C56.4352 23.9263 56.3839 23.9108 56.3403 23.8818C56.2967 23.8527 56.2627 23.8114 56.2425 23.763C56.2204 23.6977 56.2229 23.6265 56.2491 23.5627C56.2754 23.4989 56.3238 23.4468 56.3854 23.4159L68.6352 18.3527C68.6976 18.3317 68.7657 18.3347 68.8261 18.3611C68.8864 18.3876 68.9349 18.4355 68.9619 18.4956C68.975 18.5263 68.9816 18.5594 68.9815 18.5928C68.9813 18.6262 68.9743 18.6592 68.9609 18.6898C68.9475 18.7204 68.928 18.7479 68.9036 18.7707C68.8792 18.7935 68.8504 18.811 68.819 18.8223L56.5693 23.9059" fill="#13110C"/>
<path d="M53.4424 13.1271C53.4167 13.1384 53.3889 13.1442 53.3608 13.1442C53.3327 13.1442 53.3049 13.1384 53.2792 13.1271C53.2563 13.1043 53.2382 13.0773 53.2258 13.0475C53.2135 13.0178 53.207 12.9858 53.207 12.9536C53.207 12.9213 53.2135 12.8894 53.2258 12.8596C53.2382 12.8299 53.2563 12.8028 53.2792 12.7801L59.404 5.45066C59.4535 5.40325 59.5192 5.37677 59.5877 5.37677C59.6562 5.37677 59.7221 5.40325 59.7715 5.45066C59.7944 5.47342 59.8125 5.50045 59.8248 5.53023C59.8372 5.56001 59.8435 5.59194 59.8435 5.62418C59.8435 5.65643 59.8372 5.68836 59.8248 5.71814C59.8125 5.74792 59.7944 5.77494 59.7715 5.7977L53.6467 13.1271C53.6143 13.1406 53.5796 13.1475 53.5446 13.1475C53.5096 13.1475 53.4748 13.1406 53.4424 13.1271Z" fill="#13110C"/>
<path d="M44.604 10.2896C44.5408 10.2705 44.4868 10.2286 44.4529 10.1719C44.4189 10.1153 44.4072 10.0481 44.4202 9.98335L46.4618 1.16354C46.4657 1.12919 46.4774 1.09617 46.4961 1.06709C46.5148 1.03801 46.5399 1.01366 46.5695 0.995876C46.5991 0.978096 46.6325 0.967388 46.6669 0.964599C46.7014 0.961809 46.736 0.967021 46.7681 0.979801C46.829 1.0024 46.8803 1.04501 46.9137 1.10067C46.9471 1.15633 46.9605 1.22171 46.9518 1.28603L44.9102 10.1058C44.9002 10.1618 44.8694 10.2118 44.8239 10.2459C44.7785 10.28 44.7217 10.2956 44.6652 10.2896" fill="#13110C"/>
<path d="M12.5902 23.9273H12.4064L0.15673 18.8437C0.0966036 18.8167 0.0486913 18.7683 0.0222753 18.7079C-0.00414071 18.6476 -0.00718566 18.5795 0.0138018 18.517C0.0407885 18.4569 0.0892479 18.4089 0.149627 18.3825C0.210007 18.3561 0.278057 18.3531 0.340531 18.3741L12.5902 23.4374C12.6243 23.4482 12.6556 23.4663 12.682 23.4906C12.7083 23.5148 12.7289 23.5445 12.7425 23.5775C12.7561 23.6106 12.7623 23.6463 12.7607 23.682C12.7591 23.7178 12.7496 23.7527 12.733 23.7844C12.7143 23.8297 12.6835 23.869 12.6438 23.8978C12.6042 23.9266 12.5574 23.9439 12.5085 23.9478" fill="#13110C"/>
<path d="M15.613 13.1273C15.5807 13.1408 15.546 13.1477 15.511 13.1477C15.4759 13.1477 15.4411 13.1408 15.4088 13.1273L9.28394 5.79789C9.2611 5.77513 9.2431 5.7481 9.23073 5.71832C9.21836 5.68854 9.21191 5.65661 9.21191 5.62437C9.21191 5.59212 9.21836 5.56019 9.23073 5.53041C9.2431 5.50063 9.2611 5.47361 9.28394 5.45085C9.33336 5.40343 9.39925 5.37695 9.46774 5.37695C9.53623 5.37695 9.60212 5.40343 9.65154 5.45085L15.7764 12.7803C15.7992 12.803 15.8174 12.83 15.8297 12.8598C15.8421 12.8896 15.8484 12.9215 15.8484 12.9538C15.8484 12.986 15.8421 13.0179 15.8297 13.0477C15.8174 13.0775 15.7992 13.1045 15.7764 13.1273C15.751 13.1399 15.723 13.1465 15.6947 13.1465C15.6663 13.1465 15.6384 13.1399 15.613 13.1273Z" fill="#13110C"/>
<path d="M24.4505 10.2906C24.394 10.2967 24.3372 10.2811 24.2917 10.247C24.2463 10.2129 24.2155 10.1628 24.2055 10.1069L22.1639 1.28709C22.1564 1.22017 22.1728 1.15277 22.2101 1.09675C22.2475 1.04072 22.3033 0.999681 22.368 0.980861C22.3989 0.971747 22.4314 0.969371 22.4633 0.973945C22.4952 0.978518 22.5258 0.989908 22.5529 1.00734C22.58 1.02477 22.603 1.04787 22.6205 1.075C22.6379 1.10214 22.6493 1.13268 22.6539 1.1646L24.6955 9.98441C24.7083 10.0165 24.7135 10.0511 24.7107 10.0855C24.7079 10.12 24.6972 10.1533 24.6794 10.183C24.6616 10.2126 24.6372 10.2378 24.6081 10.2564C24.579 10.2751 24.546 10.2868 24.5117 10.2906" fill="#13110C"/>
<path d="M45.6855 80.4399H25.2693C24.3036 80.4238 23.3836 80.0261 22.7103 79.3336C22.037 78.6412 21.6651 77.7104 21.676 76.7446V21.4576C21.6651 20.5243 22.0241 19.6246 22.6744 18.9552C23.3247 18.2857 24.2136 17.9009 25.1468 17.8848H45.7468C46.2097 17.8901 46.667 17.9869 47.0923 18.1696C47.5177 18.3523 47.9027 18.6172 48.2253 18.9493C48.5479 19.2813 48.8015 19.6739 48.9718 20.1043C49.1421 20.5348 49.2257 20.9947 49.2176 21.4576V76.7446C49.2285 77.7104 48.8566 78.6412 48.1833 79.3336C47.51 80.0261 46.59 80.4238 45.6243 80.4399" fill="#0095D4"/>
<path d="M49.5207 43.4665C49.1863 43.3096 48.8269 43.2128 48.459 43.1807C48.0294 43.1867 47.6128 43.3281 47.2682 43.5847C46.9236 43.8412 46.6687 44.2 46.5398 44.6098C46.2341 45.419 46.2341 46.3118 46.5398 47.121C47.1586 48.6658 48.3305 49.925 49.8269 50.653C50.4259 50.8955 50.9891 51.2183 51.5011 51.6126C51.9639 52.0427 52.277 52.6096 52.3945 53.2304C52.5121 53.8512 52.4279 54.4934 52.1543 55.0629C52.7464 55.3487 53.3794 54.8383 53.8081 54.3483C54.4642 53.5749 55.0452 52.7409 55.5435 51.8575C55.9923 51.1226 56.2518 50.2879 56.2988 49.428C56.2988 46.6922 51.5215 44.324 49.4595 43.4665" fill="#CA5098"/>
<path d="M52.2197 55.0622V51.9997L53.3222 51.7139L53.2201 54.123L52.5668 54.9601L52.2197 55.0622Z" fill="#CA5098"/>
<path d="M49.5647 34.1356C49.2366 33.9814 48.8844 33.8847 48.5235 33.8497C48.1025 33.8571 47.6941 33.9945 47.3542 34.243C47.0142 34.4915 46.7595 34.8391 46.6248 35.2381C46.3282 36.0489 46.3282 36.9384 46.6248 37.7492C47.2362 39.2705 48.3939 40.5083 49.8709 41.22C50.4588 41.4637 51.0142 41.7791 51.5246 42.1591C51.9852 42.5866 52.2956 43.1513 52.4096 43.7692C52.5236 44.3872 52.4352 45.0253 52.1575 45.589C52.7496 45.8545 53.3826 45.3645 53.8113 44.8745C54.4521 44.1058 55.0193 43.2787 55.5058 42.4041C55.9593 41.6876 56.213 40.863 56.2408 40.0155C56.2408 37.3205 51.5451 34.9727 49.5034 34.1356" fill="#CA5098"/>
<path d="M52.2197 45.5887V42.5671L53.3018 42.2812L53.2201 44.6495L52.5668 45.4866L52.2197 45.5887Z" fill="#CA5098"/>
<path d="M50.136 53.6738C49.8762 53.5399 49.5908 53.4633 49.299 53.4492C48.9681 53.4603 48.6484 53.5716 48.3822 53.7685C48.116 53.9654 47.916 54.2385 47.8086 54.5517C47.5534 55.2083 47.5534 55.9367 47.8086 56.5933C48.3057 57.7872 49.2199 58.7595 50.381 59.3291C50.8442 59.5213 51.2828 59.768 51.6876 60.0641C52.041 60.4055 52.2785 60.8492 52.3664 61.3327C52.4543 61.8162 52.3882 62.315 52.1776 62.759C52.6267 62.9836 53.1372 62.5957 53.4638 62.2078C53.977 61.6082 54.4285 60.9584 54.8114 60.2682C55.159 59.6998 55.3622 59.055 55.4034 58.39C55.4034 56.3483 51.6877 54.4088 50.0952 53.7554" fill="#CA5098"/>
<path d="M52.2197 62.6771V60.3088L53.0772 60.0842L52.9956 61.942L52.5056 62.5954L52.2197 62.6771Z" fill="#CA5098"/>
<path d="M23.249 39.2198C23.249 39.2198 4.18023 51.4696 6.916 71.2324C9.65177 90.9953 32.8242 87.0141 32.8242 87.0141C32.8242 87.0141 32.5588 66.4346 18.8391 64.3726V50.9387C18.8391 50.9387 28.2306 43.6501 23.3103 39.2198" fill="#CA5098"/>
<path d="M34.845 34.0127L23.5957 54.3268L46.5435 54.1839L34.845 34.0127Z" fill="white"/>
<path d="M33.5367 51.592C33.2364 51.2267 33.0723 50.7685 33.0723 50.2956C33.0723 49.8227 33.2364 49.3644 33.5367 48.9991C33.707 48.8182 33.9128 48.674 34.1411 48.5757C34.3693 48.4774 34.6153 48.4269 34.8638 48.4275C35.1003 48.4171 35.3363 48.4552 35.5575 48.5395C35.7787 48.6238 35.9804 48.7524 36.15 48.9175C36.4787 49.2691 36.6615 49.7325 36.6615 50.2139C36.6615 50.6953 36.4787 51.1587 36.15 51.5103C35.9804 51.6754 35.7787 51.804 35.5575 51.8883C35.3363 51.9726 35.1003 52.0107 34.8638 52.0003C34.6245 52.0088 34.3859 51.9698 34.1616 51.8857C33.9374 51.8016 33.7319 51.6741 33.5571 51.5103M36.4766 40.9756L36.3134 47.7946H33.4142L33.251 40.9756H36.4766Z" fill="#142B2A"/>
</svg>
