<svg width="95" height="103" viewBox="0 0 95 103" fill="none" xmlns="http://www.w3.org/2000/svg">
<path d="M66.5289 14.2845C65.2998 11.6436 63.4766 9.32269 61.2019 7.50322C53.8813 1.22847 40.1553 1.5389 32.9981 2.20886L7.70307 5.47696C6.26003 5.52382 4.87169 6.04015 3.7487 6.9476C2.82855 8.05299 2.36137 9.466 2.44138 10.902C2.44138 15.8042 4.79441 20.5592 4.07543 25.396C3.24207 30.8538 -1.52936 36.0174 0.496858 41.1483C2.24529 45.5929 7.88286 46.5407 12.5399 46.6224C25.8868 46.5789 39.2184 45.7166 52.4597 44.0406C55.3789 43.7862 58.2813 43.3661 61.1529 42.7824C62.4097 42.5941 63.5939 42.0752 64.5844 41.279C65.8713 39.7229 66.5609 37.7587 66.5289 35.7396C66.8067 32.8637 67.1007 30.0041 67.3949 27.1281C67.8197 22.8142 68.2283 18.2552 66.5452 14.2682" fill="#CA5098"/>
<path d="M69.8797 4.59375C69.4715 6.12544 69.1927 7.68872 69.0463 9.26711C68.9074 10.8577 69.1657 12.458 69.798 13.9242C69.965 14.3441 70.228 14.719 70.566 15.0189C70.9343 15.2548 71.3624 15.3801 71.7997 15.3801C72.237 15.3801 72.6652 15.2548 73.0334 15.0189C73.7607 14.5286 74.3557 13.8663 74.7655 13.0908C75.7429 11.4745 76.4287 9.69909 76.7917 7.84549" fill="#E3E3E3"/>
<path d="M75.2226 11.9491L75.6147 11.7693L76.5298 10.6254V9.66136L74.9447 9.43262L73.4905 10.0045L73.4414 11.7203" fill="#E3E3E3"/>
<path d="M62.7376 46.4441C62.7376 46.4441 62.1004 75.5466 66.643 95.7761H69.2738L75.81 56.0197L73.5223 44.3525L62.7376 46.4441Z" fill="#0095D4"/>
<path d="M69.2754 48.7799C72.9611 65.4877 79.6016 81.4027 88.884 95.7752H92.8057L81.0569 45.6426L69.2754 48.7799Z" fill="#CA5098"/>
<path d="M70.1744 44.0909L70.5993 41.0352L81.8089 37.522L81.3514 32.7016L81.2206 31.2473L79.2108 27.3582L75.9427 15.4133C75.9427 15.4133 74.3086 20.2174 71.1386 20.3155C67.9685 20.4135 69.2594 15.4133 69.2594 15.4133C69.2594 15.4133 57.6903 18.0605 51.056 27.4889L44.9447 14.9395L42.7715 16.0996C42.7715 16.0996 45.1245 33.3552 49.5691 34.6134C54.0137 35.8716 64.4226 29.0413 64.4226 29.0413L62.7886 46.4603C62.7886 46.4603 65.8442 49.3362 73.0177 48.7153C80.1911 48.0943 82.6095 45.921 82.6095 45.921L82.3808 43.3392C78.4114 44.3838 74.2764 44.6447 70.2071 44.1073" fill="#9BCEA4"/>
<path d="M75.9424 15.4131L79.864 16.8511C78.6175 16.2201 77.3013 15.7375 75.9424 15.4131Z" fill="#9BCEA4"/>
<path d="M81.2203 31.247L79.8804 16.8511H79.864L75.9424 15.4131L79.2105 27.358L81.2203 31.247Z" fill="#9BCEA4"/>
<path d="M90.1091 32.6682C90.0529 29.3391 89.0647 26.0923 87.2566 23.2964C85.4486 20.5005 82.893 18.2675 79.8799 16.8506L81.2198 31.2466L84.0958 36.8187L81.808 37.5213L82.3473 43.3385C86.6612 41.9823 90.4032 39.0083 90.1091 32.6682Z" fill="#0095D4"/>
<path d="M70.5997 41.0837L70.1748 44.1394C74.2432 44.6775 78.3773 44.4223 82.3485 43.3877L81.8092 37.5705L70.5997 41.0837Z" fill="#0095D4"/>
<path d="M48.9648 31.5893L53.3277 42.6355L69.1944 42.7499L65.5504 31.3115L48.9648 31.5893Z" fill="#142B2A"/>
<path d="M69.1936 42.7501L72.4617 40.4298L68.4746 40.4952L69.1936 42.7501Z" fill="white"/>
<path d="M65.0283 42.7183C66.5921 43.6239 68.3684 44.0976 70.1755 44.0909L70.486 41.8359L69.2768 42.7183H65.0283Z" fill="#CA5098"/>
<path d="M70.4831 41.8348C70.4831 41.8348 69.4373 40.4785 69.2412 40.6746C69.2475 41.4483 69.3574 42.2177 69.568 42.9623L70.4014 42.1289L70.4831 41.8348Z" fill="#CA5098"/>
<path d="M66.0071 96.9033C66.0071 96.9033 61.1866 99.3053 61.2847 99.9916C61.2847 100.269 62.1344 100.351 63.0658 100.351C64.945 100.253 66.8405 100.122 68.7033 99.91C68.8192 99.9076 68.9321 99.8737 69.0301 99.8119C69.0789 99.7497 69.1124 99.677 69.1281 99.5995C69.3048 98.7619 69.3761 97.9056 69.3405 97.0504C69.3405 97.0504 67.2326 96.9033 66.0724 96.9033" fill="#CA5098"/>
<path d="M93.1825 96.6411C93.1825 96.6411 93.0028 97.0986 92.9374 97.3928C92.872 97.6869 92.9374 97.6379 92.9374 97.6379C92.4657 97.3899 91.9489 97.2399 91.4177 97.1967H91.0747L90.7642 97.3111C90.3397 97.5875 90.0091 97.9864 89.8164 98.4549C89.8164 98.4549 92.2838 103.504 93.9669 102.9C95.3885 102.409 93.9669 98.3896 93.5257 97.017C93.4113 96.7719 93.3133 96.5921 93.2153 96.6085" fill="#CA5098"/>
<path d="M9.43652 24.4648C9.43652 24.4648 10.2209 27.2264 14.3387 27.0466C18.4565 26.8669 19.0937 24.4648 19.0937 24.4648H9.43652Z" fill="white"/>
<path d="M10.2854 25.0711C10.2654 25.0656 10.2468 25.056 10.2307 25.0429C10.2147 25.0297 10.2015 25.0133 10.1923 24.9948C10.183 24.9763 10.1778 24.956 10.1769 24.9353C10.176 24.9146 10.1795 24.8939 10.1872 24.8746L10.2854 24.5637C10.2908 24.5437 10.3004 24.525 10.3136 24.509C10.3267 24.4929 10.3431 24.4799 10.3616 24.4706C10.3802 24.4613 10.4005 24.4561 10.4212 24.4552C10.4419 24.4543 10.4625 24.4578 10.4818 24.4654C10.5024 24.4727 10.5213 24.4841 10.5375 24.4988C10.5536 24.5135 10.5666 24.5313 10.5757 24.5511C10.5849 24.571 10.59 24.5924 10.5907 24.6143C10.5914 24.6361 10.5878 24.6578 10.58 24.6782L10.4818 24.9729C10.4718 25.0047 10.4524 25.0327 10.4261 25.0532C10.3997 25.0737 10.3677 25.0856 10.3344 25.0874" fill="#13110C"/>
<path d="M10.5806 24.1878C10.56 24.1805 10.5411 24.1691 10.525 24.1545C10.5089 24.1398 10.4959 24.122 10.4867 24.1022C10.4776 24.0824 10.4725 24.061 10.4718 24.0392C10.471 24.0174 10.4747 23.9957 10.4825 23.9753L10.6623 23.4034C10.6687 23.3841 10.6788 23.3662 10.6922 23.3508C10.7055 23.3355 10.7217 23.3229 10.74 23.3138C10.7582 23.3047 10.778 23.2992 10.7983 23.2978C10.8186 23.2963 10.839 23.2989 10.8583 23.3054C10.8777 23.3118 10.8955 23.322 10.9109 23.3353C10.9263 23.3487 10.9389 23.3649 10.948 23.3831C10.9571 23.4013 10.9625 23.4211 10.964 23.4415C10.9654 23.4618 10.9628 23.4821 10.9564 23.5014L10.7767 24.0897C10.7641 24.1185 10.7436 24.143 10.7175 24.1603C10.6914 24.1777 10.6609 24.1872 10.6295 24.1878M11.0054 23.0439C10.9849 23.0366 10.966 23.0253 10.9499 23.0106C10.9338 22.996 10.9207 22.9782 10.9116 22.9584C10.9025 22.9386 10.8974 22.9171 10.8966 22.8954C10.8959 22.8736 10.8996 22.8518 10.9074 22.8315L11.0871 22.2596C11.0926 22.2396 11.1021 22.221 11.1153 22.205C11.1284 22.189 11.1447 22.1759 11.1632 22.1667C11.1817 22.1574 11.202 22.1522 11.2227 22.1513C11.2433 22.1504 11.264 22.1539 11.2832 22.1616C11.3038 22.1688 11.3227 22.1801 11.3388 22.1948C11.3549 22.2095 11.3678 22.2273 11.377 22.2471C11.3861 22.2669 11.3912 22.2883 11.3919 22.3101C11.3926 22.3319 11.389 22.3536 11.3812 22.3739L11.2015 22.9459C11.1875 22.9735 11.1667 22.9971 11.1409 23.0142C11.1151 23.0314 11.0853 23.0416 11.0544 23.0439M11.4302 21.9001C11.4097 21.8928 11.3908 21.8815 11.3747 21.8668C11.3586 21.8521 11.3456 21.8343 11.3365 21.8145C11.3273 21.7947 11.3222 21.7733 11.3215 21.7516C11.3208 21.7298 11.3244 21.708 11.3322 21.6877L11.512 21.1157C11.5184 21.0964 11.5286 21.0786 11.5419 21.0632C11.5553 21.0478 11.5715 21.0352 11.5897 21.0261C11.6079 21.017 11.6277 21.0116 11.648 21.0101C11.6683 21.0087 11.6888 21.0113 11.7081 21.0177C11.7274 21.0241 11.7453 21.0343 11.7606 21.0477C11.776 21.061 11.7885 21.0772 11.7976 21.0954C11.8067 21.1137 11.8123 21.1335 11.8137 21.1538C11.8151 21.1741 11.8126 21.1945 11.8061 21.2138L11.6263 21.7857C11.6188 21.8188 11.6 21.8483 11.5732 21.8691C11.5464 21.89 11.5132 21.901 11.4793 21.9001M11.8551 20.7563C11.8345 20.749 11.8156 20.7376 11.7995 20.7229C11.7834 20.7082 11.7705 20.6905 11.7613 20.6707C11.7522 20.6509 11.7471 20.6295 11.7464 20.6077C11.7456 20.5859 11.7493 20.5642 11.757 20.5438L11.9368 19.9719C11.9498 19.9329 11.9778 19.9007 12.0146 19.8823C12.0513 19.8639 12.0939 19.8608 12.1329 19.8738C12.172 19.8869 12.2041 19.9148 12.2225 19.9516C12.2409 19.9884 12.244 20.031 12.231 20.07L12.0512 20.6582C12.0372 20.6858 12.0163 20.7094 11.9905 20.7266C11.9648 20.7438 11.935 20.754 11.9042 20.7563M12.28 19.6124C12.26 19.607 12.2414 19.5974 12.2254 19.5843C12.2094 19.5712 12.1964 19.5548 12.1871 19.5363C12.1778 19.5178 12.1726 19.4975 12.1717 19.4769C12.1709 19.4562 12.1743 19.4356 12.1819 19.4163L12.3616 18.8444C12.3681 18.8251 12.3783 18.8073 12.3917 18.7919C12.405 18.7765 12.4212 18.7639 12.4394 18.7548C12.4576 18.7457 12.4775 18.7403 12.4978 18.7388C12.5181 18.7374 12.5384 18.7399 12.5577 18.7464C12.577 18.7528 12.5949 18.763 12.6103 18.7763C12.6257 18.7897 12.6383 18.8059 12.6474 18.8241C12.6565 18.8423 12.6619 18.8621 12.6633 18.8824C12.6648 18.9027 12.6622 18.9232 12.6558 18.9425L12.476 19.5144C12.4661 19.5461 12.4467 19.5742 12.4204 19.5946C12.3941 19.615 12.3623 19.6269 12.329 19.6288M12.7048 18.4849C12.6843 18.4777 12.6654 18.4663 12.6493 18.4516C12.6332 18.4369 12.6201 18.4192 12.611 18.3994C12.6018 18.3796 12.5968 18.3581 12.5961 18.3363C12.5954 18.3146 12.599 18.2929 12.6068 18.2725L12.7865 17.7006C12.7929 17.6813 12.8031 17.6634 12.8164 17.648C12.8298 17.6326 12.8461 17.6201 12.8643 17.611C12.8825 17.6019 12.9022 17.5964 12.9225 17.595C12.9429 17.5935 12.9633 17.5961 12.9826 17.6025C13.0019 17.609 13.0198 17.6192 13.0351 17.6325C13.0505 17.6459 13.0631 17.6621 13.0722 17.6803C13.0814 17.6985 13.0868 17.7183 13.0882 17.7386C13.0896 17.7589 13.0871 17.7793 13.0806 17.7986L12.9009 18.3706C12.8934 18.4037 12.8746 18.4331 12.8477 18.454C12.8209 18.4748 12.7877 18.4858 12.7538 18.4849M13.1297 17.3411C13.1097 17.3357 13.0911 17.326 13.0751 17.3129C13.0591 17.2998 13.0461 17.2835 13.0368 17.265C13.0276 17.2465 13.0223 17.2262 13.0214 17.2056C13.0205 17.1849 13.024 17.1642 13.0317 17.145L13.2277 16.5731C13.2311 16.5537 13.2388 16.5353 13.2503 16.5193C13.2617 16.5033 13.2767 16.4901 13.294 16.4807C13.3112 16.4713 13.3303 16.4658 13.35 16.4649C13.3697 16.4639 13.3893 16.4674 13.4075 16.475C13.4274 16.4805 13.446 16.4901 13.462 16.5032C13.478 16.5163 13.4911 16.5326 13.5003 16.5511C13.5096 16.5697 13.5148 16.5899 13.5157 16.6106C13.5166 16.6313 13.5131 16.6519 13.5055 16.6711L13.3258 17.2431C13.3158 17.2748 13.2964 17.3028 13.2701 17.3232C13.2438 17.3437 13.2119 17.3556 13.1787 17.3574M13.5546 16.2136C13.5346 16.2082 13.516 16.1986 13.5 16.1855C13.484 16.1724 13.4709 16.156 13.4616 16.1375C13.4524 16.119 13.4471 16.0987 13.4463 16.0781C13.4454 16.0574 13.4489 16.0368 13.4565 16.0175L13.6362 15.4456C13.6492 15.4066 13.6772 15.3744 13.7139 15.356C13.7507 15.3376 13.7933 15.3345 13.8323 15.3475C13.8713 15.3605 13.9036 15.3885 13.922 15.4253C13.9404 15.4621 13.9434 15.5046 13.9304 15.5436L13.7506 16.1156C13.7407 16.1473 13.7213 16.1753 13.695 16.1957C13.6687 16.2162 13.6368 16.2281 13.6035 16.2299M13.9793 15.0861C13.9594 15.0807 13.9408 15.0711 13.9248 15.058C13.9088 15.0449 13.8957 15.0285 13.8865 15.01C13.8772 14.9915 13.872 14.9712 13.8711 14.9506C13.8702 14.9299 13.8737 14.9093 13.8813 14.89L14.0774 14.3181C14.0807 14.2987 14.0884 14.2803 14.0999 14.2643C14.1114 14.2483 14.1263 14.2351 14.1436 14.2257C14.1609 14.2163 14.1801 14.2109 14.1997 14.2099C14.2194 14.2089 14.2391 14.2124 14.2572 14.2201C14.2772 14.2255 14.2957 14.2351 14.3117 14.2482C14.3277 14.2613 14.3408 14.2777 14.35 14.2962C14.3593 14.3147 14.3645 14.3349 14.3654 14.3556C14.3663 14.3763 14.3629 14.3969 14.3552 14.4161L13.7179 14.939C13.708 14.9708 13.6886 14.9988 13.6623 15.0192C13.636 15.0397 13.6041 15.0516 13.5708 15.0534" fill="#13110C"/>
<path d="M13.9651 13.894C13.9451 13.8885 13.9265 13.8789 13.9104 13.8658C13.8944 13.8526 13.8812 13.8363 13.872 13.8177C13.8627 13.7992 13.8575 13.7789 13.8566 13.7582C13.8557 13.7375 13.8592 13.7168 13.8669 13.6975L13.9651 13.3865C13.9776 13.3578 13.9981 13.3332 14.0242 13.3158C14.0503 13.2984 14.081 13.2888 14.1123 13.2883C14.1442 13.2865 14.1759 13.2951 14.2025 13.3128C14.229 13.3306 14.2491 13.3564 14.2597 13.3865L14.3579 13.6975C14.3659 13.7158 14.37 13.7354 14.3702 13.7553C14.3704 13.7752 14.3666 13.7949 14.3589 13.8132C14.3513 13.8316 14.34 13.8482 14.3257 13.8621C14.3115 13.876 14.2946 13.8868 14.2761 13.894C14.2519 13.9101 14.2233 13.9188 14.1942 13.9188C14.165 13.9188 14.1366 13.9101 14.1123 13.894C14.0806 13.9052 14.0459 13.9052 14.0141 13.894" fill="#13110C"/>
<path d="M17.7532 24.1873C17.7214 24.1891 17.6899 24.1805 17.6634 24.1628C17.6368 24.1451 17.6168 24.1193 17.6062 24.0893L17.4101 23.5173C17.4023 23.497 17.3987 23.4752 17.3995 23.4534C17.4002 23.4317 17.4052 23.4103 17.4143 23.3905C17.4234 23.3707 17.4365 23.3529 17.4526 23.3382C17.4687 23.3235 17.4876 23.3122 17.5082 23.3049C17.5274 23.2973 17.548 23.2938 17.5687 23.2947C17.5894 23.2956 17.6096 23.3008 17.6281 23.3101C17.6467 23.3193 17.663 23.3324 17.6761 23.3484C17.6892 23.3644 17.6988 23.383 17.7042 23.4029L17.9003 23.9749C17.9081 23.9952 17.9117 24.0169 17.911 24.0387C17.9103 24.0605 17.9052 24.0819 17.896 24.1017C17.8869 24.1215 17.8739 24.1393 17.8578 24.154C17.8417 24.1687 17.8228 24.18 17.8023 24.1873M17.4101 23.0434C17.3783 23.0452 17.3467 23.0367 17.3202 23.019C17.2936 23.0013 17.2736 22.9755 17.263 22.9454L17.0506 22.3735C17.0389 22.3322 17.0424 22.2881 17.0604 22.2492C17.0783 22.2102 17.1096 22.179 17.1486 22.1611C17.1679 22.1535 17.1885 22.15 17.2092 22.1509C17.2298 22.1518 17.2501 22.157 17.2686 22.1662C17.2871 22.1755 17.3035 22.1886 17.3166 22.2046C17.3297 22.2206 17.3393 22.2392 17.3447 22.2591L17.5571 22.831C17.5688 22.8723 17.5654 22.9164 17.5475 22.9554C17.5295 22.9943 17.4981 23.0256 17.4591 23.0434M17.0506 21.8996C17.0192 21.8991 16.9888 21.8896 16.9627 21.8722C16.9366 21.8548 16.9161 21.8303 16.9036 21.8016L16.7075 21.2297C16.6997 21.2093 16.696 21.1876 16.6967 21.1658C16.6975 21.144 16.7025 21.1225 16.7117 21.1028C16.7208 21.083 16.7339 21.0652 16.75 21.0505C16.7661 21.0359 16.785 21.0245 16.8055 21.0172C16.8248 21.0096 16.8454 21.0061 16.8661 21.007C16.8867 21.0079 16.907 21.0132 16.9255 21.0224C16.944 21.0317 16.9604 21.0447 16.9735 21.0607C16.9866 21.0767 16.9962 21.0953 17.0016 21.1153L17.1977 21.6872C17.2055 21.7076 17.2091 21.7293 17.2084 21.7511C17.2076 21.7729 17.2025 21.7943 17.1934 21.8141C17.1843 21.8339 17.1713 21.8516 17.1552 21.8663C17.1391 21.881 17.1202 21.8924 17.0997 21.8996M16.7075 20.7558C16.6757 20.7576 16.6441 20.749 16.6175 20.7313C16.591 20.7137 16.571 20.6878 16.5604 20.6577L16.3643 20.0858C16.3513 20.0464 16.3524 20.0037 16.3673 19.965C16.3822 19.9263 16.41 19.8939 16.446 19.8734C16.4664 19.8656 16.4881 19.862 16.5099 19.8627C16.5317 19.8634 16.5531 19.8685 16.5729 19.8777C16.5926 19.8868 16.6104 19.8998 16.6251 19.9159C16.6398 19.932 16.6511 19.9509 16.6584 19.9714L16.8545 20.5433C16.8621 20.5626 16.8657 20.5832 16.8648 20.6039C16.8639 20.6246 16.8586 20.6448 16.8493 20.6633C16.8401 20.6818 16.827 20.6982 16.811 20.7113C16.795 20.7244 16.7764 20.734 16.7565 20.7394M16.348 19.5956C16.3183 19.5966 16.2891 19.5874 16.2654 19.5695C16.2416 19.5517 16.2247 19.5263 16.2173 19.4976L16.0049 18.9093C15.994 18.8703 15.9979 18.8286 16.016 18.7924C16.0342 18.7562 16.0652 18.7279 16.1029 18.7132C16.1221 18.7056 16.1428 18.7021 16.1634 18.703C16.1841 18.7039 16.2043 18.7091 16.2228 18.7184C16.2413 18.7277 16.2576 18.7407 16.2708 18.7567C16.2839 18.7727 16.2935 18.7913 16.299 18.8113L16.4951 19.3832C16.503 19.4014 16.5072 19.421 16.5073 19.4408C16.5075 19.4607 16.5037 19.4804 16.4961 19.4987C16.4884 19.517 16.4772 19.5336 16.4629 19.5474C16.4487 19.5613 16.4319 19.5721 16.4134 19.5793M16.0211 18.4355C15.9898 18.4349 15.9593 18.4254 15.9333 18.408C15.9072 18.3906 15.8866 18.3661 15.8741 18.3374L15.678 17.7491C15.6716 17.7298 15.669 17.7094 15.6705 17.6891C15.6719 17.6688 15.6773 17.649 15.6864 17.6308C15.6955 17.6126 15.7081 17.5963 15.7235 17.583C15.7389 17.5696 15.7568 17.5595 15.7761 17.5531C15.7954 17.5466 15.8158 17.544 15.8361 17.5455C15.8564 17.5469 15.8762 17.5523 15.8944 17.5614C15.9126 17.5705 15.9289 17.5832 15.9422 17.5985C15.9556 17.6139 15.9657 17.6318 15.9722 17.6511L16.1682 18.223C16.1759 18.2423 16.1793 18.2629 16.1784 18.2836C16.1775 18.3042 16.1723 18.3244 16.163 18.343C16.1538 18.3615 16.1407 18.3778 16.1247 18.3909C16.1087 18.404 16.0902 18.4137 16.0702 18.4191M15.678 17.2752C15.6448 17.2734 15.6129 17.2615 15.5866 17.2411C15.5603 17.2206 15.5409 17.1926 15.5309 17.1608L15.3348 16.589C15.3269 16.5708 15.3228 16.5512 15.3226 16.5313C15.3224 16.5115 15.3262 16.4918 15.3339 16.4735C15.3415 16.4552 15.3527 16.4386 15.367 16.4247C15.3812 16.4109 15.398 16.4001 15.4165 16.3929C15.4358 16.3853 15.4564 16.3818 15.4771 16.3827C15.4977 16.3836 15.518 16.3888 15.5365 16.398C15.555 16.4073 15.5714 16.4204 15.5845 16.4364C15.5976 16.4524 15.6072 16.471 15.6126 16.4909L15.8088 17.0628C15.8167 17.081 15.8209 17.1006 15.8211 17.1205C15.8212 17.1403 15.8174 17.16 15.8098 17.1783C15.8022 17.1966 15.7909 17.2132 15.7767 17.2271C15.7625 17.2409 15.7455 17.2518 15.727 17.2589M15.3185 16.1151C15.2859 16.1113 15.255 16.0986 15.229 16.0784C15.2031 16.0583 15.1832 16.0314 15.1715 16.0007L14.9754 15.4288C14.969 15.4094 14.9664 15.3891 14.9678 15.3688C14.9693 15.3485 14.9747 15.3286 14.9838 15.3104C14.9929 15.2922 15.0055 15.276 15.0209 15.2627C15.0363 15.2493 15.0541 15.2391 15.0734 15.2327C15.0928 15.2262 15.1131 15.2237 15.1334 15.2252C15.1537 15.2266 15.1735 15.232 15.1917 15.2411C15.2099 15.2502 15.2262 15.2628 15.2395 15.2782C15.2528 15.2936 15.2631 15.3114 15.2695 15.3307L15.4656 15.9026C15.4776 15.9397 15.4759 15.9798 15.4609 16.0158C15.4459 16.0517 15.4187 16.0811 15.3839 16.0987M14.9918 14.9549C14.9585 14.9531 14.9266 14.9412 14.9003 14.9207C14.874 14.9003 14.8546 14.8723 14.8447 14.8405L14.6486 14.2686C14.6366 14.2315 14.6382 14.1914 14.6532 14.1554C14.6681 14.1195 14.6955 14.0901 14.7303 14.0725C14.7506 14.0647 14.7723 14.0611 14.7941 14.0618C14.8159 14.0625 14.8373 14.0676 14.8571 14.0768C14.8769 14.0859 14.8947 14.0989 14.9094 14.115C14.9241 14.1311 14.9354 14.15 14.9427 14.1706L15.1388 14.7425C15.1464 14.7617 15.1498 14.7824 15.1489 14.803C15.1481 14.8237 15.1428 14.844 15.1336 14.8625C15.1243 14.881 15.1113 14.8973 15.0953 14.9104C15.0793 14.9236 15.0607 14.9331 15.0407 14.9386" fill="#13110C"/>
<path d="M18.0646 25.0718C18.0313 25.07 17.9994 25.0581 17.9731 25.0376C17.9468 25.0171 17.9273 24.9891 17.9174 24.9573L17.8028 24.6626C17.795 24.6422 17.7914 24.6205 17.7921 24.5986C17.7928 24.5768 17.7979 24.5553 17.8071 24.5355C17.8162 24.5157 17.8292 24.4979 17.8453 24.4831C17.8615 24.4684 17.8804 24.4571 17.901 24.4498C17.9203 24.4422 17.9409 24.4387 17.9616 24.4396C17.9823 24.4405 18.0026 24.4458 18.0212 24.455C18.0397 24.4643 18.0561 24.4774 18.0692 24.4934C18.0824 24.5094 18.0919 24.528 18.0974 24.548L18.212 24.859C18.2229 24.8981 18.2188 24.9398 18.2007 24.9761C18.1826 25.0124 18.1516 25.0407 18.1138 25.0555" fill="#13110C"/>
<path d="M31.9844 24.4648C31.9844 24.4648 32.7687 27.2264 36.8865 27.0467C41.0043 26.8669 41.6417 24.4648 41.6417 24.4648H31.9844Z" fill="white"/>
<path d="M32.8511 25.0711C32.8299 25.0428 32.8184 25.0083 32.8184 24.9729C32.8184 24.9375 32.8299 24.903 32.8511 24.8746L32.9493 24.5637C32.9548 24.5437 32.9644 24.525 32.9775 24.509C32.9906 24.4929 33.007 24.4799 33.0256 24.4706C33.0441 24.4613 33.0644 24.4561 33.0851 24.4552C33.1058 24.4543 33.1265 24.4578 33.1458 24.4654C33.1848 24.4833 33.2162 24.5146 33.2342 24.5537C33.2522 24.5927 33.2557 24.6369 33.244 24.6782L33.1458 24.9729C33.134 25.0036 33.1141 25.0305 33.0881 25.0507C33.0621 25.0709 33.0311 25.0836 32.9984 25.0874" fill="#13110C"/>
<path d="M33.1303 24.1886C33.0913 24.1707 33.0599 24.1395 33.0419 24.1005C33.0239 24.0615 33.0205 24.0174 33.0322 23.9761L33.2283 23.4042C33.2337 23.3842 33.2433 23.3657 33.2564 23.3497C33.2695 23.3337 33.2859 23.3206 33.3044 23.3114C33.3229 23.3021 33.3432 23.2968 33.3638 23.296C33.3845 23.2951 33.4051 23.2985 33.4244 23.3062C33.4621 23.3209 33.493 23.3491 33.5111 23.3854C33.5293 23.4216 33.5333 23.4632 33.5224 23.5023L33.3263 24.0905C33.3158 24.1206 33.2957 24.1464 33.2692 24.1641C33.2427 24.1818 33.2111 24.1904 33.1792 24.1886M33.5551 23.0447C33.5161 23.0268 33.4847 22.9956 33.4668 22.9567C33.4488 22.9177 33.4454 22.8736 33.4571 22.8323L33.6532 22.2604C33.6586 22.2404 33.6682 22.2219 33.6813 22.2059C33.6944 22.1898 33.7108 22.1768 33.7293 22.1675C33.7478 22.1583 33.768 22.153 33.7887 22.1521C33.8094 22.1513 33.83 22.1547 33.8492 22.1624C33.8883 22.1802 33.9195 22.2115 33.9375 22.2504C33.9555 22.2894 33.959 22.3335 33.9473 22.3748L33.7512 22.9467C33.7387 22.9754 33.7181 22.9999 33.6921 23.0173C33.666 23.0347 33.6354 23.0442 33.6041 23.0447M33.98 21.9009C33.941 21.883 33.9096 21.8518 33.8916 21.8128C33.8737 21.7738 33.8703 21.7298 33.882 21.6885L34.078 21.1166C34.0835 21.0966 34.093 21.078 34.1062 21.062C34.1193 21.046 34.1356 21.033 34.1541 21.0237C34.1726 21.0144 34.1929 21.0092 34.2136 21.0083C34.2343 21.0074 34.2549 21.0109 34.2741 21.0185C34.3119 21.0332 34.3428 21.0614 34.3609 21.0977C34.379 21.1339 34.383 21.1756 34.3722 21.2146L34.1761 21.7865C34.1685 21.8196 34.1497 21.8491 34.1229 21.8699C34.0961 21.8908 34.0629 21.9018 34.029 21.9009M34.4048 20.7571C34.3658 20.7392 34.3345 20.708 34.3165 20.669C34.2985 20.63 34.295 20.5859 34.3067 20.5446L34.5028 19.9727C34.5082 19.9527 34.5179 19.9341 34.531 19.9181C34.5442 19.9021 34.5605 19.8891 34.579 19.8798C34.5975 19.8706 34.6178 19.8654 34.6384 19.8645C34.6591 19.8636 34.6798 19.867 34.699 19.8747C34.7367 19.8894 34.7676 19.9176 34.7858 19.9538C34.8039 19.9901 34.8079 20.0318 34.797 20.0708L34.6009 20.659C34.5884 20.6877 34.5679 20.7122 34.5418 20.7296C34.5157 20.747 34.4852 20.7565 34.4538 20.7571M34.8296 19.6132C34.7919 19.5985 34.761 19.5703 34.7429 19.5341C34.7248 19.4978 34.7207 19.4561 34.7316 19.4171L34.9277 18.8452C34.9341 18.8259 34.9444 18.8081 34.9577 18.7927C34.971 18.7773 34.9873 18.7647 35.0055 18.7556C35.0237 18.7465 35.0435 18.7411 35.0638 18.7396C35.0841 18.7382 35.1044 18.7407 35.1238 18.7472C35.1431 18.7536 35.1609 18.7638 35.1763 18.7771C35.1917 18.7905 35.2043 18.8067 35.2134 18.8249C35.2225 18.8431 35.2279 18.8629 35.2294 18.8832C35.2308 18.9036 35.2282 18.924 35.2218 18.9433L35.0257 19.5152C35.0158 19.5469 34.9964 19.575 34.9702 19.5954C34.9439 19.6158 34.912 19.6277 34.8787 19.6296M35.2545 18.4858C35.2155 18.4679 35.1842 18.4366 35.1662 18.3976C35.1483 18.3587 35.1448 18.3146 35.1565 18.2733L35.3525 17.7014C35.3655 17.6624 35.3936 17.6302 35.4303 17.6118C35.4671 17.5934 35.5096 17.5904 35.5486 17.6034C35.5876 17.6164 35.6199 17.6443 35.6383 17.6811C35.6567 17.7179 35.6597 17.7604 35.6467 17.7994L35.4506 18.3714C35.443 18.4045 35.4243 18.4339 35.3975 18.4548C35.3707 18.4756 35.3375 18.4866 35.3036 18.4858M35.6794 17.3419C35.6416 17.3272 35.6107 17.299 35.5926 17.2628C35.5745 17.2265 35.5705 17.1848 35.5813 17.1458L35.7774 16.5739C35.7904 16.5349 35.8183 16.5027 35.8551 16.4843C35.8919 16.4659 35.9345 16.4629 35.9735 16.4759C36.0125 16.4889 36.0448 16.5168 36.0632 16.5536C36.0815 16.5904 36.0845 16.6329 36.0715 16.6719L35.8755 17.2439C35.8655 17.2756 35.8461 17.3036 35.8198 17.324C35.7935 17.3445 35.7616 17.3564 35.7283 17.3583M36.1042 16.2144C36.0665 16.1997 36.0356 16.1715 36.0175 16.1353C35.9994 16.099 35.9953 16.0573 36.0062 16.0183L36.2023 15.4464C36.2153 15.4074 36.2432 15.3752 36.28 15.3568C36.3168 15.3384 36.3594 15.3354 36.3984 15.3484C36.4374 15.3614 36.4696 15.3893 36.488 15.4261C36.5064 15.4629 36.5094 15.5054 36.4964 15.5444L36.3003 16.1164C36.2904 16.1481 36.271 16.1761 36.2447 16.1965C36.2184 16.217 36.1865 16.2289 36.1532 16.2308M36.5291 15.0869C36.4934 15.0696 36.4645 15.041 36.4467 15.0055C36.429 14.9701 36.4235 14.9297 36.4311 14.8908L36.6272 14.3189C36.6336 14.2996 36.6437 14.2817 36.6571 14.2663C36.6704 14.251 36.6866 14.2384 36.7048 14.2293C36.7231 14.2202 36.7429 14.2147 36.7632 14.2133C36.7835 14.2118 36.8039 14.2144 36.8232 14.2209C36.8425 14.2273 36.8604 14.2375 36.8758 14.2508C36.8912 14.2642 36.9037 14.2804 36.9128 14.2986C36.9219 14.3168 36.9274 14.3366 36.9289 14.3569C36.9303 14.3773 36.9277 14.3976 36.9213 14.4169L36.7252 14.9889C36.7153 15.0206 36.6958 15.0486 36.6695 15.0691C36.6433 15.0895 36.6113 15.1014 36.5781 15.1033" fill="#13110C"/>
<path d="M36.5943 13.894C36.5701 13.867 36.5568 13.832 36.5568 13.7958C36.5568 13.7596 36.5701 13.7246 36.5943 13.6976L36.6925 13.3866C36.671 13.3812 36.6511 13.3711 36.6341 13.3569C36.6171 13.3427 36.6035 13.3249 36.5943 13.3048C36.624 13.3038 36.6532 13.313 36.677 13.3309C36.7008 13.3487 36.7179 13.3741 36.7253 13.403L36.8399 13.714C36.8475 13.7332 36.851 13.7539 36.8501 13.7746C36.8492 13.7953 36.8439 13.8156 36.8347 13.8342C36.8254 13.8527 36.8123 13.8691 36.7963 13.8822C36.7803 13.8954 36.7617 13.9049 36.7417 13.9104C36.7199 13.9252 36.6942 13.9331 36.6679 13.9331C36.6417 13.9331 36.616 13.9252 36.5943 13.9104C36.5625 13.9216 36.5279 13.9216 36.4961 13.9104" fill="#13110C"/>
<path d="M40.3193 24.1877C40.2874 24.1895 40.2558 24.1809 40.2293 24.1632C40.2028 24.1455 40.1827 24.1197 40.1721 24.0896L39.9597 23.5177C39.948 23.4764 39.9515 23.4323 39.9695 23.3934C39.9875 23.3544 40.0187 23.3232 40.0577 23.3053C40.077 23.2977 40.0976 23.2942 40.1183 23.2951C40.139 23.296 40.1592 23.3012 40.1777 23.3105C40.1962 23.3197 40.2126 23.3328 40.2257 23.3488C40.2388 23.3648 40.2484 23.3834 40.2538 23.4033L40.4663 23.9753C40.478 24.0165 40.4746 24.0607 40.4566 24.0996C40.4386 24.1386 40.4072 24.1698 40.3682 24.1877M39.8617 23.1092C39.8303 23.1087 39.7998 23.0992 39.7737 23.0818C39.7476 23.0644 39.7271 23.0399 39.7146 23.0112L39.5185 22.4392C39.5107 22.4189 39.5071 22.3972 39.5078 22.3754C39.5085 22.3536 39.5136 22.3322 39.5228 22.3124C39.5319 22.2926 39.5449 22.2748 39.561 22.2601C39.5771 22.2454 39.596 22.2341 39.6165 22.2268C39.6358 22.2192 39.6564 22.2157 39.6771 22.2166C39.6977 22.2175 39.718 22.2227 39.7365 22.232C39.755 22.2412 39.7714 22.2543 39.7845 22.2703C39.7976 22.2863 39.8072 22.3049 39.8126 22.3248L40.0088 22.8968C40.0166 22.9171 40.0202 22.9389 40.0195 22.9607C40.0187 22.9824 40.0136 23.0038 40.0045 23.0236C39.9954 23.0434 39.9823 23.0612 39.9662 23.0759C39.9501 23.0906 39.9313 23.1019 39.9107 23.1092M39.5185 21.9654C39.4867 21.9672 39.4551 21.9586 39.4286 21.9409C39.4021 21.9232 39.3821 21.8974 39.3715 21.8673L39.1754 21.2954C39.1501 21.2658 39.1361 21.2282 39.1361 21.1892C39.1361 21.1503 39.1501 21.1126 39.1754 21.083C39.1946 21.0754 39.2153 21.0719 39.2359 21.0728C39.2566 21.0737 39.2769 21.0789 39.2954 21.0881C39.3139 21.0974 39.3302 21.1105 39.3434 21.1265C39.3565 21.1425 39.366 21.1611 39.3715 21.181L39.5839 21.753C39.5956 21.7943 39.5921 21.8383 39.5741 21.8773C39.5562 21.9162 39.5249 21.9475 39.4859 21.9654M39.0774 20.8215C39.0465 20.8193 39.0167 20.809 38.9909 20.7918C38.9651 20.7746 38.9442 20.7511 38.9303 20.7235L38.7342 20.1516C38.7225 20.1103 38.726 20.0662 38.7439 20.0272C38.7619 19.9883 38.7932 19.957 38.8322 19.9391C38.8514 19.9315 38.8721 19.928 38.8928 19.9289C38.9134 19.9298 38.9337 19.9351 38.9522 19.9443C38.9707 19.9536 38.987 19.9666 39.0002 19.9826C39.0133 19.9986 39.0228 20.0172 39.0283 20.0372L39.2244 20.6091C39.2485 20.6361 39.2619 20.671 39.2619 20.7072C39.2619 20.7433 39.2485 20.7782 39.2244 20.8052M38.8322 19.6614C38.8009 19.6609 38.7703 19.6513 38.7442 19.634C38.7182 19.6166 38.6977 19.592 38.6852 19.5633L38.489 18.9751C38.476 18.9361 38.4791 18.8935 38.4975 18.8567C38.5159 18.82 38.5481 18.792 38.5871 18.779C38.6261 18.766 38.6687 18.769 38.7054 18.7874C38.7422 18.8057 38.7702 18.838 38.7832 18.877L38.9793 19.449C38.9869 19.4682 38.9904 19.4888 38.9895 19.5095C38.9886 19.5302 38.9834 19.5504 38.9741 19.5689C38.9649 19.5874 38.9518 19.6037 38.9358 19.6169C38.9198 19.63 38.9012 19.6396 38.8813 19.645M38.489 18.5012C38.4577 18.5007 38.4272 18.4911 38.4012 18.4737C38.3751 18.4564 38.3545 18.4319 38.342 18.4031L38.1296 17.8149C38.1187 17.7759 38.1227 17.7342 38.1409 17.698C38.159 17.6617 38.1899 17.6335 38.2276 17.6188C38.2469 17.6112 38.2675 17.6077 38.2882 17.6086C38.3088 17.6095 38.3291 17.6147 38.3476 17.624C38.3661 17.6332 38.3825 17.6463 38.3956 17.6623C38.4087 17.6783 38.4183 17.6969 38.4237 17.7169L38.6361 18.2887C38.647 18.3278 38.643 18.3694 38.6249 18.4057C38.6067 18.4419 38.5758 18.4702 38.5381 18.4849M38.1296 17.341C38.097 17.3372 38.0659 17.3245 38.04 17.3044C38.0141 17.2842 37.9942 17.2573 37.9825 17.2266L37.7864 16.6547C37.78 16.6354 37.7774 16.615 37.7788 16.5947C37.7803 16.5744 37.7858 16.5546 37.7949 16.5364C37.804 16.5181 37.8165 16.5019 37.8319 16.4886C37.8473 16.4752 37.8651 16.465 37.8844 16.4586C37.9037 16.4522 37.9242 16.4496 37.9445 16.4511C37.9648 16.4525 37.9846 16.4579 38.0028 16.467C38.021 16.4761 38.0373 16.4888 38.0506 16.5041C38.0639 16.5195 38.0741 16.5373 38.0805 16.5567L38.2767 17.1286C38.2843 17.1478 38.2878 17.1684 38.2869 17.1891C38.286 17.2098 38.2808 17.2301 38.2715 17.2486C38.2623 17.2671 38.2491 17.2834 38.2331 17.2965C38.2171 17.3096 38.1985 17.3192 38.1786 17.3247M37.7864 16.1809C37.7531 16.179 37.7213 16.1671 37.695 16.1466C37.6688 16.1262 37.6493 16.0982 37.6394 16.0665L37.4433 15.4945C37.4192 15.4676 37.4058 15.4327 37.4058 15.3965C37.4058 15.3603 37.4192 15.3254 37.4433 15.2985C37.4625 15.2908 37.4832 15.2873 37.5038 15.2882C37.5245 15.2891 37.5448 15.2944 37.5633 15.3036C37.5818 15.3129 37.5981 15.3259 37.6113 15.3419C37.6244 15.3579 37.6339 15.3765 37.6394 15.3965L37.8518 15.9684C37.8627 16.0074 37.8587 16.0491 37.8406 16.0854C37.8224 16.1216 37.7915 16.1498 37.7538 16.1645M37.3453 15.0206C37.3132 15.0153 37.2829 15.002 37.2572 14.982C37.2315 14.9621 37.2113 14.9361 37.1982 14.9063L37.0021 14.3344C36.9912 14.2953 36.9952 14.2537 37.0134 14.2174C37.0315 14.1812 37.0624 14.153 37.1001 14.1383C37.1194 14.1307 37.14 14.1272 37.1607 14.1281C37.1813 14.129 37.2016 14.1342 37.2201 14.1434C37.2386 14.1527 37.255 14.1658 37.2681 14.1818C37.2812 14.1978 37.2908 14.2164 37.2962 14.2363L37.4923 14.8083C37.5164 14.8352 37.5298 14.8701 37.5298 14.9063C37.5298 14.9425 37.5164 14.9774 37.4923 15.0043" fill="#13110C"/>
<path d="M17.7034 13.5823H11.0855C11.0465 13.5823 11.0091 13.5668 10.9815 13.5392C10.9539 13.5117 10.9384 13.4742 10.9384 13.4352C10.9361 13.4146 10.9382 13.3937 10.9446 13.3739C10.9509 13.3542 10.9614 13.336 10.9753 13.3205C10.9892 13.3051 11.0062 13.2928 11.0252 13.2844C11.0442 13.276 11.0647 13.2717 11.0855 13.2719H17.6217C18.1705 12.5699 18.8203 11.9531 19.5499 11.4417C21.3961 10.1709 23.5682 9.45636 25.8083 9.38281C25.848 9.38579 25.8856 9.40183 25.9151 9.42844C25.9447 9.45505 25.9646 9.49073 25.9717 9.52987C25.9724 9.57239 25.958 9.61375 25.9311 9.64666C25.9042 9.67957 25.8664 9.70187 25.8246 9.70959C24.2929 9.72122 22.7825 10.0681 21.3993 10.7258C20.016 11.3836 18.7935 12.3363 17.8178 13.517L17.7034 13.5823Z" fill="#13110C"/>
<path d="M40.4008 13.5824H33.7829C32.8112 12.4013 31.5918 11.448 30.211 10.7901C28.8303 10.1322 27.3219 9.78569 25.7924 9.77502C25.77 9.77558 25.7477 9.77105 25.7274 9.76171C25.707 9.75237 25.6891 9.73846 25.6749 9.72112C25.6607 9.70378 25.6506 9.68344 25.6455 9.66162C25.6404 9.63981 25.6403 9.61714 25.6453 9.5953C25.6489 9.55752 25.6656 9.52215 25.6925 9.49532C25.7193 9.46848 25.7546 9.45186 25.7924 9.44824C28.033 9.51904 30.2057 10.2338 32.0507 11.5071C32.7836 12.0204 33.4385 12.6368 33.9953 13.3372H40.5315C40.5522 13.3371 40.5728 13.3414 40.5918 13.3498C40.6108 13.3582 40.6279 13.3705 40.6418 13.386C40.6557 13.4014 40.6661 13.4196 40.6725 13.4394C40.6788 13.4591 40.6809 13.48 40.6786 13.5007C40.6786 13.5397 40.6631 13.5771 40.6355 13.6047C40.6079 13.6323 40.5705 13.6477 40.5315 13.6477" fill="#13110C"/>
<path d="M25.7437 35.8384C25.7032 35.8344 25.6658 35.8153 25.6386 35.7851C25.6114 35.7549 25.5965 35.7156 25.5967 35.675V7.47128C25.5967 7.45197 25.6005 7.43287 25.6079 7.41503C25.6152 7.39719 25.6261 7.38096 25.6398 7.36731C25.6534 7.35365 25.6696 7.34283 25.6874 7.33544C25.7053 7.32805 25.7244 7.32422 25.7437 7.32422C25.7843 7.32402 25.8236 7.33897 25.8538 7.36616C25.884 7.39335 25.9031 7.43083 25.9072 7.47128V35.675C25.9035 35.7171 25.8851 35.7566 25.8552 35.7865C25.8253 35.8163 25.7858 35.8347 25.7437 35.8384Z" fill="#13110C"/>
<path d="M26.5466 9.54652C26.5466 9.7604 26.4628 9.96578 26.3131 10.1185C26.1634 10.2713 25.9598 10.3593 25.7459 10.3635C25.6408 10.3614 25.5371 10.3386 25.4407 10.2964C25.3444 10.2542 25.2574 10.1934 25.1845 10.1175C25.1117 10.0416 25.0545 9.95217 25.0163 9.8542C24.978 9.75622 24.9595 9.65167 24.9616 9.54652C24.9572 9.4408 24.9742 9.33526 25.0117 9.23629C25.0491 9.13733 25.1062 9.04698 25.1794 8.97065C25.2527 8.89432 25.3407 8.83357 25.4381 8.79213C25.5354 8.75068 25.6401 8.7294 25.7459 8.72949C25.8525 8.72947 25.958 8.75067 26.0562 8.79193C26.1544 8.83318 26.2434 8.89366 26.318 8.96975C26.3926 9.04584 26.4512 9.13601 26.4904 9.23505C26.5297 9.33408 26.5488 9.44 26.5466 9.54652Z" fill="white"/>
<path d="M44.9438 14.9386C44.9438 14.9386 40.0417 8.71291 39.3881 9.26849C38.7345 9.82406 41.0221 11.6705 41.0221 11.6705C41.0221 11.6705 39.8129 10.5267 39.5187 10.8535C39.2246 11.1803 40.3195 12.1771 40.3195 12.1771C40.3195 12.1771 39.4043 11.0006 38.9958 11.311C38.5873 11.6215 39.6822 12.651 39.6822 12.651C39.6822 12.651 38.6691 11.7359 38.4567 12.1117C38.2442 12.4876 39.9273 14.2687 41.7248 15.0203L42.7868 16.0825L44.9438 14.9386Z" fill="white"/>
<path d="M71.122 11.9486C70.9537 11.9688 70.7837 11.9688 70.6154 11.9486C70.4393 11.8856 70.2858 11.7718 70.1742 11.6217C70.0878 11.3899 70.0878 11.1346 70.1742 10.9028C70.338 9.99433 70.6011 9.10663 70.9586 8.2556C70.9673 8.23441 70.9803 8.21527 70.9969 8.19945C71.0135 8.18364 71.0332 8.1715 71.0547 8.1638C71.0763 8.15609 71.0992 8.15303 71.1221 8.15477C71.1449 8.15651 71.1671 8.16299 71.1873 8.17387C71.2138 8.20607 71.2284 8.24652 71.2284 8.28826C71.2284 8.33001 71.2138 8.37046 71.1873 8.40266C70.8459 9.22853 70.5939 10.0886 70.4357 10.9681C70.3859 11.1166 70.3859 11.2772 70.4357 11.4257C70.4357 11.5237 70.6154 11.5727 70.7134 11.6217H71.1383C71.1813 11.6163 71.2248 11.6264 71.2608 11.6505C71.2968 11.6745 71.3229 11.7107 71.3344 11.7524C71.3443 11.7979 71.3362 11.8454 71.3119 11.885C71.2875 11.9247 71.2487 11.9533 71.2036 11.9649H71.0892" fill="#142B2A"/>
<path d="M73.6205 9.0724C72.9342 8.94167 72.2316 8.77827 71.5617 8.61486C71.5166 8.60325 71.4778 8.57464 71.4534 8.53503C71.4291 8.49541 71.421 8.44787 71.4309 8.40243C71.4425 8.35739 71.4711 8.3186 71.5107 8.29422C71.5503 8.26984 71.5979 8.2618 71.6433 8.27173C72.3133 8.43513 72.9996 8.59854 73.6859 8.72926C73.7097 8.73318 73.7324 8.7418 73.7528 8.75469C73.7732 8.76758 73.7908 8.78444 73.8045 8.80426C73.8182 8.82408 73.8277 8.84648 73.8326 8.87009C73.8375 8.89369 73.8376 8.918 73.8329 8.94164C73.8225 8.98211 73.7995 9.01822 73.7672 9.04467C73.7348 9.07112 73.6949 9.08658 73.6532 9.08875" fill="#142B2A"/>
<path d="M71.5788 9.84118H71.4643C71.3813 9.80113 71.3168 9.73085 71.2841 9.64476C71.2516 9.55485 71.2516 9.45638 71.2841 9.36647C71.3146 9.3321 71.3527 9.30535 71.3953 9.2883C71.438 9.27124 71.484 9.26437 71.5297 9.26826C71.5446 9.25964 71.5615 9.25513 71.5788 9.25513C71.596 9.25513 71.613 9.25964 71.6279 9.26826C71.6653 9.29704 71.6952 9.33434 71.7151 9.37706C71.7351 9.41979 71.7445 9.46668 71.7425 9.51378C71.7432 9.55837 71.7331 9.60248 71.7131 9.64236C71.6932 9.68224 71.664 9.71675 71.6279 9.74297C71.5746 9.75938 71.5176 9.75938 71.4643 9.74297" fill="#142B2A"/>
<path d="M70.1739 8.40325L69.3896 8.07642C69.3633 8.07175 69.3383 8.06131 69.3166 8.0458C69.2948 8.03029 69.2769 8.0101 69.2639 7.98676C69.2509 7.96342 69.2433 7.93751 69.2416 7.91086C69.2399 7.88421 69.2442 7.85751 69.2541 7.83272C69.2641 7.80793 69.2793 7.78563 69.2989 7.76749C69.3185 7.74936 69.3419 7.73586 69.3674 7.7279C69.3929 7.71994 69.4199 7.71775 69.4463 7.72152C69.4728 7.72528 69.4981 7.73489 69.5203 7.74964L70.3046 8.07642C70.3473 8.09453 70.3814 8.12848 70.3997 8.17112C70.418 8.21375 70.419 8.2618 70.4027 8.30521C70.3882 8.33715 70.3653 8.36463 70.3366 8.38475C70.3078 8.40487 70.2743 8.4169 70.2393 8.41961" fill="#142B2A"/>
<path d="M69.7164 9.38424C69.6546 9.38533 69.5944 9.36458 69.5465 9.32564C69.4986 9.28671 69.466 9.23209 69.4544 9.17144C69.44 9.1436 69.4326 9.11274 69.4326 9.08142C69.4326 9.0501 69.44 9.01919 69.4544 8.99136L69.6018 8.87681C69.6287 8.85929 69.6598 8.84929 69.6919 8.84784C69.724 8.84639 69.7558 8.85354 69.7842 8.86857C69.8126 8.8836 69.8365 8.90596 69.8533 8.93331C69.8702 8.96066 69.8794 8.99201 69.88 9.02412V9.10595C69.8657 9.16521 69.8323 9.21816 69.785 9.25661C69.7377 9.29505 69.6791 9.31687 69.6181 9.31875" fill="#142B2A"/>
<path d="M70.6314 13.6643H70.3535C70.3304 13.6625 70.308 13.6558 70.2877 13.6446C70.2674 13.6334 70.2497 13.618 70.2358 13.5995C70.2219 13.5809 70.2121 13.5596 70.207 13.537C70.202 13.5144 70.2018 13.4909 70.2065 13.4682C70.2084 13.4451 70.2151 13.4227 70.2263 13.4024C70.2375 13.3821 70.2528 13.3644 70.2714 13.3505C70.2899 13.3365 70.3112 13.3267 70.3338 13.3217C70.3564 13.3166 70.3799 13.3165 70.4026 13.3212C70.655 13.356 70.9122 13.3312 71.1533 13.2489C71.3945 13.1666 71.613 13.0291 71.7915 12.8473C71.8069 12.8299 71.8257 12.816 71.8469 12.8065C71.868 12.7969 71.8909 12.792 71.9141 12.792C71.9373 12.792 71.9602 12.7969 71.9813 12.8065C72.0024 12.816 72.0213 12.8299 72.0367 12.8473C72.0688 12.8832 72.0866 12.9298 72.0866 12.978C72.0866 13.0262 72.0688 13.0728 72.0367 13.1087C71.8543 13.2978 71.6362 13.4487 71.3949 13.5525C71.1536 13.6563 70.8941 13.711 70.6314 13.7133" fill="#142B2A"/>
<path d="M78.4085 2.20978C78.2341 1.65027 77.9124 1.14798 77.4771 0.755502C76.9667 0.359896 76.355 0.116362 75.7123 0.0528726C74.5935 -0.0830906 73.4584 0.0440433 72.3974 0.424184C71.3364 0.804325 70.3789 1.42696 69.601 2.24249C68.7676 3.10854 68.1956 3.79484 68.6205 4.69357C69.4066 5.71531 70.4265 6.53345 71.5945 7.07927C72.8613 7.68219 74.2018 8.11621 75.5816 8.37018C75.3274 9.04287 75.1146 9.73042 74.9443 10.429L75.3038 10.184C75.5326 9.93884 75.7777 9.74276 75.9575 9.82446C76.5947 10.1022 75.6142 11.2134 75.3528 11.867C76.3139 11.2315 77.111 10.3776 77.679 9.37506C78.247 8.37255 78.5697 7.24991 78.6209 6.09883C78.8514 4.77433 78.7675 3.41419 78.3758 2.1281" fill="#142B2A"/>
</svg>
