<svg width="91" height="90" viewBox="0 0 91 90" fill="none" xmlns="http://www.w3.org/2000/svg">
<path d="M63.3213 63.667L62.4462 61.8197C58.7387 53.0567 58.0462 43.3105 60.4774 34.1113C71.7066 40.6009 86.2414 54.0176 90.1303 80.924C90.1303 80.924 92.6824 95.5073 62.7622 80.924L62.1789 74.2156L73.0192 72.7573C73.0192 72.7573 65.047 65.7329 63.297 63.667" fill="#CA5098"/>
<path d="M26.8404 63.2527L27.7397 61.3812C31.4508 52.6276 32.1434 42.8878 29.7084 33.6971C18.4549 40.1867 3.94443 53.6034 0.0555314 80.5097C0.0555314 80.5097 -2.52084 95.0931 27.4237 80.5097L27.9827 73.8014L17.1666 72.343C17.1666 72.343 25.1389 65.2944 26.8889 63.2527" fill="#CA5098"/>
<path d="M61.6472 38.0238C59.8729 36.8815 54.3554 33.5516 53.5047 32.9926C52.405 34.2566 51.0504 35.2739 49.5298 35.9776C48.0093 36.6813 46.3571 37.0556 44.6818 37.0759C41.4505 36.8028 38.436 35.3389 36.2234 32.9682C33.4559 34.1424 30.8304 35.6264 28.3971 37.3919C28.3584 37.4305 28.3058 37.4523 28.2511 37.4523C28.1964 37.4523 28.144 37.4305 28.1053 37.3919C28.0666 37.3532 28.0449 37.3007 28.0449 37.246C28.0449 37.1913 28.0666 37.1389 28.1053 37.1002C30.6338 35.2812 33.3566 33.7487 36.2234 32.5307C36.2557 32.5088 36.2938 32.4971 36.3328 32.4971C36.3718 32.4971 36.41 32.5088 36.4423 32.5307C38.5458 34.8928 41.4613 36.3766 44.6089 36.687C46.257 36.658 47.8798 36.2764 49.3681 35.5679C50.8564 34.8593 52.1757 33.8403 53.2374 32.5793C53.2743 32.558 53.3162 32.5468 53.3589 32.5468C53.4015 32.5468 53.4434 32.558 53.4804 32.5793C53.4804 32.5793 59.8242 36.4683 61.7444 37.7078C61.7785 37.7439 61.7976 37.7918 61.7976 37.8415C61.7976 37.8912 61.7785 37.9391 61.7444 37.9752C61.7178 37.9881 61.6888 37.9948 61.6593 37.9948C61.6299 37.9948 61.6007 37.9881 61.5742 37.9752" fill="#1D1D1B"/>
<path d="M35.2979 13.6933C35.2979 13.6933 36.3673 30.7072 45.0201 30.9989C53.6729 31.2905 55.3987 10.6064 55.3987 10.6064L35.2979 13.6933Z" fill="#DEDEDE"/>
<path d="M48.8113 0.42322L46.2349 0.0829339C42.8804 -0.284643 39.5067 0.580441 36.7429 2.51686C33.9792 4.45328 32.0141 7.32884 31.2141 10.6073H26.6689C26.6689 10.6073 29.5127 19.333 37.9225 16.9753C46.3322 14.6177 49.2731 11.5552 49.2731 11.5552L49.419 12.0899C50.1838 15.178 51.5644 18.0797 53.478 20.6212C54.2133 19.5721 54.8791 18.476 55.4711 17.3399C57.0752 14.0344 58.3148 2.58642 48.8113 0.325996" fill="#142B2A"/>
<path d="M12.6455 89.0417C12.6455 89.0417 21.2984 81.75 31.4095 81.75C38.1099 82.1336 44.5019 84.6938 49.6144 89.0417H12.6455Z" fill="#0095D4"/>
<path d="M40.7652 76.5726L35.4909 67.1906L32.5742 69.451L38.602 76.1594L40.7652 76.5726Z" fill="#0095D4"/>
<path d="M28.5645 78.371C27.5633 78.41 26.5759 78.1291 25.7451 77.569L25.9881 77.2287C26.9336 77.8317 28.0585 78.0893 29.1721 77.9579C30.5364 77.7757 31.8744 77.4331 33.1583 76.937L33.6688 76.7912C35.146 76.2052 36.7219 75.9082 38.3111 75.9162C39.1354 75.9161 39.9473 76.1176 40.6759 76.5031C41.4046 76.8886 42.028 77.4464 42.4917 78.128L42.1514 78.3467C41.7114 77.7284 41.1326 77.2216 40.4616 76.8671C39.7905 76.5125 39.0456 76.3201 38.2868 76.3051C36.7386 76.3135 35.2055 76.6103 33.7659 77.1801L33.2798 77.3259C31.9634 77.825 30.5929 78.1677 29.1965 78.3467H28.5645" fill="#1D1D1B"/>
<path d="M44.1468 83.9613L43.7821 83.7911C43.8694 83.5226 43.8694 83.2333 43.7821 82.9647C43.6208 82.5717 43.3831 82.2146 43.0827 81.9142C42.7823 81.6138 42.4252 81.376 42.0322 81.2147L41.2787 80.8745C40.6937 80.6422 40.1387 80.3403 39.626 79.9751L39.869 79.6592C40.354 80.014 40.8857 80.3003 41.4489 80.5099L42.2024 80.8502C42.6479 81.0278 43.0511 81.297 43.386 81.6403C43.721 81.9836 43.9802 82.3934 44.1468 82.8432C44.2809 83.2038 44.2809 83.6006 44.1468 83.9613Z" fill="#1D1D1B"/>
<path d="M42.8808 84.3988L42.5163 84.2286C42.5456 84.1289 42.5497 84.0235 42.5285 83.9217C42.5073 83.82 42.4613 83.725 42.3946 83.6453C42.2201 83.4577 42.0145 83.3015 41.787 83.1835L39.3564 81.7738L39.5753 81.4092L42.0058 82.8189C42.2781 82.9633 42.5179 83.1618 42.7106 83.4022C42.8272 83.5369 42.9065 83.6998 42.9406 83.8746C42.9747 84.0494 42.9625 84.2301 42.9051 84.3988" fill="#1D1D1B"/>
<path d="M33.3535 85.4448C32.7451 85.4189 32.1561 85.223 31.6534 84.8793C31.1507 84.5356 30.7546 84.0579 30.5098 83.5003L30.8499 83.3545C31.1154 83.9527 31.5807 84.4399 32.1661 84.7326C32.7515 85.0253 33.4204 85.1052 34.0583 84.9587C34.7145 84.8128 35.4437 84.5698 36.1485 84.351C38.1902 83.6948 40.3049 83.0142 41.3015 84.1809L41.0097 84.4483C40.1833 83.476 38.1902 84.108 36.1485 84.7399C35.4194 84.983 34.6903 85.2017 34.0098 85.3719H33.232" fill="#1D1D1B"/>
<path d="M24.3855 85.2491L24.3125 84.8602L30.8994 83.3047L30.9965 83.6936L24.3855 85.2491Z" fill="#1D1D1B"/>
<path d="M45.5071 82.4786H45.1181C45.1519 82.2668 45.1437 82.0505 45.0936 81.8419C45.0436 81.6334 44.9527 81.4367 44.8264 81.2633C44.5588 80.899 44.2198 80.5931 43.83 80.364C43.2742 80.0498 42.6975 79.7736 42.1042 79.5376C41.1181 79.2028 40.2091 78.6738 39.4307 77.9821L39.698 77.6904C40.4524 78.3472 41.3275 78.8508 42.2744 79.1731C42.8783 79.4121 43.4634 79.6965 44.0245 80.0238C44.4666 80.2783 44.8546 80.6168 45.1668 81.0203C45.4723 81.4682 45.5942 82.0164 45.5071 82.5516" fill="#1D1D1B"/>
<path d="M46.2354 89.0417H79.7042C75.2413 84.8765 69.4872 82.364 63.3985 81.9218C57.3099 81.4796 51.2533 83.1344 46.2354 86.6112V89.0417Z" fill="#0095D4"/>
<path d="M82.3766 88.8223H10.0674V89.2355H82.3766V88.8223Z" fill="#1D1D1B"/>
<path d="M49.6388 83.1593C49.5851 83.1533 49.5354 83.1276 49.4995 83.0872C49.4636 83.0468 49.444 82.9946 49.4443 82.9406C49.4967 82.0351 49.7403 81.151 50.1592 80.3466C50.5782 79.5422 51.163 78.8358 51.8749 78.2739C53.5121 77.0763 55.4637 76.3836 57.4895 76.2808H58.2186C59.316 76.2804 60.401 76.0485 61.4027 75.6003C61.4388 75.5661 61.4866 75.547 61.5363 75.547C61.5861 75.547 61.6339 75.5661 61.67 75.6003C61.7042 75.6364 61.7232 75.6842 61.7232 75.7339C61.7232 75.7837 61.7042 75.8315 61.67 75.8676C60.614 76.3387 59.4722 76.5869 58.316 76.5968H57.5867C55.6425 76.6935 53.7683 77.3521 52.1909 78.4926C51.515 79.0138 50.9589 79.6742 50.5605 80.429C50.1621 81.1839 49.9307 82.0155 49.8818 82.8676C49.8818 82.8676 49.8818 83.0621 49.6873 83.0621" fill="#1D1D1B"/>
<path d="M48.9832 87.1937C48.9573 87.2087 48.928 87.2165 48.8982 87.2165C48.8683 87.2165 48.8389 87.2087 48.813 87.1937C48.7788 87.1576 48.7598 87.1098 48.7598 87.06C48.7598 87.0103 48.7788 86.9625 48.813 86.9264C54.5666 84.0372 61.1288 83.1806 67.4312 84.4958C67.4572 84.5014 67.4816 84.5123 67.5032 84.5278C67.5247 84.5433 67.5431 84.563 67.5567 84.5858C67.5704 84.6086 67.5792 84.6339 67.5827 84.6602C67.5862 84.6865 67.5843 84.7133 67.577 84.7388C67.5745 84.7639 67.5664 84.788 67.5535 84.8096C67.5405 84.8311 67.523 84.8495 67.5021 84.8635C67.4812 84.8774 67.4574 84.8866 67.4326 84.8902C67.4077 84.8939 67.3823 84.892 67.3582 84.8847C61.1422 83.6027 54.6754 84.4592 49.0075 87.3153" fill="white"/>
<path d="M45.7529 47.042H56.9093C56.9093 47.042 57.0551 55.8163 50.6627 55.8406C45.6071 55.8406 45.8016 47.042 45.8016 47.042" fill="#0095D4"/>
<path d="M51.7303 49.2284C49.2084 49.2253 46.6902 49.0384 44.1956 48.6694C44.1419 48.6576 44.0945 48.6261 44.0629 48.5811C44.0314 48.536 44.018 48.4808 44.0254 48.4263C44.0254 48.4263 44.0253 48.2319 44.2441 48.2562C48.8914 48.9728 53.6212 48.9728 58.2685 48.2562C58.2945 48.2484 58.3219 48.2469 58.3486 48.2519C58.3752 48.2569 58.4003 48.2682 58.4217 48.2849C58.4431 48.3015 58.4602 48.323 58.4716 48.3476C58.483 48.3722 58.4883 48.3992 58.4871 48.4263C58.4944 48.4519 58.4964 48.4786 58.4929 48.5049C58.4894 48.5313 58.4805 48.5566 58.4668 48.5794C58.4532 48.6022 58.435 48.6219 58.4134 48.6373C58.3918 48.6528 58.3673 48.6637 58.3413 48.6694C56.1591 49.0554 53.9463 49.2426 51.7303 49.2284Z" fill="#1D1D1B"/>
<path d="M40.8887 20.0855C40.2961 20.0928 39.7086 19.977 39.1631 19.7452C39.1278 19.7295 39.096 19.7069 39.0695 19.6787C39.043 19.6506 39.0224 19.6175 39.0088 19.5813C38.9953 19.5451 38.989 19.5066 38.9904 19.468C38.9919 19.4294 39.0011 19.3914 39.0173 19.3563C39.0305 19.3219 39.0506 19.2906 39.0765 19.2643C39.1024 19.238 39.1333 19.2174 39.1676 19.2037C39.2018 19.19 39.2386 19.1835 39.2754 19.1847C39.3123 19.1859 39.3485 19.1947 39.3818 19.2105C40.4657 19.5503 41.6277 19.5503 42.7116 19.2105C42.75 19.2036 42.7895 19.2044 42.8275 19.2129C42.8655 19.2215 42.9014 19.2375 42.9331 19.2602C42.9649 19.2828 42.9918 19.3116 43.0122 19.3448C43.0326 19.3781 43.0461 19.415 43.052 19.4536C43.0589 19.4906 43.0579 19.5286 43.0491 19.5652C43.0404 19.6018 43.024 19.6361 43.0011 19.6659C42.9781 19.6957 42.9492 19.7204 42.9161 19.7383C42.8829 19.7561 42.8465 19.7668 42.809 19.7695C42.1789 19.9162 41.5354 19.9976 40.8887 20.0126" fill="#142B2A"/>
<path d="M48.0096 20.0631C47.4735 20.081 46.9408 19.9727 46.4541 19.7471C46.4188 19.7314 46.387 19.7088 46.3605 19.6807C46.334 19.6525 46.3134 19.6194 46.2998 19.5832C46.2863 19.547 46.28 19.5085 46.2815 19.4699C46.2829 19.4313 46.2921 19.3933 46.3083 19.3583C46.3215 19.3238 46.3416 19.2925 46.3675 19.2662C46.3934 19.2399 46.4243 19.2193 46.4586 19.2056C46.4928 19.1919 46.5296 19.1854 46.5664 19.1866C46.6033 19.1878 46.6395 19.1966 46.6728 19.2124C47.6744 19.5478 48.7581 19.5478 49.7597 19.2124C49.8114 19.171 49.8757 19.1484 49.942 19.1484C50.0083 19.1484 50.0724 19.171 50.1242 19.2124C50.1513 19.2395 50.1729 19.2717 50.1877 19.3072C50.2024 19.3426 50.2101 19.3806 50.2101 19.419C50.2101 19.4574 50.2024 19.4954 50.1877 19.5309C50.1729 19.5663 50.1513 19.5985 50.1242 19.6256H49.9541C49.3308 19.7637 48.6962 19.8451 48.0582 19.8687" fill="#142B2A"/>
<path d="M45.4845 25.4338H44.9255C44.5603 25.3948 44.2224 25.2216 43.9776 24.9477C43.751 24.5858 43.6647 24.1536 43.7346 23.7324C43.7804 23.068 43.886 22.4091 44.0504 21.7637C44.1193 21.435 44.1193 21.0957 44.0504 20.7671C44.039 20.7336 44.0345 20.6982 44.0369 20.6629C44.0393 20.6276 44.0487 20.5931 44.0645 20.5614C44.0803 20.5298 44.1022 20.5016 44.1291 20.4785C44.1559 20.4554 44.1869 20.4378 44.2206 20.4268C44.2573 20.4156 44.2959 20.4117 44.3341 20.4154C44.3723 20.4191 44.4094 20.4303 44.4433 20.4484C44.4771 20.4664 44.5072 20.491 44.5315 20.5207C44.5559 20.5504 44.5741 20.5845 44.5852 20.6213C44.7011 21.0429 44.7011 21.4879 44.5852 21.9095C44.4389 22.5247 44.3414 23.1505 44.2936 23.781C44.1988 24.04 44.1988 24.3241 44.2936 24.5831C44.3681 24.6643 44.458 24.7298 44.5582 24.7757C44.6584 24.8216 44.7667 24.8471 44.8769 24.8505C45.191 24.8993 45.5107 24.8993 45.8248 24.8505C45.8632 24.8435 45.9025 24.8443 45.9406 24.8529C45.9786 24.8614 46.0146 24.8775 46.0463 24.9001C46.078 24.9228 46.1048 24.9516 46.1252 24.9848C46.1457 25.018 46.1593 25.055 46.1652 25.0935C46.1683 25.1692 46.146 25.2438 46.102 25.3054C46.0579 25.367 45.9946 25.4122 45.922 25.4338H45.363" fill="#142B2A"/>
<path d="M39.9662 17.5099C39.9105 17.5069 39.8571 17.4865 39.8136 17.4517C39.77 17.4168 39.7384 17.3692 39.7232 17.3154C39.7074 17.2821 39.6986 17.2459 39.6974 17.2091C39.6962 17.1722 39.7027 17.1355 39.7164 17.1012C39.7301 17.067 39.7506 17.036 39.7769 17.0101C39.8032 16.9842 39.8346 16.964 39.869 16.9509C40.5652 16.6357 41.317 16.4622 42.0808 16.4404C42.118 16.4403 42.155 16.4479 42.1891 16.4628C42.2232 16.4778 42.2538 16.4997 42.279 16.5271C42.3042 16.5546 42.3234 16.587 42.3354 16.6223C42.3473 16.6576 42.3517 16.695 42.3483 16.7321C42.3563 16.77 42.355 16.8092 42.3449 16.8465C42.3347 16.8839 42.3158 16.9182 42.2897 16.9468C42.2635 16.9753 42.2309 16.9972 42.1946 17.0106C42.1583 17.024 42.1192 17.0285 42.0808 17.0238C41.3954 17.0472 40.7201 17.1954 40.0879 17.4613H39.9662" fill="#142B2A"/>
<path d="M49.202 17.5342H49.0804C48.5165 17.2385 47.8937 17.0724 47.2575 17.0481C47.1801 17.0481 47.106 17.0173 47.0513 16.9626C46.9966 16.9079 46.9658 16.8337 46.9658 16.7564C46.9658 16.679 46.9966 16.6049 47.0513 16.5502C47.106 16.4955 47.1801 16.4647 47.2575 16.4647C47.9803 16.4876 48.6878 16.679 49.3235 17.0238C49.3905 17.0599 49.4407 17.1208 49.4634 17.1935C49.4861 17.2661 49.4795 17.3448 49.445 17.4126C49.4235 17.4601 49.3894 17.501 49.3467 17.5309C49.3039 17.5608 49.2541 17.5788 49.202 17.5828" fill="#142B2A"/>
<path d="M45.7746 27.9369H44.7538C44.7154 27.9338 44.6781 27.9232 44.6438 27.9056C44.6096 27.888 44.5791 27.8639 44.5542 27.8345C44.5294 27.8051 44.5107 27.7711 44.4991 27.7345C44.4874 27.6978 44.4831 27.6592 44.4864 27.6209C44.4926 27.5478 44.5259 27.4797 44.5799 27.4302C44.634 27.3806 44.7048 27.3533 44.7781 27.3535H45.7989C45.8372 27.3566 45.8746 27.3672 45.9088 27.3848C45.9431 27.4023 45.9734 27.4265 45.9983 27.4559C46.0231 27.4852 46.042 27.5192 46.0536 27.5559C46.0653 27.5926 46.0696 27.6312 46.0662 27.6695C46.0662 27.7404 46.038 27.8084 45.9879 27.8585C45.9378 27.9087 45.8698 27.9369 45.7989 27.9369" fill="#142B2A"/>
</svg>
