<svg width="108" height="93" viewBox="0 0 108 93" fill="none" xmlns="http://www.w3.org/2000/svg">
<path d="M107.695 29.4263C107.672 29.3957 107.642 29.3703 107.608 29.3516C107.575 29.3329 107.537 29.3212 107.499 29.3174L56.4725 33.673C56.4233 33.6547 56.3692 33.6547 56.32 33.673L18.1209 81.5854C18.0999 81.6257 18.0889 81.6706 18.0889 81.7161C18.0889 81.7615 18.0999 81.8064 18.1209 81.8467C18.1413 81.8867 18.1725 81.9202 18.211 81.9433C18.2495 81.9664 18.2937 81.9782 18.3386 81.9774L73.8734 77.6217V91.8647C73.8734 91.9283 73.8986 91.9892 73.9435 92.0341C73.9885 92.0791 74.0494 92.1043 74.1129 92.1043C74.1764 92.1043 74.2374 92.0791 74.2824 92.0341C74.3273 91.9892 74.3526 91.9283 74.3526 91.8647V77.4475L107.281 30.2103V63.5094C107.281 63.5729 107.307 63.6338 107.352 63.6788C107.396 63.7237 107.457 63.7489 107.521 63.7489C107.584 63.7489 107.645 63.7237 107.69 63.6788C107.735 63.6338 107.76 63.5729 107.76 63.5094V29.4481M74.004 77.1644L18.8831 81.52L56.6468 34.1304L107.042 29.7747L74.004 77.1644Z" fill="#142B2A"/>
<path d="M23.1283 79.6461C23.0871 79.6431 23.0475 79.6295 23.0132 79.6066C22.9788 79.5837 22.9509 79.5523 22.9322 79.5155C22.905 79.4733 22.8906 79.4241 22.8906 79.3739C22.8906 79.3237 22.905 79.2746 22.9322 79.2324L57.0808 35.545C57.1304 35.5299 57.1834 35.5299 57.2331 35.545L103.534 31.5161C103.582 31.5109 103.631 31.5206 103.674 31.544C103.717 31.5673 103.752 31.6032 103.773 31.6467C103.799 31.6856 103.812 31.731 103.812 31.7774C103.812 31.8238 103.799 31.8692 103.773 31.9081L73.654 75.5954C73.6362 75.6265 73.6109 75.6527 73.5805 75.6717C73.5501 75.6907 73.5155 75.7019 73.4798 75.7043L23.1283 79.6461ZM57.4074 35.9371L23.6728 79.1017L73.3273 75.1163L103.098 31.9516L57.4074 35.9371Z" fill="#142B2A"/>
<path d="M59.9993 50.3977L44.7545 46.3905C42.5744 40.3727 39.5219 34.7079 35.6948 29.5777C31.0342 34.7609 26.1558 25.7447 25.546 24.5469C21.6477 29.1421 28.8781 51.3342 41.9016 55.8641L60.3913 54.5792L59.9993 50.3977Z" fill="#9BCEA4"/>
<path d="M21.6046 42.907L18.2726 30.8854L26.0475 25.6368C25.6119 24.9181 25.3724 24.4172 25.3724 24.4172L23.9785 21.8691C2.76643 46.7182 2.2002 83.088 2.2002 83.088L21.0384 81.9556L39.2886 59.415C34.4974 58.7834 21.5612 42.907 21.5612 42.907" fill="#142B2A"/>
<path d="M35.5851 29.5558C31.6868 33.9115 27.6144 28.2927 26.0464 25.6357L18.2715 30.8843L21.6035 42.9059C21.6035 42.9059 34.4309 58.6517 39.2875 59.4139C39.2875 58.9348 39.2875 58.4121 39.2875 57.8894C39.7559 48.3035 38.4869 38.7119 35.5417 29.5776" fill="#142B2A"/>
<path d="M41.0513 57.8028C41.0513 57.8028 32.34 32.7795 19.6868 27.1607C5.53091 20.8667 15.6143 63.378 37.1095 70.848L62.8079 63.3345L62.1763 58.8481L41.0513 57.8028Z" fill="#9BCEA4"/>
<path d="M41.772 10.8271C41.3688 13.6512 40.7202 16.4348 39.8337 19.1464C38.9627 21.8657 37.4108 24.3172 35.3256 26.2679C34.7129 26.8453 33.9635 27.2575 33.1477 27.4657C32.3672 27.5843 31.5691 27.4771 30.8475 27.1568C30.1259 26.8366 29.5109 26.3165 29.0752 25.6581C28.2061 24.3106 27.6826 22.7698 27.5508 21.1718C27.0888 17.7864 27.2066 14.3471 27.8992 11.0013" fill="#E3E3E3"/>
<path d="M72.3703 54.7331C72.3703 54.5371 71.9783 54.6024 71.7387 54.7331C69.8876 55.3647 68.0582 56.0616 66.2506 56.9109C66.4347 56.7068 66.6023 56.4883 66.7516 56.2576C67.0565 55.7567 67.3831 54.9508 67.2742 54.8419C67.1653 54.7331 66.3159 55.1904 66.2724 55.2122C65.9915 55.4135 65.7291 55.6394 65.4884 55.8873C64.9875 56.4536 63.3105 58.675 63.3105 58.675L63.9857 62.7257C65.8657 62.536 67.7158 62.1192 69.4955 61.4843C69.9746 61.2956 70.4538 61.0778 70.933 60.831C71.0854 60.831 71.2814 60.6132 71.2814 60.3954C71.2814 60.1776 70.9547 59.9381 70.7151 59.9599C70.0296 60.0341 69.3564 60.1951 68.7115 60.439C69.5333 60.0412 70.3201 59.575 71.0636 59.0452C71.2814 58.871 71.521 58.4789 71.325 58.2612C71.2861 58.2359 71.2407 58.2224 71.1943 58.2224C71.1479 58.2224 71.1025 58.2359 71.0636 58.2612C69.9001 58.3394 68.7654 58.6583 67.7315 59.1976L70.1054 57.9563C70.2796 57.9563 71.0418 57.3682 70.9764 57.1722C70.9111 56.9762 70.8459 57.1722 70.6934 57.1722C69.4766 57.2986 68.2943 57.6533 67.2088 58.2176L71.7823 56.0398C72.1961 55.822 72.5446 55.4082 72.4357 55.0815" fill="#CA5098"/>
<path d="M35.3899 0.395287C22.8456 -2.23989 16.1596 8.95417 15.0925 14.6165C14.9842 15.2283 14.9186 15.8468 14.8964 16.4677C14.7222 20.8234 16.1596 25.7888 13.5462 29.208C12.264 30.6085 10.717 31.741 8.99461 32.5401C5.05735 34.4097 1.99202 37.7246 0.435742 41.7959C-1.06696 47.0227 1.5682 52.5108 4.50828 57.0407C5.9892 59.3492 7.57901 61.5924 9.25594 63.7702C10.0307 64.9789 11.1232 65.9508 12.4138 66.5796C13.5251 66.8787 14.7034 66.809 15.7716 66.381C16.8399 65.9529 17.7403 65.1895 18.3375 64.2058C19.5437 62.1883 20.2041 59.8917 20.254 57.5416C20.3184 55.196 20.6844 52.8684 21.3429 50.6161C22.1674 48.3257 23.6911 46.3525 25.6985 44.9755C26.5421 44.4842 27.2818 43.8333 27.8764 43.059C28.286 42.3435 28.4966 41.5314 28.4862 40.707C28.4129 37.9 27.9587 35.116 27.136 32.4312C26.8824 31.2691 26.7149 30.0899 26.635 28.9031C26.1987 26.2794 26.6466 23.5851 27.908 21.2435C29.1695 18.902 31.1731 17.0458 33.6041 15.9668C38.134 14.1374 39.0922 11.916 39.1575 11.72C40.283 13.2153 40.7829 15.0897 40.5514 16.9468C40.5514 16.9468 47.956 3.09582 35.4117 0.482419" fill="#0095D4"/>
<path d="M34.2803 20.8888C34.0405 20.9042 33.8007 20.8583 33.5835 20.7554C33.3664 20.6526 33.1789 20.4961 33.0389 20.3008C32.7984 19.8376 32.7439 19.3001 32.8865 18.7981C32.9536 18.4052 33.0939 18.0284 33.3003 17.6874C33.4824 17.4418 33.7143 17.2372 33.9807 17.0872C34.2471 16.9371 34.5421 16.8448 34.8466 16.8163C35.0914 16.7886 35.3394 16.8152 35.5727 16.8943C35.8061 16.9733 36.0192 17.1028 36.1968 17.2736C36.458 17.565 36.6282 17.9266 36.6863 18.3136C36.7443 18.7006 36.6877 19.0962 36.5236 19.4514C36.3879 19.7781 36.1835 20.0717 35.9242 20.3122C35.6649 20.5528 35.3568 20.7345 35.0208 20.8452C34.7835 20.9314 34.5329 20.9756 34.2803 20.9759M35.0425 17.3825H34.8902C34.6556 17.4 34.4273 17.4673 34.2208 17.58C34.0142 17.6927 33.834 17.8481 33.6923 18.0358C33.52 18.3163 33.4019 18.6265 33.3439 18.9505C33.2127 19.3241 33.2127 19.7312 33.3439 20.1048C33.5302 20.2865 33.7665 20.4085 34.0226 20.4551C34.2787 20.5017 34.5428 20.4707 34.7812 20.3661C35.095 20.2783 35.3852 20.1212 35.6302 19.9063C35.8752 19.6915 36.0688 19.4244 36.1968 19.1248C36.3078 18.8709 36.3443 18.5906 36.3018 18.3168C36.2594 18.043 36.1399 17.7869 35.9573 17.5785C35.8526 17.4716 35.7271 17.3874 35.5884 17.3312C35.4498 17.275 35.3011 17.248 35.1515 17.2518" fill="#142B2A"/>
<path d="M39.6147 21.3029C39.3749 21.3183 39.1351 21.2724 38.9179 21.1695C38.7007 21.0666 38.5133 20.9102 38.3733 20.7148C38.2486 20.4873 38.1709 20.2371 38.1447 19.979C38.1185 19.7208 38.1444 19.4601 38.2208 19.2121C38.2895 18.8229 38.422 18.4476 38.6128 18.1014C38.7973 17.8532 39.0326 17.6471 39.303 17.4969C39.5733 17.3467 39.8727 17.2559 40.1809 17.2303C40.4258 17.2027 40.6737 17.2293 40.9071 17.3083C41.1405 17.3874 41.3535 17.5169 41.5312 17.6876C41.7924 17.9791 41.9624 18.3407 42.0205 18.7277C42.0785 19.1147 42.022 19.5102 41.8578 19.8655C41.7198 20.1906 41.5146 20.4829 41.2556 20.7231C40.9966 20.9634 40.6897 21.1461 40.3551 21.2593C40.1177 21.3454 39.8672 21.3897 39.6147 21.39M40.3769 17.8183H40.2244C39.9898 17.8358 39.7617 17.9032 39.5551 18.0158C39.3486 18.1285 39.1684 18.2839 39.0266 18.4717C38.8578 18.7538 38.74 19.0634 38.6782 19.3864C38.5453 19.7596 38.5453 20.1673 38.6782 20.5406C38.8578 20.7259 39.0905 20.8506 39.3442 20.8974C39.5979 20.9443 39.8599 20.9109 40.0937 20.802C40.3653 20.7048 40.615 20.5547 40.8281 20.3603C41.0412 20.1658 41.2135 19.9311 41.3351 19.6695C41.4461 19.4156 41.4825 19.1354 41.4401 18.8615C41.3977 18.5877 41.2782 18.3316 41.0956 18.1232C40.9883 18.0213 40.8618 17.9418 40.7234 17.8895C40.585 17.8371 40.4376 17.8129 40.2898 17.8183" fill="#142B2A"/>
<path d="M36.4134 19.2341C36.3498 19.2341 36.2889 19.2089 36.244 19.1639C36.1991 19.119 36.1738 19.0581 36.1738 18.9945C36.1738 18.931 36.1991 18.8701 36.244 18.8251C36.2889 18.7802 36.3498 18.755 36.4134 18.755H38.4171C38.4485 18.752 38.4803 18.7552 38.5105 18.7646C38.5407 18.7739 38.5688 18.7892 38.5931 18.8094C38.6173 18.8297 38.6374 18.8545 38.6521 18.8826C38.6667 18.9106 38.6757 18.9412 38.6784 18.9727C38.6814 19.006 38.6775 19.0395 38.6668 19.0711C38.6562 19.1028 38.639 19.1318 38.6164 19.1564C38.5939 19.181 38.5663 19.2007 38.5358 19.214C38.5052 19.2274 38.4722 19.2342 38.4389 19.2341C37.7637 19.2341 37.0885 19.2341 36.4134 19.2341Z" fill="#142B2A"/>
<path d="M33.0821 18.5583C33.0261 18.5802 32.9638 18.5802 32.9078 18.5583C31.019 16.7855 29.2373 14.902 27.5721 12.9177C27.3541 12.9904 27.1559 13.1129 26.9934 13.2754C26.8308 13.438 26.7084 13.6361 26.6357 13.8542C26.6154 13.9148 26.572 13.965 26.5148 13.9936C26.4577 14.0221 26.3914 14.0268 26.3307 14.0066C26.2701 13.9864 26.22 13.9429 26.1914 13.8857C26.1628 13.8286 26.1582 13.7624 26.1784 13.7017C26.2784 13.4086 26.4442 13.1424 26.6632 12.9234C26.8822 12.7044 27.1484 12.5385 27.4415 12.4386C27.5553 12.4059 27.6761 12.4059 27.79 12.4386C27.9096 12.482 28.0151 12.5573 28.0949 12.6564C29.734 14.6364 31.5018 16.5061 33.387 18.2534C33.4299 18.3013 33.4535 18.3633 33.4535 18.4276C33.4535 18.4919 33.4299 18.5539 33.387 18.6018C33.3307 18.6218 33.2691 18.6218 33.2128 18.6018" fill="#142B2A"/>
<path d="M36.195 22.9573C35.9929 22.9884 35.7872 22.9884 35.5851 22.9573C35.5364 22.9421 35.4939 22.9117 35.4636 22.8705C35.4334 22.8294 35.417 22.7797 35.417 22.7286C35.417 22.6776 35.4334 22.6278 35.4636 22.5867C35.4939 22.5455 35.5364 22.5152 35.5851 22.4999C35.624 22.4746 35.6695 22.4612 35.7159 22.4612C35.7623 22.4612 35.8077 22.4746 35.8466 22.4999C36.0703 22.5896 36.3197 22.5896 36.5434 22.4999C36.7394 22.3693 36.783 22.0426 36.8265 21.7159L36.9355 20.6488C36.9463 20.5833 36.9814 20.5244 37.034 20.484C37.0866 20.4435 37.1525 20.4246 37.2185 20.431C37.2502 20.4362 37.2806 20.4478 37.3077 20.4649C37.3349 20.4821 37.3583 20.5046 37.3766 20.531C37.3948 20.5574 37.4077 20.5872 37.4142 20.6187C37.4207 20.6502 37.4208 20.6826 37.4146 20.7141V21.7813C37.4164 21.9928 37.3748 22.2024 37.2924 22.3972C37.21 22.592 37.0886 22.7678 36.9355 22.9137C36.7492 23.0405 36.5292 23.1087 36.3039 23.1097" fill="#142B2A"/>
<path d="M34.7375 25.2015H34.6286C34.1924 24.9745 33.7892 24.6887 33.4307 24.3521C33.2076 24.1269 33.0301 23.8607 32.908 23.5681C32.8938 23.5383 32.8859 23.5058 32.8849 23.4728C32.8838 23.4398 32.8896 23.4069 32.9019 23.3762C32.9142 23.3455 32.9327 23.3177 32.9563 23.2945C32.9798 23.2713 33.0078 23.2533 33.0387 23.2415C33.0669 23.2274 33.0979 23.2197 33.1295 23.2188C33.161 23.218 33.1923 23.2239 33.2213 23.2363C33.2503 23.2488 33.2762 23.2674 33.2974 23.2908C33.3185 23.3143 33.3343 23.342 33.3436 23.3721C33.4453 23.6096 33.5934 23.8243 33.7792 24.0037C34.104 24.3144 34.4705 24.5783 34.8681 24.7877C34.9095 24.8321 34.9325 24.8904 34.9325 24.9511C34.9325 25.0117 34.9095 25.0701 34.8681 25.1144C34.8477 25.1544 34.8165 25.1879 34.778 25.211C34.7395 25.2341 34.6952 25.2459 34.6503 25.2451" fill="#142B2A"/>
<path d="M43.1215 71.982C43.0872 71.982 43.0533 71.9752 43.0216 71.9621C42.9899 71.9489 42.961 71.9297 42.9368 71.9054C42.9125 71.8811 42.8933 71.8523 42.8801 71.8206C42.867 71.7889 42.8602 71.7549 42.8602 71.7206C42.854 71.6846 42.8555 71.6477 42.8645 71.6123C42.8734 71.5768 42.8897 71.5437 42.9123 71.515C42.9349 71.4862 42.9632 71.4626 42.9955 71.4455C43.0278 71.4284 43.0633 71.4182 43.0997 71.4157L46.3665 71.1108C46.4037 71.1078 46.4412 71.1123 46.4767 71.1238C46.5122 71.1353 46.545 71.1538 46.5733 71.1781C46.6016 71.2024 46.6249 71.232 46.6418 71.2653C46.6586 71.2986 46.6687 71.3349 46.6714 71.3722C46.6778 71.41 46.6758 71.4487 46.6656 71.4856C46.6553 71.5225 46.6371 71.5567 46.6121 71.5858C46.5872 71.6149 46.5563 71.6382 46.5213 71.6539C46.4864 71.6697 46.4484 71.6776 46.4101 71.6771L43.1651 71.982M49.6986 71.3722C49.6317 71.3689 49.5676 71.3437 49.5164 71.3004C49.4652 71.2571 49.4298 71.1981 49.4155 71.1326C49.4092 71.0551 49.4327 70.9781 49.4813 70.9174C49.5299 70.8566 49.5998 70.8168 49.6768 70.8059L52.9436 70.5228C52.9814 70.5164 53.02 70.5184 53.057 70.5287C53.0939 70.5389 53.1281 70.5571 53.1572 70.5821C53.1863 70.607 53.2096 70.638 53.2254 70.673C53.2411 70.7079 53.249 70.7458 53.2485 70.7841C53.2515 70.8214 53.247 70.8588 53.2355 70.8943C53.2239 70.9298 53.2055 70.9626 53.1812 70.9909C53.157 71.0193 53.1272 71.0425 53.0939 71.0594C53.0606 71.0762 53.0244 71.0863 52.9872 71.089L49.7204 71.3722H49.6986ZM56.2321 70.7841C56.1607 70.7844 56.0918 70.7575 56.0392 70.7091C55.9867 70.6606 55.9545 70.5941 55.949 70.5228C55.946 70.4856 55.9505 70.4482 55.962 70.4127C55.9736 70.3772 55.992 70.3444 56.0163 70.316C56.0405 70.2877 56.0701 70.2644 56.1035 70.2476C56.1368 70.2307 56.1731 70.2207 56.2103 70.2179L59.4771 69.913C59.5522 69.913 59.6242 69.9428 59.6773 69.9959C59.7304 70.049 59.7602 70.121 59.7602 70.1961C59.7602 70.2712 59.7304 70.3432 59.6773 70.3963C59.6242 70.4494 59.5522 70.4793 59.4771 70.4793L56.2103 70.7841H56.2321ZM62.7656 70.1961C62.6956 70.1918 62.6291 70.1634 62.5775 70.1158C62.526 70.0682 62.4924 70.0043 62.4825 69.9348C62.4762 69.8573 62.4997 69.7803 62.5483 69.7196C62.5969 69.6588 62.6668 69.619 62.7438 69.6081L66.0106 69.325C66.0474 69.318 66.0853 69.3197 66.1213 69.33C66.1573 69.3402 66.1905 69.3588 66.2181 69.3843C66.2456 69.4097 66.2667 69.4412 66.2799 69.4763C66.293 69.5114 66.2978 69.5491 66.2937 69.5863C66.2999 69.6223 66.2984 69.6592 66.2894 69.6947C66.2805 69.7301 66.2642 69.7632 66.2416 69.792C66.219 69.8207 66.1907 69.8444 66.1584 69.8615C66.1261 69.8786 66.0906 69.8887 66.0542 69.8912L62.7874 70.1744M69.3209 69.5646C69.2495 69.5648 69.1806 69.5379 69.128 69.4895C69.0755 69.441 69.0433 69.3745 69.0378 69.3032C69.0314 69.2654 69.0334 69.2267 69.0436 69.1898C69.0539 69.1529 69.0721 69.1187 69.0971 69.0896C69.122 69.0605 69.1529 69.0372 69.1879 69.0214C69.2228 69.0057 69.2608 68.9978 69.2991 68.9983L72.5441 68.6934C72.5818 68.687 72.6205 68.689 72.6574 68.6993C72.6944 68.7095 72.7286 68.7278 72.7577 68.7527C72.7868 68.7776 72.8101 68.8087 72.8259 68.8436C72.8416 68.8785 72.8495 68.9165 72.849 68.9548C72.8552 68.9908 72.8537 69.0277 72.8447 69.0631C72.8358 69.0985 72.8195 69.1317 72.7969 69.1604C72.7743 69.1891 72.746 69.2128 72.7137 69.2299C72.6814 69.247 72.6458 69.2572 72.6093 69.2597L69.3426 69.5646H69.3209ZM74.6783 66.864H74.5258C74.4738 66.8077 74.4449 66.7338 74.4449 66.6571C74.4449 66.5805 74.4738 66.5066 74.5258 66.4502L76.4423 63.728C76.4669 63.7001 76.4971 63.6779 76.5309 63.6626C76.5647 63.6474 76.6013 63.6395 76.6384 63.6395C76.6755 63.6395 76.7121 63.6474 76.7459 63.6626C76.7797 63.6779 76.8098 63.7001 76.8343 63.728C76.8849 63.7807 76.9132 63.8509 76.9132 63.924C76.9132 63.997 76.8849 64.0673 76.8343 64.12L74.918 66.8423C74.8909 66.8812 74.8552 66.9132 74.8136 66.9359C74.772 66.9586 74.7256 66.9713 74.6783 66.9729M78.5331 61.5066H78.3588C78.3068 61.4503 78.2779 61.3764 78.2779 61.2997C78.2779 61.223 78.3068 61.1491 78.3588 61.0928L80.2753 58.3705C80.3281 58.3199 80.3983 58.2917 80.4714 58.2917C80.5445 58.2917 80.6146 58.3199 80.6673 58.3705C80.7179 58.4232 80.7462 58.4935 80.7462 58.5665C80.7462 58.6396 80.7179 58.7098 80.6673 58.7625L78.7508 61.5066C78.6807 61.5334 78.6032 61.5334 78.5331 61.5066ZM82.3661 56.0402H82.1918C82.1441 55.9818 82.1179 55.9087 82.1179 55.8333C82.1179 55.7579 82.1441 55.6848 82.1918 55.6264L84.1083 52.9041C84.1611 52.8536 84.2314 52.8253 84.3044 52.8253C84.3775 52.8253 84.4476 52.8536 84.5003 52.9041C84.5464 52.959 84.5717 53.0285 84.5717 53.1002C84.5717 53.1719 84.5464 53.2412 84.5003 53.2962L82.562 56.0402C82.5289 56.0593 82.4914 56.0694 82.4532 56.0694C82.4149 56.0694 82.3774 56.0593 82.3443 56.0402M86.1991 50.5739C86.1431 50.5957 86.0809 50.5957 86.0249 50.5739C85.9743 50.5211 85.946 50.4509 85.946 50.3779C85.946 50.3048 85.9743 50.2346 86.0249 50.1818L87.9414 47.4378C87.9941 47.3872 88.0642 47.359 88.1373 47.359C88.2103 47.359 88.2806 47.3872 88.3334 47.4378C88.3854 47.4941 88.4143 47.568 88.4143 47.6447C88.4143 47.7214 88.3854 47.7952 88.3334 47.8516L86.4168 50.5739C86.3921 50.6083 86.3594 50.6362 86.3214 50.6552C86.2835 50.6742 86.2415 50.6837 86.1991 50.6828M90.032 45.2382C90.0079 45.2484 89.982 45.2536 89.9558 45.2536C89.9296 45.2536 89.9038 45.2484 89.8797 45.2382C89.8519 45.2137 89.8295 45.1835 89.8143 45.1497C89.799 45.1159 89.7911 45.0792 89.7911 45.0422C89.7911 45.0051 89.799 44.9684 89.8143 44.9347C89.8295 44.9009 89.8519 44.8707 89.8797 44.8462L91.7962 42.1021C91.8489 42.0515 91.919 42.0233 91.9921 42.0233C92.0652 42.0233 92.1354 42.0515 92.1882 42.1021C92.2359 42.1605 92.2619 42.2336 92.2619 42.309C92.2619 42.3844 92.2359 42.4575 92.1882 42.5159L90.2499 45.2382C90.2295 45.2782 90.1982 45.3116 90.1597 45.3348C90.1212 45.3579 90.0769 45.3697 90.032 45.3688M59.8473 41.5576C59.7758 41.5579 59.7069 41.531 59.6544 41.4825C59.6019 41.4341 59.5696 41.3675 59.5641 41.2963C59.5612 41.2591 59.5656 41.2217 59.5772 41.1862C59.5887 41.1507 59.6071 41.1178 59.6314 41.0895C59.6557 41.0611 59.6854 41.0379 59.7187 41.0211C59.752 41.0042 59.7882 40.9941 59.8255 40.9914L63.0922 40.7301C63.1294 40.7271 63.1669 40.7315 63.2024 40.743C63.2379 40.7546 63.2707 40.773 63.299 40.7973C63.3274 40.8216 63.3507 40.8513 63.3675 40.8846C63.3843 40.9179 63.3944 40.9542 63.3971 40.9914C63.4035 41.0689 63.3799 41.1459 63.3313 41.2066C63.2828 41.2673 63.2128 41.3072 63.1358 41.3181L59.8691 41.5576H59.8473ZM66.3808 41.0568C66.3093 41.057 66.2404 41.0301 66.1879 40.9816C66.1354 40.9332 66.1031 40.8666 66.0976 40.7954C66.0947 40.7582 66.0991 40.7208 66.1107 40.6853C66.1222 40.6498 66.1406 40.6169 66.1649 40.5886C66.1892 40.5603 66.2189 40.537 66.2522 40.5202C66.2855 40.5033 66.3217 40.4932 66.359 40.4905L69.6257 40.2292C69.6629 40.2262 69.7004 40.2306 69.7359 40.2422C69.7714 40.2537 69.8042 40.2721 69.8325 40.2964C69.8609 40.3207 69.8842 40.3503 69.901 40.3837C69.9178 40.417 69.9279 40.4533 69.9306 40.4905C69.937 40.568 69.9134 40.645 69.8648 40.7057C69.8163 40.7665 69.7463 40.8063 69.6693 40.8172L66.4026 41.0568M72.9361 40.5558C72.8667 40.5558 72.8003 40.5283 72.7513 40.4793C72.7023 40.4303 72.6747 40.3638 72.6747 40.2945C72.6686 40.2585 72.67 40.2216 72.679 40.1862C72.688 40.1507 72.7043 40.1176 72.7268 40.0889C72.7494 40.0601 72.7778 40.0364 72.81 40.0193C72.8423 40.0022 72.8778 39.9921 72.9143 39.9896L76.2028 39.7283C76.2389 39.7253 76.2753 39.7298 76.3095 39.7415C76.3438 39.7533 76.3752 39.7721 76.4018 39.7967C76.4284 39.8212 76.4497 39.8511 76.4641 39.8843C76.4786 39.9175 76.4861 39.9534 76.4859 39.9896C76.4889 40.0268 76.4845 40.0642 76.4729 40.0997C76.4614 40.1352 76.443 40.1681 76.4187 40.1964C76.3944 40.2247 76.3648 40.248 76.3315 40.2648C76.2982 40.2817 76.2618 40.2917 76.2246 40.2945L72.9579 40.5558M79.4914 40.0549C79.4552 40.058 79.4189 40.0534 79.3846 40.0416C79.3504 40.0299 79.319 40.0111 79.2924 39.9865C79.2657 39.962 79.2445 39.9321 79.23 39.8989C79.2156 39.8657 79.2081 39.8298 79.2082 39.7936C79.2021 39.7547 79.2041 39.715 79.2142 39.6769C79.2243 39.6388 79.2423 39.6033 79.2668 39.5726C79.2914 39.5418 79.3222 39.5166 79.3571 39.4984C79.392 39.4802 79.4303 39.4695 79.4696 39.4669L82.7363 39.2273C82.7724 39.2243 82.8088 39.2289 82.843 39.2406C82.8773 39.2524 82.9087 39.2712 82.9353 39.2958C82.9619 39.3203 82.9832 39.3502 82.9976 39.3834C83.0121 39.4166 83.0196 39.4525 83.0194 39.4887C83.0258 39.5605 83.0045 39.6319 82.96 39.6886C82.9155 39.7452 82.8511 39.7828 82.7799 39.7936L79.4914 40.0549ZM93.8868 39.9025C93.8373 39.9191 93.7838 39.9191 93.7343 39.9025C93.6838 39.8498 93.6555 39.7795 93.6555 39.7065C93.6555 39.6334 93.6838 39.5632 93.7343 39.5105L94.1047 38.9878L92.6454 39.1184C92.581 39.1008 92.5243 39.0624 92.4838 39.0093C92.4433 38.9562 92.4213 38.8912 92.4213 38.8245C92.4213 38.7577 92.4433 38.6927 92.4838 38.6396C92.5243 38.5865 92.581 38.5481 92.6454 38.5305L94.6926 38.378C94.7466 38.3732 94.8008 38.3852 94.8476 38.4126C94.8944 38.4399 94.9315 38.4811 94.9539 38.5305C94.9807 38.5768 94.9949 38.6294 94.9949 38.6829C94.9949 38.7364 94.9807 38.789 94.9539 38.8354L94.2353 39.8371C94.2083 39.876 94.1726 39.9081 94.131 39.9308C94.0894 39.9535 94.043 39.9662 93.9957 39.9678M86.1337 39.6194C86.0586 39.6194 85.9866 39.5895 85.9335 39.5364C85.8804 39.4833 85.8506 39.4113 85.8506 39.3362C85.8476 39.3001 85.8521 39.2638 85.8639 39.2295C85.8757 39.1953 85.8945 39.1638 85.919 39.1372C85.9436 39.1106 85.9734 39.0894 86.0066 39.0749C86.0399 39.0604 86.0757 39.053 86.1119 39.0531L89.3787 38.7918C89.4538 38.7918 89.5258 38.8216 89.5789 38.8747C89.6319 38.9278 89.6618 38.9998 89.6618 39.0749C89.6618 39.15 89.6319 39.222 89.5789 39.2751C89.5258 39.3282 89.4538 39.358 89.3787 39.358L86.1119 39.6194H86.1337Z" fill="#13110C"/>
<path d="M57.0371 34.0862V19.2334L61.1532 23.2188V33.6724L57.0371 34.0862ZM57.5162 20.4094V33.4764L60.6523 33.1715V23.4802L57.5162 20.4094Z" fill="#0A0A09"/>
<path d="M59.7168 23.9814V18.1449L68.5806 8.71484V14.8999L59.7168 23.9814ZM60.2178 18.3626V22.7183L68.1015 14.6386V9.91266L60.2178 18.3626Z" fill="#0A0A09"/>
<path d="M74.5465 21.172L68.4268 14.8999V8.71484L77.3994 18.2538L74.5465 21.172ZM68.8624 14.7692L74.503 20.5405L76.6808 18.3626L68.8624 9.95619V14.7692Z" fill="#0A0A09"/>
<path d="M72.1953 12.7869C72.1739 13.5443 71.9297 14.2786 71.4934 14.898C71.057 15.5174 70.4478 15.9945 69.7418 16.2697C69.0359 16.5448 68.2644 16.6058 67.524 16.445C66.7836 16.2842 66.1069 15.9087 65.5786 15.3655C65.0504 14.8223 64.6939 14.1355 64.5538 13.3909C64.4137 12.6462 64.4961 11.8768 64.7908 11.1788C65.0855 10.4808 65.5794 9.88501 66.2107 9.46606C66.842 9.04712 67.5828 8.82354 68.3405 8.82324C68.8543 8.82891 69.362 8.93609 69.8342 9.13864C70.3064 9.34118 70.734 9.63508 71.0922 10.0034C71.4504 10.3718 71.7323 10.8073 71.9217 11.285C72.111 11.7627 72.204 12.2731 72.1953 12.7869Z" fill="white"/>
<path d="M68.339 16.947C67.4983 16.973 66.6689 16.7475 65.9572 16.2994C65.2454 15.8512 64.6836 15.2008 64.3437 14.4314C64.0038 13.6621 63.9013 12.8088 64.0493 11.9808C64.1973 11.1528 64.5889 10.3878 65.1742 9.7838C65.7596 9.17979 66.5119 8.7642 67.3348 8.59031C68.1577 8.41641 69.0138 8.4921 69.7935 8.80767C70.5732 9.12325 71.2409 9.66438 71.7112 10.3617C72.1815 11.0591 72.433 11.8809 72.4334 12.722C72.442 13.2683 72.343 13.8109 72.1419 14.3189C71.9408 14.8269 71.6416 15.2903 71.2614 15.6826C70.8812 16.075 70.4274 16.3885 69.926 16.6055C69.4246 16.8224 68.8853 16.9385 68.339 16.947ZM68.339 9.01969C67.5973 8.998 66.866 9.19841 66.239 9.59518C65.6119 9.99196 65.1176 10.567 64.8196 11.2466C64.5216 11.9262 64.4334 12.6793 64.5664 13.4093C64.6993 14.1394 65.0473 14.8131 65.5657 15.344C66.0841 15.8749 66.7493 16.2388 67.476 16.3891C68.2026 16.5394 68.9577 16.4691 69.6442 16.1874C70.3307 15.9057 70.9173 15.4253 71.3289 14.8078C71.7405 14.1904 71.9582 13.464 71.9542 12.722C71.9599 12.2415 71.871 11.7646 71.6925 11.3185C71.5139 10.8724 71.2492 10.4658 70.9135 10.122C70.5778 9.77823 70.1777 9.50392 69.7359 9.31478C69.2942 9.12564 68.8195 9.02537 68.339 9.01969Z" fill="#0A0A09"/>
<path d="M62.9408 21.7813C62.9152 22.5376 62.6675 23.2697 62.2286 23.8862C61.7898 24.5026 61.1791 24.9763 60.4728 25.2482C59.7666 25.52 58.996 25.5779 58.2571 25.4148C57.5182 25.2516 56.8436 24.8745 56.3175 24.3306C55.7914 23.7867 55.4369 23.0999 55.2985 22.3559C55.16 21.612 55.2436 20.8437 55.5388 20.1469C55.834 19.4501 56.3278 18.8556 56.9586 18.4376C57.5893 18.0195 58.3293 17.7963 59.086 17.7959C59.6008 17.8044 60.1089 17.9143 60.5813 18.1192C61.0536 18.3241 61.4811 18.62 61.839 18.9901C62.197 19.3602 62.4785 19.7972 62.6675 20.2761C62.8566 20.7551 62.9495 21.2665 62.9408 21.7813Z" fill="white"/>
<path d="M59.0858 26.0062C58.2459 26.0279 57.4185 25.7986 56.7096 25.3477C56.0006 24.8968 55.4422 24.2448 55.1057 23.4749C54.7691 22.7051 54.6698 21.8524 54.8203 21.0257C54.9708 20.1991 55.3644 19.4362 55.9507 18.8344C56.537 18.2325 57.2894 17.8192 58.1118 17.6471C58.9342 17.4751 59.7892 17.5522 60.5676 17.8685C61.3459 18.1848 62.0124 18.7261 62.4817 19.423C62.9509 20.12 63.2017 20.941 63.202 21.7812C63.2136 22.8865 62.7871 23.9514 62.0158 24.7431C61.2444 25.5349 60.1911 25.989 59.0858 26.0062ZM59.0858 18.0571C58.345 18.0354 57.6146 18.2353 56.988 18.6311C56.3615 19.0269 55.8672 19.6007 55.5685 20.279C55.2699 20.9573 55.1804 21.7093 55.3116 22.4387C55.4428 23.1681 55.7886 23.8418 56.3048 24.3736C56.821 24.9054 57.4843 25.271 58.2095 25.4238C58.9347 25.5765 59.6889 25.5094 60.3757 25.231C61.0626 24.9526 61.6508 24.4756 62.0651 23.8611C62.4793 23.2465 62.7007 22.5223 62.701 21.7812C62.7126 20.8088 62.339 19.8712 61.6617 19.1734C60.9843 18.4756 60.0582 18.0743 59.0858 18.0571Z" fill="#0A0A09"/>
<path d="M78.9249 25.6576L75.2662 24.634L74.2861 20.8228L76.9648 18.0352L80.6237 19.0587L81.6036 22.8482L80.9939 23.4797L78.62 21.0188L77.1391 22.5433L79.5348 25.026L78.9249 25.6576ZM75.6582 24.2202L78.7725 25.0913L76.3769 22.5868L78.5547 20.409L80.9285 22.8699L80.0792 19.6032L76.9866 18.7538L74.8088 21.1277L75.6582 24.2202Z" fill="#0A0A09"/>
<path d="M68.3412 14.5068C67.9992 14.5155 67.6624 14.422 67.3738 14.2383C67.0852 14.0546 66.8579 13.789 66.721 13.4755C66.5841 13.162 66.5437 12.8147 66.6051 12.4782C66.6665 12.1416 66.8267 11.831 67.0655 11.586C67.3043 11.341 67.6107 11.1728 67.9456 11.1028C68.2805 11.0328 68.6287 11.0642 68.9456 11.1931C69.2625 11.3219 69.5338 11.5423 69.7248 11.8261C69.9158 12.1099 70.0181 12.4442 70.0182 12.7863C70.021 13.0094 69.9799 13.2309 69.8972 13.4381C69.8145 13.6453 69.6918 13.8341 69.536 13.9939C69.3803 14.1537 69.1946 14.2812 68.9896 14.3692C68.7846 14.4572 68.5643 14.504 68.3412 14.5068ZM68.3412 11.5667C68.0983 11.5581 67.8583 11.6222 67.6521 11.7508C67.4459 11.8794 67.2828 12.0667 67.1838 12.2887C67.0848 12.5106 67.0543 12.7571 67.0964 12.9964C67.1384 13.2358 67.2511 13.4572 67.4198 13.6321C67.5885 13.8071 67.8055 13.9276 68.0432 13.9783C68.2809 14.029 68.5283 14.0075 68.7537 13.9166C68.9791 13.8258 69.1722 13.6696 69.3082 13.4682C69.4443 13.2668 69.517 13.0294 69.5172 12.7863C69.5201 12.629 69.4919 12.4727 69.4344 12.3263C69.3768 12.1798 69.291 12.0462 69.1818 11.9329C69.0726 11.8197 68.9422 11.729 68.7979 11.6662C68.6537 11.6034 68.4985 11.5696 68.3412 11.5667Z" fill="#0A0A09"/>
<path d="M59.0848 23.6109C58.6285 23.6109 58.191 23.4296 57.8683 23.107C57.5457 22.7843 57.3643 22.3467 57.3643 21.8904C57.3643 21.4341 57.5457 20.9965 57.8683 20.6738C58.191 20.3512 58.6285 20.1699 59.0848 20.1699C59.5411 20.1699 59.9787 20.3512 60.3014 20.6738C60.624 20.9965 60.8053 21.4341 60.8053 21.8904C60.8053 22.3467 60.624 22.7843 60.3014 23.107C59.9787 23.4296 59.5411 23.6109 59.0848 23.6109ZM59.0848 20.6926C58.841 20.6839 58.6002 20.7486 58.3935 20.8782C58.1868 21.0078 58.0238 21.1964 57.9255 21.4196C57.8271 21.6428 57.7979 21.8905 57.8417 22.1305C57.8855 22.3704 58.0003 22.5918 58.1712 22.7659C58.3422 22.9399 58.5612 23.0587 58.8004 23.107C59.0395 23.1552 59.2877 23.1306 59.5127 23.0363C59.7377 22.942 59.9293 22.7824 60.0626 22.5782C60.196 22.3739 60.265 22.1343 60.2608 21.8904C60.2609 21.5765 60.1377 21.2751 59.9177 21.051C59.6978 20.827 59.3987 20.6983 59.0848 20.6926Z" fill="#0A0A09"/>
<path d="M59.3456 25.7451H58.8447V33.6289H59.3456V25.7451Z" fill="#0A0A09"/>
<path d="M62.0683 19.1025L61.7197 18.7323L65.2261 15.0518L65.5745 15.4002L62.0683 19.1025Z" fill="#0A0A09"/>
<path d="M75.6571 19.6689L71.3232 15.2479L71.6716 14.8994L76.0056 19.3204L75.6571 19.6689Z" fill="#0A0A09"/>
<path d="M69.5372 53.4249C69.3819 53.4281 69.2295 53.3824 69.1016 53.2942L64.2887 50.1799C64.2351 50.1473 64.1895 50.1029 64.1555 50.0501C64.1216 49.9972 64.1001 49.9374 64.0927 49.875C64.0524 49.7698 64.0524 49.6535 64.0927 49.5483L67.2505 45.1927C67.3949 45.0243 67.5967 44.9156 67.8168 44.8878L75.7876 43.6029C75.9903 43.5217 76.2164 43.5217 76.4191 43.6029L81.2322 46.7172C81.2859 46.7498 81.3314 46.7942 81.3654 46.847C81.3993 46.8998 81.4209 46.9597 81.4283 47.0221C81.4532 47.0729 81.4661 47.1288 81.4661 47.1854C81.4661 47.242 81.4532 47.2979 81.4283 47.3488L78.2704 51.7044C78.1289 51.8763 77.9255 51.9858 77.7041 52.0093L69.755 53.2942H69.559M64.5065 49.7879L69.2759 52.8804C69.3685 52.9065 69.4665 52.9065 69.559 52.8804L77.5298 51.5955C77.6084 51.6158 77.6909 51.6158 77.7695 51.5955L80.8838 47.2399L76.1361 44.1473C76.0436 44.1213 75.9456 44.1213 75.853 44.1473L67.8821 45.4322C67.7296 45.4322 67.6425 45.4323 67.6425 45.5411L64.5065 49.7879ZM72.2159 50.4195C71.9696 50.4411 71.7219 50.4411 71.4755 50.4195C71.0807 50.409 70.6951 50.2973 70.3558 50.0952C70.0164 49.8931 69.7346 49.6074 69.5372 49.2652C69.4573 49.0485 69.4333 48.8152 69.4676 48.5867C69.5019 48.3583 69.5933 48.1422 69.7333 47.9585C70.2677 47.4101 70.9279 47.0005 71.6566 46.7652C72.3853 46.5299 73.1605 46.476 73.9147 46.6083C74.314 46.6235 74.703 46.7392 75.0456 46.9448C75.3883 47.1504 75.6733 47.4392 75.8747 47.7843C75.9562 47.9984 75.9792 48.2305 75.9409 48.4564C75.9026 48.6823 75.8045 48.8939 75.6569 49.0692C75.2215 49.5407 74.6873 49.9101 74.0924 50.1511C73.4976 50.392 72.8568 50.4986 72.2159 50.463M73.2178 47.0656C72.6477 47.0425 72.0789 47.1369 71.5469 47.343C71.0149 47.5491 70.5311 47.8624 70.1253 48.2634C70.0335 48.3695 69.9728 48.4987 69.9497 48.6371C69.9267 48.7754 69.9422 48.9174 69.9946 49.0475C70.1573 49.3119 70.3845 49.5307 70.655 49.6831C70.9255 49.8355 71.2303 49.9165 71.5408 49.9186C72.2086 50.0287 72.8928 49.9818 73.5392 49.7814C74.1856 49.581 74.7766 49.2328 75.265 48.7643C75.3545 48.6571 75.4154 48.529 75.442 48.3919C75.4687 48.2549 75.4602 48.1132 75.4174 47.9803C75.2498 47.7155 75.0184 47.497 74.7444 47.3448C74.4705 47.1926 74.1627 47.1116 73.8493 47.1092H73.2178" fill="#0A0A09"/>
<path d="M69.5152 51.0522C68.2343 51.0083 66.9519 51.0738 65.6822 51.2482C66.7372 51.0689 67.7779 50.8141 68.7965 50.486H68.9055C69.1886 50.3553 69.4281 50.1158 69.3627 49.9633C69.2974 49.8109 69.1667 49.8544 68.9707 49.8326C68.0356 49.8559 67.1097 50.0249 66.2266 50.3335L67.5987 49.7237C67.9557 49.5994 68.2771 49.3902 68.5351 49.114C68.577 49.0672 68.6045 49.0094 68.6144 48.9474C68.6242 48.8855 68.616 48.822 68.5907 48.7646C68.5654 48.7071 68.5242 48.6582 68.4719 48.6236C68.4195 48.589 68.3583 48.5702 68.2956 48.5695C67.8513 48.5648 67.4119 48.6616 67.0108 48.8526L64.7023 49.8108C64.848 49.7396 64.9774 49.639 65.0823 49.5153C65.1872 49.3916 65.2654 49.2475 65.312 49.0922C65.326 49.0578 65.3301 49.0201 65.3236 48.9835C65.317 48.9469 65.3001 48.913 65.275 48.8856C65.2499 48.8582 65.2176 48.8385 65.1817 48.8288C65.1459 48.8191 65.1079 48.8198 65.0725 48.8308C63.5333 49.2075 62.0633 49.8249 60.7168 50.6602L61.2831 54.0576C63.1773 54.2258 65.0846 54.1747 66.9672 53.9052C67.1414 53.6874 66.8147 53.4261 66.5316 53.339C65.6912 53.102 64.8311 52.9416 63.9617 52.8598C65.7258 52.6203 67.4898 52.3371 69.2321 51.9887C69.3755 51.9711 69.5123 51.9181 69.6302 51.8345C69.748 51.7508 69.8432 51.6391 69.9072 51.5096C69.9072 51.2918 69.6459 51.1393 69.4063 51.1393" fill="#CA5098"/>
<path d="M90.8601 78.1657H90.6424C90.4681 78.1657 90.2503 77.9262 90.2068 77.3382L89.793 68.2348C89.7968 67.3163 90.0612 66.4176 90.5553 65.6432L97.5678 55.4509C97.9163 54.95 98.2212 54.9065 98.3954 54.9718C98.5697 55.0372 98.8092 55.2114 98.831 55.7994L99.3537 64.8592C99.3581 65.7827 99.1013 66.6886 98.6132 67.4726L91.6006 77.6431C91.3175 78.0568 91.0779 78.1657 90.8819 78.1657M98.3736 55.4292C98.3736 55.4292 98.2429 55.4292 98.0687 55.7341L91.0561 65.9045C90.6357 66.5949 90.403 67.3832 90.381 68.1913L90.8166 77.2946C90.8166 77.556 90.8166 77.6431 90.8166 77.6649C90.8166 77.6866 90.9472 77.6649 91.1214 77.36L98.1123 67.1677C98.5385 66.4798 98.7717 65.69 98.7874 64.881L98.3736 55.7994C98.3983 55.6772 98.3983 55.5514 98.3736 55.4292Z" fill="#0A0A09"/>
<path d="M92.013 70.9359H91.8605C91.6428 70.9359 91.3814 70.6528 91.3379 69.9341C91.3473 68.7469 91.6866 67.5857 92.3179 66.5802C92.7535 65.9486 93.1237 65.8833 93.3415 65.9704C93.5592 66.0575 93.8206 66.2535 93.8641 66.9722C93.8547 68.1594 93.5155 69.3206 92.8842 70.3261C92.5357 70.827 92.2308 70.9577 92.013 70.9577M93.189 66.4495C93.189 66.4495 92.9713 66.4495 92.7317 66.8851C92.1487 67.7871 91.8386 68.8383 91.8387 69.9123C91.8387 70.3261 91.9694 70.435 91.9912 70.4568C92.013 70.4785 92.2091 70.4567 92.4704 70.0212C93.05 69.1176 93.3597 68.0675 93.3633 66.994C93.3633 66.5802 93.2326 66.4495 93.2108 66.4495" fill="#0A0A09"/>
<path d="M92.8198 68.0384C92.8211 68.3315 92.738 68.6188 92.5802 68.8659C92.4278 69.0837 92.2971 69.0619 92.2971 68.8659C92.2918 68.5722 92.3753 68.2838 92.5366 68.0384C92.6891 67.8424 92.798 67.8641 92.8198 68.0384Z" fill="#0A0A09"/>
<path d="M96.4124 65.0555H96.26C96.0422 65.0555 95.7809 64.7506 95.7373 64.0319C95.7534 62.8457 96.0921 61.6863 96.7172 60.6781C97.1528 60.0465 97.5231 60.0029 97.7409 60.0683C97.9587 60.1336 98.22 60.3514 98.2417 61.0701C98.2507 62.2568 97.918 63.4211 97.2835 64.4239C96.935 64.9248 96.6302 65.0773 96.4124 65.0773M97.5884 60.5474C97.5884 60.5474 97.3706 60.5474 97.131 60.983C96.5514 61.8865 96.2417 62.9367 96.2382 64.0101C96.2382 64.4239 96.3688 64.5546 96.3906 64.5546C96.4124 64.5546 96.6083 64.5546 96.8697 64.1408C97.4471 63.2363 97.7568 62.1867 97.7627 61.1136C97.7627 60.6781 97.632 60.5692 97.6102 60.5474" fill="#0A0A09"/>
<path d="M97.1769 62.1592C97.1716 62.4513 97.0889 62.7369 96.9374 62.9868C96.785 63.1828 96.6543 63.161 96.6543 62.9868C96.6432 62.6923 96.7272 62.4022 96.8938 62.1592C97.0463 61.9414 97.1552 61.9849 97.1769 62.1592Z" fill="#0A0A09"/>
<path d="M91.7759 64.6417C91.714 64.6367 91.6559 64.6099 91.612 64.566C91.5681 64.5221 91.5412 64.464 91.5362 64.4021L91.2749 58.6309C91.2651 58.5732 91.2651 58.5143 91.2749 58.4567L92.1025 57.2807C92.1288 57.2371 92.1683 57.203 92.2153 57.1835C92.2623 57.1639 92.3143 57.1598 92.3638 57.1718C92.4137 57.1894 92.4571 57.2217 92.4882 57.2645C92.5193 57.3072 92.5367 57.3585 92.5381 57.4113L92.7994 63.2044C92.7994 63.335 92.7994 63.4439 92.5599 63.4657C92.5284 63.4657 92.4972 63.4595 92.4682 63.4475C92.4391 63.4354 92.4128 63.4178 92.3905 63.3955C92.3683 63.3733 92.3506 63.3469 92.3385 63.3178C92.3265 63.2888 92.3203 63.2576 92.3203 63.2261L92.0807 58.1735L91.7323 58.6962L91.9936 64.3804C91.9966 64.4136 91.9927 64.4471 91.982 64.4787C91.9714 64.5104 91.9542 64.5394 91.9317 64.564C91.9091 64.5887 91.8817 64.6083 91.8511 64.6216C91.8205 64.635 91.7875 64.6418 91.7541 64.6417" fill="#0A0A09"/>
<path d="M96.1717 58.3258C96.1098 58.3209 96.0518 58.294 96.0079 58.2501C95.964 58.2062 95.9371 58.1481 95.9321 58.0863L95.6708 52.2932C95.6579 52.2432 95.6579 52.1908 95.6708 52.1408L96.4984 50.943C96.5361 50.9147 96.5819 50.8994 96.6291 50.8994C96.6762 50.8994 96.722 50.9147 96.7597 50.943C96.8097 50.9532 96.8544 50.9805 96.8863 51.0203C96.9181 51.0601 96.935 51.1098 96.934 51.1608L97.1953 56.9538C97.1983 56.9853 97.195 57.017 97.1856 57.0473C97.1763 57.0775 97.1611 57.1055 97.1408 57.1298C97.1206 57.1541 97.0957 57.1742 97.0677 57.1888C97.0397 57.2035 97.009 57.2124 96.9775 57.2151C96.9139 57.2151 96.853 57.1899 96.8081 57.145C96.7632 57.1 96.7379 57.0391 96.7379 56.9756L96.5202 51.7923L96.1717 52.315L96.433 57.9992C96.4338 58.0673 96.4101 58.1334 96.3661 58.1854C96.3221 58.2374 96.2608 58.2718 96.1935 58.2823" fill="#0A0A09"/>
<path d="M34.8463 19.125C34.8225 19.1134 34.7964 19.1074 34.77 19.1074C34.7435 19.1074 34.7175 19.1134 34.6938 19.125C34.6345 19.1241 34.5758 19.1375 34.5227 19.164C34.4697 19.1905 34.4238 19.2295 34.3889 19.2774V19.4516C34.3665 19.5299 34.3665 19.6129 34.3889 19.6912C34.3987 19.7294 34.4164 19.7651 34.4408 19.7961C34.4653 19.8271 34.4958 19.8526 34.5307 19.8711C34.5656 19.8895 34.6038 19.9005 34.6431 19.9033C34.6825 19.9061 34.7221 19.9006 34.7592 19.8872C34.8336 19.8603 34.8991 19.8137 34.949 19.7523C34.9989 19.6909 35.0311 19.6171 35.0422 19.5388C35.0859 19.4267 35.0859 19.3023 35.0422 19.1903" fill="#142B2A"/>
<path d="M39.5712 19.4072C39.5474 19.3957 39.5214 19.3896 39.495 19.3896C39.4686 19.3896 39.4425 19.3957 39.4187 19.4072C39.3013 19.4169 39.1921 19.4715 39.1139 19.5597C39.0857 19.6224 39.0489 19.681 39.0049 19.7339C38.9853 19.8199 38.9853 19.9092 39.0049 19.9952C39.014 20.0335 39.0316 20.0693 39.0564 20.0998C39.0812 20.1304 39.1125 20.1549 39.1481 20.1717C39.1837 20.1884 39.2225 20.1969 39.2619 20.1965C39.3012 20.1961 39.34 20.1869 39.3753 20.1694C39.4486 20.1373 39.5138 20.0895 39.5665 20.0292C39.6192 19.969 39.658 19.8979 39.6801 19.821C39.7122 19.7145 39.7122 19.6009 39.6801 19.4943" fill="#142B2A"/>
<path d="M34.1495 18.8859C34.0932 18.9058 34.0316 18.9058 33.9753 18.8859C33.9381 18.8395 33.918 18.7819 33.918 18.7225C33.918 18.6632 33.9381 18.6056 33.9753 18.5592C34.2418 18.3885 34.5517 18.2978 34.8682 18.2979H35.2384C35.2923 18.3084 35.3403 18.339 35.3726 18.3835C35.4049 18.4279 35.4192 18.4829 35.4127 18.5374C35.4024 18.5931 35.3727 18.6434 35.3288 18.6793C35.285 18.7152 35.2298 18.7344 35.1732 18.7334H34.8682C34.6423 18.7303 34.421 18.7989 34.2366 18.9294H34.1059" fill="#142B2A"/>
<path d="M39.3529 19.124C39.3063 19.1204 39.2615 19.1044 39.2232 19.0776C39.1849 19.0507 39.1544 19.0141 39.135 18.9716C39.1194 18.9165 39.1241 18.8578 39.1481 18.8058C39.172 18.7539 39.2137 18.7123 39.2657 18.6885C39.4653 18.6338 39.676 18.6338 39.8756 18.6885C39.9213 18.7103 39.9579 18.7474 39.9792 18.7934C40.0006 18.8394 40.0052 18.8914 39.9923 18.9404C39.9794 18.9894 39.9499 19.0324 39.9087 19.0619C39.8675 19.0915 39.8173 19.1058 39.7667 19.1023C39.6528 19.0696 39.532 19.0696 39.4182 19.1023" fill="#142B2A"/>
</svg>
