<svg width="80" height="111" viewBox="0 0 80 111" fill="none" xmlns="http://www.w3.org/2000/svg">
<path d="M49.4498 92.0446C49.4718 92.0539 49.4955 92.0587 49.5194 92.0587C49.5434 92.0587 49.5671 92.0539 49.5892 92.0446C52.4355 88.8812 55.0379 85.5066 57.3742 81.9498C62.1926 74.5032 63.686 68.8286 61.8343 65.1252C60.4008 62.2581 56.2792 60.3268 49.5892 59.391C46.4165 58.9522 43.2146 58.7592 40.0121 58.8136C39.9894 58.8134 39.9669 58.8181 39.9461 58.8273C39.9254 58.8365 39.9069 58.8501 39.8918 58.867C39.8767 58.884 39.8655 58.904 39.8588 58.9257C39.852 58.9474 39.85 58.9702 39.8528 58.9928C39.8528 59.0403 39.8717 59.0858 39.9053 59.1194C39.9389 59.1531 39.9845 59.1719 40.0321 59.1719C40.2112 59.1719 58.2105 58.6941 61.5157 65.2846C65.8363 73.8661 49.5693 91.6265 49.3303 91.8057C49.3009 91.8385 49.2848 91.881 49.2848 91.9251C49.2848 91.9692 49.3009 92.0117 49.3303 92.0446H49.4498Z" fill="#13110C"/>
<path d="M38.6596 22.5762C38.6596 22.5762 39.1176 32.5316 36.0314 35.6575C36.0314 35.6575 35.8123 55.4289 39.0976 61.6809C39.0976 61.6809 49.4911 34.1045 38.6596 22.5762Z" fill="#0095D4"/>
<path d="M46.7211 6.03125C46.7417 8.31904 46.5618 10.6042 46.1834 12.8606C45.8014 15.1189 44.8641 17.2468 43.4557 19.0529C43.0579 19.5621 42.5465 19.9713 41.9624 20.2475C41.361 20.4425 40.7161 20.4598 40.1051 20.2973C39.4941 20.1348 38.943 19.7995 38.5179 19.3316C37.676 18.3748 37.0813 17.2263 36.7856 15.9866C36.028 13.3557 35.7117 10.6173 35.8498 7.88293" fill="#E3E3E3"/>
<path d="M12.5559 30.939C16.5381 28.5099 16.8765 22.0589 18.7282 17.5192C20.5799 12.9796 23.447 13.2782 27.0708 11.9641C30.6945 10.65 30.6148 8.12132 32.367 5.49311C34.1191 2.86489 37.962 -0.480135 41.7849 0.0574549C45.6077 0.595045 49.2513 3.28303 48.1761 8.12134C47.1009 12.9596 46.185 12.86 46.185 12.86C46.6825 10.9989 46.4474 9.01783 45.5281 7.32486C44.1343 10.9287 42.2626 10.6699 38.818 10.8491C35.3735 11.0283 36.5682 14.9905 36.5682 14.9905C37.6036 24.2291 14.5071 44.8566 14.5071 44.8566C0.191303 48.998 8.5339 33.3482 12.516 30.9191" fill="#142B2A"/>
<path d="M39.0961 61.6815C39.0961 61.6815 32.2269 61.6815 31.1318 61.6815C30.0367 61.6815 26.9705 58.3763 26.9705 58.3763L34.9348 35.5586H36.1095L39.1758 46.5891L39.0961 61.6815Z" fill="#0095D4"/>
<path d="M48.9724 53.1395H78.8384C78.886 53.1395 78.9316 53.1206 78.9652 53.087C78.9988 53.0534 79.0176 53.0079 79.0176 52.9603C79.0176 52.9128 78.9988 52.8673 78.9652 52.8337C78.9316 52.8001 78.886 52.7812 78.8384 52.7812H48.9724C48.9248 52.7812 48.8792 52.8001 48.8456 52.8337C48.812 52.8673 48.7931 52.9128 48.7931 52.9603C48.7931 53.0079 48.812 53.0534 48.8456 53.087C48.8792 53.1206 48.9248 53.1395 48.9724 53.1395Z" fill="#13110C"/>
<path d="M47.2774 32.2927C47.2774 32.2927 49.0097 26.8571 52.7131 26.3195C56.4165 25.7819 55.182 26.7376 54.7042 26.8172C53.7569 27.0244 52.8305 27.3177 51.9366 27.6933C51.9366 27.6933 54.744 27.0363 54.8635 27.4544C54.983 27.8725 52.8724 28.0716 52.4941 28.4499C52.4941 28.4499 55.1622 27.8725 55.2219 28.2906C55.2816 28.7087 53.0714 28.8282 52.7529 29.2264C52.7529 29.2264 54.9032 28.6888 54.7439 29.2264C54.5846 29.764 53.1909 29.7441 52.7529 30.1224C52.3148 30.5007 51.8967 32.4122 50.3039 31.8746C50.0756 32.9369 49.7003 33.9622 49.1889 34.9209" fill="#9BCEA4"/>
<path d="M33.901 108.093C33.9405 106.813 34.0602 105.536 34.2594 104.27C34.265 104.154 34.3068 104.043 34.3789 103.952C34.4822 103.874 34.608 103.832 34.7372 103.832L36.7283 103.713C39.0066 105.858 42.0211 107.048 45.1506 107.038C44.1834 105.738 43.0136 104.602 41.6861 103.673H43.1596C45.8475 105.664 48.6748 107.794 49.75 111C45.2381 110.35 40.7748 109.399 36.3899 108.153L36.2704 108.949L34.4983 108.71C34.3282 108.712 34.1641 108.648 34.0404 108.531C34.0005 108.388 34.0005 108.236 34.0404 108.093" fill="#9BCEA4"/>
<path d="M45.845 98.6357C47.3045 99.836 48.4293 101.393 49.1104 103.155C47.3184 102.897 45.5264 102.598 43.7544 102.22L45.845 98.6357Z" fill="#9BCEA4"/>
<path d="M43.1978 103.254C43.2225 103.266 43.2499 103.273 43.2775 103.273C43.3051 103.273 43.3324 103.266 43.3571 103.254C43.3571 103.254 47.0008 97.1812 50.5648 90.093C55.3434 80.5558 57.7725 73.7463 57.7725 69.8438C57.7695 69.1842 57.63 68.5322 57.3627 67.9291C57.0954 67.326 56.7062 66.7848 56.2195 66.3395C53.8103 63.9701 48.6732 62.4768 40.9479 61.8596C37.331 61.5838 33.7017 61.5106 30.0767 61.6405C28.4396 62.1264 26.8474 62.7526 25.318 63.5122C22.0526 65.1648 20.1611 66.9965 19.7032 68.9876C19.5696 70.0474 19.7226 71.1237 20.1464 72.1042C20.5701 73.0847 21.249 73.9337 22.1124 74.5627C25.6565 77.8678 31.4306 78.5448 38.7777 76.5537C41.907 75.6402 44.9409 74.4266 47.837 72.93C45.3482 75.817 42.6204 81.3124 39.7333 89.3563C37.3839 95.9269 35.7512 101.82 35.7512 101.88C35.7415 101.926 35.7415 101.974 35.7512 102.02C35.7512 102.02 35.7512 102.02 35.8707 102.02L43.0584 103.274M33.3022 61.8795C39.2754 61.8795 51.6201 62.4171 55.8412 66.5386C56.2921 66.9517 56.6537 67.4528 56.9037 68.011C57.1536 68.5691 57.2867 69.1726 57.2946 69.7841C57.2946 78.6643 43.9942 101.183 42.9788 102.896L36.1096 101.701C36.7268 99.4511 42.72 78.0869 48.753 72.3327C48.7823 72.2998 48.7985 72.2573 48.7985 72.2132C48.7985 72.1691 48.7823 72.1265 48.753 72.0937C48.7234 72.0657 48.6842 72.0501 48.6435 72.0501C48.6027 72.0501 48.5634 72.0657 48.5339 72.0937C48.3547 72.2131 30.6142 82.0491 22.1521 74.3237C21.3269 73.7167 20.6855 72.8934 20.299 71.9446C19.9125 70.9959 19.7959 69.9587 19.962 68.9478C20.9774 64.5675 29.6187 61.999 30.0767 61.8596C30.5346 61.7202 31.5102 61.8596 33.4017 61.8596" fill="#13110C"/>
<path d="M35.1552 20.6854C35.1552 20.6854 24.5826 18.3359 15.9811 34.1052C7.37969 49.8745 4.79134 63.7124 9.55 84.8576C9.55 84.8576 18.908 88.6406 36.0312 83.5634C36.0312 83.5634 26.5338 63.9713 36.0312 35.6582C36.0312 35.6582 31.6111 30.5013 35.1552 20.6854Z" fill="#0095D4"/>
<path d="M46.7422 32.9893C46.7422 32.9893 36.7868 54.672 29.4597 34.1043C29.4597 34.1043 21.3162 38.6638 20.2211 45.5729C20.2211 45.5729 22.2121 59.0126 33.4816 58.3356C44.751 57.6587 49.4102 36.613 49.4102 36.613L46.7422 32.9893Z" fill="#0095D4"/>
<path d="M32.686 58.5559H33.4823C38.1215 58.2771 42.3825 54.3945 45.827 47.3461C47.4631 43.9358 48.7441 40.3663 49.6499 36.6939C49.6604 36.6721 49.666 36.6484 49.666 36.6242C49.666 36.6001 49.6604 36.5762 49.6499 36.5545L46.9023 32.9308C46.8775 32.9185 46.8502 32.9121 46.8226 32.9121C46.7949 32.9121 46.7677 32.9185 46.743 32.9308C46.743 32.9308 46.6235 32.9308 46.6036 32.9308C46.5837 32.9308 41.9843 42.8861 36.9071 42.8861H36.7278C34.0199 42.7468 31.6506 39.8198 29.6396 34.1453C29.6172 34.1029 29.5825 34.0682 29.5401 34.0458H29.4007C27.8797 34.9125 26.4519 35.9333 25.1397 37.0921C22.5701 39.2706 20.7806 42.2274 20.0426 45.5144C20.0426 45.6537 22.193 58.4762 32.686 58.4762M49.2915 36.5744C48.953 38.0279 44.0151 57.4409 33.3629 58.078C22.7106 58.7152 20.4209 46.1316 20.3015 45.4944C21.0171 42.2941 22.7664 39.4183 25.2791 37.3111C26.5075 36.1783 27.8409 35.1649 29.2613 34.2847C31.2524 39.9791 33.7611 42.9259 36.5884 43.0653C38.8383 43.0653 41.2675 41.5123 43.7364 38.1076C44.8539 36.578 45.8334 34.9522 46.6632 33.2493L49.2915 36.5744Z" fill="white"/>
<path d="M20.2806 93.24C22.6854 93.1966 25.0857 93.0105 27.4684 92.6825C27.5759 92.6675 27.6734 92.6114 27.7403 92.5259C27.8072 92.4405 27.8382 92.3324 27.8268 92.2245C27.812 92.1154 27.7566 92.0159 27.6717 91.9458C27.5869 91.8757 27.4787 91.8402 27.3688 91.8462C21.1566 92.6028 15.1834 93.0209 10.584 89.8551C5.98466 86.6893 3.87417 79.8997 2.91846 75.3004C0.723446 64.6507 0.433588 53.6963 2.06231 42.9454C2.0797 42.8373 2.0539 42.7267 1.99061 42.6374C1.92732 42.548 1.83161 42.4871 1.72386 42.4676C1.66887 42.4592 1.61266 42.4618 1.55871 42.4753C1.50475 42.4888 1.4541 42.513 1.4096 42.5463C1.36509 42.5797 1.32771 42.6217 1.29962 42.6697C1.27152 42.7177 1.25321 42.7708 1.2459 42.826C-0.405197 53.6761 -0.108526 64.7336 2.12198 75.4796C4.11305 85.4349 7.67707 88.8795 10.0863 90.552C13.1129 92.4738 16.6598 93.4126 20.2408 93.24" fill="#CA5098"/>
<path d="M18.5672 100.049C18.6221 100.049 18.6765 100.039 18.7272 100.018C18.778 99.9966 18.824 99.9658 18.8629 99.927C18.9017 99.8882 18.9325 99.8421 18.9535 99.7913C18.9745 99.7406 18.9854 99.6863 18.9854 99.6313V92.9015C18.9854 92.7906 18.9413 92.6842 18.8629 92.6058C18.7844 92.5274 18.6781 92.4834 18.5672 92.4834C18.4563 92.4834 18.3499 92.5274 18.2715 92.6058C18.1931 92.6842 18.1491 92.7906 18.1491 92.9015V99.6313C18.1464 99.6853 18.1546 99.7392 18.1734 99.7899C18.1922 99.8405 18.2211 99.8867 18.2584 99.9259C18.2956 99.965 18.3405 99.9961 18.3901 100.017C18.4398 100.039 18.4932 100.05 18.5473 100.049" fill="#CA5098"/>
<path d="M26.0525 101.324C26.1634 101.324 26.2698 101.28 26.3482 101.201C26.4266 101.123 26.4707 101.016 26.4707 100.906C26.4707 100.795 26.4266 100.688 26.3482 100.61C26.2698 100.532 26.1634 100.487 26.0525 100.487C20.3465 99.3486 14.5626 98.643 8.7501 98.377C8.63921 98.377 8.53284 98.421 8.45443 98.4995C8.37602 98.5779 8.33193 98.6842 8.33193 98.7951C8.33193 98.906 8.37602 99.0123 8.45443 99.0907C8.53284 99.1691 8.63921 99.2132 8.7501 99.2132C14.521 99.4912 20.2639 100.19 25.9331 101.304" fill="#CA5098"/>
<path d="M22.2304 64.0898C18.9724 64.9856 15.5331 64.9856 12.2751 64.0898C12.2751 64.0898 11.4587 73.3483 17.9894 73.8063C24.5202 74.2642 22.1706 64.0898 22.1706 64.0898" fill="#9BCEA4"/>
<path d="M43.7552 16.0857H43.9941C44.1081 16.0054 44.1977 15.8952 44.253 15.7672C44.6325 15.0238 44.888 14.2235 45.0096 13.3978C45.0801 12.9693 45.0801 12.5321 45.0096 12.1036C45.0074 12.0806 45.0003 12.0583 44.9887 12.0383C44.9771 12.0183 44.9612 12.001 44.9422 11.9878C44.9233 11.9745 44.9017 11.9655 44.8789 11.9615C44.8562 11.9574 44.8328 11.9583 44.8104 11.9642C44.7874 11.9663 44.7651 11.9734 44.7451 11.9851C44.7251 11.9967 44.7078 12.0125 44.6946 12.0315C44.6813 12.0504 44.6724 12.072 44.6683 12.0948C44.6643 12.1176 44.6651 12.141 44.671 12.1633C44.7291 12.5528 44.7291 12.9486 44.671 13.3381C44.5567 14.1222 44.3146 14.8822 43.9542 15.588L43.8348 15.7672C43.7495 15.7855 43.6612 15.7855 43.5759 15.7672C43.0545 15.6426 42.5522 15.4483 42.0826 15.1897C42.0482 15.1639 42.0063 15.1499 41.9632 15.1499C41.9201 15.1499 41.8782 15.1639 41.8437 15.1897C41.8268 15.2047 41.8131 15.2231 41.8039 15.2437C41.7946 15.2643 41.7898 15.2866 41.7898 15.3092C41.7898 15.3318 41.7946 15.3542 41.8039 15.3748C41.8131 15.3954 41.8268 15.4137 41.8437 15.4287C42.338 15.704 42.8671 15.9116 43.4167 16.0459H43.6755" fill="#142B2A"/>
<path d="M43.1384 12.0227C43.0663 11.9713 42.9825 11.9385 42.8947 11.9272C42.8069 11.9159 42.7176 11.9266 42.6349 11.9581C42.5522 11.9896 42.4785 12.0411 42.4204 12.1079C42.3623 12.1748 42.3217 12.2549 42.302 12.3412C42.2911 12.4285 42.3009 12.517 42.3307 12.5997C42.3605 12.6824 42.4094 12.7569 42.4735 12.8171C42.5376 12.8773 42.615 12.9214 42.6994 12.946C42.7838 12.9706 42.8728 12.9749 42.9591 12.9585C43.0413 12.9232 43.1141 12.8692 43.1719 12.801C43.2297 12.7327 43.2709 12.652 43.2921 12.5651C43.3133 12.4782 43.3141 12.3876 43.2943 12.3004C43.2745 12.2131 43.2347 12.1317 43.1781 12.0625" fill="#142B2A"/>
<path d="M44.0344 11.5656C44.0591 11.5779 44.0863 11.5843 44.114 11.5843C44.1416 11.5843 44.1688 11.5779 44.1936 11.5656C44.2229 11.5327 44.2393 11.4902 44.2393 11.4461C44.2393 11.402 44.2229 11.3595 44.1936 11.3267C43.8054 11.0218 43.3676 10.7861 42.8994 10.6298C42.8774 10.6204 42.8534 10.6162 42.8294 10.6174C42.8055 10.6186 42.7821 10.6252 42.761 10.6366C42.74 10.6481 42.7218 10.6642 42.7078 10.6837C42.6938 10.7032 42.6844 10.7256 42.6803 10.7492C42.6668 10.7916 42.6696 10.8375 42.688 10.8779C42.7064 10.9184 42.7392 10.9506 42.78 10.9683C43.2128 11.1083 43.6172 11.324 43.9746 11.6054H44.0741" fill="#142B2A"/>
<path d="M45.6658 12.1031C45.8572 12.0751 46.0518 12.0751 46.2433 12.1031C46.2668 12.1059 46.2907 12.104 46.3135 12.0974C46.3363 12.0909 46.3576 12.0799 46.3761 12.065C46.3946 12.0502 46.4101 12.0319 46.4214 12.0111C46.4328 11.9903 46.4399 11.9674 46.4423 11.9438C46.4433 11.8972 46.4279 11.8518 46.3988 11.8154C46.3697 11.779 46.3287 11.754 46.283 11.7447C46.059 11.7061 45.8301 11.7061 45.6061 11.7447C45.5831 11.7468 45.5607 11.754 45.5407 11.7656C45.5207 11.7772 45.5036 11.793 45.4903 11.812C45.477 11.8309 45.468 11.8526 45.4639 11.8753C45.4599 11.8981 45.4609 11.9214 45.4667 11.9438C45.4716 11.9825 45.4905 12.0181 45.5198 12.0438C45.5492 12.0695 45.587 12.0835 45.6261 12.0832" fill="#142B2A"/>
<path d="M43.0598 17.8573C43.104 17.8576 43.1469 17.8415 43.18 17.8121C43.213 17.7827 43.2341 17.7421 43.239 17.6981C43.2418 17.6745 43.2398 17.6506 43.2333 17.6278C43.2268 17.605 43.2158 17.5838 43.201 17.5652C43.1862 17.5467 43.1678 17.5313 43.147 17.5199C43.1262 17.5085 43.1033 17.5014 43.0797 17.499C42.301 17.4448 41.5451 17.2133 40.8696 16.822C40.8368 16.7926 40.7943 16.7764 40.7502 16.7764C40.7061 16.7764 40.6636 16.7926 40.6307 16.822C40.6049 16.8565 40.5909 16.8984 40.5909 16.9415C40.5909 16.9845 40.6049 17.0265 40.6307 17.0609C41.3592 17.4689 42.1677 17.7135 43.0001 17.7777" fill="#142B2A"/>
<path d="M45.6865 12.7996C45.7409 12.7954 45.7953 12.8086 45.8418 12.8372C45.8883 12.8659 45.9245 12.9084 45.9453 12.9589C45.9453 12.9589 45.9453 12.9589 45.9453 13.0784C45.9453 13.1978 45.9454 13.4368 45.7662 13.5363C45.7374 13.5614 45.7026 13.5786 45.6652 13.5861C45.6278 13.5937 45.589 13.5912 45.5528 13.5792C45.5166 13.5671 45.484 13.5458 45.4586 13.5173C45.4332 13.4888 45.4157 13.4541 45.4078 13.4168C45.3968 13.3309 45.3968 13.2439 45.4078 13.158C45.4136 13.0745 45.4455 12.9948 45.4991 12.9305C45.5527 12.8661 45.6252 12.8203 45.7064 12.7996" fill="#142B2A"/>
<path d="M54.3686 50.7305H54.7667V35.3394C54.7614 34.6088 55.0452 33.9058 55.5562 33.3836C56.0673 32.8614 56.7639 32.5624 57.4945 32.5519H70.4364C70.7973 32.5571 71.1536 32.6334 71.485 32.7763C71.8163 32.9192 72.1164 33.126 72.3678 33.3848C72.6193 33.6437 72.8173 33.9495 72.9506 34.2849C73.0838 34.6203 73.1497 34.9786 73.1444 35.3394V50.7305H73.5624V35.3394C73.5678 34.5013 73.2427 33.6949 72.6576 33.0949C72.0724 32.4948 71.2744 32.1495 70.4364 32.1338H57.4945C57.0787 32.139 56.6681 32.226 56.286 32.3899C55.9039 32.5539 55.5578 32.7915 55.2675 33.0891C54.9772 33.3868 54.7485 33.7387 54.5943 34.1248C54.44 34.511 54.3633 34.9237 54.3686 35.3394V50.7305Z" fill="#0A0A09"/>
<path d="M69.7394 44.4795C69.794 44.4745 69.8447 44.4492 69.8816 44.4087C69.9185 44.3681 69.9387 44.3153 69.9385 44.2605V31.3583C69.934 31.307 69.9116 31.2589 69.8752 31.2225C69.8387 31.1861 69.7907 31.1637 69.7394 31.1592C69.6846 31.159 69.6317 31.1793 69.5912 31.2162C69.5506 31.253 69.5254 31.3037 69.5204 31.3583V44.2605C69.5204 44.3186 69.5435 44.3743 69.5846 44.4154C69.6257 44.4564 69.6813 44.4795 69.7394 44.4795Z" fill="#0A0A09"/>
<path d="M68.2253 45.2957C68.2332 45.598 68.3303 45.8912 68.5043 46.1384C68.6784 46.3856 68.9217 46.5759 69.2036 46.6852C69.4855 46.7945 69.7933 46.818 70.0885 46.7528C70.3838 46.6876 70.6532 46.5366 70.8628 46.3187C71.0724 46.1008 71.2129 45.8258 71.2666 45.5283C71.3203 45.2307 71.2849 44.9239 71.1648 44.6465C71.0446 44.369 70.8451 44.1333 70.5913 43.969C70.3375 43.8046 70.0409 43.719 69.7385 43.7228C69.3301 43.7332 68.9423 43.9042 68.659 44.1986C68.3758 44.493 68.2199 44.8872 68.2253 45.2957Z" fill="#CA5098"/>
<path d="M70.0358 44.8176C70.0358 44.9075 70.0714 44.9938 70.135 45.0574C70.1986 45.121 70.2849 45.1566 70.3748 45.1566C70.4648 45.1566 70.5509 45.121 70.6145 45.0574C70.6781 44.9938 70.7139 44.9075 70.7139 44.8176C70.7139 44.7277 70.6781 44.6414 70.6145 44.5779C70.5509 44.5143 70.4648 44.4785 70.3748 44.4785C70.2849 44.4785 70.1986 44.5143 70.135 44.5779C70.0714 44.6414 70.0358 44.7277 70.0358 44.8176Z" fill="white"/>
<path d="M65.8966 44.4795C65.9512 44.4745 66.002 44.4492 66.0388 44.4087C66.0757 44.3681 66.0959 44.3153 66.0957 44.2605V31.3583C66.0912 31.307 66.0688 31.2589 66.0324 31.2225C65.996 31.1861 65.9479 31.1637 65.8966 31.1592C65.8418 31.159 65.7889 31.1793 65.7484 31.2162C65.7078 31.253 65.6826 31.3037 65.6777 31.3583V44.2605C65.6777 44.3186 65.7007 44.3743 65.7418 44.4154C65.7829 44.4564 65.8386 44.4795 65.8966 44.4795Z" fill="#0A0A09"/>
<path d="M64.3629 45.2956C64.3708 45.597 64.4673 45.8894 64.6405 46.1363C64.8136 46.3831 65.0557 46.5734 65.3365 46.6833C65.6172 46.7933 65.9241 46.8181 66.2189 46.7545C66.5136 46.6909 66.783 46.5418 66.9935 46.3259C67.2039 46.11 67.346 45.8368 67.402 45.5406C67.458 45.2443 67.4255 44.9381 67.3083 44.6603C67.1912 44.3825 66.9948 44.1453 66.7436 43.9785C66.4924 43.8118 66.1976 43.7228 65.8961 43.7227C65.6921 43.7253 65.4907 43.768 65.3033 43.8485C65.1159 43.929 64.9461 44.0456 64.8037 44.1916C64.6613 44.3377 64.5491 44.5104 64.4735 44.6998C64.3979 44.8892 64.3603 45.0917 64.3629 45.2956Z" fill="#CA5098"/>
<path d="M66.1735 44.8176C66.1735 44.9075 66.2091 44.9938 66.2727 45.0574C66.3363 45.121 66.4226 45.1566 66.5125 45.1566C66.6025 45.1566 66.6886 45.121 66.7522 45.0574C66.8158 44.9938 66.8516 44.9075 66.8516 44.8176C66.8516 44.7277 66.8158 44.6414 66.7522 44.5779C66.6886 44.5143 66.6025 44.4785 66.5125 44.4785C66.4226 44.4785 66.3363 44.5143 66.2727 44.5779C66.2091 44.6414 66.1735 44.7277 66.1735 44.8176Z" fill="white"/>
<path d="M62.0324 44.4795C62.0603 44.4796 62.0879 44.4739 62.1134 44.4627C62.139 44.4515 62.1618 44.435 62.1806 44.4143C62.1994 44.3937 62.2137 44.3693 62.2224 44.3428C62.2312 44.3163 62.2342 44.2882 62.2314 44.2605V31.3583C62.2314 31.3055 62.2104 31.2549 62.1731 31.2175C62.1357 31.1802 62.0852 31.1592 62.0324 31.1592C61.9796 31.1592 61.9289 31.1802 61.8915 31.2175C61.8542 31.2549 61.8333 31.3055 61.8333 31.3583V44.2605C61.8305 44.2882 61.8335 44.3163 61.8423 44.3428C61.851 44.3693 61.8652 44.3937 61.884 44.4143C61.9028 44.435 61.9257 44.4515 61.9513 44.4627C61.9769 44.4739 62.0044 44.4796 62.0324 44.4795Z" fill="#0A0A09"/>
<path d="M60.5006 45.2956C60.5084 45.597 60.605 45.8894 60.7782 46.1363C60.9513 46.3831 61.1934 46.5734 61.4742 46.6833C61.7549 46.7933 62.0618 46.8181 62.3566 46.7545C62.6513 46.6909 62.9207 46.5418 63.1312 46.3259C63.3416 46.11 63.4837 45.8368 63.5397 45.5406C63.5957 45.2443 63.5631 44.9381 63.446 44.6603C63.3289 44.3825 63.1325 44.1453 62.8813 43.9785C62.6301 43.8118 62.3353 43.7228 62.0338 43.7227C61.8298 43.7253 61.6284 43.768 61.441 43.8485C61.2535 43.929 61.0838 44.0456 60.9414 44.1916C60.799 44.3377 60.6868 44.5104 60.6112 44.6998C60.5356 44.8892 60.498 45.0917 60.5006 45.2956Z" fill="#CA5098"/>
<path d="M62.3312 44.8174C62.3284 44.8609 62.3346 44.9046 62.3494 44.9456C62.3642 44.9867 62.3873 45.0242 62.4172 45.056C62.4471 45.0878 62.4832 45.1131 62.5233 45.1303C62.5633 45.1476 62.6066 45.1565 62.6502 45.1564C62.7402 45.1564 62.8263 45.1207 62.8899 45.0571C62.9535 44.9935 62.9893 44.9073 62.9893 44.8174C62.9845 44.729 62.9473 44.6455 62.8847 44.5829C62.8221 44.5203 62.7386 44.4831 62.6502 44.4783C62.5638 44.4834 62.4826 44.5213 62.4233 44.5844C62.364 44.6474 62.331 44.7308 62.3312 44.8174Z" fill="white"/>
<path d="M58.172 44.4795C58.1999 44.4796 58.2275 44.4739 58.2531 44.4627C58.2786 44.4515 58.3015 44.435 58.3203 44.4143C58.339 44.3937 58.3533 44.3693 58.3621 44.3428C58.3708 44.3163 58.3739 44.2882 58.3711 44.2605V31.3583C58.3711 31.3055 58.3501 31.2549 58.3127 31.2175C58.2754 31.1802 58.2248 31.1592 58.172 31.1592C58.1192 31.1592 58.0685 31.1802 58.0312 31.2175C57.9938 31.2549 57.9729 31.3055 57.9729 31.3583V44.2605C57.9702 44.2882 57.9732 44.3163 57.9819 44.3428C57.9907 44.3693 58.0048 44.3937 58.0236 44.4143C58.0424 44.435 58.0654 44.4515 58.0909 44.4627C58.1165 44.4739 58.1441 44.4796 58.172 44.4795Z" fill="#0A0A09"/>
<path d="M54.7061 42.8665C54.7394 42.8573 54.7698 42.8397 54.7942 42.8153C54.8187 42.7908 54.8364 42.7604 54.8455 42.7271L55.1839 41.7117C55.197 41.6589 55.1899 41.6032 55.1641 41.5554C55.1384 41.5076 55.0958 41.471 55.0446 41.4528C55.0197 41.4433 54.9933 41.4389 54.9668 41.4398C54.9402 41.4407 54.9141 41.4469 54.89 41.458C54.8659 41.4691 54.8442 41.485 54.8263 41.5046C54.8084 41.5242 54.7946 41.5473 54.7857 41.5723L54.4672 42.5878C54.4473 42.6407 54.4486 42.6992 54.4708 42.7512C54.4931 42.8031 54.5346 42.8444 54.5867 42.8665H54.7061ZM55.3632 40.8754C55.395 40.8634 55.4239 40.8448 55.4479 40.8208C55.4719 40.7968 55.4905 40.7678 55.5025 40.736L55.8211 39.7007C55.8306 39.6759 55.835 39.6494 55.8341 39.6228C55.8332 39.5963 55.827 39.5702 55.8159 39.5461C55.8047 39.522 55.789 39.5003 55.7693 39.4824C55.7497 39.4645 55.7267 39.4507 55.7016 39.4418C55.6759 39.4288 55.6474 39.4222 55.6185 39.4226C55.5897 39.4229 55.5613 39.4303 55.5359 39.444C55.5105 39.4577 55.4887 39.4773 55.4725 39.5012C55.4562 39.5251 55.4461 39.5525 55.4428 39.5812L55.1044 40.5967C55.0913 40.6494 55.0984 40.7051 55.1242 40.753C55.1499 40.8008 55.1924 40.8374 55.2436 40.8555H55.3632M56.0002 38.8645C56.0357 38.8602 56.0689 38.8442 56.0942 38.8189C56.1195 38.7936 56.1354 38.7606 56.1396 38.7251L56.4782 37.7096C56.4871 37.6571 56.4782 37.6031 56.4529 37.5562C56.4277 37.5094 56.3876 37.4722 56.3388 37.4508C56.3127 37.4416 56.285 37.4381 56.2574 37.4403C56.2298 37.4424 56.203 37.4503 56.1786 37.4634C56.1543 37.4765 56.1329 37.4946 56.1159 37.5164C56.0989 37.5382 56.0867 37.5633 56.08 37.5902L55.7613 38.6056C55.7518 38.6304 55.7474 38.6568 55.7483 38.6834C55.7492 38.7099 55.7554 38.7361 55.7665 38.7602C55.7777 38.7843 55.7935 38.806 55.8131 38.8239C55.8327 38.8418 55.8557 38.8556 55.8808 38.8645H56.0002ZM56.6573 36.8734C56.6907 36.8643 56.721 36.8465 56.7454 36.8221C56.7699 36.7977 56.7876 36.7673 56.7967 36.734L57.1152 35.7185C57.1244 35.6937 57.1286 35.6673 57.1275 35.6409C57.1265 35.6144 57.1202 35.5884 57.1092 35.5644C57.0981 35.5403 57.0823 35.5187 57.0629 35.5008C57.0434 35.4828 57.0206 35.4688 56.9958 35.4597C56.9709 35.4505 56.9446 35.4464 56.9181 35.4474C56.8917 35.4485 56.8657 35.4547 56.8417 35.4658C56.8176 35.4769 56.796 35.4926 56.778 35.5121C56.76 35.5315 56.7461 35.5543 56.7369 35.5792L56.3985 36.5946C56.3883 36.6499 56.3964 36.707 56.4216 36.7573C56.4467 36.8076 56.4875 36.8484 56.5379 36.8734H56.6573ZM57.2945 34.8823C57.3263 34.8703 57.3552 34.8517 57.3792 34.8276C57.4032 34.8036 57.4219 34.7747 57.4339 34.7429L57.7524 33.7075C57.7619 33.6827 57.7664 33.6563 57.7655 33.6298C57.7646 33.6032 57.7584 33.5771 57.7473 33.553C57.7362 33.5288 57.7202 33.5072 57.7006 33.4893C57.681 33.4714 57.658 33.4576 57.6329 33.4487C57.6068 33.4396 57.5791 33.436 57.5515 33.4382C57.5239 33.4404 57.4972 33.4482 57.4729 33.4613C57.4485 33.4744 57.4272 33.4925 57.4102 33.5143C57.3932 33.5361 57.3808 33.5613 57.3741 33.5881L57.0556 34.6035C57.0461 34.6284 57.0417 34.6548 57.0426 34.6814C57.0434 34.7079 57.0495 34.734 57.0607 34.7581C57.0718 34.7822 57.0877 34.8039 57.1073 34.8218C57.127 34.8397 57.15 34.8535 57.175 34.8624H57.2945" fill="#B4B4B4"/>
<path d="M52.3174 44.2995C52.1895 44.6931 52.2197 45.121 52.4018 45.4926C52.5839 45.8643 52.9036 46.1505 53.293 46.2906C53.4899 46.3645 53.7 46.3966 53.91 46.3848C54.1199 46.373 54.3251 46.3175 54.5125 46.222C54.6998 46.1264 54.8653 45.9929 54.9981 45.8299C55.131 45.6668 55.2283 45.4779 55.2841 45.2751C55.4173 44.8816 55.3895 44.4515 55.2068 44.0784C55.024 43.7054 54.701 43.4198 54.3084 43.284C54.1129 43.2098 53.904 43.1769 53.6951 43.1875C53.4862 43.198 53.2817 43.2517 53.0946 43.3453C52.9075 43.4388 52.7418 43.5702 52.6081 43.731C52.4743 43.8918 52.3753 44.0786 52.3174 44.2796" fill="#B4B4B4"/>
<path d="M54.1868 44.4381C54.1608 44.5255 54.169 44.6194 54.2098 44.7008C54.2505 44.7823 54.3207 44.8453 54.4061 44.8769C54.4908 44.9021 54.5819 44.8933 54.6601 44.8523C54.7383 44.8113 54.7975 44.7414 54.825 44.6575C54.8509 44.5702 54.8426 44.4763 54.8019 44.3948C54.7612 44.3133 54.6911 44.2504 54.6057 44.2187C54.5639 44.2034 54.5192 44.197 54.4748 44.1999C54.4304 44.2028 54.387 44.215 54.3476 44.2356C54.3081 44.2563 54.2734 44.285 54.2457 44.3199C54.218 44.3547 54.198 44.395 54.1868 44.4381Z" fill="white"/>
<path d="M56.6373 45.2956C56.6452 45.597 56.7417 45.8894 56.9149 46.1363C57.0881 46.3831 57.3301 46.5734 57.6109 46.6833C57.8916 46.7933 58.1985 46.8181 58.4933 46.7545C58.788 46.6909 59.0574 46.5418 59.2679 46.3259C59.4783 46.11 59.6204 45.8368 59.6764 45.5406C59.7324 45.2443 59.6999 44.9381 59.5827 44.6603C59.4656 44.3825 59.2692 44.1453 59.018 43.9785C58.7668 43.8118 58.472 43.7228 58.1705 43.7227C57.7603 43.733 57.3704 43.9033 57.0839 44.1972C56.7975 44.4911 56.6372 44.8853 56.6373 45.2956Z" fill="#CA5098"/>
<path d="M58.4689 44.8174C58.4661 44.8609 58.4723 44.9046 58.4871 44.9456C58.5019 44.9867 58.525 45.0242 58.5549 45.056C58.5848 45.0878 58.6209 45.1131 58.661 45.1303C58.701 45.1476 58.7443 45.1565 58.7879 45.1564C58.8778 45.1564 58.964 45.1207 59.0276 45.0571C59.0912 44.9935 59.127 44.9073 59.127 44.8174C59.1222 44.729 59.085 44.6455 59.0224 44.5829C58.9598 44.5203 58.8763 44.4831 58.7879 44.4783C58.7015 44.4834 58.6203 44.5213 58.561 44.5844C58.5017 44.6474 58.4687 44.7308 58.4689 44.8174Z" fill="white"/>
</svg>
