<svg width="112" height="86" viewBox="0 0 112 86" fill="none" xmlns="http://www.w3.org/2000/svg">
<path d="M93.5235 33.4681C93.5235 33.1625 93.5235 32.8568 93.4263 32.5373C92.7039 28.37 86.7168 18.646 85.2026 16.2012L83.3829 17.2847L86.1611 32.1067C82.695 29.3348 78.974 26.8976 75.0481 24.8277C73.0894 28.3005 68.3941 21.2298 68.3941 21.2298C68.3941 21.2298 41.3895 15.3399 39.2224 25.0638C37.611 32.3706 45.5152 38.3717 49.5159 40.886L42.987 51.7351L59.9343 48.8735L67.2412 39.6636H67.3384C68.5751 39.4897 69.7219 38.9188 70.6062 38.037C71.4906 37.1552 72.0646 36.01 72.2421 34.7738C72.2421 34.7738 87.5225 43.5809 92.1622 38.7468C92.2936 38.5883 92.4142 38.4212 92.5233 38.2467C93.3312 36.857 93.6812 35.2483 93.5235 33.6486V33.5514M51.8496 37.2604L45.2374 27.2309L56.7671 29.0645L51.8496 37.2604Z" fill="#0095D4"/>
<path d="M111.402 67.7517C110.305 67.2238 106.318 71.7663 106.318 71.7663C106.022 73.0863 105.613 74.3783 105.096 75.628C105.735 76.0726 106.86 76.8088 107.318 76.6699C107.777 76.531 112.514 68.3351 111.402 67.7517Z" fill="#0095D4"/>
<path d="M9.05083 85.769C10.1899 85.9219 12.5098 80.7265 12.5098 80.7265C12.4093 79.4551 12.4093 78.1778 12.5098 76.9064C11.8152 76.6841 10.6206 76.3646 10.2455 76.6147C9.87044 76.8647 7.88396 85.6024 9.00916 85.769" fill="#CA5098"/>
<path d="M51.2383 58.4045C47.4684 62.5128 43.9565 66.8505 40.7226 71.3928C40.7226 71.3928 20.5663 73.9766 13.3984 76.6854V80.4222H42.3618C42.3618 80.4222 54.225 76.1437 64.3656 57.4043C64.3656 57.4043 56.2947 59.1963 53.322 58.5156" fill="#0095D4"/>
<path d="M14.8012 78.1988C14.7127 78.1988 14.6279 78.1636 14.5654 78.1011C14.5029 78.0386 14.4678 77.9538 14.4678 77.8654C14.4678 77.777 14.5029 77.6922 14.5654 77.6296C14.6279 77.5671 14.7127 77.532 14.8012 77.532L42.2365 75.0732C46.8859 72.4456 50.9772 68.9348 54.2802 64.7381C55.4958 63.2331 56.4834 61.5575 57.2113 59.765C57.2466 59.6903 57.3084 59.6314 57.3847 59.5997C57.4611 59.568 57.5465 59.5657 57.6243 59.5934C57.7022 59.6211 57.767 59.6768 57.8062 59.7495C57.8454 59.8223 57.8561 59.907 57.8363 59.9873C57.7113 60.3346 54.808 68.461 42.5559 75.6845C42.5151 75.6964 42.4717 75.6964 42.4309 75.6845L14.9123 78.1571" fill="white"/>
<path d="M76.1876 48.762C76.1876 48.762 43.1958 43.4694 42.3068 53.874C41.4177 64.2786 74.3262 56.1522 74.3262 56.1522C74.3262 56.1522 76.007 62.9867 103.678 75.3916L105.068 71.5715C105.068 71.5715 88.3981 52.7766 76.1598 48.762" fill="#CA5098"/>
<path d="M102.983 72.4895C102.941 72.4912 102.899 72.4833 102.861 72.4664C102.822 72.4496 102.788 72.4242 102.761 72.3923C92.3421 61.5432 76.4644 52.9445 75.367 52.3472C64.337 51.6287 53.2607 52.235 42.3751 54.153C42.2886 54.1693 42.1991 54.1507 42.1262 54.1013C42.0533 54.0518 42.003 53.9755 41.9862 53.8891C41.9734 53.803 41.9934 53.7152 42.0423 53.6432C42.0912 53.5711 42.1654 53.5201 42.2501 53.5001C53.2134 51.5659 64.3692 50.9549 75.4781 51.6804C75.5189 51.6684 75.5623 51.6684 75.6031 51.6804C75.7698 51.7637 92.3977 60.6125 103.219 71.8783C103.279 71.9425 103.312 72.0269 103.312 72.1145C103.312 72.202 103.279 72.2864 103.219 72.3506C103.188 72.3822 103.152 72.4071 103.111 72.4239C103.07 72.4406 103.027 72.4488 102.983 72.4479" fill="white"/>
<path d="M75.2275 9.82617C75.8191 11.3456 76.2838 12.9114 76.6166 14.5075C76.9379 16.1192 76.852 17.7855 76.3666 19.3556C76.2332 19.8074 75.9952 20.2214 75.6721 20.5641C75.3268 20.8517 74.906 21.0335 74.46 21.0877C74.0139 21.1419 73.5618 21.0662 73.1577 20.8697C72.3543 20.4576 71.6667 19.8511 71.1574 19.1056C69.9851 17.5548 69.0834 15.8171 68.4902 13.9658" fill="#E3E3E3"/>
<path d="M71.7843 4.85244C66.7834 3.86616 61.6714 5.85262 57.629 4.85244C55.7259 4.38014 50.6834 2.76876 45.6131 1.4352L43.8489 0.990666C43.1266 0.810079 42.4598 0.629499 41.7096 0.476695C33.097 -1.19026 30.5966 1.97695 29.777 2.90767C28.8324 4.19956 28.6379 5.43589 29.9298 6.5333C32.1663 8.42252 39.1675 9.92276 38.5007 12.2287C37.834 14.5347 42.1958 15.8405 46.4188 15.1876C50.9759 14.737 55.5649 15.6355 59.6155 17.7713C61.2808 18.5983 63.1111 19.039 64.9702 19.0606C66.8294 19.0822 68.6694 18.6843 70.3535 17.8964C70.3535 17.8964 71.1731 9.76997 75.8266 11.5481C75.8266 11.5481 76.799 5.85262 71.7843 4.85244Z" fill="#142B2A"/>
<path d="M74.8257 17.0503C74.7911 17.0504 74.7577 17.0377 74.732 17.0146C74.7064 16.9915 74.6902 16.9596 74.6867 16.9252C74.6825 16.9067 74.6825 16.8874 74.6869 16.8688C74.6913 16.8503 74.6998 16.833 74.7119 16.8182C74.7239 16.8035 74.7392 16.7917 74.7565 16.7838C74.7738 16.7758 74.7927 16.772 74.8117 16.7724C75.1032 16.7352 75.3855 16.6458 75.6452 16.5085H75.7147C75.7147 16.5085 75.7147 16.5085 75.7147 16.4113C75.7632 15.5258 75.4698 14.6556 74.8951 13.9803C74.8726 13.9529 74.8602 13.9185 74.8602 13.883C74.8602 13.8476 74.8726 13.8132 74.8951 13.7858C74.9211 13.7604 74.956 13.7461 74.9923 13.7461C75.0287 13.7461 75.0636 13.7604 75.0896 13.7858C75.7175 14.5167 76.0364 15.4633 75.9787 16.4252C75.973 16.508 75.9493 16.5886 75.9092 16.6613C75.8607 16.7116 75.8044 16.7538 75.7425 16.7863C75.4551 16.9454 75.1385 17.0447 74.8117 17.078" fill="#13110C"/>
<path d="M75.9098 14.4387H75.8124C75.7709 14.4181 75.7359 14.3863 75.7113 14.347C75.6868 14.3077 75.6736 14.2624 75.6733 14.216C75.6694 14.1825 75.6736 14.1485 75.6858 14.117C75.6979 14.0855 75.7175 14.0574 75.7428 14.0351C75.7673 14.0034 75.799 13.9779 75.8353 13.961C75.8716 13.944 75.9115 13.9361 75.9516 13.9377H76.0629C76.1005 13.956 76.133 13.9834 76.1573 14.0174C76.1816 14.0514 76.1969 14.091 76.202 14.1325C76.2084 14.1746 76.2055 14.2176 76.1934 14.2585C76.1814 14.2994 76.1606 14.3371 76.1325 14.3691C76.0913 14.3791 76.0484 14.3791 76.0072 14.3691H75.9098" fill="#13110C"/>
<path d="M72.1583 15.4378C72.1228 15.4281 72.092 15.4058 72.0716 15.3752C72.0512 15.3446 72.0425 15.3076 72.0471 15.2711C72.1732 14.6442 72.5118 14.0799 73.0056 13.6736C73.0173 13.6591 73.0322 13.6474 73.049 13.6394C73.0658 13.6314 73.0842 13.6272 73.1029 13.6272C73.1215 13.6272 73.1399 13.6314 73.1568 13.6394C73.1736 13.6474 73.1884 13.6591 73.2001 13.6736C73.2256 13.6996 73.2398 13.7345 73.2398 13.7709C73.2398 13.8072 73.2256 13.8421 73.2001 13.8681C72.7638 14.2177 72.464 14.7093 72.3527 15.2572C72.3467 15.2905 72.3298 15.3208 72.3046 15.3435C72.2795 15.3661 72.2475 15.3797 72.2138 15.3822" fill="#13110C"/>
<path d="M76.1457 13.5488H76.0623C75.8745 13.4231 75.6477 13.3688 75.4233 13.396C75.4047 13.4003 75.3855 13.4002 75.3669 13.3958C75.3484 13.3915 75.3311 13.3829 75.3163 13.3709C75.3016 13.3588 75.2898 13.3435 75.2818 13.3262C75.2739 13.3089 75.27 13.29 75.2705 13.271C75.2664 13.2362 75.2755 13.2011 75.2961 13.1728C75.3167 13.1444 75.3472 13.1249 75.3816 13.1182C75.673 13.0937 75.9647 13.1617 76.2151 13.3126C76.2406 13.3386 76.2548 13.3735 76.2548 13.4099C76.2548 13.4463 76.2406 13.4812 76.2151 13.5071C76.1976 13.5148 76.1787 13.5187 76.1595 13.5187C76.1404 13.5187 76.1215 13.5148 76.104 13.5071" fill="#13110C"/>
<path d="M74.9355 18.7431C74.6076 18.7438 74.284 18.6677 73.9909 18.5208C73.9654 18.4948 73.9512 18.4599 73.9512 18.4236C73.9512 18.3872 73.9654 18.3523 73.9909 18.3263C74.016 18.3048 74.048 18.293 74.0811 18.293C74.1143 18.293 74.1463 18.3048 74.1714 18.3263C74.422 18.45 74.6977 18.5144 74.9772 18.5144C75.2566 18.5144 75.5323 18.45 75.7828 18.3263C75.8161 18.3121 75.8535 18.3115 75.8872 18.3244C75.9209 18.3374 75.9483 18.363 75.9634 18.3958C75.9783 18.431 75.9794 18.4705 75.9665 18.5065C75.9537 18.5425 75.9278 18.5724 75.894 18.5902C75.6119 18.7237 75.303 18.7902 74.991 18.7847" fill="#13110C"/>
<path d="M81.2178 15.355L81.3289 15.4522L81.8568 15.8967C82.2003 16.184 82.5623 16.4485 82.9403 16.6886L84.8434 15.6467C84.7313 14.3499 84.3731 13.0864 83.7877 11.9238C83.5515 11.9238 83.5376 13.2296 83.5376 13.2296C83.5376 13.2296 82.8292 12.16 82.6208 12.2711C82.4125 12.3822 82.8153 13.438 82.8153 13.438C82.8153 13.438 81.9818 12.2294 81.7318 12.41C81.4817 12.5906 82.0235 13.8964 82.0235 13.8964C82.0235 13.8964 81.1066 12.8129 80.8983 12.9657C80.6899 13.1185 81.3567 14.077 81.5234 14.3548C81.2609 14.2805 80.9903 14.2385 80.7177 14.2298C80.6491 14.2458 80.5882 14.2849 80.5452 14.3406C80.5022 14.3962 80.4797 14.4651 80.4815 14.5354C80.5004 14.6242 80.5437 14.7061 80.6066 14.7715C80.7791 14.9737 80.9697 15.1597 81.1761 15.3272" fill="#0095D4"/>
<path d="M57.0169 39.9831H56.8641H56.1418C55.6795 39.9474 55.215 39.9474 54.7527 39.9831L53.7803 42.1362C54.6746 43.1811 55.7769 44.028 57.0169 44.6228C57.1836 44.4422 56.4057 43.3448 56.4057 43.3448C56.4057 43.3448 57.6837 43.7893 57.7948 43.5531C57.906 43.317 56.8919 42.678 56.8919 42.678C56.8919 42.678 58.3505 43.1642 58.4616 42.8447C58.5728 42.5252 57.2948 41.7612 57.2948 41.7612C57.2948 41.7612 58.6839 42.0946 58.8228 41.7612C58.9617 41.4278 57.7393 41.1083 57.4337 41.011H57.3364C57.6115 40.898 57.8726 40.7535 58.1143 40.5804C58.1586 40.5173 58.1823 40.4421 58.1823 40.3651C58.1823 40.288 58.1586 40.2129 58.1143 40.1498C58.041 40.0934 57.9553 40.0553 57.8643 40.0386C57.5852 39.9817 57.3017 39.9491 57.0169 39.9414" fill="white"/>
<path d="M24.357 48.1245C23.9402 48.1245 23.5234 48.1245 23.1067 48.1245C21.1197 47.8865 19.1667 47.4203 17.2863 46.7353C16.1333 46.3464 14.9248 45.9435 13.7162 45.6518C9.95168 44.7628 6.61775 45.4712 4.79799 47.5271C4.77062 47.5497 4.73623 47.5621 4.70074 47.5621C4.66526 47.5621 4.63091 47.5497 4.60354 47.5271C4.57717 47.4988 4.5625 47.4616 4.5625 47.423C4.5625 47.3843 4.57717 47.3471 4.60354 47.3188C6.49275 45.1795 9.9239 44.4572 13.7996 45.374C15.0081 45.6518 16.2166 46.0547 17.3835 46.4436C19.2453 47.1268 21.1798 47.593 23.1484 47.8327C25.4571 47.9186 27.7673 47.7132 30.0246 47.2215C33.1918 46.652 36.484 46.0685 39.5401 47.2215C39.5576 47.2277 39.5737 47.2373 39.5874 47.2498C39.6011 47.2623 39.6121 47.2774 39.6199 47.2942C39.6276 47.3111 39.632 47.3293 39.6326 47.3478C39.6332 47.3663 39.6301 47.3848 39.6235 47.4021C39.6173 47.4196 39.6076 47.4356 39.5952 47.4493C39.5827 47.463 39.5676 47.4741 39.5507 47.4819C39.5339 47.4896 39.5157 47.4939 39.4972 47.4946C39.4787 47.4952 39.4602 47.4921 39.4429 47.4855C36.4563 46.3603 33.3585 46.9159 30.0663 47.4855C28.1909 47.8734 26.2851 48.0965 24.3708 48.1522" fill="#13110C"/>
<path d="M22.6074 44.0252C20.4679 44.0477 18.3343 43.7957 16.259 43.275C15.759 43.15 15.245 42.9972 14.7449 42.8444C12.4945 42.1915 10.1608 41.4553 8.06318 42.3999C8.02996 42.414 7.99253 42.4147 7.95881 42.4018C7.9251 42.3888 7.89775 42.3632 7.88259 42.3304C7.87183 42.2934 7.87426 42.2537 7.88946 42.2183C7.90466 42.1828 7.93168 42.1537 7.96593 42.1359C10.133 41.2052 12.5223 41.8998 14.8144 42.5805L16.3146 42.9972C21.8017 44.3863 27.7194 43.4834 32.9842 42.6638C33.0024 42.6598 33.0213 42.6595 33.0397 42.6629C33.0581 42.6664 33.0756 42.6735 33.0912 42.6839C33.1067 42.6942 33.12 42.7077 33.1303 42.7233C33.1405 42.739 33.1476 42.7565 33.1509 42.7749C33.1549 42.7942 33.1547 42.8142 33.1504 42.8334C33.1461 42.8526 33.1378 42.8707 33.126 42.8865C33.1141 42.9023 33.0991 42.9153 33.0818 42.9248C33.0646 42.9343 33.0455 42.9401 33.0258 42.9416C29.6049 43.5716 26.1402 43.9339 22.6629 44.0252" fill="#13110C"/>
<path d="M24.6781 40.5402C21.6849 40.4185 18.7158 39.9524 15.8293 39.1511L14.6208 38.8732C10.1061 37.8453 4.3968 37.0257 0.215525 39.9984C0.203855 40.0106 0.189837 40.0203 0.174319 40.0269C0.158802 40.0336 0.142101 40.037 0.125229 40.037C0.108356 40.037 0.0916554 40.0336 0.0761376 40.0269C0.0606197 40.0203 0.046602 40.0106 0.0349317 39.9984C0.0123497 39.9711 0 39.9367 0 39.9012C0 39.8657 0.0123497 39.8313 0.0349317 39.804C4.29956 36.7757 10.0922 37.5952 14.6486 38.6371L15.8571 38.9288C20.3718 39.9845 25.0393 41.0819 29.3317 39.5539C29.3499 39.5475 29.3692 39.545 29.3885 39.5465C29.4077 39.5481 29.4264 39.5536 29.4434 39.5627C29.4604 39.5719 29.4753 39.5845 29.4872 39.5997C29.499 39.6149 29.5075 39.6324 29.5123 39.6512C29.5189 39.6685 29.522 39.6869 29.5214 39.7055C29.5208 39.724 29.5164 39.7422 29.5087 39.759C29.5009 39.7759 29.4898 39.7909 29.4761 39.8034C29.4624 39.8159 29.4464 39.8256 29.4289 39.8317C27.8903 40.353 26.2748 40.6113 24.6503 40.5958" fill="#13110C"/>
<path d="M52.3068 40.8312C52.2362 40.8292 52.1681 40.8049 52.1123 40.7617C51.5427 40.3311 38.221 30.0793 41.1938 24.8979C43.7081 20.6055 57.6827 22.1196 58.28 22.203C58.3672 22.2167 58.4459 22.2631 58.5001 22.3328C58.5543 22.4025 58.5799 22.4902 58.5718 22.5781C58.5684 22.6214 58.5562 22.6635 58.5359 22.702C58.5157 22.7404 58.4878 22.7744 58.454 22.8017C58.4202 22.829 58.3811 22.8491 58.3393 22.8608C58.2974 22.8725 58.2537 22.8756 58.2106 22.8698C55.7416 22.6212 53.2596 22.5238 50.7787 22.5781C45.8057 22.7309 42.6801 23.6477 41.7494 25.2452C40.3603 27.6345 43.3052 31.5518 46.0279 34.4134C48.0417 36.5036 50.2053 38.4443 52.5012 40.22C52.5683 40.2768 52.6124 40.3561 52.6252 40.443C52.6379 40.53 52.6186 40.6186 52.5707 40.6923C52.5392 40.7329 52.4993 40.7663 52.4538 40.7903C52.4082 40.8142 52.3581 40.8282 52.3068 40.8312Z" fill="white"/>
</svg>
