<svg width="86" height="103" viewBox="0 0 86 103" fill="none" xmlns="http://www.w3.org/2000/svg">
<path d="M22.9844 31.7832H6.26849C4.56856 35.8404 2.4687 39.7181 0 43.359H6.60288C6.60288 41.2199 7.4526 39.1684 8.96517 37.6558C10.4777 36.1433 12.5292 35.2935 14.6683 35.2935C16.8074 35.2935 18.8589 36.1433 20.3714 37.6558C21.884 39.1684 22.7337 41.2199 22.7337 43.359H29.3366C26.8679 39.7181 24.768 35.8404 23.0681 31.7832" fill="#0095D4"/>
<path d="M16.9887 8.29544H17.6992C17.7541 8.29544 17.8084 8.28462 17.8592 8.26362C17.9099 8.24262 17.9559 8.21187 17.9947 8.17307C18.0335 8.13426 18.0643 8.0882 18.0853 8.0375C18.1063 7.9868 18.1172 7.93246 18.1172 7.87758V5.37016C18.1173 5.25731 18.0739 5.14873 17.9961 5.06701C17.9183 4.9853 17.8119 4.93675 17.6992 4.93138H16.8008C16.8008 4.34632 16.8008 3.71948 16.8008 3.11353H15.4008L14.9829 0.35538C14.9887 0.312561 14.9857 0.26897 14.9739 0.227401C14.962 0.185831 14.9418 0.147191 14.9143 0.113833C14.8868 0.0804747 14.8527 0.0531106 14.8142 0.0335509C14.7756 0.0139912 14.7335 0.00262271 14.6903 0.000137329C14.6464 0.002797 14.6034 0.0141151 14.5638 0.0334234C14.5243 0.0527316 14.489 0.0796821 14.4599 0.112685C14.4308 0.145688 14.4084 0.184094 14.3942 0.225743C14.38 0.267391 14.374 0.311457 14.3769 0.35538L13.9799 3.11353H12.5799C12.5799 3.71948 12.5799 4.34632 12.5799 4.93138H11.6815C11.5688 4.93675 11.4624 4.9853 11.3846 5.06701C11.3067 5.14873 11.2634 5.25731 11.2635 5.37016V7.87758C11.2635 7.98841 11.3076 8.0947 11.386 8.17307C11.4643 8.25144 11.5706 8.29544 11.6815 8.29544H12.392C11.7569 15.7811 9.97389 23.1246 7.10547 30.068H11.2845L13.374 23.2353H16.2156L18.3051 30.068H22.4841C19.6157 23.1246 17.8328 15.7811 17.1978 8.29544" fill="#0095D4"/>
<path d="M85.7745 102.887H59.5722C59.5168 102.887 59.4637 102.865 59.4245 102.826C59.3853 102.787 59.3633 102.734 59.3633 102.678V90.8101L23.0687 89.6191C23.0405 89.6225 23.0118 89.6194 22.985 89.61C22.9581 89.6007 22.9336 89.5855 22.9135 89.5653C22.8934 89.5452 22.8781 89.5208 22.8688 89.4939C22.8595 89.467 22.8564 89.4384 22.8597 89.4101C22.8597 89.2848 22.8598 89.2221 23.0687 89.2012L59.5931 90.3922C59.6448 90.3974 59.6927 90.4217 59.7275 90.4603C59.7623 90.4989 59.7815 90.5492 59.7812 90.6012V102.532H85.7745C85.8284 102.537 85.8788 102.56 85.917 102.599C85.9552 102.637 85.9787 102.687 85.9834 102.741C85.9834 102.797 85.9614 102.85 85.9222 102.889C85.883 102.928 85.8299 102.95 85.7745 102.95" fill="#13110C"/>
<path d="M73.4457 85.9625C72.4298 86.2105 71.3692 86.2105 70.3533 85.9625L69.4965 88.449H67.6787C67.4756 88.8796 67.3349 89.3369 67.2607 89.8072C67.2607 90.8519 79.1919 95.9503 80.55 95.4697C81.9082 94.9891 73.4457 85.8789 73.4457 85.8789" fill="#C74593"/>
<path d="M73.0509 84.3117C72.9971 84.2926 72.9524 84.2542 72.9254 84.204C72.8984 84.1538 72.8909 84.0954 72.9046 84.04C72.9046 83.7893 79.6328 59.0915 77.5224 54.7871C76.8921 53.2801 75.7573 52.0391 74.3126 51.2768C72.8678 50.5144 71.2031 50.278 69.6033 50.6081C69.5484 50.6151 69.4927 50.6021 69.4467 50.5714C69.4006 50.5407 69.3671 50.4944 69.3524 50.441C69.3454 50.386 69.3586 50.3304 69.3893 50.2844C69.42 50.2383 69.4662 50.2049 69.5196 50.1902C71.2012 49.868 72.9422 50.1241 74.4597 50.917C75.9772 51.7099 77.1818 52.9929 77.8776 54.5573C79.9671 59.0706 73.5732 83.1625 73.2807 84.1863C73.268 84.2269 73.2433 84.2627 73.2097 84.2888C73.176 84.315 73.1352 84.3303 73.0927 84.3326" fill="#13110C"/>
<path d="M69.6863 88.7417H64.8805L62.979 70.2079C60.8895 72.7779 49.063 86.9238 37.6962 87.3835C36.2271 87.5439 34.7409 87.3634 33.3529 86.8561C31.965 86.3488 30.7126 85.5282 29.6934 84.4582C26.0994 80.2792 26.9979 73.551 27.0397 73.2585V73.1541C27.0397 73.1541 35.6276 67.1781 45.281 61.7454C58.2568 54.4113 66.9699 51.2979 71.1907 52.6979C71.8777 52.92 72.5092 53.2867 73.0426 53.7733C73.576 54.2599 73.999 54.855 74.2832 55.5187C76.0175 59.1335 75.7668 65.8199 73.5101 75.3689C72.4604 79.8668 71.1629 84.3033 69.6236 88.6581L69.6863 88.7417ZM65.2566 88.3238H69.4356C70.146 86.3388 77.9398 63.7513 74.0533 55.665C73.7881 55.0555 73.3982 54.5082 72.9088 54.0584C72.4194 53.6086 71.8413 53.2661 71.2116 53.0531C61.5999 50.0442 29.2964 72.1511 27.4785 73.4048C27.4785 74.2406 26.7889 80.4882 30.0485 84.1866C31.028 85.2129 32.2323 85.998 33.5665 86.4802C34.9008 86.9624 36.3287 87.1285 37.738 86.9656C49.9615 86.4432 62.8119 69.7064 62.9999 69.5392L63.3134 69.1422L65.2566 88.3238Z" fill="#13110C"/>
<path d="M41.3304 78.2316C41.3076 78.2427 41.2827 78.2485 41.2573 78.2485C41.232 78.2485 41.2069 78.2427 41.1841 78.2316C41.1623 78.214 41.1447 78.1917 41.1326 78.1664C41.1205 78.1411 41.1143 78.1134 41.1143 78.0854C41.1143 78.0573 41.1205 78.0296 41.1326 78.0043C41.1447 77.979 41.1623 77.9568 41.1841 77.9391L42.1035 77.1242C42.1426 77.0859 42.1951 77.0645 42.2498 77.0645C42.3045 77.0645 42.357 77.0859 42.3961 77.1242C42.4301 77.1654 42.4486 77.2171 42.4486 77.2705C42.4486 77.3239 42.4301 77.3756 42.3961 77.4168L41.4558 78.2107C41.4152 78.2251 41.371 78.2251 41.3304 78.2107" fill="#13110C"/>
<path d="M68.8088 80.1123C68.7811 80.1073 68.7547 80.0969 68.7311 80.0814C68.7076 80.066 68.6873 80.046 68.6717 80.0226C68.6561 79.9992 68.6454 79.9728 68.6402 79.9452C68.635 79.9175 68.6355 79.8891 68.6416 79.8616C68.767 79.1303 68.9133 78.3153 69.0595 77.4378C69.0645 77.4101 69.075 77.3837 69.0904 77.3602C69.1058 77.3366 69.1259 77.3164 69.1493 77.3008C69.1727 77.2852 69.1991 77.2745 69.2267 77.2693C69.2544 77.2641 69.2828 77.2646 69.3103 77.2706C69.3371 77.2729 69.3632 77.281 69.3867 77.2942C69.4101 77.3075 69.4305 77.3256 69.4463 77.3474C69.4622 77.3692 69.4731 77.3941 69.4785 77.4205C69.4839 77.447 69.4834 77.4742 69.4773 77.5004C69.3311 78.378 69.1849 79.1929 69.0386 79.9243C69.0306 79.9712 69.0082 80.0146 68.9745 80.0483C68.9408 80.082 68.8975 80.1043 68.8505 80.1123M44.1319 75.9333C44.1087 75.9431 44.0838 75.9482 44.0587 75.9482C44.0335 75.9482 44.0087 75.9431 43.9856 75.9333C43.9473 75.8943 43.9258 75.8418 43.9258 75.7871C43.9258 75.7324 43.9473 75.6799 43.9856 75.6408L45.8451 74.0946C45.865 74.0726 45.8893 74.0551 45.9164 74.0432C45.9435 74.0313 45.9728 74.0253 46.0024 74.0256C46.032 74.0259 46.0612 74.0325 46.0881 74.0449C46.115 74.0573 46.1389 74.0753 46.1582 74.0977C46.1776 74.12 46.1921 74.1463 46.2006 74.1746C46.2091 74.203 46.2114 74.2329 46.2075 74.2622C46.2036 74.2915 46.1935 74.3197 46.1779 74.3448C46.1623 74.37 46.1414 74.3915 46.1168 74.408C45.4273 74.9722 44.8005 75.4946 44.2572 75.9752H44.111M69.6236 75.3901C69.5701 75.3802 69.522 75.3517 69.4875 75.3096C69.4531 75.2675 69.4347 75.2146 69.4356 75.1602C69.561 74.3662 69.6863 73.5513 69.7908 72.7155C69.8046 72.6737 69.8312 72.6373 69.8668 72.6115C69.9025 72.5857 69.9454 72.5718 69.9894 72.5718C70.0334 72.5718 70.0762 72.5857 70.1118 72.6115C70.1475 72.6373 70.1741 72.6737 70.1878 72.7155C70.1878 73.5513 69.9789 74.3662 69.8536 75.1602C69.8444 75.2103 69.8189 75.2559 69.7811 75.2899C69.7433 75.3239 69.6953 75.3445 69.6445 75.3483M47.872 72.8409C47.846 72.8538 47.8175 72.8605 47.7885 72.8605C47.7595 72.8605 47.7308 72.8538 47.7048 72.8409C47.6665 72.8019 47.6451 72.7493 47.6451 72.6946C47.6451 72.6399 47.6665 72.5874 47.7048 72.5483L49.5854 71.0231C49.6031 71.0012 49.6253 70.9836 49.6506 70.9715C49.6759 70.9594 49.7037 70.9532 49.7317 70.9532C49.7598 70.9532 49.7874 70.9594 49.8127 70.9715C49.838 70.9836 49.8604 71.0012 49.878 71.0231C49.912 71.0642 49.9305 71.1159 49.9305 71.1693C49.9305 71.2227 49.912 71.2744 49.878 71.3156L47.9974 72.8409H47.872ZM70.2506 70.4589C70.2229 70.4539 70.1964 70.4434 70.1729 70.428C70.1494 70.4126 70.1291 70.3925 70.1135 70.3691C70.0979 70.3457 70.0872 70.3194 70.082 70.2917C70.0768 70.2641 70.0773 70.2356 70.0834 70.2081C70.0834 69.3723 70.2087 68.5365 70.2714 67.7843C70.2714 67.7289 70.2934 67.6757 70.3326 67.6366C70.3718 67.5974 70.425 67.5753 70.4804 67.5753C70.5079 67.578 70.5346 67.586 70.5589 67.599C70.5833 67.612 70.6048 67.6297 70.6223 67.651C70.6398 67.6724 70.6529 67.6971 70.6608 67.7235C70.6688 67.75 70.6712 67.7778 70.6684 67.8052C70.6684 68.5574 70.6684 69.3932 70.4804 70.2499C70.4804 70.2773 70.4749 70.3045 70.4644 70.3299C70.4539 70.3552 70.4386 70.3782 70.4192 70.3976C70.3998 70.417 70.3767 70.4325 70.3513 70.443C70.326 70.4535 70.2988 70.4589 70.2714 70.4589M51.6749 69.8111C51.6208 69.8302 51.5618 69.8302 51.5077 69.8111C51.4859 69.7935 51.4683 69.7712 51.4562 69.7459C51.4441 69.7206 51.4378 69.6929 51.4378 69.6648C51.4378 69.6368 51.4441 69.6091 51.4562 69.5838C51.4683 69.5585 51.4859 69.5362 51.5077 69.5186L53.4092 68.0142C53.4504 67.9802 53.502 67.9616 53.5554 67.9616C53.6088 67.9616 53.6605 67.9802 53.7017 68.0142C53.7373 68.0587 53.7568 68.1139 53.7568 68.1709C53.7568 68.2278 53.7373 68.2831 53.7017 68.3276C53.0539 68.8082 52.4271 69.3096 51.8003 69.8111H51.6749ZM55.4987 66.8649C55.4644 66.8626 55.4311 66.8519 55.4019 66.8337C55.3728 66.8154 55.3487 66.7903 55.3315 66.7605C55.2976 66.7193 55.279 66.6676 55.279 66.6142C55.279 66.5608 55.2976 66.5091 55.3315 66.4679L57.2957 65.0471C57.3167 65.0234 57.3429 65.0048 57.3722 64.9927C57.4015 64.9806 57.4331 64.9753 57.4648 64.9773C57.4964 64.9793 57.5272 64.9884 57.5548 65.004C57.5824 65.0196 57.6061 65.0413 57.6241 65.0675C57.642 65.0936 57.6538 65.1235 57.6585 65.1548C57.6632 65.1862 57.6607 65.2182 57.6512 65.2484C57.6417 65.2787 57.6254 65.3064 57.6037 65.3294C57.5819 65.3525 57.5552 65.3702 57.5255 65.3814L55.5823 66.8232H55.4569M70.5013 65.5068C70.472 65.5069 70.4429 65.5009 70.4161 65.4891C70.3893 65.4773 70.3653 65.46 70.3456 65.4383C70.3259 65.4167 70.311 65.3911 70.3018 65.3633C70.2927 65.3355 70.2893 65.3061 70.2923 65.2769C70.2972 64.4673 70.2553 63.658 70.1669 62.8531C70.1566 62.8217 70.1539 62.7883 70.159 62.7557C70.1641 62.723 70.1769 62.6921 70.1962 62.6653C70.2156 62.6386 70.241 62.6168 70.2705 62.6018C70.2999 62.5867 70.3324 62.5789 70.3655 62.5789C70.3985 62.5789 70.4311 62.5867 70.4605 62.6018C70.4899 62.6168 70.5153 62.6386 70.5347 62.6653C70.5541 62.6921 70.5669 62.723 70.5719 62.7557C70.577 62.7883 70.5742 62.8217 70.5639 62.8531C70.6606 63.6714 70.7095 64.4947 70.7102 65.3187C70.7063 65.3749 70.6836 65.4282 70.6457 65.4699C70.6078 65.5116 70.5569 65.5393 70.5013 65.5485M59.3852 64.0232C59.3592 64.0361 59.3305 64.0428 59.3015 64.0428C59.2725 64.0428 59.2439 64.0361 59.218 64.0232C59.184 63.9821 59.1654 63.9303 59.1654 63.877C59.1654 63.8236 59.184 63.7719 59.218 63.7307L61.3075 62.3725C61.325 62.3542 61.3461 62.3396 61.3694 62.3297C61.3928 62.3197 61.4179 62.3146 61.4433 62.3146C61.4687 62.3146 61.4938 62.3197 61.5171 62.3297C61.5405 62.3396 61.5616 62.3542 61.5791 62.3725C61.5974 62.3901 61.612 62.4112 61.622 62.4345C61.6319 62.4578 61.6371 62.483 61.6371 62.5083C61.6371 62.5337 61.6319 62.5588 61.622 62.5822C61.612 62.6055 61.5974 62.6266 61.5791 62.6442L59.4896 64.0023M63.5432 61.4114C63.5089 61.4091 63.4757 61.3983 63.4466 61.3801C63.4174 61.3618 63.3932 61.3367 63.376 61.3069C63.3378 61.2678 63.3164 61.2153 63.3164 61.1606C63.3164 61.1059 63.3378 61.0534 63.376 61.0144C64.1701 60.5547 64.8666 60.1785 65.4655 59.886C65.4913 59.8721 65.5197 59.8637 65.5489 59.8615C65.5782 59.8593 65.6076 59.8633 65.6352 59.8731C65.6627 59.883 65.6879 59.8985 65.7091 59.9187C65.7303 59.9389 65.747 59.9634 65.7581 59.9905C65.7794 60.0405 65.7804 60.0968 65.7609 60.1475C65.7414 60.1982 65.703 60.2393 65.6537 60.2621C65.0268 60.5546 64.3164 60.9307 63.5642 61.3695M69.8326 60.6591C69.7926 60.6585 69.7535 60.6463 69.7202 60.624C69.6868 60.6018 69.6606 60.5705 69.6445 60.5338C69.5576 60.2856 69.4112 60.0625 69.2182 59.884C69.0251 59.7055 68.7914 59.5771 68.5372 59.5099H67.952C67.9246 59.5128 67.8969 59.5102 67.8704 59.5023C67.844 59.4944 67.8192 59.4813 67.7979 59.4638C67.7765 59.4463 67.7588 59.4248 67.7458 59.4004C67.7328 59.3761 67.7248 59.3494 67.7222 59.3219C67.7162 59.2944 67.7156 59.2659 67.7208 59.2383C67.726 59.2106 67.7368 59.1843 67.7525 59.1609C67.7681 59.1374 67.7882 59.1174 67.8118 59.102C67.8353 59.0866 67.8617 59.0761 67.8894 59.0711C68.1251 59.0388 68.3641 59.0388 68.5998 59.0711C68.9187 59.1534 69.2136 59.3098 69.4605 59.5276C69.7074 59.7455 69.8993 60.0186 70.0206 60.3248C70.0419 60.3748 70.0431 60.4311 70.0236 60.4818C70.0041 60.5325 69.9655 60.5736 69.9162 60.5964" fill="#13110C"/>
<path d="M68.0768 83.7251C68.0494 83.7207 68.0234 83.7103 68.0005 83.6945C67.9777 83.6788 67.9585 83.6582 67.9445 83.6343C67.9306 83.6103 67.9221 83.5836 67.9197 83.5559C67.9173 83.5283 67.9209 83.5004 67.9305 83.4744C67.9305 83.4744 67.9305 83.0356 68.1812 82.2625C68.1709 82.2311 68.1682 82.1977 68.1733 82.1651C68.1784 82.1325 68.1912 82.1015 68.2106 82.0747C68.2299 82.048 68.2554 82.0262 68.2848 82.0112C68.3142 81.9962 68.3468 81.9883 68.3798 81.9883C68.4128 81.9883 68.4454 81.9962 68.4748 82.0112C68.5042 82.0262 68.5297 82.048 68.549 82.0747C68.5684 82.1015 68.5812 82.1325 68.5863 82.1651C68.5914 82.1977 68.5886 82.2311 68.5782 82.2625C68.432 83.0356 68.3275 83.4953 68.3275 83.4953C68.3145 83.5415 68.2873 83.5824 68.2499 83.6124C68.2124 83.6424 68.1665 83.6599 68.1186 83.6625" fill="#13110C"/>
<path d="M51.4021 24.2183C51.4021 24.2183 40.098 23.1945 34.5608 37.4448C29.0236 51.6952 24.5312 73.9901 24.5312 73.9901C32.4444 72.5366 40.0803 69.8503 47.1604 66.0291C58.7153 59.7606 60.2616 57.6711 60.2616 57.6711C60.2616 57.6711 63.7301 33.6211 60.2616 29.1705C60.2616 29.1705 60.8884 32.4718 58.1721 32.3256C55.4557 32.1793 51.3812 24.1348 51.3812 24.1348" fill="#0095D4"/>
<path d="M50.6313 55.5814L65.2578 48.7488L66.6577 52.071C66.6577 52.071 49.9417 71.4197 45.2404 67.9721C40.539 64.5244 38.1779 30.9671 49.2104 30.1104C60.243 29.2537 50.6313 55.5814 50.6313 55.5814Z" fill="#C74593"/>
<path d="M64.8392 91.2695C65.4593 91.6495 66.1572 91.8845 66.8809 91.9569C67.6045 92.0292 68.3352 91.9371 69.0182 91.6875C69.0182 91.6875 77.5016 100.777 76.1225 101.278C74.7435 101.78 62.7706 96.6605 62.8333 95.6157C63.2965 94.0948 63.9421 92.6355 64.7557 91.2695" fill="#C74593"/>
<path d="M65.924 9.48636C65.7689 12.5609 65.4339 15.6238 64.921 18.6592C64.587 20.9722 63.6901 23.1678 62.3091 25.0531C61.9493 25.5689 61.459 25.9799 60.8883 26.2441C60.2904 26.4025 59.6586 26.3754 59.0764 26.1664C58.4943 25.9574 57.9893 25.5765 57.6287 25.074C56.8329 23.9996 56.2772 22.7669 55.9989 21.4592C55.2876 18.6552 54.9988 15.7606 55.1422 12.8713" fill="#E3E3E3"/>
<path d="M65.9254 9.48652C65.3612 5.93438 63.2299 1.79718 56.2092 3.09267C44.4453 5.18217 48.8541 16.5072 48.8541 16.5072C49.272 19.7459 53.3048 21.6892 53.3048 21.6892C61.0777 20.4146 65.0477 11.6596 65.8418 9.48652" fill="#142B2A"/>
<path d="M49.106 8.2126C45.5539 7.43949 41.6048 9.57083 38.5541 12.12C33.7692 16.1318 30.1961 21.3137 25.8918 25.8479C22.3814 29.5881 18.1606 33.2866 17.1368 38.0297C16.6753 40.4155 16.9751 42.886 17.9935 45.0922C18.7685 47.1555 20.186 48.915 22.037 50.1114C23.8879 51.3077 26.0744 51.8776 28.2738 51.7368C30.1624 51.4186 31.9556 50.6808 33.5214 49.5779C35.0872 48.475 36.3857 47.035 37.3214 45.3639C39.1163 42.1493 39.9503 38.4868 39.7242 34.8119C39.5156 32.9651 39.5156 31.1006 39.7242 29.2538C40.6101 26.0188 42.5518 23.1727 45.2405 21.1675C48.6255 18.3676 52.8881 16.1945 54.8104 12.3707C55.1678 11.8125 55.3577 11.1635 55.3577 10.5006C55.3577 9.83774 55.1678 9.18879 54.8104 8.63052C54.6015 8.40068 54.3298 8.19174 54.3507 7.85742" fill="#142B2A"/>
<path d="M63.4814 46.6158L79.278 30.2969L84.9197 37.9235L72.6334 51.7351L63.4814 46.6158Z" fill="#9BCEA4"/>
<path d="M65.2549 48.7493C65.2549 48.7493 67.7831 44.5703 68.4936 44.5703C69.204 44.5703 68.2428 46.9315 68.2428 46.9315C69.8154 46.0583 71.4336 45.2701 73.0905 44.5703C73.5502 44.5703 70.4577 47.3493 70.4577 47.3493C70.4577 47.3493 73.5502 45.2599 73.7382 45.4897C73.9263 45.7195 70.8547 48.1433 70.8547 48.1433C70.8547 48.1433 73.2994 46.7852 73.2994 47.2866C73.2994 47.7881 70.4577 49.1881 70.4577 49.1881C70.4577 49.1881 72.2129 48.8538 72.2129 49.1881C70.4256 50.252 68.5687 51.1944 66.6548 52.0089L65.2549 48.7493Z" fill="#0095D4"/>
<path d="M84.9206 37.925L83.5416 29.5879L80.7207 32.2624L84.9206 37.925Z" fill="#C74593"/>
<path d="M62.77 21.1457C62.5341 21.1752 62.2954 21.1752 62.0595 21.1457C62.0073 21.131 61.963 21.0967 61.9358 21.0499C61.9085 21.0032 61.9003 20.9476 61.9132 20.895C61.9182 20.8673 61.9288 20.8409 61.9442 20.8173C61.9596 20.7938 61.9796 20.7736 62.003 20.758C62.0264 20.7424 62.0527 20.7317 62.0804 20.7265C62.108 20.7213 62.1364 20.7218 62.1639 20.7279C62.6177 20.8324 63.0893 20.8324 63.5431 20.7279C63.8156 19.1727 63.997 17.6029 64.0863 16.0265C64.083 15.9983 64.0861 15.9696 64.0954 15.9427C64.1047 15.9158 64.1199 15.8914 64.14 15.8713C64.1602 15.8512 64.1846 15.8359 64.2115 15.8266C64.2383 15.8173 64.267 15.8142 64.2952 15.8175C64.3245 15.8174 64.3535 15.8234 64.3803 15.8352C64.4071 15.847 64.4313 15.8643 64.451 15.886C64.4707 15.9076 64.4855 15.9332 64.4947 15.961C64.5039 15.9888 64.5072 16.0182 64.5043 16.0474C64.4194 17.6321 64.2309 19.2095 63.9401 20.7696C63.9658 20.8369 63.9658 20.9113 63.9401 20.9786C63.8737 21.0664 63.7767 21.1261 63.6684 21.1457C63.3835 21.2297 63.0879 21.272 62.7909 21.2711" fill="#142B2A"/>
<path d="M62.5389 18.01H62.3299C62.2949 18.0004 62.2631 17.9819 62.2374 17.9562C62.2118 17.9306 62.1932 17.8987 62.1836 17.8638C62.1836 17.8638 62.1836 17.8637 62.1836 17.7175V17.5712C62.2009 17.515 62.2306 17.4633 62.2703 17.4199C62.3101 17.3766 62.359 17.3426 62.4135 17.3205C62.4655 17.2947 62.5226 17.2812 62.5806 17.2812C62.6386 17.2812 62.6958 17.2947 62.7478 17.3205C62.8037 17.3539 62.8514 17.3994 62.8876 17.4536C62.9237 17.5078 62.9473 17.5694 62.9567 17.6339C62.9677 17.6939 62.9641 17.7557 62.9459 17.814C62.9277 17.8722 62.8955 17.9251 62.8522 17.9682C62.813 18.0044 62.7669 18.0323 62.7167 18.0503C62.6664 18.0682 62.613 18.0758 62.5597 18.0727" fill="#142B2A"/>
<path d="M62.226 23.7383C61.6498 23.6261 61.1276 23.3245 60.7424 22.8816C60.7027 22.839 60.6807 22.783 60.6807 22.7248C60.6807 22.6667 60.7027 22.6107 60.7424 22.5682C60.7836 22.5342 60.8353 22.5156 60.8887 22.5156C60.942 22.5156 60.9938 22.5342 61.0349 22.5682C61.3468 22.9497 61.7835 23.2087 62.2678 23.2994C62.2947 23.3017 62.3207 23.3098 62.3442 23.323C62.3677 23.3363 62.3879 23.3544 62.4038 23.3762C62.4196 23.398 62.4307 23.423 62.436 23.4494C62.4414 23.4758 62.441 23.5031 62.4349 23.5293C62.4269 23.5763 62.4045 23.6196 62.3709 23.6533C62.3372 23.687 62.2939 23.7094 62.2469 23.7174" fill="#142B2A"/>
<path d="M64.3141 16.0884H64.1887C63.6075 15.6704 62.9567 15.3591 62.2664 15.169C62.2226 15.148 62.1873 15.1124 62.1668 15.0683C62.1464 15.0242 62.142 14.9743 62.1543 14.9273C62.1667 14.8802 62.1952 14.839 62.2347 14.8106C62.2742 14.7823 62.3224 14.7686 62.3709 14.772C63.1246 14.9604 63.8343 15.294 64.4604 15.754C64.4987 15.7931 64.5201 15.8456 64.5201 15.9003C64.5201 15.955 64.4987 16.0075 64.4604 16.0465C64.4063 16.0657 64.3473 16.0657 64.2932 16.0465" fill="#142B2A"/>
<path d="M64.6483 4.61818C64.7737 7.06289 61.6812 9.23591 57.7321 9.46576C53.783 9.6956 50.4816 7.89867 50.3562 5.45396C50.2309 3.00925 53.3024 0.857078 57.2516 0.627233C61.2007 0.397389 64.5021 2.19436 64.6483 4.61818Z" fill="#CA5098"/>
<path d="M58.1497 3.78311C58.1242 3.78656 58.0982 3.78407 58.0738 3.77584C58.0494 3.76761 58.0273 3.75387 58.0091 3.73566C57.9909 3.71746 57.9772 3.69533 57.969 3.67094C57.9607 3.64655 57.9583 3.62057 57.9617 3.59506C57.928 3.19537 57.7583 2.81933 57.481 2.52946C57.3952 2.45649 57.2952 2.40209 57.1873 2.36973C57.0794 2.33736 56.966 2.32767 56.8542 2.34135C56.7363 2.34528 56.6207 2.37545 56.5159 2.42967C56.411 2.48388 56.3197 2.56084 56.2483 2.65483C56.0807 2.92275 56.0071 3.2389 56.0393 3.55329C56.0454 3.57802 56.0466 3.60371 56.0425 3.62886C56.0384 3.654 56.0291 3.67808 56.0154 3.69957C56.0017 3.72107 55.9839 3.73954 55.9629 3.7539C55.9418 3.76827 55.918 3.7782 55.893 3.78311C55.8667 3.78919 55.8396 3.78956 55.8132 3.78419C55.7867 3.77882 55.7618 3.76784 55.74 3.75199C55.7182 3.73614 55.7 3.71584 55.6868 3.69237C55.6735 3.66889 55.6655 3.64283 55.6632 3.61598C55.6068 3.19256 55.7031 2.76288 55.9348 2.40403C56.0428 2.26735 56.179 2.15554 56.334 2.07621C56.4891 1.99688 56.6593 1.9519 56.8333 1.94434C56.9938 1.91957 57.158 1.93113 57.3135 1.97814C57.4689 2.02515 57.6118 2.10642 57.7318 2.21599C58.0934 2.5813 58.3153 3.06203 58.3587 3.57421C58.359 3.62619 58.3398 3.67637 58.305 3.715C58.2702 3.75364 58.2223 3.77791 58.1706 3.78311" fill="#1D1D1B"/>
</svg>
