<svg width="64" height="129" viewBox="0 0 64 129" fill="none" xmlns="http://www.w3.org/2000/svg">
<path d="M55.4942 0.425781H58.749V13.2475H55.4942V0.425781Z" fill="#CA5098"/>
<path d="M63.0518 13.2323C63.0248 14.403 62.6528 15.5396 61.9825 16.4997C61.3122 17.4598 60.3734 18.2007 59.2838 18.6294C58.1941 19.0582 57.0022 19.1557 55.8573 18.9098C54.7125 18.6638 53.6658 18.0854 52.8483 17.247C52.0309 16.4086 51.4791 15.3475 51.2622 14.1968C51.0454 13.0462 51.173 11.857 51.6292 10.7786C52.0854 9.70015 52.8498 8.78039 53.8265 8.13461C54.8033 7.48883 55.949 7.14577 57.12 7.14845C58.707 7.18814 60.2157 7.84659 61.3239 8.98326C62.4322 10.1199 63.0523 11.6448 63.0518 13.2323Z" fill="#CA5098"/>
<path d="M54.0759 0H60.251V1.21678H54.0759V0Z" fill="#0095D4"/>
<path d="M59.9786 12.7605C58.8512 12.8488 57.7172 12.7302 56.6325 12.4107C55.5476 12.0955 54.4299 11.9067 53.3016 11.8479C52.5941 11.836 51.8927 11.9814 51.2483 12.2738C51.1997 12.5909 51.1742 12.9112 51.1722 13.232C51.1314 14.0372 51.2549 14.8424 51.5349 15.5984C51.815 16.3545 52.2459 17.0457 52.8015 17.6301C53.357 18.2145 54.0255 18.6798 54.7665 18.9977C55.5074 19.3157 56.3053 19.4796 57.1116 19.4796C57.9179 19.4796 58.7158 19.3157 59.4567 18.9977C60.1977 18.6798 60.8662 18.2145 61.4217 17.6301C61.9773 17.0457 62.4082 16.3545 62.6882 15.5984C62.9683 14.8424 63.0918 14.0372 63.051 13.232C63.0542 12.7184 62.9877 12.2067 62.8533 11.711C62.5491 11.8783 62.2448 12.0456 61.9254 12.1825C61.307 12.4692 60.6518 12.6689 59.9786 12.7757" fill="#9BCEA4"/>
<path d="M58.4884 10.6007C58.2831 10.7916 58.131 11.0327 58.0473 11.3003C57.9603 11.5334 57.924 11.7823 57.9409 12.0304C57.9782 12.2267 58.0538 12.4136 58.1634 12.5807C58.273 12.7477 58.4145 12.8915 58.5797 13.0038C59.1656 13.4542 59.8955 13.6759 60.633 13.6274C60.8163 13.6193 60.9966 13.5781 61.1653 13.5057C61.3291 13.4104 61.4654 13.2741 61.5608 13.1103C61.6946 12.8824 61.7751 12.6272 61.7962 12.3638C61.8173 12.1003 61.7784 11.8356 61.6824 11.5893C61.4894 11.1074 61.1271 10.7125 60.6634 10.479C60.3315 10.278 59.9472 10.1807 59.5596 10.1997C59.1721 10.2187 58.7991 10.353 58.4884 10.5855" fill="white"/>
<path d="M41.3449 61.8262C39.8891 64.1693 37.9378 66.1652 35.6281 67.6734C33.3184 69.1817 30.7064 70.1658 27.9756 70.5566C22.5525 71.279 17.0447 71.0473 11.7013 69.8722C8.05103 69.2333 4.0965 68.3512 1.84547 65.3093C-0.405552 62.2673 -0.207832 58.4193 0.415764 54.8602C0.794765 52.4534 1.50095 50.1097 2.5147 47.8942C5.00909 42.7229 9.61763 39.0422 14.2262 35.7265C18.5913 32.6845 24.1124 29.1559 29.6335 30.9811C33.2534 32.1826 33.4511 34.7835 34.1204 38.1904C34.3336 40.2651 35.0545 42.2553 36.2193 43.9853C37.6642 45.7801 39.8696 46.5862 41.1928 48.5482C42.3819 50.5448 43.0222 52.8202 43.0489 55.1439C43.0756 57.4677 42.4878 59.7572 41.3449 61.7806" fill="#CA5098"/>
<path d="M34.1689 30.9826L31.051 23.9102L27.933 24.8531V35.287L34.1689 30.9826Z" fill="#DEDEDE"/>
<path d="M34.5795 120.429H37.7127V120.308C40.6152 106.075 42.7023 91.6891 43.9639 77.2188H43.6749C42.4025 91.6316 40.3205 105.961 37.4389 120.14H34.8533L34.9598 103.516H34.6708L34.5795 120.429Z" fill="#13110C"/>
<path d="M25.2557 122.742H28.8147V122.651C28.906 122.423 38.6858 99.2735 37.6211 79.7747V79.6074L24.2671 81.828L25.2557 122.742ZM28.617 122.438H25.5751L24.6321 82.0866L37.4082 79.9572C38.3664 98.726 29.3166 120.826 28.6474 122.438" fill="#13110C"/>
<path d="M54.0059 25.0647L50.8727 22.3574C50.8727 22.3574 29.1077 29.0801 26.9327 34.3883C24.7577 39.6964 24.9706 60.6553 24.9706 60.6553C24.3622 71.5302 24.4535 81.9488 24.4535 81.9488C32.0465 83.1352 39.8116 81.513 46.2946 77.3859C46.2946 77.3859 44.5911 48.9895 42.0967 37.3237C47.5411 34.9482 51.8231 30.5132 54.0059 24.9887" fill="#0095D4"/>
<path d="M32.7717 39.6816C36.0357 39.6516 39.2595 38.9582 42.2473 37.6435C42.2769 37.6236 42.2986 37.5938 42.3085 37.5594C42.3184 37.525 42.3159 37.4883 42.3013 37.4556C42.2868 37.4229 42.2613 37.3963 42.2291 37.3807C42.197 37.365 42.1603 37.3611 42.1256 37.3697C38.9564 38.781 35.509 39.457 32.0416 39.347C32.0013 39.347 31.9626 39.363 31.934 39.3916C31.9055 39.4201 31.8895 39.4588 31.8895 39.4991C31.8848 39.5174 31.8844 39.5366 31.8883 39.555C31.8923 39.5735 31.9005 39.5908 31.9123 39.6056C31.9241 39.6204 31.9392 39.6322 31.9563 39.6401C31.9735 39.648 31.9923 39.6518 32.0112 39.6512C32.0112 39.6512 32.3002 39.6512 32.7717 39.6512" fill="white"/>
<path d="M35.0814 11.4072C34.0776 8.53259 28.739 8.82158 25.9556 9.50601C24.8218 9.85293 23.7678 10.4207 22.8543 11.1768C21.9409 11.9328 21.186 12.8621 20.6333 13.911C20.0805 14.96 19.7407 16.108 19.6335 17.2889C19.5263 18.4698 19.6538 19.6602 20.0087 20.7916C21.8642 27.4686 28.374 24.6548 28.374 24.6548C27.0642 23.4782 26.004 22.0508 25.256 20.457L31.9026 15.6051C32.4388 16.5899 32.9162 17.6057 33.3323 18.647C34.4578 17.8561 36.6176 15.7268 35.0967 11.3616" fill="#CA5098"/>
<path d="M29.6676 19.224C30.7793 17.9888 31.6372 16.5469 32.1924 14.9805L24.8005 20.3647C25.6319 22.1377 26.8112 23.7256 28.2683 25.0341C27.8669 24.0406 27.786 22.9465 28.0369 21.9048C28.2878 20.8631 28.8579 19.9258 29.6676 19.224Z" fill="#CA5098"/>
<path d="M32.4193 13.4902C31.7949 15.2618 30.8227 16.8907 29.5599 18.2813C28.66 19.0861 28.0308 20.1494 27.7585 21.3256C27.4862 22.5018 27.5842 23.7335 28.0389 24.8518C28.7944 25.6167 29.7391 26.1678 30.7767 26.4489C31.3439 26.5832 31.9356 26.5742 32.4985 26.4229C33.0614 26.2716 33.5778 25.9825 34.0011 25.5819C34.3776 25.142 34.6481 24.6217 34.792 24.0609C35.2702 22.2353 35.2281 20.3123 34.6704 18.5094C34.5487 18.114 34.4118 17.7185 34.2749 17.3383C34.0352 17.5078 33.7806 17.6554 33.5144 17.7794L32.4193 13.4902Z" fill="#DEDEDE"/>
<path d="M33.4085 17.7962C33.6747 17.6723 33.9292 17.5247 34.1689 17.3552C33.6454 16.0291 33.0462 14.7341 32.3742 13.4767L33.4085 17.7962Z" fill="#DEDEDE"/>
<path d="M20.1025 14.6929C19.7963 14.6471 19.5115 14.509 19.2859 14.2971C19.0603 14.0851 18.9048 13.8093 18.8401 13.5066C18.716 12.8823 18.785 12.2351 19.0378 11.651C19.3341 10.7588 19.8458 9.95335 20.5276 9.30603C21.2094 8.65872 22.0403 8.18948 22.9467 7.93984C23.2343 7.84348 23.5418 7.82223 23.84 7.87813C24.1381 7.93403 24.417 8.06522 24.6502 8.25923C24.8137 8.47329 24.9307 8.71918 24.9935 8.98112C25.0564 9.24306 25.0638 9.51524 25.0152 9.7802C24.7494 11.3842 23.9764 12.8608 22.8098 13.9933C22.8022 13.8768 22.8022 13.7599 22.8098 13.6435" fill="#CA5098"/>
<path d="M25.4529 123.258C26.1525 124.688 28.3275 124.322 28.3275 124.322C28.3275 124.322 35.2327 126.208 35.0502 127.486C34.8676 128.764 26.5631 127.486 26.5631 127.486V128.049H24.3729C24.3729 128.049 23.3995 124.231 25.468 123.258" fill="#142B2A"/>
<path d="M34.8064 120.672C35.4908 122.117 37.6658 121.752 37.6658 121.752C37.6658 121.752 44.5861 123.638 44.3884 124.9C44.1907 126.163 35.9166 124.9 35.9166 124.9V125.478H33.7113C33.7113 125.478 32.753 121.661 34.8215 120.672" fill="#142B2A"/>
<path d="M33.348 75.5768C33.6642 75.5716 33.9776 75.5151 34.2758 75.4095C36.0857 74.7859 37.0287 72.5652 37.0135 68.991C36.9819 67.2387 36.7935 65.4928 36.4507 63.7741C36.4475 63.7469 36.4353 63.7217 36.416 63.7024C36.3967 63.6831 36.3714 63.6708 36.3443 63.6676C36.3218 63.6526 36.2953 63.6445 36.2682 63.6445C36.2412 63.6445 36.2147 63.6526 36.1922 63.6676C34.9146 65.3559 28.8763 67.2875 28.8155 67.3027C28.7807 67.3132 28.7508 67.3359 28.7313 67.3666C28.7117 67.3973 28.7038 67.434 28.709 67.47C28.709 67.7134 29.4695 73.4778 31.9791 75.0748C32.3843 75.3469 32.86 75.4949 33.348 75.5007M36.2226 64.063C36.5268 65.7209 37.85 73.782 34.1845 75.0444C33.848 75.1682 33.4873 75.2121 33.131 75.1725C32.7746 75.1329 32.4323 75.0109 32.1312 74.8163C29.941 73.4018 29.0893 68.3978 29.0132 67.5308C29.865 67.2571 34.6864 65.6448 36.2226 64.063Z" fill="white"/>
<path d="M29.0903 69.0367C31.8831 68.5598 34.5038 67.3648 36.6952 65.5689C36.7199 65.539 36.7334 65.5013 36.7334 65.4624C36.7334 65.4236 36.7199 65.386 36.6952 65.356C36.6667 65.3281 36.6285 65.3125 36.5887 65.3125C36.5489 65.3125 36.5107 65.3281 36.4822 65.356C34.3456 67.1164 31.7877 68.2905 29.0599 68.7629C29.0399 68.7648 29.0205 68.7707 29.0027 68.7802C28.985 68.7896 28.9693 68.8025 28.9566 68.8181C28.9438 68.8336 28.9343 68.8515 28.9286 68.8708C28.9228 68.89 28.9209 68.9103 28.923 68.9302C28.9297 68.9667 28.9482 68.9999 28.9757 69.0247C29.0032 69.0494 29.0382 69.0644 29.0751 69.0672" fill="white"/>
<path d="M53.4712 20.29C53.4712 20.29 52.1936 16.6092 52.802 16.4571C53.4104 16.305 54.4598 18.3127 54.4598 18.3127C54.4598 18.3127 57.7451 18.6625 59.2661 17.248C60.7871 15.8335 61.0913 16.1986 61.0913 16.1986C60.7276 16.9391 60.2089 17.5927 59.5703 18.115C59.5703 18.115 60.9696 16.594 61.0913 16.8982C61.2129 17.2024 60.5437 18.1758 59.7832 18.7082C59.7832 18.7082 61.0608 17.6283 61.1064 17.9477C60.9969 18.365 60.7822 18.7472 60.4829 19.058C60.2414 19.306 59.9765 19.5301 59.692 19.7272C59.692 19.7272 60.6806 19.1644 60.8479 19.3774C61.0152 19.5903 58.6729 21.4915 56.1633 21.4915L53.7146 24.8529L51.1289 22.6322L53.4712 20.29Z" fill="#CA5098"/>
<path d="M43.8121 78.1641C43.849 78.1613 43.884 78.1463 43.9115 78.1216C43.9391 78.0968 43.9576 78.0636 43.9642 78.0272C45.6829 63.0457 40.9223 38.3452 40.8006 38.1018C40.797 38.0817 40.7893 38.0624 40.7781 38.0453C40.7669 38.0282 40.7523 38.0135 40.7353 38.0021C40.7182 37.9907 40.6991 37.9829 40.6789 37.9792C40.6588 37.9754 40.6381 37.9757 40.6181 37.9801C40.5979 37.9838 40.5787 37.9914 40.5616 38.0026C40.5444 38.0139 40.5297 38.0284 40.5184 38.0455C40.507 38.0625 40.4992 38.0817 40.4954 38.1018C40.4917 38.122 40.492 38.1426 40.4964 38.1627C40.4964 38.406 45.3787 63.0609 43.66 77.9967C43.6621 78.0356 43.6764 78.0727 43.701 78.1028C43.7257 78.1329 43.7593 78.1544 43.7969 78.1641" fill="white"/>
<path d="M33.0002 21.0649H33.1066L33.5629 20.639C33.5766 20.6188 33.584 20.595 33.584 20.5706C33.584 20.5462 33.5766 20.5223 33.5629 20.5021L33.426 19.8329C33.2226 18.9759 32.9 18.1517 32.4678 17.3842C32.4403 17.3606 32.4052 17.3477 32.3689 17.3477C32.3327 17.3477 32.2976 17.3606 32.2701 17.3842C32.2454 17.4141 32.2318 17.4518 32.2318 17.4906C32.2318 17.5295 32.2454 17.5671 32.2701 17.5971C32.6921 18.3391 33.0047 19.1383 33.1979 19.9698C33.1979 20.1523 33.2739 20.3501 33.3196 20.5326L32.9241 20.8824C32.8962 20.9108 32.8806 20.9491 32.8806 20.9889C32.8806 21.0287 32.8962 21.0669 32.9241 21.0953C32.9407 21.1034 32.9589 21.1076 32.9773 21.1076C32.9958 21.1076 33.014 21.1034 33.0306 21.0953" fill="#13110C"/>
<path d="M32.9235 23.1197H33.0149C33.159 23.006 33.3248 22.923 33.5023 22.876C33.5403 22.8653 33.5726 22.8403 33.5925 22.8062C33.6124 22.7721 33.6183 22.7316 33.6089 22.6932C33.6057 22.6733 33.5981 22.6543 33.5866 22.6376C33.5752 22.6209 33.5602 22.607 33.5427 22.5968C33.5252 22.5866 33.5057 22.5804 33.4856 22.5786C33.4654 22.5769 33.4451 22.5796 33.4261 22.5866C33.2127 22.6399 33.0111 22.7329 32.8321 22.8608C32.8073 22.8908 32.7938 22.9285 32.7938 22.9674C32.7938 23.0063 32.8073 23.044 32.8321 23.074C32.851 23.0834 32.8719 23.0883 32.893 23.0883C32.9141 23.0883 32.935 23.0834 32.9539 23.074" fill="#13110C"/>
<path d="M30.0914 18.9053C30.1244 18.9046 30.1565 18.8941 30.1836 18.8751C30.2106 18.8562 30.2315 18.8296 30.2435 18.7989C30.3233 18.5472 30.4573 18.316 30.636 18.1215C30.8147 17.9271 31.0337 17.7741 31.2777 17.6733C31.295 17.6667 31.3107 17.6566 31.3239 17.6437C31.3371 17.6308 31.3476 17.6154 31.3547 17.5983C31.3618 17.5812 31.3654 17.5629 31.3652 17.5445C31.3651 17.526 31.3612 17.5077 31.3538 17.4908C31.3515 17.4707 31.3442 17.4514 31.3326 17.4348C31.321 17.4182 31.3054 17.4047 31.2873 17.3956C31.2692 17.3866 31.249 17.3822 31.2288 17.3829C31.2085 17.3836 31.1887 17.3893 31.1713 17.3996C30.8841 17.5137 30.626 17.6903 30.4156 17.9166C30.2052 18.1428 30.0477 18.413 29.9545 18.7076C29.9444 18.7439 29.9481 18.7827 29.965 18.8164C29.9819 18.8501 30.0106 18.8764 30.0458 18.8901" fill="#13110C"/>
<path d="M33.6365 17.0788C33.669 17.0762 33.7003 17.065 33.7271 17.0463C33.7538 17.0276 33.7751 17.002 33.7886 16.9723C33.7995 16.9339 33.7963 16.8928 33.7795 16.8565C33.7628 16.8203 33.7336 16.7912 33.6973 16.7746C33.4337 16.6838 33.1531 16.6526 32.876 16.6833C32.8383 16.6907 32.8049 16.7121 32.7823 16.7431C32.7598 16.7741 32.7498 16.8125 32.7543 16.8506C32.7562 16.8706 32.7621 16.8901 32.7716 16.9078C32.781 16.9255 32.7939 16.9412 32.8094 16.9539C32.825 16.9667 32.8429 16.9762 32.8622 16.982C32.8814 16.9877 32.9016 16.9896 32.9216 16.9875C33.1415 16.9346 33.3709 16.9346 33.5908 16.9875" fill="#13110C"/>
<path d="M31.5535 19.579C31.5009 19.6053 31.4431 19.6196 31.3843 19.6207C31.3337 19.6229 31.2833 19.6146 31.2362 19.5962C31.1891 19.5779 31.1463 19.55 31.1105 19.5143C31.07 19.4693 31.0395 19.4161 31.0211 19.3584C31.0028 19.3007 30.997 19.2398 31.004 19.1796V19.0884C30.9927 19.0619 30.9869 19.0335 30.9869 19.0047C30.9869 18.976 30.9927 18.9475 31.004 18.9211C31.0378 18.8745 31.0809 18.8355 31.1307 18.8067C31.1805 18.7779 31.2358 18.7599 31.293 18.7538C31.3497 18.7438 31.4078 18.7469 31.4632 18.7627C31.5185 18.7785 31.5695 18.8066 31.6124 18.845C31.6594 18.8818 31.6985 18.9277 31.7272 18.98C31.756 19.0322 31.7738 19.0898 31.7797 19.1492C31.789 19.2632 31.7566 19.3768 31.6884 19.4686C31.6522 19.515 31.6062 19.5527 31.5535 19.579Z" fill="#13110C"/>
<path d="M33.6671 18.6619C33.7321 18.6774 33.7998 18.6774 33.8648 18.6619C33.9479 18.6137 34.0143 18.5413 34.055 18.4543C34.0958 18.3673 34.109 18.2699 34.093 18.1752C34.075 18.08 34.0239 17.9941 33.9488 17.9329C33.8736 17.8716 33.7792 17.8389 33.6823 17.8406C33.5869 17.8214 33.4887 17.8214 33.3933 17.8406C33.3574 17.8572 33.3294 17.8872 33.3152 17.9241C33.301 17.961 33.3017 18.002 33.3172 18.0383C33.3107 18.0684 33.3107 18.0995 33.3172 18.1296C33.2947 18.1825 33.283 18.2394 33.283 18.2969C33.283 18.3544 33.2947 18.4113 33.3172 18.4642C33.3558 18.5166 33.4062 18.5591 33.4644 18.5882C33.5226 18.6173 33.5868 18.6321 33.6519 18.6315M33.6519 18.0687C33.6784 18.0719 33.7036 18.0821 33.7249 18.0981C33.7463 18.1141 33.7631 18.1355 33.7736 18.16C33.7742 18.1896 33.7676 18.219 33.7543 18.2455C33.7411 18.272 33.7216 18.2948 33.6975 18.3121C33.6759 18.3294 33.6491 18.3388 33.6215 18.3388C33.5938 18.3388 33.567 18.3294 33.5454 18.3121C33.5674 18.302 33.587 18.2873 33.6027 18.2689C33.6185 18.2505 33.63 18.2289 33.6366 18.2057" fill="#13110C"/>
</svg>
