<svg width="80" height="99" viewBox="0 0 80 99" fill="none" xmlns="http://www.w3.org/2000/svg">
<path d="M21.4572 72.7754C20.2433 72.9612 19.0471 73.2483 17.8811 73.6337C17.8811 73.6337 16.9691 73.9376 17.0585 74.3131C17.1479 74.6886 17.9705 74.4383 18.6857 74.3131C18.6857 74.3131 15.9858 75.5111 16.2361 75.8866C16.4864 76.2621 18.3281 75.4217 18.3281 75.4217C18.3281 75.4217 16.7188 76.2085 16.8619 76.6018C17.0049 76.9952 18.6499 75.9403 18.6499 75.9403C18.6499 75.9403 17.3268 76.87 17.5056 77.2634C17.6844 77.6568 19.0611 76.727 19.0611 76.727C19.0611 76.727 18.2387 77.3349 18.632 77.7462C19.0254 78.1574 21.6002 76.1548 23.0664 74.5992L21.4572 72.7754Z" fill="#9BCEA4"/>
<path d="M23.0127 74.4197L21.2246 72.8641L30.5225 61.6888L24.4968 51.3896L30.129 46.3652L34.8316 61.5457L23.0127 74.4197ZM21.8683 72.8104L22.9769 73.776L34.331 61.4206L29.8966 47.1162L25.0689 51.4254L31.0589 61.6888L30.9516 61.814L21.8683 72.8104Z" fill="#13110C"/>
<path d="M69.4643 84.343H63.0095V84.2C59.2188 74.777 46.9171 43.9868 47.2926 43.0749V42.9855H47.3999L47.525 43.4147V43.2001H47.7396C47.7396 44.3802 57.0374 68.0897 63.385 83.8423H69.1246L64.279 25.6594L52.317 34.993L52.0487 34.6175L64.6544 24.7832V25.2124L69.4643 84.343Z" fill="#13110C"/>
<path d="M59.5591 1.25222L56.4658 39.1052L68.2311 88.4016H73.5952C73.5952 88.4016 93.4425 2.57541 59.5233 1.23438" fill="#0095D4"/>
<path d="M64.5124 0C64.5124 0 66.4613 28.0008 64.1905 41.0178L22.4397 52.5685L19.0781 49.4931C19.0781 49.4931 22.6543 5.31049 64.5124 0Z" fill="#CA5098"/>
<path d="M5.43457 54.7859C7.06463 55.9796 8.79338 57.0324 10.602 57.9329C12.4183 58.839 14.4407 59.2522 16.4668 59.1309C17.0531 59.0989 17.6233 58.9273 18.1298 58.6302C18.5819 58.274 18.9277 57.8005 19.1294 57.2614C19.3312 56.7223 19.3812 56.1382 19.274 55.5726C19.036 54.4442 18.5197 53.3932 17.7721 52.5151C16.2897 50.5661 14.4736 48.8952 12.408 47.5801" fill="#E3E3E3"/>
<path d="M6.49152 42.9677C5.73649 42.9394 4.98813 43.1188 4.32795 43.4863C3.62343 43.9585 3.06095 44.6137 2.70088 45.3816C2.02868 46.7262 1.66393 48.2035 1.63301 49.7064C1.60208 51.2094 1.90569 52.7004 2.52201 54.0715C3.1657 55.484 3.71999 56.5211 4.97162 56.396C6.55978 55.8652 7.99555 54.9571 9.15569 53.7497C10.4582 52.4254 11.5877 50.9414 12.5172 49.3332C13.1916 49.9696 13.902 50.5666 14.645 51.1212C14.6632 51.1343 14.6851 51.1414 14.7075 51.1414C14.73 51.1414 14.7519 51.1343 14.7702 51.1212C14.8596 51.0318 14.645 50.5669 14.645 50.5669C14.4662 50.1557 14.341 49.7623 14.5198 49.5835C15.1456 48.904 16.0039 50.6384 16.6834 51.2642C16.3844 49.8016 15.7421 48.4309 14.8095 47.2652C13.8769 46.0994 12.6806 45.1719 11.3193 44.5591C9.86233 43.674 8.21114 43.1584 6.50942 43.0571" fill="#142B2A"/>
<path d="M42.2348 33.8652C42.1275 34.1513 50.3525 70.842 22.906 78.1908L20.957 75.7234L32.6151 62.3488L27.1258 42.9306L42.2348 33.8652Z" fill="#0095D4"/>
<path d="M12.0514 83.681C12.064 84.0478 11.9896 84.4124 11.8342 84.745C11.6788 85.0775 11.4469 85.3685 11.1574 85.5942C9.51238 87.0783 3.54033 89.0451 0 86.4346L6.0436 81.4102L10.4779 82.0181L12.0514 83.681Z" fill="#0095D4"/>
<path d="M12.0511 83.6797C11.4538 83.1156 10.6962 82.7508 9.88271 82.6355C9.06925 82.5202 8.24004 82.6601 7.50949 83.036C4.8453 84.3592 3.2897 87.1307 0.0175781 86.5048C0.0175781 86.5048 0.929473 80.2645 6.04328 80.2288C11.1571 80.193 12.0511 83.6797 12.0511 83.6797Z" fill="#CA5098"/>
<path d="M5.18652 96.179H9.8534L7.24282 85.7547C7.24282 85.7547 7.24279 85.6474 7.09974 85.7547C7.06969 85.7631 7.04393 85.7824 7.02739 85.8089C7.01085 85.8354 7.00475 85.8671 7.01036 85.8978L9.53157 96.0181H5.43688V86.309C5.43688 86.2758 5.42368 86.244 5.40021 86.2205C5.37673 86.197 5.3449 86.1838 5.3117 86.1838C5.2785 86.1838 5.24666 86.197 5.22319 86.2205C5.19972 86.244 5.18652 86.2758 5.18652 86.309V96.179Z" fill="#13110C"/>
<path d="M17.6466 78.4424L13.2123 74.8663C13.0994 74.8485 12.984 74.8574 12.8752 74.8921C12.7664 74.9269 12.6672 74.9866 12.5855 75.0665C12.5039 75.1464 12.4421 75.2443 12.405 75.3524C12.3679 75.4604 12.3565 75.5756 12.3718 75.6888L16.6274 78.8894L17.6466 78.4424Z" fill="#9BCEA4"/>
<path d="M20.1891 76.6543C18.8916 76.8566 17.6121 77.1616 16.3627 77.5662L17.3104 78.3708C17.3104 78.3708 14.378 79.694 14.6462 80.1588C14.9145 80.6237 16.917 79.6582 16.917 79.6582C16.917 79.6582 15.129 80.5165 15.3436 80.9278C15.5582 81.339 17.3283 80.2304 17.3283 80.2304C17.3283 80.2304 15.8979 81.2317 16.0946 81.6608C16.2912 82.0899 17.8826 81.0708 17.8826 81.0708C17.8826 81.0708 16.9885 81.7323 17.3998 82.1793C17.811 82.6264 20.4395 80.5165 22.0309 78.8357L20.1891 76.6543Z" fill="#CA5098"/>
<path d="M12.3907 71.9527C14.0357 73.3831 14.751 75.2964 13.9821 76.2261C13.2133 77.1559 11.2643 76.7626 9.61928 75.3321C7.97428 73.9017 7.25904 71.9706 8.0279 71.0408C8.79676 70.111 10.7457 70.5223 12.3907 71.9527Z" fill="#9BCEA4"/>
<path d="M8.90591 71.165C8.90591 71.165 8.08343 72.7563 10.2648 74.7411C12.4463 76.7258 13.6085 75.5457 13.6085 75.5457C13.6085 75.5457 14.3952 73.9007 12.3926 71.9696C11.9804 71.4439 11.3982 71.078 10.7458 70.9344C10.0934 70.7909 9.41131 70.8787 8.81653 71.1829" fill="#0095D4"/>
<path d="M11.3902 71.7008C11.3902 71.9153 10.979 71.9868 10.6214 71.8617C10.2638 71.7365 10.0312 71.4683 10.1028 71.2538C10.1743 71.0392 10.5141 70.9677 10.8717 71.0928C11.2293 71.218 11.4439 71.4862 11.3902 71.7008Z" fill="white"/>
<path d="M56.9678 88.58C56.9678 87.239 62.8862 85.0039 62.8862 85.0039C64.2737 85.2442 65.6801 85.3578 67.0882 85.3436C67.2491 86.1661 67.4994 87.6144 67.1776 88.0078C66.8557 88.4012 57.0393 89.8852 56.9678 88.5442" fill="#142B2A"/>
<path d="M63.2607 92.746C63.2607 91.4229 69.1792 89.1699 69.1792 89.1699C70.5678 89.399 71.9737 89.5067 73.381 89.4918C73.5598 90.3321 73.7923 91.7626 73.4704 92.1738C73.1486 92.5851 63.3323 93.9619 63.2607 92.6924" fill="#142B2A"/>
<path d="M13.2139 57.8776H13.1066C12.7384 57.8143 12.3824 57.6936 12.0516 57.52C11.0495 57.0252 10.1025 56.4258 9.22646 55.7319C9.18863 55.6869 9.16797 55.6299 9.16797 55.571C9.16797 55.5122 9.18863 55.4552 9.22646 55.4101C9.27155 55.3723 9.32858 55.3516 9.38744 55.3516C9.4463 55.3516 9.50321 55.3723 9.5483 55.4101C10.393 56.1032 11.3103 56.7027 12.2841 57.1982C12.5618 57.3551 12.864 57.464 13.1781 57.52H13.3212L13.4284 57.4127C13.6021 57.1646 13.7631 56.908 13.9111 56.6439C13.9411 56.5933 13.9892 56.556 14.0456 56.5394C14.102 56.5228 14.1626 56.5282 14.2152 56.5545C14.2567 56.5978 14.2799 56.6554 14.2799 56.7154C14.2799 56.7754 14.2567 56.833 14.2152 56.8763C14.0714 57.1487 13.9101 57.4115 13.7324 57.6631C13.6719 57.7774 13.5784 57.8708 13.4641 57.9313C13.3703 57.9555 13.2719 57.9555 13.1781 57.9313" fill="#0095D4"/>
<path d="M12.3547 55.1982C12.1842 55.1946 12.0154 55.1644 11.8541 55.1088C11.6916 55.0412 11.5445 54.9413 11.4216 54.8153C11.2987 54.6893 11.2025 54.5398 11.1389 54.3757C11.0722 54.187 11.0518 53.9849 11.0793 53.7866C11.1068 53.5883 11.1815 53.3995 11.2971 53.236C11.4127 53.0725 11.5659 52.9391 11.7437 52.8471C11.9215 52.7551 12.1188 52.707 12.319 52.707C12.5193 52.707 12.7165 52.7551 12.8943 52.8471C13.0721 52.9391 13.2252 53.0725 13.3409 53.236C13.4565 53.3995 13.5312 53.5883 13.5587 53.7866C13.5862 53.9849 13.5658 54.187 13.4991 54.3757C13.453 54.5472 13.3698 54.7065 13.2555 54.8424C13.1412 54.9784 12.9986 55.0876 12.8375 55.1625C12.6872 55.2354 12.5218 55.2721 12.3547 55.2698M11.5501 54.2863C11.5923 54.3911 11.6554 54.4862 11.7353 54.5661C11.8152 54.646 11.9102 54.7089 12.015 54.7512C12.1165 54.7955 12.2261 54.8184 12.3368 54.8184C12.4476 54.8184 12.5573 54.7955 12.6588 54.7512C12.7616 54.7009 12.8518 54.6282 12.923 54.5385C12.9941 54.4487 13.0444 54.3443 13.07 54.2327C13.1143 54.1311 13.1371 54.0216 13.1371 53.9108C13.1371 53.8001 13.1143 53.6905 13.07 53.589C12.9642 53.4008 12.7901 53.2606 12.5837 53.1973C12.3773 53.1341 12.1545 53.1527 11.9614 53.2493C11.7785 53.3415 11.6388 53.5015 11.572 53.6952C11.5052 53.8888 11.5166 54.1009 11.6038 54.2863" fill="#0095D4"/>
<path d="M12.838 53.1753C12.7812 53.155 12.7336 53.1149 12.7041 53.0623C12.6745 53.0098 12.6649 52.9483 12.677 52.8892L13.8035 48.4727C13.8123 48.419 13.8413 48.3707 13.8844 48.3375C13.9276 48.3043 13.9817 48.2887 14.0359 48.294C14.3207 48.3273 14.5984 48.4057 14.8585 48.5264C14.9122 48.5533 14.9534 48.6001 14.9734 48.6567C14.9934 48.7134 14.9906 48.7757 14.9657 48.8304C14.954 48.8585 14.9368 48.8841 14.9152 48.9057C14.8936 48.9272 14.8679 48.9443 14.8397 48.9559C14.8115 48.9675 14.7812 48.9734 14.7506 48.9734C14.7201 48.9733 14.69 48.9673 14.6618 48.9555C14.5066 48.886 14.3449 48.8321 14.179 48.7946L13.1062 53.0144C13.094 53.0616 13.0661 53.1033 13.0271 53.1325C12.9881 53.1618 12.9403 53.1768 12.8915 53.1753" fill="#0095D4"/>
<path d="M10.6391 56.7708C10.6193 56.7792 10.598 56.7835 10.5765 56.7835C10.555 56.7835 10.5337 56.7792 10.5139 56.7708C10.4724 56.7276 10.4492 56.6699 10.4492 56.6099C10.4492 56.5499 10.4724 56.4923 10.5139 56.449C10.8795 55.9117 11.2081 55.3502 11.4973 54.7682C11.5079 54.7393 11.5251 54.7131 11.5475 54.692C11.57 54.6709 11.5971 54.6554 11.6267 54.6467C11.6562 54.638 11.6875 54.6363 11.7178 54.6419C11.7481 54.6475 11.7767 54.6601 11.8013 54.6788C11.8378 54.721 11.8579 54.775 11.8579 54.8308C11.8579 54.8866 11.8378 54.9406 11.8013 54.9828C11.5087 55.6045 11.168 56.2024 10.7821 56.7708C10.7618 56.7991 10.7349 56.8221 10.7037 56.8376C10.6726 56.8532 10.6381 56.861 10.6033 56.8602" fill="#0095D4"/>
<path d="M15.4309 58.3988C15.3257 58.3947 15.2227 58.3668 15.1298 58.3173C15.0369 58.2678 14.9566 58.1978 14.8945 58.1127C14.8104 58.0236 14.7511 57.9139 14.7229 57.7946C14.6946 57.6753 14.6983 57.5507 14.7336 57.4333C14.7242 57.417 14.7192 57.3985 14.7192 57.3796C14.7192 57.3608 14.7242 57.3423 14.7336 57.326C14.7258 57.2906 14.7258 57.254 14.7336 57.2187C14.8045 57.1202 14.8989 57.0408 15.0082 56.9877C15.1174 56.9347 15.238 56.9096 15.3593 56.9147C15.4816 56.9131 15.6021 56.9437 15.7088 57.0033C15.8155 57.0629 15.9047 57.1495 15.9673 57.2545C16.0252 57.3615 16.0555 57.4814 16.0555 57.6031C16.0555 57.7249 16.0252 57.8447 15.9673 57.9518C15.9168 58.063 15.8399 58.1602 15.7433 58.235C15.6467 58.3098 15.5334 58.3599 15.413 58.3809H15.3237M15.0554 57.4869C15.0315 57.5243 15.0188 57.5677 15.0188 57.6121C15.0188 57.6564 15.0315 57.6999 15.0554 57.7373C15.0813 57.7753 15.1159 57.8064 15.1564 57.8282C15.1968 57.85 15.2419 57.8617 15.2879 57.8624C15.3315 57.8483 15.3716 57.8251 15.4055 57.7942C15.4394 57.7634 15.4664 57.7257 15.4845 57.6836C15.51 57.6435 15.5235 57.597 15.5235 57.5495C15.5235 57.502 15.51 57.4555 15.4845 57.4154C15.459 57.3782 15.4239 57.3487 15.383 57.3298C15.3421 57.3109 15.2969 57.3034 15.2521 57.3081C15.2155 57.2918 15.1759 57.2834 15.1358 57.2834C15.0958 57.2834 15.0562 57.2918 15.0196 57.3081" fill="#142B2A"/>
<path d="M70.915 80.4448C70.884 80.446 70.8532 80.4398 70.825 80.4268C70.7968 80.4137 70.772 80.3942 70.7528 80.3697C70.7336 80.3453 70.7205 80.3167 70.7145 80.2863C70.7085 80.2558 70.7099 80.2243 70.7183 80.1945C70.7183 79.4256 70.8078 78.6389 70.8614 77.8521C70.8515 77.8175 70.8498 77.7811 70.8564 77.7457C70.863 77.7104 70.8776 77.677 70.8993 77.6483C70.921 77.6196 70.949 77.5963 70.9812 77.5802C71.0135 77.5642 71.0489 77.5558 71.0849 77.5558C71.1209 77.5558 71.1564 77.5642 71.1886 77.5802C71.2208 77.5963 71.2488 77.6196 71.2705 77.6483C71.2921 77.677 71.3069 77.7104 71.3135 77.7457C71.32 77.7811 71.3183 77.8175 71.3084 77.8521C71.3084 78.621 71.3084 79.4077 71.1654 80.1945C71.1608 80.253 71.1344 80.3076 71.0913 80.3474C71.0481 80.3872 70.9916 80.4092 70.9329 80.409M71.2368 75.3667C71.1768 75.3581 71.122 75.3279 71.0825 75.2819C71.0431 75.2358 71.0217 75.1771 71.0223 75.1164C71.0223 74.2045 71.0223 73.3284 71.1475 72.4165C71.1473 72.3578 71.1693 72.3012 71.2091 72.2581C71.2489 72.215 71.3035 72.1885 71.362 72.184C71.422 72.1927 71.4769 72.2228 71.5163 72.2689C71.5558 72.3149 71.5772 72.3737 71.5766 72.4344C71.5766 73.3284 71.5766 74.2224 71.4514 75.1343C71.4516 75.1929 71.4296 75.2495 71.3898 75.2926C71.35 75.3357 71.2953 75.3622 71.2368 75.3667ZM71.4336 70.0026C71.4039 70.0027 71.3743 69.9966 71.3471 69.9847C71.3198 69.9729 71.2953 69.9554 71.2751 69.9336C71.255 69.9117 71.2395 69.8859 71.2299 69.8578C71.2202 69.8296 71.2166 69.7998 71.2191 69.7701V67.0523C71.2191 66.9954 71.2416 66.9408 71.2818 66.9006C71.322 66.8603 71.3767 66.8378 71.4336 66.8378C71.4634 66.8377 71.4928 66.8437 71.52 66.8556C71.5473 66.8675 71.5718 66.8849 71.592 66.9068C71.6121 66.9287 71.6276 66.9545 71.6373 66.9826C71.6469 67.0107 71.6506 67.0406 71.6482 67.0702V69.7701C71.6482 69.8318 71.6237 69.8909 71.5801 69.9345C71.5365 69.9781 71.4774 70.0026 71.4157 70.0026M71.4157 64.6385C71.3541 64.6385 71.2949 64.614 71.2514 64.5704C71.2078 64.5268 71.1833 64.4677 71.1833 64.406C71.1833 63.9054 71.1833 63.4226 71.1833 62.922V61.6882C71.1833 61.6313 71.2059 61.5767 71.2461 61.5364C71.2864 61.4962 71.3409 61.4736 71.3978 61.4736C71.4275 61.4712 71.4573 61.4748 71.4854 61.4845C71.5136 61.4942 71.5393 61.5096 71.5612 61.5298C71.583 61.55 71.6005 61.5744 71.6124 61.6017C71.6243 61.629 71.6304 61.6584 71.6303 61.6882V64.406C71.6303 64.4677 71.6058 64.5268 71.5622 64.5704C71.5186 64.614 71.4595 64.6385 71.3978 64.6385M71.3978 59.2743C71.3362 59.2743 71.277 59.2498 71.2335 59.2062C71.1899 59.1626 71.1654 59.1035 71.1654 59.0419C71.1654 58.13 71.1654 57.2539 71.1654 56.342C71.1629 56.3114 71.1666 56.2807 71.1761 56.2515C71.1855 56.2224 71.2006 56.1954 71.2206 56.1721C71.2405 56.1489 71.2648 56.1298 71.2922 56.1159C71.3195 56.1021 71.3494 56.0939 71.3799 56.0916C71.4872 56.0916 71.6124 56.1989 71.6124 56.3241C71.6124 57.2181 71.6124 58.1121 71.6124 59.0419C71.6148 59.0715 71.6111 59.1014 71.6015 59.1295C71.5918 59.1576 71.5763 59.1834 71.5562 59.2053C71.536 59.2272 71.5115 59.2446 71.4842 59.2565C71.457 59.2684 71.4276 59.2744 71.3978 59.2743ZM71.2547 53.9102C71.1945 53.906 71.1378 53.8802 71.0951 53.8375C71.0524 53.7947 71.0265 53.738 71.0223 53.6777C71.0223 52.7658 71.0223 51.8897 70.915 50.9778C70.9144 50.9172 70.9358 50.8584 70.9752 50.8123C71.0147 50.7663 71.0695 50.7361 71.1296 50.7275C71.1912 50.7275 71.2503 50.752 71.2939 50.7956C71.3375 50.8392 71.362 50.8983 71.362 50.9599C71.362 51.8361 71.362 52.748 71.4693 53.6599C71.4717 53.6904 71.4682 53.7211 71.4587 53.7503C71.4492 53.7794 71.434 53.8064 71.4141 53.8296C71.3941 53.8529 71.3698 53.872 71.3425 53.8859C71.3151 53.8997 71.2853 53.9079 71.2547 53.9102ZM71.0044 48.5461C70.9441 48.5419 70.8874 48.516 70.8447 48.4733C70.802 48.4306 70.7762 48.3739 70.772 48.3136L70.6111 45.6137C70.6086 45.584 70.6123 45.5542 70.622 45.5261C70.6316 45.4979 70.6471 45.4721 70.6673 45.4503C70.6874 45.4284 70.7119 45.411 70.7392 45.3991C70.7665 45.3872 70.7959 45.3811 70.8256 45.3812C70.8825 45.3812 70.9371 45.4038 70.9773 45.444C71.0176 45.4843 71.0402 45.5389 71.0402 45.5958C71.0402 46.4719 71.1475 47.3839 71.2012 48.2958C71.2064 48.3547 71.1889 48.4133 71.1524 48.4598C71.1158 48.5063 71.0629 48.5372 71.0044 48.5461ZM70.6469 43.1819C70.5882 43.1821 70.5316 43.1601 70.4885 43.1203C70.4454 43.0805 70.4189 43.0259 70.4144 42.9674C70.4144 42.0376 70.2714 41.1793 70.182 40.2674C70.1813 40.2068 70.2027 40.148 70.2422 40.1019C70.2817 40.0559 70.3365 40.0258 70.3965 40.0171C70.4262 40.0146 70.456 40.0183 70.4841 40.028C70.5123 40.0376 70.538 40.0531 70.5599 40.0732C70.5817 40.0934 70.5992 40.1179 70.6111 40.1452C70.623 40.1724 70.6291 40.2019 70.629 40.2317C70.7184 41.1078 70.7899 42.0197 70.8614 42.9316C70.8666 42.9905 70.8492 43.0492 70.8126 43.0957C70.7761 43.1422 70.7232 43.173 70.6648 43.1819H70.6469ZM70.1641 37.8178C70.1081 37.8184 70.0539 37.7989 70.0112 37.7628C69.9685 37.7267 69.9402 37.6764 69.9316 37.6211C69.9316 36.6735 69.7528 35.8331 69.6456 34.9212C69.6403 34.8622 69.6577 34.8035 69.6942 34.757C69.7308 34.7105 69.7837 34.6797 69.8422 34.6708C69.8718 34.6657 69.9021 34.6669 69.9312 34.6743C69.9602 34.6817 69.9875 34.6951 70.0111 34.7136C70.0346 34.7321 70.0541 34.7554 70.0681 34.7819C70.0822 34.8084 70.0905 34.8376 70.0926 34.8675C70.0926 35.7258 70.2892 36.6556 70.3786 37.5675C70.3837 37.5971 70.3825 37.6273 70.3751 37.6564C70.3678 37.6855 70.3544 37.7127 70.3358 37.7363C70.3173 37.7599 70.294 37.7793 70.2675 37.7933C70.241 37.8074 70.2119 37.8157 70.182 37.8178M69.574 32.4536C69.519 32.451 69.4665 32.4303 69.4245 32.3947C69.3824 32.3592 69.3532 32.3108 69.3415 32.257C69.2342 31.2736 69.1091 30.3795 69.0018 29.557C68.9967 29.5288 68.9974 29.4998 69.0036 29.4718C69.0099 29.4439 69.0217 29.4174 69.0383 29.3941C69.055 29.3708 69.0762 29.351 69.1007 29.336C69.1251 29.321 69.1523 29.311 69.1807 29.3067C69.2112 29.3016 69.2425 29.3027 69.2727 29.3099C69.3028 29.3171 69.3312 29.3303 69.3561 29.3486C69.3811 29.3669 69.4022 29.39 69.4181 29.4166C69.434 29.4432 69.4444 29.4727 69.4488 29.5034C69.5561 30.308 69.6812 31.202 69.7885 32.1855C69.7936 32.216 69.7926 32.2473 69.7854 32.2775C69.7782 32.3076 69.7651 32.3359 69.7467 32.3609C69.7284 32.3859 69.7052 32.407 69.6786 32.4229C69.652 32.4388 69.6226 32.4493 69.5919 32.4536M68.8409 27.0895C68.7881 27.0861 68.7381 27.0647 68.699 27.0289C68.66 26.9931 68.6344 26.9452 68.6264 26.8929C68.3582 25.1048 68.1794 24.2286 68.1794 24.2286C68.1714 24.1981 68.1698 24.1662 68.1746 24.135C68.1793 24.1038 68.1905 24.0739 68.2072 24.0471C68.2239 24.0204 68.246 23.9973 68.2719 23.9793C68.2978 23.9613 68.3272 23.9488 68.3581 23.9425C68.3877 23.9375 68.418 23.9387 68.4471 23.946C68.4761 23.9534 68.5034 23.9668 68.5269 23.9853C68.5505 24.0039 68.57 24.0271 68.584 24.0536C68.5981 24.0801 68.6064 24.1093 68.6085 24.1392C68.6085 24.1392 68.8052 25.0869 69.0734 26.8213C69.0784 26.8509 69.0772 26.8812 69.0699 26.9103C69.0625 26.9393 69.0491 26.9666 69.0306 26.9901C69.0121 27.0137 68.9888 27.0332 68.9623 27.0472C68.9358 27.0613 68.9066 27.0695 68.8767 27.0716" fill="#13110C"/>
<path d="M11.873 54.3018C11.899 54.3413 11.9333 54.3746 11.9735 54.3994C12.0138 54.4242 12.059 54.4397 12.1059 54.4451H12.2491H12.3566C12.3566 54.4451 12.3566 54.4451 12.3566 54.3376C12.3799 54.274 12.3799 54.2042 12.3566 54.1406H12.267C12.267 54.1406 12.07 54.1406 12.0163 54.1406C11.9803 54.2328 11.9803 54.3351 12.0163 54.4272" fill="#142B2A"/>
<path d="M9.95996 57.3979C9.98074 57.4417 10.0137 57.4786 10.0551 57.504C10.0964 57.5295 10.1443 57.5423 10.1928 57.5411H10.3182C10.335 57.5491 10.3533 57.5532 10.3719 57.5532C10.3905 57.5532 10.4089 57.5491 10.4257 57.5411C10.4334 57.4997 10.4334 57.4572 10.4257 57.4157C10.4068 57.3456 10.3765 57.2791 10.336 57.2188C10.336 57.2188 10.1391 57.2188 10.0854 57.2188C10.0316 57.2188 10.0854 57.4158 10.0854 57.4874" fill="#142B2A"/>
<path d="M9.90627 58.8971C9.63719 58.8999 9.37209 58.8321 9.13743 58.7004C9.00549 58.6327 8.88843 58.5394 8.79322 58.4257C8.69801 58.3121 8.6266 58.1805 8.58314 58.0388C8.48814 57.7756 8.48406 57.4882 8.57157 57.2224C8.65908 56.9566 8.83317 56.7278 9.06595 56.5726C9.34229 56.4089 9.66252 56.3348 9.98267 56.3604C10.3028 56.386 10.6072 56.5101 10.854 56.7157C11.0822 56.9431 11.2108 57.2517 11.2116 57.5739C11.2169 57.7521 11.1849 57.9295 11.118 58.0948C11.0511 58.2601 10.9506 58.4096 10.8229 58.534C10.6951 58.6584 10.5429 58.755 10.3759 58.8175C10.2089 58.8799 10.0307 58.9071 9.85269 58.8971M8.95867 57.9136C9.02861 58.0823 9.15495 58.2213 9.31619 58.307C9.50677 58.4149 9.72627 58.4609 9.94414 58.4384C10.162 58.416 10.3676 58.3264 10.5322 58.1819C10.6848 58.0166 10.7681 57.7989 10.7646 57.5739C10.7664 57.48 10.7482 57.3868 10.7112 57.3004C10.6742 57.2141 10.6192 57.1367 10.5499 57.0732C10.3847 56.942 10.184 56.8634 9.97361 56.8475C9.76324 56.8316 9.55298 56.879 9.36988 56.9838C9.21775 57.0826 9.10442 57.2308 9.04903 57.4035C8.99364 57.5762 8.99962 57.7627 9.06595 57.9315" fill="#0095D4"/>
<path d="M10.2986 54.0881C10.2447 54.0883 10.1926 54.0682 10.1528 54.0317C10.113 53.9953 10.0885 53.9452 10.084 53.8914C10.0692 53.6292 10.1371 53.369 10.2783 53.1476C10.4195 52.9262 10.6268 52.7548 10.8708 52.6577C10.923 52.6401 10.98 52.6433 11.0299 52.6666C11.0798 52.6899 11.1188 52.7315 11.1389 52.7829C11.1573 52.8376 11.1546 52.8972 11.1315 52.95C11.1084 53.0029 11.0664 53.0453 11.0137 53.0689C10.8544 53.1273 10.7171 53.2335 10.6204 53.3729C10.5325 53.5177 10.4948 53.6873 10.5132 53.8557C10.5156 53.8853 10.5119 53.9152 10.5022 53.9433C10.4926 53.9715 10.4771 53.9973 10.4569 54.0191C10.4368 54.041 10.4123 54.0584 10.385 54.0702C10.3578 54.0821 10.3283 54.0882 10.2986 54.0881Z" fill="#142B2A"/>
<path d="M8.17075 56.4125H8.06348C8.02699 56.3703 8.00684 56.3163 8.00684 56.2605C8.00684 56.2047 8.02699 56.1508 8.06348 56.1086C8.21866 55.8862 8.3986 55.6823 8.59987 55.5006C8.6198 55.4806 8.64352 55.4648 8.6696 55.4539C8.69569 55.4431 8.72365 55.4375 8.75189 55.4375C8.78013 55.4375 8.80799 55.4431 8.83407 55.4539C8.86015 55.4648 8.88387 55.4806 8.90381 55.5006C8.9403 55.5429 8.96045 55.5968 8.96045 55.6526C8.96045 55.7084 8.9403 55.7623 8.90381 55.8046C8.7277 55.9451 8.57657 56.1144 8.45679 56.3052C8.44004 56.3381 8.41442 56.3655 8.3828 56.3845C8.35119 56.4035 8.3149 56.4132 8.27803 56.4125" fill="#142B2A"/>
<path d="M12.1587 98.0752L12.2839 91.4415L10.1561 94.8746L6.93764 90.7084L6.99122 95.9295L1.03711 90.5117L3.75486 98.1109L12.1587 98.0752Z" fill="#9BCEA4"/>
</svg>
