<svg width="65" height="103" viewBox="0 0 65 103" fill="none" xmlns="http://www.w3.org/2000/svg">
<path d="M34.8167 27.2492C35.868 26.5172 36.7559 25.575 37.4243 24.4822C38.1486 23.0336 38.4384 21.7298 38.0327 21.469C37.6271 21.2083 35.1354 23.8883 35.1354 23.8883C35.1354 23.8883 35.5845 22.2078 35.1354 22.1209C34.3966 21.976 33.1797 25.6557 33.1797 25.6557L34.8167 27.2492Z" fill="#9BCEA4"/>
<path d="M40.0025 17.4718C40.1238 16.9172 40.3187 16.3813 40.582 15.8783C42.1031 13.3286 45.8117 13.6473 47.5646 13.0824C47.9992 12.952 48.5207 12.8071 49.0857 12.6767L49.5637 12.5898C52.2919 12.0754 55.0961 12.1198 57.8066 12.7202C57.966 12.758 58.1213 12.8114 58.2702 12.8795C59.4231 13.3018 60.3815 14.1315 60.9647 15.2119C61.2257 15.9322 61.4435 16.6675 61.6166 17.4138C62.2106 19.3406 63.7027 20.9051 64.1084 22.8753C64.2596 23.7502 64.2256 24.6471 64.0085 25.508C63.7914 26.3689 63.3961 27.1747 62.848 27.8732C61.7211 29.1988 60.307 30.2504 58.7131 30.9482C57.1193 31.646 55.3874 31.9717 53.649 31.9005C52.7826 31.8297 51.9398 31.5824 51.1724 31.1738C50.4051 30.7653 49.7295 30.2041 49.1871 29.5247C48.5659 28.4314 47.8789 27.3767 47.13 26.3666C45.9421 25.1497 44.1312 24.918 42.6971 23.9473C41.6482 23.2648 40.8298 22.2814 40.349 21.126C39.8682 19.9706 39.7475 18.697 40.0025 17.4718Z" fill="#0095D4"/>
<path d="M30.4135 29.4525C31.4715 28.7223 32.3606 27.7739 33.0211 26.6711C33.7454 25.2224 34.0352 23.9186 33.6441 23.6723C33.2529 23.426 30.7467 26.0916 30.7467 26.0916C30.7467 26.0916 31.1958 24.4111 30.7467 24.3242C30.0224 24.1793 28.791 27.8589 28.791 27.8589L30.4135 29.4525Z" fill="#CA5098"/>
<path d="M0.860352 23.8011C1.39636 21.7005 3.7577 19.8028 8.56727 19.4551C10.049 20.3958 11.7666 20.898 13.5217 20.9037C14.2026 20.7879 14.5213 20.5126 14.6372 20.2084C18.6355 22.1496 20.4318 26.9736 20.9823 28.6251L22.431 33.7534L33.1221 26.5101L34.8171 28.5092C34.8171 28.5092 29.4425 44.7923 20.5332 43.6044C16.5784 43.0828 13.9273 38.8817 12.6235 34.217L11.6674 34.5212L3.93152 30.1172C3.93152 30.1172 0.324327 26.2059 0.932767 23.8011" fill="#0095D4"/>
<path d="M8.81281 92.8294L12.6083 92.5252V92.4527C22.1695 74.4748 20.4022 51.977 20.3732 51.7452C20.3714 51.7242 20.3654 51.7039 20.3557 51.6852C20.3459 51.6666 20.3326 51.65 20.3164 51.6365C20.3003 51.6231 20.2816 51.613 20.2615 51.6067C20.2414 51.6005 20.2203 51.5983 20.1994 51.6003C20.177 51.602 20.1552 51.6083 20.1355 51.619C20.1157 51.6296 20.0984 51.6443 20.0848 51.6621C20.0711 51.6799 20.0613 51.7003 20.0561 51.7221C20.0509 51.7439 20.0503 51.7666 20.0545 51.7887C20.0545 52.006 21.8219 74.3299 12.3621 92.2064L8.7404 92.4962C8.70452 92.5069 8.67303 92.5289 8.65065 92.5589C8.62828 92.5889 8.61621 92.6253 8.61621 92.6628C8.61621 92.7002 8.62828 92.7367 8.65065 92.7667C8.67303 92.7967 8.70452 92.8187 8.7404 92.8294" fill="#142C2A"/>
<path d="M10.9861 6.7793C11.7729 8.1674 12.437 9.62159 12.9707 11.1253C13.5191 12.6255 13.6834 14.239 13.4488 15.819C13.3809 16.2706 13.2126 16.7013 12.9563 17.0793C12.6659 17.4068 12.2882 17.6448 11.8674 17.7654C11.4466 17.886 11.0002 17.8841 10.5805 17.7602C9.74638 17.4666 8.99926 16.9685 8.40745 16.3115C7.05203 15.0139 5.93418 13.4892 5.10449 11.8062" fill="#DEDEDE"/>
<path d="M12.7384 102.23C12.7384 100.897 6.63952 99.043 6.63952 99.043C5.26399 99.3579 3.86269 99.547 2.4529 99.6079C2.32252 100.463 2.16316 101.911 2.4529 102.288C2.74263 102.665 12.695 103.563 12.6805 102.288" fill="#0095D4"/>
<path d="M16.9679 96.5113C16.9679 95.164 10.8691 93.3242 10.8691 93.3242C9.49182 93.6296 8.09131 93.8186 6.68239 93.8892C6.55201 94.7294 6.39265 96.1781 6.68239 96.5693C6.97212 96.9604 16.9245 97.8441 16.91 96.5693" fill="#0095D4"/>
<path d="M15.1864 46.3277C15.1864 46.3277 17.881 72.9108 6.59585 98.0886L2.38023 98.7984L2.14844 39.9102L10.2755 43.1262L15.1864 46.3277Z" fill="#9BCEA4"/>
<path d="M10.8703 26.9304L13.9704 37.5926L27.8631 28.2487L30.0651 30.8563C30.0651 30.8563 23.0825 51.9923 11.5077 50.4567C-0.0671595 48.9212 -3.09488 23.0335 3.26477 21.0343C9.27674 19.1511 10.8703 26.9304 10.8703 26.9304Z" fill="#CA5098"/>
<path d="M12.0145 13.1672H12.1015L12.7244 12.776C12.7244 12.776 12.8258 12.776 12.8548 12.6456C12.8848 12.5663 12.8848 12.4787 12.8548 12.3994C12.5485 11.3759 12.0998 10.4006 11.522 9.50204C11.4929 9.47831 11.4569 9.46462 11.4194 9.46304C11.3819 9.46146 11.3449 9.47209 11.3139 9.49328C11.283 9.51448 11.2597 9.54512 11.2476 9.58064C11.2355 9.61617 11.2352 9.65467 11.2467 9.69037C11.811 10.5458 12.2501 11.4776 12.5506 12.4573L11.9421 12.834C11.9163 12.8671 11.9022 12.9079 11.9022 12.9499C11.9022 12.9919 11.9163 13.0326 11.9421 13.0657C11.9552 13.0885 11.9743 13.1073 11.9973 13.12C12.0203 13.1328 12.0462 13.1391 12.0725 13.1382" fill="#142C2A"/>
<path d="M12.0009 15.079C12.3011 14.9945 12.6058 14.9268 12.9135 14.8761C12.934 14.8745 12.9539 14.8685 12.9719 14.8586C12.9899 14.8487 13.0056 14.8351 13.018 14.8187C13.0303 14.8022 13.039 14.7833 13.0434 14.7633C13.0479 14.7432 13.0481 14.7224 13.0439 14.7023C13.0423 14.6799 13.0359 14.6582 13.0253 14.6384C13.0146 14.6187 12.9999 14.6014 12.9822 14.5878C12.9644 14.5741 12.9439 14.5643 12.9221 14.5591C12.9003 14.5538 12.8776 14.5533 12.8556 14.5574C12.5373 14.6027 12.2226 14.6705 11.914 14.7603C11.8729 14.7736 11.8383 14.8018 11.8169 14.8393C11.7954 14.8768 11.7887 14.9209 11.798 14.9631C11.8098 14.9962 11.8313 15.0251 11.8597 15.0458C11.8882 15.0665 11.9222 15.078 11.9574 15.079" fill="#142C2A"/>
<path d="M10.6687 10.8796C10.7134 10.8785 10.7575 10.8676 10.7975 10.8476C10.8376 10.8275 10.8727 10.7989 10.9004 10.7637C10.9255 10.7406 10.9455 10.7126 10.9591 10.6815C10.9728 10.6503 10.9798 10.6167 10.9798 10.5826C10.9798 10.5486 10.9728 10.5149 10.9591 10.4838C10.9455 10.4526 10.9255 10.4246 10.9004 10.4015C10.8818 10.3719 10.8563 10.3471 10.826 10.3295C10.7957 10.3118 10.7616 10.3018 10.7266 10.3001C10.685 10.2937 10.6425 10.2969 10.6023 10.3094C10.5621 10.322 10.5253 10.3436 10.4948 10.3726C10.463 10.4046 10.4386 10.4433 10.4236 10.4859C10.4086 10.5285 10.4032 10.5739 10.4079 10.6188C10.4164 10.6942 10.4493 10.7648 10.5016 10.8197C10.5539 10.8746 10.6228 10.9109 10.6977 10.923" fill="#142C2A"/>
<path d="M8.81187 10.3578C8.84913 10.3724 8.89053 10.3724 8.92779 10.3578C9.65967 9.9637 10.4892 9.78772 11.3181 9.85078C11.3402 9.8528 11.3625 9.85019 11.3835 9.84309C11.4045 9.83599 11.4239 9.82458 11.4402 9.80958C11.4566 9.79458 11.4697 9.7763 11.4786 9.75595C11.4875 9.73561 11.492 9.71365 11.4919 9.69145C11.4939 9.67051 11.4917 9.64935 11.4855 9.62925C11.4793 9.60915 11.4692 9.5905 11.4557 9.57434C11.4422 9.55818 11.4257 9.54486 11.407 9.53513C11.3884 9.52539 11.368 9.51944 11.347 9.51762C10.4257 9.44726 9.50396 9.64873 8.696 10.0971C8.6614 10.1186 8.63267 10.1485 8.61244 10.1839C8.59221 10.2193 8.5811 10.2591 8.58008 10.2999C8.59638 10.3661 8.63801 10.4233 8.696 10.4592H8.76841" fill="#142C2A"/>
<path d="M8.38026 12.0088C8.50315 11.7373 8.66952 11.4878 8.8728 11.27C9.94368 10.1524 10.7722 8.82572 11.3066 7.37306L12.9001 7.66276L13.552 2.65039C11.651 3.38117 9.66493 3.86795 7.64143 4.09906C5.58335 4.33433 3.70263 5.37629 2.41176 6.99639C1.92592 7.78216 1.64017 8.6751 1.57956 9.59694C1.51894 10.5188 1.68528 11.4414 2.06405 12.284C2.45498 13.2298 3.05804 14.0731 3.82665 14.7488C4.59527 15.4245 5.50889 15.9144 6.49697 16.1809C9.03214 16.5866 7.81528 13.4864 8.38026 12.0667" fill="#142C2A"/>
<path d="M9.23294 13.6167C8.80899 13.2624 8.3155 13.0008 7.78428 12.8489C7.538 12.7765 7.2193 12.762 7.1034 13.0517C7.08142 13.1519 7.08142 13.2557 7.1034 13.356C7.14213 13.9038 7.37901 14.4187 7.76978 14.8046C8.24985 15.3414 8.8182 15.7922 9.45024 16.1374C9.45024 16.1374 9.56612 16.1374 9.58061 16.1374" fill="#DEDEDE"/>
<path d="M12.4796 10.3433C12.5257 10.3462 12.5718 10.3385 12.6145 10.3209C12.6571 10.3034 12.6953 10.2764 12.7259 10.2419C12.7708 10.1894 12.7955 10.1226 12.7955 10.0536C12.7955 9.98451 12.7708 9.91771 12.7259 9.86523C12.6844 9.80633 12.6224 9.76498 12.5521 9.74932C12.5127 9.74288 12.4723 9.74611 12.4345 9.75873C12.3966 9.77135 12.3624 9.793 12.3348 9.82178C12.2898 9.86372 12.2579 9.91777 12.2429 9.97744C12.228 10.0371 12.2307 10.0998 12.2506 10.158C12.2705 10.2162 12.3068 10.2674 12.3551 10.3054C12.4035 10.3434 12.4618 10.3667 12.5231 10.3723" fill="#142C2A"/>
<path d="M8.81129 54.2954C8.8293 54.3044 8.84915 54.309 8.86925 54.309C8.88936 54.309 8.9092 54.3044 8.92721 54.2954C8.9452 54.2819 8.95977 54.2644 8.96983 54.2443C8.97989 54.2242 8.98513 54.202 8.98513 54.1796C8.98513 54.1571 8.97989 54.1349 8.96983 54.1148C8.95977 54.0947 8.9452 54.0772 8.92721 54.0637L4.97234 49.935C4.95884 49.917 4.94134 49.9024 4.92123 49.8923C4.90111 49.8823 4.87895 49.877 4.85646 49.877C4.83397 49.877 4.81177 49.8823 4.79165 49.8923C4.77153 49.9024 4.75404 49.917 4.74054 49.935C4.71204 49.9668 4.69629 50.0081 4.69629 50.0508C4.69629 50.0936 4.71204 50.1349 4.74054 50.1668L8.69542 54.2954C8.71343 54.3044 8.73323 54.309 8.75333 54.309C8.77344 54.309 8.79328 54.3044 8.81129 54.2954Z" fill="#142C2A"/>
<path d="M8.81129 57.3247C8.8293 57.3336 8.84915 57.3383 8.86925 57.3383C8.88936 57.3383 8.9092 57.3336 8.92721 57.3247C8.9452 57.3112 8.95977 57.2937 8.96983 57.2736C8.97989 57.2535 8.98513 57.2313 8.98513 57.2088C8.98513 57.1863 8.97989 57.1641 8.96983 57.144C8.95977 57.1239 8.9452 57.1064 8.92721 57.0929L4.97234 52.9642C4.95884 52.9462 4.94134 52.9316 4.92123 52.9215C4.90111 52.9115 4.87895 52.9063 4.85646 52.9062C4.83397 52.9063 4.81177 52.9115 4.79165 52.9215C4.77153 52.9316 4.75404 52.9462 4.74054 52.9642C4.71204 52.9961 4.69629 53.0373 4.69629 53.0801C4.69629 53.1228 4.71204 53.1641 4.74054 53.196L8.69542 57.3247C8.71343 57.3336 8.73323 57.3383 8.75333 57.3383C8.77344 57.3383 8.79328 57.3336 8.81129 57.3247Z" fill="#142C2A"/>
<path d="M8.81129 60.3801C8.84855 60.3946 8.88995 60.3946 8.92721 60.3801C8.94342 60.3639 8.95628 60.3447 8.96505 60.3236C8.97383 60.3025 8.97832 60.2798 8.97832 60.2569C8.97832 60.2341 8.97383 60.2114 8.96505 60.1903C8.95628 60.1691 8.94342 60.1499 8.92721 60.1338L4.97234 56.0051C4.95884 55.9871 4.94134 55.9725 4.92123 55.9624C4.90111 55.9524 4.87895 55.9471 4.85646 55.9471C4.83397 55.9471 4.81177 55.9524 4.79165 55.9624C4.77153 55.9725 4.75404 55.9871 4.74054 56.0051C4.71204 56.037 4.69629 56.0782 4.69629 56.121C4.69629 56.1637 4.71204 56.205 4.74054 56.2369L8.69542 60.3656C8.71343 60.3745 8.73323 60.3792 8.75333 60.3792C8.77344 60.3792 8.79328 60.3745 8.81129 60.3656" fill="#142C2A"/>
<path d="M8.81129 63.3804C8.84855 63.3949 8.88995 63.3949 8.92721 63.3804C8.94342 63.3642 8.95628 63.345 8.96505 63.3239C8.97383 63.3027 8.97832 63.2801 8.97832 63.2572C8.97832 63.2343 8.97383 63.2117 8.96505 63.1906C8.95628 63.1695 8.94342 63.1502 8.92721 63.1341L4.97234 58.933C4.95884 58.915 4.94134 58.9004 4.92123 58.8903C4.90111 58.8802 4.87895 58.875 4.85646 58.875C4.83397 58.875 4.81177 58.8802 4.79165 58.8903C4.77153 58.9004 4.75404 58.915 4.74054 58.933C4.71204 58.9648 4.69629 59.0061 4.69629 59.0488C4.69629 59.0916 4.71204 59.1329 4.74054 59.1648L8.69542 63.2935C8.71343 63.3024 8.73323 63.307 8.75333 63.307C8.77344 63.307 8.79328 63.3024 8.81129 63.2935" fill="#142C2A"/>
<path d="M8.81259 66.4056C8.84985 66.4201 8.89125 66.4201 8.92851 66.4056C8.94471 66.3894 8.95758 66.3702 8.96635 66.3491C8.97513 66.328 8.97961 66.3053 8.97961 66.2824C8.97961 66.2596 8.97513 66.2369 8.96635 66.2158C8.95758 66.1946 8.94471 66.1754 8.92851 66.1593L4.97363 62.0306C4.96014 62.0126 4.94264 61.998 4.92253 61.988C4.90241 61.9779 4.88025 61.9727 4.85776 61.9727C4.83527 61.9727 4.81306 61.9779 4.79295 61.988C4.77283 61.998 4.75533 62.0126 4.74184 62.0306C4.71482 62.066 4.7002 62.1092 4.7002 62.1537C4.7002 62.1982 4.71482 62.2415 4.74184 62.2769L8.69672 66.3911C8.71473 66.4 8.73453 66.4046 8.75463 66.4046C8.77474 66.4046 8.79458 66.4 8.81259 66.3911" fill="#142C2A"/>
<path d="M8.81259 69.4349C8.84985 69.4494 8.89125 69.4494 8.92851 69.4349C8.94471 69.4187 8.95758 69.3995 8.96635 69.3784C8.97513 69.3573 8.97961 69.3346 8.97961 69.3117C8.97961 69.2889 8.97513 69.2662 8.96635 69.2451C8.95758 69.2239 8.94471 69.2047 8.92851 69.1886L4.97363 65.0599C4.96014 65.0419 4.94264 65.0273 4.92253 65.0172C4.90241 65.0072 4.88025 65.002 4.85776 65.002C4.83527 65.002 4.81306 65.0072 4.79295 65.0172C4.77283 65.0273 4.75533 65.0419 4.74184 65.0599C4.71482 65.0953 4.7002 65.1385 4.7002 65.183C4.7002 65.2275 4.71482 65.2708 4.74184 65.3062L8.69672 69.4349C8.73398 69.4494 8.77533 69.4494 8.81259 69.4349Z" fill="#142C2A"/>
<path d="M8.81259 72.4622C8.84985 72.4768 8.89125 72.4768 8.92851 72.4622C8.94471 72.4461 8.95758 72.4269 8.96635 72.4058C8.97513 72.3846 8.97961 72.362 8.97961 72.3391C8.97961 72.3162 8.97513 72.2936 8.96635 72.2724C8.95758 72.2513 8.94471 72.2321 8.92851 72.216L4.97363 68.0873C4.94176 68.0588 4.90052 68.043 4.85776 68.043C4.815 68.043 4.77371 68.0588 4.74184 68.0873C4.71482 68.1226 4.7002 68.1659 4.7002 68.2104C4.7002 68.2549 4.71482 68.2982 4.74184 68.3335L8.69672 72.4622C8.73398 72.4768 8.77533 72.4768 8.81259 72.4622Z" fill="#142C2A"/>
<path d="M8.81259 75.4895C8.84985 75.5041 8.89125 75.5041 8.92851 75.4895C8.94471 75.4734 8.95758 75.4542 8.96635 75.4331C8.97513 75.4119 8.97961 75.3893 8.97961 75.3664C8.97961 75.3435 8.97513 75.3209 8.96635 75.2997C8.95758 75.2786 8.94471 75.2594 8.92851 75.2433L4.97363 71.1146C4.94176 71.0861 4.90052 71.0703 4.85776 71.0703C4.815 71.0703 4.77371 71.0861 4.74184 71.1146C4.71482 71.1499 4.7002 71.1932 4.7002 71.2377C4.7002 71.2822 4.71482 71.3255 4.74184 71.3608L8.69672 75.4895C8.73398 75.5041 8.77533 75.5041 8.81259 75.4895Z" fill="#142C2A"/>
<path d="M8.81259 78.5179C8.84985 78.5324 8.89125 78.5324 8.92851 78.5179C8.94671 78.5029 8.96133 78.4841 8.97139 78.4628C8.98146 78.4415 8.98669 78.4183 8.98669 78.3948C8.98669 78.3712 8.98146 78.348 8.97139 78.3267C8.96133 78.3054 8.94671 78.2866 8.92851 78.2716L4.97363 74.1574C4.95874 74.1416 4.94078 74.1291 4.92085 74.1205C4.90092 74.1119 4.87946 74.1074 4.85776 74.1074C4.83606 74.1074 4.81456 74.1119 4.79463 74.1205C4.7747 74.1291 4.75674 74.1416 4.74184 74.1574C4.71482 74.1928 4.7002 74.236 4.7002 74.2805C4.7002 74.3251 4.71482 74.3683 4.74184 74.4037L8.69672 78.5324C8.73398 78.5469 8.77533 78.5469 8.81259 78.5324" fill="#142C2A"/>
<path d="M8.81259 81.5452C8.84985 81.5598 8.89125 81.5598 8.92851 81.5452C8.9465 81.5317 8.96107 81.5142 8.97113 81.4941C8.98118 81.474 8.98642 81.4518 8.98642 81.4293C8.98642 81.4069 8.98118 81.3847 8.97113 81.3646C8.96107 81.3445 8.9465 81.327 8.92851 81.3135L4.97363 77.1848C4.95874 77.169 4.94078 77.1564 4.92085 77.1478C4.90092 77.1392 4.87946 77.1348 4.85776 77.1348C4.83606 77.1348 4.81456 77.1392 4.79463 77.1478C4.7747 77.1564 4.75674 77.169 4.74184 77.1848C4.71482 77.2201 4.7002 77.2634 4.7002 77.3079C4.7002 77.3524 4.71482 77.3957 4.74184 77.431L8.69672 81.5597C8.73398 81.5743 8.77533 81.5743 8.81259 81.5597" fill="#142C2A"/>
<path d="M8.81259 84.5882C8.8306 84.5971 8.85044 84.6018 8.87055 84.6018C8.89065 84.6018 8.9105 84.5971 8.92851 84.5882C8.9465 84.5747 8.96107 84.5572 8.97113 84.5371C8.98118 84.517 8.98642 84.4948 8.98642 84.4723C8.98642 84.4498 8.98118 84.4276 8.97113 84.4075C8.96107 84.3874 8.9465 84.3699 8.92851 84.3564L4.97363 80.2277C4.95874 80.212 4.94078 80.1994 4.92085 80.1908C4.90092 80.1822 4.87946 80.1777 4.85776 80.1777C4.83606 80.1777 4.81456 80.1822 4.79463 80.1908C4.7747 80.1994 4.75674 80.212 4.74184 80.2277C4.71482 80.2631 4.7002 80.3064 4.7002 80.3509C4.7002 80.3954 4.71482 80.4386 4.74184 80.474L8.69672 84.6027C8.73421 84.6159 8.7751 84.6159 8.81259 84.6027" fill="#142C2A"/>
<path d="M31.7295 0V17.4419H57.3564V17.2102H31.9757V0H31.7295Z" fill="#142C2A"/>
<path d="M34.9888 15.9079L39.5811 11.2432L45.5786 11.9386L51.5616 5.37613L53.0537 6.18738L53.9519 1.01562L48.983 3.00034L50.026 4.05783L45.0426 10.1567L38.9582 9.69317L34.1631 15.6327H34.815L34.9888 15.9079Z" fill="#CA5098"/>
<path d="M40.363 5.49173C40.3752 5.63937 40.3512 5.78776 40.2931 5.92406C40.2351 6.06035 40.1447 6.18046 40.0299 6.27402C39.7206 6.47382 39.3538 6.56551 38.9868 6.53477C38.625 6.55915 38.2648 6.46784 37.9583 6.27402C37.8452 6.1789 37.7562 6.05854 37.6983 5.92264C37.6405 5.78675 37.6154 5.63912 37.6251 5.49173V5.41931C37.6159 5.27058 37.6427 5.12183 37.7032 4.98566C37.7637 4.84948 37.8562 4.72987 37.9728 4.63702C38.274 4.44337 38.6296 4.35195 38.9868 4.37627C39.914 4.37627 40.363 4.72395 40.363 5.41931V5.49173ZM41.8117 5.49173C41.8214 5.05122 41.7004 4.61773 41.464 4.2459C41.2398 3.87718 40.9053 3.58829 40.5079 3.42014L40.3341 3.34773V2.30469H39.32V3.13044H38.6971V2.30469H37.683V3.34773L37.5237 3.42014C37.1249 3.59221 36.7868 3.87984 36.553 4.2459C36.319 4.61878 36.1983 5.05155 36.2054 5.49173C36.1983 5.93191 36.319 6.36472 36.553 6.7376C36.7868 7.10366 37.1249 7.39129 37.5237 7.56335L37.683 7.63577V8.67881H38.6971V7.85306H39.2621V8.67881H40.2761V7.63577L40.45 7.56335C40.8474 7.39521 41.1819 7.10632 41.4061 6.7376C41.6441 6.36649 41.7652 5.93245 41.7537 5.49173" fill="#142C2A"/>
</svg>
