<svg width="40" height="40" viewBox="-1.5 -1.5 40 40" fill="none" xmlns="http://www.w3.org/2000/svg">
<g clip-path="url(#clip0_1_18126)">
<path fill-rule="evenodd" clip-rule="evenodd" d="M2.59617 2.59617C0 5.19233 0 9.3721 0 17.7292V19.2708C0 27.6267 0 31.8077 2.59617 34.4038C5.19233 37 9.3721 37 17.7292 37H19.2708C27.6267 37 31.8077 37 34.4038 34.4038C37 31.8077 37 27.6279 37 19.2708V17.7292C37 9.37333 37 5.19233 34.4038 2.59617C31.8077 0 27.6279 0 19.2708 0H17.7292C9.37333 0 5.19233 0 2.59617 2.59617ZM7.32352 11.5625H10.0208C10.7103 11.5625 10.9693 11.8647 11.2283 12.6121C12.5479 16.4551 14.7729 19.8147 15.6868 19.8147C16.0309 19.8147 16.1875 19.6569 16.1875 18.7849V14.8123C16.1257 13.6815 15.7306 13.1923 15.438 12.83C15.2573 12.6063 15.1157 12.431 15.1157 12.1829C15.1157 11.8807 15.3735 11.5625 15.8015 11.5625H20.0417C20.6139 11.5625 20.8125 11.8684 20.8125 12.5541V17.8994C20.8125 18.4704 21.0604 18.6714 21.2318 18.6714C21.5747 18.6714 21.8608 18.4704 22.4898 17.8414C24.4336 15.6695 25.805 12.3259 25.805 12.3259C25.9765 11.9251 26.2934 11.5625 26.9792 11.5625H29.6765C30.4929 11.5625 30.6656 11.9831 30.4929 12.5541C30.1501 14.1266 26.8632 18.7565 26.8632 18.7565C26.5771 19.2141 26.4624 19.4423 26.8632 19.9566C27.0047 20.1547 27.3065 20.4505 27.6515 20.7887C28.0044 21.1346 28.4026 21.5249 28.7206 21.9003C29.88 23.2039 30.7532 24.3041 30.9961 25.0613C31.2194 25.8223 30.8333 26.2083 30.0625 26.2083H27.364C26.6415 26.2083 26.278 25.8037 25.4919 24.9288C25.1588 24.5579 24.7498 24.1027 24.2054 23.5579C22.6033 22.015 21.9188 21.8152 21.518 21.8152C20.9753 21.8152 20.8125 21.9694 20.8125 22.7402V25.16C20.8125 25.8223 20.6004 26.2083 18.8848 26.2083C16.0272 26.2083 12.8859 24.473 10.6572 21.2713C7.31242 16.5846 6.39852 13.04 6.39852 12.3259C6.39852 11.9251 6.55268 11.5625 7.32352 11.5625Z" fill="#142C2A"/>
</g>
<defs>
<clipPath id="clip0_1_18126">
<rect width="37" height="37" fill="white"/>
</clipPath>
</defs>
</svg>
