<svg width="24" height="24" viewBox="-3 -2 24 24" fill="none" xmlns="http://www.w3.org/2000/svg">
<path fill-rule="evenodd" clip-rule="evenodd" d="M12.4527 9.74701C13.346 9.04718 13.9989 8.08608 14.3201 6.99765C14.6414 5.90921 14.6151 4.74767 14.245 3.67487C13.8748 2.60207 13.1792 1.67147 12.2551 1.01275C11.331 0.354029 10.2244 0 9.08953 0C7.95467 0 6.84807 0.354029 5.92395 1.01275C4.99984 1.67147 4.30423 2.60207 3.93407 3.67487C3.56391 4.74767 3.53764 5.90921 3.85892 6.99765C4.18019 8.08608 4.83301 9.04718 5.7264 9.74701C4.03803 10.4194 2.58999 11.5825 1.56923 13.0861C0.548478 14.5897 0.00187544 16.3648 0 18.1821V19.091C0 19.3321 0.0957643 19.5633 0.266226 19.7338C0.436688 19.9042 0.667883 20 0.908953 20C1.15002 20 1.38122 19.9042 1.55168 19.7338C1.72214 19.5633 1.81791 19.3321 1.81791 19.091V18.1821C1.81791 16.2535 2.58402 14.404 3.94771 13.0403C5.31141 11.6766 7.16097 10.9105 9.08953 10.9105C11.0181 10.9105 12.8676 11.6766 14.2313 13.0403C15.595 14.404 16.3611 16.2535 16.3611 18.1821V19.091C16.3611 19.3321 16.4569 19.5633 16.6274 19.7338C16.7978 19.9042 17.029 20 17.2701 20C17.5112 20 17.7424 19.9042 17.9128 19.7338C18.0833 19.5633 18.1791 19.3321 18.1791 19.091V18.1821C18.1772 16.3648 17.6306 14.5897 16.6098 13.0861C15.5891 11.5825 14.141 10.4194 12.4527 9.74701ZM5.45372 5.45676C5.45372 4.73766 5.66695 4.03472 6.06646 3.43681C6.46597 2.8389 7.0338 2.37289 7.69816 2.09771C8.36252 1.82252 9.09356 1.75052 9.79884 1.89081C10.5041 2.0311 11.152 2.37737 11.6604 2.88585C12.1689 3.39433 12.5152 4.04217 12.6555 4.74745C12.7958 5.45272 12.7238 6.18377 12.4486 6.84812C12.1734 7.51248 11.7074 8.08032 11.1095 8.47982C10.5116 8.87933 9.80862 9.09257 9.08953 9.09257C8.12525 9.09257 7.20047 8.70951 6.51862 8.02767C5.83677 7.34582 5.45372 6.42104 5.45372 5.45676Z" fill="#000"/>
</svg>
