<svg width="32" height="32" viewBox="0 0 32 32" fill="none" xmlns="http://www.w3.org/2000/svg">
<rect width="32" height="32" rx="6" fill="#0095D4"/>
<path d="M7.29512 16.2278C8.87354 16.5506 9.66276 17.5608 9.66276 19.2583V20.6918C9.66276 21.2027 9.97915 21.4574 10.612 21.4559H13.5263V25.4594H9.77038C8.94873 25.4721 8.13629 25.2852 7.40274 24.9149C6.72362 24.5773 6.15375 24.0547 5.75882 23.4073C5.3639 22.7599 5.16002 22.0141 5.17069 21.2558V19.0044C5.17602 18.8946 5.15563 18.7851 5.11117 18.6845C5.0667 18.584 4.99937 18.4953 4.91455 18.4254C4.71635 18.2737 4.47072 18.1974 4.22149 18.2101H2.63086V14.2368H4.22794C4.47718 14.2495 4.72282 14.1732 4.92102 14.0215C5.00567 13.952 5.0729 13.8636 5.11737 13.7634C5.16183 13.6633 5.1823 13.5542 5.17715 13.4447V11.2062C5.16774 10.4476 5.37213 9.70167 5.76691 9.05381C6.16429 8.40922 6.73283 7.88763 7.40919 7.54713C8.14328 7.17849 8.95548 6.99242 9.77683 7.00472H13.5242V10.9694H10.5947C10.3412 10.9542 10.0907 11.0306 9.88876 11.1847C9.80754 11.2569 9.74354 11.3464 9.70145 11.4466C9.65936 11.5468 9.64026 11.6551 9.64553 11.7637V13.1972C9.64553 14.8947 8.85632 15.9056 7.27789 16.2299" fill="white"/>
<path d="M29.8429 14.2413V18.2211H28.2437C27.9947 18.2104 27.7498 18.2865 27.5506 18.4363C27.4662 18.5064 27.3993 18.5953 27.3552 18.6958C27.3111 18.7963 27.291 18.9057 27.2966 19.0153V21.2603C27.3071 22.0188 27.1029 22.7648 26.7076 23.4122C26.3123 24.0597 25.742 24.5821 25.0624 24.9193C24.329 25.2899 23.5165 25.4768 22.6948 25.4639H18.9453V21.4841H21.8597C22.1133 21.5001 22.3641 21.4237 22.5657 21.2689C22.6469 21.1972 22.711 21.1081 22.7531 21.0082C22.7952 20.9083 22.8143 20.8003 22.8089 20.692V19.2564C22.8089 17.5603 23.5981 16.5501 25.1765 16.2258C23.5981 15.9015 22.8089 14.8913 22.8089 13.1952V11.766C22.8089 11.258 22.4925 11.0041 21.8597 11.0041H18.9453V7.0006H22.6926C23.514 6.98804 24.3263 7.17412 25.0603 7.543C25.7393 7.88083 26.3092 8.40343 26.7044 9.05073C27.0997 9.69802 27.3042 10.4437 27.2945 11.2021V13.447C27.2891 13.5566 27.3092 13.666 27.3533 13.7665C27.3973 13.8669 27.4642 13.9558 27.5485 14.026C27.7476 14.1759 27.9926 14.2519 28.2415 14.2413H29.8429Z" fill="white"/>
</svg>
