<svg width="153" height="27" viewBox="0 0 153 27" fill="none" xmlns="http://www.w3.org/2000/svg">
<path d="M18.6829 17.7792C18.6829 16.8099 17.9731 16.3252 16.5598 16.3252H7.91406V19.6271H16.5661C17.9794 19.6271 18.6892 19.1425 18.6892 18.1732L18.6829 17.7792ZM7.91406 7.20103V10.3466H15.9751C17.3926 10.3466 18.1003 9.88804 18.0982 8.97083V8.5831C18.0982 7.66381 17.3916 7.20729 15.9751 7.20729L7.91406 7.20103ZM25.8841 15.556C26.4718 16.55 26.7717 17.6878 26.7502 18.8423V19.2332C26.7502 21.4616 25.8726 23.1991 24.1174 24.4456C22.3622 25.6922 19.8972 26.3176 16.7224 26.3217H0V0.512695H15.9688C19.1686 0.512695 21.6337 1.12869 23.3638 2.36067C25.094 3.59265 25.9591 5.33639 25.9591 7.59189V7.98587C25.9591 10.2414 25.0805 11.9851 23.3232 13.2171C24.3725 13.7486 25.2561 14.5575 25.8778 15.556" fill="#142C2A"/>
<path d="M39.0734 25.1928C36.7786 24.2233 34.8124 22.6121 33.4107 20.5526C32.0492 18.4674 31.3495 16.0195 31.4033 13.5297V13.3358C31.3495 10.8461 32.0492 8.39813 33.4107 6.31291C34.8148 4.25113 36.7798 2.63443 39.0734 1.6539C41.5124 0.553248 44.3443 0.0029219 47.5691 0.0029219C50.3578 -0.0429097 53.129 0.450814 55.7302 1.45691C58.1274 2.42624 60.0036 3.78121 61.3585 5.52182C62.6864 7.20736 63.4001 9.29524 63.3816 11.441V11.7099H55.3174V11.4347C55.3174 10.184 54.616 9.18753 53.2131 8.44542C51.8102 7.70332 49.9153 7.33643 47.5285 7.34477C44.8018 7.34477 42.7767 7.82944 41.453 8.79876C40.1293 9.76808 39.4674 11.2492 39.4674 13.242V13.636C39.4674 15.6309 40.123 17.0995 41.4342 18.0417C42.7454 18.984 44.7904 19.4561 47.5691 19.4582C50.0331 19.4582 51.9404 19.1101 53.2912 18.4138C54.642 17.7176 55.3174 16.7337 55.3174 15.4621V15.1869H63.3785V15.4621C63.3952 17.5894 62.681 19.6579 61.3554 21.3218C60.0004 23.0499 58.1243 24.3997 55.7271 25.3711C53.1261 26.3783 50.3548 26.8731 47.566 26.8282C44.3432 26.8282 41.5114 26.2841 39.0703 25.196" fill="#142C2A"/>
<path d="M120.356 0.515625V19.2361H128.773V0.515625H136.678V19.2361H145.092V0.515625H153V26.3153H112.451V0.515625H120.356Z" fill="#142C2A"/>
<path d="M75.0376 13.4077C77.3306 13.8767 78.4772 15.3443 78.4772 17.8103V19.8928C78.4772 20.6349 78.9368 21.0049 79.8561 21.0028H84.0898V26.8188H78.6335C77.4399 26.8372 76.2596 26.5657 75.194 26.0277C74.2074 25.5374 73.3795 24.7782 72.8058 23.8377C72.2321 22.8971 71.9359 21.8136 71.9514 20.712V17.4413C71.9591 17.2818 71.9295 17.1227 71.8649 16.9767C71.8003 16.8307 71.7025 16.7018 71.5793 16.6002C71.2914 16.3799 70.9345 16.2691 70.5725 16.2875H68.2617V10.5154H70.5818C70.9439 10.5338 71.3008 10.423 71.5887 10.2027C71.7117 10.1016 71.8093 9.9732 71.8739 9.82772C71.9385 9.68224 71.9683 9.52368 71.9608 9.36468V6.11275C71.9471 5.0107 72.244 3.92706 72.8175 2.9859C73.3948 2.04949 74.2208 1.29175 75.2033 0.797101C76.2698 0.261568 77.4497 -0.00873864 78.6429 0.00913268H84.0867V5.7688H79.8311C79.4628 5.74666 79.0988 5.85763 78.8055 6.08148C78.6875 6.18639 78.5945 6.3164 78.5334 6.46195C78.4722 6.60751 78.4445 6.76491 78.4521 6.9226V9.00509C78.4521 11.4711 77.3056 12.9397 75.0126 13.4108" fill="#0095D4"/>
<path d="M107.794 10.5216V16.3031H105.471C105.109 16.2876 104.753 16.3981 104.464 16.6158C104.341 16.7177 104.244 16.8467 104.18 16.9927C104.116 17.1387 104.087 17.2977 104.095 17.4569V20.7182C104.11 21.8201 103.814 22.9039 103.239 23.8444C102.665 24.785 101.837 25.544 100.849 26.0339C99.7839 26.5722 98.6035 26.8437 97.4099 26.825H91.9629V21.0434H96.1967C96.5651 21.0667 96.9295 20.9556 97.2223 20.7307C97.3403 20.6266 97.4334 20.4972 97.4946 20.3521C97.5558 20.207 97.5835 20.05 97.5756 19.8927V17.8071C97.5756 15.3432 98.7221 13.8756 101.015 13.4045C98.7221 12.9334 97.5756 11.4659 97.5756 9.0019V6.92567C97.5756 6.18773 97.1159 5.81877 96.1967 5.81877H91.9629V0.00281874H97.4067C98.6 -0.0154233 99.78 0.254903 100.846 0.790787C101.833 1.28155 102.661 2.04076 103.235 2.9811C103.809 3.92145 104.106 5.00475 104.092 6.10644V9.36774C104.084 9.52694 104.113 9.6858 104.177 9.83177C104.241 9.97774 104.338 10.1068 104.461 10.2089C104.75 10.4265 105.106 10.537 105.468 10.5216H107.794Z" fill="#0095D4"/>
</svg>
