<svg width="77" height="10" viewBox="0 0 77 10" fill="none" xmlns="http://www.w3.org/2000/svg">
<g opacity="0.5">
<g opacity="0.3">
<mask id="path-1-inside-1_1_16210" fill="white">
<path fill-rule="evenodd" clip-rule="evenodd" d="M5.59319 4.71787L4.39344 7.9136L1.88081 0.811839H0.5L3.81621 9.50539H4.90274L6.40809 5.6117L7.90212 9.50539H8.98865L12.3049 0.811839H10.9124L8.41142 7.9136L7.21167 4.71787L8.58116 0.848581H7.39282L6.39677 3.79954L5.41204 0.848581H4.21285L5.59319 4.71787ZM28.2578 5.8504C27.9858 5.45968 27.6016 5.17764 27.1655 5.04848C27.5248 4.87901 27.8243 4.5893 28.0201 4.22196C28.2173 3.86037 28.3207 3.44794 28.3195 3.02809C28.3188 2.75467 28.2748 2.48341 28.1894 2.22607C28.1062 1.96788 27.9817 1.72752 27.8215 1.51597C27.6621 1.30694 27.4659 1.13421 27.2443 1.00781C27.0106 0.875377 26.7502 0.808022 26.4864 0.811839H22.344V9.50539H26.1809C26.5069 9.50761 26.8313 9.45599 27.1429 9.35233C27.4282 9.25967 27.695 9.11016 27.9295 8.91149C28.1514 8.72071 28.3328 8.48062 28.4615 8.20746C28.5967 7.91502 28.6646 7.59158 28.6595 7.26463C28.6735 6.75818 28.5322 6.26095 28.2578 5.8504ZM27.2674 7.51567C27.2097 7.67035 27.1252 7.81167 27.0184 7.93202C26.9119 8.05109 26.785 8.14672 26.6449 8.21363C26.4988 8.28364 26.3406 8.31911 26.1809 8.31769H23.6116V5.6607H26.2601C26.4132 5.65934 26.5644 5.69707 26.7015 5.77083C26.8342 5.84166 26.9517 5.94164 27.0467 6.06439C27.144 6.1924 27.2205 6.33732 27.273 6.49298C27.3298 6.65743 27.3586 6.83166 27.358 7.00721C27.3589 7.18149 27.3282 7.35426 27.2674 7.51567ZM26.0111 1.99963C26.1526 1.99602 26.293 2.02656 26.4223 2.08903C26.5515 2.15151 26.6662 2.24435 26.7581 2.36081C26.9598 2.6182 27.0648 2.94808 27.0524 3.28521C27.0544 3.46092 27.0256 3.63544 26.9675 3.79954C26.9146 3.94857 26.8336 4.0841 26.7298 4.19757C26.6284 4.30735 26.5096 4.3965 26.379 4.46076C26.242 4.52719 26.0933 4.56059 25.9432 4.55864H23.6116V1.99963H26.0111ZM39.1518 9.50539V0.811839H37.7932L35.1335 6.12624L32.4736 0.811839H31.1155V9.50539H32.3831V3.24846L34.7826 7.98709H35.4843L37.8725 3.24846V9.50539H39.1518ZM52.9034 9.50539C53.4564 9.51388 54.0059 9.40788 54.5222 9.1931C54.9869 8.998 55.4075 8.69738 55.7558 8.31152C56.1031 7.91842 56.371 7.45141 56.5424 6.9402C56.7337 6.36512 56.8276 5.75747 56.8198 5.14636C56.8232 4.57415 56.739 4.00526 56.5708 3.46276C56.4139 2.9533 56.1615 2.48435 55.8294 2.08527C55.4884 1.68377 55.0715 1.36638 54.607 1.15469C54.0671 0.915195 53.4874 0.798489 52.904 0.811839H50.0507V9.50539H52.9029H52.9034ZM55.3594 6.3953C55.2552 6.76116 55.0839 7.10055 54.8557 7.39319C54.6295 7.67773 54.3472 7.90369 54.0295 8.0544C53.674 8.21954 53.2902 8.30094 52.9034 8.2932H51.3183V2.02403H52.9029C53.2836 2.01683 53.6615 2.09615 54.0121 2.25685C54.3269 2.40454 54.6087 2.62376 54.8383 2.89964C55.0712 3.186 55.2465 3.52167 55.353 3.88528C55.4733 4.29285 55.5325 4.71863 55.5284 5.14646C55.532 5.56972 55.4748 5.99102 55.3589 6.3953H55.3594ZM60.5543 9.50539V0.811839H59.2863V9.50539H60.5538H60.5543ZM62.6707 9.50539H64.017L64.8546 7.14225H67.9558L68.8046 9.50539H70.1403L66.9711 0.811839H65.862L62.6707 9.50539ZM65.0815 6.12593L66.417 2.39138L67.7073 6.12593H65.081H65.0815ZM14.3184 0.755859H19.9326V1.97058H14.3184V0.755859ZM14.3184 4.50125H19.2776V5.71597H14.3184V4.50125ZM14.3184 8.24663H19.9326V9.46135H14.3184V8.24663ZM42.1086 0.755859H47.7228V1.97058H42.1086V0.755859ZM42.1086 4.50125H47.0678V5.71597H42.1086V4.50125ZM42.1086 8.24663H47.7228V9.46135H42.1086V8.24663Z"/>
</mask>
<path fill-rule="evenodd" clip-rule="evenodd" d="M5.59319 4.71787L4.39344 7.9136L1.88081 0.811839H0.5L3.81621 9.50539H4.90274L6.40809 5.6117L7.90212 9.50539H8.98865L12.3049 0.811839H10.9124L8.41142 7.9136L7.21167 4.71787L8.58116 0.848581H7.39282L6.39677 3.79954L5.41204 0.848581H4.21285L5.59319 4.71787ZM28.2578 5.8504C27.9858 5.45968 27.6016 5.17764 27.1655 5.04848C27.5248 4.87901 27.8243 4.5893 28.0201 4.22196C28.2173 3.86037 28.3207 3.44794 28.3195 3.02809C28.3188 2.75467 28.2748 2.48341 28.1894 2.22607C28.1062 1.96788 27.9817 1.72752 27.8215 1.51597C27.6621 1.30694 27.4659 1.13421 27.2443 1.00781C27.0106 0.875377 26.7502 0.808022 26.4864 0.811839H22.344V9.50539H26.1809C26.5069 9.50761 26.8313 9.45599 27.1429 9.35233C27.4282 9.25967 27.695 9.11016 27.9295 8.91149C28.1514 8.72071 28.3328 8.48062 28.4615 8.20746C28.5967 7.91502 28.6646 7.59158 28.6595 7.26463C28.6735 6.75818 28.5322 6.26095 28.2578 5.8504ZM27.2674 7.51567C27.2097 7.67035 27.1252 7.81167 27.0184 7.93202C26.9119 8.05109 26.785 8.14672 26.6449 8.21363C26.4988 8.28364 26.3406 8.31911 26.1809 8.31769H23.6116V5.6607H26.2601C26.4132 5.65934 26.5644 5.69707 26.7015 5.77083C26.8342 5.84166 26.9517 5.94164 27.0467 6.06439C27.144 6.1924 27.2205 6.33732 27.273 6.49298C27.3298 6.65743 27.3586 6.83166 27.358 7.00721C27.3589 7.18149 27.3282 7.35426 27.2674 7.51567ZM26.0111 1.99963C26.1526 1.99602 26.293 2.02656 26.4223 2.08903C26.5515 2.15151 26.6662 2.24435 26.7581 2.36081C26.9598 2.6182 27.0648 2.94808 27.0524 3.28521C27.0544 3.46092 27.0256 3.63544 26.9675 3.79954C26.9146 3.94857 26.8336 4.0841 26.7298 4.19757C26.6284 4.30735 26.5096 4.3965 26.379 4.46076C26.242 4.52719 26.0933 4.56059 25.9432 4.55864H23.6116V1.99963H26.0111ZM39.1518 9.50539V0.811839H37.7932L35.1335 6.12624L32.4736 0.811839H31.1155V9.50539H32.3831V3.24846L34.7826 7.98709H35.4843L37.8725 3.24846V9.50539H39.1518ZM52.9034 9.50539C53.4564 9.51388 54.0059 9.40788 54.5222 9.1931C54.9869 8.998 55.4075 8.69738 55.7558 8.31152C56.1031 7.91842 56.371 7.45141 56.5424 6.9402C56.7337 6.36512 56.8276 5.75747 56.8198 5.14636C56.8232 4.57415 56.739 4.00526 56.5708 3.46276C56.4139 2.9533 56.1615 2.48435 55.8294 2.08527C55.4884 1.68377 55.0715 1.36638 54.607 1.15469C54.0671 0.915195 53.4874 0.798489 52.904 0.811839H50.0507V9.50539H52.9029H52.9034ZM55.3594 6.3953C55.2552 6.76116 55.0839 7.10055 54.8557 7.39319C54.6295 7.67773 54.3472 7.90369 54.0295 8.0544C53.674 8.21954 53.2902 8.30094 52.9034 8.2932H51.3183V2.02403H52.9029C53.2836 2.01683 53.6615 2.09615 54.0121 2.25685C54.3269 2.40454 54.6087 2.62376 54.8383 2.89964C55.0712 3.186 55.2465 3.52167 55.353 3.88528C55.4733 4.29285 55.5325 4.71863 55.5284 5.14646C55.532 5.56972 55.4748 5.99102 55.3589 6.3953H55.3594ZM60.5543 9.50539V0.811839H59.2863V9.50539H60.5538H60.5543ZM62.6707 9.50539H64.017L64.8546 7.14225H67.9558L68.8046 9.50539H70.1403L66.9711 0.811839H65.862L62.6707 9.50539ZM65.0815 6.12593L66.417 2.39138L67.7073 6.12593H65.081H65.0815ZM14.3184 0.755859H19.9326V1.97058H14.3184V0.755859ZM14.3184 4.50125H19.2776V5.71597H14.3184V4.50125ZM14.3184 8.24663H19.9326V9.46135H14.3184V8.24663ZM42.1086 0.755859H47.7228V1.97058H42.1086V0.755859ZM42.1086 4.50125H47.0678V5.71597H42.1086V4.50125ZM42.1086 8.24663H47.7228V9.46135H42.1086V8.24663Z" fill="white" stroke="white" stroke-width="2" mask="url(#path-1-inside-1_1_16210)"/>
</g>
<path fill-rule="evenodd" clip-rule="evenodd" d="M5.59319 4.71787L4.39344 7.9136L1.88081 0.811839H0.5L3.81621 9.50539H4.90274L6.40809 5.6117L7.90212 9.50539H8.98865L12.3049 0.811839H10.9124L8.41142 7.9136L7.21167 4.71787L8.58116 0.848581H7.39282L6.39677 3.79954L5.41204 0.848581H4.21285L5.59319 4.71787ZM28.2578 5.8504C27.9858 5.45968 27.6016 5.17764 27.1655 5.04848C27.5248 4.87901 27.8243 4.5893 28.0201 4.22196C28.2173 3.86037 28.3207 3.44794 28.3195 3.02809C28.3188 2.75467 28.2748 2.48341 28.1894 2.22607C28.1062 1.96788 27.9817 1.72752 27.8215 1.51597C27.6621 1.30694 27.4659 1.13421 27.2443 1.00781C27.0106 0.875377 26.7502 0.808022 26.4864 0.811839H22.344V9.50539H26.1809C26.5069 9.50761 26.8313 9.45599 27.1429 9.35233C27.4282 9.25967 27.695 9.11016 27.9295 8.91149C28.1514 8.72071 28.3328 8.48062 28.4615 8.20746C28.5967 7.91502 28.6646 7.59158 28.6595 7.26463C28.6735 6.75818 28.5322 6.26095 28.2578 5.8504ZM27.2674 7.51567C27.2097 7.67035 27.1252 7.81167 27.0184 7.93202C26.9119 8.05109 26.785 8.14672 26.6449 8.21363C26.4988 8.28364 26.3406 8.31911 26.1809 8.31769H23.6116V5.6607H26.2601C26.4132 5.65934 26.5644 5.69707 26.7015 5.77083C26.8342 5.84166 26.9517 5.94164 27.0467 6.06439C27.144 6.1924 27.2205 6.33732 27.273 6.49298C27.3298 6.65743 27.3586 6.83166 27.358 7.00721C27.3589 7.18149 27.3282 7.35426 27.2674 7.51567ZM26.0111 1.99963C26.1526 1.99602 26.293 2.02656 26.4223 2.08903C26.5515 2.15151 26.6662 2.24435 26.7581 2.36081C26.9598 2.6182 27.0648 2.94808 27.0524 3.28521C27.0544 3.46092 27.0256 3.63544 26.9675 3.79954C26.9146 3.94857 26.8336 4.0841 26.7298 4.19757C26.6284 4.30735 26.5096 4.3965 26.379 4.46076C26.242 4.52719 26.0933 4.56059 25.9432 4.55864H23.6116V1.99963H26.0111ZM39.1518 9.50539V0.811839H37.7932L35.1335 6.12624L32.4736 0.811839H31.1155V9.50539H32.3831V3.24846L34.7826 7.98709H35.4843L37.8725 3.24846V9.50539H39.1518ZM52.9034 9.50539C53.4564 9.51388 54.0059 9.40788 54.5222 9.1931C54.9869 8.998 55.4075 8.69738 55.7558 8.31152C56.1031 7.91842 56.371 7.45141 56.5424 6.9402C56.7337 6.36512 56.8276 5.75747 56.8198 5.14636C56.8232 4.57415 56.739 4.00526 56.5708 3.46276C56.4139 2.9533 56.1615 2.48435 55.8294 2.08527C55.4884 1.68377 55.0715 1.36638 54.607 1.15469C54.0671 0.915195 53.4874 0.798489 52.904 0.811839H50.0507V9.50539H52.9029H52.9034ZM55.3594 6.3953C55.2552 6.76116 55.0839 7.10055 54.8557 7.39319C54.6295 7.67773 54.3472 7.90369 54.0295 8.0544C53.674 8.21954 53.2902 8.30094 52.9034 8.2932H51.3183V2.02403H52.9029C53.2836 2.01683 53.6615 2.09615 54.0121 2.25685C54.3269 2.40454 54.6087 2.62376 54.8383 2.89964C55.0712 3.186 55.2465 3.52167 55.353 3.88528C55.4733 4.29285 55.5325 4.71863 55.5284 5.14646C55.532 5.56972 55.4748 5.99102 55.3589 6.3953H55.3594ZM60.5543 9.50539V0.811839H59.2863V9.50539H60.5538H60.5543ZM62.6707 9.50539H64.017L64.8546 7.14225H67.9558L68.8046 9.50539H70.1403L66.9711 0.811839H65.862L62.6707 9.50539ZM65.0815 6.12593L66.417 2.39138L67.7073 6.12593H65.081H65.0815ZM14.3184 0.755859H19.9326V1.97058H14.3184V0.755859ZM14.3184 4.50125H19.2776V5.71597H14.3184V4.50125ZM14.3184 8.24663H19.9326V9.46135H14.3184V8.24663ZM42.1086 0.755859H47.7228V1.97058H42.1086V0.755859ZM42.1086 4.50125H47.0678V5.71597H42.1086V4.50125ZM42.1086 8.24663H47.7228V9.46135H42.1086V8.24663Z" fill="black"/>
<rect x="74.5" y="7.75586" width="2" height="2" fill="#FF0000"/>
</g>
</svg>
