<svg width="375" height="812" viewBox="0 0 375 812" fill="none" xmlns="http://www.w3.org/2000/svg">
<path opacity="0.1" d="M-254.853 601.406C-305.47 625.772 -358.297 651.908 -396.151 693.012C-444.759 745.544 -466.776 816.898 -463.99 887.732C-461.042 963.374 -436.382 1076.08 -344.463 1085.76C-284.11 1092.14 -231.632 1050.55 -172.483 1046.68C-123.434 1043.42 -73.6156 1044.91 -25.9059 1033.21C41.7074 1016.75 100.38 974.785 149.464 925.573C214.857 859.926 284.713 785.585 310.991 694.314C333.176 617.248 306.643 445.936 197.589 447.322C164.532 447.728 137.795 472.593 108.963 488.614C58.1284 516.934 -0.994519 518.049 -56.9054 528.152C-118.27 539.237 -177.179 563.728 -233.086 590.903L-254.984 601.275" fill="#CA5098"/>
<path d="M131.352 26.4039C193.504 -58.5813 296.304 -43.3794 380.345 -85.6387C451.908 -121.752 520.057 -187.958 605.651 -182.895C681.772 -178.39 736.564 -131.838 813.63 -159.703C879.153 -183.484 936.401 -227.581 1005.51 -241.077C1077.38 -255.03 1146.11 -232.16 1213.47 -209.734C1229.88 -204.263 1363.34 -196.446 1363.46 -195.605L1419.89 -33.6466C1413.14 19.2542 1378.82 64.7781 1336.21 94.2635C1293.6 123.749 1243.55 139.315 1193.21 150.821C1155.2 159.326 1115.92 166.21 1082.36 186.179C1015.46 225.846 985.134 307.701 931.128 364.806C881.557 417.154 826.981 468.38 758.485 494.479C678.466 524.91 585.512 512.027 501.106 522.039C328.514 542.468 211.507 453.726 126.493 310.548C71.3441 217.772 65.9494 115.943 131.299 26.4886" fill="#9BCEA4" fill-opacity="0.2"/>
</svg>
