<svg width="1440" height="960" viewBox="0 0 1440 960" fill="none" xmlns="http://www.w3.org/2000/svg">
<path d="M779.352 208.405C841.504 123.42 944.304 138.622 1028.34 96.3622C1099.91 60.2491 1168.06 -5.95751 1253.65 -0.893694C1329.77 3.61098 1384.56 50.1627 1461.63 22.2979C1527.15 -1.48325 1584.4 -45.5798 1653.51 -59.0759C1725.38 -73.0285 1794.11 -50.159 1861.47 -27.7326C1877.88 -22.2618 2011.34 -14.445 2011.46 -13.6045L2067.89 148.354C2061.14 201.255 2026.82 246.779 1984.21 276.264C1941.6 305.75 1891.55 321.316 1841.21 332.822C1803.2 341.327 1763.92 348.211 1730.36 368.18C1663.46 407.847 1633.13 489.702 1579.13 546.807C1529.56 599.155 1474.98 650.381 1406.48 676.48C1326.47 706.911 1233.51 694.028 1149.11 704.04C976.514 724.469 859.507 635.727 774.493 492.549C719.344 399.773 713.949 297.944 779.299 208.49" fill="#9BCEA4" fill-opacity="0.2"/>
<path opacity="0.1" d="M109.147 709.406C58.5295 733.772 5.70312 759.908 -32.1507 801.012C-80.7588 853.544 -102.776 924.898 -99.9896 995.732C-97.0416 1071.37 -72.3823 1184.08 19.5373 1193.76C79.8896 1200.14 132.368 1158.55 191.517 1154.68C240.566 1151.42 290.384 1152.91 338.094 1141.21C405.707 1124.75 464.38 1082.78 513.464 1033.57C578.857 967.926 648.713 893.585 674.991 802.314C697.176 725.248 670.643 553.936 561.589 555.322C528.532 555.728 501.795 580.593 472.963 596.614C422.128 624.934 363.005 626.049 307.095 636.152C245.73 647.237 186.821 671.728 130.914 698.903L109.016 709.275" fill="#CA5098"/>
</svg>
