<svg width="283" height="413" viewBox="0 0 283 413" fill="none" xmlns="http://www.w3.org/2000/svg">
<path d="M139.971 307.516C142.51 304.483 158.837 274.312 162.743 267.085H163.007L133.399 408.863H128.804L139.971 307.516Z" fill="#0095D4"/>
<path d="M149.559 290.655L162.466 267.121L170.817 265.223L204.221 262.565C204.221 262.565 213.917 266.267 219.785 266.004C226.111 265.721 229.965 264.995 234.589 260.667C238.611 256.903 240.283 253.27 240.283 247.761C240.283 235.994 230.734 223.499 219.025 212.459C205.74 199.932 192.454 193.099 181.066 188.924C172.547 185.8 165.434 185.75 157.91 190.822C153.091 194.07 150.969 197.19 148.041 202.21C140.07 215.875 126.784 246.243 126.784 246.243L110.081 290.655L96.416 332.791C96.416 332.791 100.274 336.691 103.249 338.484C108.028 341.366 116.914 342.66 116.914 342.66L149.559 290.655Z" fill="white"/>
<path d="M237.641 122.055C237.641 122.055 301.671 177.204 276.429 201.998C261.493 216.635 246.706 201.998 246.706 201.998C246.706 201.998 250.245 222.908 243.259 233.777C243.259 233.777 221.751 179.502 168.694 177.997C158.181 177.686 151.023 189.302 147.599 196.529C147.527 196.649 147.415 196.741 147.283 196.79C147.151 196.839 147.007 196.842 146.873 196.798C146.74 196.754 146.625 196.665 146.548 196.548C146.471 196.43 146.437 196.29 146.45 196.15L148.001 188.199C148.001 188.199 135.363 198.206 120.794 186.981C106.226 175.756 123.092 130.109 153.62 119.86C184.147 109.612 199.818 107.912 237.618 122.055" fill="#0095D4"/>
<path d="M223.326 103.741C229.541 94.5498 229.151 81.8541 223.67 72.2375C218.19 62.6209 208.24 56.049 197.566 53.1537C194.12 52.2116 190.317 51.5222 187.663 49.075C185.709 47.2712 184.629 44.7435 183.481 42.3537C175.261 25.484 161.148 12.2088 143.808 5.03635C135.513 1.58955 126.183 -0.271718 117.555 2.187C112.339 3.65764 107.674 6.63338 102.619 8.59805C95.8183 11.2238 88.4365 11.9699 81.2484 10.758C73.045 9.35634 65.4966 5.47294 57.5689 2.96827C40.3349 -2.50066 19.8838 -0.742789 6.11962 11.0108C3.79277 12.831 1.9533 15.1995 0.765614 17.9044C-0.391671 21.4641 -0.232721 25.321 1.21365 28.7733C4.44215 37.5282 12.3353 43.8703 20.8834 47.6158C29.4315 51.3614 38.7378 52.9124 47.8374 54.946C50.8936 55.6354 54.0187 56.4052 56.5348 58.255C59.8553 60.7022 61.6591 64.643 63.8765 68.1243C67.2366 73.3091 71.7155 77.6754 76.9843 80.9023C82.2531 84.1291 88.1778 86.1347 94.3233 86.7715C104.376 87.7481 114.935 85.0136 124.414 88.4834C135.903 92.677 143.291 105.108 155.217 107.728C158.664 108.486 162.248 108.348 165.649 109.256C170.67 110.6 174.783 114.07 179.195 116.828C192.385 125.088 211.25 126.433 222.567 115.736C223.843 114.587 225.072 112.979 224.865 111.244" fill="#393B3C"/>
<path d="M172.579 99.8009C172.611 96.1559 173.027 92.5244 173.82 88.9665C174.639 85.3988 176.565 82.1815 179.323 79.775C184.344 75.7078 191.732 75.972 197.775 78.2814C199.732 78.9076 201.498 80.0182 202.911 81.5099C203.953 82.8537 204.732 84.3815 205.209 86.0137C207.58 93.0136 208.707 100.374 208.541 107.763L192.766 112.612L172.579 99.8009Z" fill="white"/>
<path d="M190.431 106.626C190.801 106.624 191.167 106.554 191.511 106.419L191.109 105.419C190.483 105.575 189.822 105.501 189.246 105.21C188.67 104.919 188.218 104.431 187.972 103.834C187.482 102.456 187.418 100.963 187.789 99.5483C187.979 98.1858 188.436 96.8742 189.133 95.6879L189.305 95.4351C189.837 94.8229 190.109 94.0274 190.063 93.2177C189.857 92.0687 188.731 91.5402 187.766 91.207C185.353 90.3683 182.883 89.61 180.412 88.9092L180.137 89.9547C182.572 90.6096 185.031 91.3679 187.409 92.1951C188.42 92.5398 188.903 92.9075 188.984 93.344C188.968 93.8779 188.76 94.3882 188.398 94.7802L188.225 95.0445C187.451 96.3498 186.94 97.7939 186.72 99.2955C186.3 100.927 186.392 102.648 186.984 104.224C187.297 104.883 187.783 105.445 188.39 105.85C188.997 106.254 189.702 106.487 190.431 106.522" fill="#142C2A"/>
<path d="M184.93 95.8934H185.562V94.8134C183.04 94.9229 180.543 94.2747 178.393 92.9521L177.83 93.8713C179.967 95.1831 182.423 95.8826 184.93 95.8934Z" fill="#142C2A"/>
<path d="M200.887 97.8469C201.568 97.8456 202.248 97.7918 202.92 97.686L202.748 96.6175C200.476 96.9765 198.149 96.6816 196.038 95.7673L195.613 96.7554C197.277 97.4784 199.073 97.85 200.887 97.8469Z" fill="#142C2A"/>
<path d="M235.963 99.1006L233.975 160.718L189.465 162.154L149.241 141.611L157.456 89.9666L192.602 112.509L235.963 99.1006Z" fill="#61C3D9"/>
<path d="M156.365 146.057C162.811 138.773 162.857 127.961 166.706 119.011C166.815 118.763 166.958 118.531 167.131 118.322C167.236 118.203 167.374 118.119 167.528 118.08C167.683 118.042 167.845 118.052 167.993 118.108C168.141 118.164 168.269 118.264 168.36 118.395C168.45 118.525 168.498 118.68 168.498 118.839C168.42 123.151 168.001 127.45 167.246 131.695C167.205 131.88 167.234 132.073 167.327 132.238C167.42 132.403 167.57 132.527 167.749 132.588C167.928 132.649 168.123 132.643 168.297 132.569C168.471 132.495 168.612 132.36 168.693 132.189C170.681 128.352 171.06 123.32 173.772 120.218C173.886 120.095 174.036 120.012 174.201 119.981C174.366 119.95 174.536 119.973 174.687 120.047C174.837 120.12 174.96 120.24 175.038 120.389C175.115 120.537 175.142 120.707 175.116 120.872C174.737 122.975 172.761 128.731 172.163 130.776C172.116 130.953 172.133 131.14 172.21 131.306C172.287 131.471 172.42 131.605 172.586 131.683C172.751 131.76 172.938 131.778 173.115 131.732C173.292 131.686 173.447 131.58 173.553 131.431C174.392 130.156 176.77 125.215 177.666 123.986C177.762 123.855 177.895 123.756 178.049 123.704C178.203 123.652 178.369 123.65 178.524 123.696C178.679 123.743 178.816 123.837 178.916 123.965C179.015 124.093 179.073 124.249 179.08 124.411C179.018 125.973 178.626 127.504 177.931 128.904C177.517 129.8 175.242 133.04 174.806 133.913C174.736 134.067 174.72 134.24 174.759 134.404C174.797 134.569 174.889 134.716 175.02 134.823C175.151 134.93 175.313 134.992 175.482 134.997C175.651 135.003 175.817 134.953 175.955 134.855C176.368 134.51 178.643 131.822 179.08 131.5C179.207 131.405 179.361 131.352 179.52 131.347C179.679 131.341 179.835 131.385 179.969 131.471C180.102 131.557 180.207 131.682 180.267 131.829C180.328 131.976 180.343 132.138 180.309 132.293C179.783 134.158 178.96 135.927 177.873 137.532C174.58 142.894 171.033 148.114 167.234 153.192" fill="#61C3D9"/>
<path d="M167.591 153.479C171.382 148.447 174.967 143.139 178.264 137.785C179.38 136.14 180.219 134.324 180.746 132.408C180.807 132.154 180.788 131.887 180.691 131.644C180.595 131.401 180.425 131.195 180.206 131.052C179.992 130.903 179.737 130.823 179.477 130.823C179.216 130.823 178.961 130.903 178.747 131.052C178.101 131.668 177.491 132.32 176.92 133.005C176.38 133.614 175.771 134.304 175.599 134.441C175.55 134.488 175.487 134.515 175.419 134.518C175.352 134.521 175.286 134.499 175.234 134.457C175.182 134.415 175.147 134.355 175.136 134.288C175.125 134.222 175.138 134.154 175.174 134.097C175.369 133.718 175.967 132.787 176.552 131.902C177.334 130.753 178.069 129.604 178.31 129.064C179.056 127.601 179.479 125.995 179.551 124.354C179.546 124.087 179.456 123.83 179.296 123.617C179.135 123.404 178.911 123.248 178.656 123.17C178.401 123.093 178.128 123.098 177.877 123.184C177.625 123.271 177.406 123.435 177.253 123.653C176.415 125.01 175.648 126.41 174.955 127.847C174.22 129.237 173.531 130.558 173.163 131.11C173.147 131.139 173.126 131.165 173.1 131.187C173.074 131.208 173.044 131.224 173.012 131.233C172.98 131.243 172.947 131.246 172.913 131.243C172.88 131.239 172.848 131.229 172.818 131.213C172.753 131.187 172.699 131.137 172.669 131.073C172.639 131.009 172.635 130.935 172.658 130.868C172.841 130.248 173.152 129.283 173.508 128.18C174.335 125.606 175.358 122.435 175.622 120.907C175.666 120.635 175.62 120.357 175.493 120.113C175.365 119.869 175.162 119.673 174.914 119.554C174.666 119.435 174.386 119.4 174.116 119.453C173.846 119.507 173.6 119.646 173.416 119.85C171.727 121.78 170.911 124.446 170.118 126.985C169.653 128.683 169.038 130.336 168.28 131.925C168.252 131.986 168.203 132.034 168.141 132.06C168.079 132.086 168.01 132.087 167.947 132.063C167.881 132.042 167.825 131.998 167.789 131.939C167.753 131.88 167.74 131.81 167.752 131.742C168.511 127.469 168.933 123.143 169.015 118.805C169.033 118.53 168.961 118.257 168.81 118.027C168.659 117.796 168.438 117.621 168.18 117.527C167.921 117.432 167.639 117.424 167.376 117.503C167.112 117.582 166.881 117.745 166.718 117.966C166.518 118.213 166.355 118.488 166.235 118.782C164.89 122.17 163.81 125.658 163.007 129.214C161.455 135.361 159.985 141.174 155.998 145.69L156.733 146.333C160.881 141.645 162.478 135.441 163.972 129.455C164.756 125.931 165.816 122.473 167.143 119.115C167.234 118.91 167.349 118.717 167.487 118.54C167.523 118.498 167.571 118.468 167.625 118.455C167.679 118.443 167.736 118.448 167.786 118.471C167.843 118.489 167.892 118.524 167.927 118.571C167.963 118.619 167.982 118.676 167.981 118.736C167.902 123.024 167.487 127.3 166.741 131.523C166.684 131.824 166.739 132.134 166.896 132.397C167.053 132.659 167.3 132.855 167.591 132.948C167.878 133.045 168.19 133.035 168.47 132.921C168.75 132.807 168.981 132.597 169.119 132.327C169.898 130.69 170.533 128.986 171.015 127.238C171.807 124.653 172.566 122.228 174.117 120.459C174.156 120.41 174.211 120.375 174.273 120.361C174.335 120.348 174.399 120.356 174.456 120.384C174.512 120.412 174.557 120.459 174.584 120.517C174.61 120.574 174.615 120.639 174.599 120.7C174.347 122.125 173.301 125.422 172.52 127.835C172.164 128.984 171.853 129.926 171.67 130.547C171.578 130.84 171.598 131.157 171.725 131.436C171.853 131.716 172.078 131.939 172.359 132.063C172.631 132.192 172.941 132.218 173.23 132.135C173.52 132.053 173.77 131.868 173.933 131.615C174.335 131.018 175.082 129.673 175.771 128.26C176.621 126.652 177.575 124.813 178.069 124.182C178.106 124.134 178.156 124.098 178.214 124.08C178.271 124.062 178.333 124.061 178.391 124.078C178.447 124.091 178.498 124.124 178.533 124.17C178.569 124.216 178.588 124.273 178.586 124.331C178.506 125.82 178.114 127.276 177.437 128.605C177.23 129.053 176.449 130.259 175.748 131.316C175.047 132.373 174.53 133.178 174.312 133.614C174.176 133.874 174.136 134.173 174.199 134.459C174.262 134.744 174.424 134.999 174.657 135.177C174.878 135.369 175.162 135.475 175.455 135.475C175.749 135.475 176.032 135.369 176.254 135.177C176.461 135.004 176.932 134.487 177.678 133.649C178.425 132.81 179.161 131.983 179.367 131.833C179.414 131.8 179.47 131.782 179.528 131.782C179.586 131.782 179.642 131.8 179.689 131.833C179.739 131.867 179.777 131.914 179.8 131.969C179.822 132.024 179.828 132.085 179.815 132.144C179.303 133.952 178.504 135.666 177.449 137.222C174.174 142.576 170.555 147.838 166.821 152.847L167.591 153.479Z" fill="#1D1D1B"/>
<path d="M137.256 155.513C144.943 149.784 152.319 143.648 159.35 137.13C164.742 140.289 170.42 142.931 176.308 145.023C169.588 156.825 161.463 167.77 152.112 177.618" fill="#0095D4"/>
<path d="M191.698 370.559L200.717 387.012C202.819 390.459 204.704 392.975 205.577 392.871C206.645 392.734 208.013 388.85 209.242 384.358C209.798 381.857 210.228 379.33 210.529 376.786C210.793 374.488 210.931 372.099 212.47 370.456C212.709 370.942 212.902 371.45 213.045 371.972C214.584 376.258 218.548 388.908 216.067 399.731C215.997 400.506 215.862 401.275 215.665 402.028C214.62 405.354 212.713 408.343 210.138 410.691C209.876 410.99 209.545 411.219 209.173 411.358C208.576 411.443 207.969 411.29 207.484 410.933C200.924 407.107 196.477 400.305 194.191 393.055C191.905 385.805 191.583 378.119 191.698 370.502" fill="#393B3B"/>
<path d="M225.326 246.406L226.222 245.624C226.222 245.624 225.36 244.636 223.844 242.97L222.971 243.775C224.476 245.418 225.269 246.394 225.269 246.406" fill="black"/>
<path d="M113.784 323.153C113.784 323.153 114.266 322.004 115.151 319.879L114.06 319.419L112.692 322.694L113.784 323.153Z" fill="black"/>
<path d="M169.555 159.269C171.313 155.822 172.393 153.432 172.405 153.409L171.428 152.961C171.428 152.961 170.279 155.339 168.59 158.775L169.555 159.269ZM163.305 170.643C164.362 168.862 165.442 166.967 166.522 165.002L165.58 164.485C164.511 166.438 163.431 168.322 162.374 170.092L163.305 170.643ZM156.009 181.409C157.239 179.869 158.526 178.1 159.835 176.135L158.939 175.538C157.641 177.479 156.377 179.226 155.171 180.742L156.009 181.409ZM148.289 188.67C149.479 187.995 150.586 187.181 151.586 186.246L150.862 185.442C149.926 186.327 148.889 187.098 147.771 187.739L148.289 188.67Z" fill="#142C2A"/>
<path d="M185.903 210.569L186.524 209.558C184.46 208.281 182.283 207.197 180.021 206.318L179.619 207.467C181.807 208.314 183.911 209.364 185.903 210.604M167.842 210.799C168.799 209.457 169.963 208.274 171.289 207.295C171.803 206.978 172.366 206.749 172.955 206.617L172.679 205.468C171.968 205.637 171.289 205.92 170.669 206.307C169.215 207.348 167.942 208.621 166.9 210.075L167.842 210.799ZM197.393 218.968L198.151 218.06C196.186 216.429 194.279 214.935 192.498 213.625L191.786 214.579C193.555 215.877 195.44 217.359 197.393 218.968ZM160.179 222.782C161.466 220.485 162.695 218.439 163.821 216.647L162.81 216.015C161.661 217.831 160.443 219.91 159.145 222.196L160.179 222.782ZM208.02 228.527L208.836 227.677C207.044 225.965 205.274 224.322 203.574 222.794L202.781 223.679C204.482 225.195 206.228 226.827 208.02 228.527ZM153.423 235.421C154.549 233.215 155.652 231.101 156.732 229.079L155.686 228.516C154.606 230.545 153.503 232.667 152.378 234.881L153.423 235.421ZM218.097 238.626L218.958 237.822C217.292 236.064 215.603 234.375 213.949 232.675L213.11 233.513C214.765 235.168 216.442 236.891 218.097 238.626ZM147.069 248.243C148.126 246.06 149.172 243.915 150.206 241.809L149.149 241.28C148.115 243.383 147.058 245.543 146.001 247.726L147.069 248.243ZM140.957 261.168C141.957 259.008 142.979 256.837 143.99 254.7L142.922 254.194C141.895 256.347 140.884 258.507 139.889 260.674L140.957 261.168ZM134.994 274.197C135.975 272.037 136.963 269.866 137.958 267.683L136.878 267.189C135.89 269.372 134.891 271.555 133.926 273.715L134.994 274.197ZM129.169 287.284C130.111 285.139 131.08 282.956 132.076 280.735L130.996 280.252C129.996 282.47 129.031 284.664 128.089 286.801L129.169 287.284ZM123.424 300.416L126.274 293.844L125.194 293.361C124.19 295.659 123.241 297.854 122.344 299.945L123.424 300.416ZM117.795 313.583C118.622 311.618 119.564 309.412 120.598 306.988L119.507 306.528C118.472 308.952 117.53 311.124 116.703 313.123L117.795 313.583Z" fill="black"/>
<path d="M235.963 99.1003L233.976 160.718L189.466 162.154L192.602 112.508L235.963 99.1003Z" fill="#CA5098"/>
<path d="M232.437 150.881C226.003 143.585 225.946 132.785 222.097 123.835C221.995 123.586 221.855 123.353 221.683 123.146C221.58 123.023 221.441 122.935 221.286 122.894C221.131 122.853 220.968 122.86 220.817 122.915C220.666 122.971 220.536 123.071 220.445 123.202C220.353 123.334 220.304 123.491 220.305 123.651C220.388 127.966 220.807 132.269 221.557 136.519C221.597 136.704 221.568 136.897 221.475 137.062C221.383 137.226 221.232 137.351 221.054 137.412C220.875 137.473 220.68 137.466 220.505 137.393C220.331 137.319 220.19 137.184 220.109 137.013C218.122 133.176 217.811 128.132 215.043 125.041C214.933 124.911 214.783 124.821 214.616 124.785C214.449 124.749 214.275 124.769 214.121 124.843C213.968 124.916 213.843 125.039 213.766 125.191C213.689 125.344 213.666 125.517 213.698 125.685C214.066 127.787 215.996 133.543 216.64 135.6C216.697 135.778 216.688 135.97 216.614 136.142C216.54 136.313 216.406 136.452 216.237 136.532C216.069 136.612 215.877 136.628 215.697 136.577C215.517 136.526 215.362 136.412 215.261 136.255C214.411 134.968 212.044 130.039 211.136 128.798C211.043 128.665 210.91 128.564 210.757 128.511C210.603 128.457 210.436 128.454 210.281 128.501C210.125 128.548 209.988 128.644 209.89 128.773C209.792 128.903 209.738 129.061 209.734 129.223C209.786 130.787 210.178 132.32 210.883 133.716C211.286 134.612 213.56 137.852 214.008 138.737C214.068 138.89 214.078 139.059 214.037 139.218C213.995 139.378 213.904 139.52 213.776 139.625C213.649 139.729 213.491 139.791 213.327 139.801C213.162 139.81 212.998 139.768 212.86 139.679C212.446 139.322 210.171 136.634 209.734 136.312C209.606 136.22 209.452 136.169 209.294 136.166C209.136 136.163 208.981 136.208 208.849 136.295C208.717 136.383 208.614 136.508 208.555 136.654C208.496 136.801 208.482 136.962 208.517 137.117C209.034 138.98 209.853 140.746 210.941 142.344C214.234 147.706 217.785 152.926 221.591 158.004" fill="white"/>
<path d="M251.568 160.325C243.881 154.599 236.51 148.463 229.485 141.942C224.088 145.092 218.401 147.72 212.504 149.789C219.224 161.591 227.349 172.536 236.7 182.384" fill="#0095D4"/>
<path d="M221.881 167.287L222.846 166.805C221.1 163.278 220.1 160.991 220.089 160.968L219.101 161.393C219.101 161.393 220.123 163.691 221.881 167.287ZM228.062 178.696L228.993 178.145C227.913 176.329 226.844 174.434 225.822 172.527L224.868 173.044C225.914 174.962 226.982 176.858 228.062 178.696ZM235.128 189.577L236.001 188.945C234.795 187.279 233.577 185.498 232.371 183.637L231.475 184.211C232.624 186.084 233.91 187.888 235.128 189.577ZM243.423 199.584L244.193 198.837C242.78 197.389 241.344 195.781 239.919 194.046L239.081 194.735C240.528 196.482 241.987 198.182 243.423 199.584Z" fill="#142C2A"/>
<path d="M67.232 369.339C70.6788 364.341 80.709 350.956 84.0524 347.268C84.1205 347.201 84.2089 347.159 84.3034 347.149C84.398 347.139 84.4932 347.161 84.574 347.211C84.6547 347.261 84.7163 347.337 84.7488 347.427C84.7813 347.516 84.7828 347.614 84.7532 347.704C84.0297 349.651 83.6412 351.706 83.6043 353.782C88.6941 353.495 98.3681 345.521 100.011 344.522C101.436 343.637 104.078 346.555 106.56 348.83C106.904 349.202 107.289 349.534 107.709 349.818C110.466 352.116 116.613 353.667 116.613 353.667C116.775 354.792 116.649 355.939 116.247 357.002C115.846 358.065 115.181 359.009 114.315 359.745C112.765 361.08 110.986 362.123 109.065 362.824C103.259 365.248 97.3301 367.365 91.3022 369.166C83.8456 371.464 75.5158 373.59 67.9443 371.464C67.7264 371.404 67.5262 371.292 67.3604 371.138C67.1947 370.985 67.0682 370.793 66.9917 370.581C66.9151 370.368 66.8907 370.14 66.9206 369.916C66.9504 369.692 67.0335 369.478 67.163 369.293" fill="#393B3B"/>
<path d="M238.101 268.107C252.934 267.67 270.754 265.303 271.489 256.56C272.558 243.921 251.314 240.842 250.418 240.727L250.131 242.853C250.326 242.853 270.237 245.714 269.352 256.376C268.881 261.891 257.472 265.372 238.044 265.947L238.101 268.107Z" fill="#0095D4"/>
<path d="M119.44 259.042L119.727 256.917C108.375 255.377 102.263 252.436 102.068 248.403C101.482 236.397 127.85 234.869 128.114 234.857L127.999 232.708C126.85 232.766 99.2759 234.386 99.9193 248.518C100.172 253.78 106.744 257.33 119.451 259.042" fill="#0095D4"/>
<path d="M251.742 271.196L267.345 412.997H262.749L233.601 273.345C239.696 273.122 245.763 272.403 251.742 271.196Z" fill="#0095D4"/>
<path d="M194.301 242.889C192.003 236.995 189.315 230.894 184.352 226.931C179.388 222.967 171.438 222.048 167.026 226.597C165.297 228.583 164.109 230.981 163.579 233.56C161.488 241.602 162.338 250.208 164.038 258.388C169.209 283.274 184.352 343.145 196.841 365.239C204.412 364.711 211.168 366.859 211.558 358.461C211.949 349.867 209.663 303.84 208.743 295.269C206.825 277.231 201.126 259.652 194.324 242.878" fill="#CA5098"/>
<path d="M117.292 343.168L117.476 342.881C119.256 340.123 161.216 275.438 162.904 266.971L161.756 266.729C160.17 274.703 119.808 337.113 116.683 341.939C107.308 341.226 98.8514 333.896 97.2659 332.494C98.4148 328.841 108.181 297.693 120.371 265.581C137.421 220.68 151.392 194.289 160.779 189.268C170.166 184.248 187.319 188.958 205.484 201.573C223.867 214.338 241.515 234.709 239.607 248.921C238.757 255.206 236.16 259.71 231.737 262.283C221.397 268.372 204.553 261.904 204.381 261.835L203.956 262.984C204.668 263.26 221.477 269.74 232.335 263.352C237.045 260.583 239.883 255.792 240.779 249.128C242.227 238.351 232.001 218.589 206.162 200.643C191.639 190.567 171.935 182.019 160.204 188.28C136.984 200.677 97.6795 327.163 96.0135 332.54L95.9102 332.897L96.1629 333.149C96.565 333.528 106.009 342.548 116.947 343.191L117.292 343.168Z" fill="black"/>
</svg>
