<svg width="370" height="373" viewBox="0 0 370 373" fill="none" xmlns="http://www.w3.org/2000/svg">
<path d="M367.865 243.505C365.838 249.784 359.328 253.081 353.062 251.058C346.795 249.034 343.39 242.537 345.417 236.258C347.445 229.979 354.107 226.561 360.322 228.568C366.538 230.574 369.876 237.278 367.865 243.505ZM368.993 155.33C370.604 150.338 367.91 144.979 362.927 143.37C357.945 141.762 352.625 144.534 351.014 149.526C349.402 154.518 352.078 159.758 357.112 161.383C362.146 163.008 367.364 160.374 368.993 155.33ZM331.982 77.2329C333.992 71.0057 330.603 64.2854 324.439 62.2953C318.275 60.3052 311.545 63.7583 309.534 69.9855C307.524 76.2127 310.86 82.7453 317.178 84.7852C323.496 86.8251 329.955 83.5115 331.982 77.2329ZM259.805 30.4033C262.231 22.8895 258.181 14.8764 250.733 12.4716C243.285 10.0669 235.263 14.1827 232.837 21.6965C230.411 29.2103 234.408 37.0359 242.01 39.4904C249.613 41.9448 257.363 37.9685 259.805 30.4033ZM174.624 22.6219C177.449 13.873 172.704 4.49892 164.023 1.69616C155.342 -1.1066 145.96 3.70681 143.136 12.4557C140.311 21.2047 145.019 30.3398 153.855 33.1923C162.69 36.0448 171.783 31.4223 174.624 22.6219ZM97.3923 67.7002C100.616 57.7161 95.1761 46.9811 85.3134 43.7969C75.4507 40.6127 64.7093 46.1237 61.4859 56.1077C58.2625 66.0918 63.6311 76.5198 73.6992 79.7704C83.7674 83.0209 94.1689 77.6843 97.3923 67.7002ZM50.4446 141.082C54.0667 129.863 47.9835 117.783 36.8366 114.184C25.6897 110.586 13.64 116.811 10.0178 128.03C6.39565 139.249 12.4079 151.022 23.7603 154.687C35.1126 158.352 46.8058 152.353 50.4446 141.082ZM51.1019 234.095C55.5382 220.354 48.0996 205.621 34.487 201.226C20.8744 196.831 6.12196 204.4 1.68566 218.141C-2.75064 231.882 4.63357 246.257 18.503 250.735C32.3724 255.212 46.649 247.888 51.1019 234.095ZM86.0654 312.384C89.6875 301.165 83.6043 289.085 72.4574 285.487C61.3105 281.888 49.2608 288.113 45.6386 299.332C42.0165 310.551 48.0287 322.324 59.3811 325.989C70.7335 329.654 82.4266 323.655 86.0654 312.384ZM158.951 358.249C162.174 348.265 156.735 337.53 146.872 334.346C137.009 331.161 126.268 336.672 123.044 346.657C119.821 356.641 125.19 367.069 135.258 370.319C145.326 373.57 155.727 368.233 158.951 358.249ZM245.059 360.874C247.884 352.125 243.139 342.751 234.458 339.948C225.777 337.146 216.395 341.959 213.57 350.708C210.746 359.457 215.454 368.592 224.289 371.444C233.124 374.297 242.234 369.623 245.059 360.874ZM321.161 321.228C323.587 313.714 319.538 305.701 312.089 303.296C304.641 300.891 296.619 305.007 294.193 312.521C291.767 320.035 295.764 327.86 303.366 330.315C310.969 332.769 318.719 328.793 321.161 321.228ZM261.649 178.071C263.659 171.844 260.27 165.124 254.106 163.133C247.942 161.143 241.212 164.596 239.201 170.824C237.191 177.051 240.527 183.583 246.845 185.623C253.163 187.663 259.622 184.35 261.649 178.071ZM225.472 136.045C227.897 128.531 223.848 120.518 216.4 118.113C208.951 115.708 200.929 119.824 198.503 127.338C196.077 134.852 200.074 142.677 207.677 145.132C215.279 147.586 223.029 143.61 225.472 136.045ZM171.241 148.882C174.066 140.134 169.321 130.759 160.64 127.957C151.959 125.154 142.577 129.967 139.752 138.716C136.928 147.465 141.636 156.6 150.471 159.453C159.306 162.305 168.416 157.631 171.241 148.882ZM155.706 204.73C158.929 194.746 153.49 184.011 143.627 180.827C133.764 177.643 123.023 183.154 119.8 193.138C116.576 203.122 121.945 213.55 132.013 216.801C142.081 220.051 152.483 214.714 155.706 204.73ZM209.771 192.407C212.595 183.658 207.851 174.284 199.169 171.481C190.488 168.679 181.107 173.492 178.282 182.241C175.457 190.99 180.166 200.125 189.001 202.977C197.836 205.83 206.946 201.156 209.771 192.407ZM192.374 246.29C195.199 237.541 190.454 228.167 181.773 225.364C173.092 222.562 163.71 227.375 160.886 236.124C158.061 244.873 162.769 254.008 171.605 256.86C180.44 259.713 189.55 255.039 192.374 246.29ZM246.827 233.467C249.253 225.953 245.204 217.94 237.755 215.535C230.307 213.131 222.285 217.247 219.859 224.76C217.433 232.274 221.43 240.1 229.032 242.554C236.635 245.009 244.385 241.032 246.827 233.467ZM300.187 253.195C302.197 246.968 298.808 240.248 292.644 238.257C286.48 236.267 279.749 239.72 277.739 245.948C275.728 252.175 279.065 258.707 285.383 260.747C291.701 262.787 298.16 259.474 300.187 253.195ZM259.223 291.002C261.648 283.488 257.599 275.475 250.151 273.07C242.702 270.665 234.663 274.832 232.254 282.295C229.845 289.757 233.825 297.634 241.427 300.089C249.03 302.543 256.78 298.567 259.223 291.002ZM203.605 305.324C206.43 296.575 201.685 287.201 193.004 284.398C184.323 281.595 174.941 286.409 172.116 295.158C169.292 303.907 174 313.042 182.835 315.894C191.671 318.747 200.78 314.073 203.605 305.324ZM149.874 287.977C153.097 277.993 147.658 267.257 137.795 264.073C127.932 260.889 117.191 266.4 113.967 276.384C110.744 286.368 116.113 296.796 126.181 300.047C136.249 303.297 146.65 297.961 149.874 287.977ZM113.198 247.494C116.82 236.275 110.737 224.195 99.59 220.597C88.4431 216.998 76.3934 223.223 72.7713 234.442C69.1491 245.661 75.1614 257.434 86.5137 261.099C97.8661 264.764 109.559 258.765 113.198 247.494ZM101.937 188.905C105.576 177.635 99.4761 165.607 88.3292 162.008C77.1823 158.409 65.1326 164.634 61.5104 175.853C57.8883 187.073 63.9005 198.845 75.2529 202.51C86.6053 206.175 98.2985 200.176 101.937 188.905ZM118.004 131.411C121.227 121.426 115.788 110.691 105.925 107.507C96.0622 104.323 85.3208 109.834 82.0974 119.818C78.874 129.802 84.2426 140.23 94.3107 143.481C104.379 146.731 114.78 141.395 118.004 131.411ZM159.212 88.4546C162.037 79.7057 157.293 70.3316 148.611 67.5288C139.93 64.7261 130.548 69.5395 127.724 78.2884C124.899 87.0373 129.607 96.1724 138.443 99.0249C147.278 101.877 156.371 97.255 159.212 88.4546ZM212.155 78.5536C214.581 71.0398 210.531 63.0266 203.083 60.6219C195.634 58.2172 187.596 62.3845 185.186 69.8468C182.777 77.3091 186.757 85.1862 194.36 87.6407C201.962 90.0952 209.712 86.1188 212.155 78.5536ZM266.028 96.515C268.038 90.2878 264.649 83.5676 258.485 81.5775C252.321 79.5873 245.59 83.0405 243.58 89.2676C241.57 95.4948 244.906 102.027 251.224 104.067C257.542 106.107 264.001 102.794 266.028 96.515ZM303.269 139.112C304.881 134.12 302.186 128.761 297.204 127.152C292.221 125.543 286.902 128.316 285.29 133.308C283.678 138.3 286.354 143.539 291.388 145.165C296.422 146.79 301.641 144.156 303.269 139.112ZM316.37 195.34C317.981 190.348 315.287 184.989 310.305 183.38C305.322 181.771 300.002 184.543 298.391 189.535C296.779 194.527 299.455 199.767 304.489 201.392C309.523 203.018 314.741 200.383 316.37 195.34Z" fill="#BB5A93"/>
</svg>
