<svg width="626" height="307" viewBox="0 0 626 307" fill="none" xmlns="http://www.w3.org/2000/svg">
<path d="M338.192 24.1917C349.873 24.9272 362.392 27.7395 369.842 36.5223C377.997 46.0839 377.909 59.7124 382.229 71.1343C387.342 84.9359 398.539 95.5791 409.427 105.746C420.315 115.914 431.468 126.297 437.198 139.926C442.929 153.554 440.681 171.293 428.382 179.73C418.64 186.392 405.724 185.57 393.822 186.133C375.726 187.017 358.04 191.74 341.982 199.978C326.29 208.025 311.831 219.62 294.287 222.259C268.808 226.066 245.004 210.145 224.374 195.089C217.188 189.81 209.694 184.186 206.256 176.138C203.17 168.827 203.832 160.606 202.509 152.862C197.396 122.144 156.665 73.6869 206.432 55.4291C224.065 48.9826 242.535 44.9157 260.256 38.1231C285.074 28.8211 311.39 22.2016 338.192 23.9322" fill="#142B2A"/>
<path d="M312.621 254.058C312.621 254.058 314.561 282.267 316.544 292.737L322.319 293.126C322.319 293.126 328.623 269.071 330.915 255.702C324.768 256.491 318.52 255.93 312.621 254.058Z" fill="#0095D4"/>
<path d="M332.276 255.182L336.243 296.284L342.371 297.409C345.558 282.384 347.825 267.185 349.159 251.894L332.276 255.182Z" fill="#0095D4"/>
<path d="M318.353 92.8958C316.714 95.8983 315.356 99.0406 314.297 102.284C313.22 105.552 312.993 109.032 313.636 112.408C313.794 113.38 314.187 114.3 314.782 115.091C315.438 115.777 316.283 116.261 317.215 116.484C318.146 116.707 319.124 116.659 320.028 116.345C321.839 115.711 323.45 114.622 324.7 113.187C327.576 110.288 329.918 106.921 331.621 103.236" fill="#E3E3E3"/>
<path d="M328.887 107.995L332.193 129.801L325.669 139.146L318.043 138.021L317.47 130.969L320.82 111.37" fill="#E3E3E3"/>
<path d="M328.053 106.956C327.703 106.304 327.257 105.707 326.73 105.182C324.311 102.403 322.536 99.1403 321.528 95.6209L316.415 96.7457C315.754 92.6787 315.049 88.6119 314.387 84.5017C319.172 86.1144 324.152 87.1035 329.199 87.4437C334.32 87.8306 339.076 90.1958 342.423 94.0201C343.709 95.9119 344.503 98.0848 344.733 100.348C344.964 102.611 344.625 104.895 343.746 107C342.852 109.351 341.422 111.47 339.566 113.194C337.709 114.919 335.474 116.204 333.034 116.95C326.73 118.119 329.507 110.461 328.008 107.043" fill="#0095D4"/>
<path d="M283.09 105.226C283.09 105.226 282.12 168.912 306.409 188.035V254.534C323.401 258.559 341.124 258.559 358.116 254.534C358.116 254.534 353.444 203.827 353.311 204.044C370.944 148.708 333.651 126.167 333.651 126.167C331.138 129.035 328.159 131.476 324.835 133.392C322.543 134.517 318.223 133.868 317.561 131.012L300.678 143.689L294.198 110.072" fill="#CA5098"/>
<path d="M345.018 224.465C345.091 224.483 345.167 224.483 345.239 224.465C348.516 217.975 351.286 211.249 353.526 204.347C353.556 204.255 353.55 204.155 353.509 204.067C353.469 203.979 353.396 203.909 353.306 203.871C353.259 203.858 353.211 203.854 353.163 203.861C353.115 203.867 353.069 203.883 353.028 203.907C352.987 203.931 352.951 203.964 352.923 204.002C352.895 204.041 352.875 204.084 352.865 204.13C350.645 210.86 347.934 217.425 344.754 223.773L336.378 218.754L337.745 177.479C337.718 177.403 337.667 177.337 337.6 177.29C337.533 177.243 337.453 177.218 337.37 177.218C337.288 177.218 337.208 177.243 337.14 177.29C337.073 177.337 337.023 177.403 336.996 177.479L335.673 219.014C335.646 219.06 335.632 219.112 335.632 219.165C335.632 219.218 335.646 219.27 335.673 219.317L344.489 224.638" fill="white"/>
<path d="M283.082 105.226L294.103 110.029L300.583 143.646L317.466 130.969C310.515 149.252 306.803 168.567 306.49 188.079C282.201 168.956 283.171 105.269 283.171 105.269" fill="#9BCEA4"/>
<path d="M262.283 79.6138L300.942 96.0977C300.942 96.0977 305.703 101.073 303.367 105.703C302.371 107.19 301.075 108.461 299.559 109.436C298.042 110.411 296.337 111.069 294.55 111.37L254.128 96.5304L262.283 79.6138Z" fill="#CA5098"/>
<path d="M197.346 46.905L259.765 74.6812C261.41 76.8041 262.503 79.2889 262.949 81.9201C263.394 84.5514 263.179 87.2495 262.322 89.7807C260.442 94.1852 256.883 97.6942 252.404 99.5586L187.031 75.5464L197.346 46.905Z" fill="#0095D4"/>
<path d="M194.134 39.5071C194.134 39.5071 210.047 64.5576 184.127 78.4457L105.707 59.9282L125.632 4.98169L194.134 39.5071Z" fill="#CA5098"/>
<path d="M137.49 27.9552C136.653 43.3142 126.779 58.5003 112.188 63.2162C110.452 63.8876 108.566 64.0966 106.721 63.8219C102.842 62.9566 100.726 58.8031 99.7125 55.1689C96.0097 41.6269 99.7125 27.0899 105.179 14.2835C106.696 10.2474 109.157 6.61689 112.364 3.68347C128.806 -9.29603 138.196 15.192 137.49 28.1715" fill="#CA5098"/>
<path d="M272.556 201.059C272.645 201.03 272.721 200.97 272.77 200.891C272.818 200.811 272.836 200.718 272.821 200.627L248.311 88.4836C248.331 88.4312 248.338 88.375 248.331 88.3196C248.324 88.2642 248.303 88.2113 248.27 88.1655C248.238 88.1197 248.195 88.0823 248.144 88.0564C248.094 88.0306 248.038 88.0171 247.981 88.0171C247.924 88.0171 247.868 88.0306 247.818 88.0564C247.767 88.0823 247.724 88.1197 247.691 88.1655C247.659 88.2113 247.638 88.2642 247.631 88.3196C247.624 88.375 247.63 88.4312 247.65 88.4836L272.116 200.627C272.126 200.711 272.168 200.788 272.233 200.844C272.298 200.9 272.382 200.93 272.468 200.929" fill="white"/>
<path d="M222.609 175.617C222.689 175.619 222.768 175.595 222.832 175.548C222.896 175.501 222.942 175.433 222.962 175.357L243.284 88.4379C243.305 88.3928 243.316 88.3431 243.313 88.2932C243.311 88.2433 243.296 88.1947 243.27 88.1519C243.243 88.1091 243.207 88.0733 243.163 88.0477C243.119 88.0221 243.07 88.0075 243.019 88.0052C242.973 87.9992 242.925 88.0022 242.88 88.0142C242.835 88.0262 242.793 88.0469 242.756 88.0751C242.719 88.1033 242.688 88.1385 242.665 88.1785C242.642 88.2184 242.628 88.2625 242.622 88.3081L222.257 175.184C222.244 175.23 222.24 175.277 222.246 175.324C222.253 175.371 222.269 175.416 222.294 175.457C222.318 175.497 222.351 175.532 222.39 175.56C222.43 175.588 222.474 175.607 222.521 175.617" fill="white"/>
<path d="M244.293 175.619C244.346 175.649 244.407 175.665 244.469 175.665C244.531 175.665 244.592 175.649 244.645 175.619L245.924 90.2567C245.93 90.2135 245.927 90.1695 245.914 90.1276C245.901 90.0857 245.88 90.0469 245.85 90.0141C245.821 89.9812 245.785 89.9549 245.744 89.9371C245.704 89.9192 245.66 89.9102 245.615 89.9107C245.565 89.9045 245.514 89.9089 245.466 89.9235C245.418 89.9381 245.374 89.9627 245.337 89.9954C245.299 90.0282 245.269 90.0684 245.249 90.1135C245.228 90.1586 245.218 90.2074 245.218 90.2567L243.94 175.619C243.94 175.619 243.94 175.965 244.293 175.965V175.619Z" fill="white"/>
<path d="M126.599 27.6965C125.276 38.5128 118.884 49.5886 110.333 53.6555C109.392 54.2098 108.295 54.4526 107.203 54.3478C105.043 53.9584 104.073 51.1894 103.676 48.5935C102.862 38.6825 104.701 28.7347 109.01 19.7358C109.971 16.9055 111.466 14.2782 113.418 11.9913C123.469 1.95382 127.48 18.6109 126.378 27.6533" fill="#0095D4"/>
<path d="M316.673 108.731C316.722 108.751 316.775 108.762 316.828 108.762C316.881 108.762 316.933 108.751 316.982 108.731C317.039 108.656 317.07 108.565 317.07 108.472C317.07 108.378 317.039 108.287 316.982 108.212L316.629 107.952C316.629 107.952 316.629 107.952 316.409 107.952L315.483 107.303C316.077 105.309 317.151 103.484 318.613 101.982C318.65 101.949 318.68 101.909 318.701 101.865C318.722 101.82 318.732 101.771 318.732 101.722C318.732 101.673 318.722 101.625 318.701 101.58C318.68 101.535 318.65 101.495 318.613 101.463C318.547 101.402 318.461 101.368 318.371 101.368C318.28 101.368 318.194 101.402 318.128 101.463C316.48 103.107 315.308 105.153 314.734 107.39C314.694 107.447 314.673 107.515 314.673 107.585C314.673 107.654 314.694 107.722 314.734 107.779L316.409 108.904" fill="#13110C"/>
<path d="M315.484 112.062L317.953 111.542C318.243 111.495 318.525 111.408 318.79 111.283C318.875 111.238 318.942 111.167 318.982 111.081C319.022 110.995 319.032 110.899 319.011 110.807C318.945 110.746 318.858 110.712 318.768 110.712C318.678 110.712 318.591 110.746 318.526 110.807H317.776L315.308 111.326C315.261 111.336 315.216 111.355 315.177 111.383C315.138 111.411 315.105 111.446 315.08 111.486C315.055 111.527 315.039 111.572 315.033 111.619C315.027 111.666 315.03 111.713 315.043 111.759C315.054 111.843 315.096 111.92 315.161 111.976C315.226 112.032 315.31 112.062 315.396 112.062" fill="#13110C"/>
<path d="M337.927 219.965C336.155 221.764 334.801 223.919 333.96 226.282L342.776 226.758L344.143 223.34L337.927 219.965Z" fill="white"/>
<path d="M347.753 240.517C330.341 238.526 330.65 225.763 330.65 225.763H349.208" fill="#9BCEA4"/>
<path d="M335.716 298.492H342.24C342.24 298.492 342.548 299.185 342.857 300.136C343.534 302.12 343.611 304.254 343.077 306.28H340.432L339.242 303.9C335.438 305.127 331.504 305.925 327.516 306.28C325.312 305.891 335.716 298.363 335.716 298.363" fill="#142B2A"/>
<path d="M315.976 294.509H322.456C322.456 294.509 322.765 295.202 323.074 296.153C323.748 298.136 323.84 300.266 323.338 302.297H320.649L319.459 299.918C315.663 301.117 311.746 301.915 307.777 302.297C305.529 301.908 315.976 294.38 315.976 294.38" fill="#142B2A"/>
<path d="M320.471 107.822C320.865 107.834 321.256 107.76 321.617 107.605C322.292 107.337 322.907 106.94 323.425 106.437C324.006 105.991 324.386 105.338 324.482 104.62C324.464 104.279 324.389 103.943 324.262 103.625C323.821 102.716 322.455 100.986 321.132 100.986C319.81 100.986 318.091 103.192 317.914 104.577C317.82 105.156 317.903 105.749 318.155 106.281C318.406 106.813 318.814 107.259 319.325 107.562C319.681 107.735 320.074 107.824 320.471 107.822ZM323.513 103.971C323.546 104.172 323.546 104.376 323.513 104.577C323.513 105.053 323.072 105.485 322.719 105.832C322.282 106.266 321.756 106.606 321.176 106.827C320.919 106.935 320.641 106.991 320.361 106.991C320.08 106.991 319.803 106.935 319.545 106.827C319.195 106.603 318.92 106.282 318.755 105.904C318.59 105.527 318.543 105.11 318.62 104.707C318.62 103.582 319.898 101.851 321 101.851C321.838 101.851 322.984 103.106 323.38 103.971" fill="#CA5098"/>
<path d="M334.924 106.87L335.629 106.437L334.174 104.188C334.069 103.993 333.897 103.84 333.689 103.755C333.628 103.725 333.56 103.709 333.491 103.709C333.422 103.709 333.354 103.725 333.292 103.755C330.173 103.889 327.067 104.222 323.991 104.75V105.572C327.037 105.046 330.115 104.714 333.204 104.577L334.924 106.87Z" fill="#CA5098"/>
<path d="M318.356 104.1L318.797 103.408L316.02 101.548L315.579 102.24L318.356 104.1Z" fill="#CA5098"/>
<path d="M392.496 138.888C392.516 139.086 392.491 139.285 392.422 139.472C392.353 139.66 392.243 139.829 392.1 139.969C392.016 140.065 391.91 140.139 391.791 140.186C391.652 140.27 391.492 140.315 391.328 140.315C391.165 140.315 391.005 140.27 390.865 140.186C390.633 139.921 390.508 139.583 390.513 139.234C390.488 139.12 390.488 139.002 390.513 138.888C390.576 138.684 390.705 138.505 390.879 138.378C391.054 138.251 391.265 138.183 391.483 138.183C391.7 138.183 391.911 138.251 392.086 138.378C392.26 138.505 392.389 138.684 392.452 138.888" fill="white"/>
<path d="M371.785 130.666C371.801 130.857 371.774 131.049 371.705 131.229C371.636 131.408 371.528 131.571 371.388 131.704H371.123C370.984 131.789 370.824 131.833 370.66 131.833C370.497 131.833 370.337 131.789 370.198 131.704C370.067 131.582 369.964 131.434 369.895 131.27C369.827 131.106 369.795 130.93 369.801 130.753C369.776 130.639 369.776 130.52 369.801 130.406C369.884 130.205 370.032 130.037 370.223 129.926C370.413 129.816 370.635 129.769 370.854 129.793C371.074 129.818 371.279 129.912 371.439 130.062C371.599 130.212 371.705 130.409 371.74 130.623" fill="white"/>
<path d="M372.793 166.229C372.809 166.42 372.782 166.612 372.714 166.792C372.645 166.971 372.537 167.134 372.397 167.267C372.313 167.363 372.207 167.437 372.088 167.484C371.956 167.585 371.793 167.641 371.625 167.641C371.457 167.641 371.294 167.585 371.162 167.484C370.93 167.219 370.805 166.881 370.81 166.532C370.788 166.417 370.788 166.3 370.81 166.186C370.893 165.985 371.041 165.816 371.231 165.706C371.422 165.595 371.643 165.548 371.863 165.573C372.083 165.597 372.288 165.692 372.448 165.841C372.608 165.991 372.714 166.188 372.749 166.402" fill="white"/>
<path d="M388.532 117.774C388.543 117.971 388.514 118.168 388.445 118.354C388.377 118.54 388.272 118.71 388.135 118.855L387.871 119.072C387.731 119.156 387.571 119.201 387.408 119.201C387.244 119.201 387.084 119.156 386.945 119.072C386.815 118.94 386.713 118.784 386.645 118.613C386.577 118.442 386.544 118.26 386.548 118.077C386.527 117.977 386.527 117.874 386.548 117.774C386.611 117.57 386.74 117.391 386.915 117.264C387.089 117.137 387.301 117.069 387.518 117.069C387.735 117.069 387.947 117.137 388.121 117.264C388.296 117.391 388.424 117.57 388.488 117.774" fill="white"/>
<path d="M360.097 104.144C360.113 104.335 360.086 104.527 360.017 104.707C359.949 104.886 359.84 105.049 359.7 105.182L359.436 105.442C359.297 105.526 359.136 105.571 358.973 105.571C358.809 105.571 358.649 105.526 358.51 105.442C358.252 105.173 358.109 104.816 358.113 104.447C358.092 104.332 358.092 104.215 358.113 104.101C358.197 103.9 358.345 103.731 358.535 103.62C358.725 103.51 358.947 103.463 359.167 103.488C359.386 103.512 359.592 103.606 359.752 103.756C359.912 103.906 360.018 104.103 360.053 104.317" fill="white"/>
<path d="M410.834 162.163C410.85 162.354 410.823 162.546 410.755 162.726C410.686 162.905 410.578 163.068 410.438 163.201C410.354 163.297 410.248 163.371 410.129 163.418C410.001 163.509 409.847 163.558 409.688 163.558C409.53 163.558 409.375 163.509 409.247 163.418C409.116 163.295 409.013 163.147 408.945 162.983C408.877 162.819 408.845 162.643 408.851 162.466C408.829 162.351 408.829 162.234 408.851 162.12C408.934 161.919 409.082 161.75 409.272 161.639C409.463 161.529 409.684 161.482 409.904 161.507C410.124 161.531 410.329 161.625 410.489 161.775C410.649 161.925 410.755 162.122 410.79 162.336" fill="white"/>
<path d="M370.766 77.9688C370.798 78.1636 370.783 78.3631 370.721 78.5511C370.66 78.739 370.555 78.9101 370.413 79.0504H370.105C369.966 79.1347 369.805 79.1793 369.642 79.1793C369.478 79.1793 369.318 79.1347 369.179 79.0504C368.931 78.775 368.791 78.4226 368.782 78.0553C368.763 77.9553 368.763 77.8526 368.782 77.7525C368.829 77.5401 368.949 77.3498 369.121 77.2133C369.294 77.0768 369.509 77.0024 369.73 77.0024C369.952 77.0024 370.166 77.0768 370.339 77.2133C370.511 77.3498 370.631 77.5401 370.678 77.7525" fill="white"/>
<path d="M329.599 56.4666C329.615 56.6643 329.589 56.8631 329.52 57.0497C329.452 57.2364 329.343 57.4064 329.202 57.5482C329.1 57.5681 328.995 57.5681 328.893 57.5482C328.754 57.6325 328.594 57.677 328.431 57.677C328.267 57.677 328.107 57.6325 327.968 57.5482C327.736 57.2668 327.611 56.9149 327.615 56.5531C327.594 56.4532 327.594 56.3501 327.615 56.2503C327.678 56.0463 327.807 55.8677 327.982 55.7408C328.156 55.6139 328.368 55.5454 328.585 55.5454C328.802 55.5454 329.014 55.6139 329.188 55.7408C329.363 55.8677 329.491 56.0463 329.555 56.2503" fill="white"/>
<path d="M350.177 45.5631C350.209 45.7579 350.194 45.9573 350.133 46.1453C350.071 46.3332 349.966 46.5043 349.824 46.6447L349.516 46.861C349.377 46.9453 349.216 46.9898 349.053 46.9898C348.889 46.9898 348.729 46.9453 348.59 46.861C348.342 46.5856 348.202 46.2331 348.193 45.8659C348.174 45.7658 348.174 45.6632 348.193 45.5631C348.24 45.3506 348.36 45.1604 348.532 45.0239C348.705 44.8875 348.92 44.813 349.141 44.813C349.363 44.813 349.578 44.8875 349.75 45.0239C349.922 45.1604 350.042 45.3506 350.089 45.5631" fill="white"/>
<path d="M294.329 40.2861C294.343 40.4735 294.319 40.6616 294.258 40.8398C294.198 41.018 294.102 41.1827 293.977 41.3245H293.668C293.531 41.4138 293.37 41.4614 293.205 41.4614C293.041 41.4614 292.88 41.4138 292.742 41.3245C292.612 41.2024 292.509 41.0544 292.44 40.8903C292.372 40.7263 292.34 40.5498 292.346 40.3727C292.324 40.2583 292.324 40.141 292.346 40.0266C292.429 39.8257 292.577 39.657 292.767 39.5464C292.958 39.4357 293.179 39.3891 293.399 39.4136C293.619 39.4381 293.824 39.5324 293.984 39.6821C294.144 39.8318 294.25 40.0287 294.285 40.2429" fill="white"/>
<path d="M264.269 55.3848C264.285 55.5825 264.258 55.7813 264.19 55.968C264.121 56.1546 264.013 56.3246 263.872 56.4665C263.77 56.4863 263.665 56.4863 263.563 56.4665C263.431 56.5469 263.278 56.5895 263.122 56.5895C262.967 56.5895 262.814 56.5469 262.682 56.4665C262.552 56.3347 262.45 56.1788 262.382 56.008C262.313 55.8371 262.281 55.6547 262.285 55.4713C262.264 55.3715 262.264 55.2683 262.285 55.1685C262.348 54.9645 262.477 54.7859 262.651 54.659C262.826 54.5321 263.037 54.4636 263.255 54.4636C263.472 54.4636 263.683 54.5321 263.858 54.659C264.033 54.7859 264.161 54.9645 264.225 55.1685" fill="white"/>
<path d="M214.676 97.7417C214.693 97.9393 214.666 98.1382 214.597 98.3249C214.529 98.5115 214.42 98.6814 214.279 98.8233C214.195 98.9188 214.09 98.993 213.971 99.0396C213.831 99.1238 213.671 99.1684 213.508 99.1684C213.344 99.1684 213.184 99.1238 213.045 99.0396C212.813 98.7581 212.688 98.4064 212.692 98.0446C212.671 97.9447 212.671 97.8415 212.692 97.7417C212.756 97.5377 212.884 97.359 213.059 97.2321C213.233 97.1052 213.445 97.0369 213.662 97.0369C213.879 97.0369 214.091 97.1052 214.265 97.2321C214.44 97.359 214.568 97.5377 214.632 97.7417" fill="white"/>
<path d="M206.697 118.856C206.729 119.044 206.713 119.237 206.652 119.418C206.59 119.599 206.485 119.763 206.344 119.894C206.344 119.894 206.123 119.894 206.035 120.154C205.877 120.214 205.703 120.226 205.538 120.187C205.373 120.149 205.223 120.062 205.11 119.938C204.979 119.815 204.876 119.667 204.807 119.503C204.739 119.339 204.707 119.163 204.713 118.986C204.713 118.986 204.713 118.769 204.713 118.64C204.796 118.439 204.944 118.27 205.135 118.159C205.325 118.049 205.547 118.002 205.766 118.027C205.986 118.051 206.191 118.145 206.351 118.295C206.511 118.445 206.617 118.642 206.652 118.856" fill="white"/>
<path d="M226.136 111.413C226.152 111.604 226.125 111.796 226.056 111.976C225.988 112.155 225.88 112.318 225.739 112.451L225.475 112.668C225.343 112.769 225.18 112.825 225.012 112.825C224.844 112.825 224.681 112.769 224.549 112.668C224.418 112.545 224.315 112.397 224.247 112.233C224.179 112.069 224.146 111.893 224.153 111.716C224.131 111.601 224.131 111.484 224.153 111.37C224.236 111.169 224.384 111 224.574 110.889C224.764 110.779 224.986 110.732 225.206 110.757C225.425 110.781 225.631 110.875 225.791 111.025C225.951 111.175 226.057 111.372 226.092 111.586" fill="white"/>
<path d="M305.08 79.3108C305.097 79.5085 305.07 79.7073 305.002 79.894C304.933 80.0806 304.825 80.2506 304.683 80.3924L304.419 80.6088C304.28 80.693 304.12 80.7377 303.956 80.7377C303.793 80.7377 303.632 80.693 303.493 80.6088C303.367 80.4835 303.266 80.335 303.198 80.1716C303.13 80.0083 303.096 79.8334 303.097 79.657C303.072 79.5429 303.072 79.4249 303.097 79.3108C303.16 79.1069 303.288 78.9283 303.463 78.8014C303.637 78.6745 303.849 78.606 304.066 78.606C304.284 78.606 304.495 78.6745 304.67 78.8014C304.844 78.9283 304.973 79.1069 305.036 79.3108" fill="white"/>
<path d="M279.911 77.969C279.943 78.1638 279.928 78.3633 279.867 78.5513C279.806 78.7392 279.7 78.9102 279.559 79.0506H279.25C279.111 79.1348 278.951 79.1795 278.787 79.1795C278.624 79.1795 278.464 79.1348 278.325 79.0506C278.195 78.9188 278.093 78.763 278.024 78.5922C277.956 78.4214 277.923 78.2389 277.928 78.0555C277.928 78.0555 277.928 77.8392 277.928 77.7527C277.991 77.5487 278.12 77.3702 278.294 77.2433C278.469 77.1164 278.68 77.0479 278.898 77.0479C279.115 77.0479 279.326 77.1164 279.501 77.2433C279.676 77.3702 279.804 77.5487 279.867 77.7527" fill="white"/>
<path d="M306.098 119.937C306.114 120.128 306.087 120.32 306.018 120.499C305.95 120.679 305.841 120.841 305.701 120.975C305.618 121.07 305.512 121.145 305.393 121.191C305.268 121.29 305.112 121.343 304.952 121.343C304.792 121.343 304.636 121.29 304.511 121.191C304.38 121.069 304.277 120.921 304.209 120.757C304.14 120.593 304.108 120.417 304.114 120.239C304.093 120.125 304.093 120.008 304.114 119.893C304.198 119.692 304.346 119.524 304.536 119.413C304.726 119.302 304.948 119.256 305.168 119.28C305.387 119.305 305.593 119.399 305.753 119.549C305.913 119.698 306.018 119.895 306.054 120.11" fill="white"/>
<path d="M339.069 76.8877C339.086 77.0853 339.059 77.2843 338.991 77.4709C338.922 77.6575 338.814 77.8274 338.673 77.9693C338.571 77.9891 338.466 77.9891 338.364 77.9693C338.225 78.0535 338.065 78.0982 337.901 78.0982C337.738 78.0982 337.577 78.0535 337.438 77.9693C337.206 77.705 337.081 77.3665 337.086 77.0175C337.061 76.9035 337.061 76.7855 337.086 76.6714C337.149 76.4675 337.278 76.2889 337.452 76.162C337.627 76.0351 337.838 75.9666 338.056 75.9666C338.273 75.9666 338.484 76.0351 338.659 76.162C338.833 76.2889 338.962 76.4675 339.025 76.6714" fill="white"/>
<path d="M274.54 118.856C274.557 119.047 274.529 119.239 274.461 119.419C274.392 119.598 274.284 119.761 274.144 119.894L273.879 120.154C273.721 120.214 273.547 120.226 273.382 120.187C273.217 120.149 273.067 120.062 272.954 119.938C272.823 119.815 272.72 119.667 272.651 119.503C272.583 119.339 272.551 119.163 272.557 118.986C272.535 118.871 272.535 118.754 272.557 118.64C272.64 118.439 272.788 118.27 272.978 118.159C273.169 118.049 273.39 118.002 273.61 118.027C273.83 118.051 274.035 118.145 274.195 118.295C274.355 118.445 274.461 118.642 274.496 118.856" fill="white"/>
<path d="M286.968 175.142C286.988 175.34 286.962 175.54 286.894 175.727C286.825 175.914 286.715 176.084 286.571 176.224L286.307 176.44C286.168 176.525 286.008 176.569 285.844 176.569C285.681 176.569 285.52 176.525 285.381 176.44C285.25 176.318 285.147 176.17 285.079 176.006C285.01 175.842 284.978 175.666 284.984 175.488C284.963 175.374 284.963 175.257 284.984 175.142C285.048 174.938 285.176 174.76 285.351 174.633C285.525 174.506 285.737 174.438 285.954 174.438C286.171 174.438 286.383 174.506 286.558 174.633C286.732 174.76 286.861 174.938 286.924 175.142" fill="white"/>
<path d="M268.983 146.502C268.999 146.693 268.972 146.885 268.903 147.065C268.835 147.244 268.726 147.407 268.586 147.54C268.509 147.637 268.42 147.725 268.322 147.8C268.182 147.884 268.022 147.929 267.859 147.929C267.695 147.929 267.535 147.884 267.396 147.8C267.137 147.531 266.995 147.174 266.999 146.805C266.978 146.69 266.978 146.573 266.999 146.459C267.063 146.255 267.191 146.076 267.366 145.949C267.54 145.822 267.752 145.754 267.969 145.754C268.186 145.754 268.398 145.822 268.572 145.949C268.747 146.076 268.875 146.255 268.939 146.459" fill="white"/>
<path d="M319.891 103.928H320.156H320.465C320.465 103.928 320.686 103.928 320.73 103.928C320.806 104.037 320.847 104.165 320.847 104.297C320.847 104.428 320.806 104.557 320.73 104.665C320.75 104.765 320.75 104.868 320.73 104.968C320.6 105.032 320.451 105.045 320.311 105.005C320.172 104.965 320.053 104.874 319.979 104.752C319.893 104.639 319.847 104.502 319.847 104.362C319.847 104.221 319.893 104.084 319.979 103.972" fill="#13110C"/>
<path d="M314.957 100.942C315.03 100.924 315.106 100.924 315.178 100.942H315.531C315.617 100.912 315.711 100.912 315.796 100.942C315.862 101.062 315.896 101.196 315.896 101.332C315.896 101.468 315.862 101.602 315.796 101.722C315.755 101.815 315.687 101.894 315.601 101.949C315.515 102.005 315.414 102.034 315.311 102.034C315.208 102.034 315.107 102.005 315.02 101.949C314.934 101.894 314.866 101.815 314.825 101.722C314.751 101.605 314.711 101.47 314.711 101.332C314.711 101.194 314.751 101.059 314.825 100.942" fill="#13110C"/>
<path d="M322.541 105.313C322.589 105.299 322.634 105.275 322.672 105.242C322.71 105.21 322.74 105.169 322.761 105.124C322.782 105.079 322.793 105.03 322.793 104.981C322.793 104.931 322.782 104.882 322.761 104.837C322.633 104.354 322.402 103.904 322.083 103.516C321.763 103.128 321.363 102.811 320.909 102.587C320.881 102.551 320.844 102.522 320.802 102.502C320.76 102.482 320.714 102.472 320.667 102.472C320.62 102.472 320.574 102.482 320.532 102.502C320.49 102.522 320.454 102.551 320.425 102.587C320.367 102.662 320.337 102.753 320.337 102.847C320.337 102.94 320.367 103.031 320.425 103.106C320.786 103.289 321.103 103.545 321.354 103.859C321.605 104.173 321.784 104.536 321.879 104.924C321.899 105 321.945 105.067 322.009 105.114C322.073 105.161 322.152 105.186 322.232 105.183" fill="#13110C"/>
<path d="M315.176 99.5144C315.832 99.5126 316.484 99.6 317.116 99.774C317.214 99.8041 317.297 99.8706 317.346 99.9594C317.395 100.048 317.408 100.152 317.38 100.25C317.36 100.326 317.314 100.393 317.25 100.441C317.186 100.488 317.108 100.512 317.028 100.51C316.37 100.318 315.685 100.23 315 100.25C315.074 100 315.162 99.7546 315.264 99.5144" fill="#13110C"/>
<path d="M313.062 104.316C313.892 104.257 314.666 103.885 315.222 103.278C315.73 102.819 316.128 102.254 316.387 101.626C316.646 100.997 316.76 100.32 316.721 99.6436C316.642 99.2268 316.46 98.8352 316.191 98.5034C315.922 98.1715 315.574 97.9095 315.178 97.74C314.88 97.5809 314.547 97.4976 314.208 97.4976C313.869 97.4976 313.536 97.5809 313.238 97.74C312.649 98.0755 312.134 98.5243 311.725 99.0595C311.316 99.5948 311.021 100.205 310.858 100.855C310.655 101.533 310.655 102.254 310.858 102.932C310.977 103.294 311.19 103.62 311.476 103.878C311.762 104.136 312.111 104.317 312.489 104.403H312.842M314.429 102.759C314.214 103.025 313.939 103.239 313.625 103.382C313.311 103.524 312.967 103.593 312.621 103.581C312.392 103.504 312.183 103.378 312.008 103.214C311.833 103.05 311.696 102.85 311.607 102.629C311.453 102.121 311.453 101.579 311.607 101.071C311.879 100 312.557 99.0719 313.503 98.4755C313.686 98.3808 313.891 98.3312 314.098 98.3312C314.305 98.3312 314.51 98.3808 314.693 98.4755C314.961 98.6002 315.194 98.7877 315.371 99.0216C315.548 99.2555 315.663 99.5287 315.707 99.8167C315.718 100.362 315.609 100.902 315.389 101.402C315.168 101.902 314.841 102.35 314.429 102.715" fill="#CA5098"/>
<path d="M167.206 177.757H137.405V204.358H107.604V177.757H13.2005V150.956C22.1342 136.689 29.4011 123.422 35.0013 111.154C40.7349 98.8872 45.3351 86.2201 48.8019 73.1529H80.6031V77.7531C73.4028 102.021 62.6024 126.422 48.2018 150.956H107.604V95.9538H137.405V150.956H167.206V177.757Z" fill="#142B2A"/>
<path d="M613.189 177.757H583.388V204.358H553.587V177.757H459.183V150.956C468.117 136.689 475.384 123.422 480.984 111.154C486.717 98.8872 491.317 86.2201 494.784 73.1529H526.585V77.7531C519.385 102.021 508.585 126.422 494.184 150.956H553.587V95.9538H583.388V150.956H613.189V177.757Z" fill="#142B2A"/>
</svg>
