<svg width="202" height="286" viewBox="0 0 202 286" fill="none" xmlns="http://www.w3.org/2000/svg">
<path d="M201.092 286H122.035C121.966 286 121.897 285.986 121.833 285.958C121.77 285.93 121.712 285.889 121.665 285.838C121.618 285.787 121.583 285.726 121.56 285.66C121.538 285.595 121.53 285.525 121.536 285.455V254.913L0.501184 251.872C0.429577 251.867 0.359844 251.847 0.295932 251.814C0.232021 251.781 0.175168 251.736 0.128767 251.681C0.082366 251.627 0.0473521 251.563 0.0255874 251.495C0.00382261 251.426 -0.00417109 251.354 0.00204299 251.282C0.00175491 251.213 0.0159926 251.144 0.0438689 251.08C0.0717451 251.017 0.112532 250.959 0.163807 250.912C0.215081 250.865 0.27573 250.83 0.341636 250.807C0.407542 250.785 0.477341 250.777 0.54661 250.783L122.081 253.824C122.15 253.824 122.219 253.838 122.283 253.866C122.347 253.894 122.404 253.934 122.451 253.986C122.498 254.037 122.534 254.098 122.556 254.163C122.578 254.229 122.586 254.299 122.58 254.368V284.911H201.092C201.236 284.911 201.375 284.968 201.477 285.07C201.579 285.172 201.636 285.311 201.636 285.455C201.636 285.6 201.579 285.738 201.477 285.84C201.375 285.943 201.236 286 201.092 286Z" fill="#13110C"/>
<path d="M157.658 242.478C155.064 243.111 152.355 243.111 149.761 242.478L147.538 248.877H142.999C142.47 249.984 142.103 251.161 141.91 252.372C141.91 255.049 172.589 268.165 176.129 266.94C179.668 265.714 157.976 242.297 157.976 242.297" fill="#C74593"/>
<path d="M156.706 238.212C156.565 238.17 156.446 238.077 156.37 237.951C156.295 237.825 156.269 237.676 156.297 237.532C156.297 236.896 173.588 173.361 168.188 162.106C166.537 158.257 163.607 155.097 159.893 153.162C156.18 151.226 151.911 150.635 147.811 151.486C147.674 151.503 147.535 151.472 147.419 151.397C147.303 151.323 147.217 151.21 147.176 151.078C147.147 150.934 147.173 150.785 147.248 150.659C147.324 150.533 147.443 150.44 147.584 150.397C151.915 149.562 156.401 150.214 160.314 152.249C164.227 154.284 167.338 157.582 169.141 161.607C174.723 173.27 158.067 235.217 157.341 237.849C157.312 237.962 157.248 238.062 157.159 238.135C157.069 238.209 156.958 238.252 156.842 238.258" fill="#13110C"/>
<path d="M148.039 249.602H135.695L130.793 201.905C125.483 208.531 94.9866 244.837 65.8056 246.108C62.0228 246.529 58.194 246.067 54.6193 244.76C51.0446 243.453 47.8212 241.336 45.202 238.574C36.1255 228 38.2584 210.483 38.3492 209.756V209.53C38.5761 209.53 60.4958 194.19 85.2746 180.167C118.676 161.288 141.095 153.482 151.987 156.886C153.743 157.466 155.356 158.414 156.717 159.666C158.079 160.918 159.158 162.446 159.883 164.147C164.422 173.224 163.741 190.651 157.977 215.202C155.239 226.762 151.891 238.169 147.948 249.375L148.039 249.602ZM136.648 248.513H147.312C149.128 243.385 169.187 185.295 159.203 164.51C158.533 162.935 157.535 161.521 156.275 160.363C155.015 159.205 153.522 158.329 151.896 157.794C127.163 150.033 44.0674 206.897 39.393 210.12C39.1661 212.298 37.6232 228.273 45.9735 237.848C48.492 240.493 51.5898 242.517 55.0233 243.761C58.4568 245.006 62.1322 245.436 65.7602 245.019C97.2103 243.657 130.43 200.635 130.748 200.226L131.565 199.137L136.648 248.513Z" fill="#13110C"/>
<path d="M75.1097 222.51C74.9787 222.563 74.8322 222.563 74.7013 222.51C74.6505 222.459 74.6102 222.399 74.5827 222.333C74.5552 222.267 74.541 222.196 74.541 222.124C74.541 222.052 74.5552 221.981 74.5827 221.915C74.6102 221.849 74.6505 221.789 74.7013 221.738L77.0611 219.696C77.1109 219.631 77.1747 219.579 77.2475 219.542C77.3204 219.506 77.4005 219.486 77.482 219.484C77.5635 219.483 77.6444 219.5 77.7185 219.534C77.7927 219.568 77.8583 219.618 77.9105 219.68C77.9627 219.743 78.0001 219.816 78.02 219.896C78.04 219.975 78.042 220.057 78.0259 220.137C78.0097 220.217 77.9757 220.292 77.9266 220.357C77.8774 220.422 77.8144 220.476 77.7419 220.513L75.382 222.555C75.2652 222.601 75.1357 222.601 75.019 222.555" fill="#13110C"/>
<path d="M145.763 227.365C145.626 227.333 145.507 227.248 145.431 227.13C145.355 227.011 145.328 226.868 145.355 226.73C145.672 224.824 146.081 222.736 146.444 220.512C146.449 220.442 146.469 220.374 146.502 220.312C146.536 220.25 146.582 220.196 146.637 220.153C146.693 220.111 146.757 220.08 146.826 220.064C146.894 220.047 146.965 220.046 147.034 220.059C147.106 220.07 147.175 220.095 147.237 220.133C147.299 220.171 147.353 220.221 147.395 220.28C147.437 220.34 147.467 220.407 147.483 220.478C147.499 220.549 147.501 220.622 147.488 220.694C147.125 222.918 146.716 225.232 146.399 226.911C146.377 227.039 146.31 227.156 146.21 227.239C146.11 227.322 145.984 227.367 145.854 227.365M82.3185 216.428C82.2543 216.457 82.1848 216.472 82.1144 216.472C82.044 216.472 81.9743 216.457 81.9101 216.428C81.8593 216.377 81.819 216.317 81.7915 216.251C81.7641 216.185 81.75 216.114 81.75 216.042C81.75 215.971 81.7641 215.9 81.7915 215.833C81.819 215.767 81.8593 215.707 81.9101 215.657C83.317 214.431 84.9507 213.115 86.6752 211.663C86.7258 211.612 86.786 211.572 86.8522 211.544C86.9184 211.517 86.9894 211.503 87.0611 211.503C87.1327 211.503 87.2037 211.517 87.2699 211.544C87.3361 211.572 87.3962 211.612 87.4468 211.663C87.4975 211.713 87.5378 211.773 87.5653 211.84C87.5928 211.906 87.607 211.977 87.607 212.049C87.607 212.12 87.5928 212.191 87.5653 212.257C87.5378 212.324 87.4975 212.384 87.4468 212.434L82.6817 216.428C82.5637 216.466 82.4365 216.466 82.3185 216.428ZM147.942 214.885C147.87 214.874 147.801 214.849 147.739 214.811C147.677 214.772 147.623 214.722 147.58 214.663C147.538 214.604 147.508 214.537 147.492 214.466C147.476 214.395 147.475 214.321 147.488 214.25C147.805 212.207 148.078 210.12 148.35 207.987C148.372 207.85 148.446 207.728 148.555 207.643C148.665 207.559 148.802 207.52 148.94 207.533C149.01 207.538 149.078 207.558 149.14 207.591C149.202 207.625 149.256 207.671 149.299 207.726C149.342 207.782 149.372 207.846 149.389 207.915C149.405 207.983 149.407 208.054 149.394 208.123C149.167 210.256 148.849 212.389 148.532 214.431C148.532 214.495 148.519 214.558 148.493 214.616C148.468 214.674 148.43 214.727 148.383 214.769C148.336 214.812 148.28 214.845 148.22 214.864C148.16 214.884 148.096 214.891 148.032 214.885M91.985 208.441C91.854 208.494 91.7076 208.494 91.5766 208.441C91.5258 208.39 91.4855 208.33 91.458 208.264C91.4305 208.198 91.4163 208.127 91.4163 208.055C91.4163 207.983 91.4305 207.912 91.458 207.846C91.4855 207.78 91.5258 207.72 91.5766 207.669L96.4325 203.766C96.4792 203.717 96.5355 203.677 96.5979 203.651C96.6603 203.624 96.7275 203.61 96.7955 203.61C96.8635 203.61 96.9309 203.624 96.9933 203.651C97.0557 203.677 97.112 203.717 97.1587 203.766C97.2081 203.813 97.2474 203.869 97.2743 203.932C97.3012 203.994 97.3152 204.061 97.3152 204.129C97.3152 204.197 97.3012 204.265 97.2743 204.327C97.2474 204.389 97.2081 204.446 97.1587 204.492L92.348 208.441C92.2313 208.486 92.1017 208.486 91.985 208.441ZM149.575 202.314C149.505 202.309 149.437 202.289 149.375 202.256C149.313 202.222 149.259 202.176 149.217 202.121C149.174 202.065 149.143 202.001 149.127 201.933C149.11 201.864 149.109 201.793 149.121 201.724C149.121 199.5 149.485 197.413 149.575 195.416C149.575 195.272 149.633 195.133 149.735 195.031C149.837 194.929 149.975 194.871 150.12 194.871C150.264 194.871 150.403 194.929 150.505 195.031C150.607 195.133 150.664 195.272 150.664 195.416C150.664 197.367 150.392 199.5 150.165 201.724C150.154 201.86 150.091 201.988 149.991 202.08C149.89 202.173 149.758 202.224 149.621 202.223M101.742 200.59C101.662 200.584 101.583 200.561 101.512 200.522C101.442 200.483 101.381 200.428 101.334 200.363C101.283 200.312 101.243 200.252 101.215 200.186C101.188 200.119 101.174 200.048 101.174 199.977C101.174 199.905 101.188 199.834 101.215 199.768C101.243 199.702 101.283 199.642 101.334 199.591L106.28 195.779C106.327 195.73 106.383 195.69 106.446 195.663C106.508 195.636 106.576 195.622 106.644 195.622C106.712 195.622 106.779 195.636 106.841 195.663C106.904 195.69 106.96 195.73 107.007 195.779C107.057 195.83 107.098 195.89 107.125 195.956C107.153 196.022 107.167 196.093 107.167 196.165C107.167 196.236 107.153 196.307 107.125 196.374C107.098 196.44 107.057 196.5 107.007 196.551L102.105 200.363C101.987 200.401 101.86 200.401 101.742 200.363M111.636 192.784C111.548 192.779 111.463 192.757 111.385 192.718C111.307 192.678 111.238 192.624 111.182 192.557C111.097 192.446 111.051 192.31 111.051 192.171C111.051 192.032 111.097 191.896 111.182 191.785L116.219 188.064C116.319 187.975 116.448 187.925 116.582 187.925C116.716 187.925 116.846 187.975 116.945 188.064C117.03 188.175 117.076 188.31 117.076 188.45C117.076 188.589 117.03 188.725 116.945 188.835L111.953 192.511C111.85 192.546 111.739 192.546 111.636 192.511M150.301 189.108C150.161 189.097 150.028 189.037 149.928 188.937C149.828 188.837 149.767 188.704 149.757 188.563C149.779 186.471 149.672 184.38 149.439 182.3C149.426 182.231 149.428 182.16 149.444 182.092C149.461 182.024 149.491 181.96 149.534 181.904C149.577 181.848 149.631 181.802 149.693 181.769C149.755 181.735 149.823 181.716 149.893 181.71C149.962 181.697 150.033 181.699 150.101 181.716C150.17 181.732 150.234 181.763 150.29 181.805C150.345 181.848 150.391 181.902 150.425 181.964C150.458 182.026 150.478 182.094 150.483 182.164C150.733 184.288 150.854 186.425 150.846 188.563C150.836 188.704 150.775 188.837 150.675 188.937C150.575 189.037 150.442 189.097 150.301 189.108ZM121.71 185.205C121.564 185.261 121.403 185.261 121.257 185.205C121.164 185.098 121.113 184.961 121.113 184.819C121.113 184.677 121.164 184.541 121.257 184.433C123.027 183.208 124.797 182.028 126.43 180.984C126.477 180.935 126.533 180.895 126.596 180.868C126.658 180.842 126.725 180.828 126.793 180.828C126.861 180.828 126.929 180.842 126.991 180.868C127.053 180.895 127.11 180.935 127.156 180.984C127.246 181.084 127.295 181.213 127.295 181.347C127.295 181.481 127.246 181.611 127.156 181.71C125.523 182.754 123.798 183.934 122.028 185.16C121.926 185.198 121.813 185.198 121.71 185.16M132.194 178.488C132.092 178.476 131.994 178.441 131.908 178.386C131.821 178.331 131.749 178.258 131.695 178.171C131.605 178.071 131.556 177.942 131.556 177.808C131.556 177.674 131.605 177.544 131.695 177.444C133.737 176.264 135.598 175.312 137.231 174.54C137.293 174.51 137.361 174.494 137.43 174.492C137.499 174.49 137.567 174.502 137.631 174.527C137.695 174.553 137.753 174.591 137.802 174.64C137.85 174.689 137.887 174.748 137.912 174.812C137.942 174.878 137.959 174.949 137.962 175.021C137.965 175.093 137.953 175.165 137.928 175.232C137.902 175.3 137.864 175.362 137.815 175.414C137.765 175.467 137.706 175.509 137.64 175.538C136.051 176.265 134.236 177.263 132.194 178.398H131.967M148.169 176.537C148.068 176.541 147.97 176.513 147.887 176.455C147.805 176.398 147.745 176.315 147.715 176.219C147.481 175.59 147.099 175.026 146.602 174.576C146.104 174.126 145.505 173.802 144.856 173.632C144.359 173.563 143.855 173.563 143.358 173.632C143.289 173.645 143.218 173.644 143.15 173.627C143.081 173.611 143.017 173.58 142.961 173.537C142.906 173.495 142.86 173.44 142.826 173.379C142.793 173.317 142.773 173.249 142.768 173.178C142.755 173.107 142.756 173.033 142.772 172.962C142.788 172.891 142.818 172.824 142.861 172.765C142.903 172.706 142.957 172.656 143.019 172.618C143.081 172.579 143.15 172.554 143.222 172.543C143.825 172.473 144.434 172.473 145.037 172.543C145.858 172.746 146.617 173.145 147.25 173.706C147.882 174.268 148.369 174.974 148.668 175.765C148.749 175.869 148.793 175.997 148.793 176.128C148.793 176.26 148.749 176.388 148.668 176.491H148.395" fill="#13110C"/>
<path d="M144.047 236.761C143.906 236.719 143.787 236.626 143.711 236.5C143.635 236.374 143.61 236.224 143.638 236.08C143.638 236.08 143.911 234.946 144.274 232.949C144.306 232.812 144.391 232.693 144.509 232.617C144.628 232.541 144.771 232.513 144.909 232.541C144.98 232.551 145.048 232.576 145.108 232.615C145.169 232.653 145.22 232.705 145.259 232.765C145.297 232.825 145.323 232.893 145.333 232.964C145.343 233.035 145.338 233.107 145.318 233.176L144.682 236.307C144.662 236.428 144.602 236.538 144.511 236.621C144.421 236.703 144.305 236.753 144.183 236.761" fill="#13110C"/>
<path d="M101.026 83.5942C101.026 83.5942 71.9355 81.0075 57.7308 117.677C43.5261 154.346 31.9082 211.664 31.9082 211.664C52.2399 207.973 71.8699 201.129 90.0884 191.378C119.814 175.221 123.808 170.048 123.808 170.048C123.808 170.048 132.884 108.191 123.808 96.7551C123.808 96.7551 125.396 105.242 118.498 104.879C111.6 104.516 101.026 83.7758 101.026 83.7758" fill="#0095D4"/>
<path d="M99.0239 164.148L136.691 146.54L140.277 155.117C140.277 155.117 97.0271 205.038 85.1369 195.961C73.2467 186.885 66.984 100.658 95.3934 98.6157C123.803 96.5735 99.0239 164.103 99.0239 164.103" fill="#C74593"/>
<path d="M135.603 256.094C137.225 257.092 139.052 257.708 140.946 257.897C142.841 258.086 144.754 257.841 146.54 257.183C146.54 257.183 168.369 280.555 164.693 281.826C161.017 283.096 130.339 269.935 130.475 267.258C131.691 263.352 133.366 259.604 135.467 256.094" fill="#C74593"/>
<path d="M138.373 45.6992C137.992 53.6259 137.128 61.5219 135.786 69.3434C134.927 75.2795 132.637 80.9178 129.115 85.772C128.171 87.085 126.905 88.1322 125.439 88.8126C123.901 89.2299 122.272 89.1667 120.771 88.6313C119.27 88.0958 117.969 87.1138 117.043 85.8173C114.986 83.0598 113.561 79.8837 112.868 76.5139C110.997 69.3045 110.247 61.8502 110.644 54.4127" fill="white"/>
<path d="M138.376 45.7005C136.924 36.624 131.478 25.9592 113.415 29.2721C83.1453 34.8541 94.4909 63.7628 94.4909 63.7628C95.5801 72.1131 105.927 77.1052 105.927 77.1052C125.896 73.8377 136.107 51.2825 138.376 45.7005Z" fill="#142B2A"/>
<path d="M95.1227 42.4773C86.0462 40.4351 75.7897 45.9264 67.8932 52.5068C55.5945 62.8086 46.3365 76.1511 35.3086 87.8144C26.2321 97.3901 15.4311 106.92 12.6174 119.128C11.4338 125.258 12.1954 131.605 14.7957 137.281C16.7948 142.589 20.4439 147.115 25.2063 150.194C29.9687 153.274 35.5934 154.745 41.2537 154.39C46.1099 153.551 50.7184 151.641 54.7452 148.799C58.7719 145.958 62.1159 142.256 64.5349 137.962C69.1642 129.667 71.3068 120.213 70.7069 110.733C70.1628 105.983 70.1628 101.187 70.7069 96.437C72.9565 88.1018 77.9435 80.7652 84.8662 75.6065C93.5796 68.436 104.517 62.8086 109.464 52.9152C110.374 51.4677 110.857 49.7922 110.857 48.082C110.857 46.3718 110.374 44.6963 109.464 43.2488C108.964 42.7042 108.238 42.1143 108.284 41.3428" fill="#142B2A"/>
<path d="M132.111 141.23L172.729 99.2969L187.251 118.902L155.619 154.391L132.111 141.23Z" fill="#9BCEA4"/>
<path d="M136.65 146.721C136.65 146.721 143.185 136.102 145.001 136.102C146.816 136.102 144.32 142.183 144.32 142.183C148.384 139.934 152.565 137.904 156.846 136.102C157.98 136.102 150.038 143.272 150.038 143.272C150.038 143.272 157.98 137.781 158.479 138.734C158.979 139.687 151.082 145.541 151.082 145.541C151.082 145.541 157.345 142.047 157.345 143.363C157.345 144.679 150.038 148.219 150.038 148.219C150.038 148.219 154.577 147.402 154.577 148.219C150.007 150.978 145.245 153.405 140.326 155.48L136.65 146.721Z" fill="#0095D4"/>
<path d="M187.252 118.902L183.712 97.4365L176.451 104.335L187.252 118.902Z" fill="#C74593"/>
<path d="M130.428 75.6974C129.825 75.7667 129.216 75.7667 128.612 75.6974C128.541 75.6873 128.474 75.662 128.413 75.6233C128.353 75.5846 128.302 75.5333 128.263 75.473C128.224 75.4127 128.199 75.3449 128.189 75.274C128.178 75.203 128.184 75.1307 128.204 75.0619C128.209 74.9919 128.229 74.9237 128.262 74.8618C128.296 74.8 128.342 74.7459 128.397 74.7031C128.453 74.6603 128.517 74.6297 128.586 74.6134C128.654 74.597 128.725 74.5951 128.794 74.6081C129.971 74.9039 131.202 74.9039 132.379 74.6081C133.082 70.6161 133.536 66.5845 133.741 62.5363C133.746 62.4647 133.766 62.395 133.799 62.3311C133.832 62.2672 133.877 62.2105 133.932 62.1641C133.986 62.1177 134.05 62.0825 134.118 62.0607C134.187 62.039 134.259 62.031 134.331 62.0372C134.4 62.0369 134.469 62.0511 134.533 62.079C134.596 62.1069 134.654 62.1478 134.701 62.1991C134.748 62.2504 134.783 62.3109 134.806 62.3768C134.828 62.4427 134.836 62.5125 134.83 62.5818C134.62 66.664 134.135 70.7274 133.378 74.7442C133.426 74.938 133.426 75.1405 133.378 75.3342C133.186 75.5454 132.931 75.6887 132.651 75.7427C131.924 75.9227 131.177 76.0141 130.428 76.0149" fill="#142B2A"/>
<path d="M129.701 67.6196H129.156C129.064 67.5831 128.98 67.528 128.91 67.4577C128.84 67.3875 128.785 67.3036 128.748 67.2112C128.748 67.2112 128.748 66.9842 128.748 66.8481V66.4851C128.795 66.3373 128.871 66.2006 128.973 66.0836C129.074 65.9665 129.198 65.8714 129.338 65.8042C129.472 65.7364 129.619 65.7012 129.769 65.7012C129.919 65.7012 130.067 65.7364 130.2 65.8042C130.336 65.8812 130.455 65.9856 130.548 66.1106C130.642 66.2355 130.709 66.3784 130.745 66.5303C130.765 66.6959 130.747 66.8638 130.692 67.0212C130.636 67.1785 130.546 67.3212 130.427 67.4381C130.238 67.5995 129.994 67.6808 129.746 67.6649" fill="#142B2A"/>
<path d="M128.8 82.4595C127.307 82.19 125.957 81.4026 124.988 80.2358C124.94 80.1822 124.903 80.1197 124.88 80.0519C124.856 79.9841 124.846 79.9123 124.851 79.8407C124.859 79.696 124.925 79.5605 125.033 79.4642C125.141 79.3679 125.283 79.3186 125.428 79.3271C125.573 79.3356 125.708 79.4013 125.805 79.5097C126.61 80.4858 127.736 81.1451 128.981 81.3704C129.118 81.4029 129.237 81.4872 129.313 81.6057C129.39 81.7241 129.417 81.8675 129.39 82.0056C129.37 82.1264 129.309 82.2369 129.219 82.3192C129.128 82.4015 129.013 82.4509 128.89 82.4595" fill="#142B2A"/>
<path d="M134.29 62.7183H133.972C132.487 61.6267 130.808 60.826 129.025 60.3584C128.885 60.3161 128.765 60.2228 128.69 60.0969C128.614 59.9711 128.588 59.8217 128.617 59.6777C128.659 59.5372 128.752 59.4174 128.878 59.3419C129.004 59.2663 129.154 59.2405 129.298 59.2693C131.189 59.7986 132.971 60.659 134.562 61.8107C134.658 61.8739 134.731 61.9657 134.772 62.073C134.812 62.1804 134.818 62.2978 134.788 62.4085C134.757 62.5191 134.693 62.6175 134.603 62.6895C134.514 62.7614 134.404 62.8033 134.29 62.8091" fill="#142B2A"/>
<path d="M103.429 33.0829C106.017 35.0509 109.247 35.9833 112.486 35.698C115.725 35.4126 118.741 33.9301 120.946 31.5399L124.668 4.31042L116.816 14.8392L111.96 4.85499L106.424 16.6545L98.3457 6.21655L103.429 33.0829Z" fill="#C74593"/>
<path d="M96.1201 2.08754C95.8463 2.29143 95.6455 2.57811 95.5475 2.90508C95.4494 3.23205 95.4592 3.58188 95.5756 3.90281C95.7541 4.34015 96.0531 4.7178 96.4378 4.99195C96.639 5.14394 96.8513 5.28046 97.0731 5.40037C97.2674 5.44349 97.4688 5.44349 97.6631 5.40037C98.1068 5.35979 98.5223 5.16517 98.8373 4.85013C99.1523 4.53508 99.3471 4.11964 99.3877 3.67595C99.3963 3.29284 99.2968 2.91501 99.1009 2.58571C98.9049 2.25641 98.6203 1.98888 98.2794 1.81373C97.9386 1.63858 97.5554 1.56282 97.1735 1.59519C96.7917 1.62755 96.4266 1.76667 96.1201 1.99669" fill="#C74593"/>
<path d="M127.21 0.770982C127.469 0.976242 127.66 1.25534 127.757 1.57135C127.854 1.88737 127.853 2.22549 127.754 2.54096C127.543 2.97143 127.232 3.34491 126.847 3.6301C126.672 3.81678 126.454 3.95711 126.211 4.03852C126.033 4.08274 125.846 4.08274 125.667 4.03852C125.215 4.00814 124.789 3.81798 124.464 3.50199C124.14 3.186 123.939 2.7648 123.897 2.31397C123.89 1.92686 123.994 1.54582 124.195 1.21528C124.397 0.88474 124.688 0.618281 125.036 0.447039C125.383 0.275798 125.771 0.206885 126.156 0.248159C126.541 0.289433 126.907 0.439305 127.21 0.680267" fill="#C74593"/>
<path d="M113.728 1.22541C113.647 0.901994 113.468 0.611263 113.217 0.392221C112.965 0.17318 112.653 0.0362335 112.321 0C111.856 0.0249565 111.403 0.165435 111.005 0.408564C110.776 0.533525 110.562 0.685808 110.37 0.862278C110.238 1.01067 110.131 1.17927 110.052 1.36156C109.911 1.7927 109.924 2.25957 110.09 2.68198C110.255 3.10439 110.563 3.456 110.96 3.67611C112.412 4.44761 114.091 2.76842 113.728 1.22541Z" fill="#C74593"/>
</svg>
