<svg width="452" height="404" viewBox="0 0 452 404" fill="none" xmlns="http://www.w3.org/2000/svg">
<path d="M316.539 31.9092C331.948 32.8793 348.461 36.5888 358.288 48.1738C369.045 60.7861 368.928 78.7628 374.627 93.829C381.372 112.034 396.141 126.073 410.503 139.484C424.865 152.895 439.576 166.592 447.135 184.569C454.693 202.545 451.728 225.944 435.505 237.072C422.655 245.861 405.618 244.776 389.919 245.518C366.049 246.684 342.72 252.915 321.54 263.78C300.84 274.395 281.768 289.69 258.626 293.171C225.018 298.193 193.619 277.192 166.407 257.332C156.929 250.369 147.044 242.95 142.509 232.335C138.439 222.691 139.311 211.848 137.567 201.632C130.822 161.113 77.0949 97.1961 142.741 73.113C166 64.6097 190.363 59.2452 213.738 50.2854C246.474 38.0155 281.187 29.284 316.539 31.5668" fill="#142B2A"/>
<path d="M282.813 335.117C282.813 335.117 285.371 372.326 287.988 386.137L295.605 386.65C295.605 386.65 303.92 354.92 306.943 337.286C298.836 338.327 290.593 337.586 282.813 335.117Z" fill="#0095D4"/>
<path d="M308.738 336.603L313.971 390.818L322.053 392.302C326.258 372.484 329.248 352.435 331.008 332.266L308.738 336.603Z" fill="#0095D4"/>
<path d="M290.371 122.531C288.21 126.492 286.419 130.637 285.022 134.915C283.601 139.225 283.301 143.816 284.149 148.269C284.358 149.551 284.876 150.764 285.661 151.808C286.526 152.713 287.641 153.352 288.87 153.646C290.099 153.94 291.388 153.876 292.581 153.463C294.97 152.626 297.095 151.189 298.744 149.297C302.537 145.472 305.626 141.031 307.873 136.171" fill="#E3E3E3"/>
<path d="M304.268 142.453L308.629 171.216L300.023 183.543L289.964 182.059L289.208 172.757L293.627 146.904" fill="#E3E3E3"/>
<path d="M303.166 141.08C302.705 140.22 302.117 139.431 301.422 138.74C298.23 135.074 295.889 130.77 294.56 126.128L287.815 127.611C286.943 122.247 286.013 116.882 285.141 111.461C291.452 113.588 298.02 114.893 304.678 115.342C311.433 115.852 317.707 118.972 322.121 124.016C323.818 126.512 324.865 129.378 325.169 132.363C325.473 135.348 325.026 138.361 323.866 141.137C322.687 144.238 320.801 147.033 318.352 149.308C315.903 151.583 312.956 153.278 309.736 154.263C301.422 155.804 305.085 145.702 303.108 141.194" fill="#0095D4"/>
<path d="M243.856 138.797C243.856 138.797 242.577 222.802 274.615 248.027V335.742C297.029 341.051 320.407 341.051 342.82 335.742C342.82 335.742 336.657 268.857 336.482 269.142C359.741 196.151 310.549 166.418 310.549 166.418C307.234 170.202 303.305 173.422 298.92 175.949C295.897 177.432 290.199 176.576 289.326 172.81L267.056 189.531L258.509 145.189" fill="#CA5098"/>
<path d="M325.542 296.08C325.637 296.104 325.737 296.104 325.833 296.08C330.156 287.518 333.81 278.647 336.764 269.543C336.804 269.421 336.796 269.29 336.742 269.174C336.688 269.058 336.593 268.965 336.473 268.915C336.412 268.898 336.348 268.893 336.285 268.901C336.222 268.91 336.162 268.93 336.107 268.962C336.053 268.995 336.006 269.037 335.969 269.088C335.932 269.139 335.905 269.196 335.892 269.257C332.964 278.134 329.388 286.793 325.193 295.167L314.145 288.547L315.948 234.103C315.912 234.002 315.845 233.915 315.757 233.853C315.668 233.791 315.562 233.758 315.454 233.758C315.345 233.758 315.239 233.791 315.151 233.853C315.062 233.915 314.995 234.002 314.96 234.103L313.215 288.889C313.179 288.95 313.161 289.019 313.161 289.089C313.161 289.159 313.179 289.228 313.215 289.288L324.844 296.308" fill="white"/>
<path d="M243.848 138.797L258.384 145.131L266.931 189.474L289.201 172.753C280.033 196.869 275.136 222.347 274.723 248.084C242.685 222.859 243.964 138.854 243.964 138.854" fill="#9BCEA4"/>
<path d="M216.41 105.015L267.404 126.759C267.404 126.759 273.684 133.322 270.602 139.428C269.289 141.39 267.58 143.066 265.579 144.352C263.579 145.638 261.33 146.507 258.973 146.904L205.653 127.329L216.41 105.015Z" fill="#CA5098"/>
<path d="M130.756 61.8711L213.09 98.5094C215.26 101.31 216.702 104.587 217.29 108.058C217.877 111.529 217.594 115.088 216.463 118.426C213.983 124.236 209.288 128.865 203.38 131.324L117.15 99.6507L130.756 61.8711Z" fill="#0095D4"/>
<path d="M126.518 52.1113C126.518 52.1113 147.509 85.1543 113.319 103.473L9.87808 79.0479L36.1599 6.57031L126.518 52.1113Z" fill="#CA5098"/>
<path d="M51.7987 36.8744C50.694 57.1339 37.6694 77.1652 18.4231 83.3857C16.1336 84.2713 13.646 84.547 11.2129 84.1847C6.0961 83.0433 3.30513 77.5647 1.96777 72.7709C-2.91647 54.9083 1.96772 35.7331 9.1778 18.8407C11.18 13.5169 14.4261 8.72806 18.6556 4.85871C40.3439 -12.262 52.7291 20.0391 51.7987 37.1598" fill="#CA5098"/>
<path d="M229.96 265.21C230.078 265.171 230.178 265.093 230.242 264.988C230.306 264.883 230.33 264.76 230.309 264.64L197.98 116.717C198.006 116.648 198.015 116.574 198.006 116.501C197.996 116.428 197.969 116.358 197.926 116.297C197.883 116.237 197.826 116.188 197.76 116.153C197.693 116.119 197.619 116.102 197.544 116.102C197.469 116.102 197.395 116.119 197.329 116.153C197.262 116.188 197.205 116.237 197.162 116.297C197.119 116.358 197.092 116.428 197.083 116.501C197.073 116.574 197.082 116.648 197.108 116.717L229.379 264.64C229.393 264.751 229.448 264.853 229.534 264.926C229.62 265 229.73 265.04 229.844 265.039" fill="white"/>
<path d="M164.079 231.647C164.184 231.65 164.288 231.618 164.373 231.556C164.457 231.493 164.518 231.405 164.544 231.304L191.349 116.653C191.378 116.593 191.391 116.528 191.388 116.462C191.385 116.396 191.365 116.332 191.331 116.276C191.296 116.219 191.248 116.172 191.19 116.138C191.133 116.104 191.067 116.085 191 116.082C190.939 116.074 190.877 116.078 190.817 116.094C190.758 116.11 190.702 116.137 190.653 116.174C190.605 116.211 190.564 116.258 190.534 116.311C190.504 116.363 190.484 116.421 190.477 116.482L163.614 231.076C163.596 231.136 163.592 231.199 163.6 231.261C163.608 231.323 163.63 231.382 163.662 231.436C163.695 231.489 163.738 231.535 163.79 231.572C163.842 231.608 163.9 231.634 163.963 231.647" fill="white"/>
<path d="M192.682 231.651C192.753 231.691 192.833 231.712 192.915 231.712C192.996 231.712 193.077 231.691 193.147 231.651L194.834 119.054C194.842 118.997 194.838 118.939 194.821 118.883C194.804 118.828 194.776 118.777 194.737 118.734C194.699 118.69 194.651 118.656 194.597 118.632C194.544 118.609 194.485 118.597 194.427 118.597C194.361 118.589 194.294 118.595 194.231 118.614C194.167 118.633 194.109 118.666 194.06 118.709C194.01 118.752 193.97 118.805 193.943 118.865C193.917 118.924 193.903 118.989 193.903 119.054L192.217 231.651C192.217 231.651 192.217 232.107 192.682 232.107V231.651Z" fill="white"/>
<path d="M37.4355 36.5347C35.6912 50.8019 27.26 65.4116 15.9797 70.7761C14.7391 71.5072 13.2917 71.8274 11.8514 71.6892C9.00231 71.1756 7.72299 67.5232 7.19968 64.099C6.12608 51.0258 8.55151 37.9041 14.2354 26.034C15.5028 22.3007 17.4754 18.8351 20.05 15.8186C33.3073 2.57861 38.5985 24.5502 37.1449 36.4776" fill="#0095D4"/>
<path d="M288.155 143.424C288.219 143.45 288.289 143.464 288.359 143.464C288.429 143.464 288.498 143.45 288.562 143.424C288.638 143.325 288.678 143.205 288.678 143.081C288.678 142.958 288.638 142.838 288.562 142.739L288.097 142.396C288.097 142.396 288.097 142.396 287.806 142.396L286.585 141.54C287.369 138.91 288.785 136.503 290.714 134.521C290.763 134.478 290.803 134.425 290.83 134.366C290.857 134.307 290.871 134.243 290.871 134.178C290.871 134.114 290.857 134.05 290.83 133.99C290.803 133.931 290.763 133.879 290.714 133.836C290.627 133.756 290.513 133.711 290.394 133.711C290.275 133.711 290.16 133.756 290.074 133.836C287.9 136.005 286.355 138.704 285.597 141.654C285.544 141.73 285.516 141.82 285.516 141.911C285.516 142.003 285.544 142.092 285.597 142.168L287.806 143.652" fill="#13110C"/>
<path d="M286.586 147.815L289.842 147.13C290.225 147.068 290.597 146.953 290.947 146.788C291.059 146.729 291.147 146.635 291.2 146.522C291.252 146.409 291.266 146.281 291.238 146.16C291.151 146.08 291.037 146.035 290.918 146.035C290.799 146.035 290.685 146.08 290.598 146.16H289.61L286.353 146.845C286.291 146.858 286.233 146.884 286.181 146.92C286.13 146.956 286.086 147.003 286.053 147.056C286.021 147.11 285.999 147.169 285.991 147.231C285.983 147.293 285.987 147.356 286.005 147.416C286.019 147.526 286.074 147.629 286.16 147.702C286.246 147.776 286.356 147.816 286.47 147.815" fill="#13110C"/>
<path d="M316.188 290.148C313.85 292.522 312.065 295.364 310.955 298.48L322.584 299.108L324.387 294.6L316.188 290.148Z" fill="white"/>
<path d="M329.152 317.254C306.184 314.628 306.591 297.793 306.591 297.793H331.07" fill="#9BCEA4"/>
<path d="M313.272 393.726H321.878C321.878 393.726 322.285 394.639 322.692 395.895C323.586 398.511 323.686 401.326 322.983 403.998H319.494L317.924 400.86C312.906 402.477 307.717 403.53 302.457 403.998C299.55 403.485 313.272 393.555 313.272 393.555" fill="#142B2A"/>
<path d="M287.234 388.476H295.781C295.781 388.476 296.188 389.389 296.595 390.644C297.486 393.26 297.606 396.068 296.944 398.748H293.397L291.827 395.61C286.82 397.192 281.654 398.244 276.419 398.748C273.453 398.235 287.234 388.305 287.234 388.305" fill="#142B2A"/>
<path d="M293.166 142.22C293.685 142.237 294.202 142.139 294.678 141.935C295.568 141.581 296.379 141.057 297.062 140.394C297.828 139.805 298.329 138.944 298.457 137.997C298.432 137.547 298.334 137.104 298.166 136.684C297.585 135.486 295.782 133.203 294.038 133.203C292.294 133.203 290.026 136.114 289.793 137.94C289.668 138.703 289.779 139.486 290.11 140.188C290.442 140.89 290.979 141.478 291.654 141.878C292.124 142.105 292.642 142.223 293.166 142.22ZM297.178 137.141C297.221 137.406 297.221 137.675 297.178 137.94C297.178 138.568 296.596 139.138 296.131 139.595C295.555 140.168 294.861 140.616 294.096 140.907C293.756 141.05 293.39 141.124 293.02 141.124C292.651 141.124 292.285 141.05 291.945 140.907C291.482 140.612 291.12 140.189 290.902 139.691C290.685 139.193 290.623 138.643 290.724 138.111C290.724 136.627 292.41 134.345 293.864 134.345C294.968 134.345 296.48 136 297.003 137.141" fill="#CA5098"/>
<path d="M312.232 140.967L313.162 140.396L311.243 137.429C311.104 137.171 310.878 136.97 310.604 136.858C310.523 136.818 310.433 136.797 310.342 136.797C310.251 136.797 310.161 136.818 310.08 136.858C305.966 137.035 301.868 137.473 297.812 138.17V139.255C301.829 138.561 305.889 138.122 309.964 137.942L312.232 140.967Z" fill="#CA5098"/>
<path d="M290.374 137.312L290.955 136.399L287.292 133.945L286.71 134.858L290.374 137.312Z" fill="#CA5098"/>
<path d="M388.169 183.203C388.195 183.464 388.162 183.728 388.071 183.974C387.981 184.221 387.835 184.445 387.646 184.63C387.536 184.756 387.396 184.854 387.239 184.915C387.055 185.026 386.844 185.085 386.628 185.085C386.413 185.085 386.201 185.026 386.018 184.915C385.712 184.567 385.546 184.12 385.553 183.66C385.52 183.509 385.52 183.354 385.553 183.203C385.636 182.934 385.806 182.699 386.036 182.531C386.266 182.364 386.545 182.273 386.832 182.273C387.118 182.273 387.397 182.364 387.628 182.531C387.858 182.699 388.027 182.934 388.111 183.203" fill="white"/>
<path d="M360.848 172.355C360.869 172.607 360.833 172.86 360.743 173.097C360.652 173.334 360.509 173.548 360.324 173.724H359.975C359.792 173.835 359.58 173.894 359.365 173.894C359.149 173.894 358.938 173.835 358.754 173.724C358.582 173.563 358.446 173.368 358.356 173.152C358.265 172.935 358.223 172.702 358.231 172.469C358.198 172.318 358.198 172.163 358.231 172.012C358.341 171.747 358.536 171.525 358.787 171.379C359.038 171.233 359.331 171.171 359.62 171.204C359.91 171.236 360.181 171.36 360.392 171.558C360.603 171.755 360.743 172.015 360.789 172.298" fill="white"/>
<path d="M362.182 219.265C362.203 219.517 362.167 219.77 362.076 220.007C361.986 220.244 361.843 220.458 361.658 220.634C361.548 220.76 361.408 220.858 361.251 220.92C361.077 221.054 360.862 221.127 360.641 221.127C360.419 221.127 360.204 221.054 360.03 220.92C359.724 220.571 359.558 220.124 359.565 219.664C359.537 219.513 359.537 219.359 359.565 219.208C359.675 218.943 359.87 218.72 360.121 218.574C360.372 218.428 360.665 218.367 360.954 218.399C361.244 218.431 361.515 218.556 361.726 218.753C361.937 218.951 362.077 219.21 362.123 219.493" fill="white"/>
<path d="M382.94 155.352C382.955 155.612 382.916 155.872 382.826 156.117C382.736 156.362 382.597 156.587 382.417 156.778L382.068 157.064C381.884 157.175 381.673 157.234 381.458 157.234C381.242 157.234 381.03 157.175 380.847 157.064C380.675 156.89 380.541 156.684 380.451 156.459C380.361 156.234 380.318 155.993 380.324 155.751C380.295 155.62 380.295 155.483 380.324 155.352C380.407 155.083 380.577 154.847 380.807 154.68C381.037 154.512 381.316 154.422 381.603 154.422C381.889 154.422 382.168 154.512 382.399 154.68C382.629 154.847 382.798 155.083 382.882 155.352" fill="white"/>
<path d="M345.435 137.374C345.457 137.626 345.421 137.88 345.33 138.117C345.24 138.353 345.097 138.568 344.912 138.744L344.563 139.086C344.38 139.197 344.168 139.256 343.953 139.256C343.737 139.256 343.526 139.197 343.342 139.086C343.001 138.732 342.814 138.261 342.819 137.773C342.79 137.623 342.79 137.468 342.819 137.317C342.929 137.052 343.124 136.83 343.375 136.684C343.626 136.538 343.919 136.476 344.208 136.508C344.498 136.541 344.769 136.665 344.98 136.863C345.191 137.06 345.331 137.32 345.377 137.602" fill="white"/>
<path d="M412.357 213.901C412.379 214.154 412.343 214.407 412.252 214.644C412.162 214.881 412.019 215.095 411.834 215.271C411.724 215.397 411.584 215.495 411.427 215.556C411.258 215.677 411.054 215.742 410.845 215.742C410.637 215.742 410.433 215.677 410.264 215.556C410.091 215.395 409.955 215.2 409.865 214.984C409.775 214.767 409.733 214.535 409.741 214.301C409.712 214.15 409.712 213.995 409.741 213.844C409.851 213.579 410.046 213.357 410.297 213.211C410.548 213.065 410.84 213.003 411.13 213.036C411.42 213.068 411.691 213.193 411.902 213.39C412.113 213.587 412.252 213.847 412.299 214.13" fill="white"/>
<path d="M359.508 102.845C359.55 103.102 359.53 103.365 359.449 103.613C359.368 103.861 359.229 104.087 359.043 104.272H358.636C358.452 104.383 358.241 104.442 358.025 104.442C357.81 104.442 357.598 104.383 357.415 104.272C357.088 103.908 356.903 103.444 356.891 102.959C356.866 102.827 356.866 102.692 356.891 102.56C356.953 102.279 357.111 102.028 357.338 101.848C357.566 101.668 357.849 101.57 358.141 101.57C358.434 101.57 358.717 101.668 358.944 101.848C359.172 102.028 359.33 102.279 359.392 102.56" fill="white"/>
<path d="M305.205 74.4807C305.227 74.7415 305.191 75.0038 305.101 75.2499C305.011 75.4961 304.868 75.7203 304.681 75.9075C304.547 75.9336 304.409 75.9336 304.274 75.9075C304.091 76.0186 303.879 76.0774 303.664 76.0774C303.448 76.0774 303.237 76.0186 303.053 75.9075C302.748 75.5363 302.583 75.0721 302.588 74.5948C302.56 74.4631 302.56 74.3271 302.588 74.1954C302.672 73.9263 302.841 73.6908 303.072 73.5234C303.302 73.356 303.581 73.2656 303.867 73.2656C304.154 73.2656 304.433 73.356 304.663 73.5234C304.894 73.6908 305.063 73.9263 305.147 74.1954" fill="white"/>
<path d="M332.346 60.0988C332.388 60.3557 332.368 60.6188 332.287 60.8667C332.206 61.1146 332.067 61.3403 331.88 61.5255L331.474 61.8109C331.29 61.922 331.079 61.9808 330.863 61.9808C330.647 61.9808 330.436 61.922 330.252 61.8109C329.926 61.4476 329.74 60.9826 329.729 60.4982C329.704 60.3662 329.704 60.2308 329.729 60.0988C329.791 59.8185 329.949 59.5676 330.176 59.3876C330.404 59.2076 330.687 59.1094 330.979 59.1094C331.271 59.1094 331.555 59.2076 331.782 59.3876C332.01 59.5676 332.168 59.8185 332.229 60.0988" fill="white"/>
<path d="M258.679 53.1396C258.697 53.3867 258.665 53.6349 258.585 53.8699C258.505 54.1049 258.379 54.3222 258.214 54.5093H257.807C257.626 54.627 257.413 54.6899 257.196 54.6899C256.979 54.6899 256.767 54.627 256.586 54.5093C256.413 54.3481 256.277 54.1529 256.187 53.9365C256.097 53.7201 256.054 53.4874 256.062 53.2537C256.034 53.1028 256.034 52.9481 256.062 52.7972C256.172 52.5322 256.368 52.3097 256.619 52.1637C256.869 52.0178 257.162 51.9563 257.451 51.9886C257.741 52.0209 258.012 52.1453 258.223 52.3428C258.434 52.5403 258.574 52.8 258.621 53.0825" fill="white"/>
<path d="M219.033 73.055C219.055 73.3157 219.019 73.578 218.929 73.8241C218.839 74.0703 218.696 74.2945 218.509 74.4817C218.375 74.5078 218.237 74.5078 218.102 74.4817C217.928 74.5878 217.726 74.644 217.521 74.644C217.315 74.644 217.114 74.5878 216.939 74.4817C216.768 74.3078 216.633 74.1022 216.544 73.8769C216.454 73.6516 216.41 73.4109 216.416 73.169C216.388 73.0373 216.388 72.9013 216.416 72.7696C216.5 72.5006 216.669 72.265 216.899 72.0976C217.13 71.9302 217.409 71.8398 217.695 71.8398C217.982 71.8398 218.261 71.9302 218.491 72.0976C218.721 72.265 218.891 72.5006 218.975 72.7696" fill="white"/>
<path d="M153.617 128.93C153.639 129.19 153.603 129.453 153.513 129.699C153.423 129.945 153.28 130.169 153.093 130.356C152.983 130.482 152.844 130.58 152.686 130.642C152.503 130.753 152.291 130.812 152.076 130.812C151.86 130.812 151.649 130.753 151.465 130.642C151.159 130.27 150.995 129.806 151 129.329C150.972 129.197 150.972 129.061 151 128.93C151.084 128.661 151.253 128.425 151.483 128.258C151.714 128.09 151.993 128 152.279 128C152.566 128 152.845 128.09 153.075 128.258C153.305 128.425 153.475 128.661 153.559 128.93" fill="white"/>
<path d="M143.09 156.774C143.132 157.022 143.112 157.277 143.031 157.516C142.95 157.755 142.81 157.97 142.625 158.144C142.625 158.144 142.334 158.144 142.217 158.486C142.008 158.566 141.78 158.581 141.562 158.53C141.344 158.479 141.146 158.364 140.996 158.201C140.824 158.04 140.688 157.844 140.598 157.628C140.508 157.412 140.465 157.179 140.473 156.945C140.473 156.945 140.473 156.66 140.473 156.489C140.583 156.224 140.779 156.001 141.029 155.855C141.28 155.71 141.573 155.648 141.863 155.68C142.152 155.713 142.423 155.837 142.634 156.034C142.845 156.232 142.985 156.492 143.032 156.774" fill="white"/>
<path d="M168.73 146.96C168.752 147.212 168.716 147.466 168.625 147.702C168.535 147.939 168.392 148.153 168.207 148.33L167.858 148.615C167.684 148.749 167.469 148.822 167.248 148.822C167.026 148.822 166.811 148.749 166.637 148.615C166.465 148.454 166.329 148.259 166.238 148.042C166.148 147.826 166.106 147.593 166.114 147.359C166.085 147.209 166.085 147.054 166.114 146.903C166.224 146.638 166.419 146.415 166.67 146.269C166.921 146.123 167.213 146.062 167.503 146.094C167.793 146.127 168.064 146.251 168.275 146.448C168.486 146.646 168.626 146.906 168.672 147.188" fill="white"/>
<path d="M272.865 104.617C272.887 104.878 272.851 105.14 272.761 105.386C272.671 105.633 272.528 105.857 272.341 106.044L271.993 106.329C271.809 106.44 271.598 106.499 271.382 106.499C271.166 106.499 270.955 106.44 270.772 106.329C270.604 106.164 270.472 105.968 270.382 105.753C270.293 105.537 270.247 105.307 270.248 105.074C270.215 104.923 270.215 104.768 270.248 104.617C270.332 104.348 270.501 104.113 270.731 103.945C270.962 103.778 271.241 103.688 271.528 103.688C271.814 103.688 272.093 103.778 272.323 103.945C272.554 104.113 272.723 104.348 272.807 104.617" fill="white"/>
<path d="M239.668 102.848C239.71 103.105 239.69 103.368 239.609 103.616C239.528 103.864 239.389 104.089 239.203 104.275H238.796C238.612 104.386 238.401 104.445 238.185 104.445C237.97 104.445 237.758 104.386 237.575 104.275C237.403 104.101 237.269 103.895 237.179 103.67C237.089 103.445 237.046 103.204 237.051 102.962C237.051 102.962 237.051 102.677 237.051 102.563C237.135 102.294 237.304 102.058 237.535 101.891C237.765 101.723 238.044 101.633 238.331 101.633C238.617 101.633 238.896 101.723 239.127 101.891C239.357 102.058 239.526 102.294 239.61 102.563" fill="white"/>
<path d="M274.209 158.202C274.23 158.454 274.194 158.708 274.104 158.945C274.013 159.181 273.87 159.396 273.686 159.572C273.575 159.698 273.436 159.796 273.279 159.857C273.114 159.987 272.908 160.057 272.697 160.057C272.486 160.057 272.281 159.987 272.116 159.857C271.943 159.696 271.807 159.501 271.717 159.284C271.627 159.068 271.584 158.835 271.592 158.602C271.564 158.451 271.564 158.296 271.592 158.145C271.702 157.88 271.898 157.658 272.149 157.512C272.399 157.366 272.692 157.304 272.982 157.337C273.271 157.369 273.542 157.493 273.753 157.691C273.964 157.888 274.104 158.148 274.151 158.43" fill="white"/>
<path d="M317.699 101.418C317.721 101.679 317.685 101.941 317.595 102.187C317.505 102.434 317.362 102.658 317.175 102.845C317.041 102.871 316.903 102.871 316.768 102.845C316.585 102.956 316.373 103.015 316.158 103.015C315.942 103.015 315.731 102.956 315.547 102.845C315.241 102.496 315.076 102.05 315.082 101.589C315.049 101.439 315.049 101.283 315.082 101.133C315.166 100.864 315.335 100.628 315.565 100.461C315.796 100.293 316.075 100.203 316.361 100.203C316.648 100.203 316.927 100.293 317.157 100.461C317.387 100.628 317.557 100.864 317.641 101.133" fill="white"/>
<path d="M232.58 156.774C232.601 157.026 232.565 157.28 232.475 157.517C232.384 157.753 232.242 157.968 232.057 158.144L231.708 158.486C231.499 158.566 231.27 158.581 231.052 158.53C230.834 158.479 230.637 158.364 230.487 158.201C230.314 158.04 230.178 157.844 230.088 157.628C229.998 157.412 229.955 157.179 229.963 156.945C229.935 156.794 229.935 156.64 229.963 156.489C230.073 156.224 230.269 156.001 230.52 155.855C230.77 155.71 231.063 155.648 231.353 155.68C231.642 155.713 231.914 155.837 232.125 156.034C232.336 156.232 232.475 156.492 232.522 156.774" fill="white"/>
<path d="M248.972 231.024C248.998 231.285 248.964 231.548 248.874 231.795C248.783 232.042 248.638 232.265 248.449 232.45L248.1 232.736C247.916 232.847 247.705 232.906 247.489 232.906C247.274 232.906 247.062 232.847 246.879 232.736C246.706 232.574 246.57 232.379 246.48 232.163C246.39 231.946 246.347 231.714 246.355 231.48C246.327 231.329 246.327 231.174 246.355 231.024C246.439 230.755 246.608 230.519 246.839 230.352C247.069 230.184 247.348 230.094 247.635 230.094C247.921 230.094 248.2 230.184 248.43 230.352C248.661 230.519 248.83 230.755 248.914 231.024" fill="white"/>
<path d="M225.248 193.245C225.269 193.497 225.233 193.75 225.143 193.987C225.052 194.224 224.91 194.438 224.725 194.614C224.623 194.742 224.506 194.857 224.376 194.957C224.192 195.068 223.981 195.127 223.765 195.127C223.55 195.127 223.338 195.068 223.155 194.957C222.814 194.602 222.626 194.132 222.631 193.644C222.603 193.493 222.603 193.339 222.631 193.188C222.715 192.919 222.885 192.683 223.115 192.516C223.345 192.348 223.624 192.258 223.911 192.258C224.197 192.258 224.476 192.348 224.707 192.516C224.937 192.683 225.106 192.919 225.19 193.188" fill="white"/>
<path d="M292.4 137.086H292.749H293.157C293.157 137.086 293.448 137.086 293.506 137.086C293.607 137.229 293.66 137.398 293.66 137.572C293.66 137.746 293.607 137.915 293.506 138.058C293.533 138.19 293.533 138.326 293.506 138.458C293.335 138.542 293.138 138.559 292.954 138.506C292.77 138.453 292.614 138.334 292.516 138.172C292.403 138.024 292.341 137.843 292.341 137.658C292.341 137.472 292.403 137.292 292.516 137.143" fill="#13110C"/>
<path d="M285.89 133.147C285.986 133.122 286.086 133.122 286.181 133.147H286.647C286.76 133.107 286.884 133.107 286.997 133.147C287.084 133.305 287.129 133.482 287.129 133.661C287.129 133.841 287.084 134.018 286.997 134.176C286.943 134.298 286.853 134.402 286.739 134.475C286.625 134.549 286.492 134.587 286.356 134.587C286.22 134.587 286.087 134.549 285.973 134.475C285.86 134.402 285.77 134.298 285.716 134.176C285.617 134.021 285.565 133.843 285.565 133.661C285.565 133.479 285.617 133.301 285.716 133.147" fill="#13110C"/>
<path d="M295.896 138.916C295.959 138.897 296.018 138.865 296.069 138.822C296.119 138.779 296.159 138.726 296.187 138.667C296.214 138.607 296.229 138.543 296.229 138.477C296.228 138.412 296.214 138.348 296.186 138.288C296.018 137.651 295.713 137.057 295.292 136.545C294.87 136.034 294.343 135.616 293.744 135.32C293.706 135.273 293.658 135.235 293.602 135.208C293.547 135.182 293.486 135.168 293.424 135.168C293.363 135.168 293.302 135.182 293.247 135.208C293.191 135.235 293.143 135.273 293.105 135.32C293.029 135.419 292.988 135.539 292.988 135.663C292.988 135.786 293.029 135.906 293.105 136.005C293.581 136.245 294 136.584 294.331 136.998C294.662 137.412 294.898 137.891 295.023 138.402C295.05 138.503 295.11 138.591 295.195 138.653C295.279 138.716 295.383 138.748 295.489 138.745" fill="#13110C"/>
<path d="M286.181 131.266C287.046 131.263 287.907 131.378 288.74 131.608C288.869 131.648 288.978 131.735 289.043 131.853C289.109 131.97 289.125 132.107 289.088 132.236C289.062 132.336 289.002 132.425 288.917 132.487C288.832 132.549 288.729 132.582 288.623 132.578C287.756 132.325 286.853 132.209 285.948 132.236C286.046 131.906 286.163 131.582 286.297 131.266" fill="#13110C"/>
<path d="M283.392 137.6C284.487 137.522 285.508 137.031 286.242 136.23C286.912 135.624 287.436 134.88 287.778 134.051C288.12 133.222 288.27 132.329 288.218 131.436C288.114 130.886 287.874 130.37 287.519 129.932C287.164 129.494 286.706 129.149 286.183 128.925C285.791 128.715 285.351 128.605 284.904 128.605C284.457 128.605 284.017 128.715 283.625 128.925C282.847 129.368 282.168 129.96 281.628 130.666C281.089 131.372 280.7 132.177 280.485 133.034C280.217 133.928 280.217 134.879 280.485 135.774C280.642 136.252 280.923 136.682 281.3 137.022C281.677 137.362 282.138 137.6 282.637 137.714H283.102M285.195 135.545C284.912 135.897 284.549 136.178 284.135 136.367C283.721 136.555 283.267 136.645 282.811 136.63C282.509 136.528 282.233 136.363 282.002 136.146C281.771 135.929 281.591 135.666 281.474 135.374C281.27 134.704 281.27 133.99 281.474 133.319C281.832 131.907 282.726 130.682 283.974 129.895C284.216 129.771 284.485 129.705 284.759 129.705C285.032 129.705 285.302 129.771 285.544 129.895C285.898 130.06 286.205 130.307 286.438 130.616C286.671 130.924 286.823 131.285 286.881 131.665C286.895 132.383 286.752 133.096 286.461 133.756C286.17 134.416 285.738 135.006 285.195 135.488" fill="#CA5098"/>
</svg>
