<svg width="172" height="301" viewBox="0 0 172 301" fill="none" xmlns="http://www.w3.org/2000/svg">
<path d="M130.335 195.562C126.234 195.562 121.913 195.562 117.459 195.032C87.6927 192.651 64.9383 182.95 65.6879 172.984C66.4376 163.017 90.3827 157.064 120.193 159.446C132.814 160.258 145.242 162.963 157.058 167.471C167.025 171.617 172.316 176.6 171.964 181.494C171.302 190.005 153.883 195.562 130.335 195.562ZM107.713 160.548C85.3114 160.548 67.8046 165.663 67.2314 173.116C66.5699 181.935 89.6329 191.196 117.591 193.445C145.549 195.694 169.759 190.182 170.508 181.406C170.817 177.261 165.746 172.587 156.573 168.926C144.89 164.505 132.614 161.845 120.149 161.033C115.739 160.724 111.77 160.548 107.801 160.548" fill="#A9D3A5"/>
<path d="M110.752 146.173C110.752 146.173 108.283 178.364 52.0139 186.434C52.0139 186.434 59.29 245.349 48.2656 265.81L35.0362 268.5L22.5566 176.689L74.9006 140.661C81.9849 143.712 89.5238 145.575 97.2141 146.173C101.139 146.393 107.753 147.716 110.752 146.173Z" fill="#0095D4"/>
<path d="M52.3287 142.645C51.5989 142.432 50.9815 141.941 50.6089 141.278L46.5078 135.589L46.9488 135.369C57.0793 129.622 65.031 120.694 69.571 109.969C71.3521 105.669 72.8258 101.248 73.9808 96.7393C75.0323 93.165 75.7701 89.5056 76.1857 85.803C76.2289 85.1864 76.2289 84.5676 76.1857 83.951C76.1452 81.2602 76.7501 78.5988 77.9495 76.1898C78.5457 75.0907 79.4551 74.1937 80.5622 73.6126C81.6693 73.0316 82.9242 72.7928 84.1673 72.9266C86.8802 73.3799 89.4496 74.4613 91.6701 76.0845C93.8905 77.7078 95.7005 79.8278 96.9557 82.2753C98.7848 86.8262 99.0179 91.8625 97.6171 96.5629C96.2182 101.145 94.1847 105.509 91.5757 109.528C87.1982 117.031 81.7791 123.875 75.4801 129.857C69.2909 135.864 61.7187 140.256 53.4312 142.645C53.0518 142.71 52.664 142.71 52.2846 142.645M47.6103 135.854L51.1822 140.749C51.5349 141.234 51.8878 141.675 52.3287 141.763C52.6196 141.824 52.9199 141.824 53.2108 141.763C61.3699 139.4 68.8313 135.087 74.9509 129.195C81.048 123.258 86.3139 116.524 90.6056 109.175C93.1926 105.235 95.1977 100.943 96.5588 96.4306C97.9066 91.9354 97.689 87.1159 95.9415 82.7604C94.7186 80.4864 93.0029 78.5143 90.9201 76.9883C88.8372 75.4624 86.4397 74.4213 83.9028 73.9409C82.8178 73.8392 81.7268 74.0562 80.7634 74.5653C79.7999 75.0744 79.0059 75.8535 78.4787 76.8072C77.3742 79.119 76.8159 81.6537 76.8471 84.2156C76.8471 84.833 76.8471 85.4504 76.8471 86.0678C76.4372 89.8182 75.6844 93.5232 74.5981 97.1362C73.4569 101.649 71.9829 106.071 70.1883 110.366C65.6476 121.111 57.719 130.077 47.6103 135.898" fill="#13110C"/>
<path d="M76.8867 37.6039C76.8867 37.6039 72.0801 24.0219 83.1045 18.6861C85.2843 17.4754 87.7282 16.8189 90.2213 16.7746C92.7143 16.7303 95.18 17.2994 97.4014 18.4319C99.6228 19.5644 101.532 21.2256 102.961 23.2692C104.389 25.3128 105.294 27.6761 105.594 30.1514C107.005 39.9852 100.347 41.4845 100.347 41.4845L76.8867 37.6039Z" fill="#E3E3E3"/>
<path d="M80.1515 45.6293C83.1621 50.8029 87.9375 54.7172 93.6013 56.6537C95.6838 57.4766 98.0012 57.4766 100.084 56.6537C101.251 55.9812 102.271 55.0799 103.082 54.004C103.892 52.928 104.478 51.6994 104.802 50.3918C106.252 45.3538 106.76 40.0918 106.301 34.8695C106.425 31.1561 105.409 27.4938 103.391 24.3742C101.481 22.2721 99.0222 20.7449 96.2913 19.9644C95.9457 19.8071 95.5684 19.7317 95.1889 19.744C94.7576 19.8655 94.3634 20.0929 94.0423 20.4054C91.3368 22.5649 88.2577 24.2091 84.9582 25.2562C82.7092 25.9617 79.0491 25.7412 77.4175 27.8138C74.1543 32.2236 77.9026 41.6605 80.1515 45.4529" fill="white"/>
<path d="M88.2185 48.1871V47.7021C87.2437 43.4822 86.8138 39.1547 86.9397 34.8255C84.6369 35.8768 82.4246 37.1159 80.325 38.5298L79.8398 37.7801C82.1518 36.1957 84.6194 34.8511 87.2042 33.7672L87.8215 33.4585V34.1641C87.6493 38.4731 88.0347 42.7863 88.9681 46.9965C90.5454 46.3256 92.0279 45.4509 93.3779 44.3948L93.907 45.1004C92.3208 46.2903 90.5865 47.2687 88.7477 48.0108L88.2185 48.1871Z" fill="#13110C"/>
<path d="M83.107 40.7794C82.8004 40.8296 82.4875 40.8296 82.1808 40.7794H81.8281V40.3384V40.0298V39.7652C82.0047 39.466 82.2884 39.2452 82.6219 39.1478C82.7853 39.0627 82.9668 39.0183 83.151 39.0183C83.3352 39.0183 83.5167 39.0627 83.6802 39.1478C83.8079 39.2391 83.9139 39.3577 83.9902 39.495C84.0665 39.6323 84.1112 39.7848 84.1212 39.9415C84.1155 40.2265 84.0114 40.5008 83.8266 40.7179C83.6417 40.9349 83.3875 41.0814 83.107 41.1322H82.7983" fill="#13110C"/>
<path d="M90.4707 31.2986V30.4607C93.2158 29.6754 96.0167 29.1005 98.8492 28.741V29.6228C96.0512 29.9938 93.2815 30.5537 90.559 31.2986" fill="#13110C"/>
<path d="M93.9106 36.5464H93.6019C93.3899 36.4881 93.194 36.3826 93.0287 36.2377H92.7641C92.6522 36.1647 92.5582 36.0673 92.4895 35.9527C92.4207 35.8381 92.3789 35.7094 92.3671 35.5763C92.3229 35.4326 92.3229 35.2789 92.3671 35.1353C92.5208 34.7686 92.8032 34.4706 93.161 34.2974C93.3196 34.2227 93.4928 34.1841 93.6681 34.1841C93.8434 34.1841 94.0165 34.2227 94.1752 34.2974C94.3638 34.3824 94.53 34.5104 94.6602 34.6712C94.7904 34.8321 94.8811 35.0213 94.9249 35.2235C94.9904 35.4102 95.0045 35.6109 94.9657 35.8049C94.9269 35.9989 94.8366 36.1789 94.7043 36.326C94.6063 36.454 94.4791 36.5567 94.3334 36.6257C94.1877 36.6947 94.0277 36.7281 93.8666 36.7229M93.8666 35.444V35.2235V35.444Z" fill="#13110C"/>
<path d="M132.536 159.093C132.536 159.093 130.067 191.284 73.7979 199.354C73.7979 199.354 81.074 258.269 70.0495 278.73L56.8202 281.42L44.3848 189.477L96.7288 153.449C103.814 156.503 111.352 158.38 119.042 159.005C122.967 159.005 129.582 160.548 132.58 159.005" fill="#0095D4"/>
<path d="M91.0885 64.0193L79.4466 73.4561C80.6314 84.6335 80.7938 95.8958 79.9318 107.103C79.0571 118.4 77.3473 129.616 74.8164 140.661C74.8164 140.661 98.9379 164.65 132.408 160.02C132.408 160.02 146.784 71.3395 129.674 64.1515C117.591 59.0362 111.594 57.1399 111.594 57.1399C111.594 57.1399 106.655 73.4562 91.0885 64.0193Z" fill="#9BCEA4"/>
<path d="M12.9903 64.0627C11.6353 64.0734 10.2899 63.8342 9.02155 63.3571C7.16082 62.66 5.48101 61.5528 4.10685 60.1176C2.73269 58.6824 1.69955 56.9561 1.08401 55.0668C-0.00976495 52.403 -0.283537 49.4732 0.297819 46.6529C0.879176 43.8325 2.28915 41.2498 4.3472 39.2356C6.23512 37.9302 8.24339 36.8081 10.3446 35.8843C13.8565 33.5852 16.6886 30.3876 18.5467 26.6237C20.6601 23.0276 23.3575 19.8086 26.5284 17.0986C31.9524 12.9975 38.6112 13.2181 45.0495 13.4385C51.4877 13.659 58.5875 16.4372 63.9674 11.7628C65.2173 10.6145 66.3815 9.37646 67.4511 8.05861C68.3633 6.93463 69.3349 5.86001 70.3615 4.83943C72.7866 2.63077 75.7535 1.10411 78.9604 0.414716C82.1672 -0.274679 85.4996 -0.102255 88.6181 0.914665C91.7765 1.66862 94.7351 3.09512 97.2921 5.0966C99.8492 7.09808 101.944 9.62746 103.435 12.5124C104.493 15.2906 105.596 20.891 103.038 22.7872C100.48 24.6834 98.4078 22.7872 96.3352 22.2139C95.1964 21.7773 93.9729 21.6059 92.758 21.7129C91.5431 21.8199 90.3686 22.2024 89.3236 22.8312C87.2717 24.1394 85.5509 25.9055 84.2964 27.9907C83.4825 29.378 82.4725 30.6404 81.2978 31.7391C79.0047 33.4589 76.0943 33.6793 73.8453 35.5314C72.0179 37.2111 70.4565 39.159 69.215 41.3082C66.5691 45.718 63.9673 50.1278 58.7638 51.3185C56.1888 51.9189 53.5191 51.9938 50.9144 51.5389C48.8859 51.1861 46.9897 50.1719 45.0053 49.8632C43.0903 49.6563 41.1544 49.7605 39.2727 50.1719C34.3209 51.7648 29.7968 54.4642 26.0434 58.0654C22.3794 61.3999 17.7425 63.471 12.814 63.9745" fill="#0095D4"/>
<path d="M90.5117 52.8611V51.9791C92.4786 51.8338 94.3603 51.1182 95.9268 49.9199C97.4932 48.7215 98.6764 47.0925 99.3313 45.2322L100.125 45.4968C99.4393 47.4929 98.1929 49.2492 96.5349 50.5553C94.8769 51.8614 92.8775 52.662 90.7763 52.8611" fill="#13110C"/>
<path d="M52.987 196.93C52.987 196.93 100.524 169.942 92.2781 164.253C84.0318 158.564 51.3996 136.78 48.7978 136.78C46.196 136.78 21.1484 159.094 21.1484 159.094" fill="#CA5098"/>
<path d="M52.0222 194.989C52.0222 194.989 99.5596 167.957 91.3133 162.268C83.067 156.58 50.4347 134.795 47.833 134.795C45.2312 134.795 20.1836 157.109 20.1836 157.109" fill="white"/>
<path d="M44.6019 192.476C44.6019 192.476 80.674 169.236 74.4121 164.297C68.1502 159.358 43.5436 140.661 41.4269 140.661C39.3102 140.661 20.4805 159.887 20.4805 159.887" fill="#142B2A"/>
<path d="M74.1071 171.087L49.3242 150.626L49.6769 150.185L74.4599 170.646L74.1071 171.087Z" fill="white"/>
<path d="M71.4606 175.366L46.6777 154.861L47.0305 154.42L71.8135 174.881L71.4606 175.366Z" fill="white"/>
<path d="M68.7733 179.6L43.9902 159.138L44.3872 158.653L69.126 179.115L68.7733 179.6Z" fill="white"/>
<path d="M65.2458 182.863L40.4629 162.402L40.8598 161.961L65.5987 182.422L65.2458 182.863Z" fill="white"/>
<path d="M54.9742 182.686L54.5332 182.245L74.0685 162.666L74.5095 163.062L54.9742 182.686Z" fill="white"/>
<path d="M51.5316 177.79L51.1348 177.349L69.8763 159.49L70.2732 159.931L51.5316 177.79Z" fill="white"/>
<path d="M51.5316 171.088L51.1348 170.647L65.7751 155.786L66.1721 156.183L51.5316 171.088Z" fill="white"/>
<path d="M52.5894 163.636L52.1484 163.239L61.6736 152.92L62.1146 153.317L52.5894 163.636Z" fill="white"/>
<path d="M12.9947 119.317C12.4112 119.215 11.8126 119.241 11.24 119.392C10.6673 119.544 10.1342 119.817 9.67739 120.195C9.22062 120.572 8.85102 121.043 8.59392 121.577C8.33683 122.111 8.1983 122.694 8.18804 123.286C7.79116 132.106 6.82103 160.857 11.0985 165.84C16.2139 171.749 48.1406 194.724 50.7865 194.945C53.4324 195.165 55.5049 192.564 56.9601 180.481C58.4154 168.398 57.6657 151.729 53.7851 146.526C51.492 143.483 24.5043 121.61 13.083 119.317" fill="#9BCEA4"/>
<path d="M10.8735 121.301C10.2936 121.199 9.69857 121.224 9.12898 121.373C8.55938 121.522 8.0285 121.791 7.57247 122.164C7.11644 122.536 6.74599 123.002 6.48618 123.531C6.22637 124.059 6.08335 124.637 6.06684 125.225C5.62586 134.045 4.65573 162.841 8.97731 167.78C14.0926 173.689 46.0194 196.708 48.6653 196.928C51.3111 197.149 53.3396 194.503 54.8389 182.464C56.3383 170.426 55.5445 153.713 51.6639 148.509C49.3267 145.422 22.3829 123.594 10.9616 121.301" fill="#CA5098"/>
<path d="M32.4811 155.875C32.4382 154.928 32.1867 154.002 31.7446 153.163C31.3024 152.325 30.6806 151.594 29.9235 151.024C29.4828 150.717 28.9895 150.492 28.4682 150.362C27.8027 150.203 27.1103 150.191 26.4397 150.328C25.7692 150.465 25.1368 150.748 24.5876 151.156C23.4594 152.145 22.7239 153.507 22.515 154.993C22.3379 156.233 22.5692 157.498 23.1737 158.596C23.7783 159.693 24.7233 160.565 25.8664 161.078C27.0235 161.506 28.2988 161.485 29.4413 161.02C30.5838 160.555 31.5108 159.679 32.0401 158.565C32.3857 157.712 32.5364 156.793 32.4811 155.875Z" fill="white"/>
<path d="M98.3183 159.799C97.8836 159.717 97.4708 159.545 97.1063 159.295C96.7418 159.044 96.4337 158.72 96.2017 158.344L90.6895 151.685L91.0422 151.42C102.455 141.903 110.586 129.036 114.282 114.643C115.72 108.734 116.781 102.739 117.457 96.6948C118.241 91.8539 118.639 86.9585 118.647 82.0545C118.647 81.2607 118.647 80.4669 118.647 79.629C118.211 76.1599 118.542 72.6371 119.618 69.3102C120.086 67.8637 120.982 66.5927 122.186 65.6641C123.39 64.7355 124.846 64.1926 126.365 64.1067C129.683 64.3567 132.892 65.4056 135.718 67.164C138.544 68.9223 140.902 71.3381 142.592 74.2051C145.351 79.9305 146.275 86.3678 145.238 92.6379C144.244 98.7269 142.45 104.658 139.902 110.277C135.893 120.529 130.556 130.21 124.027 139.073C117.775 147.714 109.45 154.645 99.8176 159.226C99.4178 159.424 98.9838 159.544 98.5388 159.578M91.9242 151.597L96.8631 157.506C97.2288 158.093 97.7915 158.531 98.4506 158.74C98.8202 158.708 99.1799 158.603 99.509 158.432C109.023 153.901 117.254 147.065 123.454 138.544C129.912 129.721 135.203 120.102 139.197 109.924C141.72 104.299 143.498 98.3697 144.489 92.2851C145.471 86.1915 144.563 79.9433 141.887 74.3814C140.259 71.6548 138.007 69.3536 135.316 67.667C132.625 65.9804 129.572 64.9567 126.409 64.68C125.034 64.7518 123.714 65.2423 122.627 66.0857C121.539 66.9291 120.735 68.0851 120.323 69.3984H119.97H120.323C119.323 72.6045 119.008 75.9848 119.397 79.3204C119.397 80.1583 119.397 80.952 119.397 81.7899C119.401 86.7365 119.018 91.6757 118.251 96.5625C117.539 102.633 116.464 108.656 115.031 114.599C111.329 129.028 103.221 141.945 91.8359 151.552" fill="#13110C"/>
<path d="M43.1504 301L55.145 282.964L71.4169 279.745L72.8281 291.343L65.7284 294.253L65.1993 291.431L43.1504 301ZM55.6741 283.758L45.5316 298.972L65.8166 290.152L66.3457 292.974L71.9021 290.725L70.6673 280.759L55.6741 283.758Z" fill="#13110C"/>
<path d="M24.9375 286.36L33.4042 270.441L49.3235 266.692L50.5141 277.276L44.8696 278.863V275.644C42.5765 276.658 32.7868 281.994 26.2604 285.654L24.9375 286.36ZM33.757 271.234L26.966 284.155C44.6051 274.277 45.1342 274.498 45.3988 274.63V277.585L49.1913 276.482L48.2211 267.663L33.757 271.234Z" fill="#13110C"/>
<path d="M125.574 205.131L132.542 287.55H139.068L143.213 204.514C137.657 204.955 131.748 205.175 125.574 205.131Z" fill="#CA5098"/>
<path d="M158.158 202.53V234.148H164.023L169.271 199.751C165.623 200.89 161.913 201.817 158.158 202.53Z" fill="#CA5098"/>
<path d="M85.084 201.251L87.9945 255.623H94.3004L97.4754 203.235C93.0657 202.662 89.0528 202.001 85.084 201.251Z" fill="#CA5098"/>
</svg>
