<svg width="250" height="223" viewBox="0 0 250 223" fill="none" xmlns="http://www.w3.org/2000/svg">
<path d="M174.974 17.6133C183.479 18.1489 192.594 20.1964 198.018 26.5911C203.956 33.5528 203.892 43.4756 207.037 51.7919C210.76 61.8407 218.912 69.5899 226.84 76.9927C234.768 84.3954 242.888 91.9556 247.06 101.878C251.232 111.801 249.596 124.717 240.641 130.859C233.548 135.71 224.144 135.112 215.478 135.521C202.303 136.165 189.426 139.604 177.734 145.602C166.308 151.461 155.781 159.903 143.007 161.825C124.456 164.597 107.124 153.004 92.1039 142.042C86.8724 138.199 81.4162 134.104 78.9128 128.245C76.6661 122.921 77.1475 116.936 76.1847 111.297C72.4616 88.9315 42.8055 53.6504 79.0411 40.357C91.8792 35.6634 105.327 32.7023 118.23 27.7567C136.299 20.984 155.46 16.1643 174.974 17.4243" fill="#142B2A"/>
<path d="M156.358 184.977C156.358 184.977 157.77 205.516 159.215 213.139L163.419 213.423C163.419 213.423 168.009 195.908 169.678 186.174C165.202 186.749 160.653 186.34 156.358 184.977Z" fill="#0095D4"/>
<path d="M170.67 185.796L173.559 215.722L178.02 216.541C180.341 205.602 181.992 194.536 182.963 183.402L170.67 185.796Z" fill="#0095D4"/>
<path d="M160.529 67.6367C159.336 69.8228 158.347 72.1107 157.576 74.4724C156.792 76.8516 156.626 79.3856 157.095 81.8437C157.209 82.5509 157.496 83.2206 157.929 83.7967C158.407 84.2965 159.022 84.6491 159.7 84.8113C160.378 84.9735 161.09 84.9383 161.748 84.7102C163.067 84.2482 164.24 83.4555 165.15 82.4107C167.244 80.2996 168.949 77.8482 170.189 75.1654" fill="#E3E3E3"/>
<path d="M168.2 78.6309L170.607 94.5074L165.857 101.312L160.305 100.493L159.888 95.3579L162.327 81.0879" fill="#E3E3E3"/>
<path d="M167.591 77.8744C167.336 77.3997 167.012 76.9645 166.628 76.5828C164.866 74.5591 163.574 72.1837 162.841 69.6212L159.118 70.4401C158.636 67.479 158.123 64.518 157.641 61.5254C161.125 62.6996 164.75 63.4198 168.425 63.6674C172.154 63.9491 175.617 65.6712 178.054 68.4556C178.99 69.833 179.568 71.4151 179.736 73.0629C179.904 74.7107 179.657 76.3738 179.017 77.9059C178.366 79.6176 177.325 81.1605 175.973 82.4163C174.621 83.6721 172.995 84.6076 171.217 85.1511C166.628 86.0016 168.65 80.4259 167.559 77.9374" fill="#0095D4"/>
<path d="M134.854 76.6152C134.854 76.6152 134.148 122.985 151.833 136.908V185.325C164.204 188.255 177.109 188.255 189.48 185.325C189.48 185.325 186.078 148.406 185.982 148.563C198.82 108.274 171.668 91.8617 171.668 91.8617C169.838 93.9502 167.669 95.7276 165.249 97.1223C163.58 97.9413 160.434 97.4688 159.953 95.3898L147.66 104.62L142.942 80.1433" fill="#CA5098"/>
<path d="M179.944 163.432C179.997 163.445 180.052 163.445 180.105 163.432C182.491 158.706 184.508 153.809 186.139 148.784C186.16 148.717 186.156 148.644 186.126 148.58C186.097 148.516 186.044 148.465 185.978 148.437C185.944 148.428 185.909 148.425 185.874 148.43C185.84 148.434 185.806 148.446 185.776 148.464C185.746 148.481 185.72 148.505 185.699 148.533C185.679 148.561 185.665 148.593 185.657 148.626C184.041 153.526 182.067 158.306 179.752 162.928L173.654 159.274L174.648 129.222C174.629 129.166 174.592 129.118 174.543 129.084C174.494 129.05 174.436 129.031 174.376 129.031C174.316 129.031 174.257 129.05 174.208 129.084C174.159 129.118 174.123 129.166 174.103 129.222L173.14 159.463C173.12 159.496 173.11 159.534 173.11 159.573C173.11 159.611 173.12 159.65 173.14 159.683L179.559 163.558" fill="white"/>
<path d="M134.85 76.6143L142.874 80.1108L147.592 104.587L159.885 95.3573C154.824 108.669 152.121 122.732 151.893 136.939C134.209 123.015 134.915 76.6457 134.915 76.6457" fill="#9BCEA4"/>
<path d="M119.705 57.9668L147.853 69.9687C147.853 69.9687 151.319 73.5913 149.618 76.9619C148.894 78.0448 147.95 78.97 146.846 79.6799C145.741 80.3898 144.5 80.8692 143.199 81.0885L113.768 70.2837L119.705 57.9668Z" fill="#CA5098"/>
<path d="M72.424 34.1504L117.871 54.374C119.069 55.9197 119.865 57.7289 120.189 59.6446C120.513 61.5604 120.357 63.5249 119.733 65.3678C118.364 68.5747 115.772 71.1296 112.511 72.4871L64.9137 55.004L72.424 34.1504Z" fill="#0095D4"/>
<path d="M70.088 28.7647C70.088 28.7647 81.6743 47.0037 62.8023 57.1155L5.70479 43.6331L20.2118 3.62695L70.088 28.7647Z" fill="#CA5098"/>
<path d="M28.8421 20.3539C28.2323 31.5368 21.043 42.5936 10.4195 46.0272C9.15568 46.5161 7.7826 46.6682 6.43958 46.4683C3.61519 45.8382 2.07463 42.8141 1.33643 40.1681C-1.35957 30.3083 1.3364 19.724 5.31622 10.3997C6.42137 7.46108 8.21319 4.81771 10.5478 2.68191C22.5193 -6.76837 29.3557 11.0612 28.8421 20.5115" fill="#CA5098"/>
<path d="M127.184 146.389C127.249 146.368 127.304 146.324 127.34 146.266C127.375 146.209 127.388 146.141 127.377 146.074L109.532 64.4236C109.546 64.3855 109.551 64.3446 109.546 64.3042C109.541 64.2639 109.526 64.2254 109.502 64.192C109.478 64.1587 109.447 64.1315 109.41 64.1126C109.373 64.0938 109.333 64.084 109.291 64.084C109.25 64.084 109.209 64.0938 109.172 64.1126C109.136 64.1315 109.104 64.1587 109.08 64.192C109.057 64.2254 109.042 64.2639 109.036 64.3042C109.031 64.3446 109.036 64.3855 109.05 64.4236L126.863 146.074C126.871 146.135 126.902 146.192 126.949 146.232C126.996 146.273 127.057 146.295 127.12 146.295" fill="white"/>
<path d="M90.8181 127.866C90.8764 127.868 90.9336 127.85 90.9803 127.816C91.0269 127.781 91.0602 127.732 91.0748 127.677L105.871 64.3915C105.887 64.3586 105.894 64.3224 105.892 64.2861C105.891 64.2498 105.88 64.2144 105.861 64.1832C105.842 64.152 105.815 64.126 105.783 64.1074C105.751 64.0887 105.715 64.0781 105.678 64.0764C105.644 64.072 105.61 64.0742 105.577 64.083C105.544 64.0917 105.514 64.1068 105.487 64.1273C105.46 64.1478 105.437 64.1734 105.421 64.2025C105.404 64.2317 105.393 64.2638 105.389 64.297L90.5613 127.551C90.5518 127.584 90.5492 127.619 90.5538 127.653C90.5584 127.687 90.5701 127.72 90.5882 127.749C90.6062 127.779 90.6302 127.804 90.6587 127.824C90.6872 127.844 90.7196 127.859 90.7539 127.866" fill="white"/>
<path d="M106.607 127.866C106.646 127.888 106.69 127.9 106.735 127.9C106.78 127.9 106.825 127.888 106.864 127.866L107.795 65.7149C107.799 65.6834 107.797 65.6514 107.788 65.6209C107.778 65.5904 107.763 65.5621 107.741 65.5382C107.72 65.5142 107.694 65.4951 107.664 65.4821C107.634 65.4691 107.602 65.4626 107.57 65.4629C107.534 65.4584 107.497 65.4616 107.462 65.4722C107.427 65.4829 107.395 65.5008 107.367 65.5246C107.34 65.5485 107.318 65.5777 107.303 65.6106C107.288 65.6434 107.281 65.679 107.281 65.7149L106.35 127.866C106.35 127.866 106.35 128.118 106.607 128.118V127.866Z" fill="white"/>
<path d="M20.9141 20.1651C19.9512 28.0403 15.2974 36.1046 9.07089 39.0657C8.38605 39.4693 7.58716 39.646 6.79215 39.5697C5.21948 39.2862 4.51332 37.2701 4.22446 35.3801C3.63185 28.1639 4.97065 20.921 8.10807 14.3689C8.80764 12.3082 9.89646 10.3953 11.3176 8.73025C18.6353 1.42203 21.556 13.5499 20.7536 20.1336" fill="#0095D4"/>
<path d="M159.307 79.1668C159.343 79.1816 159.381 79.1891 159.42 79.1891C159.458 79.1891 159.497 79.1816 159.532 79.1668C159.574 79.1123 159.596 79.046 159.596 78.9778C159.596 78.9097 159.574 78.8434 159.532 78.7888L159.275 78.5997C159.275 78.5997 159.275 78.5997 159.115 78.5997L158.441 78.1272C158.874 76.6753 159.655 75.3466 160.72 74.2527C160.747 74.229 160.769 74.1999 160.784 74.1673C160.799 74.1347 160.807 74.0994 160.807 74.0637C160.807 74.0279 160.799 73.9925 160.784 73.96C160.769 73.9274 160.747 73.8982 160.72 73.8746C160.672 73.8303 160.609 73.8057 160.543 73.8057C160.477 73.8057 160.414 73.8303 160.367 73.8746C159.167 75.072 158.314 76.5618 157.895 78.1903C157.866 78.2321 157.851 78.2814 157.851 78.332C157.851 78.3826 157.866 78.432 157.895 78.4738L159.115 79.2928" fill="#13110C"/>
<path d="M158.44 81.5919L160.237 81.2139C160.449 81.1797 160.654 81.1161 160.847 81.0249C160.909 80.9922 160.958 80.9406 160.987 80.8781C161.016 80.8155 161.023 80.7453 161.008 80.6783C160.96 80.634 160.897 80.6094 160.831 80.6094C160.766 80.6094 160.702 80.634 160.655 80.6783H160.109L158.312 81.0564C158.277 81.0637 158.245 81.0778 158.217 81.0978C158.188 81.1179 158.164 81.1435 158.146 81.173C158.128 81.2025 158.116 81.2353 158.112 81.2694C158.107 81.3035 158.11 81.3382 158.119 81.3713C158.127 81.4326 158.158 81.4889 158.205 81.5296C158.252 81.5702 158.313 81.5923 158.376 81.5919" fill="#13110C"/>
<path d="M174.781 160.154C173.491 161.464 172.505 163.033 171.893 164.753L178.312 165.1L179.307 162.611L174.781 160.154Z" fill="white"/>
<path d="M181.935 175.119C169.257 173.67 169.482 164.377 169.482 164.377H182.994" fill="#9BCEA4"/>
<path d="M173.172 217.33H177.922C177.922 217.33 178.147 217.834 178.371 218.527C178.864 219.971 178.92 221.525 178.532 223H176.606L175.739 221.267C172.97 222.16 170.106 222.742 167.202 223C165.597 222.717 173.172 217.235 173.172 217.235" fill="#142B2A"/>
<path d="M158.796 214.43H163.514C163.514 214.43 163.739 214.934 163.964 215.627C164.455 217.071 164.522 218.621 164.156 220.101H162.198L161.332 218.368C158.568 219.241 155.717 219.822 152.827 220.101C151.19 219.817 158.796 214.336 158.796 214.336" fill="#142B2A"/>
<path d="M162.074 78.5045C162.36 78.5136 162.645 78.4598 162.908 78.347C163.4 78.1516 163.847 77.8626 164.224 77.4965C164.647 77.1714 164.924 76.6963 164.994 76.1734C164.98 75.925 164.926 75.6804 164.834 75.4489C164.513 74.7873 163.518 73.5273 162.555 73.5273C161.592 73.5273 160.34 75.1339 160.212 76.1419C160.143 76.5634 160.204 76.9956 160.387 77.3829C160.57 77.7701 160.867 78.0948 161.239 78.3155C161.498 78.4413 161.784 78.506 162.074 78.5045ZM164.288 75.7009C164.312 75.847 164.312 75.9958 164.288 76.1419C164.288 76.4884 163.967 76.8034 163.71 77.0554C163.392 77.3721 163.009 77.619 162.587 77.78C162.399 77.8588 162.197 77.8995 161.993 77.8995C161.789 77.8995 161.587 77.8588 161.399 77.78C161.144 77.6169 160.944 77.3832 160.824 77.1085C160.704 76.8338 160.67 76.5302 160.726 76.2364C160.726 75.4174 161.656 74.1574 162.459 74.1574C163.068 74.1574 163.903 75.0709 164.192 75.7009" fill="#CA5098"/>
<path d="M172.596 77.8125L173.109 77.4975L172.05 75.8594C171.973 75.7174 171.849 75.6061 171.697 75.5445C171.652 75.5223 171.603 75.5107 171.553 75.5107C171.503 75.5107 171.453 75.5223 171.408 75.5445C169.137 75.6422 166.875 75.8842 164.636 76.2689V76.8675C166.854 76.4844 169.095 76.2424 171.344 76.1429L172.596 77.8125Z" fill="#CA5098"/>
<path d="M160.531 75.7951L160.852 75.291L158.83 73.9365L158.509 74.4406L160.531 75.7951Z" fill="#CA5098"/>
<path d="M214.513 101.123C214.527 101.267 214.509 101.412 214.459 101.548C214.409 101.685 214.329 101.808 214.224 101.91C214.163 101.98 214.086 102.034 213.999 102.068C213.898 102.129 213.781 102.161 213.662 102.161C213.543 102.161 213.427 102.129 213.325 102.068C213.156 101.875 213.065 101.629 213.069 101.375C213.05 101.292 213.05 101.206 213.069 101.123C213.115 100.974 213.208 100.844 213.335 100.752C213.462 100.659 213.616 100.609 213.775 100.609C213.933 100.609 214.087 100.659 214.214 100.752C214.341 100.844 214.435 100.974 214.481 101.123" fill="white"/>
<path d="M199.43 95.137C199.442 95.2761 199.422 95.416 199.372 95.5468C199.322 95.6775 199.244 95.7958 199.141 95.893H198.949C198.848 95.9544 198.731 95.9869 198.612 95.9869C198.493 95.9869 198.376 95.9544 198.275 95.893C198.18 95.8041 198.105 95.6963 198.055 95.5769C198.005 95.4574 197.982 95.329 197.986 95.2C197.968 95.117 197.968 95.031 197.986 94.948C198.047 94.8017 198.155 94.679 198.293 94.5984C198.431 94.5178 198.593 94.4839 198.753 94.5017C198.913 94.5195 199.062 94.5881 199.179 94.6971C199.295 94.8061 199.372 94.9496 199.398 95.1055" fill="white"/>
<path d="M200.167 121.03C200.178 121.169 200.159 121.309 200.109 121.44C200.059 121.571 199.98 121.689 199.878 121.786C199.817 121.856 199.74 121.91 199.653 121.944C199.557 122.018 199.438 122.058 199.316 122.058C199.194 122.058 199.075 122.018 198.979 121.944C198.81 121.751 198.719 121.505 198.722 121.251C198.707 121.167 198.707 121.082 198.722 120.999C198.783 120.853 198.891 120.73 199.029 120.649C199.168 120.569 199.329 120.535 199.489 120.552C199.649 120.57 199.799 120.639 199.915 120.748C200.032 120.857 200.109 121 200.135 121.156" fill="white"/>
<path d="M211.625 85.7506C211.633 85.8941 211.612 86.0379 211.562 86.1732C211.513 86.3085 211.436 86.4326 211.336 86.5381L211.144 86.6956C211.042 86.7569 210.926 86.7894 210.807 86.7894C210.688 86.7894 210.571 86.7569 210.47 86.6956C210.375 86.5996 210.301 86.4862 210.251 86.3618C210.202 86.2374 210.178 86.1046 210.181 85.9711C210.165 85.8984 210.165 85.8233 210.181 85.7506C210.227 85.6021 210.321 85.472 210.448 85.3796C210.575 85.2872 210.729 85.2373 210.887 85.2373C211.045 85.2373 211.199 85.2872 211.326 85.3796C211.453 85.472 211.547 85.6021 211.593 85.7506" fill="white"/>
<path d="M190.924 75.8263C190.936 75.9654 190.916 76.1054 190.866 76.2361C190.817 76.3668 190.738 76.485 190.636 76.5823L190.443 76.7713C190.342 76.8326 190.225 76.8651 190.106 76.8651C189.987 76.8651 189.87 76.8326 189.769 76.7713C189.581 76.5755 189.477 76.3158 189.48 76.0467C189.464 75.9634 189.464 75.878 189.48 75.7947C189.541 75.6485 189.649 75.5257 189.787 75.4451C189.926 75.3645 190.087 75.3305 190.247 75.3484C190.407 75.3662 190.557 75.4349 190.673 75.5439C190.79 75.6529 190.867 75.7963 190.892 75.9522" fill="white"/>
<path d="M227.864 118.069C227.876 118.209 227.856 118.348 227.806 118.479C227.756 118.61 227.677 118.728 227.575 118.825C227.514 118.895 227.437 118.949 227.35 118.983C227.257 119.049 227.145 119.085 227.029 119.085C226.914 119.085 226.802 119.049 226.708 118.983C226.613 118.894 226.538 118.786 226.488 118.667C226.439 118.547 226.415 118.419 226.42 118.29C226.404 118.207 226.404 118.121 226.42 118.038C226.48 117.892 226.588 117.769 226.727 117.688C226.865 117.608 227.027 117.574 227.187 117.592C227.346 117.609 227.496 117.678 227.612 117.787C227.729 117.896 227.806 118.039 227.832 118.195" fill="white"/>
<path d="M198.693 56.7681C198.716 56.9099 198.705 57.0552 198.661 57.192C198.616 57.3288 198.539 57.4534 198.436 57.5556H198.212C198.11 57.6169 197.994 57.6494 197.875 57.6494C197.756 57.6494 197.639 57.6169 197.538 57.5556C197.357 57.3551 197.255 57.0985 197.249 56.8311C197.235 56.7582 197.235 56.6835 197.249 56.6106C197.283 56.4559 197.37 56.3173 197.496 56.218C197.621 56.1186 197.778 56.0645 197.939 56.0645C198.1 56.0645 198.257 56.1186 198.382 56.218C198.508 56.3173 198.595 56.4559 198.629 56.6106" fill="white"/>
<path d="M168.717 41.1131C168.729 41.257 168.71 41.4018 168.66 41.5377C168.61 41.6735 168.531 41.7973 168.428 41.9006C168.354 41.9151 168.278 41.9151 168.204 41.9006C168.102 41.962 167.986 41.9944 167.867 41.9944C167.748 41.9944 167.631 41.962 167.53 41.9006C167.361 41.6957 167.27 41.4395 167.273 41.1761C167.257 41.1034 167.257 41.0283 167.273 40.9556C167.319 40.8071 167.413 40.6771 167.54 40.5847C167.667 40.4923 167.821 40.4424 167.979 40.4424C168.137 40.4424 168.291 40.4923 168.418 40.5847C168.545 40.6771 168.639 40.8071 168.685 40.9556" fill="white"/>
<path d="M183.697 33.1741C183.72 33.3159 183.709 33.4611 183.665 33.598C183.62 33.7348 183.543 33.8594 183.44 33.9616L183.216 34.1191C183.114 34.1804 182.998 34.2129 182.879 34.2129C182.76 34.2129 182.643 34.1804 182.542 34.1191C182.361 33.9186 182.259 33.6619 182.253 33.3945C182.239 33.3217 182.239 33.2469 182.253 33.1741C182.287 33.0194 182.374 32.8809 182.5 32.7815C182.625 32.6821 182.782 32.6279 182.943 32.6279C183.104 32.6279 183.261 32.6821 183.386 32.7815C183.512 32.8809 183.599 33.0194 183.633 33.1741" fill="white"/>
<path d="M143.036 29.3323C143.046 29.4687 143.029 29.6057 142.985 29.7355C142.941 29.8652 142.871 29.9851 142.78 30.0884H142.555C142.455 30.1534 142.338 30.188 142.218 30.188C142.098 30.188 141.981 30.1534 141.881 30.0884C141.786 29.9994 141.711 29.8917 141.661 29.7722C141.611 29.6528 141.588 29.5243 141.592 29.3953C141.576 29.312 141.576 29.2266 141.592 29.1433C141.653 28.997 141.761 28.8742 141.899 28.7937C142.038 28.7131 142.199 28.6792 142.359 28.697C142.519 28.7149 142.669 28.7835 142.785 28.8925C142.902 29.0015 142.979 29.1449 143.004 29.3008" fill="white"/>
<path d="M121.153 40.325C121.165 40.4689 121.145 40.6137 121.095 40.7496C121.046 40.8855 120.967 41.0092 120.864 41.1125C120.79 41.127 120.713 41.127 120.639 41.1125C120.543 41.1711 120.432 41.2021 120.318 41.2021C120.205 41.2021 120.094 41.1711 119.997 41.1125C119.903 41.0166 119.828 40.9031 119.779 40.7787C119.729 40.6543 119.705 40.5215 119.708 40.388C119.693 40.3153 119.693 40.2402 119.708 40.1675C119.755 40.019 119.848 39.889 119.975 39.7966C120.102 39.7042 120.256 39.6543 120.415 39.6543C120.573 39.6543 120.727 39.7042 120.854 39.7966C120.981 39.889 121.074 40.019 121.121 40.1675" fill="white"/>
<path d="M85.0434 71.1655C85.0555 71.3094 85.0359 71.4543 84.9861 71.5901C84.9362 71.726 84.8573 71.8497 84.7544 71.953C84.6936 72.0226 84.6166 72.0766 84.5298 72.1105C84.4285 72.1718 84.3118 72.2043 84.1928 72.2043C84.0738 72.2043 83.9571 72.1718 83.8558 72.1105C83.687 71.9056 83.5963 71.6495 83.5991 71.386C83.5835 71.3133 83.5835 71.2382 83.5991 71.1655C83.6452 71.017 83.7387 70.8869 83.8659 70.7945C83.993 70.7021 84.147 70.6523 84.3052 70.6523C84.4633 70.6523 84.6173 70.7021 84.7444 70.7945C84.8716 70.8869 84.9651 71.017 85.0113 71.1655" fill="white"/>
<path d="M79.2323 86.5381C79.2556 86.6751 79.2444 86.8157 79.1996 86.9475C79.1549 87.0793 79.0779 87.1983 78.9754 87.2941C78.9754 87.2941 78.8149 87.2941 78.7508 87.4831C78.6354 87.5271 78.5091 87.5356 78.3887 87.5074C78.2684 87.4793 78.1596 87.4159 78.0768 87.3257C77.9815 87.2367 77.9065 87.1289 77.8567 87.0095C77.8069 86.89 77.7835 86.7616 77.7879 86.6326C77.7879 86.6326 77.7879 86.4751 77.7879 86.3806C77.8487 86.2343 77.9566 86.1116 78.095 86.031C78.2334 85.9505 78.3949 85.9165 78.5549 85.9343C78.7148 85.9522 78.8643 86.0208 78.9808 86.1298C79.0973 86.2388 79.1743 86.3822 79.2001 86.5381" fill="white"/>
<path d="M93.3873 81.1191C93.3991 81.2583 93.3793 81.3982 93.3294 81.529C93.2794 81.6597 93.2005 81.7779 93.0985 81.8751L92.9059 82.0327C92.8098 82.1068 92.6912 82.147 92.569 82.147C92.4468 82.147 92.3281 82.1068 92.232 82.0327C92.1367 81.9438 92.0617 81.836 92.0119 81.7165C91.9621 81.5971 91.9386 81.4687 91.9431 81.3397C91.9274 81.2564 91.9274 81.1709 91.9431 81.0876C92.0039 80.9413 92.1117 80.8185 92.2502 80.738C92.3886 80.6574 92.55 80.6235 92.7099 80.6414C92.8699 80.6592 93.0195 80.7278 93.136 80.8368C93.2525 80.9458 93.3295 81.0892 93.3553 81.2452" fill="white"/>
<path d="M150.866 57.7456C150.878 57.8895 150.858 58.0343 150.808 58.1702C150.759 58.3061 150.68 58.4299 150.577 58.5332L150.384 58.6907C150.283 58.752 150.166 58.7845 150.047 58.7845C149.928 58.7845 149.812 58.752 149.71 58.6907C149.618 58.5995 149.545 58.4913 149.495 58.3724C149.446 58.2534 149.421 58.1261 149.421 57.9976C149.403 57.9146 149.403 57.8287 149.421 57.7456C149.468 57.5971 149.561 57.4671 149.688 57.3747C149.815 57.2823 149.969 57.2324 150.128 57.2324C150.286 57.2324 150.44 57.2823 150.567 57.3747C150.694 57.4671 150.787 57.5971 150.834 57.7456" fill="white"/>
<path d="M132.541 56.7693C132.564 56.9111 132.553 57.0564 132.508 57.1933C132.464 57.3301 132.387 57.4546 132.284 57.5568H132.059C131.958 57.6182 131.841 57.6507 131.722 57.6507C131.603 57.6507 131.487 57.6182 131.385 57.5568C131.291 57.4609 131.217 57.3474 131.167 57.2231C131.117 57.0987 131.093 56.9658 131.097 56.8323C131.097 56.8323 131.097 56.6748 131.097 56.6118C131.143 56.4633 131.236 56.3333 131.363 56.2409C131.49 56.1485 131.644 56.0986 131.803 56.0986C131.961 56.0986 132.115 56.1485 132.242 56.2409C132.369 56.3333 132.463 56.4633 132.509 56.6118" fill="white"/>
<path d="M151.608 87.3242C151.62 87.4634 151.6 87.6033 151.55 87.734C151.5 87.8648 151.421 87.983 151.319 88.0802C151.258 88.1498 151.181 88.2039 151.095 88.2378C151.003 88.3093 150.89 88.3483 150.774 88.3483C150.657 88.3483 150.544 88.3093 150.453 88.2378C150.357 88.1488 150.282 88.041 150.232 87.9216C150.183 87.8021 150.159 87.6737 150.164 87.5447C150.148 87.4615 150.148 87.376 150.164 87.2927C150.224 87.1464 150.332 87.0236 150.471 86.9431C150.609 86.8625 150.771 86.8286 150.931 86.8464C151.091 86.8643 151.24 86.9329 151.357 87.0419C151.473 87.1509 151.55 87.2943 151.576 87.4502" fill="white"/>
<path d="M175.614 55.9812C175.626 56.1251 175.606 56.27 175.556 56.4058C175.507 56.5417 175.428 56.6654 175.325 56.7687C175.251 56.7832 175.174 56.7832 175.1 56.7687C174.999 56.8301 174.882 56.8626 174.763 56.8626C174.644 56.8626 174.527 56.8301 174.426 56.7687C174.257 56.5763 174.166 56.3298 174.169 56.0758C174.151 55.9927 174.151 55.9068 174.169 55.8238C174.216 55.6752 174.309 55.5452 174.436 55.4528C174.563 55.3604 174.717 55.3105 174.875 55.3105C175.034 55.3105 175.188 55.3604 175.315 55.4528C175.442 55.5452 175.535 55.6752 175.582 55.8238" fill="white"/>
<path d="M128.63 86.5381C128.641 86.6773 128.621 86.8172 128.572 86.9479C128.522 87.0787 128.443 87.1969 128.341 87.2941L128.148 87.4831C128.033 87.5271 127.906 87.5356 127.786 87.5074C127.666 87.4793 127.557 87.4159 127.474 87.3257C127.379 87.2367 127.304 87.1289 127.254 87.0095C127.204 86.89 127.181 86.7616 127.185 86.6326C127.17 86.5493 127.17 86.4639 127.185 86.3806C127.246 86.2343 127.354 86.1116 127.492 86.031C127.631 85.9505 127.792 85.9165 127.952 85.9343C128.112 85.9522 128.262 86.0208 128.378 86.1298C128.495 86.2388 128.572 86.3822 128.597 86.5381" fill="white"/>
<path d="M137.681 127.52C137.695 127.664 137.677 127.81 137.627 127.946C137.577 128.082 137.497 128.206 137.392 128.308L137.199 128.465C137.098 128.526 136.981 128.559 136.862 128.559C136.743 128.559 136.627 128.526 136.525 128.465C136.43 128.376 136.355 128.268 136.305 128.149C136.255 128.029 136.232 127.901 136.237 127.772C136.221 127.689 136.221 127.603 136.237 127.52C136.283 127.372 136.376 127.242 136.503 127.149C136.63 127.057 136.784 127.007 136.943 127.007C137.101 127.007 137.255 127.057 137.382 127.149C137.509 127.242 137.603 127.372 137.649 127.52" fill="white"/>
<path d="M124.583 106.668C124.594 106.807 124.575 106.947 124.525 107.078C124.475 107.208 124.396 107.327 124.294 107.424C124.238 107.494 124.173 107.558 124.101 107.613C124 107.674 123.883 107.707 123.764 107.707C123.645 107.707 123.529 107.674 123.427 107.613C123.239 107.417 123.136 107.157 123.138 106.888C123.123 106.805 123.123 106.72 123.138 106.636C123.185 106.488 123.278 106.358 123.405 106.265C123.532 106.173 123.686 106.123 123.845 106.123C124.003 106.123 124.157 106.173 124.284 106.265C124.411 106.358 124.504 106.488 124.551 106.636" fill="white"/>
<path d="M161.648 75.6689H161.841H162.066C162.066 75.6689 162.227 75.6689 162.259 75.6689C162.314 75.7479 162.344 75.8415 162.344 75.9372C162.344 76.033 162.314 76.1265 162.259 76.2054C162.274 76.2783 162.274 76.3534 162.259 76.4263C162.164 76.4728 162.055 76.4823 161.954 76.453C161.853 76.4237 161.766 76.3578 161.712 76.2685C161.65 76.1866 161.616 76.0869 161.616 75.9845C161.616 75.8821 161.65 75.7825 161.712 75.7005" fill="#13110C"/>
<path d="M158.057 73.4957C158.109 73.4824 158.165 73.4824 158.217 73.4957H158.474C158.537 73.4741 158.605 73.4741 158.667 73.4957C158.715 73.583 158.74 73.6806 158.74 73.7797C158.74 73.8788 158.715 73.9765 158.667 74.0638C158.637 74.1314 158.588 74.1889 158.525 74.2292C158.462 74.2696 158.389 74.2911 158.314 74.2911C158.239 74.2911 158.165 74.2696 158.102 74.2292C158.04 74.1889 157.99 74.1314 157.96 74.0638C157.906 73.9786 157.877 73.8801 157.877 73.7797C157.877 73.6793 157.906 73.5809 157.96 73.4957" fill="#13110C"/>
<path d="M163.578 76.6781C163.613 76.6678 163.646 76.6502 163.673 76.6265C163.701 76.6028 163.723 76.5735 163.739 76.5407C163.754 76.5078 163.762 76.4722 163.762 76.4361C163.762 76.4 163.754 76.3644 163.738 76.3316C163.645 75.9801 163.477 75.6522 163.245 75.3697C163.012 75.0872 162.721 74.8567 162.39 74.6935C162.369 74.6673 162.343 74.6461 162.312 74.6316C162.281 74.617 162.248 74.6094 162.214 74.6094C162.18 74.6094 162.146 74.617 162.116 74.6316C162.085 74.6461 162.058 74.6673 162.037 74.6935C161.996 74.748 161.973 74.8143 161.973 74.8825C161.973 74.9506 161.996 75.017 162.037 75.0715C162.301 75.2041 162.531 75.3911 162.714 75.6194C162.897 75.8478 163.027 76.1122 163.096 76.3946C163.111 76.45 163.144 76.4989 163.191 76.5333C163.238 76.5676 163.295 76.5854 163.353 76.5836" fill="#13110C"/>
<path d="M158.219 72.4561C158.696 72.4548 159.171 72.5184 159.631 72.6451C159.703 72.667 159.763 72.7154 159.799 72.78C159.835 72.8447 159.844 72.9205 159.823 72.9915C159.809 73.047 159.776 73.096 159.729 73.1304C159.682 73.1647 159.625 73.1824 159.567 73.1806C159.088 73.0408 158.59 72.9769 158.09 72.9915C158.144 72.8097 158.209 72.6309 158.283 72.4561" fill="#13110C"/>
<path d="M156.678 75.9519C157.282 75.9089 157.846 75.638 158.251 75.1959C158.621 74.8614 158.91 74.4506 159.099 73.9931C159.288 73.5356 159.371 73.0427 159.342 72.5499C159.284 72.2463 159.152 71.9613 158.956 71.7196C158.76 71.478 158.507 71.2872 158.219 71.1638C158.002 71.048 157.759 70.9873 157.513 70.9873C157.266 70.9873 157.023 71.048 156.807 71.1638C156.377 71.4081 156.002 71.7349 155.705 72.1246C155.407 72.5143 155.192 72.9589 155.073 73.4319C154.925 73.9254 154.925 74.4504 155.073 74.944C155.16 75.2079 155.315 75.4453 155.523 75.6329C155.732 75.8206 155.986 75.9523 156.261 76.015H156.518M157.673 74.8179C157.517 75.0121 157.317 75.1674 157.088 75.2714C156.859 75.3754 156.609 75.4251 156.357 75.4165C156.19 75.3602 156.038 75.269 155.911 75.1494C155.783 75.0298 155.684 74.8845 155.619 74.7234C155.507 74.3535 155.507 73.9593 155.619 73.5893C155.817 72.8096 156.31 72.1336 156.999 71.6994C157.133 71.6304 157.281 71.5943 157.432 71.5943C157.583 71.5943 157.732 71.6304 157.866 71.6994C158.061 71.7901 158.23 71.9267 158.359 72.097C158.488 72.2673 158.572 72.4661 158.604 72.6759C158.612 73.0726 158.533 73.4662 158.372 73.8304C158.211 74.1945 157.973 74.5205 157.673 74.7864" fill="#CA5098"/>
</svg>
