<svg width="309" height="438" viewBox="0 0 309 438" fill="none" xmlns="http://www.w3.org/2000/svg">
<path d="M414.745 347.257C415.656 380.044 397.43 411.144 372.86 432.882C348.29 454.62 317.803 468.394 287.385 480.683C266.74 489.034 243.505 496.9 222.797 488.821C203.056 481.131 191.183 461.024 183.455 441.306C178.246 428.015 174.188 414.163 172.892 399.943C169.843 366.433 182.124 333.543 195.717 302.759C208.582 273.576 226.24 238.865 260.161 230.587C282.44 225.15 291.355 237.487 305.258 252.351C313.593 261.297 321.93 270.642 333.742 274.621C346.657 278.961 360.416 276.047 373.317 281.872C398.07 293.037 413.971 320.616 414.718 347.258" fill="#0095D4"/>
<path d="M8.97756 394.487C12.4745 364.966 39.857 354.446 54.6597 332.397C67.2469 313.59 74.8221 287.856 96.5686 277.229C115.908 267.779 135.834 271.627 150.918 254.086C163.73 239.149 171.691 220.364 186.811 207.46C202.545 194.061 222.615 190.152 242.286 186.324C247.079 185.393 280.975 168.805 281.122 168.994L317.452 200.997C323.129 214.943 321.003 230.898 314.615 244.06C308.227 257.221 298.08 267.991 287.298 277.803C279.134 285.166 270.43 292.308 264.947 301.874C253.999 320.908 257.894 345.244 252.534 366.778C247.605 386.528 241.289 406.695 228.068 422.614C212.614 441.197 187.974 450.921 168.61 465.091C129.009 494.053 87.9362 488.459 47.1817 465.039C20.7586 449.872 5.31285 425.578 8.97632 394.515" fill="#9BCEA4"/>
<path d="M376.994 120.379C373.688 103.659 370.03 86.1565 360.838 71.9125C349.106 53.6407 329.825 41.7469 308.809 37.1773C286.369 32.2895 251.393 30.9593 241.557 57.219C235.094 74.4593 243.315 93.0348 239.953 110.701C237.18 125.355 232.952 139.873 232.76 154.775C232.452 175.885 240.314 196.309 251.034 214.468C265.34 238.667 281.86 264.838 306.667 279.498C327.613 291.876 379.945 297.114 387.833 264.98C390.228 255.24 384.96 245.496 382.447 235.81C377.996 218.726 382.166 201.277 383.452 184.087C384.864 165.222 382.152 146.057 378.423 127.571L377.042 120.35" fill="#CA5098"/>
</svg>
