<svg width="756" height="826" viewBox="0 0 756 826" fill="none" xmlns="http://www.w3.org/2000/svg">
<path d="M683.637 566.822C685.24 624.506 653.172 679.224 609.944 717.47C566.716 755.716 513.077 779.95 459.559 801.571C423.237 816.264 382.358 830.104 345.924 815.888C311.191 802.36 290.302 766.983 276.705 732.291C267.541 708.906 260.401 684.536 258.121 659.517C252.755 600.56 274.363 542.693 298.279 488.531C320.913 437.187 351.981 376.115 411.661 361.552C450.86 351.986 466.544 373.692 491.006 399.844C505.669 415.584 520.338 432.025 541.12 439.025C563.843 446.661 588.051 441.534 610.749 451.783C654.299 471.427 682.276 519.949 683.589 566.822" fill="#0095D4"/>
<path d="M7.06919 657.629C9.93688 618.935 45.0294 603.648 63.0629 574.049C78.394 548.804 86.7949 514.813 114.534 499.71C139.204 486.279 165.399 490.156 184.058 466.418C199.904 446.207 209.205 421.256 228.176 403.563C247.919 385.19 273.857 378.943 299.281 372.824C305.475 371.336 348.712 347.763 348.914 348.002L398.106 387.652C406.305 405.51 404.448 426.438 396.874 443.966C389.301 461.494 376.69 476.119 363.197 489.531C352.976 499.6 342.039 509.411 335.439 522.199C322.259 547.646 328.73 579.156 322.976 607.543C317.682 633.578 310.604 660.238 294.28 681.753C275.199 706.869 243.636 720.961 219.206 740.547C169.241 780.583 115.38 775.64 60.9121 747.437C25.599 729.174 4.07281 698.381 7.06919 657.665" fill="#9BCEA4"/>
<path d="M579.301 211.795C573.485 182.379 567.049 151.584 550.876 126.523C530.235 94.3755 496.311 73.4496 459.337 65.4099C419.856 56.8102 358.319 54.4699 341.013 100.671C329.643 131.004 344.106 163.686 338.192 194.768C333.312 220.549 325.873 246.092 325.536 272.312C324.994 309.452 338.826 345.386 357.686 377.335C382.857 419.911 411.922 465.956 455.568 491.749C492.421 513.526 584.494 522.743 598.372 466.205C602.586 449.07 593.316 431.926 588.896 414.884C581.065 384.826 588.401 354.126 590.663 323.884C593.147 290.691 588.376 256.974 581.816 224.448L579.386 211.745" fill="#CA5098"/>
</svg>
